<?xml version="1.0" encoding="utf-8"?>
<!-- Generator: Adobe Illustrator 18.1.0, SVG Export Plug-In . SVG Version: 6.00 Build 0)  -->
<svg version="1.1" id="Layer_1" xmlns="http://www.w3.org/2000/svg" xmlns:xlink="http://www.w3.org/1999/xlink" x="0px" y="0px"
	 viewBox="0 0 59.41 38.49" enable-background="new 0 0 59.41 38.49" xml:space="preserve">
<path fill="#D53A81" d="M1.05,2.41h3.33C4.42,1.09,5.5,0,6.86,0h5.94c1.35,0,2.43,1.08,2.47,2.39h35.69c4.66,0,8.45,3.78,8.45,8.45
	v17.06v0.16v8.34c0,1.16-0.94,2.1-2.1,2.1s-2.1-0.94-2.1-2.1v-3.71h-2.19v3.71c0,1.16-0.94,2.1-2.1,2.1s-2.1-0.94-2.1-2.1v-3.71
	h-1.79c-2.94,0-5.42-1.95-6.22-4.63H28.73v8.34c0,1.16-0.94,2.1-2.1,2.1s-2.1-0.94-2.1-2.1v-8.34h-2.11v8.34
	c0,1.16-0.94,2.1-2.1,2.1s-2.1-0.94-2.1-2.1v-8.34h-0.4c-2.83,0-5.13-2.3-5.13-5.13l-1.2-5.7H8.13c-1.27,0-2.33-0.96-2.46-2.22
	l-0.9-8.68l-4-1.84C0.31,4.34,0,3.93,0,3.46C0,2.88,0.47,2.41,1.05,2.41z"/>
</svg>
