<?xml version="1.0" encoding="utf-8"?>
<!-- Generator: Adobe Illustrator 18.1.0, SVG Export Plug-In . SVG Version: 6.00 Build 0)  -->
<svg version="1.1" xmlns="http://www.w3.org/2000/svg" xmlns:xlink="http://www.w3.org/1999/xlink" x="0px" y="0px"
	 viewBox="30.12 -363 1058.95 982" enable-background="new 30.12 -363 1058.95 982" xml:space="preserve">
<g id="Layer_5">
	<rect x="173" y="-349.42" fill="#CCCCCC" width="766" height="958.79"/>
</g>
<g id="Layer_2">
	<rect x="343.3" y="306.81" fill="#9EC4FA" width="561.7" height="182.37"/>
	<rect x="343.3" y="186" fill="#B5D8A6" width="561.7" height="122.31"/>
	<rect x="193.26" y="64.78" fill="#EC9998" width="711.74" height="122.31"/>
	<rect x="205.11" y="1" fill="#F1C232" width="699.89" height="63.78"/>
	<rect x="321.3" y="489.19" fill="#085394" width="561.7" height="125.81"/>
</g>
<g id="svg2" xmlns:sodipodi="http://sodipodi.sourceforge.net/DTD/sodipodi-0.dtd" xmlns:cc="http://creativecommons.org/ns#" xmlns:inkscape="http://www.inkscape.org/namespaces/inkscape" xmlns:dc="http://purl.org/dc/elements/1.1/" xmlns:svg="http://www.w3.org/2000/svg" xmlns:rdf="http://www.w3.org/1999/02/22-rdf-syntax-ns#" sodipodi:docname="England_Regions_within_UK.svg" inkscape:version="0.48.0 r9654">
	
		<sodipodi:namedview  id="namedview21" showgrid="false" pagecolor="#ffffff" inkscape:cy="190.99012" inkscape:cx="-954.79133" guidetolerance="10" objecttolerance="10" gridtolerance="10" borderopacity="1" inkscape:zoom="0.15020367" bordercolor="#666666" inkscape:current-layer="svg2" inkscape:window-maximized="1" inkscape:window-y="25" inkscape:window-x="0" inkscape:pageshadow="2" inkscape:pageopacity="0" inkscape:window-height="949" inkscape:window-width="1280">
		</sodipodi:namedview>
	<path fill="#FFFFFF" d="M30.12-363v982h1058.95v-982H30.12z M812.91,279.91l0.75-0.09v0l3.69,0.88l-2.41,0.25l-1.09-0.75
		l-1.09,0.75L812.91,279.91L812.91,279.91l-0.09,0.16l-1.38,0.03L812.91,279.91z M406.69-188.91l7.22-3l1.53,1.06l3.16,0.16v3.12
		l-1.03,3.5l-5.5,3.41l-2.22-0.78l0.25,2.09l-0.66,4.34l-2.34,0.5l-3.66,5.09l-2.75,2.84l-4.59,1.62l-0.66-4.88l2.12-3.62l2.34-4.62
		l4.03-3.5l-4.94,0.12l-0.56-3l-2.03-3.12l-0.16,4.81l-3.25,5.34l-1.44-0.75l-0.41-6.16l-3-0.62l-0.25,2.19h-2.25l-6.41,0.81
		l1.69-4.22l-3.38,1.59l-5.91-11.09l-1-0.69l0.66-2.34l1.94-1.41l3.16-0.41l-0.72-2.25l-3.34,1.06l-0.69-4.06l-0.66-2.59l-1.94,2.84
		l-0.66-3.09l-2.34,1.53l0.25,4.97l-1.41,0.69l-2.66-2.41l-3.81-2.19l-1.28-0.16l-1.16-1.69l0.75-0.75l-0.5-2.75l-2.5-0.81l0.56-3.5
		l3.12,0.34l-0.94-5.09l2-1.16l3.09,6.41l1.47,2.34l1.03-0.62l1.31,1.94l0.66-0.91l-2.22-3.25l-0.78-4.84l2.75,0.09l1.53,1.47
		l0.25-1.47l-3.75-4.16l-1.59-0.88l1.59-6.06l3.25,2.25l1.56,4.44l4.44,5.62l2.09-1.56l-0.12,2.19l1.59-1.28l0.75-1.97l1.19,0.91
		l0.16-1.84l-1.19-2.34l1.28-0.66l1.06-2.75h-1.72l-0.25-2.44l-1.44-3.41l1.31-1.97l1.84-0.28l1.53-1.72l0.16-2.84l1.97,0.66
		l2.09,1.31l2.19,5.88l2.25,0.5l3,5.5l-0.78,6.91l-0.91,10.5l-2.91,1.16l-0.34,2.09l3.75-0.78l0.66,1.59l-1.31,1.94l1.69,3.66
		l-0.09,2.34l3.25,0.66l0.56,2.09l-2,2.75l3.41-1.69l1.44,2.09l3.91,0.66l1.19,2.44H406.69z M416-77.19l1.09,0.78L417-74.75
		l-1.19,0.94l-0.31-1L416-77.19z M415.56-80.41l0.53-0.75l0.47,0.72l-0.38,0.88L415.56-80.41z M417.06-83l-1.38,1.44l-0.84-1.34
		l-0.91-1.78l2.12-2.81l1.62,0.34l-0.44,2.41l-0.94,0.25L417.06-83z M415.34-79.19l-1,6l-1.59-2.97l0.84-4.34l0.97-1l0.19,1.5
		L415.34-79.19z M414.19-95.91l-1.69,1.31l-2.16-1.5l0.34-1.66l-2,0.16l0.16,1.34l-2.66,2.84l3.5-1l1.66,0.31l-0.34,1.5l-7.81,5.69
		l-3.5-1.69l2.81-2.81l-1.81-0.69l-3.34,2.69l-3.66,0.66l-3.84,3l-1.66-1.16l-3.19,0.5l-1.16,1.16l-6.16-0.34l-1.34,2l-3.66-1
		l-1-3.66l-1.19-1.84l1.5-2.5l3.19,0.5l1.81,1.5l-0.66,1l2.16,0.34l-0.5-2.66l5,0.81l6.69-1.66l3.5-2l-0.34-1.84l-2.84,1.5l-6,0.84
		l-2.31,0.16L381-96.25l3-2.5l1.84-4.34l4.66-0.31l3.5-2.84l-0.66-2.16l-7.16,2.5l-0.84-2.34l-5-3.84l-4.16,0.34l-2.34-3.5
		l3.16-2.34l-2-3.16l4-0.66l3.84,2.5l-1.34-4.69l4.34-2.31l2.16,0.5l2.69,2l1.5,2.31l2.5,3.34l1.5,5.34l0.31,1.5l2.69,1l4.66,0.81
		l4,2.5l3.66,2.19l2.84,2.31l0.34,3L414-98.25L414.19-95.91z M405.69-20.91l-0.62-1.34l1.12-1.16l0.88,0.91L405.69-20.91z
		 M406.06-18.75l-2.75,4.5L402.56-17l1.88-3.41L406.06-18.75z M404.44-54.44l-2.75,4.38l-1.25,0.38l-0.34,3.19l-1.41,2.81l-0.5,2.62
		l-1,1l0.41-0.94h-1.25l-1.09,2.09l-1.44,0.59l-0.56,4.16l-1.56,3.34l-2.38-0.34l-3.56-1.41l-0.94-2.34l-0.38-7l3.5-5.25l2.5-1.25
		l2.12-0.03l1.75-0.81l-3.62-1.66l3.56-6.53l3.56-2.88l5.78-4.62l4.22-3.12l2.03-0.84v0l0.75,2.22l0.25,1.94L404.44-54.44z
		 M370.06-23.75l-1.75-0.5l0.62-2.16l4.38-3l0.38-1.59l-5.62-0.5l-0.62,2l-4.38,6.75l-3.75,3.09l-2.62-2.75l1.88-1.84l-0.25-2.25
		l2.62-1.75l-0.12-2.91l-1-1.25l1.62-1.75l0.25-3.75l1.12-1.59l2.75,0.09l2.12-2.09l2-0.25l-0.88,5.09l1.12,0.5l2.62-5.25l5.38-5
		l4.5-0.75v0l0.88,11.66l0.75,5.09l2.12,2.16l-0.5,2.5l1.62,2.5l0.75,4l-2.5,2l-1.5,2.5l-1.25-0.41l-4.62,1.5L376.56-14l-1.25,0.09
		l-1.5,3.5l-2.62,1.5l-3.88-1.75l2.75-5.34l2.5-1.66L370.06-23.75z M335-235.19l-1.41-0.31l-0.25-1v-0.91l1.09-1.03l2.25,0.53
		l-0.19-0.94l0.81-0.31l0.69,1.84l1-0.12l0.84,0.75l-2.53,3.53l-1.22-1.5l0.31-1.16L335-235.19z M340.69-114.41l3.16-1.19l3.16-0.16
		l2-1.16l1.5,1.31l-2.16,2.34l-2-0.5l-1.66,4.16l-3.69-0.66l-1.31,4.34l-1.84,0.31l-2-2.16l-1.5,0.84l-0.34-6l2.19-2.19
		L340.69-114.41z M350.19-117.59l3.66-4l3.34-2.16l2.5-2.5l2.16-1.84l4-2.81l2.34,0.5l-0.69,1.81l-3.5,5.19l-1.31-0.34l-2,3.5
		l-3.34,1.66l-2.34-0.66l-2.31,1.66H350.19z M370.09-87.75l0.91,0.69l-0.81,1.62l-1-0.56L370.09-87.75z M367.69-88.75l-2-1.34
		l1.5-2.31l2.66-0.34L367.69-88.75z M368.81-168.41l-2.56-1.78l-2.41,1.03l-1.66-0.41l0.06-1.88l3.56-0.97l3.44,0.84l0.81,1.81
		L368.81-168.41z M373.69-59l1.88-2.91l1.12-3.09l2.38-0.75l0.88-0.91l2.5-2.09l1.25,1.25l-2.88,5.25l-0.62,1.84l-1.75,3.5l-1,0.5
		l-2,1.75l-0.62-2L373.69-59z M408.94-70.25l-1.59-0.94l1.25-1.88l1.91-1.19l1.09,0.81l-0.03,2.75L408.94-70.25z M409.44-75.69
		l1.16-1.38l0.72,2.31l-0.88-0.16L409.44-75.69z M371.66-165.94l4.16-3.25l3.03-0.66l3.97,3.25l0.88,2.69l-1,4.47l-1.88,3
		l-3.16-0.22l-2.34-3.66l-3.5-2.84L371.66-165.94z M375.25-106.91l0.31-1.91l1.62,0.12l1.81,0.25l1.41-0.56l2.28,1.94l1.97,0.38
		l-0.06,1.75l-1.69-0.16l-3.5-0.31L375.25-106.91z M380.56-145.16l-0.56-1.59h0.81l2.09-0.5l1.19,1.94l-1.75,1.62L380.56-145.16z
		 M382.69-180l2.56-1.5l1.59,0.09l0.75,0.75l-0.53,0.91l-0.97,0.56l-0.84,1.59L382.69-180z M386.06-154.31l1.78-0.38l-0.78-1.5
		l2.28-0.66l1.5,3.25l-1.34,4.84l-2.69-0.69l-1.81-2L386.06-154.31z M362.25-258.75l0.5-1.41l2.5,0.75l0.91,1.72l-1.72,0.38
		L362.25-258.75z M403.31-193.31h-3.25l-2.12-2.62l1.31-2.22l2.09,0.41l2.34,2.34L403.31-193.31z M402.66-226.5l0.91,1.69
		l-1.72,5.75l-1.28-1.84L402.66-226.5z M400.81-217.91l0.62,1.84l-3,6.25l0.41,5.12l1.31,3l-3.91,2.88l-1.44-2.59l0.12-7.44
		l1.97-4.59l1.84,0.5l0.34-1l-0.66-2.5L400.81-217.91z M357.19-302.16l0.72,1.97l2.66,1.78v2.06l-2.38-1.06l-2.34,0.31l-0.5-1.16
		l1.31-0.56l-1.06-0.12l-0.78-3.66L357.19-302.16z M340.91-290.59l1.66-1.97l-0.72-2.69l1.22-0.56l1.78,0.56l0.41,1.66l1.34-1.97
		l-1.03-0.25l-0.91-0.78l0.25-1.97l1.94-3.25l0.31,1.16l2.44,1.72l1.09-1.31l0.81,1.84l1.5,0.16l-0.41,1.41l-2.09,0.25l1.25,1.78
		l2.31,0.06l0.19,2.69l1.09-1.28l-0.34-1.59l0.91-0.41l2.16-0.75l3.75,1.94l1.34,1.97l1.94-1.66l-1.53-1.22l-1.47-0.09v-1.44
		l1.16,0.53l-0.16-0.88l-2.03-2.38l-1.56-4.34l2.31-0.94l-2.97-0.72l1.25-1.88l4.22-1.75l2.62-0.72l2.38-2.41l1.75,1.06l4.28-2.16
		l1.72-3.34l1.69,0.09l8.59-6.34l1.09-1.66l1.75-0.44l1.88-1.47l-0.62-1.12l0.88-0.75l2.59,1.75l0.5,2.25l1.53,1.38l-0.34,2.25
		l0.66,1.72l0.19,1.75l-1.28,0.91l-1.5,4l0.91,1.62l1.75,1.66l-2.12,0.34l-2.78,4.5l-1.66-0.09l-1.31,2.47l-1.62,0.12l-0.22,2.81
		l-2.59,0.56l-1,1.34l1.41,0.75l1.44-0.91l1.81,1.44l1.28,0.5l1.56-1.19l1.44-0.25l2.22-2.44l1.69-1.72l1.41,1l-1.94,4.25
		l-2.22,1.66l-1,1.56l-2.09,0.38l-1.91-2.59h-1.75l-1.28,1.22l-1.31-0.16l-1.44,1.03l0.62,3.12l-1.03,0.53l1.19,0.5l-0.19,1.56
		l-1.81-0.47l-2.03,0.75l-1.72,1.97l-6.5,1.28l5.22,0.66l1.09-0.69l1.84,0.84l1.75-0.66l1.41,0.66l0.53,2.06l-0.75,1.78l-3.69,0.59
		l4.69,0.88l-0.62,2.75l-1.41,1.69l-2.81-1.84l-8.53,0.91l7.59,2.12l-0.06,2.56l-1.16,0.41l-0.53,2.19l-0.91-0.25l-1.69,1.31
		l-1.31-0.16l-0.75,1.19l-1.69,0.12l-1.47-0.16l-2.34-0.16l-4.94-8.25l3.12,7.41l-2.09,0.75l2.41,1.91l-0.19,1.75l-3.38-0.25
		l-2.44-1.88h-1.84l0.41,1.38l-0.56,1.38l1.69,0.72l0.81,1.78l0.94,1.16l0.12,1.72l-1.47-0.25l-2-0.88l-0.19,2.97l-1.5-0.72l-1-0.59
		L353.5-253l-1.25,0.91l-0.56,1.28l-1.44,1.88l-2.59,2.34l-2,1.53l-3.47-5.34l-2.25-3.66l-2.03-1.19l-0.59-2.31l1.62-0.34l1.22,1
		L341-256l2.09-1.16l1.81-1.44l0.78-2.09l0.81,0.53l1.81-0.53h0.88l0.41-0.5l-1.44-1.31l0.28-1.31l1.56-0.88l2.84,1.03l1.31,0.09
		l-0.09-2.09l-1.06-1l-2.5-1.59l-3.25-1.41h-2.56l-1.94-2.16l-1.25,0.31l-0.41-3.09l-0.78,0.84l-0.62-0.75l1.31-0.59l0.94-1.84
		l1.16,0.62l0.97-1.44l0.75-1l-1.62-0.69l0.56-1.66l2-1.5l-0.69-0.75l-2.38,1.28l-1.44-1.53l-1.94-5.47L340.91-290.59z
		 M382.16-283.44l-2.5-0.41l2.34-0.91L382.16-283.44z M340.5-263.94h1.81l1.59-1.97l1.94-0.09l0.25,1.81l-1.53,1.84l-1.31-1.06
		l-2.59,1.16L340.5-263.94z M338.94-279.56l1.41,0.66l0.56,2.09l-1.31,1.31l-0.53-0.94l-1.56-0.25l-1.06-1.72L338.94-279.56z
		 M335.81-246.91l-0.91,1.59l-2.22,1.31l-2.09-0.41l1.84-3l2.47-0.41L335.81-246.91z M331.66-253.5l1.44,1.66l-2.34,1.28l-1.84-1.62
		L331.66-253.5z M319.44-241.44l2.16,0.19l-1.41,1.56l-1.28-0.97L319.44-241.44z M312.75-235.06l1.31-2.44L315-240l-0.41-0.5h3
		l2.22,2.59l1.28,0.66l0.81-2.09l0.66-1.41l1.28-0.66v-1.19l1.72-1.16l0,0l-0.16,1.41l-0.81,1.84l-0.09,1.16l1.56,0.53l0.5,0.91
		l1.69-0.41l1.19-0.88l-1.19-1.31l1.69-0.66l1.06-1.44l1.69-0.75l1.81,2.03l-0.66,1.62l-1.41,1.28l-1.03,1l1.03,1.22l-0.28,1.28
		l1.94,0.66v1.16l0.16,1.59l2.75-0.16l-0.94,2.84l-1.16,0.56l-2.75-0.66l-6.5,0.91l7.69,0.09l1.81,0.41v1.84l-1.31,3l-3.09-0.78
		l-2.09-0.25l0.41,1.28l1.69,2.59l-1.06,0.5l-3-1.12l-1.53-0.66l-1.56-1.31l-0.78-1.84l-1.22,1.69l-1.41,0.25l0.12-2.94l-2.97-5.25
		l-2.75-0.34l-1.44-1.59l-1.97-2.47L312.75-235.06z M331.16-221.25l-0.25-1.06l1.69,0.06l0.47,0.94l-0.66,0.66l0.75,0.84l-1.16,1.12
		l-0.84-0.31l0.28-1.41L331.16-221.25z M325.91-194.59l-1.56,2.5l-1.69-0.22l0.19,1.06l1.22,0.41l0.5,0.75l-0.41,1.5l0.94,1.16
		l0.25,1.88l-1.66,1.5l-2-0.88l-2.28,0.28l-0.06,1.22l0.72,0.69l3.12-0.44l1.75,1.03l-0.09,1.34l1.09-0.5l0.75,0.97l-0.94,1.34
		l-0.31,1.06l-4-1.81l-1.25,0.66l-3.12-0.09l-1.25-1.5l0.19-1.41l-0.59-0.47l-0.81-11.34l-1.25-0.69l1.91-1.31l0.69-4.03l1.66-1.25
		l0.06-5l-1.5-4.38l3.09-1.44l0.09-1.25l0,0l3.97,2.31l1.75,0.53l-2.06,0.5l2.66,1.34l-1.75,0.31l3.34,2.34l-1.56,0.34l1.88,1.12
		l-1.47,1.03l1.47,0.72l0.44,2.34l1.31-0.09l0.19,0.78l-0.81,1.72l-1.44,0.09l-1.59,2.03L325.91-194.59z M323.31-177.44l-0.88,3.12
		l-0.84,1l-1-1l0.06-2.94L323.31-177.44z M319-169.16l-0.31,0.81l-1.53-1.31l0.66-0.25L319-169.16z M314.81-173l1.12-1.84l0.91,1.09
		l-0.91,0.91L314.81-173z M315.66-167.16l-0.09,1.22l-0.97-0.31l-0.19-1.34l0.66-0.34L315.66-167.16z M327.56-214.31l-0.22-1.09
		l1.97,0.47l0.78,1.03l-0.28,1.16l-1.81,0.66l-0.81,0.53l-1.34,0.47l-1.78-0.25l-5.5-3.25l-0.62-2.75l-0.09-1.34l0.22-1.12
		l1.78-0.28l0.22-1.34l2.44-0.56l2.41,1.75l1.75,0.56l1.44,0.44l2.31,1.59l-0.81,0.5l-0.59,0.72l-1.66-0.16l-1-0.25l-0.84,1.44
		L327.56-214.31z M327.91-210.25l0.91-1.34l1.78-0.34l-0.28,1.62L327.91-210.25z M305.41-165.59l1.75-0.34l-0.06-1.41h1l-1.03-2.72
		l2.78,0.16l1.66-1.34l0.06-3.59v0l1.03,0.09l0.09,1.19l1.06,0.72l-0.44,1.19l-1.16,0.84l2.41,2.16l-1.88,0.09l1,1.38l0.25,1.44
		l-0.84,0.16l-0.5,1.25l-1,0.41l0.81,0.75l-1.22,0.62l-1.84-0.19l-0.5-1.16l-0.69-0.19l-0.66,1.5l-2.84-1.56L305.41-165.59z
		 M304-163.31l2.06,0.56l-0.25,0.66l3.09,0.94h-2.22l-0.59,0.72l1.59,0.38l-2.59,0.97l-1-1.47l0.97,0.22l0.34-0.75l-1.81-0.72
		L304-163.31z M308.16-156.31l-1.56,0.81l-1-2.06l1.47-0.38L308.16-156.31z M297.81-150.06l1.84-0.59l0.41,1.25l-0.47,1.59
		l-1.19,0.88l-1.31-0.88L297.81-150.06z M298-146.34l1.94,0.75l-1.59,0.34l-1.25-0.66L298-146.34z M373.69,155.81l-0.03-0.31
		l-0.47-0.31l-0.84-0.03l-0.66-0.84l-0.38,0.03l-0.06-0.78l-0.44-1l0.12-0.41l-0.69-0.34l-0.19-0.38l-0.38,0.47l-0.28-0.34
		l-0.84-0.38l-0.88,0.12l-0.53,0.34l-0.56-0.41l-0.84-0.34l-0.25-0.41l-0.5-0.34l-0.44-0.31l-0.56,0.5l-0.44,0.41l-0.12,0.69
		l-0.12,0.41l-0.22,0.31l-0.75,0.25l-0.03-0.34l-0.5-0.16l-0.06-0.66l0.06-0.69L361.5,150l-0.5-0.19l-0.44,0.28l-0.5-0.44
		l-0.41,0.19l0.03,0.56l0.38,0.25l-0.31,0.44l0.34,0.41l-0.19,0.41l-0.06,1.25l0.25,0.25l0.06,0.28l-0.31,0.41l-0.28,0.72
		l-0.75-0.31l-0.31,0.25l-0.06,0.59l-0.19,0.56l-0.41-0.5l-0.44-0.25l-0.59-0.06l-0.41,0.34l-0.47-0.19l-0.19,0.41l-0.34-0.16
		l-0.47,0.34l-0.5-0.69v-0.41l-0.38-0.75h-0.41l0.09-0.19h-0.59l-0.56-0.22l-0.16,0.31l0.5,0.69l-0.44-0.28l-0.34,0.44l-0.41,0.5
		h-0.56l-0.38,0.34l0.09,0.47l-0.75-0.12l-0.34-0.44l-0.66-0.25l-0.59,0.41l-0.25,0.41H348l-0.25,0.28l-0.94-0.19l-0.06-0.25
		l-0.81-0.31l-0.34-0.28l-0.44,0.25l-0.09,0.5l0.28,0.12l-0.03,0.41l-0.75,0.16l-0.16,0.59l-0.5-0.5l-0.56,0.72l-0.53-0.31v-0.5
		l-0.62-0.41l0.06-0.53l-0.41-0.25l-0.34-0.91l-0.56-0.16l-0.28-0.44l-0.31-0.66l0.59-0.06l0.38-0.44l0.09-0.72l-0.47-0.5l0.16-0.84
		l0.16,0.41l0.56,0.09l0.25-0.28l-0.16-0.41l0.16-0.56l-0.47-0.44l-0.16-0.59l-0.25-0.91l0.25-0.09H342l0.16-0.72l0.44-0.03
		l0.16-0.38l-0.34-0.44l0.25-0.69l0.44-0.25l0.22-0.91l-0.41-1l-0.06-0.59l-0.28-0.47l-0.16-0.66l-0.41-0.25l-0.66-0.59l-0.19-0.5
		l-0.34-0.25l-0.5,0.16l-0.47-0.31l-0.5-0.59l-0.53-0.03l-0.81,0.59l0.09,0.53l-0.34,0.31l-0.19,0.66l-0.66-0.5l-0.34,0.69
		l-0.25-0.41l0.12-0.5l-0.62-0.38l0.03-0.5l-0.69-0.5l-0.56,0.28l-0.53-0.41l-0.22-0.59l-0.84-0.25l-0.19-0.59v-0.84l-0.97-0.25
		l-0.19-0.81v-0.78l-0.5-1.06l-0.06-1.5l-0.41-0.56l-0.44-0.03l-0.5,0.25l-0.09-0.47l-0.66-0.03l-0.09-0.56l-0.59-0.28l0.09-1.22
		l0.28,0.06l0.22,0.53h0.41l0.09-0.19l-0.09-0.44l0.19-0.12l0.41-0.12l-0.22-0.41l0.25-0.25l-0.34-0.75V127l-0.5-0.06v-1.28
		l-0.09-0.47l-0.09-0.28l-0.41-0.56l-0.16-0.75l-0.44-0.16l-0.56-0.5l-0.34,0.31l-0.59-0.34l0.5-0.5l-0.34-0.66l-0.31-0.25
		l0.19-0.25l-0.09-0.59l-0.5-0.56l-0.25,0.06l-0.28,0.25l-0.38-0.47l0.5-0.53l-1-0.16l-0.19-0.69l-0.75-0.16l-0.19-0.5l-0.47-0.59
		h-0.44l-0.09-0.81l-0.72-0.19l-0.25,0.53l-0.5-0.25l-0.09-0.78l-1.19-0.38l-0.06-0.25l-0.59-0.34l-0.31,0.47l-0.59,0.5l-0.59,0.19
		l-0.09,0.59l-0.56,0.72l-0.34,0.5l-0.09,0.62l-0.66,0.38l-0.41,0.88l-1.09,0.66l-0.41,0.41l0.5,0.41l-0.09,0.53l-0.34,0.47
		l-0.25-0.31l-0.72,0.56l-0.5,0.5l-0.41,0.03l-0.09,0.5l-0.53-0.09l-0.25,0.56l-1.12-0.09l-0.59-0.31l-0.69,0.09l0.28,0.34
		l0.06,0.75l0.25,0.38l-0.16,0.88l0.09,0.97l-0.09-0.34l-0.94-0.06l-0.22,0.59l-0.69,0.47v0.69h0.5l0.59,0.56l0.59,0.38l0.47,0.16
		v0.41l-0.34,0.66l-0.06,0.53h0.69l0.5-0.09l0.16,0.34l0.34,0.38l0.12,0.62l0.5,0.47l0.03,0.44l-0.75,0.09l-0.5,0.62l0.5,0.25
		l0.56,0.34l-0.41,0.44l0.06,0.5l-0.31,0.75l-0.69,0.41l-0.47,0.25l-0.41-0.31l-0.5-0.09l-0.09-0.66l-0.69,0.38l-0.06,0.78
		l-0.44,0.34l-0.59-0.09l-0.31-0.53l-0.19,0.09l-0.66,0.44v0.59l-1.09,0.16l0.03,0.59l0.66-0.09l0.09,0.66l-0.44,0.06H304
		l-0.44,0.28l0.25,0.84l-0.12,0.66l0.38,0.41l0.69,0.44l-0.75,0.16l-0.5,0.59l0.41,0.47l-0.31,0.44l0.09,0.5l-0.38,0.22l-0.16,0.88
		l-0.41,0.31l-0.66,0.69l-0.19,0.66l-0.31,0.22l-0.5,0.09l-0.53-0.25h-0.31l0.09,0.41l-0.75,0.59l-0.25-0.56l-0.34-0.78l-0.69,0.69
		h-0.75l0.03-0.5l-0.66-0.5l-0.09-0.5h-0.5l-0.34,0.31l-0.25,0.38l-0.25,0.12l-0.44,0.53l-0.22-1l0.66-0.41l0.34-0.53l0.34-0.34
		l-0.09-0.38l-0.53,0.22l-0.38,0.19l-0.19-0.03l-0.59,0.09l-0.31-0.41l-0.34,0.34l-0.56,0.09l-0.34-0.38l0.59-0.56l0.47-0.56
		l-0.09-0.38l-0.88-0.16l-0.62,0.34l-0.12-0.16h-0.34l-0.34,0.31l-0.41,0.34v0.31l-0.28,0.09l-0.47,0.28l-0.03,0.66l-0.38,0.25
		l-0.44,0.97l-0.81-0.06l-0.25-0.31l-0.78-0.12l-0.31-0.41l-0.5-0.06l-0.44-0.59l-0.56,0.5l-0.09,0.44l-0.25-0.19l-0.25-0.06
		l-0.16,0.56l-0.59-0.44l-0.66,0.03l-0.09-0.59l-0.44-0.19l0.09-0.5l-0.22-0.38l-0.62,0.06l-0.22,0.16l-0.66-0.31l-0.38-0.16
		l-0.16-0.44l-0.47-0.44h-0.44l0.16-0.66v-0.75l-0.25-0.59h-0.41l-0.41-0.72l-0.75-0.75l-0.16-0.44l-0.53-0.22l-0.16,0.31L277.5,139
		l-0.34-0.06l-0.16-0.84l0.25-0.44l-0.69-0.41l0.03-0.19l0.06-1l-0.47,0.44l-0.5-0.66l-0.28,0.47l-0.31,0.59l-0.28-0.31l-0.62-0.09
		l-0.84-0.09l-0.41-0.16l-0.53-0.66l-0.41,0.34l-0.44,0.22l-0.62-0.31l-0.59,0.06l-1,0.03l-0.25,0.25l-0.25,0.41l-0.53-0.19
		l-0.62-0.56l-0.78-0.25l-0.22-0.53l-0.59-0.16l-0.41-0.34l0.38-0.41l-0.22-0.34l0.22-1.38l-0.25-0.78l0.25-1.5l-0.47-0.47
		l-0.5-0.69l0.09-0.66v-0.78l0.22-0.25l0.09-0.5h0.34l0.16-0.47l-0.41,0.09h-0.66l-0.5-0.84l-0.28-0.34l-0.59,0.25l-0.16,0.19
		l-0.34,0.31l-0.41-0.09l0.09-0.41l-0.34-0.41l-0.25-0.19l-0.31,0.28l-0.34,0.06l-0.34-0.25l-0.72-0.41l-0.5-0.5l0.06-0.44
		l-0.41-0.59l0.09-0.5l-0.38-0.22l-0.31-0.69l-0.5-0.16v-0.84l-0.59-0.31l-0.34-0.34l0.19-0.41l-0.06-0.75l-0.5-0.09l-0.78,0.34
		l-0.47-0.41l-0.28,0.38l-0.34-0.66l-0.38,0.09l-0.28-0.41l-0.5-0.03l0.09-0.47l-0.59-0.28v-0.81l-0.31-0.56l-0.44-0.5L253,115
		l-0.5-0.34l-0.09-0.59l-0.72-0.66l-0.19-0.66l-0.59-0.16l-0.25-0.53l-0.59-0.62l-0.5-0.38l0.03-0.41l-0.94-0.59l-0.66-0.72
		l0.31-0.25l0.53-0.19l0.56-0.25l-0.56-0.75l-0.84-0.25v-0.47l-1-0.34l0.41-0.28l0.5-0.47l0.66,0.22l0.75-0.06l0.69-0.06l1,0.31
		l-0.06-0.44l0.56-0.22l0.44-0.09h0.56l-0.19-0.41l-0.22-0.66l0.31,0.16l0.75-0.19l0.53-0.16l0.47,0.34l0.69-0.09l0.75-0.06v-0.28
		l0.47-0.34l-0.31-0.56l0.41-0.41l-0.25-0.53l0.44-0.62l0.59-0.38l0.06-0.41l0.56-0.47l-0.12-0.5l0.47-0.12l0.19-0.81l0.22-0.44
		l0.34-0.12l0.78,0.31l0.62-0.31l0.38-0.12l0.25,0.38l0.47,0.12l-0.09,0.28l0.44,0.41l0.31,0.25l0.53-0.09l0.47,0.25l0.44-0.09
		l0.31-0.41l0.62,0.28l0.72,0.06l0.5-0.06H266l0.56,0.25l0.69-0.03l0.31-0.16l0.34,0.34l0.5-0.16l0.44-0.28l0.41-0.09l0.41-0.31
		l0.16-0.34L269.5,99l-0.34-0.41l0.5-0.25l-0.16-0.41l0.59-0.28l0.31-0.47h0.66l0.28-0.38l0.41-0.31l-0.25-0.41l0.09-0.41l0.31-0.38
		l0.16,0.34l0.19,0.09l0.09-0.25l0.66-0.19l0.34-0.31l0.66,0.06l0.09-0.25l-0.09-0.5l0.59-0.22v-0.41l0.41-0.03l0.56,0.03l0.34-0.34
		l0.75-0.03l0.44-0.5l1.06,0.03l0.16-0.66l-0.25-0.53l-0.47-0.16l-0.09-0.44l0.59-0.25l-0.5-0.81L277,90.25l-0.31,0.56l-0.59,0.09
		l-0.34,0.59l-0.81,0.09l-0.62-0.09l0.12-0.81l-0.5,0.5l-0.44,0.31l-0.09-0.44l-0.34-0.72l-0.41-0.44l-0.34-0.16l-0.56,0.16v-0.22
		l-0.59-0.09l0.09-0.41l-0.34-0.34l-0.5,0.22v0.34l-0.47,0.34l-0.84-0.16l-0.25,0.31h-0.41l0.06-0.41l-0.34-0.31l0.34-0.12
		l-0.41-0.47l0.22-0.66l-0.47-0.12l-0.44-0.56l-0.47,0.09L266.56,87l-0.75,0.09l-0.31-0.5l-0.34-0.19l0.19-0.47l-0.5-0.25l0.16-0.44
		l0.06-0.66l0.44-0.16l0.06-0.38l0.44-0.25l-0.09-0.38l-0.47,0.22l-0.19-0.41l-0.31,0.06v-0.56l-0.5-0.31l0.38-0.44l0.38-0.16
		l0.38,0.09l0.34-0.19l0.34,0.5l0.44-0.19l0.5,0.09l0.25-0.25l-0.09-0.41l0.34-0.31l0.38-0.28l0.09-0.41l0.44-0.34l0.09-0.5
		l0.41-0.16l0.06-0.19l0.41-0.31l0.38-0.31l0.41-0.09l0.56,0.22l0.34,0.28l0.06,0.41l0.19,0.19l0.09,0.41l0.22,0.16l0.12,0.41
		l0.31-0.06l0.66,0.06l0.44,0.19l0.31,0.06l0.03,0.5l0.06,0.34l0.31,0.09l0.34,0.09l0.25,0.22l0.28,0.03l0.41,0.25l0.09-0.19
		l0.31-0.09l0.19-0.66l0.41-0.31l0.09-0.28l0.5-0.16l0.25-0.31l0.5-0.03l0.16-0.25l0.72-0.06h0.5l0.28-0.03l0.25-0.31l0.41-0.16
		l0.09-0.25l0.47-0.16l0.03-0.28l0.56-0.34l0.5,0.03l0.16-0.41l0.5-0.25l0.53-0.38l0.09,0.38l0.56,0.16l0.34,0.34h0.66l0.34-0.12
		l0.25,0.34l0.41-0.09l0.19-0.47L286,78l0.41-0.09l-0.06,0.41l0.41,0.38l0.91-0.09l0.66,0.47l0.44-0.38v-0.62l-0.5-0.31l0.19-0.81
		l0.06-0.88l-0.25-0.56l0.19-0.81l0.31-0.62l-0.25-0.66l0.59-1.06l0.66-0.09l-0.09-0.5l0.69-0.09l0.81-0.34l0.28-0.5l0.41-0.16
		l0.72-0.59l0.28-1.06l0.72-1.25l0.03-0.81l0.75-0.75l0.91-1.25l0.31-0.62l-0.75-1.25l0.38-1.72l0.41-0.66l-0.16-1.53l0.16-0.81
		l0.75-0.91l1.22-0.03l1.28-0.06l-0.53-1.66l-0.22-1.19l0.31-0.5l-0.06-1.19l0.56-0.62l0.03-0.38l-0.78-0.62l0.59-0.84l0.41-0.5
		l0.19-0.78l0.84-0.75l0.88-1.16l0.94-0.72l0.69-0.38l0.75,0.44l0.72-0.09l0.69-0.47l0.41-0.25l0.09,0.56l0.5,0.25v-0.09l0.5-0.16
		l0.09-0.66l0.41-0.75h0.72l0.38,0.25l-0.03,0.34l0.41-0.09l-0.22,0.41l-0.19,0.75l-0.22,0.59l0.72-0.03l0.69-0.12l0.25-0.94
		l0.09-0.34l0.72-0.09l0.16,0.28l0.62-0.03l0.25-0.31l0.75,0.16l0.91-0.09l0.41,0.09l0.41,0.28h0.66l0.03,0.31l0.09,0.69l0.22,0.38
		l0.53,0.09l0.38,0.19l0.53-0.09l1.09-0.19l0.5-0.12l0.41,0.31l0.41-0.41l0.59,0.22l0.25-0.38l0.97-0.03l0.38-0.25v-0.56l0.97-0.66
		l0.5-0.59l0.5-0.53l0.28-0.31l-0.25-0.5l-0.28-0.44l-0.34-0.56l0.28-0.41l0.5-1.09l0.75-0.09l1-0.06l-0.19-0.19l-0.59-0.25
		l0.28-0.34l0.59-0.41l0.16-0.66l0.56-1.19l0.44-1.06l0.22-0.69v-0.91l0.28-0.84l0.47-1.25l-0.47-0.41v-1.06l0.59-0.09l0.5,0.94
		l0.22,0.06l0.84,0.66l0.44,0.44l0.62,0.41l0.62,0.16l0.56,0.03l0.19,0.31l0.91,0.09l0.31,0.25L333,35l2,0.06l0.25-0.38l1,0.12
		l0.66-0.31l0.66,0.25l0.44-0.31l0.66,0.5l1.09-0.19l1.31-0.25L341,34.16l-0.09-0.56l0.41-0.03l-0.16-0.97l0.84,0.06l0.19-0.41
		l0.31,0.31l0.09-0.47h0.56l0.41-0.34l0.75-0.09l0.75,0.09l0.12-0.16l0.22-0.16l0.03-0.44L345,30.81l0.06-0.62l0.53,0.25l0.25,0.38
		l0.31,0.44l0.44-0.16l0.22-0.28l0.94,0.09l0.19,0.19h0.72l0.19-0.19l0.47,0.16l0.12-0.25l0.62-0.06l0.12-0.44l0.56-0.16l0.44-0.22
		l0.5-0.19l0.47,0.44l0.19-0.34l0.75-0.03l0.25-0.25l0.16-0.41l-0.41-0.47v-0.44l0.56-0.09l0.44-0.16l0.09-0.31h0.22l0.44-0.38
		l0.09-0.38l0.62-0.03l0.59-0.34h0.94l0.41,0.28l0.06,0.59l0.34,0.41h0.44l0.75,0.06l0.5,0.34l0.72-0.25l0.19,0.81l0.84,0.03
		l0.25-0.25l0.34-0.25l0.31-0.16l0.25-0.28l-0.25-0.25l0.69,0.03l0.5-0.62l0.12,0.34l0.38,0.53l0.41-0.28l0.16,0.5h0.66l0.34-0.41
		l-0.09,0.44l0.41,0.22l0.38,0.44L366.5,29l0.16,0.31l0.41,0.03l0.28-0.28l0.41,0.12l0.31,0.06v0.31l0.28,0.34l0.41,0.25l0.5-0.06
		l-0.06,0.5l0.66,0.25l0.22,0.47l0.59-0.22l0.34,0.59l0.34,0.47l0.31,0.03l0.09-0.19l0.31,0.06l0.12-0.31h0.41l0.34-0.06l0.38-0.34
		l0.53,0.22l0.22-0.5l0.44,0.34l0.59-0.25v-0.25l0.56-0.25l0.03-0.41l0.5-0.19l0.22-0.25l0.75-0.06l0.34,0.19l0.41,0.41l0.09,0.59
		l0.5,0.22l0.19,0.25l0.12,0.44l0.59-0.03l0.44-0.16V32l0.34,0.34l0.12,0.16l0.38-0.09l0.38,0.41l0.28,0.34h0.47l0.34-0.06
		l-0.16,0.5l-0.16,0.34l0.34,0.22l-0.03,0.19l0.53,0.47v0.59l0.31,0.5l0.16-0.06l0.34,0.31l0.44,0.16l-0.03,0.84l0.28,0.28
		l0.25,0.72l-0.28,0.78l0.03,0.62L384,39.81l-0.41-0.06l-0.16,0.44l-0.25,0.38L383,41l0.44-0.09l0.16,0.53l0.09,1.88l-0.28,0.03
		l0.03,0.34l-0.34,0.16L383,44.41l-0.31-0.09l-0.25,0.78l-0.28,0.41l0.34,0.19l-0.16,1.56L382,47.41l0.44,0.91l0.5,0.44l0.38-0.06
		l0.12-0.12l0.41-0.22l0.97,0.16l0.19-0.25l0.91,0.06h0.66v-0.06l0.69,0.44l0.69,0.56l-0.12,0.81l-0.41,1.09l-0.16,0.34l0.16,0.84
		l-0.34,0.31v0.91l-0.31,0.19l-0.09,0.5l-0.5,0.34l-0.06,0.84l-0.25,0.62l0.34,0.59l0.88,0.16l0.03-0.22l0.72,0.09v0.5l0.25,0.66
		l0.5,0.16l0.28-0.34l0.66,0.28l0.34,0.5l0.59,0.12l0.22,0.78l0.25,0.66l0.66,0.41l-0.12,0.66l0.5,0.38l-0.09,0.47l0.34,0.78
		l-0.12,0.62l0.62,0.75l-0.09,0.88l0.5-0.03l0.31,0.5l0.53,0.16l0.16,0.28l0.25-0.19l0.47-0.09l0.34,0.28l-0.31,0.47l0.31,0.78
		l0.09,0.56l0.16,0.34l0.69,0.09L396,68.56l0.84,0.44l0.25,0.5v0.69l0.47,0.41l0.09,0.31l0.03,0.78l-0.19,0.22l-0.69,0.34l-0.12,0.5
		l0.38,1.06l0.53,0.03l0.56,0.66l0.34,0.25l0.34-0.09l0.47,0.34l0.53-0.34l0.72,0.41l0.12,0.34l-0.38,0.25l0.44,0.75l0.19,0.53
		l0.66,1l0.41,1.25l0.19-0.59l-0.09-0.44l0.22-0.72l-0.25-0.62l-0.38-0.41v-0.56l-0.5-0.94l-0.59-0.47l-0.19-0.19l-0.25-0.69
		l-0.84-0.47l0.03-0.41l-1-0.75L398,71.5v-0.66l0.41,0.16l0.28-0.94l0.62,0.84l0.53,0.09l-0.16-0.25v-0.41l0.5-0.03l1,0.69
		l0.97,0.84l0.84,0.72l0.09,0.88l0.47,1.06l0.5,1.06l0.19,0.59l-0.31,3.5l0.38,0.25l0.03,0.44l-0.78,0.91l-0.41,0.69l-0.06,0.47
		l-0.53,0.19l-0.62,0.75l-0.53,0.16l-0.25,0.31l-0.59,0.75l-0.47,0.03l-0.53,0.25l-0.25,0.31l-0.81-0.34l-1.19,0.5L396.75,86
		l-0.44,0.34h-1.16l-0.84,1.06l-1.22,0.75l-2.09,2l-0.41,1.53l-0.5,0.47l-0.25,0.44l2,1l0.56,0.25l1.19,0.5l0.25-0.53l0.47-0.31
		l0.78-0.41l0.56-0.75l0.78-0.41l0.31-0.38l1.06-0.12l0.84-0.34l0.59-0.5l0.94-0.41l0.62-0.44l0.25,0.66l0.69,0.25l0.41,0.41
		l0.19-0.25l0.66,0.12h0.44l0.25,0.16l0.25-0.03l0.88-0.16l0.12,0.28l0.31,0.06l0.19-0.31l0.75-0.38l0.16,0.69l0.5-0.16l0.59-0.09
		l0.06-0.34l0.06-0.75l0.09-0.22l0.69,0.16l0.5,0.5l0.59-0.03v-0.5l0.38,0.34l0.78-0.06l0.59,0.41l0.22,0.66l1,1.28h0.41l0.53,0.38
		v0.78h0.41l0.31,0.34l-0.12,0.81l-0.25,0.69l-0.12,0.66l0.25,0.25l0.25,0.56l-0.12,0.59l0.38,0.06v1.09l0.28,0.5l0.22-0.16
		l0.19,0.5l0.56,0.25v0.94l0.28,0.31h0.66l0.06,0.59l0.34,0.75l0.28,0.66l-0.44,0.25l0.25,0.31l-0.25,0.34l-0.25,0.59l0.16,0.91
		l0.44,0.59l0.25,0.34l-0.03,1.06l0.09,0.28l0.34,0.66l0.09,1.31l0.47,0.53l0.69,0.25l0.31,0.06l0.38,0.16l0.62-0.34l-0.47,0.5
		l-0.25,0.5l-0.5,0.28l0.16,0.59l0.31,0.47l-0.25,1.03l0.28,0.41l-0.34-0.03l-0.31,0.44l-0.38,0.19l0.03,0.66l-0.34,0.25l0.16,0.5
		l-0.84-0.09l-0.38,0.41l-0.59,0.34l0.25,0.84l0.41,0.31l0.5,0.91l-0.06,1.25l0.06,0.5l0.06,0.78l-0.25,0.5l-0.22,0.41l-0.44-0.31
		l-0.41-0.03l-0.34,0.69l-0.22,0.81l-0.19,0.41l0.41,0.25l0.5,0.03l-0.09,0.81l-0.75-0.09l-0.06,0.19l-0.25,0.44l0.09,0.38
		l-0.25,0.5l0.16,0.62l-0.34,0.81l-0.31-0.16l-0.53-0.44l0.12-0.31l-0.12-1.25l-0.12,0.59l-0.5,0.25l-0.44-0.19l0.09-0.5l0.09-0.59
		l0.22-0.34l-0.5-0.72l-0.56,0.34l-0.16-0.38v-0.31l-0.03-0.84l-0.31-0.72l-0.16-0.38l-0.5-0.38l0.25-0.38l-0.28-0.06l-0.72,0.06
		v-0.75l-0.38-0.38l-0.16-0.75l0.34-0.84l0.31-0.25v-0.69l0.44,0.03v-0.5l0.41,0.12l0.25-0.56l0.53-0.69l0.56,0.38l0.19-0.78
		l-0.34-0.59l0.22-0.25l0.28-0.47l-0.53-0.44l-0.25,0.16l-0.81-0.12l0.81-0.38l0.38-0.47v-1.09l0.47-0.34l-0.66-0.5l0.25-0.34v-0.5
		h-0.44l0.25-0.47l-0.41-0.78l-0.16-0.66v-0.75l-0.31-0.59l0.06-0.5l-0.44-0.62l-0.38-0.25l-0.34,0.38v0.75h-0.75l0.25-0.16
		l0.09-0.72l-0.38-0.53h-0.22l-0.19-0.66l-0.34-0.5l-0.47-0.06l-0.09-0.53l-0.44-0.56l-0.41,0.16l-0.31-0.44l-0.66-0.16l-0.5-0.41
		l-0.38-0.31l-0.41-0.09l-0.22-0.5l-0.69-0.44l-0.25-0.25l-0.59,0.09l-0.16,0.41l-0.16,0.66l-0.28-0.38l-0.38,2.38l0.88,0.69
		l-0.38-0.16l-0.69,0.22l-0.59,0.53l0.09,0.09l0.59,0.25l0.41,0.38l0.66,0.09l0.34,1l0.75-0.16l0.34,0.34l0.5-0.03l0.06,0.69
		l0.66,0.09l0.09-0.41h0.28l0.41,0.25l-0.19,0.25l-0.47,0.16l0.22,0.56l-0.25,0.28l0.19,0.25l0.75-0.53l0.34,0.09l-1,1.16l0.12,0.28
		l-0.22,0.56l-0.34,0.16h-0.59l0.25,0.28l0.19,0.25l-0.34,0.56l-0.09,0.31l0.25,0.12l0.53-0.5l0.16,0.22l-0.5,0.75l0.41,0.59
		l0.41-0.09l0.5-0.09l0.44,0.5l0.16,1.38l0.09,0.66l-0.78-0.03l-0.31-0.06l-0.25,0.19l0.34,0.56l-0.28,0.41l-0.5,0.69l0.38,0.31
		l0.16,1.03h-0.5l-0.09,0.47l0.06,0.41l0.12,0.09l-0.03,0.41l-0.72,0.09l0.25,0.53l-0.38,0.41l-0.31,0.5l-0.19,0.47l0.5,0.38
		l-0.12,0.97l0.38,0.09l0.09-0.25l0.19-0.16l0.66-0.34l-0.25-0.09l0.5-0.34l0.41,0.19l0.16-0.25l0.59-0.06l0.41,0.22l0.09-0.16
		v-0.31l-0.25-0.38l0.53,0.25l-0.03-0.5l0.84,0.59l0.44,0.03h0.38l0.12,0.38l-0.34,0.34l-0.09,0.44l0.31,0.25h0.25l0.19-0.28
		l0.5-0.12l0.31,0.97l-0.16,0.69l0.16,1.31l0.25,0.16l0.25,0.53l0.03,0.59l0.16,0.75l-0.09,0.88l0.16,0.28l0.62,0.06l0.31,0.19
		l-0.16,0.41l-0.53-0.19l-0.31-0.06l-0.16,0.31l-0.28,0.19l-0.38,0.16l-0.09,0.28l0.31,0.66l0.34,0.22l-0.19,0.44l-0.38-0.06
		l-0.03-0.78l-0.34,0.53l-0.06,0.72l-0.44,0.44l-0.38,0.16l-0.03,0.66l-0.41,0.16l-0.25,0.38l-0.59,0.22l-0.06,0.69l-0.41,0.25
		l-0.69-0.66l0.25,0.81l-0.06,0.75l-0.5,0.59l-0.28,0.06v-0.31l-0.09-0.69l-0.5-0.09l-0.16,0.34l-0.22,0.09h-0.53l0.09,0.56
		l0.06,0.59l-0.25,0.09v0.41l-0.31,0.19v0.34l-0.41,0.12l-0.41,0.5l-0.28,0.03v-0.5l-0.5-0.19v-0.34l0.19-0.22l-0.44-0.41l0.16-0.25
		l-0.47-0.5l-0.41-0.19l-0.44-0.31l-0.16,0.31l-0.44-0.31l-0.5,0.25l-0.66-0.09l-0.06-0.34l-0.59,0.19l-0.69-0.19l-0.56,0.34
		l-0.28,0.41h-0.38l-0.38-0.19l-0.62,0.38l-0.88-0.28l-0.16-0.22l-0.66,0.41l-0.56,0.25l-0.19-0.09l-0.41-0.16l-0.25-0.28
		l-0.16-0.38l-0.25-0.75l0.91,0.06l0.22-0.59l-0.22-0.59l-0.16-0.88l0.38-0.28l0.03-0.5l-0.66,0.34v0.59l-0.34,0.66l-0.16,0.34
		l-0.28,0.41l-0.09,0.5l-0.62,0.34v0.34l0.5-0.03l0.22-0.22l0.19,0.12l0.31,0.25l0.09,0.28L394,137l-0.06,0.41l-0.53-0.16
		l-0.25,0.56l-0.84,0.5l-0.66,0.53l-0.31,0.31l-0.75,0.66l-0.28,0.38v1.06l0.44,0.41l0.09,0.53l0.34,0.47l0.16,0.69l0.25,0.66
		l-0.16,1.16l-0.28,0.28l0.03,0.91l-0.62,0.5v0.59l-0.47,0.66v0.66l0.22,0.25l0.03,0.69l-0.44,0.41l-0.09,1l-0.38,0.31l-0.38,0.66
		l-0.41,0.28l-0.41,0.09l-0.16,0.47l-0.75,0.34l-0.69,0.44l-0.16,0.72l-0.84,0.53l-0.22,1.12l-0.69-0.16l-0.5,0.41l-0.5-0.16
		l-1.19,0.84l-0.66,0.69l-0.31,0.81l-0.75,0.19l-0.41,0.16l-0.19,0.41l-0.59,0.25l-0.59,0.69l-0.41-0.53l-0.59-0.31l-0.5-0.16
		l-0.5-0.84l-1.25-0.09l0.28-0.5l0.5-0.44L377,157l0.69,0.5h0.62l-0.31-0.34l-0.59-0.84l-0.25-0.41l-1.5-0.41l-0.5,0.09l-0.31-0.5
		l-0.66,0.5L373.69,155.81z M411.94,413.91l2.12,1.16l-0.81,0.38l-0.06-0.53l-0.84,0.84l-1.41-1.06L411.94,413.91z M409.34,399.44
		l1.25-0.09l-0.28,2.5l-0.66,0.06l-0.72-1.09l0.81-0.56L409.34,399.44z M605.91,551.06l-1.97,2.44l0.66-5.09l-3.66-4.09l2.88,2.84
		l2.62,0.25l-0.44,0.28l0.91,1.91L605.91,551.06z M698.5,536.59L696,537l-1.75,1.31l-1.75,5.78l-7.59,2.56l-6.59-5.66l-4.12-1.81
		l-2.59-2.5l-7.03,0.47l2.62-1.72l1.81-3.12h1.25l-0.06,0.38l0.25-0.28l2.16-0.41l3.06-1.91l0.69,0.22l-0.34,0.03l0.59,0.41
		l-0.16,1.19l0.75-1.19l1.22-0.19l-1.66-0.31l3.91-1.5l2.25-2.84l1.41-0.25l1.25,4.03l-0.66-3.78l1.09-0.22l2,1.56l0.59,0.91
		l1.75,0.59l-0.41,0.75l0.62-0.44l3.53,0.12l3.5,1.25l0.81,2.56l-0.31-0.16l-0.34,0.66l1.81-0.09l0.84,1.16L698.5,536.59z
		 M666.84,532.31l-1.03-0.47l0.59,0.16L666.84,532.31z M666.81,531.69l0.28,0.72l-0.16-0.06L666.81,531.69z M683.41,520.34
		L683.41,520.34L683.41,520.34l0.19,0.09l0.22-0.59l-0.06,0.41l-0.06,0.16l-0.19,0.16L683.41,520.34L683.41,520.34z M709.44,524.19
		l-5.84-0.88l-0.25-1.06l2.09-0.25l0.5-3.16l1.22-0.84l1.28,1.16l-0.38,1.78l-0.47-0.19l-0.69,0.06l0.28,0.62l1.16,0.22l-0.94,1.44
		l1.03,0.06l-0.5,0.66l1.5-0.66V524.19z M709.06,520.06l0.12-1.62l1.97,0.25l0.28,1.16l-0.25,1.5L709.06,520.06z M886.56,333
		l-1.41,3.06v4.88l-3.16,9.66l-0.56,0.25l-2.12,4.41l-0.16,9.34l-2.09,10.81l-6.25,3.84l-1.62,1.91l1.62-2.16l4.03-2.59l-2.16,0.69
		l-0.59,0.66l-0.44-0.06l-3.25,3.06l0.75-0.09l-1.91,4.44l-2.34,2.06l-0.5-1.31l-1.84-0.66l2.09,1.75l-0.16,1.22l-2.84,2.5
		l-1.59,2.75l-0.06-2l-2.59-1.91l-0.25-2.59l-1.56-1.06l-0.03,0.72l-2.88-0.97l-2.53-1.5l-1.75-1.28l1.34,2.09l2.75,1.78l3.81,0.81
		l0.62,3.44l-2.19-0.5l-1.5,1l-0.66-0.28l-1.53,0.09l-1.72-1.56l-2.16,1.97l-3-0.47l-1.44,1.22l-1.09-1.16l1,1.44l3.91,0.47l3.38-1
		l0.75,0.66l0.5,0.09l2.06-0.59l-0.09,0.59h0.66l1.28-1.06l2.16,0.91l0.81-1.16l0.44,1.5l-1,0.16l-1.81,1.94l-0.34,2.38l-1.03-0.5h0
		l1.03,1.03l-1,0.47l-0.09-1.56l-0.34-0.19l-0.91,0.84l1.09,0.59l-1.03,0.06l-0.91,0.62l0.78,0.66l-2.09,0.84h2l1.06-1.09
		l-0.75,1.22l1.03-0.38l0.41,1.91l0.25-0.75l0.84-0.09l0.06,0.69l0.16-0.84l0.69-0.03l0.06-0.06l-0.16-0.09v-0.16l-0.19-0.19h-0.22
		l-0.03-0.06l-0.25-0.06v-0.03v-0.09l0.03-0.12v-0.03l0.06-0.09l0.03-0.06l0.16,0.06h0.09l0.16,0.09l0.06-0.06l0.25,0.06l0.19,0.34
		l0.06,0.16l-0.09-0.06l0.03,0.06l-0.03,0.03h0.09l0.03,0.12l-0.09-1.22l1.59,0.25l-0.19,1.59L855,406l-6.84,4.91l-2.56,0.34
		l-3.69,0.56l-0.75-1.88l0.69,1.56l-0.16-1.69l-1.38-1.22l2.12-0.09l0.31-0.66l0.75-0.94l0.09-0.59l-0.75,0.28l0.25,0.75l-2.25,0.84
		l-2.19-1.12l-0.84-1.47l0.53-1l-1.03-0.75l0.5,3.09l-2.06-1.62l0.81,1.19l-1.38,0.06l1.81,0.94l-2.69,0.66l0.5,0.19l-1.72,0.75
		l-0.5-0.5l-0.44,2.41l-0.16,0.84l-1.81-1.84l0.66,1.41l1.25,1.34l-2.34-0.19l-0.19-0.66l-1.47,0.41l1.41,0.38l-1.06-0.19l0.12,0.56
		h1.25l1.53,0.69l-1.75,1.56l-0.66-0.38l0.12,0.81l-2.31,0.25l-1.5-0.66l-0.19,0.97l-0.88-0.81l-0.09,0.56l-1-0.38l-0.25,0.75
		l-0.25,0.38l-1.16,0.38l-1.5-0.84l-0.5,1.56l-1.28-0.75l1.75,1.84l3.94,0.41l-1.19,0.91l-0.16,1.03l-0.69-0.25v0.72l1.28-0.41
		l0.59-1.34l1.97-0.66l-0.22-1.09l1.75-0.41l2.25,0.5l2.88-3.22l2.34-0.44l1.41,1.75l-0.66,3.09l0.84,2.06l-0.91,2.5l0.22,2.69
		l-2.16,1.59l-3.06,0.25l-3.91-0.75l-0.53,0.47l-2.31-1.97l-1.03-0.09l-2,0.34l0.38,0.81L822,428l1.75-0.75l1.44,1.31l5.62,0.75
		l0.09,1.78l-3.09,0.16l-1.06-1.06l0.94,1.22l-2.84,1.66l2-0.38l-0.66,1.5l0.88-0.69l0.69,1.81l2.25,0.5l-4.09,3.94l-1.34-0.34
		l-5.56-0.84l-3.06-0.56l-1.19,0.41l-4.44-0.56l1.75,0.81l1.09,0.16l-0.22,0.59l2.25,0.41l-0.84,0.59l1.25-0.25l-4.28,1.66
		l-1.38-0.16L809,440.5l-0.75,0.31l-0.81-1.25l-0.78-1.41l-1-0.59l0.94,0.69l0.09,0.5l1.12,2.31l1.28,0.28l-2.19,0.91l-3.59-0.06
		l-1,0.62l0.34,0.38l-0.66,3.97l-5.09,1.34l-1.25-0.09l-1.31-2.25l-1.69,0.19l-1.09,1.22l-4.91-2.97v0l0.5,1l3.94,2.81l2.81-1.31
		l0.69,1.56l3.91,0.66l5.19-1.47l-0.34-0.91l0.91-0.09l-0.66-0.28l0.66-1.72l5.34-0.69l0.5,0.59l1.41-0.34l0.56,0.5l0.19-0.56
		l2.06,0.97l3.03-0.41l0.81,0.53l1.94-0.09l1.47,1.34l0.25,1.81l-0.66,0.84l-2.41,0.34l-0.59-1.62l-0.22,0.53l-0.69-0.59l-1.44,0.41
		l-1.12,1.94l0.5,0.56l-1,0.69l-5.12,0.66l-0.97,1.75l1.06-1.38l0.03-0.06l1.72,1.62l2.34,0.88l1.19,0.75l0.47-1.06l1.03-0.09
		l0.38-0.66l1.34,0.31l0.78,2l1.12-2.12l1.09-0.09l-0.5,1.41l1.25-0.5l0.28-0.59l-1.12-0.66l-0.47-1.25l0.66-0.16l-0.69-1.19
		l2.12-0.5l-0.88,0.44l1.12,0.06l-1,0.66l0.72,1.44l2.66,1.75l-0.41,3.19l0.69-1l3.31,0.38l3.5,0.12l2.25,1.16l-0.09,0.81l0.53-0.66
		l3.16-0.44l4.16-0.81l1.41-1.59l3.34-0.41l9.66-1.66l6.19-0.41l7.44-1.78l0.72,0.44l0.5,0.22l0.59,1.09l-0.34,2.09l-1.09,3.56
		l-0.16-0.62l-0.59,0.88l-2.5-0.5l-0.81,0.53l-0.09,1.25l-1.22,0.66l0.06,0.66l0.25,0.09l1.41-1.19l2.53,7.84l0.16,0.44l0.16,7.59
		l-1.34,2.62l-4.31,2.38l0.84,1.12l-1.78-0.12l-2.25,1.38l-3.25,0.38l-2.31,2.25l0.66,0.41l-8.19,1.72l-5.38,4.69l-1.84,6.06
		l1.41,5.38l-0.5,0.75l-8.25-1l-5.75-0.62l0.19,0.38l-3.03,1.72l-4.22,4.66l-1.38,0.12l-2.56,1.38l-7.25,2.03l-8.59,2.81l-2.59,2.41
		l-5.25,6.78l-3.12-0.03l-4.69-2l-1.84,0.12l-4.5-2.5l0.03,0.72l-2-0.72l-4.78-1.69l-3.75-1.25l-0.97,0.44l-2.12-1.12l-1.47-0.31
		l-4.03-0.5l-2.22,0.34l-2.09-0.16l-5.66,1.81l-5.19,1l-6,0.25l-1.34,0.25l-11,2.66l-3.5,2.19l-0.62-1.25l-1.44,0.16l-0.34,0.94
		l1-0.19l0.75,1.16l0.53-0.72l-2.12,3.81l-4-3.31l-5.22-2.84l0.31-0.94l-0.22,0.94l0.75-0.19l1.81-2.81l2.34,0.84l1.31-0.59
		l1.19-2.84l-0.44-0.34l-0.34,1.78l-1.62,1.41l-1.78-0.94l1.19-1.56h-0.69l0.09-1.28l-0.81-0.06l0.41,1.44l-0.75,1.72l-1.09-0.75
		l-0.19-2.22l-1.31-0.12l0.09,1.34l-0.53-0.59l-1,0.34l0.12-1.41l-2.88,0.16l-0.5,0.78l-1.38-0.94l-1.28,0.09l-0.25-1.03l-0.06,2.88
		l-0.84-1l-0.5,0.38v2.44l0.06,2.09l0.88-0.66l0.06,1l-4.06,1.12l-1.44-1.5l-0.16-1.66l1.5-0.34l-0.19-0.66l-0.56-1.22l1.09,0.22
		l0.56-1.31l2.25,0.31l-2.66-0.47l-0.5,1.06l-1.19-1l0.19-0.94l-1,0.25l0.34,0.88l-1-0.09l-1.84-0.84l-1.5,0.66l1.59,0.34
		l-0.28,1.34l0.78-0.25l1.56,2.09l-0.91,0.5l0.91-0.25l0.5,0.88l-1.66,1.28l2-0.53l-2,1.75l-3.28-1.66l-1.88-2.25l-2.09-0.81
		l-4.28-2.5l0.38-4.25l-1.12,0.41l0.25,2.94l-3.62-3.38l-1.25-1l-0.09-1.62l0.91-0.88l-1.16,0.59l-0.44,2.59l-0.31-1.25l-0.09,0.5
		l-2.69-1.94l-0.25-0.44l-0.06-0.03l0.31,0.47l-0.81,0.44l-1.09-0.81l-0.72-1.84l0.25,1.5l-0.53,0.47l4.16,1.62l3.12,4.5l1.66,0.62
		l-0.53,0.59l1.28-0.22l0.5,0.75l-0.28,1.22l1.38,0.19l-0.53,0.09l0.09,0.81l0.81,0.09l-0.12-0.59l0.22,0.59l-2.72,3.47l-3.34,0.19
		l0.56,0.56l-0.47,0.28l-7.03,2.31h-1.25l-1.09-1.06l0.62,2.09l-1.09,0.56l0.75,0.31l-1.69,1.59l-1.66,0.5l0.81,0.69l-5.16-2.19
		l-3.5-0.56l0,0l-1.22,0.06l-2.03,1.28l-0.09,0.38l-0.56,1.12l-5.69-1.03l-0.91,0.16l-3.97,1.09l-3.19,2.94l0.94-1.75l-1.28-0.66
		l0.28-0.5l-0.75-0.69l-2.28,0.31l0.53-0.75l-0.84-1.97l-1,0.47l-0.03,0.75l1.69,2l-3.66-1.16l1-1.16l-1.94,0.06l0.34,0.62
		l0.41-0.38l0.03,1.34l-1.5-0.25l-0.59,0.91l1,0.25l-1.03,0.09l-0.66,1.94l1.09,0.06l0.81-1.47l1.94-0.84l0.59,0.66l-1.03-0.06
		l0.59,1.62l-1.97,1.03l0.38,0.41l1.53-1.16l-0.09,0.75l0.31-0.44l0.75-0.09l0.5,0.53l0.38,0.16l0.22,1.06l1.19-1.12l-0.5,0.81
		l0.75,0.5l1.72-1.66l0.53,0.66l-0.5,3.09l1.75,0.41l-2.25,2.66v0.94l0.84,0.22l-0.5,1.44l-5.19,0.56l-2,1.38l-0.59-1.84l-3.56-0.66
		l-1.41-1.44l-0.78,0.44l-0.81-0.78l-2.03,0.09l-0.75-0.91l-2.66,0.75l-6.09-1.03l-1-0.75l-5-0.16l-1.12-0.22l-1.12,1.06l-0.72,1.34
		l0.81,0.34l-0.72,0.66l1.31,0.84l-1.25-0.53l-1.5,1.91l-1.09-0.81v-0.06l-2.06-2.88l-2.16-0.81l0.25-0.66h-0.88l-0.16-0.91
		l-3.56-1.62l7.47,6.28l-8.56-6.94l-9.25-5.72l-10.31-2.59l-2.59,1.66l-0.41,0.44l-4.38,1.62l-4.41-0.41l-1.16,1.78l-6.06-0.03
		l-5.03,1.16l-1.47,1.25l-1.75,3.28l-3.38,1.22l-0.91,1.5l-4.5-1.38l0.78-1.25l-2.25-4.78l0.06-0.66l-0.09-0.59l-0.47,1.03
		l-0.78-0.78h-0.06v1.94l1.16,1.84l0.44,5l1.38-1l-2.88,3.25l-0.34,1.97l-1.94,2.28l-0.97-0.12l0.97,0.53l-0.97,2.31l-0.5,3.78
		l2.38,2.06l-2.47,1l-1.34-1l-1.56,2.19l0.06,3.91l2.44,0.47l0.56,0.78l0.44-0.44l-0.53-0.66l2.16,0.66l-1.5,1.19l0.5,0.84
		l-0.81,0.22l-1,2.25l0.19,1.28l-1.84,1.22l-1.94-1.5l0.59,1.44l-1.09,1.06l-2.34,0.75L521,576.5l-1.44,6.06l1.28,1.59l-1.16,0.44
		l-1.69-0.53l-2.91,2.12l-1.09-1.38l-2.19-0.81l0.59-1.59l-1.47,0.69l0.06,1.5l-0.69,0.59l-2.25-0.78l-3.38-2.81l0.88-0.03l0.12-2
		l-1.62-1.47l0.12-0.84l-1-0.06l-1.94-1.69l-1.44,0.06l-0.31-0.97l0.16-0.84l-1,0.84l-2.22-0.41l-1.53,0.5l-0.5,0.88h-2.09
		l-1.62-1.47l2.88-0.59l-5.97-0.84l-0.44-2.75l-0.56-1.66l2.34,0.59l-0.75-0.34l0.25-0.94l1.81-2.22l-1.16,0.34l-1.16,2.31
		l-1.09-0.94l-0.16,0.78l-1.34-0.34l-1,0.66l-0.03-0.47l-1.22-0.38l0.09-0.5l0.22-0.56l-0.84-1.69l-0.75-0.81l0.94-2.66l1.91,0.5
		l-0.25-0.25l0.44-0.59l0.56-0.94l-0.59,0.94l-0.41,0.5l-1.06-1.25l-0.94-1.31l-0.06,1.12l-1.66,1.03h0.88l-0.41,1.16l0.66,0.81
		l-1.5,1.53l-0.5,0.16l2.19,0.44l-0.5,0.31l0.75,0.31l0.19,1.12l-0.78,0.88l0.59,0.53l-0.84,1.34l2.66-1.19l0.03,1.75l-2.19,1
		l0.84,1.69l-1.56-0.09l-1,0.72l-0.03-2.16l-3.91-2.97l-7.25-1.12l-3.5,0.38l-1,1.06l-0.56-1.59l-0.34,0.78l0.91,1.16l-1.69,1.56
		l-1.66-0.56l-0.31,0.75l-2.59,0.66l-2.75-1.06l-1.44,0.91l-0.56-0.53l-1.84,0.38l-0.34-0.59l1.12-0.44l-0.53-0.06l-0.09-0.44
		l-1.56,1.59h-1l-0.41,1l-0.84-0.69l0.31-1.97l-0.91-1.09l-0.72-0.09l-0.09,0.91l-1.38,0.19l-0.03,0.06l-2.12,0.62l-0.75,1.12
		l0.88,2.38l-0.78-0.19l-1.25,1.09l0.19,1.22l-0.66,0.94v0.91l1.25,0.94l-1.28,0.84l0.28,0.91l-1.25,0.75l-0.44,1.25l-0.75-1.34
		l-3.25-0.69l-4.09,4.12l-1-1.19l-1.72,0.44l-1.19,1.81l-0.75,3.66l-2,1.28l-0.56-1.03l-0.38-1.84l-1.31,2.25l-0.84-0.5l-1,0.44
		l-2.06,1.59l0.97,2.16l-1.31,1l-0.81-0.5l-2.03,0.34l0.75-1.09l-0.5-0.16l-0.5,1.34l-1.34,0.22v-1.75l-0.47,1.41l0.72,0.69
		l-3.38,0.25l1.91,0.5l1.75-0.69l0.47,0.88l-0.22-1l0.75-0.19l0.34,0.59l1.06-0.53l0.5,0.84l2.59,0.44l-0.28,1.84l0.78,0.16
		l0.66,1.66l-0.91,1.91l-1.94,0.84l0.28,1.19l-0.75,1.25l-1.44-0.62l-2.84,0.25l-1.81,2.84v1.75l-2.16,0.28l-0.19-1.25l-1.84-0.53
		l-0.5-2.34l-0.84-0.47l0.84-2.28l-0.72-0.88l0.41-0.44l-1.41-1.16l0.22-1.44l-2.47-3.22l-0.34,0.31l-1.19-1.16l-1.72,0.25
		l-1.38-1.41l-2.41-0.34l0.19,0.41l-1,0.31l0.06-0.91l-2.31-2.09l-4.25-0.5l-0.59,1.28l-1.31,0.75l1.06,2l-1.66,3.09l-0.59-0.34
		l-1.06,1.16l-2.94-0.09l-1.31,1.16l-0.75-0.47l-1.78,0.97l-0.84-0.41l-0.47-1.81l-1.25-0.5l-0.34-1.25l2.09-2.19l-1.34-4.09
		l2.84-4.16h3.06l2.16-2.72l0.62,0.56l3.81-2.84l2.84-0.25l0.91,0.59l0.69-0.44l0.38,2.12l2.25,0.75l0.12,0.16l2.81-3.09l0.16-2
		l1.16-0.34l0.44,0.69l2.59-0.09l2.41-2.34l0.94,0.16l0.88-1.38l1.59-0.78h0.28l1.25-1.97l0.06-2l2.44-0.09l1.47-2.16l1.94-0.5
		L416,564l-0.69-1.56l0.94,0.12l-0.19-1.81l0.78,0.44l0.09-0.78l0.62,0.53l1.19-0.5l-1.16-0.38l1.72-0.12l0.19-1.34l1.06,1.25
		l2.09-1.03l-0.81-0.25l0.75-0.06l1-1.81l0.56-3.78l0.16-1.56l-0.81-0.44l1.06-1.22l0.78,0.06l-0.59-0.66l0.5-2.59l-1.06-0.75
		l0.25-0.44l3.66,0.94l2.5-2.84l-0.09,1.41l1,0.78l0.59,0.5l-0.25-2.16l1.16-1.19l-1.34-1.25l1.19-0.81l0.66,1.16l1.59,0.31
		l1.31-0.72l-0.16-0.69l1.44-0.31l1.16,0.75l2.56-0.53l1.84-2.59l0.94-3.31l-0.53-0.19l0.25-1.66l1.53-0.72l0.5,0.62l0.66-1.38
		l3.22-1.19v-0.91l1.88-1.25l0.16-2.53l1.31-0.12l0.16-0.94l5.03-3.31l0.41-5.12l0.84-0.12l-0.66-0.78l-0.62-7.31l1.09-2.41
		l0.59-0.25l-0.31-1.19l1.38-2.81v-4.75l0.69-1.44l3.81,0.19l3.09,0.97l3.41,2.69l2.44,0.16l2.69-0.94l3.06-4.16l1.41-0.34
		l1.44-2.56l0.66,0.41l-0.16,1.03l1.34-0.25l-0.53,2.28l1.28-1.62l-0.03-1.94l-0.66,0.16l-1.66-1.22l-0.41-4.59l-1.19-0.34
		l0.16-1.41l-1.56-1.09l2.72-0.09l0.44-0.75l0.44-2.91l-1.28-1.09l1.28-0.22l0.75-1.16l1.62,0.41l3.88-1.53l1.72,0.25l0.66-0.72
		l3.34,1.25l0.69-1l4.84-0.19l2.25-1.34l2.31,0.94l2.94-1.16l2.47,0.5l1.84-1.59l1.16,0.94l3.28,0.56l6.16,1.19l0.72,0.81l2.94-1.66
		l2.44,0.06l3.22,1l1.75,1.75l1.78,0.09l2.72,2.81l8.75,0.44l5.16-2.31l1.5,0.22l3.34-1.16l3.84,1.09l1.66-0.19l1.59-1.66l0.66,0.06
		l-0.75,2.19l-1.5,1.19l1.66-0.59l0.84-1.75l1.19-1.78l-0.25-2.16l-1.28-2.31l0.78-5.94l-1.66-0.97l2.81,0.91l0.56,0.97l0.25-4.06
		l-0.81-0.75l1.91-0.81L570,459l-0.06-0.91l-1.19-0.59l3-1l-0.16,0.75l1.5-0.5l2.16-1.81l0.5-2.09l5.5-5.75l1.81-1.03l2.78,0.28
		l0.25-1.16l2.06,1.22l-1.31-1.81l3.06-3.91l0.75-3.19l2.44-3.44l-2.66-0.62l0.62-1.23l-0.62,1.2l-1.94,0.78l-1.09,2.25l-0.97,0.12
		l-2.34,0.44l-4.25,2.56l-5.69,2.28l-1.22-0.34l0.75-0.75L571,441.5l-1.91-0.91l0.66-1.34l-1.31,0.66l-0.09,0.09l-0.34,1.31
		l-5.31,3.53L562,445l-2.16,0.94l-1.84,2.16l0.31,0.66l-1.62,1.69l-0.19-1.25l-0.84-0.34l-0.06,2l-0.25-0.03h-0.41l1.16,0.28
		l-0.28,2.75l0.09,1.5l-1.25,0.66l-2.5-0.41l-3.75,1.91l-0.34-0.91l-0.41,0.84l-1.41-0.75l-2.09,1.22l-4.41-0.09l-0.66-0.72
		l-9.84-1.69l-1.44-2.72l-0.75-1.28l-2.75-2.22l-0.5-1.19l-1.41-1.41l-1.22,0.81l-2.78-0.81l-0.91-2.09l-1-0.59l-0.81-3.47
		l-1.75-3.78l-0.53-0.16l-0.31-1.19l-1,0.19l1.22-0.59l-0.88,0.19l-2.53-3.44l1-1l-2.75,0.69l-0.97-0.53l-2.5,1.59l-0.09-0.75
		l-1.78,0.03l-2.62,1.47l-0.34,0.75l-0.25,1.25l1.81,1.44l-0.5,0.25l-2-0.41l-0.97,0.5l-0.62-0.78l-2.12,1.34l-2.53-0.94l-0.41-1.12
		l-3.31,1.41l-0.34,0.72l1,1.09l-0.44,0.44l-2.84-0.84l-0.97,0.41l0.09,0.78l-2.28-0.75l-2.56-2.09l-2-0.19l1.25-0.72l0.09-1.25
		l-1.09-3.09h-0.66l3.75-1.69l1.41-2.5l0.84,0.75l-0.84,1.19l1.66,0.97l-0.56-0.81l1.06,0.34l-0.34-0.94l1.75,0.78l-0.25,0.62
		l1.75-0.56l0.19,0.56l0.41-1.12l3.31-0.94l-0.41-0.31l0.94-0.75l1.5-0.44l0.81,0.56l-0.81-1l0.97-0.75l-0.5-2.38l-0.72,3.12
		l-3.41-0.12l-0.78,0.75l-3.34-3.25l-3.22,0.5l-0.59-0.53l0.16,0.69l-1.84-0.03l1.38,0.38l-1.38,0.56l-2.81-0.94l-4.16-5.75
		l0.22-0.56l2.59,0.25l1.19,0.25l0.31-1.06L478,417.5l-2.69-0.34l-0.66-1.75l0.91-3.59l2.88-1.66l-3,1.59l-0.75,1.25l-1.88,1.94
		l-3-1.5l-1-1.09l0.25,2.16l2.75,1.75l-1.91,1.19l-7.72-1.19l-1.34,0.81l-2.16-0.5l-1.34,0.44l-3.16,0.59l-1.53,1.72l1.16,1.53
		l-1.22,1.16l-0.34,1.31l0.56,0.28l-1.47,1.41l0.16,0.75l-3.06-0.31v1.06l-1.44,0.09l-0.31,0.81l-2.09-1.22l-3.25-0.28l-0.09,0.91
		l-2.56,1.12l-0.44,1.12l0.5,0.75l-1.81-0.22l-0.28,1.66l-1.5-0.16l-1.75-1.5l-2.22,0.09l-3.5-1.44l0.75-2.19l-0.88-2.5l-3.25-1.38
		l-0.72,0.31l-0.03-1.19l1.25-0.41l-0.47-0.66l2.31,0.34l-0.5,0.59l0.53,0.56l1.88,0.44l0.59-0.5l-0.97-0.78l0.41-0.66l1.59-0.06
		l1.38,0.91l3.25-1.25l1.25,0.5l0.62-0.94l0.81,0.44l0.06,0.97l2.03-0.06l-1.94-0.66l3.16-1.91l1.59,1.66l-0.31,0.81l0.5-0.59
		l0.47,0.75l-0.31-0.62l1.09,0.12l-1.25-0.31l0.06-1.16l-1-0.91l0.5,0.38l1.53-0.88l-3.62,0.5l0.12-1.38l0.88-0.06l-1.75-0.91
		l0.25-1.5l0.94-0.66l-0.5-0.75l1.16-0.19l1.34-1.94l-3.06,2l-0.78-0.62l-0.97-0.19l-1.25,0.81l0.38-2l-0.91,1.75l0.69,0.44
		l1.59-0.66l1,1.06l-1.09-0.16l1.06,1.75l-1,0.09l1.66,1.56l0.03,0.91l-0.53,1.5l-1.81,0.59l-1.41-0.5l-0.25-1.09l-0.09,1.59
		l-2.59,0.44l-2-0.59l-0.16-1.19l-0.41,0.75l-2.69-0.31l0.53,0.91l-0.62,0.19l-0.22-0.78l-1.28-0.06l-1.22-1.91l-0.09,0.72
		l-0.69,0.69l-0.56-0.81l-2.19,0.41l-0.47-1.16l-0.69,0.91l0.28,0.91l1.25,0.56l-0.53,0.03v1.5l-0.84-0.03l-0.47,0.78l-0.78-1.03
		l0.12-2.12l-1.09-0.34l0.22-0.59l-0.91-0.75l-1.25,0.66l0.34-0.59l-1.69-1.75l2.88,0.59l0.66-2.34l1.16,0.28l1.84-1.94l2.84,0.53
		l0.72-0.62l0.5-3.91l-0.84-1.97l0.03-1.75l-1.03-2.12l-3.25,0.03l0.19-0.66l-1.06-0.03l0.41-0.72l-0.91,0.75l-1-0.78l-4.38,0.16
		v0.53l-2.31,0.5l-0.25-0.66l0.91-1.25l-0.59-0.78l1.44-1.09l-0.5-1l-0.69,0.09l1.75-1.22l2,0.06l1.62-1.56l1.75-0.19l-0.12-0.69
		l1-0.38l0.19-0.94l2.84,0.41l0.56-1.47l2.66,0.22l0.25-0.91l1.25,0.16l0.44-1.84l-1-0.97l1.59-1.09L427.5,385l1.25-1.09l-0.19-0.56
		l3.59,1.31l2-0.56l0.25,1.06l1.16,0.5l-0.91-0.22l-0.72,1.06l0.88-0.06l-0.66,0.47l1.34,0.66l-0.09-0.72l3.53-0.78l0.75-2.72
		l2,1.84l1.38-0.38l3,0.59l-1.81-0.75l-0.16-1.97l1.16-1.12l2.06-0.25l1.44-1.06l3.41-5.5l2.66,1.75l0.94,0.81l-0.84-0.91l0.28-2.84
		l3.06-0.81l3.91,0.19l1.03-0.69l1.41,1.25l1.84-0.09l3.31-2.66l0.41-1.44l0.41,0.69l1-0.25l4.62-4.84l1.12-0.31l0.69,1l1.75-0.34
		l4.16-3.25l3.91-2l4.69-6.25l3.59-8.19l-0.09-1.72l0.75-2.94l2.16-4.41l0.03-5.75l0.88,1.59l0.09-0.75l1.66,0.09l2.09-0.94l2-2.19
		l0.28,0.5l0.56-0.66l-1.25-0.34l-7.09,2.09l-3.81-7.5l1.72,0.41l-1.88-0.81l2.47-6.19l2.53-2l-0.03-2.31l0.66-0.75l-0.16,1.25
		l2.94-2.44l-3.41,0.88l-1.88-4.12l-3.91-5.91l-0.09-0.75l1.28-1.16l-0.44,0.84l1.41-1.28l0.69,0.44l-0.56-0.59l-0.84,0.5l0.72-2.59
		l-1.72-5l1.06-0.5l-0.31,0.38l0.91,0.22l2.66-0.25l0.44-0.72l-0.16-0.84l1-1.03l-2.59,1.38l-0.41-1.28l-1.34-0.06l-0.09,0.47
		l-1.41,1.09l-4.34-1.5l-3,0.78l-3.5,0.16l-0.75,1.81l-4.19-0.5l-0.75,0.91l-0.22,0.28v-0.19l-0.59,0.19l1.16,0.16l-4.09,1.09
		l-1.31,1.47l0.34,1.09l-1.5,0.84l-0.94,1.56l0.59-0.06l-0.16,1.59l0.84,0.31l-0.09,1.5l-1.91,0.16l-0.88,1.59l-0.97-1l0.47-1.5
		l-4.22-2.81l-2.94,2.66l-1.09-0.75l-1.88,1.31l-0.25-0.72l-1.84-0.41l-0.84,2.25l-2.31-1.75l3.22-4.19l-0.22-1.84l2-0.56l0.5-1.66
		l1.41-0.38l1.34-2.97l1.22,0.06l1.03-1.81l3.16-1.66l0.25-1.03l0.22,1.09l2.88-0.09l3.25-2.75l2.41-3.47l1.81,0.16l3.84-3.69
		l1.16-2.81l-0.41-6.03l0.69-0.97l1.12,0.22l-0.97,0.78l0.66,1.59l0.06,0.06l0.12,0.69l0.97-1.62l-0.5,0.12l0.19-2.25l2.25-1.69
		l2.34-2.91l2.16-1.28l0.16-0.66l0.75-2.31l5.16-2.78l0.5,0.62l0.09-0.59l0.41,0.5l1.03-0.41l0.31,1.22l5.44-2.22l0.12-0.53l5.38-2
		l2.5-1.75l2.75-0.66l1.22,1.59l-1.31-4.19l-2.19-2.31l3,0.22l0.91,1.69l2.84-0.5l0.59,1l1.69,0.56l0.5,1.53l1.56,0.75l6.41,0.5
		l6.59-2.34l1.91-1.59l7.75-2.41l3.5-0.34h0l0.03,1.94l1.88,1.72l0.78,0.34l0.41-0.72l0.19,1.25l3.62,2.25l4.59,4l-0.25,0.56
		l2.91,2.09l2.12,1.56l2.91,1.19l-2.84-1.5l-1.09-1.16l-0.59-0.53l-0.72-0.59l0.84,0.28l0.88,0.31l-0.41-0.34l1.03-0.38l-1.25,0.22
		l-1.38-1.16l2.28,0.31l2.47,0.34l5,4.16l0,0l0,0l-5-4.16l-4.38-1.34l-0.44-1.12l0.59,0.66l0.56-0.75l-0.59-0.75l1.53,0.31
		l-1.03-0.47l-0.16-1l-0.47,0.47l-0.69-0.41l0.59-1.84l-2.41-3.41l-0.34,0.25l-3.09-3.44l-0.84-2.47l3.44-2.41l7.09-3.53l1.72,4.5
		l1.09,3.75l4.31,6.53l3.38,2l2-0.03l-0.62-0.31l1.03-0.5l-0.53-0.84l1.12-0.19l2.66,1.25l2.47-1.91l-0.66-1.81l0.66-1.34l2.03-0.09
		l0.22-0.06l1.28-1.25l1.59,0.34l0.75-1.5l-0.75,1.16l-1.19-0.53l-2.31,0.75l-0.38,0.75l-1.97-0.88l0.31,0.62l-1.25,1.84l0.03,0.25
		l-0.5,0.75l-3.09-1.56l0.41,0.66l-0.66,0.5l-2.75-0.84l-3.44-3l-3.47-2.81l-1.44-5.69l-1.81-2.56l-1.78-4.75l0.5-2.84l-0.34,0.75
		l-0.88,0.06l-1.78-2.62l0.5-3l0.78-1.38l2.91-5.31l4.84-6.69l-0.12,0.62l1-0.53l0.59-0.16l-0.5-0.69l1.28,0.09l-0.84-0.81
		l0.66-1.44l0.84,0.53l-0.25-0.53l0.91-0.09l3.31-0.81l4.53-1.94l-4.19,1.5l-2.72,0.5l-3.28-0.06l0.78-0.66l-2.28,0.56l-2.66-0.56
		l-2.16-2.09l-0.5-2.09l0.09-4.66l0.66-11.09l2.81-0.75l-0.09,2.91l1.91,2.25l-1.03-1.88l-0.12-0.84l0.69,0.16l-0.34-0.81L571.5,182
		l0.06-2.44l5.28-2.16l-0.44,0.59l1.03,0.84l1.22-0.34l-0.5-0.5l0.78,0.06l-0.19,1l0.59-0.47l-0.44-0.69l0.78-0.47l-1.03-0.75
		l1,0.22l0.66-0.91l0.25,0.44l0.75-0.53l-1.66-0.5l-0.47-1l1.5-2.22l1.75,0.38l-1.53-1l-0.5,0.12l-0.97-0.34l-0.34,1.91l-0.19-0.56
		l-0.91,0.41l-0.34-3.25l-1.31-1.16l1.16-0.88l1.84-3.81l2-0.31l1.81-1.25l-0.59-0.09l0.12-1.09l1.22-0.91L585,158l-0.81-0.19v0.94
		l-1.09-0.06l-0.94-3l-1.72-0.53l-0.38-2.34l0.78-0.25l-0.44-1.41l1.44-1.47l-4.09,1.16l-1.91,2.97l0.16,1.75l-0.81-1.12l-1.53,1.66
		l-2,1.84l-1.41,0.16l0.81-1.44l0.59,0.09v-1.41l0.25,0.09l-0.34-1.62l0.59-0.72l-0.91,0.09l0.09-0.88l-0.28,0.34l-1.81-2.22
		l0.41-1.53l-1.59,1.66l-0.31,1.69v2l-1.09,0.84l-1.75,3.72l-2.5,2.44l-1.97,1.66l1.41,1.91l-1.34-1.66l-0.41,0.5l0.31-0.91
		l-1.31-2.31l-1.69,1.56l-1.34-2.16l0.38-5h-0.78l-0.47-1.41l2.56-1.03l-0.34-1.16l0.53,0.25l0.66-3.44l1.09-1.81l-0.59,0.56
		l-1-3.06l-0.94-0.34l0.41,0.91l-0.56,0.12l0.44,0.31l-0.94,1.56l0.34,0.5l-1.19,1.34l0.75,1.44l-0.97,1.22l-2.12-0.62l-0.81,0.91
		l-1.19-0.09l-6.41-10.56l0.03-6.03l-0.78-0.41l-4.59-8l-5.16-7.41l-1.72-1.03l-0.94-1.75l-0.16-1.16l1.59-0.75l2.75-8.16l0.5-1.31
		l-0.78-4.38l0.53,0.12l3.41-4.5l0.66-2.69h0.19l4.41-4.19l0.16-4.91l2.66-7.31l2-2.44l1.78-0.91l-0.03,0.41v0.03l3.59,2.38
		l-0.34-1.91l1.53,0.16l0.91-1.16l-0.28-1L555.5,73l-2.16-1l-0.25-0.75l1.81-2.44l2.41-0.31l1-0.94l2.88,0.38l1.91,2l2.31,0.56
		l2.84-1.06l-3.56,0.31l0.91-0.34l-0.78-0.06l-0.22-1l1.47-0.19l-0.31-0.47l0.66-0.12l-0.81-0.66l1.34-0.59l-0.62-0.56l1.69,0.09
		l1.34-1.34v-0.94l0.84-0.75l-0.01-0.04l-0.74,0.63l-1.19,1.16l-1,0.59l-1.69-0.09l-1.97,1.34l-0.53,0.09L562,65.81l-2.25-0.12
		l-4.06-0.03l-2.62-0.25L551.94,66l-2.38-0.09l-2,1.66l-0.38,0.78l-0.78,1.16l-0.97,0.16l-2.12,0.28l-1.38,0.25l-1.09,0.41
		l-1.09,0.66l-0.69,0.66L538,72.94l-2.66,2.88l-0.84,0.62l-1.5,1.66l-1.16,0.09l-0.66-0.75l-0.69-0.25l-2.16-0.34l-0.75,0.47
		l-1.41,0.03l-0.44-0.41l-1.5,0.25l-2.16,1.5L521,79.94l-0.25,0.88l-7.5,3.12l-1.31,1.5l-2.84,0.41l-2.41-0.09l-1.09-0.94
		l-0.53-1.62l-1.22-0.69v2.41l-1.03,0.34l1,0.41l-0.38,1.03l-0.88-0.38l-0.12-0.97l-0.78-0.09l0.16-1.09l-1.06,1.28l-1.31-0.5
		l-1.19-1.34l-0.06-1.78l-1.78-0.62l-0.72-1.69l-2.75-0.81l-4.09-1.94l-3.19-2.94l-0.59,0.62l0.53,1.25l0.97,1.31l0.12,1.56
		l0.5,1.03l0.81,1.16v1.75l-0.34,0.94l-1.47-0.34l0.56,1.72l-0.69,0.5l1,0.62l-0.97,4.88l1,0.59l0.06,1l-0.59,1.34l-0.47-0.5l0.06,1
		l-1.97,1.44l-7.5-4l-1.75-1.44l-0.03-1l-1.66-0.59l-1.69-4.31l-4.47-2.69l-2.19-2.72l-4.56-1.09l-0.94-2.5h-2.25l-1.25-0.44
		l-5.06,2.34l-1.94,3.25l2.44,6.75l0.56,4.59l2.41,2.22l-1,1.34l-0.22,1.75l0.34,1.59L455,99l-0.56,0.41l-3.62-1.09L448,95.75
		l-0.34-2.81l1.59-1.03l-1.09-2l0.66-1.16l-2.22-0.81l0.47-1.59l-1.12-0.66l0.41-1l-0.69-2.09l-1.97-1.03l-0.59-1.97l-1.44-0.66
		l-4.09-4.75l0.03-1.59l-2.16-4.34l-0.19-2.34l0.81-3.81l-0.47-1.16l1.22-2.53l0.75-0.81l1.19,0.22l2.5-1.12l2.16,5.66l-0.97,0.41
		l0.5,3.91l2.06,2.5l0.31-0.5l0.88,0.44l1.16-0.75l0.16-1.59l-1.44-4.56l-0.75-0.5l-0.47-2.59L443.69,56l0.62-2.81l2.78-4.09
		l1.5-5.78l3.22-2.12l2.03-3.69l3.31-2.94l-0.22-2.06l0.62,0.16l-0.22-0.91l1.56-3.31l-0.34-4.62l4.53-3.62l0.5-4.44l1.06-1.66
		l2.59-1.69l3.16-1.22l0.66-0.84l0.5-1.78l1.09-0.75l0.19-0.72l0.34-1.19l-0.38-2.75l-2.06-2.56L469.41,0l0.19-0.44l1.47,0.34
		l0.12-2.41l-0.69-2.06l-1.34-1.59l-0.09-0.16l-0.16-0.19l-3.16-2l-0.34-0.91l-0.75-0.16l-1.31,0.25l-0.5-1.03l-1.44,0.09l0.41-1.16
		l-2.72-4.03l-2.44-1.5l0.09-2.75l1.19-0.66l0.66-0.22l0.34-1.38l-0.78-0.91l0.34-0.5l0.59,0.91l0.59,0.12l0.16-1.25l0.09-1.78
		l-1.84-4.91l0.16-6.09l-0.44-1.97l1.75-1.84l-0.66-0.59l0.41-3.06l3.62-1.94l1.06,0.59l0.25-0.59l0.75-1.66l2,1.34l1.5,0.66
		l1.34,0.5l0.66,2l1.41,0.72l2.34,0.12l1.16,0.31l-0.06-0.81l0.41-0.62l0.5-0.25v-1.38l-1.06,1.41l-2.69,0.16l-2-3l-0.31-2.84
		l-2.69-1.81l-1.66-2.19l-3.34-4.5l-0.16,2.34l2.84,3.84l0.5,2.5l-3.34,0.66l-2.66-7.84l2.66-5.31l6.34-9.34l0.16-1.84l-3.66,3.5
		l-3.69,7.19l-1.31-0.84l-2-5.66l-0.19,6l1.69,2.5l-1.84,3.81l0.34,7.19l-3.5-0.84l2.81,3.34l-1.5,2.81l-3.66,7.84l-3.5-0.84
		l-0.66-8.66L445-51.09l1.69,11l-1.84-0.31l-3.66-2.84l-1.19-4.5l-0.5,3.34l-3,5l2.34,5.31l-0.5,2.34l-1.5-1.34l-2.5-1.81
		l-1.66-0.69l-0.34-2.31l-1.84-3.84l0.84-5l-0.16-3.84l2.66-3.5l3.34-5.5l4.66-5.81l6.16-3.84l1.69-4l8.16-6.16l-6.16,3.16
		L451-78.41l-6,9.5l-2.5,0.81l-6,6.34l-5.5,4.66l-0.31,3L427-52.25l-1.81-3.34l-1,5.84l1.31,3.5l1.19,6.84l-0.34,2.5l1.66,0.66
		l3.5,9l-1.66,1.16L426-23.75l-3.5,6.84l-1.5,4.66l0.84,7l-1.66-0.5l-1.69,5.34l-0.81,5l-2,1.16l-0.84,4.34l-1.34,1.16l2.69,2.66
		v4.5l-2.69,3.5l-3.81,1.34l-5.19,0.84l-3,0.5l-2.5-2l0.5-2.69l0.34-5.81l3.16-3.69l1.5-0.31l1.34-11.19l-0.16-4.81l1.5-1.34
		l2.5-7.66l-1-3l4-2.84l1.16-3.84l3.34-1.81l2.16-2.84l-6.16,2.66l-0.5-2.5l-2.84-2.16l1.84-6.34l1.5-2.5l3.31-5.66l-6.5,5.34
		l-0.5-2.19l2.5-5.5l5-6.16l0.5-2l-2.66,1.16l-1.5,3.19l-2.16,1.31l-1.69,4.34l-1.5-1.66l5.5-7.84l2.5-5.34l2.34-0.81l-0.34-2.5
		l4-7.34l-0.81-0.66l-3.34,3l-1.66,2.5l-1.34-0.19l3.84-6.81l1.5-2.19l-1.19-2l4.84-2.16l-1-0.84l-2.5,0.5l-2.84,0.84l0.69-3.84
		l0.16-2.66l1.66-3.5l2.34,0.84l2.16-0.84l-3-1.34l1.5-4l2.34-1.81v-2.19l1.66-1.81l4.19-0.34l2.81,0.16l1.34-0.31l2.5,1l1.34,1H441
		l2.34-1l2.56-3.19l2.91-4.75l2-3.75l-0.81,0.28l-1.25,2.62l-2.31,3.03l-1.34,0.59l-2.66,4.56l-2,0.59l-1.38-1.5l-1.81,0.22
		l-3.94-1.47l-1.25,0.91l-2.38-0.16l0.5-1.75l-1.19-1.75l-1.91,1.84l-0.91-0.88l1.5-3.31l1.5-1.06l2.12,1.75l2-1.25l-2.25-1.94
		l-1.62-0.75l0.66-1.41l1.16,0.25l1.19-0.75l-0.84-1.09l3.84-4.59l1.88-1.91l-1.5-1.25l2.88-2.41l1.38,0.84l1.38-1.94l4.41-0.66
		l-1.28-0.84l-2.75-0.66l8.12-12.75V-142l-1.75,0.5l-7.25,11.75l-3,0.5l-4,4.09l-8.09,5.97l-4.53,6.78l-8,5.66l-0.81-1.59
		l-3.94-1.56l-1.25-1.5l-6.75-1.84l-5.75-8.41l0.25-2.5l5.25-0.59l0.88,1.59h1.62l-0.12-1.34l3.31-1.19l4.56-3.56l-1.75-0.16
		l-3.75,2.66l-5.5-0.25l-0.25-0.91l-2.66,1.09l-0.66-1.28l-2.81-0.06l-2-1.09l-2.5-0.5l-2.62,1.09l-2.12-0.66l-2.25-3.59l1.38-2
		l2.5-1.41l4.75-1.59l4.25-0.09l3.62-1.16l2.88,3.66l1.12-0.91l1.12,0.5L403-134.5l1.81,0.5l-0.06-2l-1.94-1.16l-0.22-1.69
		l8.59,0.09l-7.09-2.81l-0.16-2.69l3,0.5l3.88-1.25l1.75-0.66l-3.12-1.5l3.47-2.09l-0.66-1.19l-5.06,0.78l-4.12,0.66l-1.97-0.5
		l0.09-1.5l1.75-1.09l1.75,0.59l0.62-1.16l-2.5-1.59l3.62-4.41l0.91-4.41l5.84-0.84l1.38,3.16l4.38,2.25l7.56-2l-0.59-1.44
		l-5.72,1.28l-3.12-0.25l-0.91-2.78l1.28-0.97l-2-1.09l-2.09,0.5l-3.41-4.25l4.88-5l4.34-1l4.44,3.69l3.22,1.41l1.59-1.69
		l-3.84-1.47l-3.25-3.78l-3.25,0.09l-1.62-2.41l1.5-2.5l3-3.09l-1.88-1.25l1.38-2.41l3.25-0.84l3.25-1l5.25,6.66l2.5-1.97
		l-6.25-5.19l0.75-2.5l-0.88,0.34l-2.12,1.25l-3.88,0.41l-2.41-1.19l-2.09,0.44l-2.5-1l1.5-3.5l3-1.41l4.38-1.34l3-0.25l5.5-5
		l-0.12-2.16l-3.56,3l-5.06,3.66l-3-1.75l2.5-1.66l-0.94-1.19l-6.94,4.09l-3.88,0.75l-1.75-2.16l0.62-3.09l1-4.91l-2.88-0.16
		l-0.62-3.44l2.5-11.44l3.12,0.69l2.22,3.56l4.28-0.72l-0.78-2.78l-2.47-1.12l-1.38-4.25l-3.88-2.09l2.38-6.09l3.03-1l3.09,1.84
		l-0.38-2.34l-0.16-1.75l-3.72-0.34l-3.25-2.16l0.91-11.91l3.16-1.16l4.5,0.81l-0.31,3.34l0.75,3.84l3.88,3.56l-1.22-2.31l0.72-0.94
		l2,0.75l-1-1.75l0.62-3l-1-1.66l-2.25-1l-0.44-3.34l2.34-3.75l3.31,0.91l0.94,5.34l4.09,2.06l1.66-1.81l1.34-4.25l4.25,2.59
		l-3.09-4.94l2.59-0.72l3.25,3.31l3.66-0.66l3.97,1.66l-1.75-3.25l1.5-2.41l-2.66-0.34l-4.59-2.41l-1-3.25l-1.5-1.84l-2.38-1
		l-1.69-1.06l0.81-1.34l-2-1.5l-0.25-2.75l1.69-1.66l1.94,1.31l1.5,4l0.75-2.06l1.25-0.34l1.88,1.75l0.59-1.69l0.94-3l-1.59-1.06
		l2.41-0.03l-2.06-1.91l2.72-0.56l-3-1.75l-0.75-1.75l-0.88-2.5l-1.5-1.09l-1.88-3l1.53-3.5l0.84,1.5l1.22,0.06l1.03,1.34l0.47,1.75
		l3.41-2.41l-1.5-1.19l1.09-1.12l1.91,1.81l2.69,0.19l2.31-0.78l1.62-0.66l2.75,2.25l2.38-0.09l-4.81-2.97l-1.66-1.88l0.09-2.22
		l-0.38-1.75l-1.31,0.5l-0.06-1.75l-0.53-1.44l1.66-0.41l-1-1.41l1.38-2.25l0.62-2.53l2.88,2.12l2.47,2.38l1.5-0.31l-2.56-3.59
		l-1.28-0.06l-1-1l-0.41-1.25l2.28-2.41l1.25-1.59l-1.62-0.41l-1.62-1.03l0.31-4.75l3.44-2.31l2.56-3.53l0.59-5.25l3.47,1.69
		l6.84,1.91l0.03,3.78l2.88-4.44l1.69,2.25l2.06,2.94l2.84,0.88l0.66,3.69l1.25,0.09l1.5-2.5l0.38-4.03l4.88,0.19l3,2l-0.31,1.41
		l1.56-0.66l0.12,2.34l-1.62,3.5l3.94-1l1.94-3l4.56,0.22l0.19,1.44l1.25-0.41l1.88-2.34l2.25,0.75l1.28-2l3.34,0.34l3-3.19
		l1.47-1.09l1.03,3.53l2.5-0.75l3.5,1.06l5.62-0.66l4.12-2.25l3.62-2.66l7.25,0.09l-1,1.62l1.5,1.28l3.78-1.66l5.06,2.12l1.03-1.56
		l0.22-1.16l-3.59-2.75l0.59-2l1.53-1.09v0l1.88,2.84l1.88,0.47l4.75-0.97l2.16-0.78l1.81,2.53l7.59-0.66l-1.16,5l-1.69,0.66
		l-0.72,4.66l-2.75,3.25l0.25,4.34l4.41,0.31l-0.69,3.91l-2.91,7.69l-6.66,7.09l-9.28,3.66l-2,2.66l-5.56,7.94l-14,11l-4.31,1.75
		l-1.78,4.84l-8.22,3.56l-1.34,4.16l0.72,2.94l-1,1.25l-0.62,4.91l-3.12,0.09l-6.62-2l-5.12,0.66l-3.25-1.91l2.78,2.97l5-0.38
		l2.22,2.41l3.12-0.5l4.47,1.47l3.66-1.97l3.5,1.25l2.59,1l2.03-1.5l0.75-2.34l2.75-0.75l-1.62,3.41l-7.12,8.69l-3.12,5.25l-2,2.41
		l-1.88-0.41l-1.88-2.75l-2.41,0.09l-3.47,2.91l-2.69-0.41l-4.19,1.72l-0.25,1.34l-3.22,1.19l-4.09,6l1.5-1.44l2.56-1.91l2.03-1.41
		l0.41-0.53l1.44-1.09l1.06-1l0.56-0.31l0.19-0.25h0.56l4-0.59l1.09,1.03l3.09,0.41l2.84-1.91l2.25,0.5l-0.03,0.5l-6.06,6.47
		l-0.69,1.91l1.25,1.78l-2.91-0.5l-2.06,1.22l-0.84,2.19l-0.34,0.91l-2.56,3.91l-5.53,0.44l-2.62-0.19l-2.28-0.16l2.09,2l2.66-0.5
		l2.44,0.44l3.06-1.44l0.91-0.06l1.69,1.41l0.84-0.09l1.75-1.72l0.16-1.88l2.06,0.34l0.69-2.09l3.69-2.62l-0.34-1.84l-1.69-0.69
		l1.09-0.84l2.44-0.16l0.31-0.91l2.34,1.75l0.97-0.25l-2.91-1.69l4.28,2l3.72-0.31l4.09-2.09l1.25-1.66l-2.91,1.91l1.81-1.75
		l2.09-0.72l1.75-1.5l0.69,0.06l-1.25,1l2.38-1.19l0.75-1.06l-1.91,0.41l0.44-0.31l4.22-0.78l1.38,0.88l-0.28,1.16l0.16,0.72
		l1.84,0.84l0.53-0.59l-0.28-1.16l-2.22-1.81l5.62-0.03l1.88-1.56l0.5-1.84l-0.5-0.91l2.31,0.09l1.19-0.84l5.66-1.31l2.31,0.5
		l1.41-0.38l-0.25,0.75l1,1.12l-0.47-0.94l5.81,3.16l3.94,1.28l-0.03,0.56l0.38-0.44l4.75,1.38l5.12-2.44l0.59-1.16l2.66-0.84
		l1.69-0.06l0.09,0.88l1.09,0.62l1.22-0.44l0.75-0.34l0.94,0.84l1.22-0.16l1,1.34l1.53-1.19l1.75,1.09l0.97-0.78l1.69,1.12
		l3.19,0.31l0.56-0.56l1.25,1.38h1.84l0.06,1.78l1.34-2.03l2.94,0.44l1.16-0.56l1.81,0.66l2.03-0.84l0.97,0.69l1.19-0.84l-0.09-0.94
		l1.75-1.09l1.94,1.84h3.06l1.25,0.91l4.25-3.25l3.59,0.38l0.84,0.66l2.38-0.75l0.44,1.97l2.41,0.62l0.66-0.62l1.28,0.62l1.75,4.41
		l0.22-0.44l3.69,2.84l-0.09,4.91l1.28,1.25l0.41,4.25l1.81,1.16l-0.31,1.03l0.09-1.03l-1.25,0.59l0.5,1.03l-0.75,0.88l1.22,1
		l-0.09,0.84l-2.5,3.5l0.25,0.84l-1.38,1.91l-0.59-0.72l-0.94,1.75l0.41,1.16l-1,0.97l-2.06,1.69l-4.59,6.09l-0.41-1.03l0.25,1.5
		l-4.19,10.28l-0.75,3.22l-0.16,0.62l0.59,0.75l0.56,0.31l0.09,1l0.78,0.91l0.38,0.41l0.12,0.19l0.47,0.59v1.16l-0.31,1.41l-1,0.69
		l-0.28,0.5l-0.47,0.47l-0.78,0.12l-0.31,0.66h-0.06l-0.34,0.75l-0.41,1.97l-4.12,5.44l-1,4.25l-1.91,1.31l1.09,1.84l-0.56,0.19
		l0.22,4.34l-1.22,1.56l0.22,1.19l-1.22,2.31l-1.75,2l-0.75-0.16l-0.12,1.75l-0.75,0.25l-1.62,2.81l-2.53,1.59l-1.06,1.44h-1.5
		l-1.44,2.06l-1.81,5.41l-0.16,0.19l1.16,0.16l-0.69,2.19l-1.22,1.25l-0.88-0.09l-1.72,2.16l0.56,2.34l1.16,0.22l0.12,0.78
		l-2.28,3.09l-0.22,1.25l-1,0.56v1l-4.12,1.81l-1.91,2.53l-3.06,2.31l-0.09-0.09l-1.66,1.19l-1.16,3.41l-3.62-1.84l-2.66,0.69
		l-1.91,1.25l-2.75-0.59L577.75-97h-0.06l-0.84,0.44L576-96.16l-2,0.59h-0.84l-0.66,0.66l-1.84,1.5L570-91.56l-2,0.5l-6.66,3.75
		l-1.53-0.09l-3,1.16l0.09,0.5l-0.97,0.5l3.72,0.31l1.78-0.91l9.97-5.09l1.5-1.38l3-0.5l4.19-3.28l2.34-0.09h2.72l5.5,0.5l-2.5,2.12
		l-2.25,5.38l0.19,1.38l0.84,2.5l1.72,1.25l5.34,0.81l0.56,0.84h1.19l1.84,2.84l2.72,1.5l-1.06,1.72l-1.66,0.66l-1.03,1.59
		l-4.12,3.03l-4.19,1.47l-1.91,1.91L586-67.41l-1.25,0.66l-1.84-0.41l0.19-0.66h-0.94l0.44-0.53l-1.09-1l-3.09-0.75l-1.75,0.84
		l-1.5,1.41l-1.09-0.22l1.09,0.56l-1.31,1.59l-0.53,0.31l-1.22,0.44l-4.25,4.34l-0.59,0.62l-1.56,0.34l-1.62,6.03L561.44-54
		l-1.19,1.09l-0.91-0.78l-1.03,0.19l-1,0.25l0.03,0.66l-0.69-0.31l-1.72,2.09l-1.03-0.62L552.81-50l-0.91,0.06l-1.16,0.03l0.16,0.25
		l-0.22,1.81l-1.28-1.22l-1.59-0.78l-0.66,0.25l0.41,0.34l-0.81-0.25l-0.41-1.09l-2.59-0.5l-1-0.84l-1.56,0.19l-1.03-0.09
		l-0.91-0.09l-0.94-0.56h-0.81l-1.34-0.19l-3.47-0.16l-3.12-3.25l-1.38-0.75l-2.5-2.59l2,3.34l2.16,1.34l1,1.56l0.66,1.12l0.31,0.12
		l0.84,0.28l1.34-0.03l2,0.62l2.16,1.31l4.91,1.69l4.94,1.38l0.56,0.09l0.75-0.34l-0.12,0.5l1.56,0.34l2.31-1.25l2.28,0.16
		l0.81,0.12l1,1l1.19,0.66l0.56,0.25l0.25,0.09l1.5-0.59l0.53,0.81v-0.06l1.25,0.06l1-1.22l1.97,1.91l0.28,0.31l1.75,1.66l2.38,1.12
		l1.69-0.19l0.19-0.41h1h1.25l2.47-2.41l3.09-0.28l0.31-0.34l0.12-1.16l0.22-1.22l0.34-1.38l0.66-0.91l1.75-1.47l1.69-0.34
		l1.56-2.41l9.75,0.5l2.03,1.31l0.38,1.59l1.94,1.06l-0.56,0.78l0.5,1l-0.53-0.78L599.41-47l-0.97-0.25l0.81,1l1.16-0.16l0.28-1.44
		l1.38,1.69l0.62-0.91l1.5-0.19l0.31,0.19l2.91,1.97h1.19l1.59,1.91l1-0.16l0.62,1.69l1.62,1.34l2.22,1.56l4.34,0.69l2.19-1
		l2.97,1.88l2.19-0.16l0.81,3.66l1.41,0.94l0.75-0.25l0.12,0.84l0.47-0.59l0.5,2.09l0.25,1.5l2.16,3.47l-3.22,2l0,0.04l3.09-1.91
		l3.12,5.06l-0.56,0.41l2,3.03l4.69,4.25l-0.09,1.16l0.81,0.16l0.19,1.81l1.81,2.53l1.69,1l1.81-1.16l1.19,2.06l-1.28,1L650-2.84
		l1.75-1.66l1.19,0.16l5.22,4.19l-0.41,0.47l1.69,2.38l-0.84,0.22l-0.34,1.03l1.69,2.12l-0.19,2.53l1.44,0.66l-0.09,5.69l1.09,1
		l-0.28,2.66l-1.81,2.31L659.5,20l-0.25,0.5l0.56,1.06l0.38-0.47l1.25,4.22l1.12,0.59l-2-0.47l2.19,1.06l1.16,1.41l-1.47,5.03
		l1.31,3.31l1.69,1.94l0.5,2.22l1.22,2.34l-0.97,0.44l-0.62,2.06l-0.97,0.16l0.84,0.16l2.56,4.75l-2.25-2.97l1.84,2.66l-0.28,1.19
		l1.62,2.5l0.62,1.22l2.03,4.75l1.75,1.75l-1.69,0.16l-0.91,1l-0.56,1.59l-3.03,0.16l-1.84,0.5l5.09-0.06h0.03l1.56-2.66l0.34,0.56
		l1.09-0.91l-0.69,1.19l2,2.22l1.25,0.94l0.5,1.5l-1.41,2.25l-1.75-0.09l1.75,0.16l0.75-0.81l-0.16,1.97l0.91,0.5l-0.69-0.16
		l-0.47,1.19l1.12-0.78l0.19,1.44l-0.09,0.06l-0.59,0.78l0.38,2.25l0.5,1.84l1.72,2.5l1.34,7.41l3.81,5.16l4.09,2.5l0.25,0.81
		l-1.47-0.75l0.56,0.53l-0.69,1.47l0.94,2.19l1.69,1.31l-0.69,0.38l-0.25,1.25l0.56,0.12l-1.56-0.06l-0.75,1.09l1.75,0.16l0.69-0.16
		l0.16,1.34l-2.28,3.16l2.28-2.5l0.72-1.09l-0.38-1.44l1.22-0.25l-0.09-1.06l1.12,1.16l4.16,1.25l3.31,2.5l1.16,0.44l1.53,0.47
		l2.16-0.22l1.94,1.59l2.72-0.03l2.84,1.41l1.31-0.31l0,0l0.88,0.34l1.97,3.16l1.84-0.69l2.19,1.59l0.75,2.03l3.72,0.66l1.53,0.5
		l4.38,4.5l-0.72,1.56l0.72,1.84l2.03,0.91l1.75,1.94l2.09,5.34l1.06,0.91l0.69,4.09l1.47,0.62l-0.72,1.53l2,2.16l-0.25,0.5
		l4.38,2.34l2.84,1.16l-1.16-0.09l-0.5,1.53l1.5,2.97l3.31,1.91l0.59,0.09l7.09,2.91l1.16,1.28l-1.81,1.34l-4.03,0.75l-1.12,2.12
		l-0.78,0.19l-0.84,2.25l0.12,5.41l1.66,5.19l2.34,6.25l18.16,25.47l2,4.5l0.25,1.75l-0.09,0.59l-0.06-0.66l-1.28-1.66l-2.84-1.78
		l-3.12-0.88l-5.62,2.38l-3.91-1l-7.59-7.38l-0.66-2l-0.5-0.44l0.09-2.66l-0.31,1.56l-2.59-0.09l-2.94,0.53l-7.41,2.81l-1-0.31
		h-0.66l-5.19,0.97l-1.97-1.88l-3.09-0.75l0.41,0.56l-3.06,0.84L720.5,204l-2,0.09l1.75,0.66l0.06,1.44l0.88,1.38l-0.59-2.56
		l5.25-2.19l1.72,2.28l4.03,1.72l1-0.31l1.31-1.16l1.16-0.94l5,0.03l0.38-0.59l6-1.44l6.06,8.16l6.16,5.12l1.25,0.97l0.91,0.41
		l0.44-0.75l0.75,0.12l0.59,0.62l3.34,3.62l1.31,1.81l-0.5,0.5l-3.19,0.94l0,0l3.19-0.94l0.5-0.5l2.5,1.84l0.09-1l-0.59,0.31
		l-0.59-1.31l2.59,1.59l0.09-0.62l0.56,0.25l-0.56,1.25l0.97,1l0.53,0.09l0.75,0.59l0.31-0.66l-0.59-1.19l1.78,0.91l-0.5,1.19
		l1.06,0.25l0.16-1.31l1.09,1.25l0.28,0.62l-0.69-0.25l2.34,3.19l-0.41,0.66l1.06,0.75l-0.84-0.16l1.66,1.75l-1,0.44l2.09,1.22
		l1.03,3.59l6.72,14.41l0.75,3.34l0.59,1.75l-0.75,10.44l-0.69,0.88l-2.06-0.5l1,0.53l-2.09,0.81l0.75,0.09l-4.84,4.59l-1.16,0.75
		l-2.66,2.47l-4.44,6.09l0.5,0.09l-0.91,2.56l-2.47,0.19h2.41l-1.69,1.5l-1-0.59l0.59,0.94l-1.19,1.84l1.03-0.69l-0.28,0.81
		l1.28-0.41l2.25,1.16h2.09l1.75,0.75l1.72,0.88l2.75,5l-0.41,4.72l0.56-3.59l3.34,0.62l-1.31,2.88l0,0l0,0l1.31-2.88l1.25-0.59
		l2.69-0.03l2.81,2.5l0.53,1.38l-0.53-1.94l0.41-1.25l0.53-0.06l-0.44-0.78l1.28-1.72h1.06l-0.06-0.5l1.12-0.25l-0.62-0.28
		l0.75-0.72l0.25,0.75l0.81-0.53l-0.19-3.31l2.5-7.59l3.44-3.66l1.41-0.25l0.69,1.34l0.91-1.03l0.31,0.84l0.88-0.25l-0.94-0.94
		l1.81,0.25l-0.06,0.53l0.59-0.28l-0.41-0.25l3.56-0.41l-0.41,0.66l1.41-0.12l-0.91-0.03l1.31-0.81l0.91,0.41l1.53,0.16v1.25l1.72-1
		l0.19-0.72l-0.66-0.09l2-0.09l2.16,0.69l-0.06-0.78l1.62-0.25l-1.12,0.28l2.06,0.25v1.75l1.31,0.25l0.28-0.59v-0.75l0.28,0.09
		l-0.28-0.12v0.03l-0.69-0.25l-0.81,1.31l0.91-2.34l1.59,0.94l-0.47,0.53l0.03,0.03l0.53-0.5l-0.09-0.06h0.16l0.81,0.69l-1.88,0.41
		l2.72-0.16l0.09-0.53l1.09,0.69l3.16-0.69l-0.06,0.69l2.16,0.16l0.22-0.94l1.09-0.41l-2.65-0.97l0,0l0,0l-1.66,0.75l0.16-0.78
		l0.31-0.31l1.19,0.34l0,0l9.06,2.5l9.12,0.88l5,1.84l5.81,3.69l10.56,8.41l6.53,6.19l2,2.81l2.66,7.41l0.59,8.09l-0.41-0.44
		l0.31,0.59l-0.41,0.78l0.75,3.56l1.81,5.5L886.56,333z M856,399.84v-0.03v-0.06l0.16,0.09l0.16-0.03l0.03-0.16l-0.03-0.16
		l0.09-0.19l0.03-0.12l0,0l0.12,0.16l0.03,0.22v0.12v0.38L856.5,400l-0.5-0.09l0.06-0.06H856z M855.34,400.56l-1.28-0.66l0.28-0.72
		l2-0.09l0,0v0h0L855.34,400.56z M856.5,398.66l1,0.66l-0.44,0.28L856.5,398.66z M822.69,450.66l0.88-1.5l-0.38-1.09l3.25,0.69
		l2.38,1.41l5.28,0.78l3.56,4.56l-3.59,2.25l-2.72-1l-1.25,0.16l-2.44-0.66h-0.06l-2.53,0.19l-0.22-2.03l-2.34-1.34l-0.69-1.41
		l0.75,0.53l1-0.69L822.69,450.66z M829.31,435.34l-1-0.34l0.38-1.25l0.97-0.66l-0.59-1.34l1.88-0.19l0.5-2.16l5.62-0.91l-1.97,3.34
		l-4.41,3.91l-1.62-1L829.31,435.34z M827.94,434.91l-0.88-2.25l1.25-1.09l0,0l0.59,0.09l0.09,1.03L827.94,434.91z M835.84,411.5
		l-3.16,0.41l-0.38-0.59l2.88-3.12l-0.03,0.5l1.69-0.75l2.66,0.91l-1.06,1.34L835.84,411.5z M825.06,417.84l-1.06,0.47l-1.19-0.66
		L825.06,417.84z M821.09,418.31l-1.44,0.03l0.84-1.25v0L821.09,418.31z M819.69,452l0.41,1.56h-1.59l-0.5-1L819.69,452z
		 M817.56,451.34l0.34-0.53h1.28l0.38,0.84L817.56,451.34z M812.34,453.19l-1.5,0.12l0.22-0.56L812.34,453.19z M698.06,520.41
		l0.28-0.81l0.22,0.66L698.06,520.41z M638.91,534.19l-0.81,0.5l-1.44-0.69l0.94-0.5L638.91,534.19z M635.09,534.94l0.06,0.06
		l0.03,0.06h-0.03h-0.06h-0.03L635,535L635.09,534.94z M634.56,534.84l-0.25-1l0.69,0.66L634.56,534.84z M451.59,426.81l2.34,0.59
		l-0.62,0.78l-1.38-0.25L451.59,426.81z M485.41,439.5l0.03-0.06l0.06,0.12L485.41,439.5z M512.09,436.09l1.16,0.16l0.16,0.25
		L512.09,436.09z M440.5,412.41v-0.06h0.09L440.5,412.41z M432.5-19.75l0.56-0.66l1.87-0.09l3.31,2.16l2.34,2.66l1.25,3.84
		l0.41,4.09l-2.06,2.44l3.12,1.47l1.53,2.16l-2.19,1.25l-0.81,1.28l3,2.16l-1.03,1.94l0.84,2.97l-0.47,1.28l-1.75,1.41l-1.53-0.53
		L436.94,11l-3.12-0.75l-3.5-2.81l-0.91-3.84l-1.72-1.03L428-0.31l1.06-1.75l-0.56-2.09l-2.81-5.5l2.38-6.53l2.25-1.12l0.88-1.78
		l2,0.34L432.5-19.75z M447.94-33.5l1.75,0.34l1.38,7.91l-1.75,1.5l1.25,2.59l-1.75,0.66l-2.38-5.16l-2.62-0.5l-0.38-7.25
		l-2.25-1.09l-3.12-5.75l2.38-2.25l3.62,3l2.38,1.75l-0.25,2L447.94-33.5z M440.94-29.75l1.25,2.84l-1.38,1.16l-0.5-2.25
		L440.94-29.75z M449.94,306l0.62-2.44l1,0.28L449.94,306z M454.44,297.25v-0.06l0.06-0.03l0.06,0.03L454.44,297.25z M467.75,245.91
		l0.34-1.72l-1.41-1.62l1-0.62l1.12-3.88l-1.25-3l0.69-0.75l2.31,0.19l1.34-1.16l0.16,0.84l1-0.19l1-1.16l1.75,1.06v-1.09l1.62-0.72
		l1.38,0.34l0.12,0.72l0.47-0.56l1.84,0.31l0.69,1.09l1.22-0.56l0.19,0.72l0.56-0.56l2.16,0.84l0.38-0.62l1.12,2.94l-1.81,2.81
		l1.25-0.72l0.75,1.16l2.25,0.41l-0.31,1.91l0.56,0.25l0.34,2.09l0.91,0.59l-0.69,1.66l0.62,0.69l4-1.25l1.66-1.5l5.16,1.09
		l-2.09,2.12l-2,3.88l-3.97,2.12l-0.75,0.94l-2.12,1l-1.16,3.25l-1.75,0.66l-4,3.41l-1.25,0.25l-0.97-1l-1,2l1.56,0.88l-4.56-2.12
		l-1.19,1.03l0.59-1l-0.75-2.16l2.22-0.53l0.84-2.81l-0.75,0.72l-3.91,3.53l-1.41-3l-1.28,0.5l-0.12-1.03l-1.03-0.12l0.53-2.12
		l-1.59-1.72l0.06-1.03l-2.09-2.06l0.44-0.5l-0.75-0.56l0.41-0.94l-1.06,0.84l0.97,1.59l-2.81,0.5l-1-0.75l0.31-1.03l-1.06-1.47
		l0.59-1.03l-2.19-1.06l-2.06,0.59l-0.34-0.75l0.69-1.03l-1.44-0.97l1.19-0.69l0.16-1.09l1.25,0.53l0.91-0.09l1.25,0.66l0.31-0.5
		l0.28,0.56l0.59,1.28l0.91-0.28l1.31,2l1.03-1.41l0.88,0.16l0.59-0.81L467.75,245.91z M555.5,158l0.06,3.16l1.78,1.84l-0.19,1.44
		l0.84,0.25l0.31,1.47l1.69-0.34l0.31,0.5l0.09-0.5l-0.06,0.88l-2.41-0.09l-3.59-6.59l-0.44-3.81l1.53-1l-0.84,0.81L555.5,158z
		 M562.34,245.94l1.72,2l-0.88,0.81L562.34,245.94z M457.34-27.31l0.22,2.88l-1.22,2.09L456-23.31l-1.91,1.16v-1.53l2.16-3.66v0
		L457.34-27.31z M423.75-106.06l-5.56,3.56l1.56-4.06l3.75-1.69l2.81-4.41l2.44-0.41L423.75-106.06z M424.31-97.94l-4.12,5.28
		l-1.5-1l1.31-3.03l2.19-0.22l1.56-1.41L424.31-97.94z M439.56-270.69l-1,0.59l-1.31-0.66l0.69-2l0.81,0.5l-0.41,1.06L439.56-270.69
		z M649.5-9.91L648-9.94l-0.81-1.56l-1.62,0.41l-0.81-0.75l4.59-0.06v0L649.5-9.91z"/>
</g>
</svg>
