<svg xmlns="http://www.w3.org/2000/svg" width="16.67" height="16.67" viewBox="0 0 16.67 16.67" preserveAspectRatio="xMinYMax"><circle fill="#97D0CB" cx="8.33" cy="8.33" r="7.83"/><path fill="#28A197" d="M8.33 16.67C3.74 16.67 0 12.93 0 8.33 0 3.74 3.74 0 8.33 0c4.6 0 8.33 3.74 8.33 8.33.01 4.6-3.73 8.34-8.33 8.34zM8.33 1C4.29 1 1 4.29 1 8.33s3.29 7.33 7.33 7.33 7.33-3.29 7.33-7.33S12.38 1 8.33 1z"/><g fill="#28A197"><path d="M13.32 6.2c0-1.69-1.38-3.07-3.07-3.07-.71 0-1.36.25-1.88.66-.24-.73-.93-1.27-1.74-1.27-1.01 0-1.84.82-1.84 1.84S5.61 6.2 6.63 6.2c.2 0 .39-.04.57-.1 0 .04-.01.07-.01.11 0 1.69 1.38 3.07 3.07 3.07 1.68-.01 3.06-1.39 3.06-3.08zm-6.86 3.81c.17-.31.27-.66.27-1.04 0-1.23-1-2.22-2.22-2.22s-2.22 1-2.22 2.22c0 1.13.85 2.05 1.94 2.2-.07.19-.11.39-.11.6 0 1.01.82 1.84 1.84 1.84s1.84-.82 1.84-1.84c-.01-.84-.58-1.54-1.34-1.76z"/><circle cx="11.1" cy="11.76" r="1.84"/></g></svg>