<?xml version="1.0" encoding="utf-8"?>
<!-- Generator: Adobe Illustrator 18.1.0, SVG Export Plug-In . SVG Version: 6.00 Build 0)  -->
<svg version="1.1" id="Layer_1" xmlns="http://www.w3.org/2000/svg" xmlns:xlink="http://www.w3.org/1999/xlink" x="0px" y="0px"
	 width="16.67px" height="16.67px" viewBox="0 0 16.67 16.67" enable-background="new 0 0 16.67 16.67" xml:space="preserve">
<g>
	<circle fill="#97D0CB" cx="8.33" cy="8.33" r="7.83"/>
	<path fill="#28A197" d="M8.33,16.67C3.74,16.67,0,12.93,0,8.33C0,3.74,3.74,0,8.33,0c4.6,0,8.33,3.74,8.33,8.33
		C16.67,12.93,12.93,16.67,8.33,16.67z M8.33,1C4.29,1,1,4.29,1,8.33s3.29,7.33,7.33,7.33s7.33-3.29,7.33-7.33S12.38,1,8.33,1z"/>
</g>
<g>
	<path fill="#28A197" d="M13.32,6.2c0-1.69-1.38-3.07-3.07-3.07c-0.71,0-1.36,0.25-1.88,0.66C8.13,3.06,7.44,2.52,6.63,2.52
		c-1.01,0-1.84,0.82-1.84,1.84s0.82,1.84,1.84,1.84c0.2,0,0.39-0.04,0.57-0.1c0,0.04-0.01,0.07-0.01,0.11
		c0,1.69,1.38,3.07,3.07,3.07C11.94,9.27,13.32,7.89,13.32,6.2z"/>
	<path fill="#28A197" d="M6.46,10.01c0.17-0.31,0.27-0.66,0.27-1.04c0-1.23-1-2.22-2.22-2.22s-2.22,1-2.22,2.22
		c0,1.13,0.85,2.05,1.94,2.2c-0.07,0.19-0.11,0.39-0.11,0.6c0,1.01,0.82,1.84,1.84,1.84s1.84-0.82,1.84-1.84
		C7.79,10.93,7.22,10.23,6.46,10.01z"/>
	<circle fill="#28A197" cx="11.1" cy="11.76" r="1.84"/>
</g>
</svg>
