<svg xmlns="http://www.w3.org/2000/svg" viewBox="0 0 8.43 7.9" preserveAspectRatio="xMinYMax"><g fill="#F5F5F5"><path d="M4.96 6.17c0 .96.78 1.73 1.73 1.73s1.73-.78 1.73-1.73-.77-1.74-1.72-1.74-1.74.78-1.74 1.74zm.74 0c0-.55.45-1 1-1s1 .45 1 1-.45 1-1 1-1-.45-1-1zM0 6.17C0 7.12.78 7.9 1.73 7.9s1.73-.78 1.73-1.73-.77-1.74-1.73-1.74S0 5.21 0 6.17zm.74 0c0-.55.45-1 1-1s1 .45 1 1-.45 1-1 1-1-.45-1-1z"/><path d="M3.67 4.79v2.14c0 .3.25.55.55.55s.55-.25.55-.55V5.04l1.2-1.06c.11-.1.19-.25.19-.4 0-.16-.06-.3-.17-.41L4.07 1.34c-.12-.12-.28-.17-.45-.15-.16.01-.3.11-.4.24l-.68 1.03-.65.02c-.3.02-.54.27-.53.58.01.3.27.54.57.53l.93-.03c.18 0 .34-.1.44-.25l.48-.72 1.01.97-.93.82c-.11.11-.19.25-.19.41z"/><circle cx="2.47" cy=".73" r=".73"/></g></svg>