<svg xmlns="http://www.w3.org/2000/svg" width="4.19" height="12.43" viewBox="0 0 4.19 12.43" preserveAspectRatio="xMinYMax"><path fill="#28A197" d="M2.36 12.43h-.55V2.39c0-.04.01-.09.02-.13.04-.12.14-.2.25-.2.15 0 .28.15.28.33v10.04zm-.9-5.48c.52.61.43 1.54.43 1.54S.96 8.44.44 7.82.01 6.28.01 6.28s.93.06 1.45.67z"/><path fill="#28A197" d="M2.76 1.45c.01.8-.66 1.46-.66 1.46s-.68-.65-.69-1.45S2.08 0 2.08 0s.68.65.68 1.45zm-.03 5.5c-.52.61-.43 1.54-.43 1.54s.93-.06 1.45-.67.43-1.54.43-1.54-.93.06-1.45.67zM1.46 2.74c.52.61.43 1.54.43 1.54S.96 4.23.44 3.61.01 2.07.01 2.07s.93.06 1.45.67zm1.27 0c-.52.61-.43 1.54-.43 1.54s.93-.06 1.45-.67.43-1.54.43-1.54-.93.06-1.45.67zm-1.27 2.1c.52.61.43 1.54.43 1.54S.96 6.33.44 5.72.01 4.18.01 4.18s.93.05 1.45.66zm1.27 0c-.52.62-.43 1.55-.43 1.55s.93-.06 1.45-.67.43-1.54.43-1.54-.93.05-1.45.66zM1.46 9.05c.52.61.43 1.54.43 1.54s-.93-.06-1.45-.67C-.08 9.31.01 8.38.01 8.38s.93.06 1.45.67zm1.27 0c-.52.61-.43 1.55-.43 1.55s.93-.06 1.45-.67c.52-.61.43-1.54.43-1.54s-.93.05-1.45.66z"/></svg>