<svg xmlns="http://www.w3.org/2000/svg" viewBox="0 0 3.04 9.03" preserveAspectRatio="xMinYMax"><path fill="#ABD7D3" d="M1.71 9.03H1.31V1.74c0-.03 0-.06.02-.09.03-.09.1-.15.19-.15.11 0 .2.11.2.24l-.01 7.29z"/><path fill="#ABD7D3" d="M1.06 5.05c.38.44.32 1.12.32 1.12S.7 6.12.32 5.68 0 4.56 0 4.56s.68.04 1.06.49zM2 1.05c0 .58-.48 1.06-.48 1.06s-.49-.47-.5-1.05S1.51 0 1.51 0 2 .47 2 1.05zM1.98 5.05c-.38.44-.31 1.12-.31 1.12s.68-.04 1.06-.48c.37-.45.31-1.13.31-1.13s-.68.04-1.06.49zM1.06 1.99c.38.44.32 1.12.32 1.12S.7 3.07.32 2.63 0 1.51 0 1.51s.68.03 1.06.48zM1.98 1.99c-.38.44-.31 1.12-.31 1.12s.68-.04 1.06-.48c.37-.45.31-1.12.31-1.12s-.68.03-1.06.48zM1.06 3.52c.38.44.32 1.12.32 1.12S.7 4.6.32 4.15C-.06 3.71 0 3.04 0 3.04s.68.03 1.06.48zM1.98 3.52c-.38.44-.31 1.12-.31 1.12s.67-.04 1.05-.49c.38-.44.32-1.11.32-1.11s-.68.03-1.06.48zM1.06 6.58c.38.44.32 1.12.32 1.12S.7 7.65.32 7.21 0 6.09 0 6.09s.68.04 1.06.49zM1.98 6.58c-.38.44-.31 1.11-.31 1.11s.68-.04 1.06-.48c.37-.44.31-1.12.31-1.12s-.68.04-1.06.49z"/></svg>