<?xml version="1.0" encoding="utf-8"?>
<!-- Generator: Adobe Illustrator 18.1.0, SVG Export Plug-In . SVG Version: 6.00 Build 0)  -->
<svg version="1.1" id="Layer_1" xmlns="http://www.w3.org/2000/svg" xmlns:xlink="http://www.w3.org/1999/xlink" x="0px" y="0px"
	 width="25.24px" height="21.11px" viewBox="-407 287.17 25.24 21.11" enable-background="new -407 287.17 25.24 21.11"
	 xml:space="preserve">
<g id="Layer_1_1_">
	<path fill="#28A197" d="M-383.53,293.31c0-0.06-0.02-0.12-0.07-0.17c-0.04-0.04-0.1-0.07-0.16-0.07h-7.02
		c-0.06,0-0.12,0.02-0.16,0.07c-0.04,0.04-0.07,0.1-0.07,0.17c0.04,4.38-0.38,8.58-1.23,12.53c-1.33-5.74-1.98-11.9-1.92-18.34
		c0-0.08-0.03-0.17-0.09-0.23s-0.15-0.1-0.24-0.1h-9.75c-0.08,0-0.17,0.03-0.23,0.1c-0.06,0.06-0.09,0.14-0.09,0.23
		c0.06,7.2-0.76,14.05-2.43,20.38c-0.02,0.1,0,0.2,0.06,0.28c0.06,0.08,0.15,0.13,0.26,0.13h24.68l0,0c0.13,0,0.23-0.1,0.23-0.23
		c0-0.03,0-0.06-0.01-0.08C-382.99,303.43-383.57,298.49-383.53,293.31z"/>
</g>
<g>
	<g>
		<g>
			<g id="XMLID_101_">
				<g>
					<path fill="#ABD7D3" d="M-398.95,308.37h-0.23h-0.56v-14.38c0-0.06,0.01-0.13,0.03-0.18c0.06-0.17,0.2-0.28,0.36-0.28
						c0.22,0,0.39,0.21,0.39,0.47V308.37L-398.95,308.37z"/>
				</g>
			</g>
		</g>
		<path fill="#ABD7D3" d="M-400.24,300.52c0.75,0.88,0.62,2.21,0.62,2.21s-1.33-0.08-2.08-0.96c-0.75-0.88-0.62-2.21-0.62-2.21
			S-400.99,299.64-400.24,300.52z"/>
		<path fill="#ABD7D3" d="M-398.37,292.64c0.01,1.15-0.95,2.09-0.95,2.09s-0.97-0.92-0.98-2.07c-0.01-1.15,0.94-2.09,0.94-2.09
			S-398.38,291.49-398.37,292.64z"/>
		<path fill="#ABD7D3" d="M-398.42,300.52c-0.75,0.88-0.62,2.21-0.62,2.21s1.33-0.08,2.08-0.96c0.75-0.88,0.62-2.21,0.62-2.21
			S-397.68,299.64-398.42,300.52z"/>
		<path fill="#ABD7D3" d="M-400.24,294.49c0.75,0.88,0.62,2.21,0.62,2.21s-1.33-0.08-2.08-0.96c-0.75-0.88-0.62-2.21-0.62-2.21
			S-400.99,293.62-400.24,294.49z"/>
		<path fill="#ABD7D3" d="M-398.42,294.49c-0.75,0.88-0.62,2.21-0.62,2.21s1.33-0.08,2.08-0.96c0.75-0.88,0.62-2.21,0.62-2.21
			S-397.68,293.62-398.42,294.49z"/>
		<path fill="#ABD7D3" d="M-400.24,297.51c0.75,0.88,0.62,2.21,0.62,2.21s-1.33-0.08-2.08-0.96c-0.75-0.88-0.62-2.21-0.62-2.21
			S-400.99,296.63-400.24,297.51z"/>
		<path fill="#ABD7D3" d="M-398.42,297.51c-0.75,0.88-0.62,2.21-0.62,2.21s1.33-0.08,2.08-0.96c0.75-0.88,0.62-2.21,0.62-2.21
			S-397.68,296.63-398.42,297.51z"/>
		<path fill="#ABD7D3" d="M-400.24,303.53c0.75,0.88,0.62,2.21,0.62,2.21s-1.33-0.08-2.08-0.96c-0.75-0.88-0.62-2.21-0.62-2.21
			S-400.99,302.66-400.24,303.53z"/>
		<path fill="#ABD7D3" d="M-398.42,303.53c-0.75,0.88-0.62,2.21-0.62,2.21s1.33-0.08,2.08-0.96c0.75-0.88,0.62-2.21,0.62-2.21
			S-397.68,302.66-398.42,303.53z"/>
	</g>
</g>
</svg>
