<svg xmlns="http://www.w3.org/2000/svg" width="25.24" height="21.11" viewBox="-407 287.17 25.24 21.11" preserveAspectRatio="xMinYMax"><path fill="#28A197" d="M-383.53 293.31c0-.06-.02-.12-.07-.17-.04-.04-.1-.07-.16-.07h-7.02c-.06 0-.12.02-.16.07-.04.04-.07.1-.07.17.04 4.38-.38 8.58-1.23 12.53-1.33-5.74-1.98-11.9-1.92-18.34 0-.08-.03-.17-.09-.23s-.15-.1-.24-.1h-9.75c-.08 0-.17.03-.23.1-.06.06-.09.14-.09.23.06 7.2-.76 14.05-2.43 20.38-.02.1 0 .2.06.28.06.08.15.13.26.13h24.68c.13 0 .23-.1.23-.23 0-.03 0-.06-.01-.08-1.22-4.55-1.8-9.49-1.76-14.67z"/><path fill="#ABD7D3" d="M-399.02 308.39h-.64v-11.68c0-.05.01-.1.03-.15.05-.14.16-.23.29-.23.18 0 .32.17.32.38v11.68zM-400.07 302.01c.61.71.5 1.8.5 1.8s-1.08-.07-1.69-.78c-.61-.71-.5-1.8-.5-1.8s1.08.07 1.69.78z"/><path fill="#ABD7D3" d="M-398.55 295.61c.01.93-.77 1.7-.77 1.7s-.79-.75-.8-1.68c-.01-.93.76-1.7.76-1.7s.8.75.81 1.68zM-398.59 302.01c-.61.71-.5 1.8-.5 1.8s1.08-.07 1.69-.78c.61-.71.5-1.8.5-1.8s-1.09.07-1.69.78zM-400.07 297.12c.61.71.5 1.8.5 1.8s-1.08-.07-1.69-.78c-.61-.71-.5-1.8-.5-1.8s1.08.06 1.69.78zM-398.59 297.12c-.61.71-.5 1.8-.5 1.8s1.08-.07 1.69-.78c.61-.71.5-1.8.5-1.8s-1.09.06-1.69.78zM-400.07 299.57c.61.71.5 1.8.5 1.8s-1.08-.07-1.69-.78-.5-1.8-.5-1.8 1.08.06 1.69.78zM-398.59 299.57c-.61.71-.5 1.8-.5 1.8s1.08-.07 1.69-.78.5-1.8.5-1.8-1.09.06-1.69.78zM-400.07 304.46c.61.71.5 1.8.5 1.8s-1.08-.07-1.69-.78-.5-1.8-.5-1.8 1.08.07 1.69.78zM-398.59 304.46c-.61.71-.5 1.8-.5 1.8s1.08-.07 1.69-.78.5-1.8.5-1.8-1.09.07-1.69.78z"/></svg>