<svg xmlns="http://www.w3.org/2000/svg" width="200.87" height="370.28" viewBox="320.52 100 200.87 370.28" preserveAspectRatio="xMinYMax"><path fill="#D53980" d="M451.27 332.91c-9.52 11.02-14.75 24.32-17.58 36.58l.14-64.75c10.43-1.17 45.72-6.85 66.88-31.36 24.39-29.67 20.44-73.83 20.44-73.83s-44.83 1.98-69.88 31.64c-9.27 10.74-14.48 23.64-17.36 35.64l.1-44.08c8.72-12.88 18.58-32.17 18.58-53.52 0-38.24-32.3-69.22-32.3-69.22s-32.96 31.64-32.3 69.88c.36 20.99 10.26 39.79 19.12 52.48v40.44c-3.14-10.81-8.24-22.07-16.48-31.61-25.05-29.67-69.88-31.64-69.88-31.64s-3.96 44.83 21.1 73.83c20.18 23.37 53.19 29.62 65.26 31.17v59.98c-3.14-10.81-8.24-22.07-16.48-31.61-25.05-29.67-69.88-32.3-69.88-32.3s-3.96 44.83 21.1 73.83c20.18 23.37 53.19 30.05 65.26 31.76v64.08h26.37l.14-63.79c10.14-1.12 45.78-6.7 67.1-31.39 24.39-29.67 20.44-74.49 20.44-74.49s-44.84 2.61-69.89 32.28z"/></svg>