<?xml version="1.0" encoding="utf-8"?>
<!-- Generator: Adobe Illustrator 18.1.0, SVG Export Plug-In . SVG Version: 6.00 Build 0)  -->
<svg version="1.1" id="Layer_1" xmlns="http://www.w3.org/2000/svg" xmlns:xlink="http://www.w3.org/1999/xlink" x="0px" y="0px"
	 width="25.24px" height="21.11px" viewBox="-407 287.17 25.24 21.11" enable-background="new -407 287.17 25.24 21.11"
	 xml:space="preserve" preserveAspectRatio="xMinYMax">
<g id="Layer_1_1_">
	<path fill="#28A197" d="M-383.53,293.31c0-0.06-0.02-0.12-0.07-0.17c-0.04-0.04-0.1-0.07-0.16-0.07h-7.02
		c-0.06,0-0.12,0.02-0.16,0.07c-0.04,0.04-0.07,0.1-0.07,0.17c0.04,4.38-0.38,8.58-1.23,12.53c-1.33-5.74-1.98-11.9-1.92-18.34
		c0-0.08-0.03-0.17-0.09-0.23s-0.15-0.1-0.24-0.1h-9.75c-0.08,0-0.17,0.03-0.23,0.1c-0.06,0.06-0.09,0.14-0.09,0.23
		c0.06,7.2-0.76,14.05-2.43,20.38c-0.02,0.1,0,0.2,0.06,0.28c0.06,0.08,0.15,0.13,0.26,0.13h24.68l0,0c0.13,0,0.23-0.1,0.23-0.23
		c0-0.03,0-0.06-0.01-0.08C-382.99,303.43-383.57,298.49-383.53,293.31z"/>
</g>
<g>
	<g>
		<g>
			<g id="XMLID_101_">
				<g>
					<path fill="#ABD7D3" d="M-399.02,308.39h-0.18h-0.46v-11.68c0-0.05,0.01-0.1,0.03-0.15c0.05-0.14,0.16-0.23,0.29-0.23
						c0.18,0,0.32,0.17,0.32,0.38V308.39L-399.02,308.39z"/>
				</g>
			</g>
		</g>
		<path fill="#ABD7D3" d="M-400.07,302.01c0.61,0.71,0.5,1.8,0.5,1.8s-1.08-0.07-1.69-0.78c-0.61-0.71-0.5-1.8-0.5-1.8
			S-400.68,301.3-400.07,302.01z"/>
		<path fill="#ABD7D3" d="M-398.55,295.61c0.01,0.93-0.77,1.7-0.77,1.7s-0.79-0.75-0.8-1.68c-0.01-0.93,0.76-1.7,0.76-1.7
			S-398.56,294.68-398.55,295.61z"/>
		<path fill="#ABD7D3" d="M-398.59,302.01c-0.61,0.71-0.5,1.8-0.5,1.8s1.08-0.07,1.69-0.78c0.61-0.71,0.5-1.8,0.5-1.8
			S-397.99,301.3-398.59,302.01z"/>
		<path fill="#ABD7D3" d="M-400.07,297.12c0.61,0.71,0.5,1.8,0.5,1.8s-1.08-0.07-1.69-0.78c-0.61-0.71-0.5-1.8-0.5-1.8
			S-400.68,296.4-400.07,297.12z"/>
		<path fill="#ABD7D3" d="M-398.59,297.12c-0.61,0.71-0.5,1.8-0.5,1.8s1.08-0.07,1.69-0.78c0.61-0.71,0.5-1.8,0.5-1.8
			S-397.99,296.4-398.59,297.12z"/>
		<path fill="#ABD7D3" d="M-400.07,299.57c0.61,0.71,0.5,1.8,0.5,1.8s-1.08-0.07-1.69-0.78s-0.5-1.8-0.5-1.8
			S-400.68,298.85-400.07,299.57z"/>
		<path fill="#ABD7D3" d="M-398.59,299.57c-0.61,0.71-0.5,1.8-0.5,1.8s1.08-0.07,1.69-0.78s0.5-1.8,0.5-1.8
			S-397.99,298.85-398.59,299.57z"/>
		<path fill="#ABD7D3" d="M-400.07,304.46c0.61,0.71,0.5,1.8,0.5,1.8s-1.08-0.07-1.69-0.78s-0.5-1.8-0.5-1.8
			S-400.68,303.75-400.07,304.46z"/>
		<path fill="#ABD7D3" d="M-398.59,304.46c-0.61,0.71-0.5,1.8-0.5,1.8s1.08-0.07,1.69-0.78s0.5-1.8,0.5-1.8
			S-397.99,303.75-398.59,304.46z"/>
	</g>
</g>
</svg>
