<svg xmlns="http://www.w3.org/2000/svg" viewBox="0 0 15.22 10.74" preserveAspectRatio="xMinYMax"><path fill="#97D0CB" d="M15.22 6.29l-1.8 3.75c-.22.43-.67.71-1.16.71H1.67c-.2 0-.32-.21-.23-.38v-.01c.14-.29.06-.63-.2-.82l-.02-.01C.62 9.1.26 8.4.26 7.66v-.85H9.7c0-.29.23-.52.52-.52h5zM9.17 3.14H7.33c-.14 0-.26.12-.26.26v2.88c0 .14.12.26.26.26h1.83c.14 0 .26-.12.26-.26V3.4c.01-.14-.11-.26-.25-.26zm3.14 1.05h-2.1c-.14 0-.26.12-.26.26V5.5c0 .14.12.26.26.26h2.1c.14 0 .26-.12.26-.26V4.45c0-.14-.11-.26-.26-.26zM4.19 6.55h2.1c.14 0 .26-.12.26-.26v-2.1c0-.14-.12-.26-.26-.26h-2.1c-.14 0-.26.12-.26.26v2.1c0 .14.12.26.26.26zm-.13-3.93l-.66.52v3.4H.79v-3.4H0v-.52h1.83v-.76h-.67v-.3h.68V0h.26v1.55h.68v.3H2.1v.76l1.96.01zM2.93 4.78h-.85v.78h.85v-.78zm0-1.26h-.85v.78h.85v-.78z"/></svg>