<?xml version="1.0" encoding="utf-8"?>
<!-- Generator: Adobe Illustrator 18.1.0, SVG Export Plug-In . SVG Version: 6.00 Build 0)  -->
<svg version="1.1" id="Layer_1" xmlns="http://www.w3.org/2000/svg" xmlns:xlink="http://www.w3.org/1999/xlink" x="0px" y="0px"
	 width="10.32px" height="15.09px" viewBox="0 0 10.32 15.09" enable-background="new 0 0 10.32 15.09" xml:space="preserve">
<path fill="#5B6479" d="M10.31,9.86c-0.01-1.38-0.46-2.19-0.86-2.88C9.11,6.4,8.85,5.94,8.75,5.04c-0.01-0.2-0.06-0.38-0.14-0.57
	c0.06-0.17,0.1-0.36,0.1-0.55c0-0.21-0.04-0.41-0.12-0.59c0.07-0.19,0.12-0.38,0.12-0.59c0-0.61-0.36-1.15-0.89-1.4
	C7.56,0.55,6.82,0,5.96,0h-1.6C3.52,0,2.76,0.55,2.5,1.34c-0.55,0.25-0.89,0.81-0.89,1.4c0,0.21,0.04,0.41,0.12,0.59
	c-0.07,0.19-0.12,0.4-0.12,0.59c0,0.19,0.04,0.37,0.1,0.55C1.62,4.65,1.57,4.85,1.57,5.04C1.47,5.94,1.21,6.4,0.88,6.98
	c-0.4,0.71-0.85,1.5-0.86,2.88h0v0.68c0,0.37,0.3,0.66,0.66,0.66h0c0,0.36,0.29,0.65,0.65,0.65c0.36,0,0.65-0.29,0.65-0.65H2.6
	c0,0.36,0.29,0.65,0.65,0.65c0.36,0,0.65-0.29,0.65-0.65h0.62c0,0.36,0.29,0.65,0.65,0.65c0.36,0,0.65-0.29,0.65-0.65h0.59
	c0,0.36,0.29,0.65,0.65,0.65c0.36,0,0.65-0.29,0.65-0.65h0.57c0,0.36,0.29,0.65,0.65,0.65c0.36,0,0.65-0.29,0.65-0.65h0
	c0.42,0,0.76-0.34,0.76-0.76L10.31,9.86L10.31,9.86z M4.37,1.36h1.59c0.22,0,0.42,0.14,0.51,0.32h-2.6C3.95,1.5,4.15,1.36,4.37,1.36
	z M3.17,2.57h3.99c0.09,0,0.16,0.07,0.16,0.16c0,0.09-0.07,0.16-0.16,0.16H3.17c-0.09,0-0.16-0.07-0.16-0.16
	C3.01,2.64,3.08,2.57,3.17,2.57z M3.17,3.76h3.99c0.09,0,0.16,0.07,0.16,0.16c0,0.09-0.07,0.16-0.16,0.16H3.17
	C3.08,4.08,3.01,4,3.01,3.92C3.01,3.83,3.08,3.76,3.17,3.76z M1.42,9.86c0.01-1.01,0.32-1.57,0.68-2.2
	c0.35-0.62,0.74-1.31,0.87-2.52V5.12c0-0.09,0.07-0.16,0.16-0.16h4.09c0.09,0,0.16,0.07,0.16,0.16L7.4,5.35
	c0.15,1.07,0.52,1.72,0.84,2.29c0.37,0.63,0.67,1.19,0.68,2.21H1.42z"/>
</svg>
