<svg xmlns="http://www.w3.org/2000/svg" width="10.32" height="15.09" viewBox="0 0 10.32 15.09" preserveAspectRatio="xMinYMax"><path fill="#5B6479" d="M10.31 9.86c-.01-1.38-.46-2.19-.86-2.88-.34-.58-.6-1.04-.7-1.94-.01-.2-.06-.38-.14-.57.06-.17.1-.36.1-.55 0-.21-.04-.41-.12-.59.07-.19.12-.38.12-.59 0-.61-.36-1.15-.89-1.4C7.56.55 6.82 0 5.96 0h-1.6c-.84 0-1.6.55-1.86 1.34-.55.25-.89.81-.89 1.4 0 .21.04.41.12.59-.07.19-.12.4-.12.59 0 .19.04.37.1.55-.09.18-.14.38-.14.57-.1.9-.36 1.36-.69 1.94-.4.71-.85 1.5-.86 2.88v.68c0 .37.3.66.66.66 0 .36.29.65.65.65.36 0 .65-.29.65-.65h.62c0 .36.29.65.65.65.36 0 .65-.29.65-.65h.62c0 .36.29.65.65.65.36 0 .65-.29.65-.65h.59c0 .36.29.65.65.65.36 0 .65-.29.65-.65h.57c0 .36.29.65.65.65.36 0 .65-.29.65-.65.42 0 .76-.34.76-.76l-.03-.58zm-5.94-8.5h1.59c.22 0 .42.14.51.32h-2.6c.08-.18.28-.32.5-.32zm-1.2 1.21h3.99c.09 0 .16.07.16.16s-.07.16-.16.16H3.17c-.09 0-.16-.07-.16-.16s.07-.16.16-.16zm0 1.19h3.99c.09 0 .16.07.16.16s-.07.16-.16.16H3.17c-.09 0-.16-.08-.16-.16 0-.09.07-.16.16-.16zm-1.75 6.1c.01-1.01.32-1.57.68-2.2.35-.62.74-1.31.87-2.52v-.02c0-.09.07-.16.16-.16h4.09c.09 0 .16.07.16.16l.02.23c.15 1.07.52 1.72.84 2.29.37.63.67 1.19.68 2.21h-7.5z"/></svg>