<?xml version="1.0" encoding="utf-8"?>
<!-- Generator: Adobe Illustrator 18.1.0, SVG Export Plug-In . SVG Version: 6.00 Build 0)  -->
<svg version="1.1" id="Layer_1" xmlns="http://www.w3.org/2000/svg" xmlns:xlink="http://www.w3.org/1999/xlink" x="0px" y="0px"
	 width="10.32px" height="15.09px" viewBox="0 0 10.32 15.09" enable-background="new 0 0 10.32 15.09" xml:space="preserve">
<g>
	<g>
		<path fill="#5B6479" d="M5.17,15.09c2.84,0,5.15-2.31,5.15-5.15c0-1.42-0.46-2.24-0.87-2.94l0,0c-0.34-0.58-0.6-1.04-0.7-1.94
			c-0.01-0.2-0.06-0.39-0.14-0.57c0.06-0.17,0.1-0.36,0.1-0.55c0-0.21-0.04-0.41-0.12-0.6c0.07-0.19,0.12-0.39,0.12-0.6
			c0-0.61-0.36-1.16-0.89-1.4C7.56,0.55,6.82,0,5.96,0l-1.6,0C3.52,0,2.76,0.55,2.5,1.34C1.95,1.59,1.6,2.15,1.6,2.75
			c0,0.21,0.04,0.41,0.12,0.6C1.65,3.53,1.6,3.74,1.6,3.94c0,0.19,0.04,0.37,0.1,0.55C1.61,4.66,1.57,4.86,1.57,5.06
			c-0.1,0.89-0.36,1.35-0.7,1.94C0.46,7.71,0,8.52,0,9.95C0.01,12.78,2.32,15.09,5.17,15.09z M3.86,1.69
			C3.95,1.5,4.15,1.37,4.37,1.37h1.59c0.22,0,0.42,0.14,0.51,0.32H3.86z M7.33,3.92c0,0.09-0.07,0.16-0.16,0.16h-4
			c-0.09,0-0.16-0.07-0.16-0.16c0-0.09,0.07-0.16,0.16-0.16h4C7.25,3.76,7.33,3.84,7.33,3.92z M2.96,5.15L2.96,5.15V5.13
			c0-0.09,0.07-0.16,0.16-0.16h4.1c0.09,0,0.16,0.07,0.16,0.16L7.4,5.37c0.15,1.07,0.52,1.73,0.84,2.3c0.37,0.65,0.68,1.2,0.68,2.26
			c0,2.07-1.69,3.76-3.76,3.76S1.4,12.01,1.4,9.94c0-1.06,0.32-1.61,0.68-2.26C2.43,7.06,2.83,6.36,2.96,5.15z M7.17,2.89h-4
			c-0.09,0-0.16-0.07-0.16-0.16s0.07-0.16,0.16-0.16h4c0.09,0,0.16,0.07,0.16,0.16S7.25,2.89,7.17,2.89z"/>
	</g>
</g>
</svg>
