<svg xmlns="http://www.w3.org/2000/svg" width="10.32" height="15.09" viewBox="0 0 10.32 15.09" preserveAspectRatio="xMinYMax"><path fill="#5B6479" d="M5.17 15.09c2.84 0 5.15-2.31 5.15-5.15 0-1.42-.46-2.24-.87-2.94-.34-.58-.6-1.04-.7-1.94-.01-.2-.06-.39-.14-.57.06-.17.1-.36.1-.55 0-.21-.04-.41-.12-.6.07-.19.12-.39.12-.6 0-.61-.36-1.16-.89-1.4C7.56.55 6.82 0 5.96 0h-1.6c-.84 0-1.6.55-1.86 1.34-.55.25-.9.81-.9 1.41 0 .21.04.41.12.6-.07.18-.12.39-.12.59 0 .19.04.37.1.55-.09.17-.13.37-.13.57-.1.89-.36 1.35-.7 1.94C.46 7.71 0 8.52 0 9.95c.01 2.83 2.32 5.14 5.17 5.14zM3.86 1.69c.09-.19.29-.32.51-.32h1.59c.22 0 .42.14.51.32H3.86zm3.47 2.23c0 .09-.07.16-.16.16h-4c-.09 0-.16-.07-.16-.16s.07-.16.16-.16h4c.08 0 .16.08.16.16zM2.96 5.15v-.02c0-.09.07-.16.16-.16h4.1c.09 0 .16.07.16.16l.02.24c.15 1.07.52 1.73.84 2.3.37.65.68 1.2.68 2.26 0 2.07-1.69 3.76-3.76 3.76S1.4 12.01 1.4 9.94c0-1.06.32-1.61.68-2.26.35-.62.75-1.32.88-2.53zm4.21-2.26h-4c-.09 0-.16-.07-.16-.16s.07-.16.16-.16h4c.09 0 .16.07.16.16s-.08.16-.16.16z"/></svg>