<?xml version="1.0" encoding="utf-8"?>
<!-- Generator: Adobe Illustrator 18.1.0, SVG Export Plug-In . SVG Version: 6.00 Build 0)  -->
<svg version="1.1" id="Layer_1" xmlns="http://www.w3.org/2000/svg" xmlns:xlink="http://www.w3.org/1999/xlink" x="0px" y="0px"
	 width="19.07px" height="10.86px" viewBox="0 0 19.07 10.86" enable-background="new 0 0 19.07 10.86" xml:space="preserve">
<path fill="#F5F5F5" d="M18.01,0H2.12C1.53,0,0.96,0.47,0.85,1.04L0.21,3.36C0.1,3.93,0,4.87,0,5.45v2.43
	c0,0.58,0.48,1.06,1.06,1.06h1.08c0-0.04,0.01-0.09,0.01-0.13c0.07,1.14,1,2.04,2.15,2.04c1.11,0,2.01-0.84,2.14-1.91h6.09
	c0-0.01,0-0.03,0-0.04c0.11,1.07,1,1.91,2.1,1.91c1.09,0,1.97-0.82,2.1-1.87h1.27c0.58,0,1.06-0.48,1.06-1.06V1.06
	C19.07,0.48,18.59,0,18.01,0z M1.56,4.34c-0.31-0.08-0.5-0.37-0.43-0.71l0.54-2.15c0.08-0.41,0.47-0.74,0.89-0.74h1.98l0,3.62H2.2
	L1.56,4.34z M4.3,9.63c-0.52,0-0.94-0.42-0.94-0.94c0-0.52,0.42-0.94,0.94-0.94c0.52,0,0.94,0.42,0.94,0.94
	C5.24,9.21,4.82,9.63,4.3,9.63z M9.18,4.36H5.33V0.74h3.85V4.36z M9.9,0.74h3.85v3.62H9.9V0.74z M14.64,9.61
	c-0.51,0-0.92-0.41-0.92-0.92c0-0.51,0.41-0.92,0.92-0.92c0.51,0,0.92,0.41,0.92,0.92C15.56,9.2,15.15,9.61,14.64,9.61z M18.25,3.61
	c0,0.41-0.34,0.75-0.75,0.75h-3V0.74h3c0.41,0,0.75,0.34,0.75,0.75V3.61z"/>
</svg>
