<svg xmlns="http://www.w3.org/2000/svg" width="19.07" height="10.86" viewBox="0 0 19.07 10.86" preserveAspectRatio="xMinYMax"><path fill="#F5F5F5" d="M18.01 0H2.12C1.53 0 .96.47.85 1.04L.21 3.36C.1 3.93 0 4.87 0 5.45v2.43c0 .58.48 1.06 1.06 1.06h1.08c0-.04.01-.09.01-.13.07 1.14 1 2.04 2.15 2.04 1.11 0 2.01-.84 2.14-1.91h6.09V8.9c.11 1.07 1 1.91 2.1 1.91 1.09 0 1.97-.82 2.1-1.87H18c.58 0 1.06-.48 1.06-1.06V1.06C19.07.48 18.59 0 18.01 0zM1.56 4.34c-.31-.08-.5-.37-.43-.71l.54-2.15c.08-.41.47-.74.89-.74h1.98v3.62H2.2l-.64-.02zM4.3 9.63c-.52 0-.94-.42-.94-.94s.42-.94.94-.94.94.42.94.94-.42.94-.94.94zm4.88-5.27H5.33V.74h3.85v3.62zM9.9.74h3.85v3.62H9.9V.74zm4.74 8.87c-.51 0-.92-.41-.92-.92s.41-.92.92-.92.92.41.92.92-.41.92-.92.92zm3.61-6c0 .41-.34.75-.75.75h-3V.74h3c.41 0 .75.34.75.75v2.12z"/></svg>