<svg xmlns="http://www.w3.org/2000/svg" viewBox="0 0 15.72 8.52" preserveAspectRatio="xMinYMax"><path fill="#F5F5F5" d="M0 4.33v1.85c0 .22.42.7.73.92.24.82.99 1.42 1.89 1.42.85 0 1.58-.55 1.85-1.31h6.12c.27.76 1 1.31 1.85 1.31s1.58-.55 1.85-1.31h.44c.27 0 .98-.75.98-1.03V3.92c0-.53-.26-.86-2.02-1.23-.27-.48-1.46-1.89-1.67-2.25-.21-.36-.44-.44-.86-.44H6.95c-.16 0-.44.04-.88.44-.61.57-1.55 1.47-2.82 2.67C1.03 3.54 0 3.83 0 4.33zm12.34-1.06H9.31V1.04h1.56c.32 0 .44.08.62.34.14.2.74.97.99 1.32.3.4.16.57-.14.57zm-.88 3.28c0-.54.44-.98.98-.98s.98.44.98.98-.44.98-.98.98-.98-.44-.98-.98zM4.82 3.27c-.26 0-.42-.07-.07-.41.39-.38 1.4-1.33 1.65-1.55.18-.16.45-.27.7-.27h1.92v2.24c-2.01-.01-4.2-.01-4.2-.01zM1.64 6.55c0-.54.44-.98.98-.98s.98.44.98.98-.44.98-.98.98-.98-.44-.98-.98z"/></svg>