<svg xmlns="http://www.w3.org/2000/svg" viewBox="0 0 20.01 9.59" preserveAspectRatio="xMinYMax"><path fill="#F5F5F5" d="M19.17 0H.83C.37 0 0 .33 0 .74v8.12c0 .41.37.74.83.74h18.34c.46 0 .83-.33.83-.74V.74c.01-.41-.37-.74-.83-.74zM7.5 1.84c0-.2.19-.37.42-.37h4.17c.23 0 .42.16.42.37v2.95c0 .2-.19.37-.42.37H7.92c-.23 0-.42-.16-.42-.37V1.84zM1.66 4.79V1.84c0-.2.19-.37.42-.37h3.33c.23 0 .42.16.42.37v2.95c0 .2-.19.37-.42.37H2.08c-.23 0-.42-.16-.42-.37zm16.68 0c0 .2-.19.37-.42.37h-3.33c-.23 0-.42-.16-.42-.37V1.84c0-.2.19-.37.42-.37h3.33c.23 0 .42.16.42.37v2.95z"/></svg>