<?xml version="1.0" encoding="utf-8"?>
<!-- Generator: Adobe Illustrator 18.1.0, SVG Export Plug-In . SVG Version: 6.00 Build 0)  -->
<svg version="1.1" id="Layer_1" xmlns="http://www.w3.org/2000/svg" xmlns:xlink="http://www.w3.org/1999/xlink" x="0px" y="0px"
	 viewBox="0 0 20.01 9.59" enable-background="new 0 0 20.01 9.59" xml:space="preserve">
<path fill="#F5F5F5" d="M19.17,0H0.83C0.37,0,0,0.33,0,0.74v8.12c0,0.41,0.37,0.74,0.83,0.74h18.34c0.46,0,0.83-0.33,0.83-0.74V0.74
	C20.01,0.33,19.63,0,19.17,0z M7.5,1.84c0-0.2,0.19-0.37,0.42-0.37h4.17c0.23,0,0.42,0.16,0.42,0.37v2.95c0,0.2-0.19,0.37-0.42,0.37
	H7.92C7.69,5.16,7.5,5,7.5,4.79V1.84L7.5,1.84z M1.66,4.79V1.84c0-0.2,0.19-0.37,0.42-0.37h3.33c0.23,0,0.42,0.16,0.42,0.37v2.95
	c0,0.2-0.19,0.37-0.42,0.37H2.08C1.85,5.16,1.66,5,1.66,4.79z M18.34,4.79c0,0.2-0.19,0.37-0.42,0.37h-3.33
	c-0.23,0-0.42-0.16-0.42-0.37V1.84c0-0.2,0.19-0.37,0.42-0.37h3.33c0.23,0,0.42,0.16,0.42,0.37V4.79z"/>
</svg>
