<?xml version="1.0" encoding="utf-8"?>
<!-- Generator: Adobe Illustrator 18.1.0, SVG Export Plug-In . SVG Version: 6.00 Build 0)  -->
<svg version="1.1" xmlns="http://www.w3.org/2000/svg" xmlns:xlink="http://www.w3.org/1999/xlink" x="0px" y="0px" width="39.18px"
	 height="34.76px" viewBox="0 0 39.18 34.76" enable-background="new 0 0 39.18 34.76" xml:space="preserve" preserveAspectRatio="xMinYMax">
<g id="Layer_1">
	<path fill="#28A197" d="M23.47,6.14c0-0.06-0.02-0.12-0.07-0.17c-0.04-0.04-0.1-0.07-0.16-0.07h-7.02c-0.06,0-0.12,0.02-0.16,0.07
		c-0.04,0.04-0.07,0.1-0.07,0.17c0.04,4.38-0.38,8.58-1.23,12.53c-1.33-5.74-1.98-11.9-1.92-18.34c0-0.08-0.03-0.17-0.09-0.23
		S12.6,0,12.51,0H2.76C2.68,0,2.59,0.03,2.53,0.1C2.47,0.16,2.44,0.24,2.44,0.33c0.06,7.2-0.76,14.05-2.43,20.38
		c-0.02,0.1,0,0.2,0.06,0.28s0.15,0.13,0.26,0.13l24.68,0l0,0c0.13,0,0.23-0.1,0.23-0.23c0-0.03,0-0.06-0.01-0.08
		C24.01,16.26,23.43,11.32,23.47,6.14z"/>
</g>
<g id="Layer_3">
	<path fill="#ABD7D3" d="M24.09,31.96v0.31c0,1.38,1.12,2.49,2.49,2.49h10.11c1.38,0,2.49-1.12,2.49-2.49v-2.38
		c0-1.38-1.12-2.49-2.49-2.49H26.58c-1.38,0-2.49,1.12-2.49,2.49v0.31H8.68V15.9c0.89-0.35,1.52-1.21,1.52-2.22
		c0-1.32-1.07-2.4-2.4-2.4s-2.4,1.07-2.4,2.4c0,1.01,0.63,1.87,1.52,2.22v14.31v1.75h1.75"/>
</g>
</svg>
