<svg xmlns="http://www.w3.org/2000/svg" width="39.18" height="34.76" viewBox="0 0 39.18 34.76" preserveAspectRatio="xMinYMax"><path fill="#28A197" d="M23.47 6.14c0-.06-.02-.12-.07-.17-.04-.04-.1-.07-.16-.07h-7.02c-.06 0-.12.02-.16.07-.04.04-.07.1-.07.17.04 4.38-.38 8.58-1.23 12.53-1.33-5.74-1.98-11.9-1.92-18.34 0-.08-.03-.17-.09-.23s-.15-.1-.24-.1H2.76c-.08 0-.17.03-.23.1-.06.06-.09.14-.09.23.06 7.2-.76 14.05-2.43 20.38-.02.1 0 .2.06.28s.15.13.26.13h24.68c.13 0 .23-.1.23-.23 0-.03 0-.06-.01-.08-1.22-4.55-1.8-9.49-1.76-14.67z"/><path fill="#ABD7D3" d="M24.09 31.96v.31c0 1.38 1.12 2.49 2.49 2.49h10.11c1.38 0 2.49-1.12 2.49-2.49v-2.38c0-1.38-1.12-2.49-2.49-2.49H26.58c-1.38 0-2.49 1.12-2.49 2.49v.31H8.68V15.9c.89-.35 1.52-1.21 1.52-2.22 0-1.32-1.07-2.4-2.4-2.4s-2.4 1.07-2.4 2.4c0 1.01.63 1.87 1.52 2.22V31.96h1.75"/></svg>