<?xml version="1.0" encoding="utf-8"?>
<!-- Generator: Adobe Illustrator 18.1.0, SVG Export Plug-In . SVG Version: 6.00 Build 0)  -->
<svg version="1.1" xmlns="http://www.w3.org/2000/svg" xmlns:xlink="http://www.w3.org/1999/xlink" x="0px" y="0px" width="25.24px"
	 height="21.11px" viewBox="-407 287.17 25.24 21.11" enable-background="new -407 287.17 25.24 21.11" xml:space="preserve" preserveAspectRatio="xMinYMax">
<g id="Layer_1">
	<g id="Layer_1_1_">
		<path fill="#28A197" d="M-383.53,293.31c0-0.06-0.02-0.12-0.07-0.17c-0.04-0.04-0.1-0.07-0.16-0.07h-7.02
			c-0.06,0-0.12,0.02-0.16,0.07c-0.04,0.04-0.07,0.1-0.07,0.17c0.04,4.38-0.38,8.58-1.23,12.53c-1.33-5.74-1.98-11.9-1.92-18.34
			c0-0.08-0.03-0.17-0.09-0.23s-0.15-0.1-0.24-0.1h-9.75c-0.08,0-0.17,0.03-0.23,0.1c-0.06,0.06-0.09,0.14-0.09,0.23
			c0.06,7.2-0.76,14.05-2.43,20.38c-0.02,0.1,0,0.2,0.06,0.28c0.06,0.08,0.15,0.13,0.26,0.13h24.68l0,0c0.13,0,0.23-0.1,0.23-0.23
			c0-0.03,0-0.06-0.01-0.08C-382.99,303.43-383.57,298.49-383.53,293.31z"/>
	</g>
	<g id="Layer_3">
	</g>
	<g id="Tree_Leaf">
	</g>
</g>
<g id="Mine_Cart">
	<g>
		<g>
			<path fill="#AAD7D3" d="M-395.91,296.25h-6.76c-0.09,0-0.17,0.08-0.17,0.17v0.82c0,0.09,0.08,0.17,0.17,0.17h0.18l0.52,2.79
				c-0.31,0.19-0.52,0.53-0.52,0.93c0,0.6,0.49,1.08,1.08,1.08s1.08-0.49,1.08-1.08c0-0.03,0-0.06,0-0.09h2.1c0,0.03,0,0.06,0,0.09
				c0,0.6,0.49,1.08,1.08,1.08s1.08-0.49,1.08-1.08c0-0.39-0.21-0.74-0.52-0.93l0.52-2.79h0.18c0.09,0,0.17-0.08,0.17-0.17v-0.82
				C-395.74,296.33-395.81,296.25-395.91,296.25z M-401.42,301.53c-0.22,0-0.41-0.18-0.41-0.41s0.18-0.41,0.41-0.41
				c0.22,0,0.41,0.18,0.41,0.41C-401.01,301.35-401.19,301.53-401.42,301.53z M-397.16,301.53c-0.22,0-0.41-0.18-0.41-0.41
				s0.18-0.41,0.41-0.41c0.22,0,0.41,0.18,0.41,0.41C-396.76,301.35-396.94,301.53-397.16,301.53z"/>
			<path fill="#AAD7D3" d="M-396.79,295.05c0-0.01-0.01-0.01-0.02-0.02l-0.41-0.26c-0.02-0.01-0.04-0.01-0.06,0.01l-0.09,0.1
				l-0.09-0.3c0-0.01-0.01-0.02-0.02-0.02l-0.51-0.39c-0.01-0.01-0.03-0.01-0.05-0.01l-0.47,0.2l-0.54,0.09l-0.46-0.23
				c0,0,0,0-0.01,0l-0.38-0.12c-0.01,0-0.03,0-0.04,0.01l-0.34,0.25l-0.44-0.01c-0.01,0-0.02,0-0.03,0.01l-0.47,0.33
				c-0.01,0.01-0.02,0.02-0.02,0.04v0.15l-0.31,0.26c0,0,0,0,0,0l-0.64,0.66l5.77,0L-396.79,295.05z"/>
		</g>
	</g>
</g>
</svg>
