<svg xmlns="http://www.w3.org/2000/svg" width="25.24" height="21.11" viewBox="-407 287.17 25.24 21.11" preserveAspectRatio="xMinYMax"><path fill="#28A197" d="M-383.53 293.31c0-.06-.02-.12-.07-.17-.04-.04-.1-.07-.16-.07h-7.02c-.06 0-.12.02-.16.07-.04.04-.07.1-.07.17.04 4.38-.38 8.58-1.23 12.53-1.33-5.74-1.98-11.9-1.92-18.34 0-.08-.03-.17-.09-.23s-.15-.1-.24-.1h-9.75c-.08 0-.17.03-.23.1-.06.06-.09.14-.09.23.06 7.2-.76 14.05-2.43 20.38-.02.1 0 .2.06.28.06.08.15.13.26.13h24.68c.13 0 .23-.1.23-.23 0-.03 0-.06-.01-.08-1.22-4.55-1.8-9.49-1.76-14.67z"/><path d="M-395.91 296.25h-6.76c-.09 0-.17.08-.17.17v.82c0 .09.08.17.17.17h.18l.52 2.79c-.31.19-.52.53-.52.93 0 .6.49 1.08 1.08 1.08s1.08-.49 1.08-1.08v-.09h2.1v.09c0 .6.49 1.08 1.08 1.08s1.08-.49 1.08-1.08c0-.39-.21-.74-.52-.93l.52-2.79h.18c.09 0 .17-.08.17-.17v-.82c-.02-.09-.09-.17-.19-.17zm-5.51 5.28c-.22 0-.41-.18-.41-.41s.18-.41.41-.41c.22 0 .41.18.41.41 0 .23-.18.41-.41.41zm4.26 0c-.22 0-.41-.18-.41-.41s.18-.41.41-.41c.22 0 .41.18.41.41-.01.23-.19.41-.41.41zm.37-6.48c0-.01-.01-.01-.02-.02l-.41-.26c-.02-.01-.04-.01-.06.01l-.09.1-.09-.3c0-.01-.01-.02-.02-.02l-.51-.39c-.01-.01-.03-.01-.05-.01l-.47.2-.54.09-.46-.23h-.01l-.38-.12c-.01 0-.03 0-.04.01l-.34.25-.44-.01c-.01 0-.02 0-.03.01l-.47.33c-.01.01-.02.02-.02.04v.15l-.31.26-.64.66h5.77l-.37-.75z" fill="#AAD7D3"/></svg>