<svg xmlns="http://www.w3.org/2000/svg" viewBox="0 0 6.07 9.72" preserveAspectRatio="xMinYMax"><path fill="#F5F5F5" d="M.63 6.28h1.98v1.98H.63zm0-5.65h1.98v1.98H.63zm2.83 5.65h1.98v1.98H3.46zM.63 3.45h1.98v1.98H.63zm2.83 0h1.98v1.98H3.46zm0-2.82h1.98v1.98H3.46z"/><path fill="#28A197" d="M3.25 0H0v8.88h6.06V0H3.25zm-.64 2.61H.63V.63h1.98v1.98zm0 2.82H.63V3.45h1.98v1.98zm0 2.83H.63V6.28h1.98v1.98zm2.83-5.65H3.46V.63h1.98v1.98zm0 2.82H3.46V3.45h1.98v1.98zm0 2.83H3.46V6.28h1.98v1.98z"/><path fill="#28A197" d="M.63 8.26h4.81v1.46H.63z"/></svg>