<svg xmlns="http://www.w3.org/2000/svg" width="7.77" height="3.45" viewBox="0 0 7.77 3.45" preserveAspectRatio="xMinYMax"><path fill="#28A197" d="M7.77 3.45H0V.56C0 .25.25 0 .56 0h6.66c.31 0 .56.25.56.56l-.01 2.89z"/><circle fill="#F5F5F5" cx="2" cy="1.86" r="1.31"/><circle fill="#F5F5F5" cx="5.74" cy="1.86" r="1.31"/><path fill="#28A197" d="M2.94 2.25l-.57-.33v-.03c0-.15-.09-.29-.23-.34v-.7c0-.08-.07-.15-.15-.15s-.14.08-.14.16v.7c-.13.06-.23.19-.23.34v.03l-.57.32c-.07.04-.09.13-.05.2.02.05.07.08.12.08.03 0 .05 0 .07-.02l.56-.32c.07.04.15.08.24.08s.17-.03.23-.09l.56.32c.02.02.05.03.07.03.05 0 .1-.03.13-.07.05-.08.03-.17-.04-.21zM6.68 2.25l-.57-.33v-.03c0-.15-.09-.29-.23-.34v-.7c0-.08-.07-.15-.15-.15-.08 0-.15.07-.15.15v.7c-.12.07-.22.2-.22.35v.03l-.57.32c-.07.04-.1.13-.05.2.03.05.08.08.13.08.03 0 .05 0 .07-.02l.56-.33c.06.05.14.09.23.09s.17-.03.23-.09l.56.32c.03.01.05.02.07.02.05 0 .1-.03.13-.07.05-.07.03-.16-.04-.2z"/></svg>