<svg xmlns="http://www.w3.org/2000/svg" viewBox="0 0 7.8 3.5"><path fill="#5A6377" d="M7.8 3.5H0V.6C0 .2.2 0 .6 0h6.7c.3 0 .6.2.6.6l-.1 2.9z"/><circle fill="#F5F6F6" cx="2" cy="1.9" r="1.3"/><circle fill="#F5F6F6" cx="5.7" cy="1.9" r="1.3"/><path fill="#5A6377" d="M2.9 2.2l-.5-.3c0-.1-.1-.3-.2-.3V.8c0-.1-.1-.2-.1-.2s-.2.2-.2.3v.7c-.2 0-.3.2-.3.3l-.6.3v.3l.1.1h.1l.6-.3c.1 0 .1.1.2.1s.2 0 .2-.1l.6.3h.1s.1 0 .1-.1 0-.2-.1-.3zM6.7 2.2l-.6-.3c0-.1-.1-.3-.2-.3V.8c0-.1-.1-.2-.2-.2s-.1.2-.1.2v.7c-.1.1-.2.3-.2.4l-.6.3c-.1 0-.1.1-.1.2l.1.1h.1l.6-.3c.1 0 .1.1.2.1s.2 0 .2-.1l.6.3h.1c.1 0 .1 0 .1-.1.1 0 .1-.1 0-.2z"/></svg>