<?xml version="1.0" encoding="utf-8"?>
<!-- Generator: Adobe Illustrator 18.1.0, SVG Export Plug-In . SVG Version: 6.00 Build 0)  -->
<svg version="1.1" id="Layer_1" xmlns="http://www.w3.org/2000/svg" xmlns:xlink="http://www.w3.org/1999/xlink" x="0px" y="0px"
	 viewBox="0 0 20.85 13.5" enable-background="new 0 0 20.85 13.5" xml:space="preserve" preserveAspectRatio="xMinYMax">
<path fill="#28A197" d="M0.36,0.84h1.17C1.54,0.38,1.93,0,2.4,0h2.09c0.48,0,0.85,0.38,0.87,0.84h12.52c1.64,0,2.96,1.32,2.96,2.96
	v5.98v0.06v2.92c0,0.41-0.33,0.74-0.74,0.74s-0.74-0.33-0.74-0.74v-1.3h-0.77v1.3c0,0.41-0.33,0.74-0.74,0.74
	c-0.41,0-0.74-0.33-0.74-0.74v-1.3h-0.63c-1.03,0-1.9-0.68-2.18-1.62h-4.24v2.92c0,0.41-0.33,0.74-0.74,0.74
	c-0.41,0-0.74-0.33-0.74-0.74V9.84H7.86v2.92c0,0.41-0.33,0.74-0.74,0.74s-0.74-0.33-0.74-0.74V9.84H6.25c-0.99,0-1.8-0.8-1.8-1.8
	l-0.42-2H2.85c-0.44,0-0.82-0.34-0.86-0.78L1.67,2.22l-1.4-0.65C0.11,1.53,0,1.38,0,1.22C-0.01,1,0.16,0.84,0.36,0.84z"/>
</svg>
