<svg xmlns="http://www.w3.org/2000/svg" viewBox="0 0 20.85 13.5" preserveAspectRatio="xMinYMax"><path fill="#28A197" d="M.36.84h1.17c.01-.46.4-.84.87-.84h2.09c.48 0 .85.38.87.84h12.52c1.64 0 2.96 1.32 2.96 2.96v8.96c0 .41-.33.74-.74.74s-.74-.33-.74-.74v-1.3h-.77v1.3c0 .41-.33.74-.74.74s-.74-.33-.74-.74v-1.3h-.63c-1.03 0-1.9-.68-2.18-1.62h-4.24v2.92c0 .41-.33.74-.74.74s-.74-.33-.74-.74V9.84h-.72v2.92c0 .41-.33.74-.74.74s-.74-.33-.74-.74V9.84h-.13c-.99 0-1.8-.8-1.8-1.8l-.42-2H2.85c-.44 0-.82-.34-.86-.78l-.32-3.04-1.4-.65C.11 1.53 0 1.38 0 1.22-.01 1 .16.84.36.84z"/></svg>