<?xml version="1.0" encoding="utf-8"?>
<!-- Generator: Adobe Illustrator 18.1.0, SVG Export Plug-In . SVG Version: 6.00 Build 0)  -->
<svg version="1.1" id="Layer_1" xmlns="http://www.w3.org/2000/svg" xmlns:xlink="http://www.w3.org/1999/xlink" x="0px" y="0px"
	 viewBox="0 0 20.85 4.91" enable-background="new 0 0 20.85 4.91" xml:space="preserve">
<path fill="#D63C82" d="M20.72,1.64c-0.3-0.86-1.07-1.51-2.03-1.63c-0.19-0.02-0.38-0.02-0.56,0L7.14,1.24L2.95,1.7L0.36,1.99
	c-0.3,0.03-0.41,0.32-0.33,0.55C0.07,2.67,0.18,2.78,0.36,2.8l2.69,0.32l3.97,0.47l11.08,1.3c1.35,0.16,2.57-0.8,2.73-2.15
	C20.88,2.36,20.84,1.98,20.72,1.64z M18.71,3.52c-0.63,0.22-1.31-0.11-1.53-0.73c-0.22-0.63,0.11-1.31,0.74-1.53
	c0.62-0.22,1.31,0.11,1.53,0.74C19.67,2.62,19.34,3.3,18.71,3.52z"/>
</svg>
