<?xml version="1.0" encoding="utf-8"?>
<!-- Generator: Adobe Illustrator 18.1.0, SVG Export Plug-In . SVG Version: 6.00 Build 0)  -->
<svg version="1.1" id="Layer_1" xmlns="http://www.w3.org/2000/svg" xmlns:xlink="http://www.w3.org/1999/xlink" x="0px" y="0px"
	 viewBox="0 0 3.49 5.63" enable-background="new 0 0 3.49 5.63" xml:space="preserve">
<path fill="#D63C82" d="M3.48,2.3c-0.02-0.03-0.06-0.05-0.1-0.04L2.26,2.51l0.34-2.4c0-0.04-0.02-0.08-0.06-0.1
	C2.5-0.01,2.46,0,2.43,0.04L0.02,3.32C0,3.35-0.01,3.4,0.01,3.43s0.06,0.05,0.1,0.04l1.22-0.23L0.97,5.52
	C0.97,5.56,0.99,5.6,1.03,5.62c0.01,0,0.03,0.01,0.04,0.01c0.03,0,0.06-0.01,0.08-0.04L3.47,2.4C3.5,2.38,3.5,2.34,3.48,2.3z"/>
</svg>
