<svg xmlns="http://www.w3.org/2000/svg" viewBox="0 0 3 5.15" preserveAspectRatio="xMinYMax"><path fill="#D53B81" d="M.34 4.13c.1.15.22.28.38.41.16.13.31.24.47.34s.34.19.53.28l-.01-.01.01.01c-.15-.29-.22-.54-.22-.76 0-.11.03-.22.08-.33.06-.1.13-.19.22-.27.09-.08.19-.16.29-.24l.32-.26c.11-.1.2-.19.29-.29.09-.11.16-.23.21-.38.06-.14.09-.31.09-.48 0-.22-.03-.43-.09-.62s-.14-.36-.24-.5c-.1-.15-.22-.28-.38-.41-.16-.13-.31-.24-.47-.34S1.48.1 1.29 0l.01.01L1.28 0c.15.29.22.54.22.75 0 .11-.03.22-.08.33-.06.1-.13.19-.22.27-.09.08-.18.17-.29.24-.11.08-.21.17-.32.26-.11.1-.2.19-.29.29-.09.1-.16.23-.21.38C.03 2.67 0 2.83 0 3c0 .22.03.43.09.62.07.2.15.36.25.51z"/></svg>