<svg xmlns="http://www.w3.org/2000/svg" viewBox="0 0 24.13 27.85" preserveAspectRatio="xMinYMax"><path fill="#5B6479" d="M0 27.85h24.13V0H4.85C2.17 0 0 2.17 0 4.85v23z"/><g fill="#F5F5F5"><path d="M17.47 9.96c-.31-1.2-1.53-1.93-2.73-1.62-.91.23-2.58 1.25-3.2 2.26-.03-.01-.05-.02-.08-.02 0-1.18-.87-2.92-1.52-3.59-.86-.91-2.28-.95-3.18-.09-.9.86-.93 2.28-.07 3.18.61.63 2.13 1.5 3.29 1.66.01.12.02.23.06.34-.93.72-1.8 2.26-2 3.11-.28 1.21.48 2.42 1.69 2.69 1.21.28 2.42-.48 2.69-1.69.2-.86.08-2.63-.44-3.68.06-.06.1-.12.15-.18 1.06.5 2.85.58 3.7.36 1.22-.31 1.95-1.53 1.64-2.73zm-6.29 2.84c-.6 0-1.09-.49-1.09-1.09 0-.6.49-1.09 1.09-1.09.6 0 1.09.49 1.09 1.09 0 .6-.49 1.09-1.09 1.09z"/><path d="M11.18 11.26c-.24 0-.44.2-.44.44s.2.44.44.44.44-.2.44-.44-.2-.44-.44-.44z"/></g></svg>