<?xml version="1.0" encoding="utf-8"?>
<!-- Generator: Adobe Illustrator 18.1.0, SVG Export Plug-In . SVG Version: 6.00 Build 0)  -->
<svg version="1.1" id="Layer_1" xmlns="http://www.w3.org/2000/svg" xmlns:xlink="http://www.w3.org/1999/xlink" x="0px" y="0px"
	 viewBox="0 0 40.66 59.57" enable-background="new 0 0 40.66 59.57" xml:space="preserve">
<path fill="#CDE0D7" d="M18.92,59.57h2.82h18.92V40.66v-2.82v-16.1v-2.82V0L21.74,0l-2.82,0L0,0l0,18.92l0,2.82l0,16.1l0,2.82
	l0,18.92H18.92z M23.15,42.07h13.28v13.28H23.15V42.07z M23.15,23.15h13.28v13.28H23.15V23.15z M23.15,4.23h13.28v13.28H23.15V4.23z
	 M4.23,42.07h13.28v13.28H4.23V42.07z M4.23,23.15h13.28v13.28H4.23V23.15z M4.23,4.23h13.28v13.28H4.23V4.23z"/>
</svg>
