<?xml version="1.0" encoding="utf-8"?>
<!-- Generator: Adobe Illustrator 18.1.0, SVG Export Plug-In . SVG Version: 6.00 Build 0)  -->
<svg version="1.1" id="Layer_1" xmlns="http://www.w3.org/2000/svg" xmlns:xlink="http://www.w3.org/1999/xlink" x="0px" y="0px"
	 viewBox="0 0 24.13 27.85" enable-background="new 0 0 24.13 27.85" xml:space="preserve">
<path fill="#5B6479" d="M0,27.85h24.13V0H4.85C2.17,0,0,2.17,0,4.85V27.85z"/>
<g>
	<path fill="#F5F5F5" d="M17.47,9.96c-0.31-1.2-1.53-1.93-2.73-1.62c-0.91,0.23-2.58,1.25-3.2,2.26c-0.03-0.01-0.05-0.02-0.08-0.02
		c0-1.18-0.87-2.92-1.52-3.59C9.08,6.08,7.66,6.04,6.76,6.9c-0.9,0.86-0.93,2.28-0.07,3.18c0.61,0.63,2.13,1.5,3.29,1.66
		c0.01,0.12,0.02,0.23,0.06,0.34c-0.93,0.72-1.8,2.26-2,3.11c-0.28,1.21,0.48,2.42,1.69,2.69c1.21,0.28,2.42-0.48,2.69-1.69
		c0.2-0.86,0.08-2.63-0.44-3.68c0.06-0.06,0.1-0.12,0.15-0.18c1.06,0.5,2.85,0.58,3.7,0.36C17.05,12.38,17.78,11.16,17.47,9.96z
		 M11.18,12.8c-0.6,0-1.09-0.49-1.09-1.09c0-0.6,0.49-1.09,1.09-1.09c0.6,0,1.09,0.49,1.09,1.09C12.27,12.31,11.78,12.8,11.18,12.8z
		"/>
	<path fill="#F5F5F5" d="M11.18,11.26c-0.24,0-0.44,0.2-0.44,0.44c0,0.24,0.2,0.44,0.44,0.44c0.24,0,0.44-0.2,0.44-0.44
		C11.62,11.46,11.42,11.26,11.18,11.26z"/>
</g>
</svg>
