<?xml version="1.0" encoding="utf-8"?>
<!-- Generator: Adobe Illustrator 18.1.0, SVG Export Plug-In . SVG Version: 6.00 Build 0)  -->
<svg version="1.1" xmlns="http://www.w3.org/2000/svg" xmlns:xlink="http://www.w3.org/1999/xlink" x="0px" y="0px" width="495px"
	 height="495px" viewBox="163 63.28 495 495" enable-background="new 163 63.28 495 495" xml:space="preserve">
<g id="Layer_1">
	<circle fill="#D63C82" cx="410.5" cy="310.78" r="78.5"/>
	<path fill="#D63C82" d="M623.62,184.77c5.88-7.79,9.37-17.48,9.37-27.99c0-25.68-20.82-46.49-46.49-46.49
		c-8.32,0-16.12,2.19-22.87,6.02c-43.47-34.37-96.86-53.03-153.13-53.03c-66.11,0-128.26,25.74-175.01,72.49S163,244.67,163,310.78
		s25.74,128.26,72.49,175.01c46.75,46.75,108.9,72.49,175.01,72.49c66.11,0,128.26-25.74,175.01-72.49
		C632.26,439.04,658,376.89,658,310.78C658,265.73,646.03,222.52,623.62,184.77z M564.3,464.58c-41.08,41.08-95.7,63.7-153.8,63.7
		c-58.1,0-112.72-22.62-153.8-63.7c-41.08-41.08-63.7-95.7-63.7-153.8c0-58.1,22.62-112.72,63.7-153.8
		c41.08-41.08,95.7-63.7,153.8-63.7c48.83,0,95.19,15.99,133.13,45.47c-2.33,5.54-3.63,11.64-3.63,18.03
		c0,25.68,20.82,46.49,46.49,46.49c4.23,0,8.33-0.58,12.22-1.63c19.09,32.8,29.28,70.18,29.28,109.14
		C628,368.88,605.38,423.5,564.3,464.58z"/>
</g>
<g id="Layer_2">
</g>
</svg>
