<svg xmlns="http://www.w3.org/2000/svg" width="495" height="495" viewBox="163 63.28 495 495" preserveAspectRatio="xMinYMax"><g fill="#D63C82"><circle cx="410.5" cy="310.78" r="78.5"/><path d="M623.62 184.77c5.88-7.79 9.37-17.48 9.37-27.99 0-25.68-20.82-46.49-46.49-46.49-8.32 0-16.12 2.19-22.87 6.02-43.47-34.37-96.86-53.03-153.13-53.03-66.11 0-128.26 25.74-175.01 72.49S163 244.67 163 310.78s25.74 128.26 72.49 175.01 108.9 72.49 175.01 72.49c66.11 0 128.26-25.74 175.01-72.49S658 376.89 658 310.78c0-45.05-11.97-88.26-34.38-126.01zM564.3 464.58c-41.08 41.08-95.7 63.7-153.8 63.7-58.1 0-112.72-22.62-153.8-63.7-41.08-41.08-63.7-95.7-63.7-153.8 0-58.1 22.62-112.72 63.7-153.8 41.08-41.08 95.7-63.7 153.8-63.7 48.83 0 95.19 15.99 133.13 45.47-2.33 5.54-3.63 11.64-3.63 18.03 0 25.68 20.82 46.49 46.49 46.49 4.23 0 8.33-.58 12.22-1.63 19.09 32.8 29.28 70.18 29.28 109.14.01 58.1-22.61 112.72-63.69 153.8z"/></g></svg>