<?xml version="1.0" encoding="utf-8"?>
<!-- Generator: Adobe Illustrator 18.1.0, SVG Export Plug-In . SVG Version: 6.00 Build 0)  -->
<svg version="1.1" id="Layer_1" xmlns="http://www.w3.org/2000/svg" xmlns:xlink="http://www.w3.org/1999/xlink" x="0px" y="0px"
	 width="31.27px" height="22.15px" viewBox="0 0 31.27 22.15" enable-background="new 0 0 31.27 22.15" xml:space="preserve">
<path fill="#28A197" d="M25.43,1.99c-1.02,0-1.99,0.27-2.82,0.73C21.85,1.12,20.24,0,18.35,0c-2.6,0-4.7,2.1-4.7,4.7
	c0,0.12,0.03,0.23,0.04,0.35c-1.24,0.62-2.24,1.65-2.81,2.92c-0.37-0.08-0.74-0.14-1.13-0.14c-1.93,0-3.59,1.09-4.46,2.67
	c-0.51-0.79-1.4-1.32-2.41-1.32C1.29,9.18,0,10.47,0,12.06v10.09h31.27V7.83C31.27,4.61,28.65,1.99,25.43,1.99z"/>
</svg>
