<svg xmlns="http://www.w3.org/2000/svg" viewBox="0 0 16.03 11.35" preserveAspectRatio="xMinYMax"><path fill="#F5F5F5" d="M0 5.48v3.43c0 .24.2.44.44.44h.9c0 1.11.9 2 2 2 1.11 0 2-.9 2-2h.9c.24 0 .44-.2.44-.44l-.01-7.13c0-.24-.2-.44-.44-.44H2.9c-.15 0-.28.07-.37.19L.07 5.23c-.04.07-.07.15-.07.24v.01zm1.2-.13l1.78-2.67h1.69v2.67H1.2zm1.14 4c0-.55.45-1 1-1s1 .45 1 1-.45 1-1 1-1-.45-1-1zm5-8.76l.01 8.18c0 .32.26.58.58.58h2.09c0 1.11.9 2 2 2 1.11 0 2-.9 2-2h1.42c.32 0 .58-.26.58-.58L16.01.59c0-.32-.26-.58-.58-.58H7.92C7.6 0 7.34.26 7.34.59zm3.68 8.75c0-.55.45-1 1-1s1 .45 1 1-.45 1-1 1c-.55.01-1-.44-1-1z"/></svg>