<svg xmlns="http://www.w3.org/2000/svg" width="25.24" height="21.11" viewBox="0 0 25.24 21.11" preserveAspectRatio="xMinYMax"><path fill="#28A197" d="M23.47 6.14c0-.06-.02-.12-.07-.17-.04-.04-.1-.07-.16-.07h-7.02c-.06 0-.12.02-.16.07-.04.04-.07.1-.07.17.04 4.38-.38 8.58-1.23 12.53-1.33-5.74-1.98-11.9-1.92-18.34 0-.08-.03-.17-.09-.23s-.15-.1-.24-.1H2.76c-.08 0-.17.03-.23.1-.06.06-.09.14-.09.23.06 7.2-.76 14.05-2.43 20.38-.02.1 0 .2.06.28s.15.13.26.13h24.68c.13 0 .23-.1.23-.23 0-.03 0-.06-.01-.08-1.22-4.55-1.8-9.49-1.76-14.67z"/><g fill="#AAD7D3"><path d="M8.12 12.04c-.14.05-.27.08-.41.08-.14 0-.27-.03-.41-.08-.09-.04-.2 0-.25.09-.38.65-.75 1.3-1.13 1.96-.06.09-.02.21.08.27.54.28 1.12.42 1.71.42.58 0 1.17-.14 1.71-.42.1-.05.14-.18.08-.28-.38-.65-.75-1.31-1.13-1.96-.05-.08-.16-.12-.25-.08zM5.92 7.88c-.06-.1-.19-.13-.28-.07-.02.01-.03.02-.04.03-.61.4-1.07.93-1.36 1.6-.12.28-.21.57-.26.88-.02.14-.04.29-.05.44-.01.11.09.21.2.21h2.26c.1 0 .18-.07.2-.17.05-.29.19-.53.42-.71.08-.06.1-.17.05-.26L5.92 7.88zM11.17 9.44c-.29-.67-.75-1.2-1.36-1.61-.02 0-.03-.01-.04-.02-.1-.06-.23-.03-.28.07L8.35 9.84c-.05.09-.03.2.05.26.23.19.37.42.42.71.02.1.1.17.2.17h2.26c.12 0 .21-.1.2-.21-.01-.15-.02-.3-.05-.44-.05-.31-.14-.6-.26-.89zM7.71 10.26c-.4 0-.72.32-.72.72 0 .39.32.72.71.72h.01c.4 0 .71-.32.72-.72 0-.4-.33-.72-.72-.72z"/></g></svg>