<?xml version="1.0" encoding="utf-8"?>
<!-- Generator: Adobe Illustrator 18.1.0, SVG Export Plug-In . SVG Version: 6.00 Build 0)  -->
<svg version="1.1" xmlns="http://www.w3.org/2000/svg" xmlns:xlink="http://www.w3.org/1999/xlink" x="0px" y="0px" width="25.24px"
	 height="21.11px" viewBox="0 0 25.24 21.11" enable-background="new 0 0 25.24 21.11" xml:space="preserve">
<g id="Layer_1">
	<path fill="#28A197" d="M23.47,6.14c0-0.06-0.02-0.12-0.07-0.17c-0.04-0.04-0.1-0.07-0.16-0.07h-7.02c-0.06,0-0.12,0.02-0.16,0.07
		c-0.04,0.04-0.07,0.1-0.07,0.17c0.04,4.38-0.38,8.58-1.23,12.53c-1.33-5.74-1.98-11.9-1.92-18.34c0-0.08-0.03-0.17-0.09-0.23
		S12.6,0,12.51,0H2.76C2.68,0,2.59,0.03,2.53,0.1C2.47,0.16,2.44,0.24,2.44,0.33c0.06,7.2-0.76,14.05-2.43,20.38
		c-0.02,0.1,0,0.2,0.06,0.28s0.15,0.13,0.26,0.13l24.68,0l0,0c0.13,0,0.23-0.1,0.23-0.23c0-0.03,0-0.06-0.01-0.08
		C24.01,16.26,23.43,11.32,23.47,6.14z"/>
</g>
<g id="Layer_3">
</g>
<g id="Tree_Leaf">
</g>
<g id="Nuclear_Reactor">
	<g>
		<g>
			<path fill="#AAD7D3" d="M8.12,12.04c-0.14,0.05-0.27,0.08-0.41,0.08c-0.14,0-0.27-0.03-0.41-0.08c-0.09-0.04-0.2,0-0.25,0.09
				c-0.38,0.65-0.75,1.3-1.13,1.96C5.86,14.18,5.9,14.3,6,14.36c0.54,0.28,1.12,0.42,1.71,0.42c0.58,0,1.17-0.14,1.71-0.42
				c0.1-0.05,0.14-0.18,0.08-0.28c-0.38-0.65-0.75-1.31-1.13-1.96C8.32,12.04,8.21,12,8.12,12.04z"/>
			<path fill="#AAD7D3" d="M5.92,7.88c-0.06-0.1-0.19-0.13-0.28-0.07C5.62,7.82,5.61,7.83,5.6,7.84C4.99,8.24,4.53,8.77,4.24,9.44
				c-0.12,0.28-0.21,0.57-0.26,0.88c-0.02,0.14-0.04,0.29-0.05,0.44c-0.01,0.11,0.09,0.21,0.2,0.21h2.26c0.1,0,0.18-0.07,0.2-0.17
				c0.05-0.29,0.19-0.53,0.42-0.71c0.08-0.06,0.1-0.17,0.05-0.26L5.92,7.88z"/>
			<path fill="#AAD7D3" d="M11.17,9.44c-0.29-0.67-0.75-1.2-1.36-1.61C9.79,7.83,9.78,7.82,9.77,7.81c-0.1-0.06-0.23-0.03-0.28,0.07
				L8.35,9.84c-0.05,0.09-0.03,0.2,0.05,0.26c0.23,0.19,0.37,0.42,0.42,0.71c0.02,0.1,0.1,0.17,0.2,0.17h2.26
				c0.12,0,0.21-0.1,0.2-0.21c-0.01-0.15-0.02-0.3-0.05-0.44C11.38,10.02,11.29,9.73,11.17,9.44z"/>
			<path fill="#AAD7D3" d="M7.71,10.26c-0.4,0-0.72,0.32-0.72,0.72c0,0.39,0.32,0.72,0.71,0.72c0,0,0.01,0,0.01,0
				c0.4,0,0.71-0.32,0.72-0.72C8.43,10.58,8.1,10.26,7.71,10.26z"/>
		</g>
	</g>
</g>
</svg>
