<?xml version="1.0" encoding="UTF-8" standalone="no"?>
<!-- Generator: Adobe Illustrator 18.1.0, SVG Export Plug-In . SVG Version: 6.00 Build 0)  -->

<svg
   xmlns:dc="http://purl.org/dc/elements/1.1/"
   xmlns:cc="http://creativecommons.org/ns#"
   xmlns:rdf="http://www.w3.org/1999/02/22-rdf-syntax-ns#"
   xmlns:svg="http://www.w3.org/2000/svg"
   xmlns="http://www.w3.org/2000/svg"
   xmlns:sodipodi="http://sodipodi.sourceforge.net/DTD/sodipodi-0.dtd"
   xmlns:inkscape="http://www.inkscape.org/namespaces/inkscape"
   version="1.1"
   id="recycling-bin"
   x="0px"
   y="0px"
   viewBox="0 0 385.8355 542.52"
   enable-background="new 0 0 385.8355 542.52"
   xml:space="preserve"
   inkscape:version="0.91 r13725"
   sodipodi:docname="recycling.svg"><metadata
     id="metadata15"><rdf:RDF><cc:Work
         rdf:about=""><dc:format>image/svg+xml</dc:format><dc:type
           rdf:resource="http://purl.org/dc/dcmitype/StillImage" /></cc:Work></rdf:RDF></metadata><defs
     id="defs13" /><sodipodi:namedview
     pagecolor="#ffffff"
     bordercolor="#666666"
     borderopacity="1"
     objecttolerance="10"
     gridtolerance="10"
     guidetolerance="10"
     inkscape:pageopacity="0"
     inkscape:pageshadow="2"
     inkscape:window-width="1317"
     inkscape:window-height="990"
     id="namedview11"
     showgrid="false"
     inkscape:zoom="0.43500699"
     inkscape:cx="-153.0537"
     inkscape:cy="271.26001"
     inkscape:window-x="2771"
     inkscape:window-y="271"
     inkscape:window-maximized="0"
     inkscape:current-layer="g3" /><g
     id="g3"><path
       d="M244.0361,481.2172c0,18.0187,6.0715,34.4706,16.0601,47.5929H127.8937c-33.0996,0-79.7132-59.5401-79.7132-90.0936   s0-164.7146,0-194.2888S15.0809,164.127,15.0809,164.127V85.393h33.0996h41.5214h248.3449l0.3917,318.6571   c-5.0923-0.9793-10.1845-1.5669-15.4726-1.5669C279.2901,402.4832,244.0361,437.7373,244.0361,481.2172z M356.8489,61.1069V27.6156   c0-3.5254-2.742-6.2674-6.2674-6.2674h-78.3422V6.2674c0-3.5254-2.742-6.2674-6.2674-6.2674H120.2553   c-3.3296,0-6.2674,2.742-6.2674,6.2674v15.0809H6.2674C2.742,21.3483,0,24.0902,0,27.6156v33.4913   c0,3.5254,2.742,6.2674,6.2674,6.2674h344.3141C354.1069,67.3743,356.8489,64.4365,356.8489,61.1069z M385.8355,482.3923   c0,33.0996-27.028,60.1277-60.1277,60.1277s-60.1277-27.0281-60.1277-60.1277s27.0281-60.1277,60.1277-60.1277   C359.0033,422.2647,385.8355,449.2928,385.8355,482.3923z M360.9619,482.3923c0-19.3897-15.8643-35.254-35.254-35.254   s-35.254,15.8643-35.254,35.254s15.8643,35.254,35.254,35.254C345.2934,517.6464,360.9619,501.7821,360.9619,482.3923z"
       id="path5"
       style="fill:#5a6377;fill-opacity:1" /></g><g
     id="g7"><path
       fill="#FFFFFF"
       d="M173.9556,214.266c-9.4011-5.2881-18.6063-10.7721-28.0074-16.0602   c4.8964-9.7928,10.9679-19.3897,20.9566-29.1825c1.371-1.371,2.9378-2.1544,4.8964-2.5461h2.1544h1.5668   c4.8964,0.7834,9.5969,7.2467,11.9472,10.9679c1.9586,3.3295,3.7213,6.6591,5.4839,9.9886L173.9556,214.266z M190.0157,175.8783   c4.5047,7.6384,8.6176,15.6684,12.3389,24.0902l-14.885,8.6176l42.8924,4.113l18.0187-39.367l-14.885,8.8135   c-4.113-8.2259-9.2052-15.0809-17.0394-18.6063c-14.1016,0-28.2032,0.1959-42.3048,0.1959   C179.6354,163.3436,184.9234,168.4358,190.0157,175.8783z M222.7236,231.893l0.1959-0.1959v0.5876l10.9679,23.5027   c4.5047,0.1958,9.0094,0.1958,13.3182,0.1958c4.7005-0.3917,13.3182-1.371,15.8643-5.8757   c0.1959-0.1958,0.1959-0.3917,0.1959-0.3917l1.1751-1.9586c0-0.7834-0.1959-1.7627-0.3917-2.5461   c-3.5254-13.3182-9.2052-23.5027-15.0809-32.512c-9.2052,5.4839-18.4104,10.9679-27.6156,16.4519L222.7236,231.893z    M247.5973,258.7253c-8.8135,0.1959-17.8229-0.1959-27.0281-0.9793l-0.1959-17.0394l-24.6778,35.4499l25.4612,35.0582   l-0.3917-17.4312c9.2052,0.5876,17.8228-0.5876,24.6778-5.6798c6.8549-12.3389,13.7099-24.6778,20.5648-37.0167   C263.4615,255.9833,256.4108,257.9418,247.5973,258.7253z M157.5037,261.0755c-1.9586,3.7212-3.7213,7.4425-5.484,11.3596   c-1.7627,4.3088-4.5047,12.5348-1.5668,16.8436c0.1959,0.1959,0.1959,0.1959,0.3917,0.3917l1.371,1.9586   c1.1751,0.7834,2.3503,1.1751,3.7213,1.371c13.7099,2.5461,25.0695,1.9586,35.8416,0.3917   c-0.9793-10.7721-1.9586-21.3483-2.9378-32.1203L157.5037,261.0755z M149.4736,271.4559   c3.7213-8.0301,7.8342-16.0602,12.7306-24.0903l15.4726,7.2467l-21.3483-37.6043l-42.5007,7.8342l15.6684,7.2467   c-4.5047,8.226-7.0508,16.4519-5.4839,24.8737c8.2259,11.5555,16.256,23.111,24.4819,34.4706   C145.1648,286.9284,146.3399,279.8777,149.4736,271.4559z"
       id="path9" /></g></svg>