<svg xmlns="http://www.w3.org/2000/svg" viewBox="0 0 385.8355 542.52"><path d="M244.036 481.217c0 18.02 6.072 34.47 16.06 47.593H127.894c-33.1 0-79.714-59.54-79.714-90.093v-194.29l-33.1-80.3V85.393h322.967l.39 318.657c-5.09-.98-10.183-1.567-15.47-1.567-43.677 0-78.93 35.254-78.93 78.734zM356.85 61.107v-33.49c0-3.527-2.743-6.27-6.27-6.27h-78.34V6.267c0-3.524-2.743-6.266-6.268-6.266H120.255c-3.33 0-6.267 2.743-6.267 6.268v15.08H6.268C2.74 21.348 0 24.09 0 27.618v33.49c0 3.525 2.742 6.267 6.267 6.267h344.315c3.525 0 6.267-2.938 6.267-6.267zm28.986 421.285c0 33.1-27.028 60.128-60.128 60.128s-60.128-27.028-60.128-60.128 27.028-60.127 60.128-60.127c33.295 0 60.127 27.028 60.127 60.127zm-24.874 0c0-19.39-15.864-35.254-35.254-35.254s-35.254 15.865-35.254 35.254 15.864 35.254 35.254 35.254c19.585 0 35.254-15.864 35.254-35.254z" fill="#5a6377"/><path fill="#FFF" d="M173.956 214.266c-9.4-5.288-18.607-10.772-28.008-16.06 4.897-9.793 10.968-19.39 20.957-29.183 1.37-1.37 2.938-2.154 4.896-2.546h3.723c4.897.784 9.597 7.247 11.948 10.968 1.96 3.33 3.72 6.66 5.485 9.99l-18.998 26.83zm16.06-38.388c4.504 7.64 8.617 15.67 12.34 24.09l-14.886 8.618 42.892 4.113 18.02-39.37-14.886 8.815c-4.113-8.226-9.205-15.08-17.04-18.607-14.1 0-28.203.195-42.304.195 5.483-.39 10.77 4.7 15.864 12.143zm32.708 56.015l.196-.196v.588l10.967 23.502c4.505.196 9.01.196 13.32.196 4.7-.39 13.317-1.37 15.863-5.875.196-.196.196-.392.196-.392l1.175-1.96c0-.782-.194-1.76-.39-2.545-3.525-13.316-9.205-23.5-15.08-32.51l-27.616 16.45 1.37 2.744zm24.873 26.832c-8.813.196-17.823-.196-27.028-.98l-.198-17.038-24.677 35.45 25.46 35.058-.39-17.43c9.204.586 17.822-.59 24.677-5.68l20.565-37.018c-2.546 4.896-9.597 6.855-18.41 7.638zm-90.093 2.35c-1.96 3.722-3.722 7.443-5.484 11.36-1.763 4.31-4.505 12.535-1.567 16.844l.392.39 1.37 1.96c1.176.78 2.35 1.173 3.722 1.37 13.71 2.545 25.07 1.96 35.84.39-.978-10.77-1.957-21.35-2.936-32.12l-31.335-.196zm-8.03 10.38c3.72-8.03 7.834-16.06 12.73-24.09l15.473 7.247-21.348-37.604-42.503 7.834 15.668 7.247c-4.504 8.224-7.05 16.45-5.484 24.872 8.227 11.555 16.257 23.11 24.483 34.47-3.33-4.505-2.154-11.555.98-19.977z"/></svg>