<?xml version="1.0" encoding="utf-8"?>
<!-- Generator: Adobe Illustrator 18.1.0, SVG Export Plug-In . SVG Version: 6.00 Build 0)  -->
<svg version="1.1" id="Layer_1" xmlns="http://www.w3.org/2000/svg" xmlns:xlink="http://www.w3.org/1999/xlink" x="0px" y="0px"
	 viewBox="0 0 23.13 9.59" enable-background="new 0 0 23.13 9.59" xml:space="preserve">
<path fill="#F5F5F5" d="M21.02,9.59c1.61,0,2.63-1.73,1.84-3.14l-1.07-1.91l-2.1-3.76l0,0l-0.2-0.36C19.35,0.16,19.08,0,18.8,0H0.69
	C0.31,0,0,0.33,0,0.74v8.12c0,0.41,0.31,0.74,0.69,0.74L21.02,9.59L21.02,9.59z M13.18,4.18c0,0.2-0.16,0.37-0.35,0.37h-2.77
	c-0.19,0-0.35-0.16-0.35-0.37V1.23c0-0.2,0.16-0.37,0.35-0.37h2.77c0.19,0,0.35,0.16,0.35,0.37V4.18z M14.51,4.55
	c-0.23,0-0.41-0.2-0.41-0.44V1.3c0-0.24,0.19-0.44,0.41-0.44h4.09l2.05,3.68C20.65,4.55,14.51,4.55,14.51,4.55z"/>
</svg>
