<?xml version="1.0" encoding="utf-8"?>
<!-- Generator: Adobe Illustrator 18.1.0, SVG Export Plug-In . SVG Version: 6.00 Build 0)  -->
<svg version="1.1" id="Layer_1" xmlns="http://www.w3.org/2000/svg" xmlns:xlink="http://www.w3.org/1999/xlink" x="0px" y="0px"
	 viewBox="0 0 23.13 9.59" enable-background="new 0 0 23.13 9.59" xml:space="preserve">
<path fill="#F5F5F5" d="M22.43,9.59c0.38,0,0.69-0.33,0.69-0.74V0.74c0-0.41-0.31-0.74-0.69-0.74H4.33C4.05,0,3.79,0.16,3.64,0.42
	l-0.2,0.36l0,0l-2.1,3.76L0.27,6.45C-0.52,7.85,0.5,9.59,2.11,9.59L22.43,9.59L22.43,9.59z M9.95,1.22c0-0.2,0.16-0.37,0.35-0.37
	h2.77c0.19,0,0.35,0.16,0.35,0.37v2.95c0,0.2-0.16,0.37-0.35,0.37H10.3c-0.19,0-0.35-0.16-0.35-0.37V1.22z M2.48,4.54l2.05-3.68
	h4.09c0.23,0,0.41,0.2,0.41,0.44V4.1c0,0.24-0.19,0.44-0.41,0.44C8.62,4.54,2.48,4.54,2.48,4.54z"/>
</svg>
