<svg xmlns="http://www.w3.org/2000/svg" viewBox="0 0 6.89 9.42" preserveAspectRatio="xMinYMax"><g fill="#97D0CB"><path d="M4.02 3.25C3.93 2.28 3.69 0 3.44 0s-.48 2.28-.57 3.25c.15-.12.36-.22.58-.22.2.01.42.07.57.22z"/><circle cx="3.44" cy="3.95" r=".61"/><path d="M4.36 3.83v.12c0 .4-.23.72-.58.85.88.4 2.98 1.34 3.1 1.12.12-.2-1.77-1.54-2.52-2.09zM2.53 3.95v-.12C1.74 4.38-.11 5.75.01 5.96c.12.22 2.22-.73 3.1-1.13l-.28 4.59h1.22L3.78 4.8c-.1.04-.22.06-.33.06-.52 0-.92-.39-.92-.91zM3.78 4.8z"/></g></svg>