<svg xmlns="http://www.w3.org/2000/svg" viewBox="0.2 0 508.2 841.9"><g fill="#5A6377"><path d="M296.8 240.1C290.3 168.1 272 0 254.3 0s-36 168.1-42.5 240.1c11.2-8.8 27.1-15.9 42.5-15.9 15.3 0 31.2 4.7 42.5 15.9z"/><circle cx="254.3" cy="292" r="44.8"/><path d="M321.5 282.6v8.8c0 29.5-17.1 53.7-42.5 62.5 64.9 29.5 220.1 99.1 228.9 83.2 8.9-15.3-130.3-113.8-186.4-154.5zM187 292v-8.8C128.6 323.9-8.3 424.8.6 440.1c8.8 15.3 164-53.7 228.9-83.2l-20.1 485h89.7L279 354.6c-7.7 2.9-15.9 4.7-24.8 4.7-38.3 0-67.2-29.5-67.2-67.3zM279.1 354.6z"/></g></svg>