<?xml version="1.0" encoding="utf-8"?>
<!-- Generator: Adobe Illustrator 18.1.0, SVG Export Plug-In . SVG Version: 6.00 Build 0)  -->
<svg version="1.1" id="Layer_1" xmlns="http://www.w3.org/2000/svg" xmlns:xlink="http://www.w3.org/1999/xlink" x="0px" y="0px"
	 viewBox="0 0 6.89 9.42" enable-background="new 0 0 6.89 9.42" xml:space="preserve" preserveAspectRatio="xMinYMax">
<g>
	<path fill="#97D0CB" d="M4.02,3.25C3.93,2.28,3.69,0,3.44,0S2.96,2.28,2.87,3.25c0.15-0.12,0.36-0.22,0.58-0.22
		C3.65,3.04,3.87,3.1,4.02,3.25z"/>
	<circle fill="#97D0CB" cx="3.44" cy="3.95" r="0.61"/>
	<path fill="#97D0CB" d="M4.36,3.83c0,0.03,0,0.09,0,0.12c0,0.4-0.23,0.72-0.58,0.85c0.88,0.4,2.98,1.34,3.1,1.12
		C7,5.72,5.11,4.38,4.36,3.83z"/>
	<path fill="#97D0CB" d="M2.53,3.95c0-0.03,0-0.09,0-0.12C1.74,4.38-0.11,5.75,0.01,5.96c0.12,0.22,2.22-0.73,3.1-1.13L2.83,9.42
		h1.22L3.78,4.8c-0.1,0.04-0.22,0.06-0.33,0.06C2.93,4.86,2.53,4.47,2.53,3.95z"/>
	<path fill="#97D0CB" d="M3.78,4.8L3.78,4.8L3.78,4.8L3.78,4.8z"/>
</g>
</svg>
