<?xml version="1.0" encoding="utf-8"?>
<!-- Generator: Adobe Illustrator 18.0.0, SVG Export Plug-In . SVG Version: 6.00 Build 0)  -->
<!DOCTYPE svg PUBLIC "-//W3C//DTD SVG 1.1//EN" "http://www.w3.org/Graphics/SVG/1.1/DTD/svg11.dtd">
<svg version="1.1" id="Layer_1" xmlns="http://www.w3.org/2000/svg" xmlns:xlink="http://www.w3.org/1999/xlink" x="0px" y="0px"
	 viewBox="0.2 0 508.2 841.9" enable-background="new 0.2 0 508.2 841.9" xml:space="preserve">
<g>
	<path fill="#5A6377" d="M296.8,240.1C290.3,168.1,272,0,254.3,0s-36,168.1-42.5,240.1c11.2-8.8,27.1-15.9,42.5-15.9
		C269.6,224.2,285.5,228.9,296.8,240.1z"/>
	<circle fill="#5A6377" cx="254.3" cy="292" r="44.8"/>
	<path fill="#5A6377" d="M321.5,282.6c0,2.4,0,6.5,0,8.8c0,29.5-17.1,53.7-42.5,62.5c64.9,29.5,220.1,99.1,228.9,83.2
		C516.8,421.8,377.6,323.3,321.5,282.6z"/>
	<path fill="#5A6377" d="M187,292c0-2.4,0-6.5,0-8.8C128.6,323.9-8.3,424.8,0.6,440.1c8.8,15.3,164-53.7,228.9-83.2l-20.1,485h89.7
		l-20.1-487.3c-7.7,2.9-15.9,4.7-24.8,4.7C215.9,359.3,187,329.8,187,292z"/>
	<path fill="#5A6377" d="M279.1,354.6L279.1,354.6L279.1,354.6L279.1,354.6z"/>
</g>
</svg>
