<svg xmlns="http://www.w3.org/2000/svg" viewBox="0 0 8.61 14.27" preserveAspectRatio="xMinYMax"><g fill="#28A197"><path d="M5.03 4.07C4.92 2.85 4.61 0 4.31 0s-.61 2.85-.72 4.07c.19-.15.46-.27.72-.27.26 0 .53.08.72.27z"/><circle cx="4.31" cy="4.95" r=".76"/><path d="M5.45 4.79v.15c0 .5-.29.91-.72 1.06 1.1.5 3.73 1.68 3.88 1.41.15-.26-2.21-1.93-3.16-2.62zm-2.28.16V4.8C2.18 5.49-.14 7.2.01 7.46s2.78-.91 3.88-1.41l-.34 8.22h1.52l-.34-8.26c-.13.05-.27.08-.42.08-.65 0-1.14-.5-1.14-1.14zm1.56 1.06z"/></g></svg>