<?xml version="1.0" encoding="utf-8"?>
<!-- Generator: Adobe Illustrator 18.1.0, SVG Export Plug-In . SVG Version: 6.00 Build 0)  -->
<svg version="1.1" id="vehicle-electricty" xmlns="http://www.w3.org/2000/svg" xmlns:xlink="http://www.w3.org/1999/xlink" x="0px"
	 y="0px" viewBox="0 0 1841.676 2211.9543" enable-background="new 0 0 1841.676 2211.9543" xml:space="preserve">
<path fill="#FFFFFF" d="M1841.676,920.8381C1841.676,412.2732,1429.4028,0,920.838,0S0,412.2732,0,920.8381
	c0,406.4058,263.2826,751.3069,628.5848,873.4786l292.2532,417.6377l292.2533-417.6377
	C1578.3933,1672.145,1841.676,1327.2439,1841.676,920.8381z"/>
<path fill="#D63C82" d="M1284.1736,813.9969c-4.188-6.282-12.5641-10.47-20.9401-8.376l-234.5283,52.3501l71.196-502.5607
	c0-8.376-4.188-16.752-12.564-20.94s-16.752-2.094-23.0341,6.282l-504.6546,686.8329c-4.188,6.282-6.282,16.7521-2.094,23.0341
	s12.564,10.47,20.9401,8.376l255.4683-48.162l-75.3841,477.4326c0,8.3761,4.188,16.7521,12.564,20.9401
	c2.094,0,6.282,2.094,8.376,2.094c6.282,0,12.564-2.094,16.752-8.376l485.8087-667.9868
	C1288.3616,830.749,1288.3616,822.3729,1284.1736,813.9969z"/>
</svg>
