<svg xmlns="http://www.w3.org/2000/svg" viewBox="0 0 1841.676 2211.9543"><path fill="#FFF" d="M1841.676 920.838C1841.676 412.273 1429.403 0 920.838 0S0 412.273 0 920.838c0 406.406 263.283 751.307 628.585 873.48l292.253 417.636 292.253-417.637c365.303-122.172 628.586-467.073 628.586-873.48z"/><path fill="#D63C82" d="M1284.174 813.997c-4.188-6.282-12.564-10.47-20.94-8.376l-234.53 52.35 71.197-502.56c0-8.376-4.187-16.752-12.563-20.94s-16.752-2.094-23.034 6.282l-504.655 686.833c-4.188 6.282-6.282 16.752-2.094 23.034s12.564 10.47 20.94 8.375l255.47-48.162-75.385 477.433c0 8.376 4.187 16.752 12.563 20.94 2.094 0 6.282 2.094 8.376 2.094 6.28 0 12.563-2.094 16.75-8.376l485.81-667.987c6.282-4.188 6.282-12.564 2.094-20.94z"/></svg>