<?xml version="1.0" encoding="utf-8"?>
<!-- Generator: Adobe Illustrator 18.1.0, SVG Export Plug-In . SVG Version: 6.00 Build 0)  -->
<svg version="1.1" id="vehicle-hydrogen" xmlns="http://www.w3.org/2000/svg" xmlns:xlink="http://www.w3.org/1999/xlink" x="0px"
	 y="0px" viewBox="0 0 1841.676 2211.9543" enable-background="new 0 0 1841.676 2211.9543" xml:space="preserve">
<path fill="#FFFFFF" d="M1841.676,920.8381C1841.676,412.2732,1429.4028,0,920.838,0S0,412.2732,0,920.8381
	c0,406.4058,263.2826,751.3069,628.5848,873.4786l292.2532,417.6377l292.2533-417.6377
	C1578.3933,1672.145,1841.676,1327.2439,1841.676,920.8381z"/>
<g>
	<path fill="#D63C82" d="M1061.1416,782.4766c-18.2161-18.2159-39.4338-32.52-63.0638-42.5146
		c-24.475-10.3521-50.4622-15.601-77.2398-15.601s-52.7648,5.2489-77.2398,15.601c-23.63,9.9946-44.8477,24.2986-63.0637,42.5146
		c-18.216,18.216-32.52,39.4337-42.5146,63.0637c-10.3521,24.475-15.601,50.4622-15.601,77.2398s5.2489,52.7648,15.601,77.2398
		c9.9946,23.63,24.2986,44.8477,42.5146,63.0637s39.4337,32.52,63.0637,42.5146c24.475,10.3521,50.4622,15.601,77.2398,15.601
		s52.7648-5.2489,77.2398-15.601c23.63-9.9946,44.8477-24.2987,63.0638-42.5146c18.2158-18.2159,32.5199-39.4337,42.5145-63.0637
		c10.3522-24.475,15.601-50.4622,15.601-77.2398s-5.2488-52.7648-15.601-77.2398
		C1093.6615,821.9103,1079.3574,800.6926,1061.1416,782.4766z"/>
	<path fill="#D63C82" d="M1482.6892,768.0735c-12.512-45.6803-30.6223-89.6573-53.8978-130.9098
		c11.64-19.4141,17.734-41.4282,17.734-64.4032c0-33.569-13.0735-65.128-36.8123-88.8632
		c-23.7355-23.7319-55.2908-36.8018-88.8527-36.8018c-17.1069,0-34.0293,3.5055-49.6324,10.2177
		c-48.4115-36.6047-101.8066-65.1691-158.9004-84.988c-61.3146-21.2844-125.741-32.0764-191.4896-32.0764
		c-155.6032,0-301.8906,60.593-411.9146,170.6168c-110.024,110.0244-170.617,256.3118-170.617,411.9146
		s60.593,301.89,170.617,411.9144c110.0242,110.0239,256.3116,170.6169,411.9146,170.6169s301.8904-60.593,411.9144-170.6169
		c110.0242-110.024,170.6172-256.3115,170.6172-411.9144C1503.3696,870.2241,1496.4119,818.1733,1482.6892,768.0735z
		 M1231.9851,661.6238c23.7354,23.732,55.2905,36.8018,88.8525,36.8018c5.8329,0,11.6704-0.4098,17.4675-1.2233
		c17.4197,32.1352,31.0348,66.2131,40.5405,101.5001c10.8262,40.1884,16.3154,81.9342,16.3154,124.0778
		c0.0217,126.709-49.3074,245.8297-138.9003,335.4227c-89.5861,89.5859-208.708,138.9231-335.4228,138.9231
		c-126.715,0-245.837-49.3372-335.4229-138.9231c-89.5858-89.5857-138.923-208.7078-138.923-335.4227
		s49.3372-245.8372,138.923-335.423s208.7078-138.923,335.4229-138.923c52.8958,0,104.741,8.5687,154.0954,25.4684
		c44.6483,15.2882,86.5812,37.1609,124.8356,65.0955c-3.0547,10.9448-4.5964,22.2463-4.5964,33.7623
		C1195.1726,606.3295,1208.2462,637.8884,1231.9851,661.6238z"/>
</g>
</svg>
