<svg xmlns="http://www.w3.org/2000/svg" viewBox="0 0 1841.676 2211.9543"><path fill="#FFF" d="M1841.676 920.838C1841.676 412.273 1429.403 0 920.838 0S0 412.273 0 920.838c0 406.406 263.283 751.307 628.585 873.48l292.253 417.636 292.253-417.637c365.303-122.172 628.586-467.073 628.586-873.48z"/><g fill="#D63C82"><path d="M1061.142 782.477c-18.217-18.216-39.434-32.52-63.064-42.515-24.475-10.352-50.462-15.6-77.24-15.6s-52.765 5.248-77.24 15.6c-23.63 9.995-44.848 24.3-63.064 42.515-18.216 18.216-32.52 39.433-42.514 63.063-10.352 24.475-15.6 50.463-15.6 77.24s5.248 52.765 15.6 77.24c9.994 23.63 24.298 44.848 42.514 63.064s39.434 32.52 63.064 42.514c24.475 10.352 50.462 15.6 77.24 15.6s52.765-5.248 77.24-15.6c23.63-9.994 44.848-24.3 63.064-42.514 18.215-18.216 32.52-39.434 42.514-63.064 10.352-24.475 15.6-50.462 15.6-77.24s-5.248-52.765-15.6-77.24c-9.995-23.63-24.3-44.847-42.514-63.063z"/><path d="M1482.69 768.073c-12.513-45.68-30.623-89.657-53.9-130.91 11.64-19.413 17.735-41.428 17.735-64.403 0-33.57-13.073-65.128-36.812-88.863-23.735-23.732-55.29-36.802-88.853-36.802-17.106 0-34.03 3.506-49.632 10.218-48.411-36.605-101.807-65.17-158.9-84.988-61.315-21.284-125.74-32.076-191.49-32.076-155.603 0-301.89 60.592-411.915 170.616C398.9 620.89 338.306 767.176 338.306 922.78s60.593 301.89 170.617 411.915c110.025 110.023 256.312 170.616 411.915 170.616s301.89-60.592 411.914-170.615c110.025-110.024 170.618-256.312 170.618-411.915 0-52.556-6.958-104.607-20.68-154.707zm-250.705-106.45c23.736 23.733 55.29 36.803 88.853 36.803 5.833 0 11.67-.41 17.467-1.224 17.42 32.135 31.035 66.213 40.54 101.5 10.827 40.19 16.316 81.935 16.316 124.078.023 126.71-49.306 245.83-138.9 335.423-89.585 89.586-208.707 138.923-335.422 138.923-126.715 0-245.837-49.337-335.423-138.923-89.586-89.586-138.923-208.708-138.923-335.423s49.337-245.837 138.923-335.423 208.708-138.923 335.423-138.923c52.896 0 104.74 8.57 154.095 25.47 44.65 15.287 86.58 37.16 124.836 65.094-3.056 10.945-4.597 22.246-4.597 33.762 0 33.57 13.073 65.128 36.812 88.864z"/></g></svg>