<?xml version="1.0" encoding="utf-8"?>
<!-- Generator: Adobe Illustrator 18.1.0, SVG Export Plug-In . SVG Version: 6.00 Build 0)  -->
<svg version="1.1" id="Layer_1" xmlns="http://www.w3.org/2000/svg" xmlns:xlink="http://www.w3.org/1999/xlink" x="0px" y="0px"
	 viewBox="0 0 31.18 31.18" enable-background="new 0 0 31.18 31.18" xml:space="preserve">
<g>
	<path d="M20.59,8.99c0-2.42-2-4.4-4.44-4.4s-4.44,1.98-4.44,4.4h2.22c0-1.21,1-2.2,2.22-2.2c1.22,0,2.22,0.99,2.22,2.2
		c0,1.21-1,2.2-2.22,2.2H2.81v2.2h13.33C18.59,13.4,20.59,11.41,20.59,8.99z"/>
	<path d="M26.14,8.99c-2.45,0-4.44,1.98-4.44,4.4h2.23c0-1.21,1-2.2,2.22-2.2c1.22,0,2.22,0.99,2.22,2.2c0,1.21-0.99,2.2-2.22,2.2
		H0.59v2.2h25.56c2.45,0,4.44-1.98,4.44-4.4C30.59,10.97,28.59,8.99,26.14,8.99z"/>
	<path d="M22.81,19.99H7.25v2.2h15.56c0.67,0,1.11,0.44,1.11,1.1c0,0.66-0.44,1.1-1.11,1.1c-0.67,0-1.11-0.44-1.11-1.1h-2.22
		c0,1.76,1.45,3.3,3.33,3.3c1.89,0,3.33-1.43,3.33-3.3C26.15,21.42,24.7,19.99,22.81,19.99z"/>
</g>
</svg>
