<?xml version="1.0" encoding="utf-8"?>
<!-- Generator: Adobe Illustrator 18.1.0, SVG Export Plug-In . SVG Version: 6.00 Build 0)  -->
<svg version="1.1" id="Warning_Sign_On_A_Triangular_Background"
	 xmlns="http://www.w3.org/2000/svg" xmlns:xlink="http://www.w3.org/1999/xlink" x="0px" y="0px" viewBox="0 0 31.18 31.18"
	 enable-background="new 0 0 31.18 31.18" xml:space="preserve">
<path d="M28.88,25.3L17.28,4.04c-0.17-0.31-0.41-0.56-0.71-0.74c-0.3-0.18-0.63-0.27-0.98-0.27c-0.35,0-0.68,0.09-0.98,0.27
	c-0.3,0.18-0.54,0.43-0.71,0.74L2.3,25.3c-0.35,0.63-0.34,1.27,0.03,1.9c0.17,0.29,0.41,0.52,0.7,0.69c0.3,0.17,0.62,0.26,0.96,0.26
	h23.19c0.34,0,0.66-0.09,0.96-0.26c0.3-0.17,0.53-0.4,0.7-0.69C29.22,26.57,29.23,25.93,28.88,25.3z M17.52,23.79
	c0,0.14-0.05,0.26-0.14,0.35c-0.1,0.1-0.21,0.14-0.34,0.14h-2.9c-0.13,0-0.24-0.05-0.34-0.14c-0.1-0.1-0.14-0.21-0.14-0.35v-2.87
	c0-0.14,0.05-0.26,0.14-0.35c0.1-0.1,0.21-0.14,0.34-0.14h2.9c0.13,0,0.24,0.05,0.34,0.14c0.1,0.1,0.14,0.21,0.14,0.35L17.52,23.79
	L17.52,23.79z M17.49,18.14c-0.01,0.1-0.06,0.18-0.16,0.25c-0.1,0.07-0.21,0.1-0.35,0.1h-2.79c-0.14,0-0.26-0.03-0.36-0.1
	c-0.1-0.07-0.15-0.15-0.15-0.25l-0.26-6.9c0-0.14,0.05-0.25,0.15-0.32c0.13-0.11,0.25-0.17,0.36-0.17h3.32
	c0.11,0,0.23,0.06,0.36,0.17c0.1,0.07,0.15,0.17,0.15,0.29L17.49,18.14z"/>
</svg>
