<?xml version="1.0" encoding="utf-8"?>
<!-- Generator: Adobe Illustrator 18.1.0, SVG Export Plug-In . SVG Version: 6.00 Build 0)  -->
<svg version="1.1" id="Left_Arrow" xmlns="http://www.w3.org/2000/svg" xmlns:xlink="http://www.w3.org/1999/xlink" x="0px" y="0px"
	 viewBox="0 0 31.18 31.18" enable-background="new 0 0 31.18 31.18" xml:space="preserve">
<path d="M27.67,14.55c0-0.87-0.7-1.58-1.58-1.58H12.96l5.57-5.57c0.61-0.61,0.61-1.62,0-2.24l-1.5-1.5c-0.61-0.61-1.62-0.61-2.24,0
	L3.97,14.47c-0.31,0.31-0.47,0.71-0.47,1.12c0,0.4,0.16,0.81,0.47,1.12l10.82,10.82c0.61,0.61,1.62,0.61,2.24,0l1.5-1.5
	c0.61-0.61,0.61-1.62,0-2.24l-5.57-5.55h13.12c0.87,0,1.58-0.71,1.58-1.58L27.67,14.55z"/>
</svg>
