<?xml version="1.0" encoding="utf-8"?>
<!-- Generator: Adobe Illustrator 18.1.0, SVG Export Plug-In . SVG Version: 6.00 Build 0)  -->
<svg version="1.1" id="Close_Button" xmlns="http://www.w3.org/2000/svg" xmlns:xlink="http://www.w3.org/1999/xlink" x="0px"
	 y="0px" viewBox="0 0 31.18 31.18" enable-background="new 0 0 31.18 31.18" xml:space="preserve">
<g>
	<path fill="#010202" d="M27.32,3.86L27.32,3.86c-0.72-0.72-1.89-0.72-2.61,0l-9.12,9.12L6.47,3.86c-0.72-0.72-1.89-0.72-2.61,0v0
		c-0.72,0.72-0.72,1.89,0,2.61l9.12,9.12l-9.12,9.12c-0.72,0.72-0.72,1.89,0,2.61v0c0.72,0.72,1.89,0.72,2.61,0l9.12-9.12l9.12,9.12
		c0.72,0.72,1.89,0.72,2.61,0v0c0.72-0.72,0.72-1.89,0-2.61l-9.12-9.12l9.12-9.12C28.04,5.75,28.04,4.58,27.32,3.86z"/>
</g>
</svg>
