<?xml version="1.0" encoding="utf-8"?>
<!-- Generator: Adobe Illustrator 18.1.0, SVG Export Plug-In . SVG Version: 6.00 Build 0)  -->
<svg version="1.1" id="Layer_1" xmlns="http://www.w3.org/2000/svg" xmlns:xlink="http://www.w3.org/1999/xlink" x="0px" y="0px"
	 viewBox="0 0 31.18 31.18" enable-background="new 0 0 31.18 31.18" xml:space="preserve">
<path d="M23.88,15.84C23.88,15.84,23.88,15.84,23.88,15.84l-0.1-0.2l-7.24-14.6l-0.03-0.06c-0.08-0.13-0.21-0.21-0.37-0.21
	c-0.24,0-0.43,0.19-0.43,0.43c0,0,0,0.01,0,0.01l0.01,0.08l1.22,9.87c0,0.03,0.01,0.05,0.01,0.08c0,0.04,0.01,0.08,0.01,0.13
	c0,0.71-0.58,1.29-1.29,1.29v0.01H9.23H8.92c-0.99,0.08-1.78,0.91-1.78,1.93c0,0.3,0.07,0.58,0.19,0.84l7.29,14.7l0.05,0.09
	c0,0,0,0,0,0c0.08,0.11,0.21,0.19,0.36,0.19c0.24,0,0.43-0.19,0.43-0.43c0-0.01,0-0.02,0-0.03l-0.01-0.06c0,0,0,0,0,0l-1.21-9.82
	c-0.01-0.07-0.02-0.14-0.02-0.21c0-0.02,0-0.04,0-0.06c0-0.71,0.58-1.29,1.29-1.29v-0.01h6.45h0.31c0.99-0.08,1.78-0.91,1.78-1.93
	C24.03,16.32,23.98,16.07,23.88,15.84z"/>
</svg>
