<?xml version="1.0" encoding="utf-8"?>
<!-- Generator: Adobe Illustrator 18.1.0, SVG Export Plug-In . SVG Version: 6.00 Build 0)  -->
<svg version="1.1" id="Layer_1" xmlns="http://www.w3.org/2000/svg" xmlns:xlink="http://www.w3.org/1999/xlink" x="0px" y="0px"
	 viewBox="0 0 31.18 31.18" enable-background="new 0 0 31.18 31.18" xml:space="preserve">
<g>
	<path d="M26.07,19.33c0-2.4,1.72-6.46,1.72-6.46S25.99,12,22.28,12s-5.67,0.92-5.67,0.92c1.68,2.26,1.66,6.61,1.66,6.61
		c0,2.94-1.52,6.17-1.52,11.07c3.32,0,11.31,0,11.31,0C28.05,25.15,26.07,21.73,26.07,19.33z"/>
	<path d="M1.73,30.59c3.32,0,11.31,0,11.31,0c0-5.44-1.98-8.86-1.98-11.26s1.72-6.46,1.72-6.46S10.97,12,7.27,12
		c-3.7,0-5.67,0.92-5.67,0.92c1.68,2.26,1.66,6.61,1.66,6.61C3.25,22.46,1.73,25.69,1.73,30.59z"/>
	<path d="M14.57,1.9c0-0.73-0.6-1.31-1.34-1.31c-0.67,0-1.22,0.49-1.32,1.12c-0.29-0.16-0.62-0.26-0.98-0.26
		c-1.06,0-1.91,0.8-1.99,1.82c-0.31-0.2-0.68-0.31-1.08-0.31c-1.11,0-2,0.88-2,1.96c0,0.14,0.02,0.28,0.04,0.41
		C5.68,5.25,5.45,5.2,5.2,5.2c-1.33,0-2.41,1.06-2.41,2.36c0,1.3,1.08,2.36,2.41,2.36c0.27,0,0.53-0.05,0.77-0.14
		c0.43,0.63,1.16,1.04,2,1.04c1.33,0,2.41-1.06,2.41-2.36c0-0.3-0.06-0.58-0.17-0.85c1.08-0.02,1.96-0.89,1.96-1.96
		c0-0.22-0.05-0.43-0.11-0.63c0.53-0.35,0.88-0.95,0.88-1.62c0-0.08-0.01-0.15-0.02-0.23c0.1,0.02,0.21,0.04,0.32,0.04
		C13.97,3.22,14.57,2.63,14.57,1.9z"/>
	<path d="M29.59,1.9c0-0.73-0.6-1.31-1.34-1.31c-0.67,0-1.22,0.49-1.32,1.12c-0.29-0.16-0.62-0.26-0.98-0.26
		c-1.06,0-1.91,0.8-1.99,1.82c-0.31-0.2-0.68-0.31-1.08-0.31c-1.11,0-2,0.88-2,1.96c0,0.14,0.02,0.28,0.04,0.41
		c-0.22-0.07-0.46-0.11-0.7-0.11c-1.33,0-2.41,1.06-2.41,2.36c0,1.3,1.08,2.36,2.41,2.36c1.16,0,2.12-0.8,2.35-1.86
		C23.01,8.62,23.7,9,24.49,9c1.34,0,2.43-1.06,2.43-2.38c0-0.5-0.16-0.96-0.42-1.34c0.84-0.24,1.45-0.98,1.45-1.88
		c0-0.08-0.01-0.15-0.02-0.23c0.1,0.03,0.21,0.04,0.32,0.04C28.99,3.22,29.59,2.63,29.59,1.9z"/>
</g>
</svg>
