<?xml version="1.0" encoding="utf-8"?>
<!-- Generator: Adobe Illustrator 18.1.0, SVG Export Plug-In . SVG Version: 6.00 Build 0)  -->
<svg version="1.1" id="Layer_1" xmlns="http://www.w3.org/2000/svg" xmlns:xlink="http://www.w3.org/1999/xlink" x="0px" y="0px"
	 viewBox="0 0 31.18 31.18" enable-background="new 0 0 31.18 31.18" xml:space="preserve">
<path d="M20.84,6.59c-1.17-3.47-2.99-5.71-5.05-5.71c-2.08,0-3.93,2.3-5.1,5.84C9.6,6.5,8.56,6.37,7.63,6.37
	c-2.15,0-3.78,0.61-4.5,1.88c-1.05,1.84,0.04,4.63,2.57,7.45c-0.9,1.05-10.8,13.26,5.05,8.9c1.17,3.47,2.99,5.71,5.05,5.71
	c2.08,0,3.93-2.3,5.09-5.84c1.1,0.23,2.14,0.36,3.07,0.36c2.15,0,3.78-0.61,4.5-1.88c1.05-1.84-0.04-4.63-2.57-7.45
	C31.52,9.82,30.63,4.76,20.84,6.59z M4.71,9.16c0.34-0.6,1.43-0.96,2.92-0.96c0.78,0,1.65,0.1,2.56,0.29
	c-0.27,1.11-0.47,2.31-0.6,3.57c-0.97,0.75-1.86,1.52-2.65,2.3C4.93,12.09,4.18,10.09,4.71,9.16z M9.42,16.74
	c-0.43-0.36-0.84-0.71-1.21-1.06c0.37-0.37,0.77-0.74,1.21-1.12C9.41,14.9,9.4,15.24,9.4,15.59C9.4,15.98,9.41,16.36,9.42,16.74z
	 M6.97,17.01c0.78,0.75,1.67,1.48,2.63,2.18c0.14,1.29,0.35,2.5,0.63,3.63C-0.52,26.51,5.72,18.26,6.97,17.01z M19.96,10.61
	c-0.32-0.2-0.64-0.4-0.98-0.6c-0.36-0.21-0.72-0.4-1.08-0.59c0.58-0.22,1.14-0.43,1.7-0.6C19.74,9.38,19.86,9.98,19.96,10.61z
	 M15.79,2.72c1.04,0,2.35,1.58,3.3,4.34c-1.09,0.34-2.22,0.77-3.38,1.3c-1.12-0.49-2.21-0.88-3.26-1.19
	C13.41,4.34,14.74,2.72,15.79,2.72z M11.96,8.94c0.52,0.16,1.06,0.33,1.6,0.53c-0.36,0.2-0.72,0.4-1.07,0.61
	c-0.3,0.18-0.58,0.37-0.86,0.56C11.72,10.04,11.83,9.47,11.96,8.94z M11.62,20.57c0.32,0.2,0.64,0.4,0.98,0.6
	c0.36,0.21,0.72,0.4,1.08,0.59c-0.58,0.23-1.14,0.43-1.7,0.6C11.85,21.8,11.73,21.2,11.62,20.57z M15.79,28.46
	c-1.04,0-2.35-1.57-3.3-4.34c1.09-0.34,2.22-0.77,3.37-1.3c1.11,0.49,2.21,0.88,3.26,1.19C18.18,26.85,16.85,28.46,15.79,28.46z
	 M19.63,22.25c-0.53-0.15-1.06-0.33-1.6-0.53c0.36-0.2,0.72-0.4,1.07-0.61c0.3-0.18,0.58-0.38,0.87-0.56
	C19.87,21.13,19.76,21.71,19.63,22.25z M20.26,18.13c-0.67,0.48-1.37,0.95-2.1,1.4c-0.77,0.47-1.54,0.88-2.31,1.27
	c-0.78-0.37-1.56-0.77-2.33-1.22c-0.78-0.45-1.51-0.92-2.18-1.39c-0.07-0.83-0.11-1.69-0.11-2.6c0-0.88,0.04-1.72,0.1-2.53
	c0.66-0.48,1.35-0.95,2.1-1.4c0.76-0.47,1.54-0.88,2.31-1.27c0.78,0.37,1.57,0.77,2.34,1.21c0.78,0.45,1.5,0.92,2.18,1.39
	c0.07,0.83,0.11,1.69,0.11,2.59C20.36,16.48,20.32,17.32,20.26,18.13z M24.61,14.17c-0.78-0.74-1.67-1.47-2.62-2.18
	c-0.14-1.29-0.35-2.51-0.63-3.63C22.07,8.21,32.42,6.31,24.61,14.17z M22.16,14.44c0.43,0.36,0.84,0.71,1.21,1.06
	c-0.38,0.38-0.78,0.75-1.21,1.11c0.01-0.34,0.02-0.68,0.02-1.03C22.19,15.2,22.18,14.82,22.16,14.44z M26.87,22.02
	c-0.34,0.6-1.43,0.96-2.92,0.96c-0.78,0-1.65-0.1-2.56-0.28c0.27-1.11,0.47-2.31,0.6-3.58c0.97-0.75,1.86-1.52,2.64-2.3
	C26.65,19.09,27.41,21.09,26.87,22.02z"/>
</svg>
