<?xml version="1.0" encoding="utf-8"?>
<!-- Generator: Adobe Illustrator 18.1.0, SVG Export Plug-In . SVG Version: 6.00 Build 0)  -->
<svg version="1.1" id="Info_Sign" xmlns="http://www.w3.org/2000/svg" xmlns:xlink="http://www.w3.org/1999/xlink" x="0px" y="0px"
	 viewBox="0 0 31.18 31.18" enable-background="new 0 0 31.18 31.18" xml:space="preserve">
<g>
	<path d="M18.56,3.36c1.64,0,2.46,1.12,2.46,2.39c0,1.6-1.42,3.07-3.27,3.07c-1.55,0-2.46-0.92-2.41-2.43
		C15.33,5.12,16.41,3.36,18.56,3.36z M13.52,27.82c-1.29,0-2.24-0.8-1.34-4.31l1.48-6.23c0.26-1,0.3-1.4,0-1.4
		c-0.39,0-2.07,0.69-3.06,1.37l-0.65-1.08c3.15-2.67,6.77-4.24,8.32-4.24c1.29,0,1.51,1.56,0.86,3.95l-1.7,6.54
		c-0.3,1.16-0.17,1.56,0.13,1.56c0.39,0,1.66-0.48,2.91-1.48l0.73,1C18.16,26.62,14.82,27.82,13.52,27.82z"/>
</g>
</svg>
