<?xml version="1.0" encoding="utf-8"?>
<!-- Generator: Adobe Illustrator 18.1.0, SVG Export Plug-In . SVG Version: 6.00 Build 0)  -->
<svg version="1.1" id="Layer_1" xmlns="http://www.w3.org/2000/svg" xmlns:xlink="http://www.w3.org/1999/xlink" x="0px" y="0px"
	 viewBox="-9.26 437.93 865.65 98.83" enable-background="new -9.26 437.93 865.65 98.83" xml:space="preserve">
<polygon fill="#D53A81" points="556.16,478.3 448.97,470.74 291.18,470.74 216.35,536.64 556.53,536.88 "/>
<path fill="#95CECA" d="M856.3,437.93c-74.83,0-475.04,28.08-475.04,40.84c0,4.82,131.07,11.18,131.07,32.16
	c0,13.04-35.91,25.95-35.91,25.95h380.21C856.63,536.88,856.3,494.12,856.3,437.93z"/>
<path fill="#95CECA" d="M-9.26,443.05c123.23-1.5,443.5,27.69,443.5,27.69s-104.05-0.96-104.05,13.32c0,7.21,86.4,11.8,86.79,24.76
	c0.28,9.36-106.89,21.46-151.47,28.07c-98.27,0-274.39,0-274.39,0S-9.26,507.34-9.26,443.05z"/>
<path fill="#95CECA" d="M442.79,460.58c0-0.04-0.02-0.08-0.05-0.11c-0.03-0.03-0.07-0.05-0.11-0.05h-4.58
	c-0.04,0-0.08,0.02-0.11,0.05s-0.05,0.07-0.05,0.11c0.02,2.86-0.24,5.6-0.81,8.17c-0.87-3.75-1.29-7.76-1.25-11.96
	c0-0.06-0.02-0.11-0.06-0.15c-0.04-0.04-0.1-0.06-0.15-0.06h-6.36c-0.06,0-0.11,0.02-0.15,0.06c-0.04,0.04-0.06,0.1-0.06,0.15
	c0.04,4.69-0.49,9.16-1.58,13.28c-0.02,0.06-0.01,0.13,0.04,0.18c0.05,0.05,0.1,0.09,0.17,0.09h16.09l0,0
	c0.09,0,0.15-0.07,0.15-0.15c0-0.02-0.01-0.03-0.01-0.05C443.15,467.17,442.76,463.96,442.79,460.58z"/>
</svg>
