<?xml version="1.0" encoding="utf-8"?>
<!-- Generator: Adobe Illustrator 18.1.0, SVG Export Plug-In . SVG Version: 6.00 Build 0)  -->
<svg version="1.1" id="Layer_1" xmlns="http://www.w3.org/2000/svg" xmlns:xlink="http://www.w3.org/1999/xlink" x="0px" y="0px"
	 viewBox="0 0 31.18 31.18" enable-background="new 0 0 31.18 31.18" xml:space="preserve">
<g>
	<ellipse cx="5.31" cy="10.35" rx="3.68" ry="3.74"/>
	<path d="M15.71,12.46c0.46,0,0.89-0.1,1.25-0.29c0.39,0.66,1.22,1.12,2.18,1.12c0.9,0,1.68-0.4,2.09-0.99
		c0.29,0.1,0.62,0.16,0.96,0.16c1.31,0,2.37-0.85,2.41-1.91c-0.1,0.01-0.21,0.02-0.32,0.02c-0.96,0-1.79-0.46-2.18-1.12
		c-0.37,0.18-0.79,0.29-1.25,0.29c-1.33,0-2.41-0.88-2.41-1.96c0-0.21,0.04-0.42,0.12-0.61c-0.98,0.12-1.77,0.72-1.99,1.5
		c-0.27-0.08-0.56-0.13-0.86-0.13c-1.33,0-2.41,0.88-2.41,1.96C13.3,11.58,14.38,12.46,15.71,12.46z"/>
	<path d="M21.69,8.92c0.46,0,0.89-0.1,1.25-0.29c0.39,0.66,1.22,1.12,2.17,1.12c0.9,0,1.68-0.4,2.09-0.99
		c0.29,0.1,0.62,0.16,0.96,0.16c1.33,0,2.41-0.88,2.41-1.96c0-1.08-1.08-1.96-2.41-1.96c-0.32,0-0.63,0.05-0.91,0.15
		c-0.24-0.88-1.2-1.54-2.36-1.54c-1.15,0-2.11,0.65-2.35,1.53C22.29,5.04,22,4.99,21.69,4.99c-1.33,0-2.41,0.88-2.41,1.96
		C19.28,8.04,20.36,8.92,21.69,8.92z"/>
	<path d="M25.97,21.22c-0.99-1.51-2.02-3.06-3.24-4.14c-1.21-1.07-2.29-1.49-3.3-1.31c-1.57,0.29-2.46,1.94-3.32,3.54
		c-0.66,1.24-1.35,2.52-2.16,2.69c-0.41,0.09-0.93-0.12-1.53-0.59c-0.27-0.23-0.55-0.5-0.85-0.8c-1.05-1.06-2.5-2.5-4.53-1.58
		c-1.51,0.65-2.32,2.2-3.11,3.7c-0.83,1.58-1.62,3.08-3.12,3.48H0.59v1.38H30.5v-1.39C28.69,25.34,27.31,23.24,25.97,21.22z"/>
</g>
</svg>
