<?xml version="1.0" encoding="utf-8"?>
<!-- Generator: Adobe Illustrator 18.1.0, SVG Export Plug-In . SVG Version: 6.00 Build 0)  -->
<svg version="1.1" id="Menu_Button_Of_Three_Horizontal_Lines"
	 xmlns="http://www.w3.org/2000/svg" xmlns:xlink="http://www.w3.org/1999/xlink" x="0px" y="0px" viewBox="0 0 31.18 31.18"
	 enable-background="new 0 0 31.18 31.18" xml:space="preserve">
<g>
	<path d="M26.53,3.34H4.65c-1.44,0-2.62,1.18-2.62,2.62s1.18,2.62,2.62,2.62h21.87c1.44,0,2.62-1.18,2.62-2.62
		S27.97,3.34,26.53,3.34z"/>
	<path d="M26.53,12.97H4.65c-1.44,0-2.62,1.18-2.62,2.62s1.18,2.62,2.62,2.62h21.87c1.44,0,2.62-1.18,2.62-2.62
		S27.97,12.97,26.53,12.97z"/>
	<path d="M26.53,22.59H4.65c-1.44,0-2.62,1.18-2.62,2.62s1.18,2.62,2.62,2.62h21.87c1.44,0,2.62-1.18,2.62-2.62
		S27.97,22.59,26.53,22.59z"/>
</g>
</svg>
