<?xml version="1.0" encoding="utf-8"?>
<!-- Generator: Adobe Illustrator 18.1.0, SVG Export Plug-In . SVG Version: 6.00 Build 0)  -->
<svg version="1.1" id="Layer_1" xmlns="http://www.w3.org/2000/svg" xmlns:xlink="http://www.w3.org/1999/xlink" x="0px" y="0px"
	 viewBox="0 0 31.18 31.18" enable-background="new 0 0 31.18 31.18" xml:space="preserve">
<path d="M29.54,16.73c-0.7-1.03-6.33-9.26-6.89-10.07c-1.39-1.99-2.08-2.56-3.12-2.56c-1.05,0-2,0.75-2.17,1.68
	c-0.03,0.18-0.21,3.06-0.31,4.7c-0.58,0-0.56-0.42-0.96-0.83c-0.07-0.07-0.94-0.07-1.01,0c-0.4,0.41-0.38,0.83-0.96,0.83
	c-0.1-1.64-0.28-4.52-0.31-4.7c-0.16-0.93-1.12-1.68-2.17-1.68c-1.04,0-1.73,0.57-3.12,2.56C7.95,7.47,2.33,15.7,1.63,16.73
	C1.05,17.58,0.6,19.2,0.6,20.14c0,3.84,3.08,6.95,6.83,6.95c3.74,0,6.82-3.11,6.82-6.95c0,0,0-1.48,0-1.75
	c0-0.68-0.03-1.03,0.75-1.03c0.16,0,1.03,0,1.19,0c0.77,0,0.86,0.36,0.86,1.03c0,0.27,0,1.75,0,1.75c0,3.84,3.02,6.95,6.76,6.95
	c3.75,0,6.78-3.11,6.78-6.95C30.58,19.2,30.12,17.58,29.54,16.73z M17.85,7.76c0.6-0.89,1.55-1.34,2.74-1.31
	c0.86,0.02,1.55,0.29,1.58,0.31c0.18,0.07,0.27,0.29,0.2,0.47c-0.07,0.19-0.28,0.28-0.46,0.21c-0.02-0.01-0.62-0.24-1.36-0.26
	c-0.94-0.02-1.65,0.32-2.12,1c-0.07,0.1-0.18,0.16-0.29,0.16c-0.07,0-0.14-0.02-0.2-0.07C17.77,8.15,17.73,7.93,17.85,7.76z
	 M9.01,6.75c0.03-0.01,0.72-0.28,1.58-0.31c1.19-0.03,2.14,0.42,2.74,1.31c0.11,0.17,0.07,0.39-0.09,0.51
	c-0.06,0.04-0.13,0.07-0.2,0.07c-0.11,0-0.22-0.05-0.29-0.16c-1.13-1.66-3.45-0.75-3.48-0.74C9.08,7.51,8.88,7.41,8.8,7.23
	C8.73,7.04,8.82,6.83,9.01,6.75z M7.39,25.14c-2.7,0-4.89-2.25-4.89-5.01c0-2.76,2.19-5,4.89-5c2.69,0,4.88,2.24,4.88,5
	C12.27,22.89,10.08,25.14,7.39,25.14z M15.59,14.7c-1.75,0-3.16-0.58-3.16-1.3s1.42-1.3,3.16-1.3c1.75,0,3.16,0.58,3.16,1.3
	S17.33,14.7,15.59,14.7z M23.78,25.14c-2.69,0-4.88-2.25-4.88-5.01c0-2.76,2.19-5,4.88-5c2.7,0,4.89,2.24,4.89,5
	C28.67,22.89,26.48,25.14,23.78,25.14z"/>
</svg>
