<?xml version="1.0" encoding="utf-8"?>
<!-- Generator: Adobe Illustrator 18.1.0, SVG Export Plug-In . SVG Version: 6.00 Build 0)  -->
<svg version="1.1" id="Layer_1" xmlns="http://www.w3.org/2000/svg" xmlns:xlink="http://www.w3.org/1999/xlink" x="0px" y="0px"
	 viewBox="0 0 31.18 31.18" enable-background="new 0 0 31.18 31.18" xml:space="preserve">
<g>
	<path d="M9.86,18.65c0.42-0.36,0.7-0.78,0.85-1.2c0.14-0.39,0.17-0.78,0.16-1.2h2.16V14.5h-2.38c-0.1-0.42-0.16-0.83-0.16-1.27
		c0-0.81,0.38-1.59,1.62-1.59c0.64,0,1.13,0.12,1.46,0.3L14,9.99c-0.38-0.2-1.1-0.41-2.05-0.41c-2.33,0-3.93,1.41-3.93,3.55
		c0,0.46,0.05,0.95,0.14,1.37H6.77v1.75h1.7c0.04,0.24,0.05,0.44,0.05,0.68c0,1.15-1.03,2.12-1.95,2.49v1.37h7.93v-2.1H9.86V18.65z"
		/>
	<path d="M10.82,5.59c-5.65,0-10.23,4.47-10.23,9.98c0,5.51,4.58,9.98,10.23,9.98c5.65,0,10.23-4.47,10.23-9.98
		C21.05,10.06,16.47,5.59,10.82,5.59z M10.82,23.37c-4.42,0-8-3.49-8-7.8c0-4.31,3.58-7.8,8-7.8c4.42,0,8,3.49,8,7.8
		C18.82,19.88,15.24,23.37,10.82,23.37z"/>
	<path d="M25.91,15.61c0-5.51-4.58-9.98-10.23-9.98c-0.31,0-0.61,0.02-0.91,0.04c1.81,0.6,3.4,1.66,4.64,3.03
		c2.54,1.31,4.27,3.91,4.27,6.9c0,2.99-1.73,5.59-4.27,6.9c-1.23,1.37-2.83,2.43-4.64,3.03c0.3,0.03,0.6,0.04,0.91,0.04
		C21.33,25.59,25.91,21.12,25.91,15.61z"/>
	<path d="M20.36,5.64c-0.31,0-0.61,0.02-0.91,0.04c1.81,0.6,3.4,1.66,4.64,3.03c2.54,1.31,4.27,3.91,4.27,6.9
		c0,2.99-1.73,5.59-4.27,6.9c-1.23,1.37-2.83,2.43-4.64,3.03c0.3,0.03,0.6,0.04,0.91,0.04c5.65,0,10.23-4.47,10.23-9.98
		C30.59,10.1,26.01,5.64,20.36,5.64z"/>
</g>
</svg>
