<?xml version="1.0" encoding="utf-8"?>
<!-- Generator: Adobe Illustrator 18.1.0, SVG Export Plug-In . SVG Version: 6.00 Build 0)  -->
<svg version="1.1" id="Layer_1" xmlns="http://www.w3.org/2000/svg" xmlns:xlink="http://www.w3.org/1999/xlink" x="0px" y="0px"
	 viewBox="0 0 31.18 31.18" enable-background="new 0 0 31.18 31.18" xml:space="preserve">
<g>
	<path d="M12.6,16.39c-0.55,0.86-1.14,1.7-1.84,2.45c-1.65,1.77-3.79,2.24-6.11,2.12c-2.08-0.11-2.07,3.19,0,3.3
		c4.35,0.23,7.43-1.7,9.88-4.97c-0.4-0.54-0.78-1.08-1.12-1.6C13.13,17.26,12.86,16.82,12.6,16.39z"/>
	<path d="M16.8,13.77c0.22,0.36,0.44,0.71,0.67,1.06c0.41-0.58,0.84-1.13,1.33-1.65c1.24-1.31,2.65-1.84,4.19-2
		c-0.1,0.12-0.19,0.24-0.29,0.36c-0.57,0.69-0.66,1.66,0,2.33c0.58,0.59,1.71,0.69,2.28,0c0.87-1.06,1.71-2.15,2.58-3.21
		c0.57-0.58,0.79-1.56,0.08-2.34l-2.9-3.22c-1.41-1.57-3.69,0.77-2.28,2.33l0.38,0.42c-1.58,0.12-3.11,0.53-4.51,1.46
		c-1.05,0.7-1.94,1.6-2.73,2.58c0.16,0.23,0.32,0.46,0.47,0.7C16.32,12.99,16.56,13.39,16.8,13.77z"/>
	<path d="M24.98,17.3c-0.27-0.33-0.68-0.48-1.09-0.48c-0.44,0-0.89,0.17-1.19,0.48c-0.66,0.68-0.57,1.65,0,2.33
		c0.1,0.12,0.19,0.24,0.29,0.36c-1.55-0.15-2.96-0.69-4.19-2c-0.7-0.74-1.3-1.56-1.85-2.41c-0.54-0.82-1.05-1.67-1.58-2.5
		c-0.1-0.16-0.21-0.31-0.31-0.47C12.64,9.09,9.64,6.9,5.34,6.9c-0.22,0-0.45,0.01-0.68,0.02c-2.04,0.11-2.08,3.3-0.1,3.3
		c0.03,0,0.07,0,0.1,0c0.22-0.01,0.44-0.02,0.66-0.02c2.06,0,3.96,0.54,5.44,2.14c0.91,0.98,1.63,2.11,2.34,3.25
		c0.33,0.54,0.67,1.08,1.01,1.61c0.3,0.46,0.61,0.91,0.93,1.35c0.92,1.26,1.97,2.43,3.27,3.3c1.41,0.94,2.93,1.35,4.51,1.46
		l-0.38,0.42c-1.08,1.2,0.01,2.85,1.21,2.85c0.37,0,0.74-0.15,1.07-0.52l2.9-3.22c0.7-0.78,0.49-1.75-0.08-2.34
		C26.69,19.46,25.85,18.36,24.98,17.3z"/>
</g>
</svg>
