<?xml version="1.0" encoding="utf-8"?>
<!-- Generator: Adobe Illustrator 18.1.1, SVG Export Plug-In . SVG Version: 6.00 Build 0)  -->
<!DOCTYPE svg PUBLIC "-//W3C//DTD SVG 1.1//EN" "http://www.w3.org/Graphics/SVG/1.1/DTD/svg11.dtd">
<svg version="1.1" id="Layer_1" xmlns="http://www.w3.org/2000/svg" xmlns:xlink="http://www.w3.org/1999/xlink" x="0px" y="0px"
	 viewBox="0 0 218.45 215.01" enable-background="new 0 0 218.45 215.01" xml:space="preserve">
<g display="none">
	<g display="inline">
		<path fill="#010202" d="M21.14,182.53v-0.25c0-23.39,3.99-42.2,7.5-58.78c2.74-12.92,5.1-24.07,5.1-34.91
			c0-0.09,0.03-9.32-1.65-20.77c-1.55-10.55-4.9-25.19-12.07-35.03l-0.29-0.4h93.53l-0.15,0.35c-0.14,0.34-14.23,34.15-14.23,54.2
			c0,8.08,2.67,17.74,5.76,28.93c4.76,17.24,10.69,38.69,10.69,66.41v0.25H21.14z M65.4,168.87c0.17,0.22,0.44,0.35,0.72,0.35
			c0.51,0,0.92-0.41,0.92-0.92l-3.32-26.9c-0.04-0.18-0.06-0.38-0.07-0.58c-0.01-0.04-0.01-0.1-0.01-0.17c0-1.99,1.55-3.62,3.5-3.75
			v-0.01l0.25-0.02h18.37c2.56-0.2,4.59-2.39,4.59-4.99c0-0.68-0.13-1.33-0.39-1.94l-0.02-0.05l-0.25-0.49L69.95,89.57
			c-0.16-0.27-0.45-0.44-0.78-0.44c-0.5,0-0.92,0.41-0.92,0.92l3.34,27.06c0.01,0.06,0.02,0.14,0.03,0.22
			c0.01,0.11,0.02,0.24,0.02,0.37c0,1.99-1.55,3.62-3.5,3.75v0.01l-0.25,0.02H49.54c-2.58,0.21-4.6,2.39-4.6,4.99
			c0,0.76,0.17,1.49,0.5,2.17l19.89,40.15l0.06,0.03L65.4,168.87z"/>
		<path fill="#FFFFFF" d="M112.88,32.65c0,0-14.25,33.97-14.25,54.3s16.45,49.26,16.45,95.34c0,0-66.18,0-93.69,0
			c0-41.47,12.61-68.81,12.61-93.69c0,0,0.18-36.81-13.77-55.94c0,0,16.31,0,47.01,0C97.93,32.65,112.88,32.65,112.88,32.65
			 M66.12,169.47c0.64,0,1.17-0.52,1.17-1.17c0-0.02,0-0.05-0.01-0.08l-0.02-0.16v0l-3.3-26.69c-0.04-0.18-0.06-0.37-0.07-0.56
			c-0.01-0.05-0.01-0.11-0.01-0.16c0-1.93,1.57-3.5,3.5-3.5v-0.02h17.54h0.83c2.7-0.21,4.84-2.47,4.84-5.24
			c0-0.72-0.14-1.41-0.41-2.04c0,0,0,0,0-0.01l-0.27-0.54L70.26,89.62l-0.08-0.16c-0.2-0.34-0.58-0.58-1-0.58
			c-0.64,0-1.17,0.52-1.17,1.17c0,0.01,0,0.02,0,0.03l0.03,0.22l3.31,26.83c0.01,0.07,0.02,0.14,0.02,0.21
			c0.01,0.11,0.02,0.23,0.02,0.34c0,1.93-1.57,3.5-3.5,3.5v0.02H50.37h-0.84c-2.7,0.21-4.84,2.47-4.84,5.24
			c0,0.82,0.19,1.59,0.52,2.28l19.81,39.96l0.12,0.26c0.01,0,0.01,0,0.01,0.01C65.36,169.26,65.72,169.47,66.12,169.47
			 M113.64,32.15h-0.75H67.23H20.23h-0.98l0.58,0.79c7.15,9.8,10.49,24.39,12.03,34.91c1.68,11.43,1.65,20.64,1.65,20.74
			c0,10.81-2.36,21.95-5.1,34.86c-3.52,16.6-7.51,35.42-7.51,58.84v0.5h0.5h93.69h0.5v-0.5c0-27.76-5.93-49.22-10.7-66.47
			c-3.09-11.17-5.75-20.82-5.75-28.86c0-10.43,3.86-24.58,7.1-34.61c3.52-10.89,7.08-19.41,7.11-19.49L113.64,32.15L113.64,32.15z
			 M68.51,90.06c0.01-0.39,0.31-0.67,0.67-0.67c0.24,0,0.45,0.12,0.57,0.33l0.06,0.13l19.67,39.68l0.25,0.5l0.01,0.03
			c0.24,0.58,0.37,1.2,0.37,1.84c0,2.47-1.92,4.55-4.38,4.74l-0.79,0H67.4h-0.5v0.05c-1.97,0.25-3.5,1.93-3.5,3.97
			c0,0.07,0,0.15,0.01,0.22c0,0.16,0.03,0.38,0.07,0.6l3.29,26.63l0,0.02l0.02,0.16l0,0.02c-0.01,0.37-0.31,0.67-0.67,0.67
			c-0.17,0-0.34-0.07-0.47-0.19v-0.13l-0.13-0.07l-0.05-0.11l-19.81-39.97c-0.31-0.64-0.47-1.33-0.47-2.05
			c0-2.47,1.92-4.55,4.38-4.74l0.8,0h17.52h0.5v-0.05c1.97-0.25,3.5-1.93,3.5-3.97c0-0.14-0.01-0.27-0.02-0.4
			c-0.01-0.08-0.01-0.16-0.03-0.25l-3.31-26.8L68.51,90.06L68.51,90.06z"/>
	</g>
	<path display="inline" fill="#010202" d="M198.23,182.43c0-41-14.5-66.22-14.5-84.06S196.16,50,196.16,50s-13.12,0-40.06,0
		s-41.25,0-41.25,0c12.25,17,12.09,49.81,12.09,49.81c0,16.54-6.34,34.26-9.42,57.87c0.97,7.61,1.57,15.69,1.57,24.69 M172.6,142
		h-0.69h-14.87v0.74c-1,0-2.72,1.3-2.72,2.9c0,0.04,0.09,0.09,0.1,0.13c0.01,0.16-0.06,0.31-0.03,0.46l2.65,22.07v0l0.14,0.13
		c0.01,0.02,0.07,0.04,0.07,0.06c0,0.54-0.4,0.97-0.94,0.97c-0.33,0-0.61-0.17-0.78-0.43c0,0,0.01,0,0,0l-0.1-0.21l-16.38-33.05
		c-0.28-0.57-0.43-1.49-0.43-2.16c0-2.28,1.77-4.61,4-4.61h0.69h14.72v0.54c1,0,2.78-1.3,2.78-2.9c0-0.1-0.06-0.19-0.07-0.28
		c-0.01-0.06-0.04-0.12-0.05-0.17L158.02,104l0.03-0.18c0-0.01,0-0.02,0-0.03c0-0.53,0.36-0.97,0.9-0.97c0.35,0,0.63,0.19,0.8,0.48
		l0.05,0.14l16.15,32.82l0.11,0.45c0,0,0,0,0,0c0,0.52,0.45,0.73,0.45,1.32C176.49,140.31,174.84,142,172.6,142z"/>
</g>
<path display="none" fill="none" stroke="#010202" stroke-miterlimit="10" d="M109.23,107.54"/>
<g>
	<path fill="#010202" stroke="#FFFFFF" stroke-miterlimit="10" d="M22.99,149.5c27.51,0,93.69,0,93.69,0
		c0-46-16.45-74.69-16.45-95.02S114.48,0.5,114.48,0.5s-14.95,0-45.65,0c-30.7,0-47.01,0-47.01,0c13.96,19,13.77,55.63,13.77,55.63
		C35.6,81.01,22.99,108.5,22.99,149.5z"/>
	<path fill="#010202" d="M199.83,149.57c0-41-14.5-65.79-14.5-83.63S197.76,18,197.76,18s-13.12,0-40.06,0s-41.25,0-41.25,0
		c12.25,17,12.09,49.38,12.09,49.38c0,16.54-6.34,34.04-9.42,57.65c0.97,7.61,1.57,15.59,1.57,24.59"/>
	<path fill="none" stroke="#010202" stroke-miterlimit="10" d="M55.04,141.08"/>
	<rect x="0" y="148.54" fill="#010202" width="218.45" height="7.93"/>
	<g>
		<line fill="none" stroke="#010202" stroke-width="7" stroke-miterlimit="10" x1="97.55" y1="152" x2="97.55" y2="174"/>
		<line fill="none" stroke="#010202" stroke-width="7" stroke-miterlimit="10" x1="82.55" y1="152" x2="82.55" y2="174"/>
		<line fill="none" stroke="#010202" stroke-width="7" stroke-miterlimit="10" x1="67.55" y1="152" x2="67.55" y2="174"/>
		<line fill="none" stroke="#010202" stroke-width="7" stroke-miterlimit="10" x1="52.55" y1="152" x2="52.55" y2="174"/>
		<line fill="none" stroke="#010202" stroke-width="7" stroke-miterlimit="10" x1="37.55" y1="152" x2="37.55" y2="174"/>
	</g>
	<rect x="24.38" y="173.92" fill="#010202" width="85.21" height="41.09"/>
	<g>
		<line fill="none" stroke="#010202" stroke-width="7" stroke-miterlimit="10" x1="192.55" y1="152" x2="192.55" y2="174"/>
		<line fill="none" stroke="#010202" stroke-width="7" stroke-miterlimit="10" x1="177.55" y1="152" x2="177.55" y2="174"/>
		<line fill="none" stroke="#010202" stroke-width="7" stroke-miterlimit="10" x1="162.55" y1="152" x2="162.55" y2="174"/>
		<line fill="none" stroke="#010202" stroke-width="7" stroke-miterlimit="10" x1="147.55" y1="152" x2="147.55" y2="174"/>
		<line fill="none" stroke="#010202" stroke-width="7" stroke-miterlimit="10" x1="132.55" y1="152" x2="132.55" y2="174"/>
	</g>
	<rect x="119.46" y="173.92" fill="#010202" width="85.21" height="41.09"/>
</g>
<g display="none">
	<path display="inline" fill="#010202" stroke="#FFFFFF" stroke-miterlimit="10" d="M22.99,178.5c27.51,0,93.69,0,93.69,0
		c0-46-16.45-74.69-16.45-95.02s14.25-53.98,14.25-53.98s-14.95,0-45.65,0c-30.7,0-47.01,0-47.01,0
		c13.96,19,13.77,55.63,13.77,55.63C35.6,110.01,22.99,137.5,22.99,178.5z"/>
	<path display="inline" fill="#010202" d="M199.83,178.84c0-41-14.5-65.92-14.5-83.76S197.76,47,197.76,47s-13.12,0-40.06,0
		s-41.25,0-41.25,0c12.25,17,12.09,49.52,12.09,49.52c0,16.54-6.34,34.11-9.42,57.72c0.97,7.61,1.57,15.62,1.57,24.62"/>
	<path display="inline" fill="none" stroke="#010202" stroke-miterlimit="10" d="M55.04,170.35"/>
	<rect x="0" y="177.81" display="inline" fill="#010202" width="218.45" height="7.93"/>
</g>
<g display="none">
	<path display="inline" fill="#010202" d="M21.39,182c27.51,0,93.69,0,93.69,0c0-46-16.45-74.69-16.45-95.02S112.88,33,112.88,33
		s-14.95,0-45.65,0c-30.7,0-47.01,0-47.01,0C34.18,52,34,88.63,34,88.63C34,113.51,21.39,141,21.39,182z M67.96,146.6
		c-4.19,0-7.58-3.39-7.58-7.58c0-4.19,3.39-7.58,7.58-7.58c4.19,0,7.58,3.39,7.58,7.58C75.54,143.2,72.14,146.6,67.96,146.6z
		 M95.16,138c1.76,0,3.46,0.69,4.65,1.99c1.19,1.3,1.8,3,1.67,4.76c-0.14,1.96-0.51,3.87-1.07,5.75c-0.56,1.85-1.33,3.63-2.28,5.32
		c-0.95,1.68-2.09,3.26-3.38,4.69c-1.31,1.45-2.78,2.75-4.38,3.88c-1.12,0.79-2.43,1.19-3.79,1.18c-1.1-0.01-2.18-0.32-3.13-0.87
		c-0.96-0.56-1.76-1.36-2.33-2.33L75,151.87c-0.67-1.14-0.96-2.45-0.85-3.77c0.11-1.3,0.6-2.52,1.43-3.53
		c0.57-0.7,1.09-1.73,1.39-2.46c0.32-1.16,1-2.21,1.94-2.98c1.05-0.86,2.38-1.24,3.74-1.24L95.07,138C95.1,138,95.13,138,95.16,138z
		 M53.42,111.14c0.56-1.7,1.82-3.09,3.46-3.83c1.7-0.77,3.49-1.35,5.31-1.74c1.8-0.39,3.65-0.58,5.5-0.58
		c2.02,0,4.04,0.23,6.01,0.69c1.99,0.46,3.93,1.16,5.77,2.07c1.59,0.79,2.8,2.22,3.3,3.92c0.51,1.71,0.28,3.56-0.63,5.09l-6.32,10.7
		c-0.53,0.9-1.29,1.64-2.19,2.14c-0.88,0.49-1.87,0.75-2.87,0.75c-0.52,0-1.03-0.07-1.53-0.2c-0.33-0.05-0.98-0.12-1.71-0.12h0
		c-0.42,0-0.79,0.02-1.11,0.07c-0.32,0.05-0.64,0.07-0.96,0.07c-2.33,0-4.48-1.26-5.61-3.29l-5.92-10.6
		C53.04,114.71,52.85,112.83,53.42,111.14z M36.24,139.99c1.19-1.3,2.89-1.99,4.65-1.99c0.03,0,0.06,0,0.08,0l12.43-0.11
		c1.36,0,2.69,0.43,3.74,1.29c0.93,0.77,1.61,1.79,1.94,2.95c0.3,0.73,0.82,1.74,1.4,2.44c0.82,1.01,1.32,2.23,1.43,3.53
		c0.11,1.32-0.18,2.62-0.85,3.76l-6.11,10.48c-0.56,0.97-1.37,1.77-2.33,2.33c-0.95,0.55-2.03,0.85-3.13,0.87
		c-1.36,0.02-2.67-0.39-3.79-1.18c-1.6-1.12-3.07-2.43-4.38-3.88c-1.29-1.43-2.43-3.01-3.38-4.7c-0.95-1.68-1.72-3.48-2.28-5.33
		c-0.57-1.87-0.93-3.77-1.07-5.72C34.44,142.99,35.05,141.28,36.24,139.99z"/>
	<path display="inline" fill="#010202" d="M183.72,98.16c0-17.84,12.44-48.16,12.44-48.16s-13.12,0-40.06,0s-41.25,0-41.25,0
		c12.25,17,12.09,49.62,12.09,49.62c0,16.54-6.34,34.14-9.42,57.75c0.97,7.61,1.57,15.63,1.57,24.63h79.15
		C198.23,141,183.72,116,183.72,98.16z M144.94,121.84c0.45-1.36,1.46-2.48,2.78-3.08c1.37-0.62,2.8-1.09,4.27-1.4
		c1.45-0.31,2.93-0.47,4.42-0.47c1.62,0,3.25,0.19,4.83,0.56c1.6,0.37,3.16,0.93,4.64,1.67c1.28,0.63,2.25,1.78,2.65,3.15
		c0.41,1.37,0.22,2.86-0.5,4.09l-5.07,8.6c-0.42,0.72-1.03,1.32-1.76,1.72c-0.7,0.39-1.5,0.6-2.31,0.6c-0.42,0-0.83-0.05-1.23-0.16
		c-0.27-0.04-0.79-0.1-1.38-0.1h0c-0.33,0-0.64,0.02-0.89,0.06c-0.26,0.04-0.52,0.06-0.77,0.06c-1.87,0-3.6-1.01-4.51-2.64
		l-4.75-8.51C144.63,124.71,144.49,123.2,144.94,121.84z M151.07,154.56l-4.91,8.42c-0.45,0.78-1.1,1.42-1.87,1.87
		c-0.76,0.44-1.63,0.69-2.51,0.7c-1.09,0.01-2.14-0.31-3.04-0.95c-1.28-0.9-2.47-1.95-3.52-3.12c-1.04-1.15-1.95-2.42-2.72-3.78
		c-0.76-1.35-1.38-2.79-1.83-4.28c-0.46-1.5-0.75-3.06-0.86-4.64c-0.1-1.41,0.39-2.95,1.34-3.99c0.96-1.04,2.32-1.8,3.74-1.8
		c0.02,0,0.05,0,0.07,0l9.98,0.13c1.09,0,2.16,0.45,3,1.14c0.75,0.62,1.3,1.49,1.56,2.43c0.24,0.59,0.66,1.42,1.12,1.99
		c0.66,0.81,1.06,1.8,1.15,2.85C151.84,152.59,151.6,153.64,151.07,154.56z M156.62,150.33c-3.36,0-6.09-2.73-6.09-6.09
		s2.73-6.09,6.09-6.09s6.09,2.73,6.09,6.09S159.98,150.33,156.62,150.33z M182.68,153.44c-0.45,1.49-1.07,2.93-1.83,4.28
		c-0.76,1.35-1.68,2.62-2.72,3.78c-1.05,1.17-2.24,2.22-3.52,3.12c-0.9,0.63-1.95,0.96-3.04,0.95c-0.88-0.01-1.75-0.25-2.51-0.7
		c-0.77-0.45-1.42-1.1-1.87-1.87l-4.91-8.42c-0.54-0.92-0.77-1.96-0.68-3.03c0.09-1.04,0.48-2.03,1.15-2.84
		c0.46-0.57,0.88-1.39,1.12-1.97c0.26-0.93,0.81-1.78,1.56-2.39c0.84-0.69,1.91-1.21,3-1.21l9.98-0.13c0.02,0,0.04,0,0.07,0
		c1.42,0,2.78,0.76,3.74,1.8c0.96,1.04,1.45,2.52,1.34,3.93C183.43,150.31,183.14,151.93,182.68,153.44z"/>
</g>
<g display="none">
	<path display="inline" fill="#010202" d="M184.04,98.16c0-17.84,12.44-48.16,12.44-48.16s-13.12,0-40.06,0s-41.25,0-41.25,0
		c12.25,17,12.09,49.62,12.09,49.62c0,16.54-6.34,34.14-9.42,57.75c0.97,7.61,1.57,15.63,1.57,24.63h79.15
		C198.54,141,184.04,116,184.04,98.16z M177.34,148.69c-0.3,1.49-0.74,2.94-1.28,4.33c-0.55,1.39-1.22,2.71-2,3.93
		c-0.78,1.22-1.64,2.36-2.58,3.39c-0.94,1.03-1.94,1.97-3,2.81c-1.05,0.84-2.16,1.58-3.3,2.24c-1.15,0.65-2.32,1.23-3.54,1.69
		c0.61-1.16,1.24-2.25,1.78-3.38c0.28-0.55,0.56-1.1,0.8-1.66c0.26-0.55,0.49-1.1,0.72-1.65c0.42-1.11,0.84-2.17,1.13-3.26
		c0.16-0.54,0.29-1.07,0.42-1.6c0.1-0.53,0.22-1.05,0.28-1.58c0.33-2.08,0.3-4.08,0.06-5.98c-0.27-1.91-0.79-3.73-1.5-5.51
		c-0.73-1.78-1.64-3.52-2.7-5.23c-1.07-1.7-2.28-3.38-3.6-5.01c-0.29-0.36-0.58-0.71-0.88-1.06c-0.04,0.06-0.09,0.11-0.13,0.17
		c-0.82,1.05-1.62,2-2.4,2.91l-2.23,2.59c-0.71,0.83-1.39,1.63-2.01,2.42c-0.64,0.78-1.2,1.56-1.73,2.32
		c-0.52,0.76-0.99,1.52-1.39,2.27c-0.81,1.51-1.36,3.02-1.62,4.71c-0.13,0.85-0.17,1.74-0.14,2.68c0.04,0.94,0.15,1.92,0.36,2.93
		c0.41,2.03,1.14,4.15,2.05,6.3c0.46,1.08,0.96,2.16,1.49,3.26l1.65,3.34c-0.58-0.26-1.15-0.52-1.71-0.8
		c-0.56-0.29-1.12-0.6-1.67-0.92c-1.08-0.66-2.17-1.35-3.18-2.15c-1.04-0.77-2.01-1.66-2.96-2.6c-0.96-0.94-1.81-2-2.64-3.13
		c-0.83-1.13-1.55-2.4-2.16-3.75c-0.62-1.35-1.1-2.82-1.41-4.34c-0.32-1.53-0.46-3.12-0.42-4.71c0.04-1.59,0.24-3.16,0.58-4.67
		c0.33-1.51,0.8-2.96,1.34-4.33c0.53-1.37,1.16-2.66,1.8-3.89c1.3-2.44,2.73-4.63,4.06-6.62l1.88-2.83c0.56-0.89,1.07-1.7,1.43-2.41
		c0.31-0.63,6.05-9.07,5.27-14.8c4.96,2.87,8.06,5.72,8.06,5.72l0.52,0.43l0.43,0.36l0.8,0.72c0.52,0.48,1.03,0.96,1.52,1.44
		c0.99,0.97,1.93,1.98,2.84,3.01c1.82,2.08,3.5,4.28,5.01,6.65c1.5,2.37,2.85,4.89,3.92,7.59c1.07,2.7,1.88,5.57,2.27,8.56
		C177.99,142.6,177.93,145.71,177.34,148.69z"/>
	<path display="inline" fill="#010202" d="M21.08,182c27.51,0,93.69,0,93.69,0c0-46-16.45-74.69-16.45-95.02S112.57,33,112.57,33
		s-14.95,0-45.65,0c-30.7,0-47.01,0-47.01,0c13.96,19,13.77,55.63,13.77,55.63C33.68,113.51,21.08,141,21.08,182z M44.06,136.23
		c0.38-1.72,0.91-3.37,1.52-4.93c0.6-1.57,1.32-3.03,2.05-4.43c1.49-2.78,3.11-5.27,4.63-7.54l2.14-3.22
		c0.64-1.01,1.21-1.94,1.63-2.74c0.36-0.72,6.89-10.33,6-16.86c5.65,3.27,9.18,6.52,9.18,6.52l0.59,0.49l0.49,0.41l0.91,0.82
		c0.6,0.54,1.17,1.09,1.73,1.64c1.13,1.1,2.19,2.26,3.24,3.43c2.07,2.36,3.99,4.88,5.71,7.58c1.71,2.7,3.25,5.57,4.47,8.65
		c1.22,3.07,2.14,6.35,2.59,9.75c0.45,3.4,0.38,6.94-0.29,10.33c-0.34,1.7-0.84,3.35-1.46,4.93c-0.62,1.58-1.39,3.08-2.28,4.47
		c-0.89,1.39-1.86,2.69-2.94,3.86c-1.08,1.17-2.21,2.25-3.42,3.2c-1.2,0.96-2.46,1.8-3.76,2.56c-1.3,0.74-2.64,1.4-4.03,1.93
		c0.69-1.33,1.41-2.57,2.03-3.85c0.32-0.63,0.63-1.25,0.91-1.89c0.29-0.63,0.56-1.25,0.82-1.87c0.48-1.26,0.96-2.47,1.28-3.71
		c0.18-0.61,0.33-1.22,0.48-1.82c0.11-0.61,0.25-1.2,0.32-1.8c0.37-2.37,0.35-4.65,0.07-6.81c-0.31-2.17-0.9-4.24-1.71-6.28
		c-0.83-2.03-1.87-4.01-3.07-5.96c-1.22-1.94-2.59-3.85-4.1-5.7c-0.33-0.41-0.66-0.81-1-1.21c-0.05,0.06-0.1,0.13-0.15,0.19
		c-0.93,1.2-1.85,2.28-2.73,3.31l-2.54,2.95c-0.8,0.95-1.59,1.86-2.29,2.76c-0.73,0.89-1.37,1.78-1.97,2.65
		c-0.59,0.87-1.13,1.73-1.59,2.59c-0.92,1.72-1.55,3.44-1.85,5.37c-0.15,0.96-0.2,1.98-0.16,3.05c0.05,1.07,0.17,2.19,0.41,3.34
		c0.46,2.31,1.3,4.73,2.34,7.18c0.52,1.23,1.09,2.46,1.7,3.71l1.88,3.81c-0.66-0.3-1.31-0.59-1.95-0.92
		c-0.64-0.33-1.27-0.69-1.9-1.05c-1.23-0.75-2.47-1.54-3.62-2.45c-1.19-0.88-2.29-1.89-3.37-2.96c-1.09-1.07-2.06-2.28-3.01-3.57
		c-0.94-1.29-1.76-2.73-2.46-4.27c-0.7-1.54-1.25-3.21-1.61-4.95c-0.36-1.74-0.52-3.55-0.48-5.36
		C43.45,139.75,43.68,137.95,44.06,136.23z"/>
</g>
<g display="none">
	<path display="inline" fill="#010202" d="M151.81,51.89c-1.4-1.71-2.55-3.7-3.43-5.73c-5.55-12.86-20.65-12.14-20.65-12.14H91.84
		c-11.74,0-17.5,6.49-20.32,12.64c-0.89,1.94-2.09,3.82-3.53,5.44c-2.38,2.69-7.39,3.21-9.97,4.01c-4.5,1.4-6.96,4.7-9.52,10.51
		c0,0-1.11,2.5-2.47,5.59c-1.36,3.09,2.67,5.59,9.01,5.59h109.09c6.35,0,9.93-2.64,8.02-5.9l-3.47-5.9
		c-3.22-5.47-5.38-7.43-8.79-9.9C158.58,55.15,154.15,54.75,151.81,51.89z M103.02,45.38h24.31c4.19,0,6.89,1.32,8.62,3.08
		c1.44,1.46,1.44,3.11,0.53,4.57c-1.46,2.36-9.01,3.08-15.35,3.08H97.78c-6.34,0-13.59-0.71-14.72-2.86
		c-0.68-1.29-0.62-3.06,0.36-4.6C86.17,44.34,96.85,45.38,103.02,45.38z"/>
	<path display="inline" fill="#010202" d="M150.66,85H67.73c-6.34,0-10.84,5.12-10.05,11.41l9.26,73.37
		C67.72,176.08,73.5,181,79.85,181h59.33c6.34,0,12.1-4.92,12.85-11.22l8.76-73.46C161.54,90.03,157.01,85,150.66,85z
		 M141.13,133.58c0,0,2.93,6.61-2.34,9.58c0,0-2.02,2.03-8.6,1.41l-6.45-11.18l12.9-7.49L141.13,133.58z M118.6,100.83
		c0,0,3.4,0.1,7.16,6.16l4.1,6.94l2.9-1.56l-3,6.56l-3,6.57l-7.13-1.09l-7.14-1.09l4.19-2.26l-7.18-13.3c0,0-2.75-6.26-7.78-6.9
		L118.6,100.83z M85.16,157.17l-8.56-14.55c0,0-1.64-2.98,1.69-9.3l3.91-7.05l-2.82-1.71l7.18-0.74l7.18-0.73l2.67,6.71l2.67,6.71
		l-4.07-2.47l-7.84,12.93C87.18,146.97,83.17,152.52,85.16,157.17z M103.28,162l-8.89-0.15c0,0-7.16-0.91-6.98-6.96
		c0,0-0.68-2.78,3.25-8.08l12.9,0.28L103.28,162z M101.11,121.28l-12.72-7.79l4.63-7.59c0,0,4.42-5.72,9.54-2.5
		c0,0,2.75,0.82,5.33,6.9L101.11,121.28z M134.25,158.61c0,0-1.36,2.94-8.49,3.37l-7.72,0.3v3.3l-4.69-5.76l-4.52-5.76l4.61-5.76
		l4.6-5.76V147h14.44c0,0,6.82,0.7,9.77-3.41L134.25,158.61z"/>
</g>
</svg>
