<?xml version="1.0" encoding="utf-8"?>
<!-- Generator: Adobe Illustrator 18.1.0, SVG Export Plug-In . SVG Version: 6.00 Build 0)  -->
<svg version="1.1" id="XMLID_1_" xmlns="http://www.w3.org/2000/svg" xmlns:xlink="http://www.w3.org/1999/xlink" x="0px" y="0px"
	 width="612px" height="581.4px" viewBox="0 0 612 581.4" enable-background="new 0 0 612 581.4" xml:space="preserve">
<g id="landscape_x5F_down">
	<polygon fill="#FFFFFF" points="504.5366,284.9338 504.5366,351.8713 545.0625,351.8713 545.0625,514.4625 66.9375,514.4625 
		66.9375,351.8713 107.6642,351.8713 107.6642,284.9338 0,284.9338 0,581.4 612,581.4 612,284.9338 	"/>
	<path fill="#FFFFFF" d="M288.9787,0.1721c-13.923,0-25.2928,11.3603-25.2928,25.2928v281.7399l-88.8356-89.1512
		c-10.0789-9.7633-26.0865-9.7633-35.8498,0l-24.0114,24.0114c-9.7633,10.0789-9.7633,26.0865,0,35.8498l173.1864,173.1864
		c4.9629,4.963,11.3602,7.5257,17.9297,7.5257c6.5599,0,12.9667-2.5627,17.9297-7.5257l173.1769-173.1864
		c9.7633-10.0789,9.7633-26.0865,0-35.8498l-24.0114-24.0114c-10.0789-9.7633-26.0865-9.7633-35.8498,0l-89.1512,89.1512V25.2928
		C348.1993,11.2072,336.8391,0,322.9065,0L288.9787,0.1721z"/>
</g>
</svg>
