<?xml version="1.0" encoding="utf-8"?>
<!-- Generator: Adobe Illustrator 18.1.0, SVG Export Plug-In . SVG Version: 6.00 Build 0)  -->
<svg version="1.1" id="Layer_1" xmlns="http://www.w3.org/2000/svg" xmlns:xlink="http://www.w3.org/1999/xlink" x="0px" y="0px"
	 width="612px" height="581.4px" viewBox="0 0 612 581.4" enable-background="new 0 0 612 581.4" xml:space="preserve">
<polygon fill="#FFFFFF" points="427.1473,284.9338 427.1473,351.8713 545.0625,351.8713 545.0625,514.4625 66.9375,514.4625 
	66.9375,351.8713 181.4197,351.8713 181.4197,284.9338 0,284.9338 0,581.4 612,581.4 612,284.9338 "/>
<path fill="#FFFFFF" d="M323.222,458.455c13.923,0,25.2928-11.3603,25.2928-25.2928v-281.74l88.8356,89.1512
	c10.0789,9.7633,26.0865,9.7633,35.8498,0l24.0114-24.0114c9.7633-10.0789,9.7633-26.0865,0-35.8498L324.0253,7.5257
	C319.0624,2.5627,312.665,0,306.0956,0c-6.5599,0-12.9667,2.5627-17.9297,7.5257L114.989,180.7121
	c-9.7633,10.0789-9.7633,26.0865,0,35.8498l24.0114,24.0114c10.0789,9.7633,26.0865,9.7633,35.8498,0l89.1512-89.1512v281.912
	c0,14.0856,11.3603,25.2928,25.2928,25.2928L323.222,458.455z"/>
</svg>
