<?xml version="1.0" encoding="utf-8"?>
<!-- Generator: Adobe Illustrator 18.1.0, SVG Export Plug-In . SVG Version: 6.00 Build 0)  -->
<svg version="1.1" id="Layer_1" xmlns="http://www.w3.org/2000/svg" xmlns:xlink="http://www.w3.org/1999/xlink" x="0px" y="0px"
	 viewBox="0 0 841.89 595.28" enable-background="new 0 0 841.89 595.28" xml:space="preserve">
<polygon fill="#333841" points="420.95,-151.33 486.02,-148.49 420.95,595.28 550.59,-139.99 614.18,-125.89 676.3,-106.3 
	420.95,595.28 736.48,-81.38 794.25,-51.3 849.18,-16.31 420.95,595.28 900.86,23.34 948.88,67.35 992.88,115.37 420.95,595.28 
	1032.53,167.04 1067.53,221.97 1097.6,279.75 420.95,595.28 1122.53,339.92 1142.12,402.04 1156.21,465.63 420.95,595.28 
	1164.71,530.21 1167.56,595.28 420.95,595.28 420.95,595.28 -325.67,595.28 -322.82,530.21 420.95,595.28 -314.32,465.63 
	-300.23,402.04 -280.64,339.92 420.95,595.28 -255.71,279.75 -225.64,221.97 -190.64,167.04 420.95,595.28 -150.99,115.37 
	-106.99,67.35 -58.97,23.34 420.95,595.28 -7.29,-16.31 47.64,-51.3 105.41,-81.38 420.95,595.28 165.59,-106.3 227.71,-125.89 
	291.3,-139.99 420.95,595.28 355.87,-148.49 "/>
</svg>
