<svg xmlns="http://www.w3.org/2000/svg" viewBox="0 0 31.18 31.18"><path d="M20.59 8.99c0-2.42-2-4.4-4.44-4.4s-4.44 1.98-4.44 4.4h2.22c0-1.21 1-2.2 2.22-2.2 1.22 0 2.22.99 2.22 2.2 0 1.21-1 2.2-2.22 2.2H2.81v2.2h13.33c2.45.01 4.45-1.98 4.45-4.4z"/><path d="M26.14 8.99c-2.45 0-4.44 1.98-4.44 4.4h2.23c0-1.21 1-2.2 2.22-2.2 1.22 0 2.22.99 2.22 2.2 0 1.21-.99 2.2-2.22 2.2H.59v2.2h25.56c2.45 0 4.44-1.98 4.44-4.4 0-2.42-2-4.4-4.45-4.4zM22.81 19.99H7.25v2.2h15.56c.67 0 1.11.44 1.11 1.1 0 .66-.44 1.1-1.11 1.1-.67 0-1.11-.44-1.11-1.1h-2.22c0 1.76 1.45 3.3 3.33 3.3 1.89 0 3.33-1.43 3.33-3.3.01-1.87-1.44-3.3-3.33-3.3z"/></svg>