<svg xmlns="http://www.w3.org/2000/svg" viewBox="0 0 31.18 31.18"><path d="M28.88 25.3L17.28 4.04c-.17-.31-.41-.56-.71-.74-.3-.18-.63-.27-.98-.27s-.68.09-.98.27c-.3.18-.54.43-.71.74L2.3 25.3c-.35.63-.34 1.27.03 1.9.17.29.41.52.7.69.3.17.62.26.96.26h23.19c.34 0 .66-.09.96-.26.3-.17.53-.4.7-.69.38-.63.39-1.27.04-1.9zm-11.36-1.51c0 .14-.05.26-.14.35-.1.1-.21.14-.34.14h-2.9c-.13 0-.24-.05-.34-.14-.1-.1-.14-.21-.14-.35v-2.87c0-.14.05-.26.14-.35.1-.1.21-.14.34-.14h2.9c.13 0 .24.05.34.14.1.1.14.21.14.35v2.87zm-.03-5.65c-.01.1-.06.18-.16.25s-.21.1-.35.1h-2.79c-.14 0-.26-.03-.36-.1-.1-.07-.15-.15-.15-.25l-.26-6.9c0-.14.05-.25.15-.32.13-.11.25-.17.36-.17h3.32c.11 0 .23.06.36.17.1.07.15.17.15.29l-.27 6.93z"/></svg>