<?xml version="1.0" encoding="utf-8"?>
<!-- Generator: Adobe Illustrator 18.1.0, SVG Export Plug-In . SVG Version: 6.00 Build 0)  -->
<svg version="1.1" id="Left_Arrow" xmlns="http://www.w3.org/2000/svg" xmlns:xlink="http://www.w3.org/1999/xlink" x="0px" y="0px"
	 viewBox="0 0 31.18 31.18" enable-background="new 0 0 31.18 31.18" xml:space="preserve">
<path d="M3.52,16.66c0,0.87,0.71,1.58,1.58,1.58h13.12l-5.57,5.55c-0.61,0.63-0.61,1.63,0,2.24l1.5,1.5c0.63,0.61,1.63,0.61,2.24,0
	l10.82-10.82c0.31-0.31,0.47-0.71,0.47-1.12c0-0.41-0.16-0.81-0.47-1.12L16.39,3.65c-0.63-0.61-1.63-0.61-2.24,0l-1.5,1.5
	c-0.61,0.63-0.61,1.63,0,2.24l5.57,5.57H5.09c-0.88,0-1.58,0.71-1.58,1.58L3.52,16.66z"/>
</svg>
