<svg xmlns="http://www.w3.org/2000/svg" viewBox="0 0 31.18 31.18"><path d="M9.86 18.65c.42-.36.7-.78.85-1.2.14-.39.17-.78.16-1.2h2.16V14.5h-2.38c-.1-.42-.16-.83-.16-1.27 0-.81.38-1.59 1.62-1.59.64 0 1.13.12 1.46.3L14 9.99c-.38-.2-1.1-.41-2.05-.41-2.33 0-3.93 1.41-3.93 3.55 0 .46.05.95.14 1.37H6.77v1.75h1.7c.04.24.05.44.05.68 0 1.15-1.03 2.12-1.95 2.49v1.37h7.93v-2.1H9.86v-.04z"/><path d="M10.82 5.59C5.17 5.59.59 10.06.59 15.57c0 5.51 4.58 9.98 10.23 9.98s10.23-4.47 10.23-9.98c0-5.51-4.58-9.98-10.23-9.98zm0 17.78c-4.42 0-8-3.49-8-7.8s3.58-7.8 8-7.8 8 3.49 8 7.8-3.58 7.8-8 7.8z"/><path d="M25.91 15.61c0-5.51-4.58-9.98-10.23-9.98-.31 0-.61.02-.91.04 1.81.6 3.4 1.66 4.64 3.03 2.54 1.31 4.27 3.91 4.27 6.9s-1.73 5.59-4.27 6.9c-1.23 1.37-2.83 2.43-4.64 3.03.3.03.6.04.91.04 5.65.02 10.23-4.45 10.23-9.96z"/><path d="M20.36 5.64c-.31 0-.61.02-.91.04 1.81.6 3.4 1.66 4.64 3.03 2.54 1.31 4.27 3.91 4.27 6.9s-1.73 5.59-4.27 6.9c-1.23 1.37-2.83 2.43-4.64 3.03.3.03.6.04.91.04 5.65 0 10.23-4.47 10.23-9.98 0-5.5-4.58-9.96-10.23-9.96z"/></svg>