<?xml version="1.0" encoding="utf-8"?>
<!-- Generator: Adobe Illustrator 18.1.0, SVG Export Plug-In . SVG Version: 6.00 Build 0)  -->
<svg version="1.1" id="Down_Arrow_In_Circular_Button"
	 xmlns="http://www.w3.org/2000/svg" xmlns:xlink="http://www.w3.org/1999/xlink" x="0px" y="0px"
	 viewBox="179.11 56.56 483.67 482.91" enable-background="new 179.11 56.56 483.67 482.91" xml:space="preserve">
<path fill="#FFFFFF" d="M420.95,539.47c-133.34,0-241.83-108.49-241.83-241.83S287.6,55.81,420.95,55.81S662.78,164.3,662.78,297.64
	S554.29,539.47,420.95,539.47z M523.26,223.23c-8.15,0-15.4,3.53-20.5,9.1l-0.07-0.06l-81.74,89.18l-81.76-89.18l-0.07,0.06
	c-5.08-5.56-12.33-9.1-20.48-9.1c-15.4,0-27.9,12.5-27.9,27.9c0,7.27,2.85,13.82,7.4,18.81l-0.07,0.06l102.31,111.61
	c5.3,5.75,12.74,9.04,20.57,9.04c7.83,0,15.27-3.29,20.56-9.04L543.81,270l-0.07-0.06c4.58-4.99,7.42-11.53,7.42-18.81
	C551.16,235.73,538.66,223.23,523.26,223.23z"/>
</svg>
