<svg xmlns="http://www.w3.org/2000/svg" viewBox="179.11 56.56 483.67 482.91"><path fill="#FFF" d="M420.95 539.47c-133.34 0-241.83-108.49-241.83-241.83S287.6 55.81 420.95 55.81 662.78 164.3 662.78 297.64 554.29 539.47 420.95 539.47zm102.31-316.24c-8.15 0-15.4 3.53-20.5 9.1l-.07-.06-81.74 89.18-81.76-89.18-.07.06c-5.08-5.56-12.33-9.1-20.48-9.1-15.4 0-27.9 12.5-27.9 27.9 0 7.27 2.85 13.82 7.4 18.81l-.07.06 102.31 111.61c5.3 5.75 12.74 9.04 20.57 9.04s15.27-3.29 20.56-9.04L543.81 270l-.07-.06c4.58-4.99 7.42-11.53 7.42-18.81 0-15.4-12.5-27.9-27.9-27.9z"/></svg>