<svg xmlns="http://www.w3.org/2000/svg" viewBox="0 0 31.18 31.18"><path d="M26.07 19.33c0-2.4 1.72-6.46 1.72-6.46s-1.8-.87-5.51-.87-5.67.92-5.67.92c1.68 2.26 1.66 6.61 1.66 6.61 0 2.94-1.52 6.17-1.52 11.07h11.31c-.01-5.45-1.99-8.87-1.99-11.27zM1.73 30.59h11.31c0-5.44-1.98-8.86-1.98-11.26s1.72-6.46 1.72-6.46S10.97 12 7.27 12c-3.7 0-5.67.92-5.67.92 1.68 2.26 1.66 6.61 1.66 6.61-.01 2.93-1.53 6.16-1.53 11.06zM14.57 1.9c0-.73-.6-1.31-1.34-1.31-.67 0-1.22.49-1.32 1.12-.29-.16-.62-.26-.98-.26-1.06 0-1.91.8-1.99 1.82-.31-.2-.68-.31-1.08-.31-1.11 0-2 .88-2 1.96 0 .14.02.28.04.41-.22-.08-.45-.13-.7-.13-1.33 0-2.41 1.06-2.41 2.36 0 1.3 1.08 2.36 2.41 2.36.27 0 .53-.05.77-.14.43.63 1.16 1.04 2 1.04 1.33 0 2.41-1.06 2.41-2.36 0-.3-.06-.58-.17-.85 1.08-.02 1.96-.89 1.96-1.96 0-.22-.05-.43-.11-.63.53-.35.88-.95.88-1.62 0-.08-.01-.15-.02-.23.1.02.21.04.32.04.73.01 1.33-.58 1.33-1.31zM29.59 1.9c0-.73-.6-1.31-1.34-1.31-.67 0-1.22.49-1.32 1.12-.29-.16-.62-.26-.98-.26-1.06 0-1.91.8-1.99 1.82-.31-.2-.68-.31-1.08-.31-1.11 0-2 .88-2 1.96 0 .14.02.28.04.41-.22-.07-.46-.11-.7-.11-1.33 0-2.41 1.06-2.41 2.36 0 1.3 1.08 2.36 2.41 2.36 1.16 0 2.12-.8 2.35-1.86.44.54 1.13.92 1.92.92 1.34 0 2.43-1.06 2.43-2.38 0-.5-.16-.96-.42-1.34.84-.24 1.45-.98 1.45-1.88 0-.08-.01-.15-.02-.23.1.03.21.04.32.04.74.01 1.34-.58 1.34-1.31z"/></svg>