<svg xmlns="http://www.w3.org/2000/svg" viewBox="0 0 218.45 215.01"><g fill="#010202"><path d="M151.81 51.89c-1.4-1.71-2.55-3.7-3.43-5.73-5.55-12.86-20.65-12.14-20.65-12.14H91.84c-11.74 0-17.5 6.49-20.32 12.64-.89 1.94-2.09 3.82-3.53 5.44-2.38 2.69-7.39 3.21-9.97 4.01-4.5 1.4-6.96 4.7-9.52 10.51 0 0-1.11 2.5-2.47 5.59s2.67 5.59 9.01 5.59h109.09c6.35 0 9.93-2.64 8.02-5.9l-3.47-5.9c-3.22-5.47-5.38-7.43-8.79-9.9-1.31-.95-5.74-1.35-8.08-4.21zm-48.79-6.51h24.31c4.19 0 6.89 1.32 8.62 3.08 1.44 1.46 1.44 3.11.53 4.57-1.46 2.36-9.01 3.08-15.35 3.08H97.78c-6.34 0-13.59-.71-14.72-2.86-.68-1.29-.62-3.06.36-4.6 2.75-4.31 13.43-3.27 19.6-3.27zM150.66 85H67.73c-6.34 0-10.84 5.12-10.05 11.41l9.26 73.37c.78 6.3 6.56 11.22 12.91 11.22h59.33c6.34 0 12.1-4.92 12.85-11.22l8.76-73.46c.75-6.29-3.78-11.32-10.13-11.32zm-9.53 48.58s2.93 6.61-2.34 9.58c0 0-2.02 2.03-8.6 1.41l-6.45-11.18 12.9-7.49 4.49 7.68zm-22.53-32.75s3.4.1 7.16 6.16l4.1 6.94 2.9-1.56-3 6.56-3 6.57-7.13-1.09-7.14-1.09 4.19-2.26-7.18-13.3s-2.75-6.26-7.78-6.9l16.88-.03zm-33.44 56.34l-8.56-14.55s-1.64-2.98 1.69-9.3l3.91-7.05-2.82-1.71 7.18-.74 7.18-.73 2.67 6.71 2.67 6.71-4.07-2.47-7.84 12.93c.01 0-4 5.55-2.01 10.2zm18.12 4.83l-8.89-.15s-7.16-.91-6.98-6.96c0 0-.68-2.78 3.25-8.08l12.9.28-.28 14.91zm-2.17-40.72l-12.72-7.79 4.63-7.59s4.42-5.72 9.54-2.5c0 0 2.75.82 5.33 6.9l-6.78 10.98zm33.14 37.33s-1.36 2.94-8.49 3.37l-7.72.3v3.3l-4.69-5.76-4.52-5.76 4.61-5.76 4.6-5.76V147h14.44s6.82.7 9.77-3.41l-8 15.02z"/></g></svg>