<svg xmlns="http://www.w3.org/2000/svg" viewBox="0 0 31.18 31.18"><path d="M20.84 6.59C19.67 3.12 17.85.88 15.79.88c-2.08 0-3.93 2.3-5.1 5.84-1.09-.22-2.13-.35-3.06-.35-2.15 0-3.78.61-4.5 1.88-1.05 1.84.04 4.63 2.57 7.45-.9 1.05-10.8 13.26 5.05 8.9 1.17 3.47 2.99 5.71 5.05 5.71 2.08 0 3.93-2.3 5.09-5.84 1.1.23 2.14.36 3.07.36 2.15 0 3.78-.61 4.5-1.88 1.05-1.84-.04-4.63-2.57-7.45 5.63-5.68 4.74-10.74-5.05-8.91zM4.71 9.16c.34-.6 1.43-.96 2.92-.96.78 0 1.65.1 2.56.29-.27 1.11-.47 2.31-.6 3.57-.97.75-1.86 1.52-2.65 2.3-2.01-2.27-2.76-4.27-2.23-5.2zm4.71 7.58c-.43-.36-.84-.71-1.21-1.06.37-.37.77-.74 1.21-1.12-.01.34-.02.68-.02 1.03 0 .39.01.77.02 1.15zm-2.45.27c.78.75 1.67 1.48 2.63 2.18.14 1.29.35 2.5.63 3.63-10.75 3.69-4.51-4.56-3.26-5.81zm12.99-6.4c-.32-.2-.64-.4-.98-.6-.36-.21-.72-.4-1.08-.59.58-.22 1.14-.43 1.7-.6.14.56.26 1.16.36 1.79zm-4.17-7.89c1.04 0 2.35 1.58 3.3 4.34-1.09.34-2.22.77-3.38 1.3-1.12-.49-2.21-.88-3.26-1.19.96-2.83 2.29-4.45 3.34-4.45zm-3.83 6.22c.52.16 1.06.33 1.6.53-.36.2-.72.4-1.07.61-.3.18-.58.37-.86.56.09-.6.2-1.17.33-1.7zm-.34 11.63c.32.2.64.4.98.6.36.21.72.4 1.08.59-.58.23-1.14.43-1.7.6-.13-.56-.25-1.16-.36-1.79zm4.17 7.89c-1.04 0-2.35-1.57-3.3-4.34 1.09-.34 2.22-.77 3.37-1.3 1.11.49 2.21.88 3.26 1.19-.94 2.84-2.27 4.45-3.33 4.45zm3.84-6.21c-.53-.15-1.06-.33-1.6-.53.36-.2.72-.4 1.07-.61.3-.18.58-.38.87-.56-.1.58-.21 1.16-.34 1.7zm.63-4.12c-.67.48-1.37.95-2.1 1.4-.77.47-1.54.88-2.31 1.27-.78-.37-1.56-.77-2.33-1.22-.78-.45-1.51-.92-2.18-1.39-.07-.83-.11-1.69-.11-2.6 0-.88.04-1.72.1-2.53.66-.48 1.35-.95 2.1-1.4.76-.47 1.54-.88 2.31-1.27.78.37 1.57.77 2.34 1.21.78.45 1.5.92 2.18 1.39.07.83.11 1.69.11 2.59-.01.9-.05 1.74-.11 2.55zm4.35-3.96c-.78-.74-1.67-1.47-2.62-2.18-.14-1.29-.35-2.51-.63-3.63.71-.15 11.06-2.05 3.25 5.81zm-2.45.27c.43.36.84.71 1.21 1.06-.38.38-.78.75-1.21 1.11.01-.34.02-.68.02-1.03.01-.38 0-.76-.02-1.14zm4.71 7.58c-.34.6-1.43.96-2.92.96-.78 0-1.65-.1-2.56-.28.27-1.11.47-2.31.6-3.58.97-.75 1.86-1.52 2.64-2.3 2.02 2.27 2.78 4.27 2.24 5.2z"/></svg>