<?xml version="1.0" encoding="utf-8"?>
<!-- Generator: Adobe Illustrator 18.1.0, SVG Export Plug-In . SVG Version: 6.00 Build 0)  -->
<svg version="1.1" id="Layer_1" xmlns="http://www.w3.org/2000/svg" xmlns:xlink="http://www.w3.org/1999/xlink" x="0px" y="0px"
	 viewBox="0 0 612 792" enable-background="new 0 0 612 792" xml:space="preserve">
<g>
	<path d="M449.873,343.5933v-94.8031c0-81.0635-64.576-147.2097-143.873-147.2097s-143.873,66.1462-143.873,147.2097v94.8031
		h72.0346v-94.8031c0-40.6299,32.1899-73.6049,72.0347-73.6049c39.6485,0,72.0346,32.975,72.0346,73.6049v94.8031H449.873z"/>
	<path d="M449.873,359.2957H162.127c-39.6485,0-72.0347,32.975-72.0347,73.6049v183.9141c0,40.6299,32.1899,73.6049,72.0347,73.6049
		h287.9423c39.6485,0,72.0346-32.975,72.0346-73.6049V432.9006C521.9076,392.0744,489.7178,359.2957,449.873,359.2957z
		 M370.4811,505.3554l-86.5536,119.0113c-0.7462,1.1192-1.8654,1.4923-2.9846,1.4923c-0.3731,0-1.1193-0.3731-1.4923-0.3731
		c-1.4923-0.7462-2.2385-2.2385-2.2385-3.7308l13.4307-85.0613l-45.5153,8.5807c-1.4923,0.373-2.9846-0.3731-3.7308-1.4923
		s-0.3731-2.9846,0.373-4.1038l89.9114-122.369c1.1192-1.4923,2.6115-1.8654,4.1038-1.1193s2.2385,2.2385,2.2385,3.7308
		l-12.6846,89.5383l41.7845-9.3269c1.4922-0.3731,2.9846,0.373,3.7307,1.4923
		C371.6003,503.1169,371.6003,504.6093,370.4811,505.3554z"/>
</g>
</svg>
