<?xml version="1.0" encoding="utf-8"?>
<!-- Generator: Adobe Illustrator 18.1.0, SVG Export Plug-In . SVG Version: 6.00 Build 0)  -->
<svg version="1.1" id="Layer_1" xmlns="http://www.w3.org/2000/svg" xmlns:xlink="http://www.w3.org/1999/xlink" x="0px" y="0px"
	 viewBox="0 0 31.18 31.18" enable-background="new 0 0 31.18 31.18" xml:space="preserve">
<g>
	<path d="M22.92,12.92V8.09c0-4.13-3.29-7.5-7.33-7.5c-4.04,0-7.33,3.37-7.33,7.5v4.83h3.67V8.09c0-2.07,1.64-3.75,3.67-3.75
		c2.02,0,3.67,1.68,3.67,3.75v4.83H22.92z"/>
	<path d="M22.92,13.72H8.26c-2.02,0-3.67,1.68-3.67,3.75v9.37c0,2.07,1.64,3.75,3.67,3.75h14.67c2.02,0,3.67-1.68,3.67-3.75v-9.37
		C26.59,15.39,24.95,13.72,22.92,13.72z M16.51,22.8v3.1c0,0.52-0.41,0.94-0.92,0.94c-0.51,0-0.92-0.42-0.92-0.94v-3.1
		c-0.54-0.33-0.92-0.9-0.92-1.59c0-1.04,0.82-1.87,1.83-1.87s1.83,0.84,1.83,1.87C17.42,21.9,17.05,22.48,16.51,22.8z"/>
</g>
</svg>
