<svg xmlns="http://www.w3.org/2000/svg" viewBox="0 0 612 792"><path d="M449.873 343.593V248.79c0-81.063-64.576-147.21-143.873-147.21s-143.873 66.147-143.873 147.21v94.803h72.035V248.79c0-40.63 32.19-73.605 72.034-73.605 39.65 0 72.035 32.975 72.035 73.605v94.803h71.643zM449.873 359.296H162.127c-39.648 0-72.035 32.975-72.035 73.605v183.915c0 40.63 32.19 73.605 72.035 73.605H450.07c39.648 0 72.034-32.975 72.034-73.605V432.9c-.196-40.826-32.386-73.604-72.23-73.604zm-79.392 146.06l-86.552 119.01c-.747 1.12-1.866 1.493-2.985 1.493-.373 0-1.12-.374-1.492-.374-1.492-.746-2.238-2.24-2.238-3.73l13.43-85.062-45.514 8.58c-1.493.373-2.985-.373-3.73-1.492s-.374-2.984.372-4.104l89.91-122.37c1.12-1.49 2.613-1.864 4.105-1.118s2.238 2.24 2.238 3.73l-12.684 89.54 41.783-9.328c1.492-.373 2.985.373 3.73 1.493.747 1.492.747 2.984-.372 3.73z"/></svg>