<svg xmlns="http://www.w3.org/2000/svg" viewBox="0 0 64 64"><path d="M52.375 11.647c-3.333-.574-6.766-.107-10.1.222-3.32.327-6.786.727-10.075-.05-3.873-.918-6.323-3.457-8.13-6.897l-1.494 4.044c-3.26 8.818-6.518 17.636-9.776 26.453L4 59.228l3.398 1.256 7.918-21.426c1.47 1.568 3.284 2.706 5.613 3.258 3.288.778 6.755.378 10.075.05 3.332-.33 6.766-.796 10.1-.222 4.282.738 7.05 3.303 9.03 7.074l11.27-30.497c-1.98-3.77-4.747-6.335-9.03-7.073zm.417 18.1c-1.676-1.415-3.474-2.36-5.643-2.778-.725 1.956-1.448 3.913-2.17 5.87 2.168.417 3.966 1.363 5.642 2.777L48.632 41c-1.676-1.413-3.475-2.36-5.643-2.776.662-1.795 1.326-3.59 1.99-5.384-2.21-.356-4.366-.354-6.594-.218l-1.99 5.384c-2.306.186-4.603.45-6.91.637.664-1.795 1.328-3.59 1.99-5.384-2.227.135-4.384.138-6.592-.22l-1.99 5.385c-2.17-.417-3.968-1.363-5.643-2.777.664-1.795 1.328-3.59 1.99-5.384 1.677 1.414 3.475 2.36 5.644 2.777l2.17-5.87c-2.17-.417-3.968-1.364-5.643-2.778.724-1.957 1.448-3.915 2.17-5.872 1.677 1.415 3.475 2.36 5.644 2.777l1.99-5.384c2.208.356 4.365.354 6.593.217l-1.99 5.384c2.305-.186 4.603-.45 6.91-.637.662-1.795 1.326-3.59 1.99-5.384 2.227-.136 4.383-.14 6.592.218-.664 1.796-1.328 3.59-1.99 5.385 2.168.417 3.966 1.362 5.642 2.777-.723 1.96-1.446 3.917-2.17 5.874z"/><path d="M33.648 27.388l-2.17 5.872c2.306-.186 4.603-.45 6.91-.637.722-1.957 1.446-3.914 2.17-5.87-2.307.185-4.605.45-6.91.635z"/><path d="M33.648 27.388l2.17-5.87c-2.23.135-4.384.137-6.593-.22l-2.17 5.872c2.208.357 4.364.355 6.593.218zM42.726 20.88l-2.17 5.87c2.228-.135 4.384-.137 6.593.22.722-1.958 1.446-3.915 2.17-5.872-2.21-.356-4.365-.354-6.594-.218z"/></svg>