<svg xmlns="http://www.w3.org/2000/svg" viewBox="0 0 31.18 31.18"><path d="M12.6 16.39c-.55.86-1.14 1.7-1.84 2.45-1.65 1.77-3.79 2.24-6.11 2.12-2.08-.11-2.07 3.19 0 3.3 4.35.23 7.43-1.7 9.88-4.97-.4-.54-.78-1.08-1.12-1.6-.28-.43-.55-.87-.81-1.3zM16.8 13.77c.22.36.44.71.67 1.06.41-.58.84-1.13 1.33-1.65 1.24-1.31 2.65-1.84 4.19-2-.1.12-.19.24-.29.36-.57.69-.66 1.66 0 2.33.58.59 1.71.69 2.28 0 .87-1.06 1.71-2.15 2.58-3.21.57-.58.79-1.56.08-2.34l-2.9-3.22c-1.41-1.57-3.69.77-2.28 2.33l.38.42c-1.58.12-3.11.53-4.51 1.46-1.05.7-1.94 1.6-2.73 2.58.16.23.32.46.47.7.25.4.49.8.73 1.18z"/><path d="M24.98 17.3c-.27-.33-.68-.48-1.09-.48-.44 0-.89.17-1.19.48-.66.68-.57 1.65 0 2.33.1.12.19.24.29.36-1.55-.15-2.96-.69-4.19-2-.7-.74-1.3-1.56-1.85-2.41-.54-.82-1.05-1.67-1.58-2.5-.1-.16-.21-.31-.31-.47C12.64 9.09 9.64 6.9 5.34 6.9c-.22 0-.45.01-.68.02-2.04.11-2.08 3.3-.1 3.3h.1c.22-.01.44-.02.66-.02 2.06 0 3.96.54 5.44 2.14.91.98 1.63 2.11 2.34 3.25.33.54.67 1.08 1.01 1.61.3.46.61.91.93 1.35.92 1.26 1.97 2.43 3.27 3.3 1.41.94 2.93 1.35 4.51 1.46l-.38.42c-1.08 1.2.01 2.85 1.21 2.85.37 0 .74-.15 1.07-.52l2.9-3.22c.7-.78.49-1.75-.08-2.34-.85-1.04-1.69-2.14-2.56-3.2z"/></svg>