<svg xmlns="http://www.w3.org/2000/svg" viewBox="0 0 612 440.7604"><path fill="#010202" d="M0 418.544h612v22.216H0z"/><path fill="#010202" d="M562.472 433.82c-25.433-94.853-37.524-197.836-36.69-305.822 0-1.25-.418-2.5-1.46-3.543-.834-.834-2.085-1.46-3.335-1.46H374.643c-1.25 0-2.5.417-3.335 1.46-.834.833-1.46 2.084-1.46 3.543.834 91.31-7.92 178.865-25.64 261.21C316.48 269.547 302.93 141.13 304.18 6.877c0-1.666-.626-3.543-1.877-4.793C301.055.835 299.178 0 297.302 0H94.047c-1.667 0-3.544.625-4.794 2.085-1.25 1.25-1.877 2.918-1.877 4.794 1.25 150.095-15.843 292.895-50.657 424.854-.418 2.085 0 4.17 1.25 5.837s3.127 2.71 5.42 2.71h514.495c2.71 0 4.795-2.083 4.795-4.793 0-.626 0-1.25-.208-1.668zM250.047 259.99c-1.828 5.482-4.387 9.87-7.677 13.89-3.29 3.657-6.58 6.947-10.602 10.603-4.02 3.29-8.043 6.58-11.7 9.505-3.654 2.924-7.31 5.85-10.6 8.774-3.29 2.924-5.85 6.215-8.043 9.87-1.828 4.022-2.925 8.043-2.925 12.064 0 8.043 2.56 17.183 8.043 27.785-6.946-3.29-13.527-6.58-19.376-10.236s-11.333-7.677-17.182-12.43-10.237-9.504-13.892-14.988c-3.656-5.484-6.946-11.333-9.14-18.645-2.193-6.945-3.29-14.622-3.29-22.665 0-6.215 1.097-12.064 3.29-17.548 1.828-5.484 4.387-10.236 7.677-13.892 3.29-3.656 6.58-7.312 10.602-10.602s7.677-6.58 11.7-9.505c4.02-2.56 7.676-5.484 10.6-8.774 3.29-2.925 5.85-6.215 8.043-9.87 1.828-4.022 2.925-8.044 2.925-12.065 0-7.678-2.56-16.818-8.043-27.42l.73.366-.364-.365c6.946 3.656 13.526 6.58 19.376 10.237s11.332 7.677 17.18 12.43 10.237 9.505 13.893 14.988c3.656 5.118 6.58 11.333 8.774 18.28s3.29 14.623 3.29 22.665c0 6.216-1.096 12.43-3.29 17.55z"/></svg>