<?xml version="1.0" encoding="utf-8"?>
<!-- Generator: Adobe Illustrator 18.1.0, SVG Export Plug-In . SVG Version: 6.00 Build 0)  -->
<svg version="1.1" id="powerstation-gas" xmlns="http://www.w3.org/2000/svg" xmlns:xlink="http://www.w3.org/1999/xlink" x="0px"
	 y="0px" viewBox="0 0 612 440.7604" enable-background="new 0 0 612 440.7604" xml:space="preserve">
<rect y="418.5441" fill="#010202" width="612" height="22.2163"/>
<path fill="#010202" d="M562.4716,433.8189c-25.4329-94.8522-37.524-197.8348-36.6901-305.8204c0-1.2508-0.417-2.5016-1.4593-3.5439
	c-0.8339-0.8339-2.0847-1.4592-3.3354-1.4592H374.6431c-1.2508,0-2.5016,0.4169-3.3354,1.4592
	c-0.8339,0.8339-1.4592,2.0847-1.4592,3.5439c0.8339,91.3083-7.9218,178.8643-25.6414,261.2086
	c-27.726-119.6598-41.2764-248.0752-40.0256-382.3277c0-1.6677-0.6254-3.5439-1.8762-4.7947C301.0544,0.8339,299.1783,0,297.3021,0
	H94.0472c-1.6677,0-3.5439,0.6254-4.7947,2.0847c-1.2508,1.2508-1.8762,2.9185-1.8762,4.7947
	c1.2508,150.0959-15.8434,292.8955-50.6573,424.8549c-0.4169,2.0847,0,4.1694,1.2508,5.8371s3.127,2.71,5.4201,2.71h514.4955
	c2.7101,0,4.7947-2.0847,4.7947-4.7947C562.68,434.8613,562.68,434.2358,562.4716,433.8189z M250.047,259.9886
	c-1.8279,5.4837-4.387,9.8707-7.6772,13.8921c-3.2902,3.6558-6.5804,6.946-10.6019,10.6019
	c-4.0214,3.2902-8.0428,6.5804-11.6986,9.5051c-3.6558,2.9246-7.3116,5.8493-10.6018,8.7739
	c-3.2903,2.9247-5.8493,6.2149-8.0428,9.8707c-1.8279,4.0214-2.9247,8.0428-2.9247,12.0641c0,8.0428,2.5591,17.1823,8.0428,27.7842
	c-6.946-3.2903-13.5265-6.5805-19.3758-10.2363s-11.333-7.6772-17.1823-12.4297s-10.2363-9.5051-13.8921-14.9888
	c-3.6558-5.4837-6.9461-11.333-9.1396-18.6447c-2.1935-6.946-3.2902-14.6233-3.2902-22.6661c0-6.2148,1.0967-12.0641,3.2902-17.5479
	c1.8279-5.4838,4.387-10.2363,7.6772-13.8921c3.2902-3.6558,6.5804-7.3116,10.6019-10.6019
	c4.0214-3.2903,7.6772-6.5805,11.6986-9.5051c4.0214-2.5591,7.6772-5.4837,10.6018-8.774c3.2903-2.9246,5.8493-6.2148,8.0428-9.8707
	c1.8279-4.0214,2.9247-8.0428,2.9247-12.0642c0-7.6772-2.5591-16.8167-8.0428-27.4186l0.7311,0.3656l-0.3655-0.3656
	c6.946,3.6558,13.5265,6.5804,19.3758,10.2363s11.333,7.6772,17.1823,12.4297s10.2363,9.5051,13.8921,14.9888
	c3.6558,5.1182,6.5805,11.3331,8.774,18.2791s3.2902,14.6232,3.2902,22.666C253.3372,248.6556,252.2405,254.8704,250.047,259.9886z"
	/>
</svg>
