<svg xmlns="http://www.w3.org/2000/svg" viewBox="0 0 612 615.7604"><path fill="#010202" d="M0 418.544h612v22.216H0z"/><path fill="#010202" d="M562.472 433.82c-25.433-94.853-37.524-197.836-36.69-305.822 0-1.25-.418-2.5-1.46-3.543-.834-.834-2.085-1.46-3.335-1.46H374.643c-1.25 0-2.5.417-3.335 1.46-.834.833-1.46 2.084-1.46 3.543.834 91.31-7.92 178.865-25.64 261.21C316.48 269.547 302.93 141.13 304.18 6.877c0-1.666-.626-3.543-1.877-4.793C301.055.835 299.178 0 297.302 0H94.047c-1.667 0-3.544.625-4.794 2.085-1.25 1.25-1.877 2.918-1.877 4.794 1.25 150.095-15.843 292.895-50.657 424.854-.418 2.085 0 4.17 1.25 5.837s3.127 2.71 5.42 2.71h514.495c2.71 0 4.795-2.083 4.795-4.793 0-.626 0-1.25-.208-1.668zM208 486.885V431.58c0-6.6-5.4-12-12-12s-12 5.4-12 12v55.305c-30.163 5.632-53 32.08-53 63.875 0 35.9 29.102 65 65 65s65-29.1 65-65c0-31.796-22.837-58.243-53-63.875z"/><path fill="#010202" d="M458.114 466.91v-38.936c0-4.647-3.802-8.45-8.45-8.45-4.646 0-8.448 3.803-8.448 8.45v38.937c-21.237 3.967-37.316 22.587-37.316 44.974 0 25.275 20.49 45.764 45.765 45.764 25.275 0 45.764-20.49 45.764-45.764 0-22.387-16.08-41.007-37.316-44.973z"/></svg>