<?xml version="1.0" encoding="utf-8"?>
<!-- Generator: Adobe Illustrator 18.1.0, SVG Export Plug-In . SVG Version: 6.00 Build 0)  -->
<svg version="1.1" id="powerstation-geothermal" xmlns="http://www.w3.org/2000/svg" xmlns:xlink="http://www.w3.org/1999/xlink"
	 x="0px" y="0px" viewBox="0 0 612 615.7604" enable-background="new 0 0 612 615.7604" xml:space="preserve">
<rect y="418.5441" fill="#010202" width="612" height="22.2163"/>
<path fill="#010202" d="M562.4716,433.8189c-25.4329-94.8522-37.524-197.8348-36.6901-305.8204c0-1.2508-0.417-2.5016-1.4593-3.5439
	c-0.8339-0.8339-2.0847-1.4592-3.3354-1.4592H374.6431c-1.2508,0-2.5016,0.4169-3.3354,1.4592
	c-0.8339,0.8339-1.4592,2.0847-1.4592,3.5439c0.8339,91.3083-7.9218,178.8643-25.6414,261.2086
	c-27.726-119.6598-41.2764-248.0752-40.0256-382.3277c0-1.6677-0.6254-3.5439-1.8762-4.7947C301.0544,0.8339,299.1783,0,297.3021,0
	H94.0472c-1.6677,0-3.5439,0.6254-4.7947,2.0847c-1.2508,1.2508-1.8762,2.9185-1.8762,4.7947
	c1.2508,150.0959-15.8434,292.8955-50.6573,424.8549c-0.4169,2.0847,0,4.1694,1.2508,5.8371s3.127,2.71,5.4201,2.71h514.4955
	c2.7101,0,4.7947-2.0847,4.7947-4.7947C562.68,434.8613,562.68,434.2358,562.4716,433.8189z"/>
<path fill="#010202" d="M208,486.8846v-55.3039c0-6.6-5.4-12-12-12s-12,5.4-12,12v55.3039c-30.1628,5.6326-53,32.0792-53,63.8759
	c0,35.8985,29.1015,65,65,65s65-29.1015,65-65C261,518.9638,238.1628,492.5172,208,486.8846z"/>
<path fill="#010202" d="M458.1137,466.9113v-38.9377c0-4.6468-3.802-8.4488-8.4488-8.4488c-4.6468,0-8.4488,3.802-8.4488,8.4488
	v38.9377c-21.2367,3.9657-37.3156,22.5859-37.3156,44.9729c0,25.275,20.4894,45.7643,45.7643,45.7643
	c25.275,0,45.7644-20.4894,45.7644-45.7643C495.4293,489.4973,479.3504,470.877,458.1137,466.9113z"/>
</svg>
