<svg xmlns="http://www.w3.org/2000/svg" width="612" height="581.4" viewBox="0 0 612 581.4"><path fill="#FFF" d="M427.147 284.934v66.937h117.916v162.592H66.938v-162.59H181.42v-66.938H0V581.4h612V284.934"/><path fill="#FFF" d="M323.222 458.455c13.923 0 25.293-11.36 25.293-25.293v-281.74l88.835 89.15c10.08 9.765 26.087 9.765 35.85 0l24.012-24.01c9.763-10.08 9.763-26.087 0-35.85L324.025 7.526C319.062 2.563 312.665 0 306.095 0c-6.56 0-12.966 2.563-17.93 7.526L114.99 180.712c-9.764 10.08-9.764 26.087 0 35.85l24.01 24.01c10.08 9.765 26.087 9.765 35.85 0l89.15-89.15v281.912c0 14.086 11.362 25.293 25.294 25.293l33.928-.172z"/></svg>