<?xml version="1.0" encoding="iso-8859-1"?>
<!-- Generator: Adobe Illustrator 18.1.0, SVG Export Plug-In . SVG Version: 6.00 Build 0)  -->
<svg version="1.1" id="Layer_1" xmlns="http://www.w3.org/2000/svg" xmlns:xlink="http://www.w3.org/1999/xlink" x="0px" y="0px"
	 viewBox="0 0 64 64" style="enable-background:new 0 0 64 64;" xml:space="preserve">
<g>
	<rect x="3.5" y="36.497" style="fill:#FFFFFF;" width="57" height="24.003"/>
	<path style="fill:#FFFFFF;" d="M57,39.997V57H7V39.997H57 M64,32.997H0V64h64V32.997L64,32.997z"/>
</g>
<rect x="11.259" y="29.5" style="fill:#FFFFFF;" width="41.503" height="25.25"/>
<path style="fill:#FFFFFF;" d="M30.22,3.218c-1.456,0-2.645,1.188-2.645,2.645v29.463l-9.29-9.323c-1.054-1.021-2.728-1.021-3.749,0
	l-2.511,2.511c-1.021,1.054-1.021,2.728,0,3.749l18.111,18.111c0.519,0.519,1.188,0.787,1.875,0.787
	c0.686,0,1.356-0.268,1.875-0.787l18.11-18.111c1.021-1.054,1.021-2.728,0-3.749l-2.511-2.511c-1.054-1.021-2.728-1.021-3.749,0
	l-9.323,9.323V5.845c0-1.473-1.188-2.645-2.645-2.645L30.22,3.218z"/>
</svg>
