<svg xmlns="http://www.w3.org/2000/svg" width="612" height="581.4" viewBox="0 0 612 581.4"><g fill="#FFF"><path d="M504.537 284.934v66.937h40.526v162.592H66.938v-162.59h40.726v-66.938H0V581.4h612V284.934M288.98.172c-13.924 0-25.294 11.36-25.294 25.293v281.74l-88.836-89.15c-10.08-9.765-26.086-9.765-35.85 0l-24.01 24.01c-9.764 10.08-9.764 26.086 0 35.85L288.174 451.1c4.963 4.964 11.36 7.527 17.93 7.527 6.56 0 12.967-2.563 17.93-7.526l173.177-173.185c9.763-10.08 9.763-26.087 0-35.85l-24.012-24.01c-10.078-9.765-26.086-9.765-35.85 0l-89.15 89.15V25.293C348.2 11.207 336.84 0 322.906 0l-33.928.172z"/></g></svg>