<svg xmlns="http://www.w3.org/2000/svg" viewBox="0 0 31.18 31.18"><ellipse cx="5.31" cy="10.35" rx="3.68" ry="3.74"/><path d="M15.71 12.46c.46 0 .89-.1 1.25-.29.39.66 1.22 1.12 2.18 1.12.9 0 1.68-.4 2.09-.99.29.1.62.16.96.16 1.31 0 2.37-.85 2.41-1.91-.1.01-.21.02-.32.02-.96 0-1.79-.46-2.18-1.12-.37.18-.79.29-1.25.29-1.33 0-2.41-.88-2.41-1.96 0-.21.04-.42.12-.61-.98.12-1.77.72-1.99 1.5-.27-.08-.56-.13-.86-.13-1.33 0-2.41.88-2.41 1.96s1.08 1.96 2.41 1.96zM21.69 8.92c.46 0 .89-.1 1.25-.29.39.66 1.22 1.12 2.17 1.12.9 0 1.68-.4 2.09-.99.29.1.62.16.96.16 1.33 0 2.41-.88 2.41-1.96S29.49 5 28.16 5c-.32 0-.63.05-.91.15-.24-.88-1.2-1.54-2.36-1.54-1.15 0-2.11.65-2.35 1.53-.25-.1-.54-.15-.85-.15-1.33 0-2.41.88-2.41 1.96 0 1.09 1.08 1.97 2.41 1.97zM25.97 21.22c-.99-1.51-2.02-3.06-3.24-4.14-1.21-1.07-2.29-1.49-3.3-1.31-1.57.29-2.46 1.94-3.32 3.54-.66 1.24-1.35 2.52-2.16 2.69-.41.09-.93-.12-1.53-.59-.27-.23-.55-.5-.85-.8-1.05-1.06-2.5-2.5-4.53-1.58-1.51.65-2.32 2.2-3.11 3.7-.83 1.58-1.62 3.08-3.12 3.48H.59v1.38H30.5V26.2c-1.81-.86-3.19-2.96-4.53-4.98z"/></svg>