<?xml version="1.0" encoding="utf-8"?>
<!-- Generator: Adobe Illustrator 18.1.0, SVG Export Plug-In . SVG Version: 6.00 Build 0)  -->
<svg version="1.1" id="powerstation-nuclear" xmlns="http://www.w3.org/2000/svg" xmlns:xlink="http://www.w3.org/1999/xlink"
	 x="0px" y="0px" viewBox="0 0 612 440.7604" enable-background="new 0 0 612 440.7604" xml:space="preserve">
<rect y="418.5441" fill="#010202" width="612" height="22.2163"/>
<path fill="#010202" d="M562.4716,433.8189c-25.4329-94.8522-37.524-197.8348-36.6901-305.8204c0-1.2508-0.417-2.5016-1.4593-3.5439
	c-0.8339-0.8339-2.0847-1.4592-3.3354-1.4592H374.6431c-1.2508,0-2.5016,0.4169-3.3354,1.4592
	c-0.8339,0.8339-1.4592,2.0847-1.4592,3.5439c0.8339,91.3083-7.9218,178.8643-25.6414,261.2086
	c-27.726-119.6598-41.2764-248.0752-40.0256-382.3277c0-1.6677-0.6254-3.5439-1.8762-4.7947C301.0544,0.8339,299.1783,0,297.3021,0
	H94.0472c-1.6677,0-3.5439,0.6254-4.7947,2.0847c-1.2508,1.2508-1.8762,2.9185-1.8762,4.7947
	c1.2508,150.0959-15.8434,292.8955-50.6573,424.8549c-0.4169,2.0847,0,4.1694,1.2508,5.8371s3.127,2.71,5.4201,2.71h514.4955
	c2.7101,0,4.7947-2.0847,4.7947-4.7947C562.68,434.8613,562.68,434.2358,562.4716,433.8189z M201.8019,252.9603
	c7.6118,0,14.0525,6.2455,14.0525,14.0525c-0.1952,7.8069-6.2455,14.0524-14.0525,14.0524h-0.1951
	c-7.6118,0-13.8573-6.4407-13.8573-14.0524C187.7495,259.2059,193.9951,252.9603,201.8019,252.9603z M128.0266,262.7189
	c0.1952-2.9276,0.5856-5.8552,0.9759-8.5876c0.9758-6.0504,2.7324-11.7103,5.0745-17.1752
	c5.66-13.0766,14.638-23.4208,26.5435-31.2277c0.1952-0.1952,0.3904-0.3903,0.7807-0.5855c1.7565-1.171,4.2938-0.5855,5.4648,1.3662
	l22.2497,38.0587c0.9758,1.7566,0.5855,3.9034-0.9759,5.0745c-4.489,3.5131-7.2214,8.1973-8.1973,13.8572
	c-0.3903,1.9518-1.9517,3.3179-3.9034,3.3179h-44.109C129.7832,266.8176,127.8315,264.8658,128.0266,262.7189z M235.1765,332.9812
	c-10.5393,5.4648-22.0545,8.1973-33.3746,8.1973c-11.5152,0-22.8352-2.7325-33.3745-8.1973
	c-1.9517-1.171-2.7324-3.5131-1.5614-5.2697c7.4166-12.8814,14.6379-25.5677,22.0545-38.2539
	c0.9759-1.7565,3.1228-2.5372,4.8793-1.7565c2.7324,0.9758,5.2697,1.5613,8.0021,1.5613s5.2697-0.5855,8.0021-1.5613
	c1.7566-0.7807,3.9035,0,4.8793,1.5613c7.4166,12.6863,14.638,25.5677,22.0546,38.2539
	C237.9089,329.4681,237.1282,332.0053,235.1765,332.9812z M271.4786,267.0128h-44.109c-1.9517,0-3.5131-1.3662-3.9035-3.318
	c-0.9758-5.66-3.7083-10.149-8.1972-13.8572c-1.5614-1.1711-1.9518-3.3179-0.9759-5.0745l22.2497-38.2538
	c0.9759-1.9517,3.5131-2.5372,5.4648-1.3662c0.1951,0.1952,0.3903,0.3903,0.7807,0.3903
	c11.9055,8.0021,20.8835,18.3463,26.5435,31.4229c2.3421,5.66,4.0986,11.32,5.0745,17.3704c0.5855,2.7324,0.7807,5.66,0.9759,8.5876
	C275.5773,265.061,273.8207,267.0128,271.4786,267.0128z"/>
</svg>
