<svg xmlns="http://www.w3.org/2000/svg" viewBox="0 0 612 440.7604"><path fill="#010202" d="M0 418.544h612v22.216H0z"/><path fill="#010202" d="M562.472 433.82c-25.433-94.853-37.524-197.836-36.69-305.822 0-1.25-.418-2.5-1.46-3.543-.834-.834-2.085-1.46-3.335-1.46H374.643c-1.25 0-2.5.417-3.335 1.46-.834.833-1.46 2.084-1.46 3.543.834 91.31-7.92 178.865-25.64 261.21C316.48 269.547 302.93 141.13 304.18 6.877c0-1.666-.626-3.543-1.877-4.793C301.055.835 299.178 0 297.302 0H94.047c-1.667 0-3.544.625-4.794 2.085-1.25 1.25-1.877 2.918-1.877 4.794 1.25 150.095-15.843 292.895-50.657 424.854-.418 2.085 0 4.17 1.25 5.837s3.127 2.71 5.42 2.71h514.495c2.71 0 4.795-2.083 4.795-4.793 0-.626 0-1.25-.208-1.668zm-360.67-180.86c7.612 0 14.052 6.246 14.052 14.053-.195 7.807-6.245 14.052-14.052 14.052h-.195c-7.612 0-13.858-6.44-13.858-14.052 0-7.807 6.245-14.053 14.052-14.053zm-73.775 9.76c.195-2.93.585-5.856.976-8.59.975-6.05 2.732-11.71 5.074-17.174 5.66-13.076 14.638-23.42 26.544-31.228.196-.195.39-.39.78-.585 1.758-1.17 4.295-.586 5.466 1.366l22.25 38.058c.975 1.756.585 3.903-.976 5.074-4.49 3.513-7.222 8.198-8.198 13.858-.39 1.95-1.95 3.317-3.903 3.317h-44.11c-2.147 0-4.1-1.95-3.903-4.098zm107.15 70.26c-10.54 5.466-22.055 8.198-33.375 8.198-11.515 0-22.835-2.732-33.375-8.197-1.95-1.17-2.732-3.512-1.56-5.27 7.416-12.88 14.637-25.566 22.053-38.252.976-1.757 3.123-2.538 4.88-1.757 2.732.977 5.27 1.562 8.002 1.562s5.27-.585 8.002-1.56c1.757-.782 3.904 0 4.88 1.56 7.416 12.687 14.637 25.568 22.054 38.254 1.17 1.952.39 4.49-1.56 5.465zm36.302-65.967h-44.11c-1.952 0-3.514-1.366-3.904-3.318-.976-5.66-3.708-10.15-8.197-13.857-1.563-1.17-1.953-3.318-.977-5.075l22.25-38.254c.976-1.952 3.513-2.538 5.464-1.367.196.195.39.39.78.39 11.907 8.003 20.885 18.347 26.545 31.423 2.342 5.66 4.098 11.32 5.074 17.37.586 2.733.78 5.66.976 8.588.195 2.147-1.56 4.1-3.903 4.1z"/></svg>