<svg xmlns="http://www.w3.org/2000/svg" viewBox="0 0 31.18 31.18"><path d="M29.54 16.73c-.7-1.03-6.33-9.26-6.89-10.07-1.39-1.99-2.08-2.56-3.12-2.56-1.05 0-2 .75-2.17 1.68-.03.18-.21 3.06-.31 4.7-.58 0-.56-.42-.96-.83-.07-.07-.94-.07-1.01 0-.4.41-.38.83-.96.83-.1-1.64-.28-4.52-.31-4.7-.16-.93-1.12-1.68-2.17-1.68-1.04 0-1.73.57-3.12 2.56-.57.81-6.19 9.04-6.89 10.07C1.05 17.58.6 19.2.6 20.14c0 3.84 3.08 6.95 6.83 6.95 3.74 0 6.82-3.11 6.82-6.95v-1.75c0-.68-.03-1.03.75-1.03h1.19c.77 0 .86.36.86 1.03v1.75c0 3.84 3.02 6.95 6.76 6.95 3.75 0 6.78-3.11 6.78-6.95-.01-.94-.47-2.56-1.05-3.41zM17.85 7.76c.6-.89 1.55-1.34 2.74-1.31.86.02 1.55.29 1.58.31.18.07.27.29.2.47-.07.19-.28.28-.46.21-.02-.01-.62-.24-1.36-.26-.94-.02-1.65.32-2.12 1-.07.1-.18.16-.29.16-.07 0-.14-.02-.2-.07-.17-.12-.21-.34-.09-.51zM9.01 6.75c.03-.01.72-.28 1.58-.31 1.19-.03 2.14.42 2.74 1.31.11.17.07.39-.09.51-.06.04-.13.07-.2.07-.11 0-.22-.05-.29-.16-1.13-1.66-3.45-.75-3.48-.74-.19.08-.39-.02-.47-.2-.07-.19.02-.4.21-.48zM7.39 25.14c-2.7 0-4.89-2.25-4.89-5.01s2.19-5 4.89-5c2.69 0 4.88 2.24 4.88 5s-2.19 5.01-4.88 5.01zm8.2-10.44c-1.75 0-3.16-.58-3.16-1.3s1.42-1.3 3.16-1.3c1.75 0 3.16.58 3.16 1.3s-1.42 1.3-3.16 1.3zm8.19 10.44c-2.69 0-4.88-2.25-4.88-5.01s2.19-5 4.88-5c2.7 0 4.89 2.24 4.89 5s-2.19 5.01-4.89 5.01z"/></svg>