<svg xmlns="http://www.w3.org/2000/svg" viewBox="0 0 612 595.0702"><path fill="#010202" d="M525.78 128c0-1.252-.416-2.503-1.458-3.545-.834-.834-2.085-1.46-3.335-1.46H374.643c-1.25 0-2.5.417-3.335 1.46-.834.834-1.46 2.084-1.46 3.544.834 91.307-7.92 178.863-25.64 261.207C316.48 269.547 302.93 141.132 304.18 6.88c0-1.668-.624-3.545-1.875-4.795C301.055.835 299.178 0 297.302 0H94.047c-1.667 0-3.544.625-4.794 2.085-1.25 1.25-1.877 2.918-1.877 4.794 1.25 150.095-15.843 292.895-50.657 424.854-.418 2.085 0 4.17 1.25 5.837 1.25 1.67 3.127 2.71 5.42 2.71h514.495v.002c2.71 0 4.795-2.085 4.795-4.795 0-.626 0-1.25-.208-1.668-25.433-94.853-37.524-197.836-36.69-305.822z"/><path fill="#010202" d="M0 418.544h612v22.216H0zM289.89 479.954v-61.41h-18v61.41h-24.023v-61.41h-18v61.41h-24.023v-61.41h-18v61.41H163.82v-61.41h-18v61.41h-24.023v-61.41h-18v61.41H83.012c-3.928 0-7.11 3.184-7.11 7.11V587.96c0 3.926 3.182 7.11 7.11 7.11H307.51c3.928 0 7.11-3.184 7.11-7.11V487.064c0-3.927-3.182-7.11-7.11-7.11h-17.62zM516.846 467.599v-43.386H504.13v43.384h-16.973v-43.384H474.44v43.384h-16.97v-43.384H444.75v43.384H427.78v-43.384h-12.716v43.384h-16.972v-43.384h-12.716v43.384H370.15c-2.475 0-4.482 2.008-4.482 4.484v72.36c0 2.475 2.007 4.483 4.483 4.483h159.684c2.476 0 4.483-2.007 4.483-4.484v-72.358c0-2.476-2.007-4.484-4.483-4.484h-12.988z"/></svg>