<svg xmlns="http://www.w3.org/2000/svg" viewBox="0 0 218.45 215.01"><path fill="#010202" stroke="#FFF" stroke-miterlimit="10" d="M22.99 149.5h93.69c0-46-16.45-74.69-16.45-95.02S114.48.5 114.48.5H21.82c13.96 19 13.77 55.63 13.77 55.63.01 24.88-12.6 52.37-12.6 93.37z"/><path fill="#010202" d="M199.83 149.57c0-41-14.5-65.79-14.5-83.63S197.76 18 197.76 18h-81.31c12.25 17 12.09 49.38 12.09 49.38 0 16.54-6.34 34.04-9.42 57.65.97 7.61 1.57 15.59 1.57 24.59M0 148.54h218.45v7.93H0z"/><g fill="none" stroke="#010202" stroke-width="7" stroke-miterlimit="10"><path d="M97.55 152v22M82.55 152v22M67.55 152v22M52.55 152v22M37.55 152v22"/></g><path fill="#010202" d="M24.38 173.92h85.21v41.09H24.38z"/><g fill="none" stroke="#010202" stroke-width="7" stroke-miterlimit="10"><path d="M192.55 152v22M177.55 152v22M162.55 152v22M147.55 152v22M132.55 152v22"/></g><path fill="#010202" d="M119.46 173.92h85.21v41.09h-85.21z"/></svg>