<?xml version="1.0" encoding="utf-8"?>
<!-- Generator: Adobe Illustrator 18.1.0, SVG Export Plug-In . SVG Version: 6.00 Build 0)  -->
<svg version="1.1" id="power-station-no-css" xmlns="http://www.w3.org/2000/svg" xmlns:xlink="http://www.w3.org/1999/xlink"
	 x="0px" y="0px" viewBox="0 0 612 440.7604" enable-background="new 0 0 612 440.7604" xml:space="preserve">
<g id="power-station-no-css-layer-1">
	<path fill="#010202" d="M525.7814,127.9985c0-1.2508-0.417-2.5016-1.4593-3.5439c-0.8339-0.8339-2.0847-1.4593-3.3354-1.4593
		H374.6432c-1.2508,0-2.5016,0.4169-3.3355,1.4593c-0.8339,0.8339-1.4593,2.0847-1.4593,3.5439
		c0.8339,91.3084-7.9217,178.8643-25.6414,261.2086c-27.726-119.6598-41.2764-248.0752-40.0256-382.3277
		c0-1.6677-0.6254-3.5439-1.8762-4.7947C301.0544,0.8339,299.1783,0,297.3021,0H94.0472c-1.6677,0-3.5439,0.6254-4.7947,2.0847
		c-1.2508,1.2508-1.8762,2.9185-1.8762,4.7947c1.2508,150.0959-15.8435,292.8955-50.6574,424.8549
		c-0.4169,2.0847,0,4.1693,1.2508,5.8371c1.2508,1.6677,3.127,2.7101,5.4201,2.7101h514.4955l0,0
		c2.7101,0,4.7947-2.0847,4.7947-4.7947c0-0.6254,0-1.2508-0.2084-1.6678C537.0386,338.9666,524.9476,235.9841,525.7814,127.9985z"
		/>
</g>
<rect y="418.5441" fill="#010202" width="612" height="22.2163"/>
</svg>
