<svg xmlns="http://www.w3.org/2000/svg" viewBox="0 0 612 440.7604"><path fill="#010202" d="M525.78 128c0-1.252-.416-2.503-1.458-3.545-.834-.834-2.085-1.46-3.335-1.46H374.643c-1.25 0-2.5.417-3.335 1.46-.834.834-1.46 2.084-1.46 3.544.834 91.307-7.92 178.863-25.64 261.207C316.48 269.547 302.93 141.132 304.18 6.88c0-1.668-.624-3.545-1.875-4.795C301.055.835 299.178 0 297.302 0H94.047c-1.667 0-3.544.625-4.794 2.085-1.25 1.25-1.877 2.918-1.877 4.794 1.25 150.095-15.843 292.895-50.657 424.854-.418 2.085 0 4.17 1.25 5.837 1.25 1.67 3.127 2.71 5.42 2.71h514.495v.002c2.71 0 4.795-2.085 4.795-4.795 0-.626 0-1.25-.208-1.668-25.433-94.853-37.524-197.836-36.69-305.822z"/><path fill="#010202" d="M0 418.544h612v22.216H0z"/></svg>