<svg xmlns="http://www.w3.org/2000/svg" viewBox="0 0 64 64"><path d="M14.25 11.25H9.57c-1.656 0-3 1.343-3 3s1.344 3 3 3h4.68v-6zM54.43 11.25H24.773v6h29.654c1.657 0 3-1.343 3-3s-1.342-3-3-3zM19.512 22.5c-1.608 0-2.91-1.303-2.91-2.91V8.91C16.6 7.304 17.904 6 19.51 6c1.608 0 2.91 1.303 2.91 2.91v10.68c0 1.607-1.302 2.91-2.91 2.91z"/><g fill="#010202"><path d="M54.43 29h-4.655v6h4.654c1.656 0 3-1.343 3-3s-1.344-3-3-3zM39.25 29H9.57c-1.656 0-3 1.343-3 3s1.344 3 3 3h29.68v-6z"/></g><path d="M44.512 40.25c-1.608 0-2.91-1.303-2.91-2.91V26.66c0-1.607 1.302-2.91 2.91-2.91s2.91 1.303 2.91 2.91v10.68c0 1.607-1.302 2.91-2.91 2.91z" fill="#010202"/><g fill="#010202"><path d="M23.3 46.75H9.57c-1.656 0-3 1.343-3 3s1.344 3 3 3H23.3v-6zM54.43 46.75H33.723v6H54.43c1.656 0 3-1.343 3-3s-1.344-3-3-3z"/></g><path d="M28.512 58c-1.608 0-2.91-1.303-2.91-2.91V44.41c0-1.607 1.302-2.91 2.91-2.91s2.91 1.303 2.91 2.91v10.68c0 1.607-1.302 2.91-2.91 2.91z" fill="#010202"/></svg>