<?xml version="1.0" encoding="iso-8859-1"?>
<!-- Generator: Adobe Illustrator 18.1.0, SVG Export Plug-In . SVG Version: 6.00 Build 0)  -->
<svg version="1.1" xmlns="http://www.w3.org/2000/svg" xmlns:xlink="http://www.w3.org/1999/xlink" x="0px" y="0px"
	 viewBox="0 0 64 64" style="enable-background:new 0 0 64 64;" xml:space="preserve">
<g id="Layer_1">
</g>
<g id="Sliders_Console_Circular_Button">
	<g>
		<g>
			<g>
				<path d="M14.25,11.25H9.571c-1.657,0-3,1.343-3,3s1.343,3,3,3h4.679V11.25z"/>
				<path d="M54.429,11.25H24.774v6h29.654c1.657,0,3-1.343,3-3S56.086,11.25,54.429,11.25z"/>
			</g>
			<path d="M19.512,22.5L19.512,22.5c-1.608,0-2.911-1.303-2.911-2.911V8.911C16.602,7.303,17.905,6,19.512,6h0
				c1.608,0,2.911,1.303,2.911,2.911v10.679C22.423,21.197,21.12,22.5,19.512,22.5z"/>
			<g>
				<path style="fill:#010202;" d="M54.429,29h-4.654v6h4.654c1.657,0,3-1.343,3-3S56.086,29,54.429,29z"/>
				<path style="fill:#010202;" d="M39.25,29H9.571c-1.657,0-3,1.343-3,3s1.343,3,3,3H39.25V29z"/>
			</g>
			<path style="fill:#010202;" d="M44.512,40.25L44.512,40.25c-1.608,0-2.911-1.303-2.911-2.911V26.661
				c0-1.608,1.303-2.911,2.911-2.911h0c1.608,0,2.911,1.303,2.911,2.911v10.679C47.423,38.947,46.12,40.25,44.512,40.25z"/>
			<g>
				<path style="fill:#010202;" d="M23.301,46.75H9.571c-1.657,0-3,1.343-3,3s1.343,3,3,3h13.73V46.75z"/>
				<path style="fill:#010202;" d="M54.429,46.75H33.724v6h20.705c1.657,0,3-1.343,3-3S56.086,46.75,54.429,46.75z"/>
			</g>
			<path style="fill:#010202;" d="M28.512,58L28.512,58c-1.608,0-2.911-1.303-2.911-2.911V44.411c0-1.608,1.303-2.911,2.911-2.911h0
				c1.608,0,2.911,1.303,2.911,2.911v10.679C31.423,56.697,30.12,58,28.512,58z"/>
		</g>
	</g>
</g>
</svg>
