<?xml version="1.0" encoding="utf-8"?>
<!-- Generator: Adobe Illustrator 18.1.0, SVG Export Plug-In . SVG Version: 6.00 Build 0)  -->
<svg version="1.1" id="Layer_1" xmlns="http://www.w3.org/2000/svg" xmlns:xlink="http://www.w3.org/1999/xlink" x="0px" y="0px"
	 width="7.77px" height="3.45px" viewBox="0 0 7.77 3.45" enable-background="new 0 0 7.77 3.45" xml:space="preserve" preserveAspectRatio="xMinYMax">
<path fill="#28A197" d="M7.77,3.45H0V0.56C0,0.25,0.25,0,0.56,0h6.66c0.31,0,0.56,0.25,0.56,0.56L7.77,3.45L7.77,3.45z"/>
<circle fill="#F5F5F5" cx="2" cy="1.86" r="1.31"/>
<circle fill="#F5F5F5" cx="5.74" cy="1.86" r="1.31"/>
<path fill="#28A197" d="M2.94,2.25L2.37,1.92c0-0.01,0-0.02,0-0.03c0-0.15-0.09-0.29-0.23-0.34v-0.7c0-0.08-0.07-0.15-0.15-0.15
	S1.85,0.78,1.85,0.86v0.7C1.72,1.62,1.62,1.75,1.62,1.9c0,0.01,0,0.02,0,0.03L1.05,2.25C0.98,2.29,0.96,2.38,1,2.45
	C1.02,2.5,1.07,2.53,1.12,2.53c0.03,0,0.05,0,0.07-0.02l0.56-0.32C1.82,2.23,1.9,2.27,1.99,2.27c0.09,0,0.17-0.03,0.23-0.09
	L2.78,2.5C2.8,2.52,2.83,2.53,2.85,2.53c0.05,0,0.1-0.03,0.13-0.07C3.03,2.38,3.01,2.29,2.94,2.25z"/>
<path fill="#28A197" d="M6.68,2.25L6.11,1.92c0-0.01,0-0.02,0-0.03c0-0.15-0.09-0.29-0.23-0.34v-0.7c0-0.08-0.07-0.15-0.15-0.15
	c-0.08,0-0.15,0.07-0.15,0.15v0.7C5.46,1.62,5.36,1.75,5.36,1.9c0,0.01,0,0.02,0,0.03L4.79,2.25c-0.07,0.04-0.1,0.13-0.05,0.2
	C4.77,2.5,4.82,2.53,4.87,2.53c0.03,0,0.05,0,0.07-0.02L5.5,2.18c0.06,0.05,0.14,0.09,0.23,0.09c0.09,0,0.17-0.03,0.23-0.09
	L6.52,2.5c0.03,0.01,0.05,0.02,0.07,0.02c0.05,0,0.1-0.03,0.13-0.07C6.77,2.38,6.75,2.29,6.68,2.25z"/>
</svg>
