<?xml version="1.0" encoding="utf-8"?>
<!-- Generator: Adobe Illustrator 18.1.0, SVG Export Plug-In . SVG Version: 6.00 Build 0)  -->
<svg version="1.1" id="Layer_1" xmlns="http://www.w3.org/2000/svg" xmlns:xlink="http://www.w3.org/1999/xlink" x="0px" y="0px"
	 width="19.7px" height="27.7px" viewBox="0 0 19.7 27.7" enable-background="new 0 0 19.7 27.7" xml:space="preserve" preserveAspectRatio="xMinYMax">
<g>
	<path fill="#5B6479" d="M12.46,24.57c0,0.92,0.31,1.76,0.82,2.43H6.53c-1.69,0-4.07-3.04-4.07-4.6s0-8.41,0-9.92
		s-1.69-4.1-1.69-4.1V4.36h1.69h2.12h12.68l0.02,16.27c-0.26-0.05-0.52-0.08-0.79-0.08C14.26,20.55,12.46,22.35,12.46,24.57z
		 M18.22,3.12V1.41c0-0.18-0.14-0.32-0.32-0.32h-4V0.32C13.9,0.14,13.76,0,13.58,0H6.14C5.97,0,5.82,0.14,5.82,0.32v0.77H0.32
		C0.14,1.09,0,1.23,0,1.41v1.71c0,0.18,0.14,0.32,0.32,0.32H17.9C18.08,3.44,18.22,3.29,18.22,3.12z M19.7,24.63
		c0,1.69-1.38,3.07-3.07,3.07c-1.69,0-3.07-1.38-3.07-3.07c0-1.69,1.38-3.07,3.07-3.07C18.33,21.56,19.7,22.94,19.7,24.63z
		 M18.43,24.63c0-0.99-0.81-1.8-1.8-1.8c-0.99,0-1.8,0.81-1.8,1.8c0,0.99,0.81,1.8,1.8,1.8C17.63,26.43,18.43,25.62,18.43,24.63z"/>
</g>
<g>
	<path fill="#F5F5F5" d="M8.63,10.94c-0.48-0.27-0.95-0.55-1.43-0.82c0.25-0.5,0.56-0.99,1.07-1.49C8.34,8.56,8.42,8.52,8.52,8.5
		h0.11l0.08,0C8.96,8.54,9.2,8.87,9.32,9.06c0.1,0.17,0.19,0.34,0.28,0.51L8.63,10.94z M9.45,8.98c0.23,0.39,0.44,0.8,0.63,1.23
		l-0.76,0.44l2.19,0.21l0.92-2.01L11.67,9.3c-0.21-0.42-0.47-0.77-0.87-0.95c-0.72,0-1.44,0.01-2.16,0.01
		C8.92,8.34,9.19,8.6,9.45,8.98z M11.12,11.84l0.01-0.01v0.03l0.56,1.2c0.23,0.01,0.46,0.01,0.68,0.01c0.24-0.02,0.68-0.07,0.81-0.3
		c0.01-0.01,0.01-0.02,0.01-0.02l0.06-0.1c0-0.04-0.01-0.09-0.02-0.13c-0.18-0.68-0.47-1.2-0.77-1.66
		c-0.47,0.28-0.94,0.56-1.41,0.84L11.12,11.84z M12.39,13.21c-0.45,0.01-0.91-0.01-1.38-0.05l-0.01-0.87l-1.26,1.81l1.3,1.79
		L11.02,15c0.47,0.03,0.91-0.03,1.26-0.29c0.35-0.63,0.7-1.26,1.05-1.89C13.2,13.07,12.84,13.17,12.39,13.21z M7.79,13.33
		c-0.1,0.19-0.19,0.38-0.28,0.58c-0.09,0.22-0.23,0.64-0.08,0.86c0.01,0.01,0.01,0.01,0.02,0.02l0.07,0.1
		c0.06,0.04,0.12,0.06,0.19,0.07c0.7,0.13,1.28,0.1,1.83,0.02c-0.05-0.55-0.1-1.09-0.15-1.64L7.79,13.33z M7.38,13.86
		c0.19-0.41,0.4-0.82,0.65-1.23L8.82,13l-1.09-1.92l-2.17,0.4l0.8,0.37C6.13,12.27,6,12.69,6.08,13.12
		c0.42,0.59,0.83,1.18,1.25,1.76C7.16,14.65,7.22,14.29,7.38,13.86z"/>
</g>
</svg>
