<?xml version="1.0" encoding="utf-8"?>
<!-- Generator: Adobe Illustrator 18.1.0, SVG Export Plug-In . SVG Version: 6.00 Build 0)  -->
<svg version="1.1" id="Layer_1" xmlns="http://www.w3.org/2000/svg" xmlns:xlink="http://www.w3.org/1999/xlink" x="0px" y="0px"
	 viewBox="0 0 1800 370" enable-background="new 0 0 1800 370" xml:space="preserve">
<path fill="#28A197" d="M1743.38,133.61c-11.53-13.16-0.45-22.53-11.26-22.54c-38.55-0.03-107.75,0.02-438.13,0.02
	c-666.79,0-1083.63,115.48-1267.1,178.12c493.3,0,1775.1,0.13,1775.1,0.13V139.37C1801.99,139.37,1754.92,146.76,1743.38,133.61z"/>
<path fill="#28A197" d="M518.88,153.3c0-0.11-0.04-0.21-0.12-0.28c-0.07-0.08-0.18-0.12-0.28-0.12h-11.95
	c-0.11,0-0.21,0.04-0.28,0.12s-0.12,0.18-0.12,0.28c0.06,7.46-0.64,14.61-2.1,21.33c-2.26-9.78-3.36-20.26-3.27-31.22
	c0-0.15-0.06-0.29-0.16-0.39c-0.1-0.1-0.24-0.16-0.39-0.16h-16.6c-0.15,0-0.29,0.06-0.39,0.16c-0.1,0.1-0.16,0.25-0.16,0.39
	c0.1,12.25-1.29,23.92-4.13,34.69c-0.04,0.17-0.01,0.34,0.1,0.48c0.1,0.14,0.27,0.22,0.44,0.22l42.01,0c0,0,0,0,0,0
	c0.22,0,0.4-0.18,0.4-0.4c0-0.05-0.01-0.09-0.02-0.14C519.8,170.52,518.8,162.12,518.88,153.3z"/>
<path fill="#28A197" d="M698.26,122.49c0-0.13-0.05-0.26-0.14-0.36c-0.09-0.09-0.22-0.15-0.35-0.15h-15.01
	c-0.13,0-0.26,0.05-0.35,0.15c-0.09,0.09-0.15,0.22-0.14,0.36c0.08,9.37-0.81,18.35-2.64,26.79c-2.84-12.28-4.23-25.45-4.11-39.22
	c0-0.18-0.07-0.36-0.2-0.49c-0.13-0.13-0.31-0.21-0.49-0.21h-20.85c-0.18,0-0.36,0.07-0.49,0.21c-0.13,0.13-0.2,0.31-0.2,0.49
	c0.13,15.39-1.62,30.05-5.19,43.57c-0.05,0.21-0.01,0.43,0.12,0.6s0.33,0.27,0.55,0.27l52.77-0.01c0,0,0,0,0,0
	c0.28,0,0.5-0.22,0.5-0.5c0-0.06-0.01-0.12-0.03-0.17C699.42,144.12,698.17,133.57,698.26,122.49z"/>
<path fill="#28A197" d="M446.95,170.88c0-0.07-0.03-0.14-0.08-0.19c-0.05-0.05-0.12-0.08-0.19-0.08h-7.98
	c-0.07,0-0.14,0.03-0.19,0.08c-0.05,0.05-0.08,0.12-0.08,0.19c0.04,4.98-0.43,9.76-1.4,14.25c-1.51-6.53-2.25-13.54-2.19-20.86
	c0-0.1-0.04-0.19-0.11-0.26c-0.07-0.07-0.16-0.11-0.26-0.11h-11.09c-0.1,0-0.19,0.04-0.26,0.11c-0.07,0.07-0.11,0.16-0.11,0.26
	c0.07,8.19-0.86,15.99-2.76,23.18c-0.03,0.11-0.01,0.23,0.06,0.32c0.07,0.09,0.18,0.14,0.29,0.14l28.07,0h0
	c0.15,0,0.27-0.12,0.27-0.27c0-0.03-0.01-0.06-0.02-0.09C447.56,182.38,446.9,176.77,446.95,170.88z"/>
<path fill="#28A197" d="M896.09,99.7c0-0.13-0.05-0.26-0.14-0.36c-0.09-0.09-0.22-0.15-0.35-0.15h-15.01
	c-0.13,0-0.26,0.05-0.35,0.15c-0.09,0.09-0.15,0.22-0.14,0.36c0.08,9.37-0.81,18.35-2.64,26.79c-2.84-12.28-4.23-25.45-4.11-39.22
	c0-0.18-0.07-0.36-0.2-0.49c-0.13-0.13-0.31-0.21-0.49-0.21h-20.85c-0.18,0-0.36,0.07-0.49,0.21c-0.13,0.13-0.2,0.31-0.2,0.49
	c0.13,15.39-1.62,30.05-5.19,43.57c-0.05,0.21-0.01,0.43,0.12,0.6c0.13,0.17,0.33,0.27,0.55,0.27l52.77-0.01c0,0,0,0,0,0
	c0.28,0,0.5-0.22,0.5-0.5c0-0.06-0.01-0.12-0.03-0.17C897.25,121.32,896,110.77,896.09,99.7z"/>
<g>
	<path fill="#28A197" d="M1717.05,106.46c-0.1,0-0.2-0.02-0.29-0.06c-0.39-0.16-0.58-0.61-0.42-1l0.04-0.09h-2.28
		c0.01-0.47,0-2.7,0-3.1h-0.88v-3.15c0-0.41-0.33-0.74-0.74-0.74h-4.87c-0.76,0-1.46,0.47-1.73,1.21l-2.67,4.15
		c-0.33,2.48-0.15,3.43,0,4.47c0.03,0.22,0.19,0.42,0.43,0.42h2.46c0.28-1.49,1.58-2.61,3.13-2.61c1.56,0,2.85,1.13,3.13,2.61h9.69
		c0.28-1.5,1.58-2.63,3.14-2.63c1.56,0,2.86,1.13,3.13,2.63h0.54c0.28-1.5,1.57-2.63,3.13-2.63c1.56,0,2.87,1.14,3.14,2.64
		c1.27-0.01,2.37-0.28,2.28-2.19v-0.13c0-0.51-0.41-0.93-0.92-0.93h-18.47l-0.28,0.68C1717.63,106.28,1717.35,106.46,1717.05,106.46
		z"/>
	<ellipse fill="#28A197" cx="1709.23" cy="109.14" rx="2.53" ry="2.55"/>
	<ellipse fill="#28A197" cx="1725.2" cy="109.14" rx="2.53" ry="2.55"/>
	<ellipse fill="#28A197" cx="1732.01" cy="109.14" rx="2.53" ry="2.55"/>
	<path fill="#28A197" d="M1743.55,104.59l-2.93-7.04c0.04-0.1,0.05-0.22,0.02-0.32c-0.04-0.13-0.13-0.24-0.25-0.3l-19.38-10.05
		c-0.12-0.06-0.26-0.07-0.39-0.03c-0.13,0.04-0.24,0.13-0.3,0.25l-3.69,7.11c-0.13,0.25-0.03,0.56,0.22,0.69l3.36,1.74l-1.21,2.93
		c-0.19,0.07-0.36,0.22-0.44,0.42l-2.19,5.31l-0.04,0.09c-0.16,0.39,0.03,0.84,0.42,1c0.1,0.04,0.19,0.06,0.29,0.06
		c0.3,0,0.59-0.18,0.71-0.48l0.28-0.68l1.95-4.73c0.09-0.21,0.07-0.44-0.03-0.63l1.17-2.83l15.11,7.84
		c0.07,0.04,0.16,0.06,0.23,0.06c0.18,0,0.36-0.1,0.45-0.28l3.1-5.98l2.59,6.23c0.08,0.2,0.27,0.31,0.47,0.31
		c0.07,0,0.13-0.01,0.2-0.04C1743.54,105.15,1743.66,104.85,1743.55,104.59z"/>
</g>
<circle fill="#28A197" cx="1745.21" cy="138.23" r="6.15"/>
<circle fill="#28A197" cx="1759.9" cy="140.11" r="10.91"/>
<circle fill="#28A197" cx="1774.06" cy="134.76" r="12.87"/>
<circle fill="#28A197" cx="1789.42" cy="143.04" r="12.49"/>
<circle fill="#28A197" cx="1778.3" cy="122.5" r="10.05"/>
<circle fill="#28A197" cx="1793.42" cy="129.2" r="12.49"/>
</svg>
