<?xml version="1.0" encoding="utf-8"?>
<!-- Generator: Adobe Illustrator 18.1.0, SVG Export Plug-In . SVG Version: 6.00 Build 0)  -->
<svg version="1.1" xmlns="http://www.w3.org/2000/svg" xmlns:xlink="http://www.w3.org/1999/xlink" x="0px" y="0px"
	 viewBox="0 0 2000 370" enable-background="new 0 0 2000 370" xml:space="preserve">
<g id="Layer_2">
	<radialGradient id="SVGID_1_" cx="100.13" cy="653.2203" r="618.9523" gradientUnits="userSpaceOnUse">
		<stop  offset="0" style="stop-color:#000000"/>
		<stop  offset="0.1413" style="stop-color:#000000;stop-opacity:0.8587"/>
		<stop  offset="1" style="stop-color:#000000;stop-opacity:0"/>
	</radialGradient>
	<circle fill="url(#SVGID_1_)" cx="100.13" cy="653.22" r="618.95"/>
</g>
<g id="Layer_1">
	<path fill="#28A197" d="M137.14,240.96H87.63V66.55c0-1.66,1.34-3,3-3h43.51c1.66,0,3,1.34,3,3V240.96z"/>
	<path fill="#5A6378" d="M100.13,241.97H50.62V104.68c0-1.66,1.34-3,3-3h43.51c1.66,0,3,1.34,3,3V241.97z"/>
	<path fill="#5A6378" d="M518.89,194.61c-6.42,0-12.48,1.15-18.01,3.2c-3.11,1.15-6.03,2.62-8.73,4.38
		c-3.26,2.12-6.21,4.63-8.73,7.58c-2.59,3.02-4.79,6.44-6.44,10.28c-0.65-1.62-1.48-3.14-2.3-4.66
		c-7.83-14.49-23.03-24.39-40.65-24.39c-4.1,0-7.99,0.71-11.75,1.74c-3.05,0.83-5.96,1.92-8.73,3.34c-2.9,1.48-5.69,3.14-8.23,5.15
		c-0.16-0.22-0.35-0.42-0.51-0.64c-2.49-3.4-5.44-6.42-8.73-9.03c-7.88-6.25-17.77-10.06-28.61-10.06c-8.71,0-16.83,2.7-23.79,7.21
		c-13.5,8.75-22.57,24.43-22.57,41.32c0,2.85,0.35,1.77,0.84,10.51h21.73h134.39h14.06h5.33h66.87
		C563.33,214.33,543.45,194.61,518.89,194.61z"/>
	<path fill="#5A6378" d="M182.65,241.97h-49.51V46.91c0-1.66,1.34-3,3-3h43.51c1.66,0,3,1.34,3,3V241.97z"/>
	<g id="XMLID_30_">
		<g>
			<rect x="83.63" y="165.57" fill="#F5F5F5" width="8.25" height="8.25"/>
			<rect x="83.63" y="153.19" fill="#F5F5F5" width="8.25" height="8.25"/>
			<rect x="83.63" y="140.81" fill="#F5F5F5" width="8.25" height="8.26"/>
			<polygon fill="#F5F5F5" points="91.88,132.56 91.88,136.69 83.63,136.69 83.63,128.44 91.88,128.44 			"/>
			<polygon fill="#F5F5F5" points="91.88,120.18 91.88,124.31 83.63,124.31 83.63,116.06 91.88,116.06 			"/>
			<rect x="71.25" y="165.57" fill="#F5F5F5" width="8.25" height="8.25"/>
			<rect x="71.25" y="153.19" fill="#F5F5F5" width="8.25" height="8.25"/>
			<rect x="71.25" y="140.81" fill="#F5F5F5" width="8.25" height="8.26"/>
			<rect x="71.25" y="128.44" fill="#F5F5F5" width="8.25" height="8.25"/>
			<rect x="71.25" y="116.06" fill="#F5F5F5" width="8.25" height="8.25"/>
			<rect x="58.87" y="165.57" fill="#F5F5F5" width="8.25" height="8.25"/>
			<rect x="58.87" y="153.19" fill="#F5F5F5" width="8.25" height="8.25"/>
			<rect x="58.87" y="140.81" fill="#F5F5F5" width="8.25" height="8.26"/>
			<rect x="58.87" y="128.44" fill="#F5F5F5" width="8.25" height="8.25"/>
			<rect x="58.87" y="116.06" fill="#F5F5F5" width="8.25" height="8.25"/>
		</g>
	</g>
	<g>
		<rect x="141.39" y="75.92" fill="#F5F5F5" width="33.01" height="8.25"/>
		<rect x="141.39" y="88.3" fill="#F5F5F5" width="33.01" height="8.25"/>
		<rect x="141.39" y="100.68" fill="#F5F5F5" width="33.01" height="8.25"/>
		<rect x="141.39" y="113.06" fill="#F5F5F5" width="33.01" height="8.25"/>
		<rect x="141.39" y="125.44" fill="#F5F5F5" width="33.01" height="8.25"/>
		<rect x="141.39" y="137.81" fill="#F5F5F5" width="33.01" height="8.25"/>
		<rect x="141.39" y="150.19" fill="#F5F5F5" width="33.01" height="8.25"/>
		<rect x="141.39" y="162.57" fill="#F5F5F5" width="33.01" height="8.25"/>
		<rect x="141.39" y="63.55" fill="#F5F5F5" width="33.01" height="8.25"/>
	</g>
	<rect x="67.12" y="183.2" fill="#28A197" width="86.65" height="57.77"/>
	<rect x="75.37" y="199.71" fill="#F5F5F5" width="70.14" height="41.26"/>
	<rect x="75.37" y="195.34" fill="#5A6378" width="70.14" height="46.63"/>
	<path fill="#28A197" d="M300.94,242.48V40.13c0-1.65-1.34-2.99-2.99-2.99h-53.26c-1.65,0-2.99,1.34-2.99,2.99v202.36H300.94z"/>
	<path fill="#5A6378" d="M246.38,122.99h-64.7v118.49h67.7V125.99C249.38,124.33,248.04,122.99,246.38,122.99z"/>
	<g>
		<rect x="226.77" y="170.08" fill="#F5F5F5" width="10.77" height="10.77"/>
		<rect x="226.77" y="153.92" fill="#F5F5F5" width="10.77" height="10.77"/>
		<rect x="226.77" y="137.76" fill="#F5F5F5" width="10.77" height="10.77"/>
		<rect x="210.61" y="170.08" fill="#F5F5F5" width="10.77" height="10.77"/>
		<rect x="210.61" y="153.92" fill="#F5F5F5" width="10.77" height="10.77"/>
		<rect x="210.61" y="137.76" fill="#F5F5F5" width="10.77" height="10.77"/>
		<rect x="194.45" y="170.08" fill="#F5F5F5" width="10.78" height="10.77"/>
		<rect x="194.45" y="153.92" fill="#F5F5F5" width="10.78" height="10.77"/>
		<rect x="194.45" y="137.76" fill="#F5F5F5" width="10.78" height="10.77"/>
	</g>
	<g>
		<path fill="#5A6378" d="M311.13,72.34c-0.27-2.89-1-9.67-1.72-9.67c-0.72,0-1.45,6.78-1.72,9.67c0.45-0.36,1.09-0.63,1.72-0.63
			S310.68,71.89,311.13,72.34z"/>
		<circle fill="#5A6378" cx="309.41" cy="74.42" r="1.81"/>
		<path fill="#5A6378" d="M312.12,74.06c0,0.09,0,0.27,0,0.36c0,1.18-0.69,2.15-1.72,2.53c2.62,1.18,8.86,3.98,9.22,3.34
			C319.99,79.66,314.38,75.69,312.12,74.06z"/>
		<path fill="#5A6378" d="M306.7,74.42c0-0.09,0-0.27,0-0.36c-2.35,1.63-7.87,5.7-7.51,6.33s6.6-2.17,9.22-3.35l-0.81,13.65h3.61
			l-0.81-13.74c-0.31,0.11-0.64,0.18-0.99,0.18C307.87,77.13,306.7,75.96,306.7,74.42z"/>
		<path fill="#5A6378" d="M310.41,76.95L310.41,76.95L310.41,76.95L310.41,76.95z"/>
	</g>
	<path fill="#5A6378" d="M1321.6,221.52h77.5h6.17h16.3h155.76h25.18c0.57-10.12,0.97-8.88,0.97-12.18
		c0-19.57-10.51-37.75-26.15-47.89c-8.07-5.23-17.48-8.36-27.57-8.36c-12.56,0-24.03,4.41-33.16,11.66
		c-3.82,3.03-7.24,6.53-10.12,10.47c-0.18,0.25-0.41,0.49-0.59,0.74c-2.93-2.34-6.17-4.26-9.53-5.97
		c-3.21-1.64-6.59-2.91-10.12-3.87c-4.35-1.19-8.87-2.01-13.61-2.01c-20.42,0-38.03,11.48-47.11,28.27c-0.95,1.76-1.9,3.53-2.66,5.4
		c-1.91-4.45-4.46-8.41-7.46-11.91c-2.92-3.42-6.35-6.32-10.12-8.78c-3.14-2.03-6.52-3.74-10.12-5.07
		c-6.42-2.38-13.44-3.71-20.88-3.71C1345.81,168.29,1322.78,191.15,1321.6,221.52z"/>
	<rect y="128.44" fill="#5A6378" width="54.87" height="146.7"/>
	<path fill="#5A6378" d="M298.96,241.48h47.83c1.67,0,3.02-1.35,3.02-3.02V93.69c0-1.67-1.35-3.02-3.02-3.02h-47.83
		c-1.67,0-3.02,1.35-3.02,3.02v144.78C295.94,240.13,297.29,241.48,298.96,241.48z"/>
	<g>
		<defs>
			<rect id="SVGID_2_" x="186.23" y="173.95" width="182.51" height="66.54"/>
		</defs>
		<clipPath id="SVGID_3_">
			<use xlink:href="#SVGID_2_"  overflow="visible"/>
		</clipPath>
	</g>
	<g id="XMLID_29_">
		<g>
			<rect x="279.4" y="157.76" fill="#F5F5F5" width="5.39" height="9.23"/>
			<rect x="279.4" y="143.9" fill="#F5F5F5" width="5.39" height="9.24"/>
			<rect x="279.4" y="130.05" fill="#F5F5F5" width="5.39" height="9.24"/>
			<rect x="279.4" y="116.2" fill="#F5F5F5" width="5.39" height="9.23"/>
			<rect x="279.4" y="102.35" fill="#F5F5F5" width="5.39" height="9.23"/>
			<rect x="279.4" y="88.49" fill="#F5F5F5" width="5.39" height="9.24"/>
			<rect x="279.4" y="74.64" fill="#F5F5F5" width="5.39" height="9.24"/>
			<rect x="279.4" y="56.17" fill="#F5F5F5" width="5.39" height="13.86"/>
			<rect x="268.63" y="157.76" fill="#F5F5F5" width="5.39" height="9.23"/>
			<rect x="268.63" y="143.9" fill="#F5F5F5" width="5.39" height="9.24"/>
			<rect x="268.63" y="130.05" fill="#F5F5F5" width="5.39" height="9.24"/>
			<rect x="268.63" y="116.2" fill="#F5F5F5" width="5.39" height="9.23"/>
			<rect x="268.63" y="102.35" fill="#F5F5F5" width="5.39" height="9.23"/>
			<rect x="268.63" y="88.5" fill="#F5F5F5" width="5.39" height="9.23"/>
			<rect x="268.63" y="74.64" fill="#F5F5F5" width="5.39" height="9.24"/>
			<rect x="268.63" y="56.17" fill="#F5F5F5" width="5.39" height="13.86"/>
			<rect x="257.86" y="157.76" fill="#F5F5F5" width="5.38" height="9.23"/>
			<rect x="257.86" y="143.9" fill="#F5F5F5" width="5.38" height="9.24"/>
			<rect x="257.86" y="130.05" fill="#F5F5F5" width="5.38" height="9.24"/>
			<rect x="257.86" y="116.2" fill="#F5F5F5" width="5.38" height="9.23"/>
			<rect x="257.86" y="102.35" fill="#F5F5F5" width="5.38" height="9.23"/>
			<rect x="257.86" y="88.5" fill="#F5F5F5" width="5.38" height="9.23"/>
			<rect x="257.86" y="74.64" fill="#F5F5F5" width="5.38" height="9.24"/>
			<rect x="257.86" y="56.17" fill="#F5F5F5" width="5.38" height="13.86"/>
		</g>
	</g>
	<g id="XMLID_28_">
		<g>
			<rect x="333.65" y="167.16" fill="#F5F5F5" width="5.38" height="5.38"/>
			<rect x="333.65" y="151" fill="#F5F5F5" width="5.38" height="10.77"/>
			<rect x="333.65" y="134.84" fill="#F5F5F5" width="5.38" height="10.77"/>
			<rect x="333.65" y="118.68" fill="#F5F5F5" width="5.38" height="10.78"/>
			<rect x="333.65" y="102.53" fill="#F5F5F5" width="5.38" height="10.77"/>
			<rect x="317.49" y="167.16" fill="#F5F5F5" width="10.77" height="5.38"/>
			<rect x="317.49" y="151" fill="#F5F5F5" width="10.77" height="10.77"/>
			<rect x="317.49" y="134.84" fill="#F5F5F5" width="10.77" height="10.77"/>
			<rect x="317.49" y="118.68" fill="#F5F5F5" width="10.77" height="10.78"/>
			<rect x="317.49" y="102.53" fill="#F5F5F5" width="10.77" height="10.77"/>
			<rect x="306.72" y="167.16" fill="#F5F5F5" width="5.38" height="5.38"/>
			<rect x="306.72" y="151" fill="#F5F5F5" width="5.38" height="10.77"/>
			<rect x="306.72" y="134.84" fill="#F5F5F5" width="5.38" height="10.77"/>
			<rect x="306.72" y="118.68" fill="#F5F5F5" width="5.38" height="10.78"/>
			<rect x="306.72" y="102.53" fill="#F5F5F5" width="5.38" height="10.77"/>
		</g>
	</g>
	<g>
		<defs>
			<rect id="SVGID_4_" x="184.65" y="175.18" width="184.92" height="67.42"/>
		</defs>
		<clipPath id="SVGID_5_">
			<use xlink:href="#SVGID_4_"  overflow="visible"/>
		</clipPath>
		<g clip-path="url(#SVGID_5_)">
			<path fill="#AAD7D3" d="M271.25,296.26c-30.86,0-55.97-25.11-55.97-55.97c0-30.86,25.11-55.97,55.97-55.97
				s55.97,25.11,55.97,55.97C327.23,271.15,302.12,296.26,271.25,296.26z"/>
			<path fill="#F5F5F5" d="M271.25,187.32c29.21,0,52.97,23.76,52.97,52.97s-23.76,52.97-52.97,52.97s-52.97-23.76-52.97-52.97
				S242.04,187.32,271.25,187.32 M271.25,181.32c-32.57,0-58.97,26.4-58.97,58.97s26.4,58.97,58.97,58.97
				c32.57,0,58.97-26.4,58.97-58.97S303.82,181.32,271.25,181.32L271.25,181.32z"/>
		</g>
	</g>
	<g>
		<circle fill="#5A6378" cx="415.11" cy="161.14" r="40.83"/>
		<g id="XMLID_27_">
			<g>
				<path fill="#AAD7D3" d="M436.53,173.23c0.06,0.57,0.56,7.98-3.55,12.45c-1.92,2.08-4.56,3.18-7.62,3.18h-1.08h-6.13v11.86v3.09
					v3.09v33.64h-1.73h-4.39v-33.3v-3.07v-3.06V170.5h-6.13h-2.3c-7.3,0-9.95-6.35-9.95-10.61v-13.9c0-1.68,1.36-3.06,3.06-3.06
					c1.69,0,3.06,1.38,3.06,3.06v13.9c0.02,1.04,0.34,4.48,3.83,4.48h2.3h6.13v-18.38c0-0.42,0.08-0.83,0.24-1.19
					c0.45-1.09,1.55-1.87,2.82-1.87c1.68,0,3.06,1.36,3.06,3.06v36.76h6.13h1.08c1.36,0,2.35-0.39,3.12-1.22
					c1.96-2.14,2.06-6.63,1.93-8.04l-0.01-15.25c0-1.68,1.38-3.06,3.07-3.06c1.68,0,3.06,1.38,3.06,3.06V173.23z"/>
			</g>
		</g>
	</g>
	<g>
		<path fill="#5A6378" d="M338.06,72.34c-0.27-2.89-1-9.67-1.72-9.67s-1.45,6.78-1.72,9.67c0.45-0.36,1.09-0.63,1.72-0.63
			S337.61,71.89,338.06,72.34z"/>
		<circle fill="#5A6378" cx="336.34" cy="74.42" r="1.81"/>
		<path fill="#5A6378" d="M339.05,74.06c0,0.09,0,0.27,0,0.36c0,1.18-0.69,2.15-1.72,2.53c2.62,1.18,8.86,3.98,9.22,3.34
			C346.92,79.66,341.31,75.69,339.05,74.06z"/>
		<path fill="#5A6378" d="M333.63,74.42c0-0.09,0-0.27,0-0.36c-2.35,1.63-7.87,5.7-7.51,6.33c0.36,0.63,6.6-2.17,9.22-3.35
			l-0.81,13.65h3.61l-0.81-13.74c-0.31,0.11-0.64,0.18-0.99,0.18C334.8,77.13,333.63,75.96,333.63,74.42z"/>
		<path fill="#5A6378" d="M337.34,76.95L337.34,76.95L337.34,76.95L337.34,76.95z"/>
	</g>
	<g>
		<rect x="246.2" y="28.94" fill="#F5F5F5" width="4.71" height="4.71"/>
		<rect x="246.2" y="15.53" fill="#F5F5F5" width="4.71" height="4.71"/>
		<rect x="252.91" y="28.94" fill="#F5F5F5" width="4.71" height="4.71"/>
		<rect x="246.2" y="22.23" fill="#F5F5F5" width="4.71" height="4.71"/>
		<rect x="252.91" y="22.23" fill="#F5F5F5" width="4.71" height="4.71"/>
		<rect x="252.91" y="15.53" fill="#F5F5F5" width="4.71" height="4.71"/>
		<path fill="#28A197" d="M252.41,14.03h-1h-6.71v6.71v1v5.71v1v6.71h6.71h1h6.71v-6.71v-1v-5.71v-1v-6.71H252.41z M250.91,20.23
			h-4.71v-4.71h4.71V20.23z M250.91,26.94h-4.71v-4.71h4.71V26.94z M250.91,33.65h-4.71v-4.71h4.71V33.65z M257.62,20.23h-4.71
			v-4.71h4.71V20.23z M257.62,26.94h-4.71v-4.71h4.71V26.94z M257.62,33.65h-4.71v-4.71h4.71V33.65z"/>
		<rect x="246.2" y="33.65" fill="#28A197" width="11.42" height="3.48"/>
	</g>
	<g>
		<path fill="#28A197" d="M273.04,15.91c-0.27-2.89-1-9.67-1.72-9.67c-0.72,0-1.45,6.78-1.72,9.67c0.45-0.36,1.09-0.63,1.72-0.63
			C271.95,15.27,272.59,15.46,273.04,15.91z"/>
		<circle fill="#28A197" cx="271.32" cy="17.99" r="1.81"/>
		<path fill="#28A197" d="M274.03,17.63c0,0.09,0,0.27,0,0.36c0,1.18-0.69,2.15-1.72,2.53c2.62,1.18,8.86,3.98,9.22,3.34
			C281.9,23.23,276.29,19.25,274.03,17.63z"/>
		<path fill="#28A197" d="M268.61,17.99c0-0.09,0-0.27,0-0.36c-2.35,1.63-7.87,5.7-7.51,6.33s6.6-2.17,9.22-3.35l-0.81,19.52h3.61
			l-0.81-19.61c-0.31,0.11-0.64,0.18-0.99,0.18C269.78,20.7,268.61,19.52,268.61,17.99z"/>
		<path fill="#28A197" d="M272.32,20.52L272.32,20.52L272.32,20.52L272.32,20.52z"/>
	</g>
	<g>
		<rect x="285.03" y="28.94" fill="#F5F5F5" width="4.71" height="4.71"/>
		<rect x="285.03" y="15.53" fill="#F5F5F5" width="4.71" height="4.71"/>
		<rect x="291.73" y="28.94" fill="#F5F5F5" width="4.71" height="4.71"/>
		<rect x="285.03" y="22.23" fill="#F5F5F5" width="4.71" height="4.71"/>
		<rect x="291.73" y="22.23" fill="#F5F5F5" width="4.71" height="4.71"/>
		<rect x="291.73" y="15.53" fill="#F5F5F5" width="4.71" height="4.71"/>
		<path fill="#28A197" d="M291.23,14.03h-1h-6.71v6.71v1v5.71v1v6.71h6.71h1h6.71v-6.71v-1v-5.71v-1v-6.71H291.23z M289.73,20.23
			h-4.71v-4.71h4.71V20.23z M289.73,26.94h-4.71v-4.71h4.71V26.94z M289.73,33.65h-4.71v-4.71h4.71V33.65z M296.44,20.23h-4.71
			v-4.71h4.71V20.23z M296.44,26.94h-4.71v-4.71h4.71V26.94z M296.44,33.65h-4.71v-4.71h4.71V33.65z"/>
		<rect x="285.03" y="33.65" fill="#28A197" width="11.42" height="3.48"/>
	</g>
	<rect y="239.36" fill="#AAD7D3" width="2000" height="131.25"/>
	<path fill="#F5F5F5" d="M0,285.75c0,0,216.51-0.21,625.64,0.22C941.25,286.29,1633.5,313.16,2000,348c0,36.67,0,22.62,0,22.62H0
		L0,285.75z"/>
	<path fill="#F5F5F5" d="M75.59,275.8c0,0.71,0,4.39,0,4.39c0,0.52,0.99,1.67,1.74,2.19c0.56,1.95,2.35,3.37,4.48,3.37
		c2.03,0,3.76-1.3,4.4-3.11h14.55c0.64,1.81,2.37,3.11,4.4,3.11c2.03,0,3.76-1.3,4.4-3.11h1.05c0.64,0,2.33-1.77,2.33-2.44
		c0,0,0-4.66,0-5.37c0-1.25-0.61-2.04-4.8-2.92c-0.63-1.13-3.46-4.49-3.97-5.34c-0.52-0.86-1.07-1.05-2.08-1.05c-1.01,0-9.66,0-10,0
		c-0.36,0-1.04,0.1-2.08,1.05c-1.46,1.34-3.69,3.48-6.71,6.33C78.04,273.93,75.59,274.61,75.59,275.8z M104.9,273.3
		c-0.4,0-3.61,0-7.2,0v-5.31c1.77,0,3.39,0,3.71,0c0.77,0,1.05,0.2,1.48,0.8c0.33,0.47,1.76,2.3,2.36,3.14
		C105.95,272.89,105.61,273.3,104.9,273.3z M102.82,281.08c0-1.29,1.05-2.33,2.33-2.33s2.33,1.05,2.33,2.33
		c0,1.29-1.05,2.33-2.33,2.33C103.87,283.41,102.82,282.36,102.82,281.08z M87.05,273.3c-0.62,0-1-0.17-0.16-0.97
		c0.93-0.9,3.32-3.15,3.91-3.68c0.43-0.38,1.07-0.65,1.67-0.65c0,0,2.3,0,4.57,0v5.31C92.25,273.3,87.05,273.3,87.05,273.3z
		 M79.48,281.08c0-1.29,1.05-2.33,2.33-2.33s2.33,1.05,2.33,2.33c0,1.29-1.05,2.33-2.33,2.33S79.48,282.36,79.48,281.08z"/>
	<path fill="#F5F5F5" d="M155.62,271.79l0.01,8.16c0,0.57,0.47,1.04,1.04,1.04l2.13,0c0,2.63,2.14,4.76,4.76,4.75
		c2.63,0,4.76-2.13,4.75-4.76h0l2.13,0c0.57,0,1.04-0.47,1.04-1.04l-0.02-16.95c0-0.57-0.47-1.04-1.04-1.04h0l-3.72,0l-4.2,0
		c-0.35,0-0.67,0.17-0.87,0.46l-5.85,8.8c-0.11,0.16-0.17,0.35-0.17,0.55C155.62,271.77,155.62,271.78,155.62,271.79z
		 M158.47,271.48l4.22-6.35l4.01,0l0.01,6.34L158.47,271.48z M161.18,280.99c0-1.31,1.07-2.38,2.38-2.38c1.31,0,2.38,1.07,2.38,2.38
		c0,1.31-1.07,2.38-2.38,2.38C162.25,283.37,161.18,282.3,161.18,280.99z M173.05,260.16l0.02,19.44c0,0.76,0.62,1.38,1.38,1.38
		l4.96,0c0,2.63,2.13,4.76,4.76,4.75c2.63,0,4.76-2.13,4.75-4.76l3.38,0c0.76,0,1.38-0.62,1.38-1.38l-0.02-19.44
		c0-0.76-0.62-1.38-1.38-1.38l-17.86,0.02C173.67,258.77,173.05,259.39,173.05,260.16z M181.79,280.97c0-1.31,1.07-2.38,2.38-2.38
		c1.31,0,2.38,1.07,2.38,2.38c0,1.31-1.07,2.38-2.38,2.38C182.86,283.35,181.8,282.28,181.79,280.97z"/>
	<g>
		<path fill="#F5F5F5" d="M474.56,281.8c0,2.27,1.85,4.12,4.12,4.12c2.27,0,4.12-1.85,4.12-4.12c0-2.27-1.85-4.12-4.12-4.12
			C476.41,277.68,474.56,279.53,474.56,281.8z M476.31,281.8c0-1.31,1.07-2.37,2.37-2.37c1.31,0,2.37,1.07,2.37,2.37
			s-1.07,2.37-2.37,2.37C477.37,284.18,476.31,283.11,476.31,281.8z"/>
		<path fill="#F5F5F5" d="M462.77,281.8c0,2.27,1.85,4.12,4.12,4.12s4.12-1.85,4.12-4.12c0-2.27-1.85-4.12-4.12-4.12
			C464.62,277.68,462.77,279.53,462.77,281.8z M464.52,281.8c0-1.31,1.07-2.37,2.37-2.37c1.31,0,2.37,1.07,2.37,2.37
			s-1.07,2.37-2.37,2.37C465.59,284.18,464.52,283.11,464.52,281.8z"/>
		<path fill="#F5F5F5" d="M471.5,278.54v5.08c0,0.72,0.59,1.31,1.31,1.31c0.72,0,1.31-0.59,1.31-1.31v-4.49l2.84-2.51
			c0.27-0.24,0.44-0.59,0.44-0.96c0.01-0.37-0.14-0.72-0.4-0.97l-4.57-4.36c-0.28-0.27-0.66-0.4-1.05-0.36
			c-0.39,0.04-0.73,0.26-0.95,0.58l-1.62,2.45l-1.54,0.05c-0.72,0.03-1.29,0.63-1.26,1.36c0.03,0.72,0.64,1.29,1.36,1.26l2.21-0.08
			c0.42-0.01,0.81-0.23,1.05-0.59l1.13-1.71l2.4,2.3l-2.21,1.96C471.67,277.81,471.5,278.16,471.5,278.54z"/>
		<circle fill="#F5F5F5" cx="468.63" cy="268.88" r="1.73"/>
	</g>
	<path fill="#F5F5F5" d="M237.64,275.8c0,0.71,0,4.39,0,4.39c0,0.52,0.99,1.67,1.74,2.19c0.56,1.95,2.35,3.37,4.48,3.37
		c2.03,0,3.76-1.3,4.4-3.11h14.55c0.64,1.81,2.37,3.11,4.4,3.11c2.03,0,3.76-1.3,4.4-3.11h1.05c0.64,0,2.33-1.77,2.33-2.44
		c0,0,0-4.66,0-5.37c0-1.25-0.61-2.04-4.8-2.92c-0.63-1.13-3.46-4.49-3.97-5.34c-0.52-0.86-1.07-1.05-2.08-1.05c-1.01,0-9.66,0-10,0
		c-0.36,0-1.04,0.1-2.08,1.05c-1.46,1.34-3.69,3.48-6.71,6.33C240.09,273.93,237.64,274.61,237.64,275.8z M266.95,273.3
		c-0.4,0-3.61,0-7.2,0v-5.31c1.77,0,3.39,0,3.71,0c0.77,0,1.05,0.2,1.48,0.8c0.33,0.47,1.76,2.3,2.36,3.14
		C268,272.89,267.66,273.3,266.95,273.3z M264.87,281.08c0-1.29,1.05-2.33,2.33-2.33c1.29,0,2.33,1.05,2.33,2.33
		c0,1.29-1.05,2.33-2.33,2.33C265.92,283.41,264.87,282.36,264.87,281.08z M249.1,273.3c-0.62,0-1-0.17-0.16-0.97
		c0.93-0.9,3.32-3.15,3.91-3.68c0.43-0.38,1.07-0.65,1.67-0.65c0,0,2.3,0,4.57,0v5.31C254.3,273.3,249.1,273.3,249.1,273.3z
		 M241.53,281.08c0-1.29,1.05-2.33,2.33-2.33s2.33,1.05,2.33,2.33c0,1.29-1.05,2.33-2.33,2.33S241.53,282.36,241.53,281.08z"/>
	<g>
		<path fill="#D53A81" d="M264.98,248c0.82,0.4,1.7,0.59,2.56,0.59c2.16,0,4.23-1.2,5.24-3.27c0.19-0.4,0.35-0.84,0.44-1.25
			l5.9-25.6l2.25-9.75l1.39-6.04c0.16-0.7-0.4-1.18-0.96-1.18c-0.33,0-0.66,0.16-0.84,0.54l-2.83,5.79l-4.18,8.54l-11.64,23.82
			C260.89,243.1,262.09,246.59,264.98,248z"/>
		<g id="XMLID_26_">
			<g>
				<path fill="#AAD7D3" d="M267.75,239.76c1.58,0,2.86,1.28,2.86,2.86c0,1.57-1.28,2.85-2.86,2.85c-1.57,0-2.85-1.28-2.85-2.85
					C264.9,241.04,266.18,239.76,267.75,239.76z"/>
			</g>
			<g>
			</g>
		</g>
	</g>
	<path fill="#28A197" d="M280.64,37.13h-18.46v-6.86c0-0.73,0.59-1.33,1.33-1.33h15.81c0.73,0,1.33,0.59,1.33,1.33V37.13z"/>
	<circle fill="#F5F5F5" cx="266.93" cy="33.35" r="3.11"/>
	<circle fill="#F5F5F5" cx="275.82" cy="33.35" r="3.11"/>
	<path fill="#28A197" d="M269.16,34.29l-1.36-0.78c0-0.02,0.01-0.04,0.01-0.06c0-0.36-0.22-0.68-0.54-0.81v-1.66
		c0-0.19-0.16-0.35-0.35-0.35s-0.35,0.16-0.35,0.35v1.66c-0.31,0.14-0.54,0.45-0.54,0.81c0,0.02,0.01,0.04,0.01,0.06l-1.36,0.78
		c-0.17,0.1-0.23,0.31-0.13,0.48c0.06,0.11,0.18,0.17,0.3,0.17c0.06,0,0.12-0.01,0.17-0.05l1.33-0.77c0.15,0.12,0.34,0.21,0.55,0.21
		s0.4-0.08,0.55-0.21l1.33,0.77c0.06,0.03,0.12,0.05,0.17,0.05c0.12,0,0.24-0.06,0.3-0.17C269.38,34.6,269.32,34.38,269.16,34.29z"
		/>
	<path fill="#28A197" d="M278.05,34.29l-1.36-0.78c0-0.02,0.01-0.04,0.01-0.06c0-0.36-0.22-0.68-0.54-0.81v-1.66
		c0-0.19-0.16-0.35-0.35-0.35s-0.35,0.16-0.35,0.35v1.66c-0.31,0.14-0.54,0.45-0.54,0.81c0,0.02,0.01,0.04,0.01,0.06l-1.36,0.78
		c-0.17,0.1-0.23,0.31-0.13,0.48c0.06,0.11,0.18,0.17,0.3,0.17c0.06,0,0.12-0.01,0.17-0.05l1.33-0.77c0.15,0.12,0.34,0.21,0.55,0.21
		s0.4-0.08,0.55-0.21l1.33,0.77c0.06,0.03,0.12,0.05,0.17,0.05c0.12,0,0.24-0.06,0.3-0.17C278.27,34.6,278.22,34.38,278.05,34.29z"
		/>
	<g>
		<path fill="#5A6378" d="M1817.06,180.4v-21.75c0-1.93-2.2-3.02-3.74-1.87l-31.49,23.62v-21.75c0-1.93-2.2-3.02-3.74-1.87
			l-31.49,23.62l-0.14-83.88h-28.12v145.52h28.26h105.68v-83.39c0-1.93-2.2-3.02-3.74-1.87L1817.06,180.4z"/>
	</g>
	<g>
		<path fill="#5A6378" d="M1673.13,180.4v-21.75c0-1.93-2.2-3.02-3.74-1.87l-31.49,23.62v-21.75c0-1.93-2.2-3.02-3.74-1.87
			l-31.49,23.62l-0.14-83.88h-28.12v145.52h28.26h105.68v-83.39c0-1.93-2.2-3.02-3.74-1.87L1673.13,180.4z"/>
	</g>
	<path fill="#AAD7D3" d="M1809.27,209.32c-6.42,0-12.48,1.15-18.01,3.2c-3.11,1.15-6.03,2.62-8.73,4.38
		c-3.26,2.12-6.21,4.63-8.73,7.58c-2.59,3.02-4.79,6.44-6.44,10.28c-0.65-1.62-1.48-3.14-2.3-4.66
		c-7.83-14.49-23.03-24.39-40.65-24.39c-4.1,0-7.99,0.71-11.75,1.74c-3.05,0.83-5.96,1.92-8.73,3.34c-2.9,1.48-5.69,3.14-8.23,5.15
		c-0.16-0.22-0.35-0.42-0.51-0.64c-2.49-3.4-5.44-6.42-8.73-9.03c-7.88-6.25-17.77-10.06-28.61-10.06c-8.71,0-16.83,2.7-23.79,7.21
		c-13.5,8.75-22.57,24.43-22.57,41.32c0,2.85,0.35,1.77,0.84,10.51h21.73h134.39h14.06h5.33h66.87
		C1853.7,229.04,1833.83,209.32,1809.27,209.32z"/>
	<path fill="#5A6378" d="M1158.2,240.53h66.87h5.33h14.06h134.39h21.73c0.49-8.73,0.84-7.66,0.84-10.51
		c0-16.89-9.06-32.57-22.57-41.32c-6.96-4.51-15.08-7.21-23.79-7.21c-10.84,0-20.73,3.81-28.61,10.06
		c-3.29,2.61-6.24,5.63-8.73,9.03c-0.16,0.22-0.35,0.42-0.51,0.64c-2.53-2.02-5.33-3.68-8.23-5.15c-2.77-1.41-5.68-2.51-8.73-3.34
		c-3.76-1.03-7.65-1.74-11.75-1.74c-17.62,0-32.82,9.9-40.65,24.39c-0.82,1.52-1.64,3.05-2.3,4.66c-1.65-3.84-3.85-7.26-6.44-10.28
		c-2.52-2.95-5.47-5.46-8.73-7.58c-2.71-1.76-5.62-3.22-8.73-4.38c-5.54-2.05-11.6-3.2-18.01-3.2
		C1179.09,194.61,1159.22,214.33,1158.2,240.53z"/>
	<g>
		<circle fill="#5A6378" cx="1325.14" cy="161.11" r="40.83"/>
		<g id="XMLID_25_">
			<g>
				<path fill="#AAD7D3" d="M1346.55,173.2c0.06,0.57,0.56,7.98-3.55,12.45c-1.92,2.08-4.56,3.18-7.62,3.18h-1.08h-6.13v11.86v3.09
					v3.09v33.64h-1.73h-4.39v-33.3v-3.07v-3.06v-30.63h-6.13h-2.3c-7.3,0-9.95-6.35-9.95-10.61v-13.9c0-1.68,1.36-3.06,3.06-3.06
					s3.06,1.38,3.06,3.06v13.9c0.02,1.04,0.34,4.48,3.83,4.48h2.3h6.13v-18.38c0-0.42,0.08-0.83,0.24-1.19
					c0.45-1.09,1.55-1.87,2.82-1.87c1.68,0,3.06,1.36,3.06,3.06v36.76h6.13h1.08c1.36,0,2.35-0.39,3.12-1.22
					c1.96-2.14,2.06-6.63,1.93-8.04l-0.01-15.25c0-1.68,1.38-3.06,3.07-3.06c1.68,0,3.06,1.38,3.06,3.06V173.2z"/>
			</g>
		</g>
	</g>
	<g>
		<g>
			<g>
				<g>
					<g id="XMLID_112_">
						<g>
							<path fill="#AAD7D3" d="M1308.24,239.96h-0.27h-0.68v-17.32c0-0.08,0.01-0.15,0.04-0.22c0.07-0.2,0.24-0.34,0.44-0.34
								c0.26,0,0.47,0.25,0.47,0.56V239.96z"/>
						</g>
					</g>
				</g>
				<path fill="#AAD7D3" d="M1306.69,230.5c0.9,1.05,0.75,2.66,0.75,2.66s-1.61-0.1-2.51-1.15s-0.75-2.66-0.75-2.66
					S1305.79,229.44,1306.69,230.5z"/>
				<path fill="#AAD7D3" d="M1308.93,221.01c0.01,1.38-1.14,2.52-1.14,2.52s-1.17-1.11-1.18-2.5s1.14-2.52,1.14-2.52
					S1308.92,219.62,1308.93,221.01z"/>
				<path fill="#AAD7D3" d="M1308.88,230.5c-0.9,1.05-0.75,2.66-0.75,2.66s1.61-0.1,2.51-1.15c0.9-1.05,0.75-2.66,0.75-2.66
					S1309.77,229.44,1308.88,230.5z"/>
				<path fill="#AAD7D3" d="M1306.69,223.24c0.9,1.05,0.75,2.66,0.75,2.66s-1.61-0.1-2.51-1.15s-0.75-2.66-0.75-2.66
					S1305.79,222.18,1306.69,223.24z"/>
				<path fill="#AAD7D3" d="M1308.88,223.24c-0.9,1.05-0.75,2.66-0.75,2.66s1.61-0.1,2.51-1.15c0.9-1.05,0.75-2.66,0.75-2.66
					S1309.77,222.18,1308.88,223.24z"/>
				<path fill="#AAD7D3" d="M1306.69,226.87c0.9,1.05,0.75,2.66,0.75,2.66s-1.61-0.1-2.51-1.15s-0.75-2.66-0.75-2.66
					S1305.79,225.81,1306.69,226.87z"/>
				<path fill="#AAD7D3" d="M1308.88,226.87c-0.9,1.05-0.75,2.66-0.75,2.66s1.61-0.1,2.51-1.15c0.9-1.05,0.75-2.66,0.75-2.66
					S1309.77,225.81,1308.88,226.87z"/>
				<path fill="#AAD7D3" d="M1306.69,234.13c0.9,1.05,0.75,2.66,0.75,2.66s-1.61-0.1-2.51-1.15s-0.75-2.66-0.75-2.66
					S1305.79,233.07,1306.69,234.13z"/>
				<path fill="#AAD7D3" d="M1308.88,234.13c-0.9,1.05-0.75,2.66-0.75,2.66s1.61-0.1,2.51-1.15c0.9-1.05,0.75-2.66,0.75-2.66
					S1309.77,233.07,1308.88,234.13z"/>
			</g>
		</g>
		<g>
			<g>
				<g>
					<g id="XMLID_109_">
						<g>
							<path fill="#AAD7D3" d="M1294.24,239.96h-0.27h-0.68v-17.32c0-0.08,0.01-0.15,0.04-0.22c0.07-0.2,0.24-0.34,0.44-0.34
								c0.26,0,0.47,0.25,0.47,0.56V239.96z"/>
						</g>
					</g>
				</g>
				<path fill="#AAD7D3" d="M1292.69,230.5c0.9,1.05,0.75,2.66,0.75,2.66s-1.61-0.1-2.51-1.15s-0.75-2.66-0.75-2.66
					S1291.79,229.44,1292.69,230.5z"/>
				<path fill="#AAD7D3" d="M1294.93,221.01c0.01,1.38-1.14,2.52-1.14,2.52s-1.17-1.11-1.18-2.5s1.14-2.52,1.14-2.52
					S1294.92,219.62,1294.93,221.01z"/>
				<path fill="#AAD7D3" d="M1294.88,230.5c-0.9,1.05-0.75,2.66-0.75,2.66s1.61-0.1,2.51-1.15c0.9-1.05,0.75-2.66,0.75-2.66
					S1295.77,229.44,1294.88,230.5z"/>
				<path fill="#AAD7D3" d="M1292.69,223.24c0.9,1.05,0.75,2.66,0.75,2.66s-1.61-0.1-2.51-1.15s-0.75-2.66-0.75-2.66
					S1291.79,222.18,1292.69,223.24z"/>
				<path fill="#AAD7D3" d="M1294.88,223.24c-0.9,1.05-0.75,2.66-0.75,2.66s1.61-0.1,2.51-1.15c0.9-1.05,0.75-2.66,0.75-2.66
					S1295.77,222.18,1294.88,223.24z"/>
				<path fill="#AAD7D3" d="M1292.69,226.87c0.9,1.05,0.75,2.66,0.75,2.66s-1.61-0.1-2.51-1.15s-0.75-2.66-0.75-2.66
					S1291.79,225.81,1292.69,226.87z"/>
				<path fill="#AAD7D3" d="M1294.88,226.87c-0.9,1.05-0.75,2.66-0.75,2.66s1.61-0.1,2.51-1.15c0.9-1.05,0.75-2.66,0.75-2.66
					S1295.77,225.81,1294.88,226.87z"/>
				<path fill="#AAD7D3" d="M1292.69,234.13c0.9,1.05,0.75,2.66,0.75,2.66s-1.61-0.1-2.51-1.15s-0.75-2.66-0.75-2.66
					S1291.79,233.07,1292.69,234.13z"/>
				<path fill="#AAD7D3" d="M1294.88,234.13c-0.9,1.05-0.75,2.66-0.75,2.66s1.61-0.1,2.51-1.15c0.9-1.05,0.75-2.66,0.75-2.66
					S1295.77,233.07,1294.88,234.13z"/>
			</g>
		</g>
		<g>
			<g>
				<g>
					<g id="XMLID_106_">
						<g>
							<path fill="#AAD7D3" d="M1280.24,239.96h-0.27h-0.68v-17.32c0-0.08,0.01-0.15,0.04-0.22c0.07-0.2,0.24-0.34,0.44-0.34
								c0.26,0,0.47,0.25,0.47,0.56V239.96z"/>
						</g>
					</g>
				</g>
				<path fill="#AAD7D3" d="M1278.69,230.5c0.9,1.05,0.75,2.66,0.75,2.66s-1.61-0.1-2.51-1.15s-0.75-2.66-0.75-2.66
					S1277.79,229.44,1278.69,230.5z"/>
				<path fill="#AAD7D3" d="M1280.93,221.01c0.01,1.38-1.14,2.52-1.14,2.52s-1.17-1.11-1.18-2.5s1.14-2.52,1.14-2.52
					S1280.92,219.62,1280.93,221.01z"/>
				<path fill="#AAD7D3" d="M1280.88,230.5c-0.9,1.05-0.75,2.66-0.75,2.66s1.61-0.1,2.51-1.15c0.9-1.05,0.75-2.66,0.75-2.66
					S1281.77,229.44,1280.88,230.5z"/>
				<path fill="#AAD7D3" d="M1278.69,223.24c0.9,1.05,0.75,2.66,0.75,2.66s-1.61-0.1-2.51-1.15s-0.75-2.66-0.75-2.66
					S1277.79,222.18,1278.69,223.24z"/>
				<path fill="#AAD7D3" d="M1280.88,223.24c-0.9,1.05-0.75,2.66-0.75,2.66s1.61-0.1,2.51-1.15c0.9-1.05,0.75-2.66,0.75-2.66
					S1281.77,222.18,1280.88,223.24z"/>
				<path fill="#AAD7D3" d="M1278.69,226.87c0.9,1.05,0.75,2.66,0.75,2.66s-1.61-0.1-2.51-1.15s-0.75-2.66-0.75-2.66
					S1277.79,225.81,1278.69,226.87z"/>
				<path fill="#AAD7D3" d="M1280.88,226.87c-0.9,1.05-0.75,2.66-0.75,2.66s1.61-0.1,2.51-1.15c0.9-1.05,0.75-2.66,0.75-2.66
					S1281.77,225.81,1280.88,226.87z"/>
				<path fill="#AAD7D3" d="M1278.69,234.13c0.9,1.05,0.75,2.66,0.75,2.66s-1.61-0.1-2.51-1.15s-0.75-2.66-0.75-2.66
					S1277.79,233.07,1278.69,234.13z"/>
				<path fill="#AAD7D3" d="M1280.88,234.13c-0.9,1.05-0.75,2.66-0.75,2.66s1.61-0.1,2.51-1.15c0.9-1.05,0.75-2.66,0.75-2.66
					S1281.77,233.07,1280.88,234.13z"/>
			</g>
		</g>
		<g>
			<g>
				<g>
					<g id="XMLID_103_">
						<g>
							<path fill="#AAD7D3" d="M1266.24,239.96h-0.27h-0.68v-17.32c0-0.08,0.01-0.15,0.04-0.22c0.07-0.2,0.24-0.34,0.44-0.34
								c0.26,0,0.47,0.25,0.47,0.56V239.96z"/>
						</g>
					</g>
				</g>
				<path fill="#AAD7D3" d="M1264.69,230.5c0.9,1.05,0.75,2.66,0.75,2.66s-1.61-0.1-2.51-1.15s-0.75-2.66-0.75-2.66
					S1263.79,229.44,1264.69,230.5z"/>
				<path fill="#AAD7D3" d="M1266.93,221.01c0.01,1.38-1.14,2.52-1.14,2.52s-1.17-1.11-1.18-2.5s1.14-2.52,1.14-2.52
					S1266.92,219.62,1266.93,221.01z"/>
				<path fill="#AAD7D3" d="M1266.88,230.5c-0.9,1.05-0.75,2.66-0.75,2.66s1.61-0.1,2.51-1.15c0.9-1.05,0.75-2.66,0.75-2.66
					S1267.77,229.44,1266.88,230.5z"/>
				<path fill="#AAD7D3" d="M1264.69,223.24c0.9,1.05,0.75,2.66,0.75,2.66s-1.61-0.1-2.51-1.15s-0.75-2.66-0.75-2.66
					S1263.79,222.18,1264.69,223.24z"/>
				<path fill="#AAD7D3" d="M1266.88,223.24c-0.9,1.05-0.75,2.66-0.75,2.66s1.61-0.1,2.51-1.15c0.9-1.05,0.75-2.66,0.75-2.66
					S1267.77,222.18,1266.88,223.24z"/>
				<path fill="#AAD7D3" d="M1264.69,226.87c0.9,1.05,0.75,2.66,0.75,2.66s-1.61-0.1-2.51-1.15s-0.75-2.66-0.75-2.66
					S1263.79,225.81,1264.69,226.87z"/>
				<path fill="#AAD7D3" d="M1266.88,226.87c-0.9,1.05-0.75,2.66-0.75,2.66s1.61-0.1,2.51-1.15c0.9-1.05,0.75-2.66,0.75-2.66
					S1267.77,225.81,1266.88,226.87z"/>
				<path fill="#AAD7D3" d="M1264.69,234.13c0.9,1.05,0.75,2.66,0.75,2.66s-1.61-0.1-2.51-1.15s-0.75-2.66-0.75-2.66
					S1263.79,233.07,1264.69,234.13z"/>
				<path fill="#AAD7D3" d="M1266.88,234.13c-0.9,1.05-0.75,2.66-0.75,2.66s1.61-0.1,2.51-1.15c0.9-1.05,0.75-2.66,0.75-2.66
					S1267.77,233.07,1266.88,234.13z"/>
			</g>
		</g>
		<g>
			<g>
				<g>
					<g id="XMLID_100_">
						<g>
							<path fill="#AAD7D3" d="M1252.24,239.96h-0.27h-0.68v-17.32c0-0.08,0.01-0.15,0.04-0.22c0.07-0.2,0.24-0.34,0.44-0.34
								c0.26,0,0.47,0.25,0.47,0.56V239.96z"/>
						</g>
					</g>
				</g>
				<path fill="#AAD7D3" d="M1250.69,230.5c0.9,1.05,0.75,2.66,0.75,2.66s-1.61-0.1-2.51-1.15s-0.75-2.66-0.75-2.66
					S1249.79,229.44,1250.69,230.5z"/>
				<path fill="#AAD7D3" d="M1252.93,221.01c0.01,1.38-1.14,2.52-1.14,2.52s-1.17-1.11-1.18-2.5s1.14-2.52,1.14-2.52
					S1252.92,219.62,1252.93,221.01z"/>
				<path fill="#AAD7D3" d="M1252.88,230.5c-0.9,1.05-0.75,2.66-0.75,2.66s1.61-0.1,2.51-1.15c0.9-1.05,0.75-2.66,0.75-2.66
					S1253.77,229.44,1252.88,230.5z"/>
				<path fill="#AAD7D3" d="M1250.69,223.24c0.9,1.05,0.75,2.66,0.75,2.66s-1.61-0.1-2.51-1.15s-0.75-2.66-0.75-2.66
					S1249.79,222.18,1250.69,223.24z"/>
				<path fill="#AAD7D3" d="M1252.88,223.24c-0.9,1.05-0.75,2.66-0.75,2.66s1.61-0.1,2.51-1.15c0.9-1.05,0.75-2.66,0.75-2.66
					S1253.77,222.18,1252.88,223.24z"/>
				<path fill="#AAD7D3" d="M1250.69,226.87c0.9,1.05,0.75,2.66,0.75,2.66s-1.61-0.1-2.51-1.15s-0.75-2.66-0.75-2.66
					S1249.79,225.81,1250.69,226.87z"/>
				<path fill="#AAD7D3" d="M1252.88,226.87c-0.9,1.05-0.75,2.66-0.75,2.66s1.61-0.1,2.51-1.15c0.9-1.05,0.75-2.66,0.75-2.66
					S1253.77,225.81,1252.88,226.87z"/>
				<path fill="#AAD7D3" d="M1250.69,234.13c0.9,1.05,0.75,2.66,0.75,2.66s-1.61-0.1-2.51-1.15s-0.75-2.66-0.75-2.66
					S1249.79,233.07,1250.69,234.13z"/>
				<path fill="#AAD7D3" d="M1252.88,234.13c-0.9,1.05-0.75,2.66-0.75,2.66s1.61-0.1,2.51-1.15c0.9-1.05,0.75-2.66,0.75-2.66
					S1253.77,233.07,1252.88,234.13z"/>
			</g>
		</g>
		<g>
			<g>
				<g>
					<g id="XMLID_97_">
						<g>
							<path fill="#AAD7D3" d="M1238.24,239.96h-0.27h-0.68v-17.32c0-0.08,0.01-0.15,0.04-0.22c0.07-0.2,0.24-0.34,0.44-0.34
								c0.26,0,0.47,0.25,0.47,0.56V239.96z"/>
						</g>
					</g>
				</g>
				<path fill="#AAD7D3" d="M1236.69,230.5c0.9,1.05,0.75,2.66,0.75,2.66s-1.61-0.1-2.51-1.15s-0.75-2.66-0.75-2.66
					S1235.79,229.44,1236.69,230.5z"/>
				<path fill="#AAD7D3" d="M1238.93,221.01c0.01,1.38-1.14,2.52-1.14,2.52s-1.17-1.11-1.18-2.5s1.14-2.52,1.14-2.52
					S1238.92,219.62,1238.93,221.01z"/>
				<path fill="#AAD7D3" d="M1238.88,230.5c-0.9,1.05-0.75,2.66-0.75,2.66s1.61-0.1,2.51-1.15c0.9-1.05,0.75-2.66,0.75-2.66
					S1239.77,229.44,1238.88,230.5z"/>
				<path fill="#AAD7D3" d="M1236.69,223.24c0.9,1.05,0.75,2.66,0.75,2.66s-1.61-0.1-2.51-1.15s-0.75-2.66-0.75-2.66
					S1235.79,222.18,1236.69,223.24z"/>
				<path fill="#AAD7D3" d="M1238.88,223.24c-0.9,1.05-0.75,2.66-0.75,2.66s1.61-0.1,2.51-1.15c0.9-1.05,0.75-2.66,0.75-2.66
					S1239.77,222.18,1238.88,223.24z"/>
				<path fill="#AAD7D3" d="M1236.69,226.87c0.9,1.05,0.75,2.66,0.75,2.66s-1.61-0.1-2.51-1.15s-0.75-2.66-0.75-2.66
					S1235.79,225.81,1236.69,226.87z"/>
				<path fill="#AAD7D3" d="M1238.88,226.87c-0.9,1.05-0.75,2.66-0.75,2.66s1.61-0.1,2.51-1.15c0.9-1.05,0.75-2.66,0.75-2.66
					S1239.77,225.81,1238.88,226.87z"/>
				<path fill="#AAD7D3" d="M1236.69,234.13c0.9,1.05,0.75,2.66,0.75,2.66s-1.61-0.1-2.51-1.15s-0.75-2.66-0.75-2.66
					S1235.79,233.07,1236.69,234.13z"/>
				<path fill="#AAD7D3" d="M1238.88,234.13c-0.9,1.05-0.75,2.66-0.75,2.66s1.61-0.1,2.51-1.15c0.9-1.05,0.75-2.66,0.75-2.66
					S1239.77,233.07,1238.88,234.13z"/>
			</g>
		</g>
		<g>
			<g>
				<g>
					<g id="XMLID_94_">
						<g>
							<path fill="#AAD7D3" d="M1224.24,239.96h-0.27h-0.68v-17.32c0-0.08,0.01-0.15,0.04-0.22c0.07-0.2,0.24-0.34,0.44-0.34
								c0.26,0,0.47,0.25,0.47,0.56V239.96z"/>
						</g>
					</g>
				</g>
				<path fill="#AAD7D3" d="M1222.69,230.5c0.9,1.05,0.75,2.66,0.75,2.66s-1.61-0.1-2.51-1.15s-0.75-2.66-0.75-2.66
					S1221.79,229.44,1222.69,230.5z"/>
				<path fill="#AAD7D3" d="M1224.93,221.01c0.01,1.38-1.14,2.52-1.14,2.52s-1.17-1.11-1.18-2.5s1.14-2.52,1.14-2.52
					S1224.92,219.62,1224.93,221.01z"/>
				<path fill="#AAD7D3" d="M1224.88,230.5c-0.9,1.05-0.75,2.66-0.75,2.66s1.61-0.1,2.51-1.15c0.9-1.05,0.75-2.66,0.75-2.66
					S1225.77,229.44,1224.88,230.5z"/>
				<path fill="#AAD7D3" d="M1222.69,223.24c0.9,1.05,0.75,2.66,0.75,2.66s-1.61-0.1-2.51-1.15s-0.75-2.66-0.75-2.66
					S1221.79,222.18,1222.69,223.24z"/>
				<path fill="#AAD7D3" d="M1224.88,223.24c-0.9,1.05-0.75,2.66-0.75,2.66s1.61-0.1,2.51-1.15c0.9-1.05,0.75-2.66,0.75-2.66
					S1225.77,222.18,1224.88,223.24z"/>
				<path fill="#AAD7D3" d="M1222.69,226.87c0.9,1.05,0.75,2.66,0.75,2.66s-1.61-0.1-2.51-1.15s-0.75-2.66-0.75-2.66
					S1221.79,225.81,1222.69,226.87z"/>
				<path fill="#AAD7D3" d="M1224.88,226.87c-0.9,1.05-0.75,2.66-0.75,2.66s1.61-0.1,2.51-1.15c0.9-1.05,0.75-2.66,0.75-2.66
					S1225.77,225.81,1224.88,226.87z"/>
				<path fill="#AAD7D3" d="M1222.69,234.13c0.9,1.05,0.75,2.66,0.75,2.66s-1.61-0.1-2.51-1.15s-0.75-2.66-0.75-2.66
					S1221.79,233.07,1222.69,234.13z"/>
				<path fill="#AAD7D3" d="M1224.88,234.13c-0.9,1.05-0.75,2.66-0.75,2.66s1.61-0.1,2.51-1.15c0.9-1.05,0.75-2.66,0.75-2.66
					S1225.77,233.07,1224.88,234.13z"/>
			</g>
		</g>
		<g>
			<g>
				<g>
					<g id="XMLID_91_">
						<g>
							<path fill="#AAD7D3" d="M1210.24,239.96h-0.27h-0.68v-17.32c0-0.08,0.01-0.15,0.04-0.22c0.07-0.2,0.24-0.34,0.44-0.34
								c0.26,0,0.47,0.25,0.47,0.56V239.96z"/>
						</g>
					</g>
				</g>
				<path fill="#AAD7D3" d="M1208.69,230.5c0.9,1.05,0.75,2.66,0.75,2.66s-1.61-0.1-2.51-1.15s-0.75-2.66-0.75-2.66
					S1207.79,229.44,1208.69,230.5z"/>
				<path fill="#AAD7D3" d="M1210.93,221.01c0.01,1.38-1.14,2.52-1.14,2.52s-1.17-1.11-1.18-2.5s1.14-2.52,1.14-2.52
					S1210.92,219.62,1210.93,221.01z"/>
				<path fill="#AAD7D3" d="M1210.88,230.5c-0.9,1.05-0.75,2.66-0.75,2.66s1.61-0.1,2.51-1.15c0.9-1.05,0.75-2.66,0.75-2.66
					S1211.77,229.44,1210.88,230.5z"/>
				<path fill="#AAD7D3" d="M1208.69,223.24c0.9,1.05,0.75,2.66,0.75,2.66s-1.61-0.1-2.51-1.15s-0.75-2.66-0.75-2.66
					S1207.79,222.18,1208.69,223.24z"/>
				<path fill="#AAD7D3" d="M1210.88,223.24c-0.9,1.05-0.75,2.66-0.75,2.66s1.61-0.1,2.51-1.15c0.9-1.05,0.75-2.66,0.75-2.66
					S1211.77,222.18,1210.88,223.24z"/>
				<path fill="#AAD7D3" d="M1208.69,226.87c0.9,1.05,0.75,2.66,0.75,2.66s-1.61-0.1-2.51-1.15s-0.75-2.66-0.75-2.66
					S1207.79,225.81,1208.69,226.87z"/>
				<path fill="#AAD7D3" d="M1210.88,226.87c-0.9,1.05-0.75,2.66-0.75,2.66s1.61-0.1,2.51-1.15c0.9-1.05,0.75-2.66,0.75-2.66
					S1211.77,225.81,1210.88,226.87z"/>
				<path fill="#AAD7D3" d="M1208.69,234.13c0.9,1.05,0.75,2.66,0.75,2.66s-1.61-0.1-2.51-1.15s-0.75-2.66-0.75-2.66
					S1207.79,233.07,1208.69,234.13z"/>
				<path fill="#AAD7D3" d="M1210.88,234.13c-0.9,1.05-0.75,2.66-0.75,2.66s1.61-0.1,2.51-1.15c0.9-1.05,0.75-2.66,0.75-2.66
					S1211.77,233.07,1210.88,234.13z"/>
			</g>
		</g>
		<g>
			<g>
				<g>
					<g id="XMLID_88_">
						<g>
							<path fill="#AAD7D3" d="M1196.24,239.96h-0.27h-0.68v-17.32c0-0.08,0.01-0.15,0.04-0.22c0.07-0.2,0.24-0.34,0.44-0.34
								c0.26,0,0.47,0.25,0.47,0.56V239.96z"/>
						</g>
					</g>
				</g>
				<path fill="#AAD7D3" d="M1194.69,230.5c0.9,1.05,0.75,2.66,0.75,2.66s-1.61-0.1-2.51-1.15s-0.75-2.66-0.75-2.66
					S1193.79,229.44,1194.69,230.5z"/>
				<path fill="#AAD7D3" d="M1196.93,221.01c0.01,1.38-1.14,2.52-1.14,2.52s-1.17-1.11-1.18-2.5s1.14-2.52,1.14-2.52
					S1196.92,219.62,1196.93,221.01z"/>
				<path fill="#AAD7D3" d="M1196.88,230.5c-0.9,1.05-0.75,2.66-0.75,2.66s1.61-0.1,2.51-1.15c0.9-1.05,0.75-2.66,0.75-2.66
					S1197.77,229.44,1196.88,230.5z"/>
				<path fill="#AAD7D3" d="M1194.69,223.24c0.9,1.05,0.75,2.66,0.75,2.66s-1.61-0.1-2.51-1.15s-0.75-2.66-0.75-2.66
					S1193.79,222.18,1194.69,223.24z"/>
				<path fill="#AAD7D3" d="M1196.88,223.24c-0.9,1.05-0.75,2.66-0.75,2.66s1.61-0.1,2.51-1.15c0.9-1.05,0.75-2.66,0.75-2.66
					S1197.77,222.18,1196.88,223.24z"/>
				<path fill="#AAD7D3" d="M1194.69,226.87c0.9,1.05,0.75,2.66,0.75,2.66s-1.61-0.1-2.51-1.15s-0.75-2.66-0.75-2.66
					S1193.79,225.81,1194.69,226.87z"/>
				<path fill="#AAD7D3" d="M1196.88,226.87c-0.9,1.05-0.75,2.66-0.75,2.66s1.61-0.1,2.51-1.15c0.9-1.05,0.75-2.66,0.75-2.66
					S1197.77,225.81,1196.88,226.87z"/>
				<path fill="#AAD7D3" d="M1194.69,234.13c0.9,1.05,0.75,2.66,0.75,2.66s-1.61-0.1-2.51-1.15s-0.75-2.66-0.75-2.66
					S1193.79,233.07,1194.69,234.13z"/>
				<path fill="#AAD7D3" d="M1196.88,234.13c-0.9,1.05-0.75,2.66-0.75,2.66s1.61-0.1,2.51-1.15c0.9-1.05,0.75-2.66,0.75-2.66
					S1197.77,233.07,1196.88,234.13z"/>
			</g>
		</g>
		<g>
			<g>
				<g>
					<g id="XMLID_85_">
						<g>
							<path fill="#AAD7D3" d="M1182.24,239.96h-0.27h-0.68v-17.32c0-0.08,0.01-0.15,0.04-0.22c0.07-0.2,0.24-0.34,0.44-0.34
								c0.26,0,0.47,0.25,0.47,0.56V239.96z"/>
						</g>
					</g>
				</g>
				<path fill="#AAD7D3" d="M1180.69,230.5c0.9,1.05,0.75,2.66,0.75,2.66s-1.61-0.1-2.51-1.15s-0.75-2.66-0.75-2.66
					S1179.79,229.44,1180.69,230.5z"/>
				<path fill="#AAD7D3" d="M1182.93,221.01c0.01,1.38-1.14,2.52-1.14,2.52s-1.17-1.11-1.18-2.5s1.14-2.52,1.14-2.52
					S1182.92,219.62,1182.93,221.01z"/>
				<path fill="#AAD7D3" d="M1182.88,230.5c-0.9,1.05-0.75,2.66-0.75,2.66s1.61-0.1,2.51-1.15c0.9-1.05,0.75-2.66,0.75-2.66
					S1183.77,229.44,1182.88,230.5z"/>
				<path fill="#AAD7D3" d="M1180.69,223.24c0.9,1.05,0.75,2.66,0.75,2.66s-1.61-0.1-2.51-1.15s-0.75-2.66-0.75-2.66
					S1179.79,222.18,1180.69,223.24z"/>
				<path fill="#AAD7D3" d="M1182.88,223.24c-0.9,1.05-0.75,2.66-0.75,2.66s1.61-0.1,2.51-1.15c0.9-1.05,0.75-2.66,0.75-2.66
					S1183.77,222.18,1182.88,223.24z"/>
				<path fill="#AAD7D3" d="M1180.69,226.87c0.9,1.05,0.75,2.66,0.75,2.66s-1.61-0.1-2.51-1.15s-0.75-2.66-0.75-2.66
					S1179.79,225.81,1180.69,226.87z"/>
				<path fill="#AAD7D3" d="M1182.88,226.87c-0.9,1.05-0.75,2.66-0.75,2.66s1.61-0.1,2.51-1.15c0.9-1.05,0.75-2.66,0.75-2.66
					S1183.77,225.81,1182.88,226.87z"/>
				<path fill="#AAD7D3" d="M1180.69,234.13c0.9,1.05,0.75,2.66,0.75,2.66s-1.61-0.1-2.51-1.15s-0.75-2.66-0.75-2.66
					S1179.79,233.07,1180.69,234.13z"/>
				<path fill="#AAD7D3" d="M1182.88,234.13c-0.9,1.05-0.75,2.66-0.75,2.66s1.61-0.1,2.51-1.15c0.9-1.05,0.75-2.66,0.75-2.66
					S1183.77,233.07,1182.88,234.13z"/>
			</g>
		</g>
		<g>
			<g>
				<g>
					<g id="XMLID_82_">
						<g>
							<path fill="#AAD7D3" d="M1168.24,239.96h-0.27h-0.68v-17.32c0-0.08,0.01-0.15,0.04-0.22c0.07-0.2,0.24-0.34,0.44-0.34
								c0.26,0,0.47,0.25,0.47,0.56V239.96z"/>
						</g>
					</g>
				</g>
				<path fill="#AAD7D3" d="M1166.69,230.5c0.9,1.05,0.75,2.66,0.75,2.66s-1.61-0.1-2.51-1.15s-0.75-2.66-0.75-2.66
					S1165.79,229.44,1166.69,230.5z"/>
				<path fill="#AAD7D3" d="M1168.93,221.01c0.01,1.38-1.14,2.52-1.14,2.52s-1.17-1.11-1.18-2.5s1.14-2.52,1.14-2.52
					S1168.92,219.62,1168.93,221.01z"/>
				<path fill="#AAD7D3" d="M1168.88,230.5c-0.9,1.05-0.75,2.66-0.75,2.66s1.61-0.1,2.51-1.15c0.9-1.05,0.75-2.66,0.75-2.66
					S1169.77,229.44,1168.88,230.5z"/>
				<path fill="#AAD7D3" d="M1166.69,223.24c0.9,1.05,0.75,2.66,0.75,2.66s-1.61-0.1-2.51-1.15s-0.75-2.66-0.75-2.66
					S1165.79,222.18,1166.69,223.24z"/>
				<path fill="#AAD7D3" d="M1168.88,223.24c-0.9,1.05-0.75,2.66-0.75,2.66s1.61-0.1,2.51-1.15c0.9-1.05,0.75-2.66,0.75-2.66
					S1169.77,222.18,1168.88,223.24z"/>
				<path fill="#AAD7D3" d="M1166.69,226.87c0.9,1.05,0.75,2.66,0.75,2.66s-1.61-0.1-2.51-1.15s-0.75-2.66-0.75-2.66
					S1165.79,225.81,1166.69,226.87z"/>
				<path fill="#AAD7D3" d="M1168.88,226.87c-0.9,1.05-0.75,2.66-0.75,2.66s1.61-0.1,2.51-1.15c0.9-1.05,0.75-2.66,0.75-2.66
					S1169.77,225.81,1168.88,226.87z"/>
				<path fill="#AAD7D3" d="M1166.69,234.13c0.9,1.05,0.75,2.66,0.75,2.66s-1.61-0.1-2.51-1.15s-0.75-2.66-0.75-2.66
					S1165.79,233.07,1166.69,234.13z"/>
				<path fill="#AAD7D3" d="M1168.88,234.13c-0.9,1.05-0.75,2.66-0.75,2.66s1.61-0.1,2.51-1.15c0.9-1.05,0.75-2.66,0.75-2.66
					S1169.77,233.07,1168.88,234.13z"/>
			</g>
		</g>
		<g>
			<g>
				<g>
					<g id="XMLID_79_">
						<g>
							<path fill="#AAD7D3" d="M1154.24,239.96h-0.27h-0.68v-17.32c0-0.08,0.01-0.15,0.04-0.22c0.07-0.2,0.24-0.34,0.44-0.34
								c0.26,0,0.47,0.25,0.47,0.56V239.96z"/>
						</g>
					</g>
				</g>
				<path fill="#AAD7D3" d="M1152.69,230.5c0.9,1.05,0.75,2.66,0.75,2.66s-1.61-0.1-2.51-1.15s-0.75-2.66-0.75-2.66
					S1151.79,229.44,1152.69,230.5z"/>
				<path fill="#AAD7D3" d="M1154.93,221.01c0.01,1.38-1.14,2.52-1.14,2.52s-1.17-1.11-1.18-2.5s1.14-2.52,1.14-2.52
					S1154.92,219.62,1154.93,221.01z"/>
				<path fill="#AAD7D3" d="M1154.88,230.5c-0.9,1.05-0.75,2.66-0.75,2.66s1.61-0.1,2.51-1.15c0.9-1.05,0.75-2.66,0.75-2.66
					S1155.77,229.44,1154.88,230.5z"/>
				<path fill="#AAD7D3" d="M1152.69,223.24c0.9,1.05,0.75,2.66,0.75,2.66s-1.61-0.1-2.51-1.15s-0.75-2.66-0.75-2.66
					S1151.79,222.18,1152.69,223.24z"/>
				<path fill="#AAD7D3" d="M1154.88,223.24c-0.9,1.05-0.75,2.66-0.75,2.66s1.61-0.1,2.51-1.15c0.9-1.05,0.75-2.66,0.75-2.66
					S1155.77,222.18,1154.88,223.24z"/>
				<path fill="#AAD7D3" d="M1152.69,226.87c0.9,1.05,0.75,2.66,0.75,2.66s-1.61-0.1-2.51-1.15s-0.75-2.66-0.75-2.66
					S1151.79,225.81,1152.69,226.87z"/>
				<path fill="#AAD7D3" d="M1154.88,226.87c-0.9,1.05-0.75,2.66-0.75,2.66s1.61-0.1,2.51-1.15c0.9-1.05,0.75-2.66,0.75-2.66
					S1155.77,225.81,1154.88,226.87z"/>
				<path fill="#AAD7D3" d="M1152.69,234.13c0.9,1.05,0.75,2.66,0.75,2.66s-1.61-0.1-2.51-1.15s-0.75-2.66-0.75-2.66
					S1151.79,233.07,1152.69,234.13z"/>
				<path fill="#AAD7D3" d="M1154.88,234.13c-0.9,1.05-0.75,2.66-0.75,2.66s1.61-0.1,2.51-1.15c0.9-1.05,0.75-2.66,0.75-2.66
					S1155.77,233.07,1154.88,234.13z"/>
			</g>
		</g>
		<g>
			<g>
				<g>
					<g id="XMLID_76_">
						<g>
							<path fill="#AAD7D3" d="M1140.24,239.96h-0.27h-0.68v-17.32c0-0.08,0.01-0.15,0.04-0.22c0.07-0.2,0.24-0.34,0.44-0.34
								c0.26,0,0.47,0.25,0.47,0.56V239.96z"/>
						</g>
					</g>
				</g>
				<path fill="#AAD7D3" d="M1138.69,230.5c0.9,1.05,0.75,2.66,0.75,2.66s-1.61-0.1-2.51-1.15s-0.75-2.66-0.75-2.66
					S1137.79,229.44,1138.69,230.5z"/>
				<path fill="#AAD7D3" d="M1140.93,221.01c0.01,1.38-1.14,2.52-1.14,2.52s-1.17-1.11-1.18-2.5s1.14-2.52,1.14-2.52
					S1140.92,219.62,1140.93,221.01z"/>
				<path fill="#AAD7D3" d="M1140.88,230.5c-0.9,1.05-0.75,2.66-0.75,2.66s1.61-0.1,2.51-1.15c0.9-1.05,0.75-2.66,0.75-2.66
					S1141.77,229.44,1140.88,230.5z"/>
				<path fill="#AAD7D3" d="M1138.69,223.24c0.9,1.05,0.75,2.66,0.75,2.66s-1.61-0.1-2.51-1.15s-0.75-2.66-0.75-2.66
					S1137.79,222.18,1138.69,223.24z"/>
				<path fill="#AAD7D3" d="M1140.88,223.24c-0.9,1.05-0.75,2.66-0.75,2.66s1.61-0.1,2.51-1.15c0.9-1.05,0.75-2.66,0.75-2.66
					S1141.77,222.18,1140.88,223.24z"/>
				<path fill="#AAD7D3" d="M1138.69,226.87c0.9,1.05,0.75,2.66,0.75,2.66s-1.61-0.1-2.51-1.15s-0.75-2.66-0.75-2.66
					S1137.79,225.81,1138.69,226.87z"/>
				<path fill="#AAD7D3" d="M1140.88,226.87c-0.9,1.05-0.75,2.66-0.75,2.66s1.61-0.1,2.51-1.15c0.9-1.05,0.75-2.66,0.75-2.66
					S1141.77,225.81,1140.88,226.87z"/>
				<path fill="#AAD7D3" d="M1138.69,234.13c0.9,1.05,0.75,2.66,0.75,2.66s-1.61-0.1-2.51-1.15s-0.75-2.66-0.75-2.66
					S1137.79,233.07,1138.69,234.13z"/>
				<path fill="#AAD7D3" d="M1140.88,234.13c-0.9,1.05-0.75,2.66-0.75,2.66s1.61-0.1,2.51-1.15c0.9-1.05,0.75-2.66,0.75-2.66
					S1141.77,233.07,1140.88,234.13z"/>
			</g>
		</g>
		<g>
			<g>
				<g>
					<g id="XMLID_73_">
						<g>
							<path fill="#AAD7D3" d="M1126.24,239.96h-0.27h-0.68v-17.32c0-0.08,0.01-0.15,0.04-0.22c0.07-0.2,0.24-0.34,0.44-0.34
								c0.26,0,0.47,0.25,0.47,0.56V239.96z"/>
						</g>
					</g>
				</g>
				<path fill="#AAD7D3" d="M1124.69,230.5c0.9,1.05,0.75,2.66,0.75,2.66s-1.61-0.1-2.51-1.15s-0.75-2.66-0.75-2.66
					S1123.79,229.44,1124.69,230.5z"/>
				<path fill="#AAD7D3" d="M1126.93,221.01c0.01,1.38-1.14,2.52-1.14,2.52s-1.17-1.11-1.18-2.5s1.14-2.52,1.14-2.52
					S1126.92,219.62,1126.93,221.01z"/>
				<path fill="#AAD7D3" d="M1126.88,230.5c-0.9,1.05-0.75,2.66-0.75,2.66s1.61-0.1,2.51-1.15c0.9-1.05,0.75-2.66,0.75-2.66
					S1127.77,229.44,1126.88,230.5z"/>
				<path fill="#AAD7D3" d="M1124.69,223.24c0.9,1.05,0.75,2.66,0.75,2.66s-1.61-0.1-2.51-1.15s-0.75-2.66-0.75-2.66
					S1123.79,222.18,1124.69,223.24z"/>
				<path fill="#AAD7D3" d="M1126.88,223.24c-0.9,1.05-0.75,2.66-0.75,2.66s1.61-0.1,2.51-1.15c0.9-1.05,0.75-2.66,0.75-2.66
					S1127.77,222.18,1126.88,223.24z"/>
				<path fill="#AAD7D3" d="M1124.69,226.87c0.9,1.05,0.75,2.66,0.75,2.66s-1.61-0.1-2.51-1.15s-0.75-2.66-0.75-2.66
					S1123.79,225.81,1124.69,226.87z"/>
				<path fill="#AAD7D3" d="M1126.88,226.87c-0.9,1.05-0.75,2.66-0.75,2.66s1.61-0.1,2.51-1.15c0.9-1.05,0.75-2.66,0.75-2.66
					S1127.77,225.81,1126.88,226.87z"/>
				<path fill="#AAD7D3" d="M1124.69,234.13c0.9,1.05,0.75,2.66,0.75,2.66s-1.61-0.1-2.51-1.15s-0.75-2.66-0.75-2.66
					S1123.79,233.07,1124.69,234.13z"/>
				<path fill="#AAD7D3" d="M1126.88,234.13c-0.9,1.05-0.75,2.66-0.75,2.66s1.61-0.1,2.51-1.15c0.9-1.05,0.75-2.66,0.75-2.66
					S1127.77,233.07,1126.88,234.13z"/>
			</g>
		</g>
		<g>
			<g>
				<g>
					<g id="XMLID_70_">
						<g>
							<path fill="#AAD7D3" d="M1112.24,239.96h-0.27h-0.68v-17.32c0-0.08,0.01-0.15,0.04-0.22c0.07-0.2,0.24-0.34,0.44-0.34
								c0.26,0,0.47,0.25,0.47,0.56V239.96z"/>
						</g>
					</g>
				</g>
				<path fill="#AAD7D3" d="M1110.69,230.5c0.9,1.05,0.75,2.66,0.75,2.66s-1.61-0.1-2.51-1.15s-0.75-2.66-0.75-2.66
					S1109.79,229.44,1110.69,230.5z"/>
				<path fill="#AAD7D3" d="M1112.93,221.01c0.01,1.38-1.14,2.52-1.14,2.52s-1.17-1.11-1.18-2.5s1.14-2.52,1.14-2.52
					S1112.92,219.62,1112.93,221.01z"/>
				<path fill="#AAD7D3" d="M1112.88,230.5c-0.9,1.05-0.75,2.66-0.75,2.66s1.61-0.1,2.51-1.15c0.9-1.05,0.75-2.66,0.75-2.66
					S1113.77,229.44,1112.88,230.5z"/>
				<path fill="#AAD7D3" d="M1110.69,223.24c0.9,1.05,0.75,2.66,0.75,2.66s-1.61-0.1-2.51-1.15s-0.75-2.66-0.75-2.66
					S1109.79,222.18,1110.69,223.24z"/>
				<path fill="#AAD7D3" d="M1112.88,223.24c-0.9,1.05-0.75,2.66-0.75,2.66s1.61-0.1,2.51-1.15c0.9-1.05,0.75-2.66,0.75-2.66
					S1113.77,222.18,1112.88,223.24z"/>
				<path fill="#AAD7D3" d="M1110.69,226.87c0.9,1.05,0.75,2.66,0.75,2.66s-1.61-0.1-2.51-1.15s-0.75-2.66-0.75-2.66
					S1109.79,225.81,1110.69,226.87z"/>
				<path fill="#AAD7D3" d="M1112.88,226.87c-0.9,1.05-0.75,2.66-0.75,2.66s1.61-0.1,2.51-1.15c0.9-1.05,0.75-2.66,0.75-2.66
					S1113.77,225.81,1112.88,226.87z"/>
				<path fill="#AAD7D3" d="M1110.69,234.13c0.9,1.05,0.75,2.66,0.75,2.66s-1.61-0.1-2.51-1.15s-0.75-2.66-0.75-2.66
					S1109.79,233.07,1110.69,234.13z"/>
				<path fill="#AAD7D3" d="M1112.88,234.13c-0.9,1.05-0.75,2.66-0.75,2.66s1.61-0.1,2.51-1.15c0.9-1.05,0.75-2.66,0.75-2.66
					S1113.77,233.07,1112.88,234.13z"/>
			</g>
		</g>
		<g>
			<g>
				<g>
					<g id="XMLID_67_">
						<g>
							<path fill="#AAD7D3" d="M1098.24,239.96h-0.27h-0.68v-17.32c0-0.08,0.01-0.15,0.04-0.22c0.07-0.2,0.24-0.34,0.44-0.34
								c0.26,0,0.47,0.25,0.47,0.56V239.96z"/>
						</g>
					</g>
				</g>
				<path fill="#AAD7D3" d="M1096.69,230.5c0.9,1.05,0.75,2.66,0.75,2.66s-1.61-0.1-2.51-1.15s-0.75-2.66-0.75-2.66
					S1095.79,229.44,1096.69,230.5z"/>
				<path fill="#AAD7D3" d="M1098.93,221.01c0.01,1.38-1.14,2.52-1.14,2.52s-1.17-1.11-1.18-2.5s1.14-2.52,1.14-2.52
					S1098.92,219.62,1098.93,221.01z"/>
				<path fill="#AAD7D3" d="M1098.88,230.5c-0.9,1.05-0.75,2.66-0.75,2.66s1.61-0.1,2.51-1.15c0.9-1.05,0.75-2.66,0.75-2.66
					S1099.77,229.44,1098.88,230.5z"/>
				<path fill="#AAD7D3" d="M1096.69,223.24c0.9,1.05,0.75,2.66,0.75,2.66s-1.61-0.1-2.51-1.15s-0.75-2.66-0.75-2.66
					S1095.79,222.18,1096.69,223.24z"/>
				<path fill="#AAD7D3" d="M1098.88,223.24c-0.9,1.05-0.75,2.66-0.75,2.66s1.61-0.1,2.51-1.15c0.9-1.05,0.75-2.66,0.75-2.66
					S1099.77,222.18,1098.88,223.24z"/>
				<path fill="#AAD7D3" d="M1096.69,226.87c0.9,1.05,0.75,2.66,0.75,2.66s-1.61-0.1-2.51-1.15s-0.75-2.66-0.75-2.66
					S1095.79,225.81,1096.69,226.87z"/>
				<path fill="#AAD7D3" d="M1098.88,226.87c-0.9,1.05-0.75,2.66-0.75,2.66s1.61-0.1,2.51-1.15c0.9-1.05,0.75-2.66,0.75-2.66
					S1099.77,225.81,1098.88,226.87z"/>
				<path fill="#AAD7D3" d="M1096.69,234.13c0.9,1.05,0.75,2.66,0.75,2.66s-1.61-0.1-2.51-1.15s-0.75-2.66-0.75-2.66
					S1095.79,233.07,1096.69,234.13z"/>
				<path fill="#AAD7D3" d="M1098.88,234.13c-0.9,1.05-0.75,2.66-0.75,2.66s1.61-0.1,2.51-1.15c0.9-1.05,0.75-2.66,0.75-2.66
					S1099.77,233.07,1098.88,234.13z"/>
			</g>
		</g>
		<g>
			<g>
				<g>
					<g id="XMLID_64_">
						<g>
							<path fill="#AAD7D3" d="M1084.24,239.96h-0.27h-0.68v-17.32c0-0.08,0.01-0.15,0.04-0.22c0.07-0.2,0.24-0.34,0.44-0.34
								c0.26,0,0.47,0.25,0.47,0.56V239.96z"/>
						</g>
					</g>
				</g>
				<path fill="#AAD7D3" d="M1082.69,230.5c0.9,1.05,0.75,2.66,0.75,2.66s-1.61-0.1-2.51-1.15s-0.75-2.66-0.75-2.66
					S1081.79,229.44,1082.69,230.5z"/>
				<path fill="#AAD7D3" d="M1084.93,221.01c0.01,1.38-1.14,2.52-1.14,2.52s-1.17-1.11-1.18-2.5s1.14-2.52,1.14-2.52
					S1084.92,219.62,1084.93,221.01z"/>
				<path fill="#AAD7D3" d="M1084.88,230.5c-0.9,1.05-0.75,2.66-0.75,2.66s1.61-0.1,2.51-1.15c0.9-1.05,0.75-2.66,0.75-2.66
					S1085.77,229.44,1084.88,230.5z"/>
				<path fill="#AAD7D3" d="M1082.69,223.24c0.9,1.05,0.75,2.66,0.75,2.66s-1.61-0.1-2.51-1.15s-0.75-2.66-0.75-2.66
					S1081.79,222.18,1082.69,223.24z"/>
				<path fill="#AAD7D3" d="M1084.88,223.24c-0.9,1.05-0.75,2.66-0.75,2.66s1.61-0.1,2.51-1.15c0.9-1.05,0.75-2.66,0.75-2.66
					S1085.77,222.18,1084.88,223.24z"/>
				<path fill="#AAD7D3" d="M1082.69,226.87c0.9,1.05,0.75,2.66,0.75,2.66s-1.61-0.1-2.51-1.15s-0.75-2.66-0.75-2.66
					S1081.79,225.81,1082.69,226.87z"/>
				<path fill="#AAD7D3" d="M1084.88,226.87c-0.9,1.05-0.75,2.66-0.75,2.66s1.61-0.1,2.51-1.15c0.9-1.05,0.75-2.66,0.75-2.66
					S1085.77,225.81,1084.88,226.87z"/>
				<path fill="#AAD7D3" d="M1082.69,234.13c0.9,1.05,0.75,2.66,0.75,2.66s-1.61-0.1-2.51-1.15s-0.75-2.66-0.75-2.66
					S1081.79,233.07,1082.69,234.13z"/>
				<path fill="#AAD7D3" d="M1084.88,234.13c-0.9,1.05-0.75,2.66-0.75,2.66s1.61-0.1,2.51-1.15c0.9-1.05,0.75-2.66,0.75-2.66
					S1085.77,233.07,1084.88,234.13z"/>
			</g>
		</g>
	</g>
	<g>
		<path fill="#F5F5F5" d="M602.2,214.03h-43.57c-1.09,0-1.98,0.79-1.98,1.75v19.28c0,0.97,0.89,1.75,1.98,1.75h43.57
			c1.09,0,1.98-0.78,1.98-1.75v-19.28C604.18,214.81,603.29,214.03,602.2,214.03z M574.47,218.41c0-0.48,0.44-0.88,0.99-0.88h9.9
			c0.55,0,0.99,0.39,0.99,0.88v7.01c0,0.48-0.44,0.88-0.99,0.88h-9.9c-0.55,0-0.99-0.39-0.99-0.88V218.41L574.47,218.41z
			 M560.6,225.42v-7.01c0-0.48,0.44-0.88,0.99-0.88h7.92c0.55,0,0.99,0.39,0.99,0.88v7.01c0,0.48-0.44,0.88-0.99,0.88h-7.92
			C561.05,226.3,560.6,225.91,560.6,225.42z M600.21,225.42c0,0.48-0.44,0.88-0.99,0.88h-7.92c-0.55,0-0.99-0.39-0.99-0.88v-7.01
			c0-0.48,0.44-0.88,0.99-0.88h7.92c0.55,0,0.99,0.39,0.99,0.88V225.42z"/>
		<path fill="#F5F5F5" d="M652.08,214.03h-43.57c-1.09,0-1.98,0.79-1.98,1.75v19.28c0,0.97,0.89,1.75,1.98,1.75h43.57
			c1.09,0,1.98-0.78,1.98-1.75v-19.28C654.06,214.81,653.17,214.03,652.08,214.03z M624.35,218.41c0-0.48,0.44-0.88,0.99-0.88h9.9
			c0.55,0,0.99,0.39,0.99,0.88v7.01c0,0.48-0.44,0.88-0.99,0.88h-9.9c-0.55,0-0.99-0.39-0.99-0.88V218.41L624.35,218.41z
			 M610.49,225.42v-7.01c0-0.48,0.44-0.88,0.99-0.88h7.92c0.55,0,0.99,0.39,0.99,0.88v7.01c0,0.48-0.44,0.88-0.99,0.88h-7.92
			C610.93,226.3,610.49,225.91,610.49,225.42z M650.1,225.42c0,0.48-0.44,0.88-0.99,0.88h-7.92c-0.55,0-0.99-0.39-0.99-0.88v-7.01
			c0-0.48,0.44-0.88,0.99-0.88h7.92c0.55,0,0.99,0.39,0.99,0.88V225.42z"/>
		<path fill="#F5F5F5" d="M701.97,214.03H658.4c-1.09,0-1.98,0.79-1.98,1.75v19.28c0,0.97,0.89,1.75,1.98,1.75h43.57
			c1.09,0,1.98-0.78,1.98-1.75v-19.28C703.95,214.81,703.06,214.03,701.97,214.03z M674.24,218.41c0-0.48,0.44-0.88,0.99-0.88h9.9
			c0.55,0,0.99,0.39,0.99,0.88v7.01c0,0.48-0.44,0.88-0.99,0.88h-9.9c-0.55,0-0.99-0.39-0.99-0.88V218.41L674.24,218.41z
			 M660.38,225.42v-7.01c0-0.48,0.44-0.88,0.99-0.88h7.92c0.55,0,0.99,0.39,0.99,0.88v7.01c0,0.48-0.44,0.88-0.99,0.88h-7.92
			C660.82,226.3,660.38,225.91,660.38,225.42z M699.99,225.42c0,0.48-0.44,0.88-0.99,0.88h-7.92c-0.55,0-0.99-0.39-0.99-0.88v-7.01
			c0-0.48,0.44-0.88,0.99-0.88H699c0.55,0,0.99,0.39,0.99,0.88V225.42z"/>
		<path fill="#F5F5F5" d="M751.86,214.03h-43.57c-1.09,0-1.98,0.79-1.98,1.75v19.28c0,0.97,0.89,1.75,1.98,1.75h43.57
			c1.09,0,1.98-0.78,1.98-1.75v-19.28C753.84,214.81,752.95,214.03,751.86,214.03z M724.13,218.41c0-0.48,0.44-0.88,0.99-0.88h9.9
			c0.55,0,0.99,0.39,0.99,0.88v7.01c0,0.48-0.44,0.88-0.99,0.88h-9.9c-0.55,0-0.99-0.39-0.99-0.88V218.41L724.13,218.41z
			 M710.26,225.42v-7.01c0-0.48,0.44-0.88,0.99-0.88h7.92c0.55,0,0.99,0.39,0.99,0.88v7.01c0,0.48-0.44,0.88-0.99,0.88h-7.92
			C710.71,226.3,710.26,225.91,710.26,225.42z M749.87,225.42c0,0.48-0.44,0.88-0.99,0.88h-7.92c-0.55,0-0.99-0.39-0.99-0.88v-7.01
			c0-0.48,0.44-0.88,0.99-0.88h7.92c0.55,0,0.99,0.39,0.99,0.88V225.42z"/>
		<path fill="#F5F5F5" d="M806.19,236.81c3.83,0,6.25-4.12,4.37-7.47l-2.54-4.53l-4.98-8.94h0l-0.48-0.86
			c-0.34-0.62-0.97-0.99-1.64-0.99h-43.01c-0.91,0-1.65,0.78-1.65,1.75v19.28c0,0.97,0.74,1.75,1.65,1.75H806.19z M787.56,223.95
			c0,0.48-0.37,0.88-0.82,0.88h-6.59c-0.45,0-0.82-0.39-0.82-0.88v-7.01c0-0.48,0.37-0.88,0.82-0.88h6.59
			c0.45,0,0.82,0.39,0.82,0.88V223.95z M790.72,224.82c-0.54,0-0.98-0.47-0.98-1.04v-6.67c0-0.57,0.44-1.04,0.98-1.04h9.72
			l4.88,8.75H790.72z"/>
		<path fill="#D53A81" d="M771.87,224.19c-0.05-0.08-0.14-0.12-0.24-0.1l-2.66,0.6l0.81-5.71c0.01-0.1-0.04-0.2-0.14-0.24
			c-0.09-0.04-0.2-0.01-0.26,0.07l-5.73,7.81c-0.05,0.07-0.06,0.17-0.01,0.25c0.05,0.08,0.14,0.12,0.23,0.1l2.89-0.54l-0.84,5.4
			c-0.02,0.1,0.04,0.2,0.13,0.24c0.03,0.01,0.06,0.02,0.09,0.02c0.07,0,0.14-0.03,0.18-0.09l5.54-7.57
			C771.92,224.37,771.92,224.27,771.87,224.19z"/>
		<path fill="#F5F5F5" d="M552.01,236.81c0.91,0,1.65-0.78,1.65-1.75v-19.28c0-0.97-0.74-1.75-1.65-1.75H509
			c-0.67,0-1.29,0.38-1.64,0.99l-0.48,0.86h0l-4.98,8.94l-2.54,4.53c-1.87,3.34,0.54,7.47,4.37,7.47H552.01z M522.36,216.94
			c0-0.48,0.37-0.88,0.82-0.88h6.59c0.45,0,0.82,0.39,0.82,0.88v7.01c0,0.48-0.37,0.88-0.82,0.88h-6.59c-0.45,0-0.82-0.39-0.82-0.88
			V216.94z M504.6,224.82l4.88-8.75h9.72c0.54,0,0.98,0.47,0.98,1.04v6.67c0,0.57-0.44,1.04-0.98,1.04H504.6z"/>
		<path fill="#D53A81" d="M545.87,224.19c-0.05-0.08-0.14-0.12-0.24-0.1l-2.66,0.6l0.81-5.71c0.01-0.1-0.04-0.2-0.14-0.24
			c-0.09-0.04-0.2-0.01-0.26,0.07l-5.73,7.81c-0.05,0.07-0.06,0.17-0.01,0.25c0.05,0.08,0.14,0.12,0.23,0.1l2.89-0.54l-0.84,5.4
			c-0.02,0.1,0.04,0.2,0.13,0.24c0.03,0.01,0.06,0.02,0.09,0.02c0.07,0,0.14-0.03,0.18-0.09l5.54-7.57
			C545.92,224.37,545.92,224.27,545.87,224.19z"/>
	</g>
	<path fill="#F5F5F5" d="M894.04,280.68c-0.02,0.71-0.13,4.38-0.13,4.38c-0.02,0.52,0.94,1.7,1.68,2.24c0.5,1.96,2.25,3.44,4.38,3.5
		c2.03,0.06,3.79-1.19,4.49-2.98l14.54,0.43c0.59,1.83,2.27,3.18,4.3,3.24c2.03,0.06,3.79-1.19,4.49-2.98l1.05,0.03
		c0.64,0.02,2.39-1.7,2.41-2.37c0,0,0.14-4.66,0.16-5.37c0.04-1.25-0.55-2.06-4.72-3.06c-0.6-1.14-3.32-4.59-3.81-5.46
		c-0.49-0.87-1.04-1.08-2.04-1.11c-1.01-0.03-9.66-0.29-10-0.3c-0.36-0.01-1.04,0.07-2.11,0.98c-1.5,1.29-3.79,3.37-6.9,6.13
		C896.55,278.88,894.08,279.48,894.04,280.68z M923.42,279.05c-0.4-0.01-3.61-0.11-7.19-0.21l0.16-5.3c1.77,0.05,3.39,0.1,3.71,0.11
		c0.77,0.02,1.04,0.23,1.46,0.85c0.32,0.48,1.69,2.36,2.26,3.21C924.48,278.67,924.13,279.07,923.42,279.05z M921.11,286.76
		c0.04-1.29,1.12-2.3,2.4-2.26c1.29,0.04,2.3,1.12,2.26,2.4c-0.04,1.29-1.12,2.3-2.4,2.26
		C922.08,289.13,921.07,288.05,921.11,286.76z M905.57,278.51c-0.62-0.02-1-0.2-0.14-0.98c0.96-0.87,3.41-3.05,4.02-3.56
		c0.44-0.37,1.09-0.62,1.69-0.6c0,0,2.3,0.07,4.57,0.14l-0.16,5.3C910.77,278.67,905.57,278.51,905.57,278.51z M897.78,286.07
		c0.04-1.29,1.12-2.3,2.4-2.26c1.29,0.04,2.3,1.12,2.26,2.4c-0.04,1.29-1.12,2.3-2.4,2.26
		C898.75,288.43,897.74,287.35,897.78,286.07z"/>
	<path fill="#F5F5F5" d="M974.09,279.13l-0.23,8.16c-0.02,0.57,0.44,1.05,1.01,1.07l2.13,0.06c-0.07,2.63,2,4.82,4.62,4.89
		c2.63,0.07,4.82-2,4.89-4.62h0l2.13,0.06c0.57,0.02,1.05-0.44,1.07-1.01l0.47-16.95c0.02-0.57-0.44-1.05-1.01-1.07l0,0l-3.72-0.1
		l-4.2-0.12c-0.35-0.01-0.68,0.16-0.88,0.44l-6.1,8.62c-0.11,0.16-0.18,0.35-0.19,0.54C974.09,279.11,974.09,279.12,974.09,279.13z
		 M976.96,278.9l4.41-6.22l4.01,0.11l-0.18,6.34L976.96,278.9z M979.38,288.49c0.04-1.31,1.13-2.35,2.44-2.31
		c1.31,0.04,2.35,1.13,2.31,2.44s-1.13,2.35-2.44,2.31C980.38,290.89,979.35,289.8,979.38,288.49z M991.86,269l-0.54,19.43
		c-0.02-0.24,0.58,0.4,1.34,0.42l4.96,0.14c-0.07,2.63,2,4.82,4.62,4.89c2.63,0.07,4.82-2,4.89-4.62l3.38,0.09
		c0.76,0.02,1.4-0.58,1.42-1.34l0.54-19.43c0.02-0.76-0.58-1.4-1.34-1.42l-17.85-0.5C992.51,266.64,991.88,267.24,991.86,269z
		 M999.99,289.06c0.04-1.31,1.13-2.35,2.44-2.31c1.31,0.04,2.35,1.13,2.31,2.44c-0.04,1.31-1.13,2.35-2.44,2.31
		C1000.99,291.47,999.96,290.37,999.99,289.06z"/>
	<g>
		<path fill="#F5F5F5" d="M1241.59,298.19c-0.09,2.27,1.68,4.19,3.95,4.28c2.27,0.09,4.19-1.68,4.28-3.95
			c0.09-2.27-1.68-4.19-3.95-4.28C1243.6,294.14,1241.68,295.92,1241.59,298.19z M1243.33,298.26c0.05-1.31,1.16-2.33,2.47-2.28
			c1.31,0.05,2.33,1.16,2.28,2.47c-0.05,1.31-1.16,2.33-2.47,2.28C1244.3,300.67,1243.28,299.56,1243.33,298.26z"/>
		<path fill="#F5F5F5" d="M1229.81,297.72c-0.09,2.27,1.68,4.19,3.95,4.28c2.27,0.09,4.19-1.68,4.28-3.95
			c0.09-2.27-1.68-4.19-3.95-4.28C1231.82,293.68,1229.9,295.45,1229.81,297.72z M1231.55,297.79c0.05-1.31,1.16-2.33,2.47-2.28
			c1.31,0.05,2.33,1.16,2.28,2.47c-0.05,1.31-1.16,2.33-2.47,2.28C1232.52,300.2,1231.5,299.1,1231.55,297.79z"/>
		<path fill="#F5F5F5" d="M1238.66,294.8l-0.2,5.07c-0.03,0.72,0.54,1.33,1.26,1.36c0.72,0.03,1.33-0.53,1.36-1.26l0.18-4.48
			l2.94-2.4c0.28-0.23,0.46-0.57,0.48-0.94c0.02-0.37-0.11-0.72-0.36-0.99l-4.39-4.54c-0.27-0.28-0.65-0.42-1.04-0.4
			c-0.39,0.03-0.74,0.23-0.97,0.54l-1.72,2.38l-1.54-0.01c-0.72,0-1.31,0.58-1.32,1.3c0,0.72,0.59,1.31,1.3,1.32l2.22,0.01
			c0.42,0,0.82-0.2,1.07-0.54l1.19-1.66l2.31,2.39l-2.29,1.87C1238.86,294.08,1238.68,294.43,1238.66,294.8z"/>
		<circle fill="#F5F5F5" cx="1236.17" cy="285.04" r="1.73"/>
	</g>
	<path fill="#AAD7D3" d="M1435.95,197.48c6.42,0,12.48,1.15,18.01,3.2c3.11,1.15,6.03,2.62,8.73,4.38c3.26,2.12,6.21,4.63,8.73,7.58
		c2.59,3.02,4.79,6.44,6.44,10.28c0.65-1.62,1.48-3.14,2.3-4.66c7.83-14.49,23.03-24.39,40.65-24.39c4.1,0,7.99,0.71,11.75,1.74
		c3.05,0.83,5.96,1.92,8.73,3.34c2.9,1.48,5.69,3.14,8.23,5.15c0.16-0.22,0.35-0.42,0.51-0.64c2.49-3.4,5.44-6.42,8.73-9.03
		c7.88-6.25,17.77-10.06,28.61-10.06c8.71,0,16.83,2.7,23.79,7.21c13.5,8.75,22.57,24.43,22.57,41.32c0,2.85-0.35,1.77-0.84,10.51
		h-21.73h-134.39h-14.06h-5.33h-66.87C1391.52,217.2,1411.39,197.48,1435.95,197.48z"/>
	<path fill="#AAD7D3" d="M2034.22,196.68c-6.42,0-12.48,1.15-18.01,3.2c-3.11,1.15-6.03,2.62-8.73,4.38
		c-3.26,2.12-6.21,4.63-8.73,7.58c-2.59,3.02-4.79,6.44-6.44,10.28c-0.65-1.62-1.48-3.14-2.3-4.66
		c-7.83-14.49-23.03-24.39-40.65-24.39c-4.1,0-7.99,0.71-11.75,1.74c-3.05,0.83-5.96,1.92-8.73,3.34c-2.9,1.48-5.69,3.14-8.23,5.15
		c-0.16-0.22-0.35-0.42-0.51-0.64c-2.49-3.4-5.44-6.42-8.73-9.03c-7.88-6.25-17.77-10.06-28.61-10.06c-8.71,0-16.83,2.7-23.79,7.21
		c-13.5,8.75-22.57,24.43-22.57,41.32c0,2.85,0.35,1.77,0.84,10.51h21.73h134.39h14.06h5.33h66.87
		C2078.65,216.4,2058.78,196.68,2034.22,196.68z"/>
</g>
</svg>
