<?xml version="1.0" encoding="utf-8"?>
<!-- Generator: Adobe Illustrator 18.1.0, SVG Export Plug-In . SVG Version: 6.00 Build 0)  -->
<svg version="1.1" id="Layer_1" xmlns="http://www.w3.org/2000/svg" xmlns:xlink="http://www.w3.org/1999/xlink" x="0px" y="0px"
	 viewBox="0 0 1800 370" enable-background="new 0 0 1800 370" xml:space="preserve">
<rect x="-1" y="77.05" fill="#95CFCA" width="1802.84" height="293"/>
<path fill="#28A197" d="M1801.84,40.88h-769.79c0,0-158.99,1.83-252.21,36.18c250.66,0,1022,0,1022,0L1801.84,40.88L1801.84,40.88z"
	/>
<polygon fill="#F5F5F5" points="460.93,132.81 -1,132.81 -1,100.24 460.93,100.24 474.82,116.52 "/>
<path fill="#95CFCA" d="M337.37,19.57c-5.72,0-7.51,0-8,0l-6-8h-2l2,8h-10l-2-4h-2v6l2,2h12l-2,8h2l6-8h8c4,0,4-2,4-2
	C341.37,19.57,337.37,19.57,337.37,19.57z"/>
<path fill="#95CFCA" d="M289.88,41.39c-3.81,0-5,0-5.33,0l-4-5.33h-1.33l1.33,5.33h-6.66l-1.33-2.66h-1.33v4l1.33,1.33h7.99
	l-1.33,5.33h1.33l4-5.33h5.33c2.66,0,2.66-1.33,2.66-1.33C292.54,41.39,289.88,41.39,289.88,41.39z"/>
<path fill="#95CFCA" d="M812.24,19.5c-3.81,0-5,0-5.33,0l-4-5.33h-1.33l1.33,5.33h-6.66l-1.33-2.66h-1.33v4l1.33,1.33h7.99
	l-1.33,5.33h1.33l4-5.33h5.33c2.66,0,2.66-1.33,2.66-1.33C814.9,19.5,812.24,19.5,812.24,19.5z"/>
<path fill="#28A197" d="M1213.36,29.98c0-0.05-0.02-0.1-0.05-0.13c-0.03-0.03-0.08-0.05-0.13-0.05h-5.49c-0.05,0-0.1,0.02-0.13,0.05
	s-0.05,0.08-0.05,0.13c0.03,3.43-0.3,6.72-0.97,9.81c-1.04-4.5-1.55-9.32-1.51-14.36c0-0.07-0.03-0.13-0.07-0.18
	c-0.05-0.05-0.11-0.08-0.18-0.08h-7.63c-0.07,0-0.13,0.03-0.18,0.08s-0.07,0.11-0.07,0.18c0.05,5.63-0.59,11-1.9,15.95
	c-0.02,0.08,0,0.16,0.04,0.22c0.05,0.06,0.12,0.1,0.2,0.1h19.32l0,0c0.1,0,0.18-0.08,0.18-0.18c0-0.02,0-0.04-0.01-0.06
	C1213.79,37.9,1213.33,34.04,1213.36,29.98z"/>
<path fill="#28A197" d="M1185.59,36.23c0-0.02-0.01-0.04-0.02-0.06c-0.02-0.02-0.04-0.03-0.06-0.03h-2.57
	c-0.02,0-0.04,0.01-0.06,0.03s-0.03,0.04-0.02,0.06c0.01,1.6-0.14,3.14-0.45,4.58c-0.49-2.1-0.72-4.35-0.7-6.71
	c0-0.03-0.01-0.06-0.03-0.08s-0.05-0.04-0.08-0.04h-3.57c-0.03,0-0.06,0.01-0.08,0.04c-0.02,0.02-0.03,0.05-0.03,0.08
	c0.02,2.63-0.28,5.14-0.89,7.45c-0.01,0.04,0,0.07,0.02,0.1s0.06,0.05,0.09,0.05h9.03l0,0c0.05,0,0.09-0.04,0.09-0.09
	c0-0.01,0-0.02-0.01-0.03C1185.79,39.93,1185.58,38.12,1185.59,36.23z"/>
<path fill="#28A197" d="M961.85,35.38c0-0.05-0.02-0.1-0.05-0.13c-0.03-0.03-0.08-0.05-0.13-0.05h-5.49c-0.05,0-0.1,0.02-0.13,0.05
	S956,35.33,956,35.38c0.03,3.43-0.3,6.72-0.97,9.81c-1.04-4.5-1.55-9.32-1.51-14.36c0-0.07-0.03-0.13-0.07-0.18
	c-0.05-0.05-0.11-0.08-0.18-0.08h-7.63c-0.07,0-0.13,0.03-0.18,0.08s-0.07,0.11-0.07,0.18c0.05,5.63-0.59,11-1.9,15.95
	c-0.02,0.08,0,0.16,0.04,0.22c0.05,0.06,0.12,0.1,0.2,0.1h19.32l0,0c0.1,0,0.18-0.08,0.18-0.18c0-0.02,0-0.04-0.01-0.06
	C962.28,43.3,961.82,39.44,961.85,35.38z"/>
<path fill="#28A197" d="M934.09,42.63c0-0.02-0.01-0.04-0.02-0.06c-0.02-0.02-0.04-0.03-0.06-0.03h-2.57
	c-0.02,0-0.04,0.01-0.06,0.03s-0.02,0.04-0.02,0.06c0.01,1.6-0.14,3.14-0.45,4.58c-0.49-2.1-0.72-4.35-0.7-6.71
	c0-0.03-0.01-0.06-0.03-0.08s-0.05-0.04-0.08-0.04h-3.57c-0.03,0-0.06,0.01-0.08,0.04c-0.02,0.02-0.03,0.05-0.03,0.08
	c0.02,2.63-0.28,5.14-0.89,7.45c-0.01,0.04,0,0.07,0.02,0.1s0.06,0.05,0.09,0.05h9.03l0,0c0.05,0,0.09-0.04,0.09-0.09
	c0-0.01,0-0.02-0.01-0.03C934.29,46.33,934.07,44.52,934.09,42.63z"/>
<path fill="#28A197" d="M1609.14,29.94c0-0.05-0.02-0.1-0.05-0.13c-0.03-0.03-0.08-0.05-0.13-0.05h-5.49c-0.05,0-0.1,0.02-0.13,0.05
	c-0.03,0.03-0.05,0.08-0.05,0.13c0.03,3.43-0.3,6.72-0.97,9.81c-1.04-4.5-1.55-9.32-1.51-14.36c0-0.07-0.03-0.13-0.07-0.18
	c-0.05-0.05-0.11-0.08-0.18-0.08h-7.63c-0.07,0-0.13,0.03-0.18,0.08s-0.07,0.11-0.07,0.18c0.05,5.63-0.59,11-1.9,15.95
	c-0.02,0.08,0,0.16,0.04,0.22c0.05,0.06,0.12,0.1,0.2,0.1h19.32l0,0c0.1,0,0.18-0.08,0.18-0.18c0-0.02,0-0.04-0.01-0.06
	C1609.56,37.86,1609.11,33.99,1609.14,29.94z"/>
<path fill="#28A197" d="M1577.98,36.05c0-0.02-0.01-0.04-0.02-0.06c-0.02-0.02-0.04-0.03-0.06-0.03h-2.57
	c-0.02,0-0.04,0.01-0.06,0.03s-0.02,0.04-0.02,0.06c0.01,1.6-0.14,3.14-0.45,4.58c-0.49-2.1-0.72-4.35-0.7-6.71
	c0-0.03-0.01-0.06-0.03-0.08s-0.05-0.04-0.08-0.04h-3.57c-0.03,0-0.06,0.01-0.08,0.04c-0.02,0.02-0.03,0.05-0.03,0.08
	c0.02,2.63-0.28,5.14-0.89,7.45c-0.01,0.04,0,0.07,0.02,0.1s0.06,0.05,0.09,0.05h9.03l0,0c0.05,0,0.09-0.04,0.09-0.09
	c0-0.01,0-0.02-0.01-0.03C1578.18,39.75,1577.96,37.95,1577.98,36.05z"/>
<path fill="#28A197" d="M1158.11,34.02c0-0.03-0.01-0.06-0.03-0.09c-0.02-0.02-0.05-0.04-0.08-0.04h-3.6
	c-0.03,0-0.06,0.01-0.09,0.04c-0.02,0.02-0.03,0.05-0.03,0.09c0.02,2.25-0.19,4.4-0.63,6.43c-0.68-2.95-1.01-6.11-0.99-9.41
	c0-0.04-0.02-0.09-0.05-0.12s-0.07-0.05-0.12-0.05h-5c-0.04,0-0.09,0.02-0.12,0.05c-0.03,0.03-0.05,0.07-0.05,0.12
	c0.03,3.69-0.39,7.21-1.25,10.45c-0.01,0.05,0,0.1,0.03,0.14s0.08,0.06,0.13,0.06h12.66l0,0c0.07,0,0.12-0.05,0.12-0.12
	c0-0.01,0-0.03-0.01-0.04C1158.39,39.21,1158.09,36.68,1158.11,34.02z"/>
<path fill="#28A197" d="M1018.21,72.49c0,0,43.49,8.88,79.04,46.08c-18.65,0.47-11.21,1.01-31.65,0.87
	c-11.69-14.69-63.3-45.53-91.21-46.91C1010.42,72.45,1018.21,72.49,1018.21,72.49z"/>
<path fill="#95CFCA" d="M465.42,67.44l-3.84,8.01c-0.48,0.93-1.44,1.52-2.49,1.52h-22.65c-0.42,0-0.69-0.44-0.5-0.81l0.01-0.02
	c0.31-0.61,0.12-1.35-0.43-1.75l-0.03-0.02c-1.29-0.92-2.05-2.4-2.05-3.99v-1.82h20.17v-0.01c0-0.61,0.5-1.11,1.11-1.11
	L465.42,67.44L465.42,67.44z M452.48,60.72h-3.92c-0.31,0-0.56,0.25-0.56,0.56v6.16c0,0.31,0.25,0.56,0.56,0.56h3.92
	c0.31,0,0.56-0.25,0.56-0.56v-6.16C453.04,60.97,452.79,60.72,452.48,60.72z M459.2,62.96h-4.48c-0.31,0-0.56,0.25-0.56,0.56v2.24
	c0,0.31,0.25,0.56,0.56,0.56h4.48c0.31,0,0.56-0.25,0.56-0.56v-2.24C459.76,63.21,459.51,62.96,459.2,62.96z M441.84,68h4.48
	c0.31,0,0.56-0.25,0.56-0.56v-4.48c0-0.31-0.25-0.56-0.56-0.56h-4.48c-0.31,0-0.56,0.25-0.56,0.56v4.48
	C441.28,67.75,441.53,68,441.84,68z M441.55,59.6l-1.39,1.12V68h-5.6v-7.28h-1.68V59.6h3.92v-1.62h-1.45v-0.65h1.45V54h0.56v3.32
	h1.45v0.65h-1.45v1.62L441.55,59.6L441.55,59.6z M439.15,64.21h-1.82v1.67h1.82V64.21z M439.15,61.53h-1.82v1.67h1.82V61.53z"/>
<path fill="#95CFCA" d="M415.42,67.44l-3.84,8.01c-0.48,0.93-1.44,1.52-2.49,1.52h-22.65c-0.42,0-0.69-0.44-0.5-0.81l0.01-0.02
	c0.31-0.61,0.12-1.35-0.43-1.75l-0.03-0.02c-1.29-0.92-2.05-2.4-2.05-3.99v-1.82h20.17v-0.01c0-0.61,0.5-1.11,1.11-1.11
	L415.42,67.44L415.42,67.44z M402.48,60.72h-3.92c-0.31,0-0.56,0.25-0.56,0.56v6.16c0,0.31,0.25,0.56,0.56,0.56h3.92
	c0.31,0,0.56-0.25,0.56-0.56v-6.16C403.04,60.97,402.79,60.72,402.48,60.72z M409.2,62.96h-4.48c-0.31,0-0.56,0.25-0.56,0.56v2.24
	c0,0.31,0.25,0.56,0.56,0.56h4.48c0.31,0,0.56-0.25,0.56-0.56v-2.24C409.76,63.21,409.51,62.96,409.2,62.96z M391.84,68h4.48
	c0.31,0,0.56-0.25,0.56-0.56v-4.48c0-0.31-0.25-0.56-0.56-0.56h-4.48c-0.31,0-0.56,0.25-0.56,0.56v4.48
	C391.28,67.75,391.53,68,391.84,68z M391.55,59.6l-1.39,1.12V68h-5.6v-7.28h-1.68V59.6h3.92v-1.62h-1.45v-0.65h1.45V54h0.56v3.32
	h1.45v0.65h-1.45v1.62L391.55,59.6L391.55,59.6z M389.15,64.21h-1.82v1.67h1.82V64.21z M389.15,61.53h-1.82v1.67h1.82V61.53z"/>
<path fill="#95CFCA" d="M515.42,67.44l-3.84,8.01c-0.48,0.93-1.44,1.52-2.49,1.52h-22.65c-0.42,0-0.69-0.44-0.5-0.81l0.01-0.02
	c0.31-0.61,0.12-1.35-0.43-1.75l-0.03-0.02c-1.29-0.92-2.05-2.4-2.05-3.99v-1.82h20.17v-0.01c0-0.61,0.5-1.11,1.11-1.11
	L515.42,67.44L515.42,67.44z M502.48,60.72h-3.92c-0.31,0-0.56,0.25-0.56,0.56v6.16c0,0.31,0.25,0.56,0.56,0.56h3.92
	c0.31,0,0.56-0.25,0.56-0.56v-6.16C503.04,60.97,502.79,60.72,502.48,60.72z M509.2,62.96h-4.48c-0.31,0-0.56,0.25-0.56,0.56v2.24
	c0,0.31,0.25,0.56,0.56,0.56h4.48c0.31,0,0.56-0.25,0.56-0.56v-2.24C509.76,63.21,509.51,62.96,509.2,62.96z M491.84,68h4.48
	c0.31,0,0.56-0.25,0.56-0.56v-4.48c0-0.31-0.25-0.56-0.56-0.56h-4.48c-0.31,0-0.56,0.25-0.56,0.56v4.48
	C491.28,67.75,491.53,68,491.84,68z M491.55,59.6l-1.39,1.12V68h-5.6v-7.28h-1.68V59.6h3.92v-1.62h-1.45v-0.65h1.45V54h0.56v3.32
	h1.45v0.65h-1.45v1.62L491.55,59.6L491.55,59.6z M489.15,64.21h-1.82v1.67h1.82V64.21z M489.15,61.53h-1.82v1.67h1.82V61.53z"/>
<g>
	<g>
		<path fill="#95CFCA" d="M692.72,63.36c-0.2-2.08-0.72-6.95-1.24-6.95s-1.04,4.87-1.23,6.95c0.33-0.26,0.78-0.46,1.23-0.46
			S692.39,63.04,692.72,63.36z"/>
		<circle fill="#95CFCA" cx="691.48" cy="64.86" r="1.3"/>
		<path fill="#95CFCA" d="M693.43,64.6c0,0.06,0,0.19,0,0.26c0,0.85-0.5,1.54-1.23,1.82c1.89,0.85,6.37,2.86,6.63,2.4
			C699.09,68.63,695.06,65.77,693.43,64.6z"/>
		<path fill="#95CFCA" d="M689.53,64.86c0-0.06,0-0.19,0-0.26c-1.69,1.17-5.65,4.1-5.4,4.55c0.26,0.46,4.74-1.56,6.63-2.41
			l-0.58,9.81h2.6l-0.58-9.88c-0.22,0.08-0.46,0.13-0.71,0.13C690.38,66.81,689.53,65.96,689.53,64.86z"/>
		<path fill="#95CFCA" d="M692.2,66.68L692.2,66.68L692.2,66.68L692.2,66.68z"/>
	</g>
	<g>
		<path fill="#95CFCA" d="M666.56,63.36c-0.2-2.08-0.72-6.95-1.24-6.95s-1.04,4.87-1.23,6.95c0.33-0.26,0.78-0.46,1.23-0.46
			C665.78,62.91,666.24,63.04,666.56,63.36z"/>
		<circle fill="#95CFCA" cx="665.33" cy="64.86" r="1.3"/>
		<path fill="#95CFCA" d="M667.28,64.6c0,0.06,0,0.19,0,0.26c0,0.85-0.5,1.54-1.23,1.82c1.89,0.85,6.37,2.86,6.63,2.4
			C672.93,68.63,668.9,65.77,667.28,64.6z"/>
		<path fill="#95CFCA" d="M663.38,64.86c0-0.06,0-0.19,0-0.26c-1.69,1.17-5.65,4.1-5.4,4.55c0.26,0.46,4.74-1.56,6.63-2.41
			l-0.58,9.81h2.6l-0.58-9.88c-0.22,0.08-0.46,0.13-0.71,0.13C664.22,66.81,663.38,65.96,663.38,64.86z"/>
		<path fill="#95CFCA" d="M666.04,66.68L666.04,66.68L666.04,66.68L666.04,66.68z"/>
	</g>
	<g>
		<path fill="#95CFCA" d="M640.38,63.36c-0.2-2.08-0.72-6.95-1.24-6.95s-1.04,4.87-1.23,6.95c0.33-0.26,0.78-0.46,1.23-0.46
			C639.59,62.91,640.05,63.04,640.38,63.36z"/>
		<circle fill="#95CFCA" cx="639.14" cy="64.86" r="1.3"/>
		<path fill="#95CFCA" d="M641.09,64.6c0,0.06,0,0.19,0,0.26c0,0.85-0.5,1.54-1.23,1.82c1.89,0.85,6.37,2.86,6.63,2.4
			C646.75,68.63,642.71,65.77,641.09,64.6z"/>
		<path fill="#95CFCA" d="M637.19,64.86c0-0.06,0-0.19,0-0.26c-1.69,1.17-5.65,4.1-5.4,4.55c0.26,0.46,4.74-1.56,6.63-2.41
			l-0.58,9.81h2.6l-0.58-9.88c-0.22,0.08-0.46,0.13-0.71,0.13C638.04,66.81,637.19,65.96,637.19,64.86z"/>
		<path fill="#95CFCA" d="M639.86,66.68L639.86,66.68L639.86,66.68L639.86,66.68z"/>
	</g>
	<g>
		<path fill="#95CFCA" d="M718.5,63.36c-0.2-2.08-0.72-6.95-1.24-6.95s-1.04,4.87-1.23,6.95c0.33-0.26,0.78-0.46,1.23-0.46
			C717.72,62.91,718.18,63.04,718.5,63.36z"/>
		<circle fill="#95CFCA" cx="717.26" cy="64.86" r="1.3"/>
		<path fill="#95CFCA" d="M719.22,64.6c0,0.06,0,0.19,0,0.26c0,0.85-0.5,1.54-1.23,1.82c1.89,0.85,6.37,2.86,6.63,2.4
			C724.87,68.63,720.84,65.77,719.22,64.6z"/>
		<path fill="#95CFCA" d="M715.32,64.86c0-0.06,0-0.19,0-0.26c-1.69,1.17-5.65,4.1-5.4,4.55c0.26,0.46,4.74-1.56,6.63-2.41
			l-0.58,9.81h2.6l-0.58-9.88c-0.22,0.08-0.46,0.13-0.71,0.13C716.16,66.81,715.32,65.96,715.32,64.86z"/>
		<path fill="#95CFCA" d="M717.98,66.68L717.98,66.68L717.98,66.68L717.98,66.68z"/>
	</g>
	<g>
		<path fill="#95CFCA" d="M744.44,63.36c-0.2-2.08-0.72-6.95-1.24-6.95s-1.04,4.87-1.23,6.95c0.33-0.26,0.78-0.46,1.23-0.46
			C743.65,62.91,744.11,63.04,744.44,63.36z"/>
		<circle fill="#95CFCA" cx="743.2" cy="64.86" r="1.3"/>
		<path fill="#95CFCA" d="M745.15,64.6c0,0.06,0,0.19,0,0.26c0,0.85-0.5,1.54-1.23,1.82c1.89,0.85,6.37,2.86,6.63,2.4
			C750.81,68.63,746.78,65.77,745.15,64.6z"/>
		<path fill="#95CFCA" d="M741.26,64.86c0-0.06,0-0.19,0-0.26c-1.69,1.17-5.65,4.1-5.4,4.55c0.26,0.46,4.74-1.56,6.63-2.41
			l-0.58,9.81h2.6l-0.58-9.88c-0.22,0.08-0.46,0.13-0.71,0.13C742.1,66.81,741.26,65.96,741.26,64.86z"/>
		<path fill="#95CFCA" d="M743.92,66.68L743.92,66.68L743.92,66.68L743.92,66.68z"/>
	</g>
</g>
<g>
	<g>
		<path fill="#28A197" d="M1732.34,27.91c-0.2-2.08-0.72-6.95-1.24-6.95s-1.04,4.87-1.23,6.95c0.33-0.26,0.78-0.46,1.23-0.46
			C1731.55,27.45,1732.01,27.59,1732.34,27.91z"/>
		<circle fill="#28A197" cx="1731.1" cy="29.41" r="1.3"/>
		<path fill="#28A197" d="M1733.05,29.15c0,0.06,0,0.19,0,0.26c0,0.85-0.5,1.54-1.23,1.82c1.89,0.85,6.37,2.86,6.63,2.4
			C1738.7,33.17,1734.67,30.32,1733.05,29.15z"/>
		<path fill="#28A197" d="M1729.15,29.41c0-0.06,0-0.19,0-0.26c-1.69,1.17-5.65,4.09-5.4,4.55c0.26,0.46,4.74-1.56,6.63-2.41
			l-0.58,9.81h2.6l-0.58-9.88c-0.22,0.08-0.46,0.13-0.71,0.13C1729.99,31.36,1729.15,30.51,1729.15,29.41z"/>
		<path fill="#28A197" d="M1731.82,31.23L1731.82,31.23L1731.82,31.23L1731.82,31.23z"/>
	</g>
	<g>
		<path fill="#28A197" d="M1706.18,27.91c-0.2-2.08-0.72-6.95-1.24-6.95s-1.04,4.87-1.23,6.95c0.33-0.26,0.78-0.46,1.23-0.46
			C1705.4,27.45,1705.86,27.59,1706.18,27.91z"/>
		<circle fill="#28A197" cx="1704.94" cy="29.41" r="1.3"/>
		<path fill="#28A197" d="M1706.9,29.15c0,0.06,0,0.19,0,0.26c0,0.85-0.5,1.54-1.23,1.82c1.89,0.85,6.37,2.86,6.63,2.4
			C1712.55,33.17,1708.52,30.32,1706.9,29.15z"/>
		<path fill="#28A197" d="M1703,29.41c0-0.06,0-0.19,0-0.26c-1.69,1.17-5.65,4.09-5.4,4.55c0.26,0.46,4.74-1.56,6.63-2.41
			l-0.58,9.81h2.6l-0.58-9.88c-0.22,0.08-0.46,0.13-0.71,0.13C1703.84,31.36,1703,30.51,1703,29.41z"/>
		<path fill="#28A197" d="M1705.66,31.23L1705.66,31.23L1705.66,31.23L1705.66,31.23z"/>
	</g>
	<g>
		<path fill="#28A197" d="M1679.99,27.91c-0.2-2.08-0.72-6.95-1.24-6.95s-1.04,4.87-1.23,6.95c0.33-0.26,0.78-0.46,1.23-0.46
			C1679.21,27.45,1679.67,27.59,1679.99,27.91z"/>
		<circle fill="#28A197" cx="1678.76" cy="29.41" r="1.3"/>
		<path fill="#28A197" d="M1680.71,29.15c0,0.06,0,0.19,0,0.26c0,0.85-0.5,1.54-1.23,1.82c1.89,0.85,6.37,2.86,6.63,2.4
			C1686.36,33.17,1682.33,30.32,1680.71,29.15z"/>
		<path fill="#28A197" d="M1676.81,29.41c0-0.06,0-0.19,0-0.26c-1.69,1.17-5.65,4.09-5.4,4.55c0.26,0.46,4.74-1.56,6.63-2.41
			l-0.58,9.81h2.6l-0.58-9.88c-0.22,0.08-0.46,0.13-0.71,0.13C1677.65,31.36,1676.81,30.51,1676.81,29.41z"/>
		<path fill="#28A197" d="M1679.47,31.23L1679.47,31.23L1679.47,31.23L1679.47,31.23z"/>
	</g>
	<g>
		<path fill="#28A197" d="M1758.12,27.91c-0.2-2.08-0.72-6.95-1.24-6.95s-1.04,4.87-1.23,6.95c0.33-0.26,0.78-0.46,1.23-0.46
			S1757.79,27.59,1758.12,27.91z"/>
		<circle fill="#28A197" cx="1756.88" cy="29.41" r="1.3"/>
		<path fill="#28A197" d="M1758.83,29.15c0,0.06,0,0.19,0,0.26c0,0.85-0.5,1.54-1.23,1.82c1.89,0.85,6.37,2.86,6.63,2.4
			C1764.49,33.17,1760.46,30.32,1758.83,29.15z"/>
		<path fill="#28A197" d="M1754.93,29.41c0-0.06,0-0.19,0-0.26c-1.69,1.17-5.65,4.09-5.4,4.55c0.26,0.46,4.74-1.56,6.63-2.41
			l-0.58,9.81h2.6l-0.58-9.88c-0.22,0.08-0.46,0.13-0.71,0.13C1755.78,31.36,1754.93,30.51,1754.93,29.41z"/>
		<path fill="#28A197" d="M1757.6,31.23L1757.6,31.23L1757.6,31.23L1757.6,31.23z"/>
	</g>
	<g>
		<path fill="#28A197" d="M1784.06,27.91c-0.2-2.08-0.72-6.95-1.24-6.95s-1.04,4.87-1.23,6.95c0.33-0.26,0.78-0.46,1.23-0.46
			S1783.73,27.59,1784.06,27.91z"/>
		<circle fill="#28A197" cx="1782.82" cy="29.41" r="1.3"/>
		<path fill="#28A197" d="M1784.77,29.15c0,0.06,0,0.19,0,0.26c0,0.85-0.5,1.54-1.23,1.82c1.89,0.85,6.37,2.86,6.63,2.4
			C1790.43,33.17,1786.39,30.32,1784.77,29.15z"/>
		<path fill="#28A197" d="M1780.87,29.41c0-0.06,0-0.19,0-0.26c-1.69,1.17-5.65,4.09-5.4,4.55c0.26,0.46,4.74-1.56,6.63-2.41
			l-0.58,9.81h2.6l-0.58-9.88c-0.22,0.08-0.46,0.13-0.71,0.13C1781.72,31.36,1780.87,30.51,1780.87,29.41z"/>
		<path fill="#28A197" d="M1783.54,31.23L1783.54,31.23L1783.54,31.23L1783.54,31.23z"/>
	</g>
</g>
<path fill="#D53980" d="M456.92,114.96c-0.06-0.09-0.17-0.14-0.28-0.12l-3.2,0.72l0.98-6.87c0.02-0.12-0.05-0.24-0.16-0.29
	c-0.11-0.05-0.25-0.01-0.32,0.09l-6.9,9.41c-0.07,0.09-0.07,0.21-0.01,0.3c0.06,0.09,0.17,0.14,0.28,0.12l3.48-0.65l-1.02,6.5
	c-0.02,0.12,0.05,0.24,0.16,0.29c0.03,0.01,0.07,0.02,0.1,0.02c0.08,0,0.17-0.04,0.22-0.11l6.68-9.12
	C456.98,115.17,456.98,115.05,456.92,114.96z"/>
</svg>
