<?xml version="1.0" encoding="utf-8"?>
<!-- Generator: Adobe Illustrator 18.1.0, SVG Export Plug-In . SVG Version: 6.00 Build 0)  -->
<svg version="1.1" id="Layer_1" xmlns="http://www.w3.org/2000/svg" xmlns:xlink="http://www.w3.org/1999/xlink" x="0px" y="0px"
	 viewBox="0.25 185 1500 370" enable-background="new 0.25 185 1500 370" xml:space="preserve">
<g id="Layer_2">
	
		<radialGradient id="SVGID_1_" cx="1542.349" cy="-570.1171" r="618.952" gradientTransform="matrix(0.625 0 0 -0.625 0 300.625)" gradientUnits="userSpaceOnUse">
		<stop  offset="0" style="stop-color:#000000"/>
		<stop  offset="0.1413" style="stop-color:#000000;stop-opacity:0.8587"/>
		<stop  offset="1" style="stop-color:#000000;stop-opacity:0"/>
	</radialGradient>
	<circle fill="url(#SVGID_1_)" cx="963.97" cy="656.95" r="386.85"/>
</g>
<g id="Layer_1_2_">
	<path fill="#28A197" d="M0.25,393.66h399.4c0,0,875.69-2.8,1035.94,100.01c-204.71-0.1-1435.33,0-1435.33,0V393.66z"/>
	<path fill="#28A197" d="M41.87,371.78h-2.08c-0.02-0.82-0.7-1.5-1.55-1.5h-3.72c-0.85,0-1.52,0.67-1.55,1.49H10.67
		c-2.92,0-5.28,2.36-5.28,5.28v10.66v0.1v5.21c0,0.73,0.59,1.31,1.31,1.31s1.31-0.59,1.31-1.31v-2.32h1.37v2.32
		c0,0.73,0.59,1.31,1.31,1.31s1.31-0.59,1.31-1.31v-2.32h1.12c1.84,0,3.39-1.22,3.89-2.89h7.55v5.21c0,0.73,0.59,1.31,1.31,1.31
		c0.73,0,1.31-0.59,1.31-1.31v-5.21h1.32v5.21c0,0.73,0.59,1.31,1.31,1.31c0.73,0,1.31-0.59,1.31-1.31v-5.21h0.25
		c1.77,0,3.2-1.43,3.2-3.2l0.75-3.56h2.1c0.79,0,1.46-0.6,1.54-1.39l0.56-5.43l2.5-1.15c0.28-0.08,0.48-0.34,0.48-0.63
		C42.52,372.07,42.23,371.78,41.87,371.78z"/>
	<path fill="#28A197" d="M110.65,371.78h2.08c0.02-0.82,0.7-1.5,1.55-1.5h3.72c0.85,0,1.52,0.67,1.55,1.49h22.31
		c2.92,0,5.28,2.36,5.28,5.28v10.66v0.1v5.21c0,0.73-0.59,1.31-1.31,1.31s-1.31-0.59-1.31-1.31v-2.32h-1.37v2.32
		c0,0.73-0.59,1.31-1.31,1.31c-0.73,0-1.31-0.59-1.31-1.31v-2.32h-1.12c-1.84,0-3.39-1.22-3.89-2.89h-7.55v5.21
		c0,0.73-0.59,1.31-1.31,1.31c-0.73,0-1.31-0.59-1.31-1.31v-5.21H124v5.21c0,0.73-0.59,1.31-1.31,1.31s-1.31-0.59-1.31-1.31v-5.21
		h-0.25c-1.77,0-3.2-1.43-3.2-3.2l-0.75-3.56h-2.1c-0.79,0-1.46-0.6-1.54-1.39l-0.56-5.43l-2.5-1.15c-0.28-0.08-0.48-0.34-0.48-0.63
		C109.99,372.07,110.29,371.78,110.65,371.78z"/>
	<path fill="#28A197" d="M83.64,371.78h-2.08c-0.02-0.82-0.7-1.5-1.55-1.5H76.3c-0.85,0-1.52,0.67-1.55,1.49H52.44
		c-2.92,0-5.28,2.36-5.28,5.28v10.66v0.1v5.21c0,0.73,0.59,1.31,1.31,1.31c0.73,0,1.31-0.59,1.31-1.31v-2.32h1.37v2.32
		c0,0.73,0.59,1.31,1.31,1.31c0.73,0,1.31-0.59,1.31-1.31v-2.32h1.12c1.84,0,3.39-1.22,3.89-2.89h7.55v5.21
		c0,0.73,0.59,1.31,1.31,1.31c0.73,0,1.31-0.59,1.31-1.31v-5.21h1.32v5.21c0,0.73,0.59,1.31,1.31,1.31c0.73,0,1.31-0.59,1.31-1.31
		v-5.21h0.25c1.77,0,3.2-1.43,3.2-3.2l0.75-3.56h2.1c0.79,0,1.46-0.6,1.54-1.39l0.56-5.43l2.5-1.15c0.28-0.08,0.48-0.34,0.48-0.63
		C84.3,372.07,84.01,371.78,83.64,371.78z"/>
	<g>
		<g>
			<g>
				<g>
					<g id="XMLID_110_">
						<g>
							<path fill="#28A197" d="M367.8,394.13h-0.28h-0.7v-17.89c0-0.08,0.01-0.16,0.04-0.23c0.07-0.21,0.25-0.35,0.45-0.35
								c0.27,0,0.49,0.26,0.49,0.58L367.8,394.13L367.8,394.13z"/>
						</g>
					</g>
				</g>
				<path fill="#28A197" d="M366.19,384.36c0.93,1.09,0.77,2.75,0.77,2.75s-1.66-0.1-2.59-1.19c-0.93-1.09-0.77-2.75-0.77-2.75
					S365.26,383.27,366.19,384.36z"/>
				<path fill="#28A197" d="M368.51,374.56c0.01,1.43-1.18,2.6-1.18,2.6s-1.21-1.15-1.22-2.58c-0.01-1.43,1.17-2.6,1.17-2.6
					S368.5,373.13,368.51,374.56z"/>
				<path fill="#28A197" d="M368.45,384.36c-0.93,1.09-0.77,2.75-0.77,2.75s1.66-0.1,2.59-1.19c0.93-1.09,0.77-2.75,0.77-2.75
					S369.38,383.27,368.45,384.36z"/>
				<path fill="#28A197" d="M366.19,376.86c0.93,1.09,0.77,2.75,0.77,2.75s-1.66-0.1-2.59-1.19c-0.93-1.09-0.77-2.75-0.77-2.75
					S365.26,375.77,366.19,376.86z"/>
				<path fill="#28A197" d="M368.45,376.86c-0.93,1.09-0.77,2.75-0.77,2.75s1.66-0.1,2.59-1.19c0.93-1.09,0.77-2.75,0.77-2.75
					S369.38,375.77,368.45,376.86z"/>
				<path fill="#28A197" d="M366.19,380.61c0.93,1.09,0.77,2.75,0.77,2.75s-1.66-0.1-2.59-1.19c-0.93-1.09-0.77-2.75-0.77-2.75
					S365.26,379.52,366.19,380.61z"/>
				<path fill="#28A197" d="M368.45,380.61c-0.93,1.09-0.77,2.75-0.77,2.75s1.66-0.1,2.59-1.19c0.93-1.09,0.77-2.75,0.77-2.75
					S369.38,379.52,368.45,380.61z"/>
				<path fill="#28A197" d="M366.19,388.11c0.93,1.09,0.77,2.75,0.77,2.75s-1.66-0.1-2.59-1.19c-0.93-1.09-0.77-2.75-0.77-2.75
					S365.26,387.02,366.19,388.11z"/>
				<path fill="#28A197" d="M368.45,388.11c-0.93,1.09-0.77,2.75-0.77,2.75s1.66-0.1,2.59-1.19c0.93-1.09,0.77-2.75,0.77-2.75
					S369.38,387.02,368.45,388.11z"/>
			</g>
		</g>
		<g>
			<g>
				<g>
					<g id="XMLID_107_">
						<g>
							<path fill="#28A197" d="M356.55,394.13h-0.28h-0.7v-17.89c0-0.08,0.01-0.16,0.04-0.23c0.07-0.21,0.25-0.35,0.45-0.35
								c0.27,0,0.49,0.26,0.49,0.58L356.55,394.13L356.55,394.13z"/>
						</g>
					</g>
				</g>
				<path fill="#28A197" d="M354.94,384.36c0.93,1.09,0.77,2.75,0.77,2.75s-1.66-0.1-2.59-1.19c-0.93-1.09-0.77-2.75-0.77-2.75
					S354.01,383.27,354.94,384.36z"/>
				<path fill="#28A197" d="M357.26,374.56c0.01,1.43-1.18,2.6-1.18,2.6s-1.21-1.15-1.22-2.58c-0.01-1.43,1.17-2.6,1.17-2.6
					S357.25,373.13,357.26,374.56z"/>
				<path fill="#28A197" d="M357.2,384.36c-0.93,1.09-0.77,2.75-0.77,2.75s1.66-0.1,2.59-1.19c0.93-1.09,0.77-2.75,0.77-2.75
					S358.13,383.27,357.2,384.36z"/>
				<path fill="#28A197" d="M354.94,376.86c0.93,1.09,0.77,2.75,0.77,2.75s-1.66-0.1-2.59-1.19c-0.93-1.09-0.77-2.75-0.77-2.75
					S354.01,375.77,354.94,376.86z"/>
				<path fill="#28A197" d="M357.2,376.86c-0.93,1.09-0.77,2.75-0.77,2.75s1.66-0.1,2.59-1.19c0.93-1.09,0.77-2.75,0.77-2.75
					S358.13,375.77,357.2,376.86z"/>
				<path fill="#28A197" d="M354.94,380.61c0.93,1.09,0.77,2.75,0.77,2.75s-1.66-0.1-2.59-1.19c-0.93-1.09-0.77-2.75-0.77-2.75
					S354.01,379.52,354.94,380.61z"/>
				<path fill="#28A197" d="M357.2,380.61c-0.93,1.09-0.77,2.75-0.77,2.75s1.66-0.1,2.59-1.19c0.93-1.09,0.77-2.75,0.77-2.75
					S358.13,379.52,357.2,380.61z"/>
				<path fill="#28A197" d="M354.94,388.11c0.93,1.09,0.77,2.75,0.77,2.75s-1.66-0.1-2.59-1.19c-0.93-1.09-0.77-2.75-0.77-2.75
					S354.01,387.02,354.94,388.11z"/>
				<path fill="#28A197" d="M357.2,388.11c-0.93,1.09-0.77,2.75-0.77,2.75s1.66-0.1,2.59-1.19c0.93-1.09,0.77-2.75,0.77-2.75
					S358.13,387.02,357.2,388.11z"/>
			</g>
		</g>
		<g>
			<g>
				<g>
					<g id="XMLID_104_">
						<g>
							<path fill="#28A197" d="M345.3,394.13h-0.28h-0.7v-17.89c0-0.08,0.01-0.16,0.04-0.23c0.07-0.21,0.25-0.35,0.45-0.35
								c0.27,0,0.49,0.26,0.49,0.58L345.3,394.13L345.3,394.13z"/>
						</g>
					</g>
				</g>
				<path fill="#28A197" d="M343.69,384.36c0.93,1.09,0.77,2.75,0.77,2.75s-1.66-0.1-2.59-1.19c-0.93-1.09-0.77-2.75-0.77-2.75
					S342.76,383.27,343.69,384.36z"/>
				<path fill="#28A197" d="M346.01,374.56c0.01,1.43-1.18,2.6-1.18,2.6s-1.21-1.15-1.22-2.58c-0.01-1.43,1.17-2.6,1.17-2.6
					S346,373.13,346.01,374.56z"/>
				<path fill="#28A197" d="M345.95,384.36c-0.93,1.09-0.77,2.75-0.77,2.75s1.66-0.1,2.59-1.19c0.93-1.09,0.77-2.75,0.77-2.75
					S346.88,383.27,345.95,384.36z"/>
				<path fill="#28A197" d="M343.69,376.86c0.93,1.09,0.77,2.75,0.77,2.75s-1.66-0.1-2.59-1.19c-0.93-1.09-0.77-2.75-0.77-2.75
					S342.76,375.77,343.69,376.86z"/>
				<path fill="#28A197" d="M345.95,376.86c-0.93,1.09-0.77,2.75-0.77,2.75s1.66-0.1,2.59-1.19c0.93-1.09,0.77-2.75,0.77-2.75
					S346.88,375.77,345.95,376.86z"/>
				<path fill="#28A197" d="M343.69,380.61c0.93,1.09,0.77,2.75,0.77,2.75s-1.66-0.1-2.59-1.19c-0.93-1.09-0.77-2.75-0.77-2.75
					S342.76,379.52,343.69,380.61z"/>
				<path fill="#28A197" d="M345.95,380.61c-0.93,1.09-0.77,2.75-0.77,2.75s1.66-0.1,2.59-1.19c0.93-1.09,0.77-2.75,0.77-2.75
					S346.88,379.52,345.95,380.61z"/>
				<path fill="#28A197" d="M343.69,388.11c0.93,1.09,0.77,2.75,0.77,2.75s-1.66-0.1-2.59-1.19c-0.93-1.09-0.77-2.75-0.77-2.75
					S342.76,387.02,343.69,388.11z"/>
				<path fill="#28A197" d="M345.95,388.11c-0.93,1.09-0.77,2.75-0.77,2.75s1.66-0.1,2.59-1.19c0.93-1.09,0.77-2.75,0.77-2.75
					S346.88,387.02,345.95,388.11z"/>
			</g>
		</g>
		<g>
			<g>
				<g>
					<g id="XMLID_101_">
						<g>
							<path fill="#28A197" d="M334.05,394.13h-0.28h-0.7v-17.89c0-0.08,0.01-0.16,0.04-0.23c0.07-0.21,0.25-0.35,0.45-0.35
								c0.27,0,0.49,0.26,0.49,0.58L334.05,394.13L334.05,394.13z"/>
						</g>
					</g>
				</g>
				<path fill="#28A197" d="M332.44,384.36c0.93,1.09,0.77,2.75,0.77,2.75s-1.66-0.1-2.59-1.19c-0.93-1.09-0.77-2.75-0.77-2.75
					S331.51,383.27,332.44,384.36z"/>
				<path fill="#28A197" d="M334.76,374.56c0.01,1.43-1.18,2.6-1.18,2.6s-1.21-1.15-1.22-2.58c-0.01-1.43,1.17-2.6,1.17-2.6
					S334.75,373.13,334.76,374.56z"/>
				<path fill="#28A197" d="M334.7,384.36c-0.93,1.09-0.77,2.75-0.77,2.75s1.66-0.1,2.59-1.19c0.93-1.09,0.77-2.75,0.77-2.75
					S335.63,383.27,334.7,384.36z"/>
				<path fill="#28A197" d="M332.44,376.86c0.93,1.09,0.77,2.75,0.77,2.75s-1.66-0.1-2.59-1.19c-0.93-1.09-0.77-2.75-0.77-2.75
					S331.51,375.77,332.44,376.86z"/>
				<path fill="#28A197" d="M334.7,376.86c-0.93,1.09-0.77,2.75-0.77,2.75s1.66-0.1,2.59-1.19c0.93-1.09,0.77-2.75,0.77-2.75
					S335.63,375.77,334.7,376.86z"/>
				<path fill="#28A197" d="M332.44,380.61c0.93,1.09,0.77,2.75,0.77,2.75s-1.66-0.1-2.59-1.19c-0.93-1.09-0.77-2.75-0.77-2.75
					S331.51,379.52,332.44,380.61z"/>
				<path fill="#28A197" d="M334.7,380.61c-0.93,1.09-0.77,2.75-0.77,2.75s1.66-0.1,2.59-1.19c0.93-1.09,0.77-2.75,0.77-2.75
					S335.63,379.52,334.7,380.61z"/>
				<path fill="#28A197" d="M332.44,388.11c0.93,1.09,0.77,2.75,0.77,2.75s-1.66-0.1-2.59-1.19c-0.93-1.09-0.77-2.75-0.77-2.75
					S331.51,387.02,332.44,388.11z"/>
				<path fill="#28A197" d="M334.7,388.11c-0.93,1.09-0.77,2.75-0.77,2.75s1.66-0.1,2.59-1.19c0.93-1.09,0.77-2.75,0.77-2.75
					S335.63,387.02,334.7,388.11z"/>
			</g>
		</g>
		<g>
			<g>
				<g>
					<g id="XMLID_98_">
						<g>
							<path fill="#28A197" d="M322.8,394.13h-0.28h-0.7v-17.89c0-0.08,0.01-0.16,0.04-0.23c0.07-0.21,0.25-0.35,0.45-0.35
								c0.27,0,0.49,0.26,0.49,0.58L322.8,394.13L322.8,394.13z"/>
						</g>
					</g>
				</g>
				<path fill="#28A197" d="M321.19,384.36c0.93,1.09,0.77,2.75,0.77,2.75s-1.66-0.1-2.59-1.19c-0.93-1.09-0.77-2.75-0.77-2.75
					S320.26,383.27,321.19,384.36z"/>
				<path fill="#28A197" d="M323.51,374.56c0.01,1.43-1.18,2.6-1.18,2.6s-1.21-1.15-1.22-2.58c-0.01-1.43,1.17-2.6,1.17-2.6
					S323.5,373.13,323.51,374.56z"/>
				<path fill="#28A197" d="M323.45,384.36c-0.93,1.09-0.77,2.75-0.77,2.75s1.66-0.1,2.59-1.19c0.93-1.09,0.77-2.75,0.77-2.75
					S324.38,383.27,323.45,384.36z"/>
				<path fill="#28A197" d="M321.19,376.86c0.93,1.09,0.77,2.75,0.77,2.75s-1.66-0.1-2.59-1.19c-0.93-1.09-0.77-2.75-0.77-2.75
					S320.26,375.77,321.19,376.86z"/>
				<path fill="#28A197" d="M323.45,376.86c-0.93,1.09-0.77,2.75-0.77,2.75s1.66-0.1,2.59-1.19c0.93-1.09,0.77-2.75,0.77-2.75
					S324.38,375.77,323.45,376.86z"/>
				<path fill="#28A197" d="M321.19,380.61c0.93,1.09,0.77,2.75,0.77,2.75s-1.66-0.1-2.59-1.19c-0.93-1.09-0.77-2.75-0.77-2.75
					S320.26,379.52,321.19,380.61z"/>
				<path fill="#28A197" d="M323.45,380.61c-0.93,1.09-0.77,2.75-0.77,2.75s1.66-0.1,2.59-1.19c0.93-1.09,0.77-2.75,0.77-2.75
					S324.38,379.52,323.45,380.61z"/>
				<path fill="#28A197" d="M321.19,388.11c0.93,1.09,0.77,2.75,0.77,2.75s-1.66-0.1-2.59-1.19c-0.93-1.09-0.77-2.75-0.77-2.75
					S320.26,387.02,321.19,388.11z"/>
				<path fill="#28A197" d="M323.45,388.11c-0.93,1.09-0.77,2.75-0.77,2.75s1.66-0.1,2.59-1.19c0.93-1.09,0.77-2.75,0.77-2.75
					S324.38,387.02,323.45,388.11z"/>
			</g>
		</g>
		<g>
			<g>
				<g>
					<g id="XMLID_95_">
						<g>
							<path fill="#28A197" d="M311.55,394.13h-0.28h-0.7v-17.89c0-0.08,0.01-0.16,0.04-0.23c0.07-0.21,0.25-0.35,0.45-0.35
								c0.27,0,0.49,0.26,0.49,0.58L311.55,394.13L311.55,394.13z"/>
						</g>
					</g>
				</g>
				<path fill="#28A197" d="M309.94,384.36c0.93,1.09,0.77,2.75,0.77,2.75s-1.66-0.1-2.59-1.19c-0.93-1.09-0.77-2.75-0.77-2.75
					S309.01,383.27,309.94,384.36z"/>
				<path fill="#28A197" d="M312.26,374.56c0.01,1.43-1.18,2.6-1.18,2.6s-1.21-1.15-1.22-2.58c-0.01-1.43,1.17-2.6,1.17-2.6
					S312.25,373.13,312.26,374.56z"/>
				<path fill="#28A197" d="M312.2,384.36c-0.93,1.09-0.77,2.75-0.77,2.75s1.66-0.1,2.59-1.19c0.93-1.09,0.77-2.75,0.77-2.75
					S313.13,383.27,312.2,384.36z"/>
				<path fill="#28A197" d="M309.94,376.86c0.93,1.09,0.77,2.75,0.77,2.75s-1.66-0.1-2.59-1.19c-0.93-1.09-0.77-2.75-0.77-2.75
					S309.01,375.77,309.94,376.86z"/>
				<path fill="#28A197" d="M312.2,376.86c-0.93,1.09-0.77,2.75-0.77,2.75s1.66-0.1,2.59-1.19c0.93-1.09,0.77-2.75,0.77-2.75
					S313.13,375.77,312.2,376.86z"/>
				<path fill="#28A197" d="M309.94,380.61c0.93,1.09,0.77,2.75,0.77,2.75s-1.66-0.1-2.59-1.19c-0.93-1.09-0.77-2.75-0.77-2.75
					S309.01,379.52,309.94,380.61z"/>
				<path fill="#28A197" d="M312.2,380.61c-0.93,1.09-0.77,2.75-0.77,2.75s1.66-0.1,2.59-1.19c0.93-1.09,0.77-2.75,0.77-2.75
					S313.13,379.52,312.2,380.61z"/>
				<path fill="#28A197" d="M309.94,388.11c0.93,1.09,0.77,2.75,0.77,2.75s-1.66-0.1-2.59-1.19c-0.93-1.09-0.77-2.75-0.77-2.75
					S309.01,387.02,309.94,388.11z"/>
				<path fill="#28A197" d="M312.2,388.11c-0.93,1.09-0.77,2.75-0.77,2.75s1.66-0.1,2.59-1.19c0.93-1.09,0.77-2.75,0.77-2.75
					S313.13,387.02,312.2,388.11z"/>
			</g>
		</g>
		<g>
			<g>
				<g>
					<g id="XMLID_92_">
						<g>
							<path fill="#28A197" d="M300.3,394.13h-0.28h-0.7v-17.89c0-0.08,0.01-0.16,0.04-0.23c0.07-0.21,0.25-0.35,0.45-0.35
								c0.27,0,0.49,0.26,0.49,0.58L300.3,394.13L300.3,394.13z"/>
						</g>
					</g>
				</g>
				<path fill="#28A197" d="M298.69,384.36c0.93,1.09,0.77,2.75,0.77,2.75s-1.66-0.1-2.59-1.19c-0.93-1.09-0.77-2.75-0.77-2.75
					S297.76,383.27,298.69,384.36z"/>
				<path fill="#28A197" d="M301.01,374.56c0.01,1.43-1.18,2.6-1.18,2.6s-1.21-1.15-1.22-2.58c-0.01-1.43,1.17-2.6,1.17-2.6
					S301,373.13,301.01,374.56z"/>
				<path fill="#28A197" d="M300.95,384.36c-0.93,1.09-0.77,2.75-0.77,2.75s1.66-0.1,2.59-1.19c0.93-1.09,0.77-2.75,0.77-2.75
					S301.88,383.27,300.95,384.36z"/>
				<path fill="#28A197" d="M298.69,376.86c0.93,1.09,0.77,2.75,0.77,2.75s-1.66-0.1-2.59-1.19c-0.93-1.09-0.77-2.75-0.77-2.75
					S297.76,375.77,298.69,376.86z"/>
				<path fill="#28A197" d="M300.95,376.86c-0.93,1.09-0.77,2.75-0.77,2.75s1.66-0.1,2.59-1.19c0.93-1.09,0.77-2.75,0.77-2.75
					S301.88,375.77,300.95,376.86z"/>
				<path fill="#28A197" d="M298.69,380.61c0.93,1.09,0.77,2.75,0.77,2.75s-1.66-0.1-2.59-1.19c-0.93-1.09-0.77-2.75-0.77-2.75
					S297.76,379.52,298.69,380.61z"/>
				<path fill="#28A197" d="M300.95,380.61c-0.93,1.09-0.77,2.75-0.77,2.75s1.66-0.1,2.59-1.19c0.93-1.09,0.77-2.75,0.77-2.75
					S301.88,379.52,300.95,380.61z"/>
				<path fill="#28A197" d="M298.69,388.11c0.93,1.09,0.77,2.75,0.77,2.75s-1.66-0.1-2.59-1.19c-0.93-1.09-0.77-2.75-0.77-2.75
					S297.76,387.02,298.69,388.11z"/>
				<path fill="#28A197" d="M300.95,388.11c-0.93,1.09-0.77,2.75-0.77,2.75s1.66-0.1,2.59-1.19c0.93-1.09,0.77-2.75,0.77-2.75
					S301.88,387.02,300.95,388.11z"/>
			</g>
		</g>
		<g>
			<g>
				<g>
					<g id="XMLID_89_">
						<g>
							<path fill="#28A197" d="M289.05,394.13h-0.28h-0.7v-17.89c0-0.08,0.01-0.16,0.04-0.23c0.07-0.21,0.25-0.35,0.45-0.35
								c0.27,0,0.49,0.26,0.49,0.58L289.05,394.13L289.05,394.13z"/>
						</g>
					</g>
				</g>
				<path fill="#28A197" d="M287.44,384.36c0.93,1.09,0.77,2.75,0.77,2.75s-1.66-0.1-2.59-1.19c-0.93-1.09-0.77-2.75-0.77-2.75
					S286.51,383.27,287.44,384.36z"/>
				<path fill="#28A197" d="M289.76,374.56c0.01,1.43-1.18,2.6-1.18,2.6s-1.21-1.15-1.22-2.58c-0.01-1.43,1.17-2.6,1.17-2.6
					S289.75,373.13,289.76,374.56z"/>
				<path fill="#28A197" d="M289.7,384.36c-0.93,1.09-0.77,2.75-0.77,2.75s1.66-0.1,2.59-1.19c0.93-1.09,0.77-2.75,0.77-2.75
					S290.63,383.27,289.7,384.36z"/>
				<path fill="#28A197" d="M287.44,376.86c0.93,1.09,0.77,2.75,0.77,2.75s-1.66-0.1-2.59-1.19c-0.93-1.09-0.77-2.75-0.77-2.75
					S286.51,375.77,287.44,376.86z"/>
				<path fill="#28A197" d="M289.7,376.86c-0.93,1.09-0.77,2.75-0.77,2.75s1.66-0.1,2.59-1.19c0.93-1.09,0.77-2.75,0.77-2.75
					S290.63,375.77,289.7,376.86z"/>
				<path fill="#28A197" d="M287.44,380.61c0.93,1.09,0.77,2.75,0.77,2.75s-1.66-0.1-2.59-1.19c-0.93-1.09-0.77-2.75-0.77-2.75
					S286.51,379.52,287.44,380.61z"/>
				<path fill="#28A197" d="M289.7,380.61c-0.93,1.09-0.77,2.75-0.77,2.75s1.66-0.1,2.59-1.19c0.93-1.09,0.77-2.75,0.77-2.75
					S290.63,379.52,289.7,380.61z"/>
				<path fill="#28A197" d="M287.44,388.11c0.93,1.09,0.77,2.75,0.77,2.75s-1.66-0.1-2.59-1.19c-0.93-1.09-0.77-2.75-0.77-2.75
					S286.51,387.02,287.44,388.11z"/>
				<path fill="#28A197" d="M289.7,388.11c-0.93,1.09-0.77,2.75-0.77,2.75s1.66-0.1,2.59-1.19c0.93-1.09,0.77-2.75,0.77-2.75
					S290.63,387.02,289.7,388.11z"/>
			</g>
		</g>
		<g>
			<g>
				<g>
					<g id="XMLID_86_">
						<g>
							<path fill="#28A197" d="M277.8,394.13h-0.28h-0.7v-17.89c0-0.08,0.01-0.16,0.04-0.23c0.07-0.21,0.25-0.35,0.45-0.35
								c0.27,0,0.49,0.26,0.49,0.58L277.8,394.13L277.8,394.13z"/>
						</g>
					</g>
				</g>
				<path fill="#28A197" d="M276.19,384.36c0.93,1.09,0.77,2.75,0.77,2.75s-1.66-0.1-2.59-1.19c-0.93-1.09-0.77-2.75-0.77-2.75
					S275.26,383.27,276.19,384.36z"/>
				<path fill="#28A197" d="M278.51,374.56c0.01,1.43-1.18,2.6-1.18,2.6s-1.21-1.15-1.22-2.58c-0.01-1.43,1.17-2.6,1.17-2.6
					S278.5,373.13,278.51,374.56z"/>
				<path fill="#28A197" d="M278.45,384.36c-0.93,1.09-0.77,2.75-0.77,2.75s1.66-0.1,2.59-1.19c0.93-1.09,0.77-2.75,0.77-2.75
					S279.38,383.27,278.45,384.36z"/>
				<path fill="#28A197" d="M276.19,376.86c0.93,1.09,0.77,2.75,0.77,2.75s-1.66-0.1-2.59-1.19c-0.93-1.09-0.77-2.75-0.77-2.75
					S275.26,375.77,276.19,376.86z"/>
				<path fill="#28A197" d="M278.45,376.86c-0.93,1.09-0.77,2.75-0.77,2.75s1.66-0.1,2.59-1.19c0.93-1.09,0.77-2.75,0.77-2.75
					S279.38,375.77,278.45,376.86z"/>
				<path fill="#28A197" d="M276.19,380.61c0.93,1.09,0.77,2.75,0.77,2.75s-1.66-0.1-2.59-1.19c-0.93-1.09-0.77-2.75-0.77-2.75
					S275.26,379.52,276.19,380.61z"/>
				<path fill="#28A197" d="M278.45,380.61c-0.93,1.09-0.77,2.75-0.77,2.75s1.66-0.1,2.59-1.19c0.93-1.09,0.77-2.75,0.77-2.75
					S279.38,379.52,278.45,380.61z"/>
				<path fill="#28A197" d="M276.19,388.11c0.93,1.09,0.77,2.75,0.77,2.75s-1.66-0.1-2.59-1.19c-0.93-1.09-0.77-2.75-0.77-2.75
					S275.26,387.02,276.19,388.11z"/>
				<path fill="#28A197" d="M278.45,388.11c-0.93,1.09-0.77,2.75-0.77,2.75s1.66-0.1,2.59-1.19c0.93-1.09,0.77-2.75,0.77-2.75
					S279.38,387.02,278.45,388.11z"/>
			</g>
		</g>
		<g>
			<g>
				<g>
					<g id="XMLID_83_">
						<g>
							<path fill="#28A197" d="M266.55,394.13h-0.28h-0.7v-17.89c0-0.08,0.01-0.16,0.04-0.23c0.07-0.21,0.25-0.35,0.45-0.35
								c0.27,0,0.49,0.26,0.49,0.58L266.55,394.13L266.55,394.13z"/>
						</g>
					</g>
				</g>
				<path fill="#28A197" d="M264.94,384.36c0.93,1.09,0.77,2.75,0.77,2.75s-1.66-0.1-2.59-1.19c-0.93-1.09-0.77-2.75-0.77-2.75
					S264.01,383.27,264.94,384.36z"/>
				<path fill="#28A197" d="M267.26,374.56c0.01,1.43-1.18,2.6-1.18,2.6s-1.21-1.15-1.22-2.58c-0.01-1.43,1.17-2.6,1.17-2.6
					S267.25,373.13,267.26,374.56z"/>
				<path fill="#28A197" d="M267.2,384.36c-0.93,1.09-0.77,2.75-0.77,2.75s1.66-0.1,2.59-1.19c0.93-1.09,0.77-2.75,0.77-2.75
					S268.13,383.27,267.2,384.36z"/>
				<path fill="#28A197" d="M264.94,376.86c0.93,1.09,0.77,2.75,0.77,2.75s-1.66-0.1-2.59-1.19c-0.93-1.09-0.77-2.75-0.77-2.75
					S264.01,375.77,264.94,376.86z"/>
				<path fill="#28A197" d="M267.2,376.86c-0.93,1.09-0.77,2.75-0.77,2.75s1.66-0.1,2.59-1.19c0.93-1.09,0.77-2.75,0.77-2.75
					S268.13,375.77,267.2,376.86z"/>
				<path fill="#28A197" d="M264.94,380.61c0.93,1.09,0.77,2.75,0.77,2.75s-1.66-0.1-2.59-1.19c-0.93-1.09-0.77-2.75-0.77-2.75
					S264.01,379.52,264.94,380.61z"/>
				<path fill="#28A197" d="M267.2,380.61c-0.93,1.09-0.77,2.75-0.77,2.75s1.66-0.1,2.59-1.19c0.93-1.09,0.77-2.75,0.77-2.75
					S268.13,379.52,267.2,380.61z"/>
				<path fill="#28A197" d="M264.94,388.11c0.93,1.09,0.77,2.75,0.77,2.75s-1.66-0.1-2.59-1.19c-0.93-1.09-0.77-2.75-0.77-2.75
					S264.01,387.02,264.94,388.11z"/>
				<path fill="#28A197" d="M267.2,388.11c-0.93,1.09-0.77,2.75-0.77,2.75s1.66-0.1,2.59-1.19c0.93-1.09,0.77-2.75,0.77-2.75
					S268.13,387.02,267.2,388.11z"/>
			</g>
		</g>
		<g>
			<g>
				<g>
					<g id="XMLID_80_">
						<g>
							<path fill="#28A197" d="M255.3,394.13h-0.28h-0.7v-17.89c0-0.08,0.01-0.16,0.04-0.23c0.07-0.21,0.25-0.35,0.45-0.35
								c0.27,0,0.49,0.26,0.49,0.58L255.3,394.13L255.3,394.13z"/>
						</g>
					</g>
				</g>
				<path fill="#28A197" d="M253.69,384.36c0.93,1.09,0.77,2.75,0.77,2.75s-1.66-0.1-2.59-1.19c-0.93-1.09-0.77-2.75-0.77-2.75
					S252.76,383.27,253.69,384.36z"/>
				<path fill="#28A197" d="M256.01,374.56c0.01,1.43-1.18,2.6-1.18,2.6s-1.21-1.15-1.22-2.58c-0.01-1.43,1.18-2.6,1.18-2.6
					S256,373.13,256.01,374.56z"/>
				<path fill="#28A197" d="M255.95,384.36c-0.93,1.09-0.77,2.75-0.77,2.75s1.66-0.1,2.59-1.19c0.93-1.09,0.77-2.75,0.77-2.75
					S256.88,383.27,255.95,384.36z"/>
				<path fill="#28A197" d="M253.69,376.86c0.93,1.09,0.77,2.75,0.77,2.75s-1.66-0.1-2.59-1.19c-0.93-1.09-0.77-2.75-0.77-2.75
					S252.76,375.77,253.69,376.86z"/>
				<path fill="#28A197" d="M255.95,376.86c-0.93,1.09-0.77,2.75-0.77,2.75s1.66-0.1,2.59-1.19c0.93-1.09,0.77-2.75,0.77-2.75
					S256.88,375.77,255.95,376.86z"/>
				<path fill="#28A197" d="M253.69,380.61c0.93,1.09,0.77,2.75,0.77,2.75s-1.66-0.1-2.59-1.19c-0.93-1.09-0.77-2.75-0.77-2.75
					S252.76,379.52,253.69,380.61z"/>
				<path fill="#28A197" d="M255.95,380.61c-0.93,1.09-0.77,2.75-0.77,2.75s1.66-0.1,2.59-1.19c0.93-1.09,0.77-2.75,0.77-2.75
					S256.88,379.52,255.95,380.61z"/>
				<path fill="#28A197" d="M253.69,388.11c0.93,1.09,0.77,2.75,0.77,2.75s-1.66-0.1-2.59-1.19c-0.93-1.09-0.77-2.75-0.77-2.75
					S252.76,387.02,253.69,388.11z"/>
				<path fill="#28A197" d="M255.95,388.11c-0.93,1.09-0.77,2.75-0.77,2.75s1.66-0.1,2.59-1.19c0.93-1.09,0.77-2.75,0.77-2.75
					S256.88,387.02,255.95,388.11z"/>
			</g>
		</g>
		<g>
			<g>
				<g>
					<g id="XMLID_77_">
						<g>
							<path fill="#28A197" d="M244.05,394.13h-0.28h-0.7v-17.89c0-0.08,0.01-0.16,0.04-0.23c0.07-0.21,0.25-0.35,0.45-0.35
								c0.27,0,0.49,0.26,0.49,0.58L244.05,394.13L244.05,394.13z"/>
						</g>
					</g>
				</g>
				<path fill="#28A197" d="M242.44,384.36c0.93,1.09,0.77,2.75,0.77,2.75s-1.66-0.1-2.59-1.19c-0.93-1.09-0.77-2.75-0.77-2.75
					S241.51,383.27,242.44,384.36z"/>
				<path fill="#28A197" d="M244.76,374.56c0.01,1.43-1.18,2.6-1.18,2.6s-1.21-1.15-1.22-2.58c-0.01-1.43,1.18-2.6,1.18-2.6
					S244.75,373.13,244.76,374.56z"/>
				<path fill="#28A197" d="M244.7,384.36c-0.93,1.09-0.77,2.75-0.77,2.75s1.66-0.1,2.59-1.19c0.93-1.09,0.77-2.75,0.77-2.75
					S245.63,383.27,244.7,384.36z"/>
				<path fill="#28A197" d="M242.44,376.86c0.93,1.09,0.77,2.75,0.77,2.75s-1.66-0.1-2.59-1.19c-0.93-1.09-0.77-2.75-0.77-2.75
					S241.51,375.77,242.44,376.86z"/>
				<path fill="#28A197" d="M244.7,376.86c-0.93,1.09-0.77,2.75-0.77,2.75s1.66-0.1,2.59-1.19c0.93-1.09,0.77-2.75,0.77-2.75
					S245.63,375.77,244.7,376.86z"/>
				<path fill="#28A197" d="M242.44,380.61c0.93,1.09,0.77,2.75,0.77,2.75s-1.66-0.1-2.59-1.19c-0.93-1.09-0.77-2.75-0.77-2.75
					S241.51,379.52,242.44,380.61z"/>
				<path fill="#28A197" d="M244.7,380.61c-0.93,1.09-0.77,2.75-0.77,2.75s1.66-0.1,2.59-1.19c0.93-1.09,0.77-2.75,0.77-2.75
					S245.63,379.52,244.7,380.61z"/>
				<path fill="#28A197" d="M242.44,388.11c0.93,1.09,0.77,2.75,0.77,2.75s-1.66-0.1-2.59-1.19c-0.93-1.09-0.77-2.75-0.77-2.75
					S241.51,387.02,242.44,388.11z"/>
				<path fill="#28A197" d="M244.7,388.11c-0.93,1.09-0.77,2.75-0.77,2.75s1.66-0.1,2.59-1.19c0.93-1.09,0.77-2.75,0.77-2.75
					S245.63,387.02,244.7,388.11z"/>
			</g>
		</g>
		<g>
			<g>
				<g>
					<g id="XMLID_74_">
						<g>
							<path fill="#28A197" d="M232.8,394.13h-0.28h-0.7v-17.89c0-0.08,0.01-0.16,0.04-0.23c0.07-0.21,0.25-0.35,0.45-0.35
								c0.27,0,0.49,0.26,0.49,0.58L232.8,394.13L232.8,394.13z"/>
						</g>
					</g>
				</g>
				<path fill="#28A197" d="M231.19,384.36c0.93,1.09,0.77,2.75,0.77,2.75s-1.66-0.1-2.59-1.19c-0.93-1.09-0.77-2.75-0.77-2.75
					S230.26,383.27,231.19,384.36z"/>
				<path fill="#28A197" d="M233.51,374.56c0.01,1.43-1.18,2.6-1.18,2.6s-1.21-1.15-1.22-2.58c-0.01-1.43,1.18-2.6,1.18-2.6
					S233.5,373.13,233.51,374.56z"/>
				<path fill="#28A197" d="M233.45,384.36c-0.93,1.09-0.77,2.75-0.77,2.75s1.66-0.1,2.59-1.19c0.93-1.09,0.77-2.75,0.77-2.75
					S234.38,383.27,233.45,384.36z"/>
				<path fill="#28A197" d="M231.19,376.86c0.93,1.09,0.77,2.75,0.77,2.75s-1.66-0.1-2.59-1.19c-0.93-1.09-0.77-2.75-0.77-2.75
					S230.26,375.77,231.19,376.86z"/>
				<path fill="#28A197" d="M233.45,376.86c-0.93,1.09-0.77,2.75-0.77,2.75s1.66-0.1,2.59-1.19c0.93-1.09,0.77-2.75,0.77-2.75
					S234.38,375.77,233.45,376.86z"/>
				<path fill="#28A197" d="M231.19,380.61c0.93,1.09,0.77,2.75,0.77,2.75s-1.66-0.1-2.59-1.19c-0.93-1.09-0.77-2.75-0.77-2.75
					S230.26,379.52,231.19,380.61z"/>
				<path fill="#28A197" d="M233.45,380.61c-0.93,1.09-0.77,2.75-0.77,2.75s1.66-0.1,2.59-1.19c0.93-1.09,0.77-2.75,0.77-2.75
					S234.38,379.52,233.45,380.61z"/>
				<path fill="#28A197" d="M231.19,388.11c0.93,1.09,0.77,2.75,0.77,2.75s-1.66-0.1-2.59-1.19c-0.93-1.09-0.77-2.75-0.77-2.75
					S230.26,387.02,231.19,388.11z"/>
				<path fill="#28A197" d="M233.45,388.11c-0.93,1.09-0.77,2.75-0.77,2.75s1.66-0.1,2.59-1.19c0.93-1.09,0.77-2.75,0.77-2.75
					S234.38,387.02,233.45,388.11z"/>
			</g>
		</g>
		<g>
			<g>
				<g>
					<g id="XMLID_71_">
						<g>
							<path fill="#28A197" d="M221.55,394.13h-0.28h-0.7v-17.89c0-0.08,0.01-0.16,0.04-0.23c0.07-0.21,0.25-0.35,0.45-0.35
								c0.27,0,0.49,0.26,0.49,0.58L221.55,394.13L221.55,394.13z"/>
						</g>
					</g>
				</g>
				<path fill="#28A197" d="M219.94,384.36c0.93,1.09,0.77,2.75,0.77,2.75s-1.66-0.1-2.59-1.19c-0.93-1.09-0.77-2.75-0.77-2.75
					S219.01,383.27,219.94,384.36z"/>
				<path fill="#28A197" d="M222.26,374.56c0.01,1.43-1.18,2.6-1.18,2.6s-1.21-1.15-1.22-2.58c-0.01-1.43,1.18-2.6,1.18-2.6
					S222.25,373.13,222.26,374.56z"/>
				<path fill="#28A197" d="M222.2,384.36c-0.93,1.09-0.77,2.75-0.77,2.75s1.66-0.1,2.59-1.19c0.93-1.09,0.77-2.75,0.77-2.75
					S223.13,383.27,222.2,384.36z"/>
				<path fill="#28A197" d="M219.94,376.86c0.93,1.09,0.77,2.75,0.77,2.75s-1.66-0.1-2.59-1.19c-0.93-1.09-0.77-2.75-0.77-2.75
					S219.01,375.77,219.94,376.86z"/>
				<path fill="#28A197" d="M222.2,376.86c-0.93,1.09-0.77,2.75-0.77,2.75s1.66-0.1,2.59-1.19c0.93-1.09,0.77-2.75,0.77-2.75
					S223.13,375.77,222.2,376.86z"/>
				<path fill="#28A197" d="M219.94,380.61c0.93,1.09,0.77,2.75,0.77,2.75s-1.66-0.1-2.59-1.19c-0.93-1.09-0.77-2.75-0.77-2.75
					S219.01,379.52,219.94,380.61z"/>
				<path fill="#28A197" d="M222.2,380.61c-0.93,1.09-0.77,2.75-0.77,2.75s1.66-0.1,2.59-1.19c0.93-1.09,0.77-2.75,0.77-2.75
					S223.13,379.52,222.2,380.61z"/>
				<path fill="#28A197" d="M219.94,388.11c0.93,1.09,0.77,2.75,0.77,2.75s-1.66-0.1-2.59-1.19c-0.93-1.09-0.77-2.75-0.77-2.75
					S219.01,387.02,219.94,388.11z"/>
				<path fill="#28A197" d="M222.2,388.11c-0.93,1.09-0.77,2.75-0.77,2.75s1.66-0.1,2.59-1.19c0.93-1.09,0.77-2.75,0.77-2.75
					S223.13,387.02,222.2,388.11z"/>
			</g>
		</g>
		<g>
			<g>
				<g>
					<g id="XMLID_68_">
						<g>
							<path fill="#28A197" d="M210.3,394.13h-0.28h-0.7v-17.89c0-0.08,0.01-0.16,0.04-0.23c0.07-0.21,0.25-0.35,0.45-0.35
								c0.27,0,0.49,0.26,0.49,0.58L210.3,394.13L210.3,394.13z"/>
						</g>
					</g>
				</g>
				<path fill="#28A197" d="M208.69,384.36c0.93,1.09,0.77,2.75,0.77,2.75s-1.66-0.1-2.59-1.19c-0.93-1.09-0.77-2.75-0.77-2.75
					S207.76,383.27,208.69,384.36z"/>
				<path fill="#28A197" d="M211.01,374.56c0.01,1.43-1.18,2.6-1.18,2.6s-1.21-1.15-1.22-2.58c-0.01-1.43,1.18-2.6,1.18-2.6
					S211,373.13,211.01,374.56z"/>
				<path fill="#28A197" d="M210.95,384.36c-0.93,1.09-0.77,2.75-0.77,2.75s1.66-0.1,2.59-1.19c0.93-1.09,0.77-2.75,0.77-2.75
					S211.88,383.27,210.95,384.36z"/>
				<path fill="#28A197" d="M208.69,376.86c0.93,1.09,0.77,2.75,0.77,2.75s-1.66-0.1-2.59-1.19c-0.93-1.09-0.77-2.75-0.77-2.75
					S207.76,375.77,208.69,376.86z"/>
				<path fill="#28A197" d="M210.95,376.86c-0.93,1.09-0.77,2.75-0.77,2.75s1.66-0.1,2.59-1.19c0.93-1.09,0.77-2.75,0.77-2.75
					S211.88,375.77,210.95,376.86z"/>
				<path fill="#28A197" d="M208.69,380.61c0.93,1.09,0.77,2.75,0.77,2.75s-1.66-0.1-2.59-1.19c-0.93-1.09-0.77-2.75-0.77-2.75
					S207.76,379.52,208.69,380.61z"/>
				<path fill="#28A197" d="M210.95,380.61c-0.93,1.09-0.77,2.75-0.77,2.75s1.66-0.1,2.59-1.19c0.93-1.09,0.77-2.75,0.77-2.75
					S211.88,379.52,210.95,380.61z"/>
				<path fill="#28A197" d="M208.69,388.11c0.93,1.09,0.77,2.75,0.77,2.75s-1.66-0.1-2.59-1.19c-0.93-1.09-0.77-2.75-0.77-2.75
					S207.76,387.02,208.69,388.11z"/>
				<path fill="#28A197" d="M210.95,388.11c-0.93,1.09-0.77,2.75-0.77,2.75s1.66-0.1,2.59-1.19c0.93-1.09,0.77-2.75,0.77-2.75
					S211.88,387.02,210.95,388.11z"/>
			</g>
		</g>
		<g>
			<g>
				<g>
					<g id="XMLID_65_">
						<g>
							<path fill="#28A197" d="M199.05,394.13h-0.28h-0.7v-17.89c0-0.08,0.01-0.16,0.04-0.23c0.07-0.21,0.25-0.35,0.45-0.35
								c0.27,0,0.49,0.26,0.49,0.58L199.05,394.13L199.05,394.13z"/>
						</g>
					</g>
				</g>
				<path fill="#28A197" d="M197.44,384.36c0.93,1.09,0.77,2.75,0.77,2.75s-1.66-0.1-2.59-1.19c-0.93-1.09-0.77-2.75-0.77-2.75
					S196.51,383.27,197.44,384.36z"/>
				<path fill="#28A197" d="M199.76,374.56c0.01,1.43-1.18,2.6-1.18,2.6s-1.21-1.15-1.22-2.58c-0.01-1.43,1.18-2.6,1.18-2.6
					S199.75,373.13,199.76,374.56z"/>
				<path fill="#28A197" d="M199.7,384.36c-0.93,1.09-0.77,2.75-0.77,2.75s1.66-0.1,2.59-1.19c0.93-1.09,0.77-2.75,0.77-2.75
					S200.63,383.27,199.7,384.36z"/>
				<path fill="#28A197" d="M197.44,376.86c0.93,1.09,0.77,2.75,0.77,2.75s-1.66-0.1-2.59-1.19c-0.93-1.09-0.77-2.75-0.77-2.75
					S196.51,375.77,197.44,376.86z"/>
				<path fill="#28A197" d="M199.7,376.86c-0.93,1.09-0.77,2.75-0.77,2.75s1.66-0.1,2.59-1.19c0.93-1.09,0.77-2.75,0.77-2.75
					S200.63,375.77,199.7,376.86z"/>
				<path fill="#28A197" d="M197.44,380.61c0.93,1.09,0.77,2.75,0.77,2.75s-1.66-0.1-2.59-1.19c-0.93-1.09-0.77-2.75-0.77-2.75
					S196.51,379.52,197.44,380.61z"/>
				<path fill="#28A197" d="M199.7,380.61c-0.93,1.09-0.77,2.75-0.77,2.75s1.66-0.1,2.59-1.19c0.93-1.09,0.77-2.75,0.77-2.75
					S200.63,379.52,199.7,380.61z"/>
				<path fill="#28A197" d="M197.44,388.11c0.93,1.09,0.77,2.75,0.77,2.75s-1.66-0.1-2.59-1.19c-0.93-1.09-0.77-2.75-0.77-2.75
					S196.51,387.02,197.44,388.11z"/>
				<path fill="#28A197" d="M199.7,388.11c-0.93,1.09-0.77,2.75-0.77,2.75s1.66-0.1,2.59-1.19c0.93-1.09,0.77-2.75,0.77-2.75
					S200.63,387.02,199.7,388.11z"/>
			</g>
		</g>
		<g>
			<g>
				<g>
					<g id="XMLID_62_">
						<g>
							<path fill="#28A197" d="M187.8,394.13h-0.28h-0.7v-17.89c0-0.08,0.01-0.16,0.04-0.23c0.07-0.21,0.25-0.35,0.45-0.35
								c0.27,0,0.49,0.26,0.49,0.58L187.8,394.13L187.8,394.13z"/>
						</g>
					</g>
				</g>
				<path fill="#28A197" d="M186.19,384.36c0.93,1.09,0.77,2.75,0.77,2.75s-1.66-0.1-2.59-1.19c-0.93-1.09-0.77-2.75-0.77-2.75
					S185.26,383.27,186.19,384.36z"/>
				<path fill="#28A197" d="M188.51,374.56c0.01,1.43-1.18,2.6-1.18,2.6s-1.21-1.15-1.22-2.58c-0.01-1.43,1.18-2.6,1.18-2.6
					S188.5,373.13,188.51,374.56z"/>
				<path fill="#28A197" d="M188.45,384.36c-0.93,1.09-0.77,2.75-0.77,2.75s1.66-0.1,2.59-1.19c0.93-1.09,0.77-2.75,0.77-2.75
					S189.38,383.27,188.45,384.36z"/>
				<path fill="#28A197" d="M186.19,376.86c0.93,1.09,0.77,2.75,0.77,2.75s-1.66-0.1-2.59-1.19c-0.93-1.09-0.77-2.75-0.77-2.75
					S185.26,375.77,186.19,376.86z"/>
				<path fill="#28A197" d="M188.45,376.86c-0.93,1.09-0.77,2.75-0.77,2.75s1.66-0.1,2.59-1.19c0.93-1.09,0.77-2.75,0.77-2.75
					S189.38,375.77,188.45,376.86z"/>
				<path fill="#28A197" d="M186.19,380.61c0.93,1.09,0.77,2.75,0.77,2.75s-1.66-0.1-2.59-1.19c-0.93-1.09-0.77-2.75-0.77-2.75
					S185.26,379.52,186.19,380.61z"/>
				<path fill="#28A197" d="M188.45,380.61c-0.93,1.09-0.77,2.75-0.77,2.75s1.66-0.1,2.59-1.19c0.93-1.09,0.77-2.75,0.77-2.75
					S189.38,379.52,188.45,380.61z"/>
				<path fill="#28A197" d="M186.19,388.11c0.93,1.09,0.77,2.75,0.77,2.75s-1.66-0.1-2.59-1.19c-0.93-1.09-0.77-2.75-0.77-2.75
					S185.26,387.02,186.19,388.11z"/>
				<path fill="#28A197" d="M188.45,388.11c-0.93,1.09-0.77,2.75-0.77,2.75s1.66-0.1,2.59-1.19c0.93-1.09,0.77-2.75,0.77-2.75
					S189.38,387.02,188.45,388.11z"/>
			</g>
		</g>
	</g>
	<path fill="#5A6378" d="M1007.26,370.31c69.02,0.65,494.32-0.05,494.32-0.05v123.41H303.55
		C303.55,493.67,746.05,368.45,1007.26,370.31z"/>
	<g id="_x31_9_2_">
		<path fill="#5A6378" d="M1077.72,349.28c-1.18,0-2.36,0.2-3.51,0.61l-0.24,0.08l-3.86-7.02v-3.05h4.63c0.89,0,1.61-0.72,1.61-1.61
			c0-0.89-0.72-1.61-1.61-1.61h-6.13c-0.89,0-1.61,0.72-1.61,1.61c0,0.13,0.02,0.27,0.05,0.4l0.01,0.04v3.09h-14.07l-1.16-2.58h3.35
			c0.84,0,1.53-0.68,1.53-1.53c0-0.84-0.68-1.53-1.53-1.53h-11.42c-0.84,0-1.53,0.68-1.53,1.53c0,0.84,0.68,1.53,1.53,1.53h4.72
			l1.02,2.31l-4.58,8.42l-0.24-0.08c-1.15-0.4-2.33-0.61-3.51-0.61c-5.88,0-10.66,4.78-10.66,10.66c0,5.88,4.78,10.66,10.66,10.66
			c5.22,0,9.63-3.74,10.5-8.89l0.04-0.25h4.54l0.09,0.08c0.69,0.66,1.6,1.02,2.56,1.02c2.05,0,3.72-1.67,3.72-3.72
			c0-0.35-0.05-0.71-0.15-1.05l-0.03-0.12l6.15-11.18l2.71,4.93l-0.2,0.16c-2.57,2.04-4.04,5.08-4.04,8.34
			c0,5.88,4.78,10.66,10.66,10.66s10.66-4.78,10.66-10.66C1088.38,354.06,1083.6,349.28,1077.72,349.28z M1046.1,354.15l0.28,0.27
			c1.05,0.99,1.79,2.24,2.15,3.62l0.1,0.38h-4.87L1046.1,354.15z M1048.53,361.84c-0.87,3.36-3.9,5.71-7.36,5.71
			c-4.2,0-7.61-3.41-7.61-7.61c0-4.2,3.41-7.61,7.61-7.61c0.61,0,1.25,0.08,1.88,0.25l0.38,0.1l-3.59,6.53
			c-0.01,0.02-0.02,0.05-0.03,0.07c-0.03,0.05-0.04,0.1-0.06,0.14c-0.02,0.06-0.04,0.1-0.05,0.14c-0.01,0.04-0.02,0.09-0.03,0.14
			c-0.01,0.06-0.02,0.11-0.02,0.15l0,0.02c0,0.02,0,0.04-0.01,0.06l0,0.01l0,0.01c0,0.02,0,0.03,0.01,0.05
			c0,0.06,0.01,0.12,0.02,0.17c0.01,0.04,0.01,0.09,0.03,0.13c0.01,0.05,0.03,0.09,0.04,0.14c0.02,0.05,0.04,0.1,0.06,0.14
			c0.02,0.04,0.04,0.08,0.07,0.12l0.01,0.01c0.03,0.05,0.05,0.08,0.07,0.11c0.03,0.04,0.06,0.07,0.1,0.12
			c0.03,0.03,0.06,0.07,0.1,0.1c0.04,0.03,0.08,0.07,0.12,0.1c0.04,0.03,0.08,0.06,0.12,0.08l0.02,0.01
			c0.01,0.01,0.02,0.02,0.04,0.03l0.01,0.01c0.02,0.01,0.05,0.02,0.07,0.03c0.04,0.02,0.09,0.04,0.13,0.05
			c0.06,0.02,0.1,0.04,0.15,0.05c0.04,0.01,0.08,0.02,0.13,0.03c0.06,0.01,0.12,0.02,0.17,0.02c0.02,0,0.04,0,0.07,0.01l7.46,0
			L1048.53,361.84z M1056.04,356.49c-0.4,0.48-0.67,1.07-0.79,1.68l-0.05,0.25h-3.49l-0.04-0.25c-0.44-2.59-1.82-4.92-3.88-6.57
			l-0.2-0.16l3.51-6.37l5.06,11.27L1056.04,356.49z M1060.22,355.37l-0.23-0.07c-0.27-0.08-0.55-0.13-0.84-0.15l-0.18-0.01
			l-4.61-10.27H1066L1060.22,355.37z M1077.72,367.55c-4.2,0-7.61-3.41-7.61-7.61c0-2.11,0.85-4.07,2.4-5.53l0.28-0.27l3.59,6.53
			c0.27,0.49,0.78,0.79,1.34,0.79c0.26,0,0.51-0.06,0.74-0.19c0.36-0.2,0.62-0.52,0.73-0.91c0.11-0.39,0.07-0.81-0.13-1.16
			l-3.59-6.53l0.38-0.1c0.64-0.16,1.27-0.24,1.88-0.24c4.2,0,7.61,3.41,7.61,7.61C1085.33,364.14,1081.91,367.55,1077.72,367.55z"/>
	</g>
	<polygon fill="#F5F5F5" stroke="#5A6378" stroke-width="16" stroke-miterlimit="10" points="814.14,247.44 980.39,247.44 
		980.39,389.97 814.14,389.97 	"/>
	<path fill="#5A6378" d="M803.69,240.4l89.45-91.9c2.05-2.11,5.43-2.11,7.48,0l89.47,91.9c3.22,3.31,0.88,8.87-3.74,8.87H807.44
		C802.82,249.26,800.47,243.71,803.69,240.4z"/>
	<rect x="814.14" y="370.6" fill="#5A6378" width="163.35" height="26.78"/>
	<path fill="#5A6378" d="M988.73,341.18h-3.86v2.58v14.17v2.58h3.86v-2.58c0,0,0.86,0,5.15,0s3.86,4.19,3.86,4.19v4.83h-2.58v3.86
		h20.61v-3.86h-2.58v-11.6c0,0,0-11.6-12.35-11.6c-4.62,0-12.13,0-12.13,0L988.73,341.18L988.73,341.18z"/>
	<path fill="#5A6378" d="M858.21,310.62h-26.71c-1.2,0-2.17-0.97-2.17-2.17v-44.16c0-1.2,0.97-2.17,2.17-2.17h26.71
		c1.2,0,2.17,0.97,2.17,2.17v44.16C860.38,309.65,859.41,310.62,858.21,310.62z"/>
	<circle fill="#F5F5F5" cx="845.53" cy="298.99" r="3.65"/>
	<g id="Layer_1_1_">
		<g>
			<path fill="#D53980" d="M955.07,292.58v-13.34c0-0.66-0.54-1.2-1.2-1.2c-0.66,0-1.2,0.54-1.2,1.2v13.34
				c-2.06,0.54-3.59,2.4-3.59,4.62c0,2.64,2.15,4.79,4.79,4.79s4.79-2.15,4.79-4.79C958.66,294.97,957.13,293.11,955.07,292.58z"/>
			<path fill="#5A6378" d="M962.25,288.72v-19.06c0-4.62-3.76-8.38-8.38-8.38s-8.38,3.76-8.38,8.38v19.06
				c-2.21,2.16-3.59,5.15-3.59,8.48c0,6.6,5.37,11.98,11.98,11.98c6.6,0,11.98-5.37,11.98-11.98
				C965.85,293.87,964.46,290.88,962.25,288.72z M953.87,304.38c-3.96,0-7.19-3.22-7.19-7.19c0-2.65,1.45-4.94,3.59-6.19v-21.36
				c0-1.98,1.61-3.59,3.59-3.59c1.98,0,3.59,1.61,3.59,3.59v21.36c2.14,1.25,3.59,3.54,3.59,6.19
				C961.06,301.16,957.83,304.38,953.87,304.38z"/>
		</g>
	</g>
	<g>
		<path fill="#D53980" d="M844.52,300.34c0.09,0.12,0.2,0.24,0.33,0.36c0.13,0.11,0.27,0.21,0.4,0.29c0.14,0.08,0.29,0.16,0.47,0.24
			l0,0l0.01,0c-0.13-0.25-0.2-0.47-0.2-0.65c0-0.1,0.02-0.19,0.07-0.28c0.05-0.09,0.11-0.17,0.19-0.24
			c0.08-0.07,0.16-0.14,0.26-0.21c0.09-0.07,0.19-0.14,0.28-0.23c0.09-0.08,0.18-0.17,0.26-0.26c0.08-0.09,0.14-0.2,0.19-0.33
			c0.05-0.13,0.07-0.27,0.07-0.42c0-0.19-0.03-0.37-0.08-0.54c-0.05-0.17-0.12-0.31-0.21-0.44c-0.09-0.12-0.2-0.24-0.33-0.36
			c-0.13-0.11-0.27-0.21-0.4-0.29c-0.14-0.08-0.29-0.16-0.47-0.24l0,0l-0.01,0c0.13,0.25,0.19,0.47,0.19,0.65
			c0,0.1-0.02,0.19-0.07,0.28c-0.05,0.09-0.11,0.17-0.19,0.24c-0.08,0.07-0.16,0.14-0.25,0.21c-0.09,0.07-0.19,0.14-0.28,0.23
			c-0.09,0.08-0.18,0.17-0.25,0.26c-0.08,0.09-0.14,0.2-0.19,0.33c-0.05,0.13-0.07,0.27-0.07,0.42c0,0.19,0.03,0.37,0.08,0.54
			C844.36,300.07,844.43,300.21,844.52,300.34z"/>
	</g>
	<circle fill="#5A6378" cx="873.2" cy="372.63" r="35.68"/>
	<path fill="#5A6378" d="M774.52,393.26h43v-49.62h-34.36c-4.77,0-8.64,3.87-8.64,8.64V393.26z"/>
	<g>
		<path fill="#F5F5F5" d="M805.64,361.38c-0.55-2.14-2.73-3.44-4.87-2.89c-1.62,0.41-4.59,2.23-5.7,4.02
			c-0.05-0.02-0.09-0.03-0.14-0.04c0-2.1-1.55-5.2-2.7-6.4c-1.53-1.6-4.07-1.66-5.66-0.13c-1.6,1.53-1.65,4.07-0.13,5.66
			c1.08,1.13,3.79,2.67,5.86,2.95c0.01,0.21,0.04,0.41,0.11,0.6c-1.65,1.28-3.2,4.02-3.56,5.55c-0.5,2.16,0.85,4.31,3.01,4.8
			c2.16,0.5,4.31-0.85,4.8-3.01c0.35-1.53,0.15-4.68-0.78-6.55c0.1-0.1,0.18-0.21,0.26-0.32c1.89,0.89,5.07,1.03,6.6,0.64
			C804.89,365.7,806.19,363.52,805.64,361.38z M794.44,366.45c-1.07,0-1.95-0.87-1.95-1.95c0-1.07,0.87-1.95,1.95-1.95
			c1.07,0,1.95,0.87,1.95,1.95C796.39,365.57,795.51,366.45,794.44,366.45z"/>
		<path fill="#F5F5F5" d="M794.44,363.71c-0.43,0-0.79,0.35-0.79,0.79c0,0.43,0.35,0.79,0.79,0.79c0.43,0,0.79-0.35,0.79-0.79
			C795.23,364.06,794.87,363.71,794.44,363.71z"/>
	</g>
	<g>
		<g>
			<path fill="#F5F5F5" d="M1063.77,403.22h-7.1c-0.9,0-1.62-0.73-1.62-1.62v-17.98c0-0.9,0.73-1.62,1.62-1.62h7.1
				c0.9,0,1.62,0.73,1.62,1.62v17.98C1065.4,402.49,1064.67,403.22,1063.77,403.22z"/>
		</g>
		<g>
			<path fill="#F5F5F5" d="M1051.27,403.22h-7.1c-0.9,0-1.62-0.73-1.62-1.62v-17.98c0-0.9,0.73-1.62,1.62-1.62h7.1
				c0.9,0,1.62,0.73,1.62,1.62v17.98C1052.9,402.49,1052.17,403.22,1051.27,403.22z"/>
		</g>
		<g>
			<path fill="#F5F5F5" d="M1038.77,403.22h-7.1c-0.9,0-1.62-0.73-1.62-1.62v-17.98c0-0.9,0.73-1.62,1.62-1.62h7.1
				c0.9,0,1.62,0.73,1.62,1.62v17.98C1040.4,402.49,1039.67,403.22,1038.77,403.22z"/>
		</g>
		<g>
			<path fill="#F5F5F5" d="M1026.27,403.22h-7.1c-0.9,0-1.62-0.73-1.62-1.62v-17.98c0-0.9,0.73-1.62,1.62-1.62h7.1
				c0.9,0,1.62,0.73,1.62,1.62v17.98C1027.9,402.49,1027.17,403.22,1026.27,403.22z"/>
		</g>
		<g>
			<path fill="#F5F5F5" d="M1013.77,403.22h-7.1c-0.9,0-1.62-0.73-1.62-1.62v-17.98c0-0.9,0.73-1.62,1.62-1.62h7.1
				c0.9,0,1.62,0.73,1.62,1.62v17.98C1015.4,402.49,1014.67,403.22,1013.77,403.22z"/>
		</g>
		<g>
			<path fill="#F5F5F5" d="M1001.27,403.22h-7.1c-0.9,0-1.62-0.73-1.62-1.62v-17.98c0-0.9,0.73-1.62,1.62-1.62h7.1
				c0.9,0,1.62,0.73,1.62,1.62v17.98C1002.9,402.49,1002.17,403.22,1001.27,403.22z"/>
		</g>
		<g>
			<path fill="#F5F5F5" d="M988.77,403.22h-7.1c-0.9,0-1.62-0.73-1.62-1.62v-17.98c0-0.9,0.73-1.62,1.62-1.62h7.1
				c0.9,0,1.62,0.73,1.62,1.62v17.98C990.4,402.49,989.67,403.22,988.77,403.22z"/>
		</g>
		<g>
			<path fill="#F5F5F5" d="M976.27,403.22h-7.1c-0.9,0-1.62-0.73-1.62-1.62v-17.98c0-0.9,0.73-1.62,1.62-1.62h7.1
				c0.9,0,1.62,0.73,1.62,1.62v17.98C977.9,402.49,977.17,403.22,976.27,403.22z"/>
		</g>
		<g>
			<path fill="#F5F5F5" d="M963.77,403.22h-7.1c-0.9,0-1.62-0.73-1.62-1.62v-17.98c0-0.9,0.73-1.62,1.62-1.62h7.1
				c0.9,0,1.62,0.73,1.62,1.62v17.98C965.4,402.49,964.67,403.22,963.77,403.22z"/>
		</g>
		<g>
			<path fill="#F5F5F5" d="M951.27,403.22h-7.1c-0.9,0-1.62-0.73-1.62-1.62v-17.98c0-0.9,0.73-1.62,1.62-1.62h7.1
				c0.9,0,1.62,0.73,1.62,1.62v17.98C952.9,402.49,952.17,403.22,951.27,403.22z"/>
		</g>
	</g>
	<g>
		<path fill="#D53980" d="M870.12,377.14c0.51,0.25,1.06,0.37,1.6,0.37c1.35,0,2.64-0.75,3.28-2.04c0.12-0.25,0.22-0.52,0.28-0.78
			l3.69-16l1.4-6.09l0.87-3.77c0.1-0.44-0.25-0.74-0.6-0.74c-0.21,0-0.41,0.1-0.53,0.34l-1.77,3.62l-2.61,5.34l-7.28,14.89
			C867.56,374.08,868.31,376.26,870.12,377.14z"/>
		<g id="XMLID_9_">
			<g>
				<path fill="#5A6378" d="M871.85,371.99c0.99,0,1.79,0.8,1.79,1.79c0,0.98-0.8,1.78-1.79,1.78c-0.98,0-1.78-0.8-1.78-1.78
					C870.07,372.79,870.87,371.99,871.85,371.99z"/>
			</g>
		</g>
	</g>
	<g>
		<path fill="#5A6378" d="M950.31,339.8h-6.01c-0.66,0-1.2,0.54-1.2,1.2h-2.41c0-0.66-0.54-1.2-1.2-1.2h-6.01
			c-0.66,0-1.2,0.54-1.2,1.2h-3.61v26.45v3.61v3.61h3.61v-3.61h19.24v3.61h3.61v-3.61v-3.61v-26.45h-3.61
			C951.52,340.34,950.98,339.8,950.31,339.8z M947.16,345.29c0,0.79-0.64,1.43-1.43,1.43c-0.79,0-1.43-0.64-1.43-1.43
			s0.64-1.43,1.43-1.43C946.52,343.86,947.16,344.5,947.16,345.29z M950.31,349.42c0.33,0,0.6,0.27,0.6,0.6s-0.27,0.6-0.6,0.6
			h-16.83c-0.33,0-0.6-0.27-0.6-0.6s0.27-0.6,0.6-0.6H950.31z M941.14,345.29c0,0.79-0.64,1.43-1.43,1.43
			c-0.79,0-1.43-0.64-1.43-1.43s0.64-1.43,1.43-1.43S941.14,344.5,941.14,345.29z M933.71,343.86c0.79,0,1.43,0.64,1.43,1.43
			c0,0.79-0.64,1.43-1.43,1.43c-0.79,0-1.43-0.64-1.43-1.43C932.28,344.5,932.92,343.86,933.71,343.86z M952.72,368.66h-1.2h-19.24
			h-1.2v-1.2v-14.43h21.64v14.43L952.72,368.66L952.72,368.66z M951.74,343.86c0.79,0,1.43,0.64,1.43,1.43
			c0,0.79-0.64,1.43-1.43,1.43c-0.79,0-1.43-0.64-1.43-1.43C950.31,344.5,950.95,343.86,951.74,343.86z"/>
	</g>
	<path fill="#D53980" d="M944.28,360.04c-0.03-0.05-0.09-0.08-0.15-0.06l-1.74,0.39l0.53-3.72c0.01-0.07-0.03-0.13-0.09-0.15
		c-0.06-0.03-0.13-0.01-0.17,0.05l-3.74,5.1c-0.04,0.05-0.04,0.11-0.01,0.16c0.03,0.05,0.09,0.08,0.15,0.07l1.89-0.35l-0.55,3.52
		c-0.01,0.07,0.03,0.13,0.09,0.16c0.02,0.01,0.04,0.01,0.06,0.01c0.05,0,0.09-0.02,0.12-0.06l3.62-4.94
		C944.31,360.16,944.31,360.09,944.28,360.04z"/>
	<g>
		<path fill="#D53980" d="M934.57,336.34c0.18,0.26,0.4,0.5,0.68,0.73s0.55,0.43,0.83,0.6c0.28,0.17,0.6,0.33,0.95,0.5l-0.01-0.01
			l0.02,0.01c-0.27-0.51-0.4-0.95-0.4-1.34c0-0.2,0.05-0.39,0.15-0.58c0.1-0.18,0.22-0.34,0.38-0.49c0.16-0.14,0.33-0.29,0.52-0.43
			c0.19-0.14,0.38-0.3,0.57-0.46c0.19-0.17,0.36-0.34,0.52-0.52c0.16-0.19,0.28-0.41,0.38-0.67c0.1-0.26,0.15-0.55,0.15-0.86
			c0-0.39-0.05-0.76-0.16-1.1c-0.11-0.34-0.25-0.64-0.43-0.9c-0.18-0.26-0.4-0.5-0.68-0.73c-0.27-0.23-0.55-0.43-0.83-0.6
			c-0.28-0.17-0.6-0.33-0.95-0.5l0.01,0.01l-0.02-0.01c0.26,0.52,0.39,0.96,0.39,1.34c0,0.2-0.05,0.4-0.15,0.58
			c-0.1,0.18-0.23,0.34-0.38,0.49s-0.33,0.29-0.52,0.43c-0.19,0.14-0.38,0.3-0.57,0.46s-0.36,0.34-0.52,0.52
			c-0.16,0.18-0.28,0.41-0.38,0.67c-0.1,0.26-0.15,0.55-0.15,0.86c0,0.39,0.05,0.76,0.16,1.1
			C934.24,335.79,934.39,336.09,934.57,336.34z"/>
	</g>
	<g>
		<path fill="#D53980" d="M945.47,336.34c0.18,0.26,0.4,0.5,0.68,0.73s0.55,0.43,0.83,0.6c0.28,0.17,0.6,0.33,0.95,0.5l-0.01-0.01
			l0.02,0.01c-0.27-0.51-0.4-0.95-0.4-1.34c0-0.2,0.05-0.39,0.15-0.58c0.1-0.18,0.22-0.34,0.38-0.49s0.33-0.29,0.52-0.43
			c0.19-0.14,0.38-0.3,0.57-0.46c0.19-0.17,0.36-0.34,0.52-0.52c0.16-0.19,0.28-0.41,0.38-0.67c0.1-0.26,0.15-0.55,0.15-0.86
			c0-0.39-0.05-0.76-0.16-1.1c-0.11-0.34-0.25-0.64-0.43-0.9c-0.18-0.26-0.4-0.5-0.68-0.73c-0.27-0.23-0.55-0.43-0.83-0.6
			c-0.28-0.17-0.6-0.33-0.95-0.5l0.01,0.01l-0.02-0.01c0.26,0.52,0.39,0.96,0.39,1.34c0,0.2-0.05,0.4-0.15,0.58
			c-0.1,0.18-0.22,0.34-0.38,0.49c-0.16,0.14-0.33,0.29-0.52,0.43c-0.19,0.14-0.38,0.3-0.57,0.46c-0.19,0.17-0.36,0.34-0.52,0.52
			c-0.16,0.18-0.28,0.41-0.38,0.67c-0.1,0.26-0.15,0.55-0.15,0.86c0,0.39,0.05,0.76,0.16,1.1
			C945.15,335.79,945.29,336.09,945.47,336.34z"/>
	</g>
	<g>
		<rect x="899.08" y="208.96" fill="#5A6378" width="8.3" height="8.3"/>
		<rect x="899.08" y="232.6" fill="#5A6378" width="8.3" height="8.3"/>
		<rect x="887.25" y="208.96" fill="#5A6378" width="8.3" height="8.3"/>
		<rect x="899.08" y="220.78" fill="#5A6378" width="8.3" height="8.3"/>
		<rect x="887.25" y="220.78" fill="#5A6378" width="8.3" height="8.3"/>
		<rect x="887.25" y="232.6" fill="#5A6378" width="8.3" height="8.3"/>
		<path fill="#F5F5F5" d="M896.43,243.54h1.76h11.82v-11.82v-1.76V219.9v-1.76v-11.82H898.2h-1.76h-11.82v11.82v1.76v10.06v1.76
			v11.82L896.43,243.54L896.43,243.54z M899.08,232.6h8.3v8.3h-8.3V232.6z M899.08,220.78h8.3v8.3h-8.3V220.78z M899.08,208.96h8.3
			v8.3h-8.3V208.96z M887.25,232.6h8.3v8.3h-8.3V232.6z M887.25,220.78h8.3v8.3h-8.3V220.78z M887.25,208.96h8.3v8.3h-8.3V208.96z"
			/>
	</g>
	<g>
		<rect x="927.32" y="208.96" fill="#5A6378" width="8.3" height="8.3"/>
		<rect x="927.32" y="232.6" fill="#5A6378" width="8.3" height="8.3"/>
		<rect x="915.5" y="208.96" fill="#5A6378" width="8.3" height="8.3"/>
		<rect x="927.32" y="220.78" fill="#5A6378" width="8.3" height="8.3"/>
		<rect x="915.5" y="220.78" fill="#5A6378" width="8.3" height="8.3"/>
		<rect x="915.5" y="232.6" fill="#5A6378" width="8.3" height="8.3"/>
		<path fill="#F5F5F5" d="M924.68,243.54h1.76h11.82v-11.82v-1.76V219.9v-1.76v-11.82h-11.82h-1.76h-11.82v11.82v1.76v10.06v1.76
			v11.82L924.68,243.54L924.68,243.54z M927.32,232.6h8.3v8.3h-8.3V232.6z M927.32,220.78h8.3v8.3h-8.3V220.78z M927.32,208.96h8.3
			v8.3h-8.3V208.96z M915.5,232.6h8.3v8.3h-8.3V232.6z M915.5,220.78h8.3v8.3h-8.3V220.78z M915.5,208.96h8.3v8.3h-8.3V208.96z"/>
	</g>
	<g>
		<rect x="870.59" y="208.96" fill="#5A6378" width="8.3" height="8.3"/>
		<rect x="870.59" y="232.6" fill="#5A6378" width="8.3" height="8.3"/>
		<rect x="858.77" y="208.96" fill="#5A6378" width="8.3" height="8.3"/>
		<rect x="870.59" y="220.78" fill="#5A6378" width="8.3" height="8.3"/>
		<rect x="858.77" y="220.78" fill="#5A6378" width="8.3" height="8.3"/>
		<rect x="858.77" y="232.6" fill="#5A6378" width="8.3" height="8.3"/>
		<path fill="#F5F5F5" d="M867.95,243.54h1.76h11.82v-11.82v-1.76V219.9v-1.76v-11.82h-11.82h-1.76h-11.82v11.82v1.76v10.06v1.76
			v11.82L867.95,243.54L867.95,243.54z M870.59,232.6h8.3v8.3h-8.3V232.6z M870.59,220.78h8.3v8.3h-8.3V220.78z M870.59,208.96h8.3
			v8.3h-8.3V208.96z M858.77,232.6h8.3v8.3h-8.3V232.6z M858.77,220.78h8.3v8.3h-8.3V220.78z M858.77,208.96h8.3v8.3h-8.3V208.96z"
			/>
	</g>
	<g>
		<path fill="#5A6378" d="M735.94,358.2c-10.32-6.83-17.96-11.97-22.94-15.15c-3.52-2.25-5.58-2.19-6.63-2.01
			c-0.99,0.17-26.39,4.6-29.35,5.12c-2.96,0.52-4.49,1.35-5.56,4.13c-1.07,2.78-7.64,14.08-8.92,17.71
			c-11.85,4.7-13.24,7.36-12.61,11.02c0.36,2.07,2.75,15.76,2.75,15.76c0.35,1.98,6.21,6.31,8.1,5.98l3.08-0.54
			c2.81,4.99,8.53,7.92,14.5,6.88c5.96-1.04,10.36-5.74,11.31-11.38l42.69-7.44c2.81,4.99,8.53,7.92,14.5,6.88
			c6.24-1.09,10.77-6.18,11.43-12.18c1.95-1.9,4.26-5.8,3.99-7.31c0,0-1.88-10.8-2.24-12.87
			C759.44,359.29,751.88,358.55,735.94,358.2z"/>
		<g id="XMLID_3_">
			<g>
				<path fill="#F5F5F5" d="M751.33,380.26c0.66,3.78-1.88,7.39-5.66,8.05c-3.77,0.66-7.39-1.88-8.05-5.66
					c-0.65-3.77,1.88-7.39,5.66-8.05C747.06,373.95,750.67,376.49,751.33,380.26z"/>
				<path fill="#F5F5F5" d="M682.82,392.2c0.66,3.77-1.88,7.39-5.65,8.05c-3.78,0.66-7.39-1.88-8.05-5.66
					c-0.66-3.77,1.88-7.39,5.66-8.05C678.56,385.89,682.17,388.43,682.82,392.2z"/>
			</g>
		</g>
		<g id="XMLID_2_">
			<g>
				<path fill="#F5F5F5" d="M725.12,358.36c2.87,1.93,1.83,2.63,0.01,2.94c0,0-15.26,2.66-29.33,5.11l-2.71-15.57
					c6.68-1.16,13.42-2.34,13.42-2.34c1.76-0.31,3.78,0.16,5.23,1.06C713.77,350.81,721.92,356.19,725.12,358.36z"/>
			</g>
		</g>
		<g id="XMLID_1_">
			<g>
				<path fill="#F5F5F5" d="M691.13,351.18l2.71,15.57c-10.52,1.84-19.93,3.48-21.12,3.68c-2.09,0.37-3.28-0.65-1.74-3.81
					c1.34-2.76,4.57-8.88,5.32-10.42c0.97-1.99,1.69-2.73,3.94-3.12C681.19,352.92,685.93,352.09,691.13,351.18z"/>
			</g>
		</g>
	</g>
</g>
</svg>
