<?xml version="1.0" encoding="utf-8"?>
<!-- Generator: Adobe Illustrator 18.1.0, SVG Export Plug-In . SVG Version: 6.00 Build 0)  -->
<svg version="1.1" id="Layer_2_1_" xmlns="http://www.w3.org/2000/svg" xmlns:xlink="http://www.w3.org/1999/xlink" x="0px" y="0px"
	 viewBox="-0.66 175.28 840 300" enable-background="new -0.66 175.28 840 300" xml:space="preserve">
<g id="Layer_2_2_">
	
		<radialGradient id="SVGID_1_" cx="133.3885" cy="12.7295" r="618.95" gradientTransform="matrix(0.4209 0 0 -0.4209 0 470.3453)" gradientUnits="userSpaceOnUse">
		<stop  offset="0" style="stop-color:#000000"/>
		<stop  offset="0.1413" style="stop-color:#000000;stop-opacity:0.8587"/>
		<stop  offset="1" style="stop-color:#000000;stop-opacity:0"/>
	</radialGradient>
	<circle fill="url(#SVGID_1_)" cx="56.15" cy="464.99" r="260.54"/>
</g>
<g id="Layer_1_1_">
	<path fill="#28A197" d="M57.73,379.45H36.89v-73.42c0-0.7,0.56-1.26,1.26-1.26h18.32c0.7,0,1.26,0.56,1.26,1.26V379.45z"/>
	<path fill="#5A6378" d="M42.15,379.87H21.31v-57.79c0-0.7,0.56-1.26,1.26-1.26h18.32c0.7,0,1.26,0.56,1.26,1.26V379.87z"/>
	<path fill="#5A6378" d="M218.42,359.94c-2.7,0-5.25,0.48-7.58,1.35c-1.31,0.48-2.54,1.1-3.67,1.84c-1.37,0.89-2.61,1.95-3.67,3.19
		c-1.09,1.27-2.02,2.71-2.71,4.33c-0.27-0.68-0.62-1.32-0.97-1.96c-3.3-6.1-9.69-10.27-17.11-10.27c-1.73,0-3.36,0.3-4.95,0.73
		c-1.28,0.35-2.51,0.81-3.67,1.41c-1.22,0.62-2.4,1.32-3.46,2.17c-0.07-0.09-0.15-0.18-0.21-0.27c-1.05-1.43-2.29-2.7-3.67-3.8
		c-3.32-2.63-7.48-4.23-12.04-4.23c-3.67,0-7.08,1.14-10.01,3.04c-5.68,3.68-9.5,10.28-9.5,17.39c0,1.2,0.15,0.75,0.35,4.42h9.15
		h56.57h5.92h2.24h28.15C237.13,368.24,228.76,359.94,218.42,359.94z"/>
	<path fill="#5A6378" d="M76.89,379.87H56.04v-82.11c0-0.7,0.56-1.26,1.26-1.26h18.32c0.7,0,1.26,0.56,1.26,1.26V379.87z"/>
	<g id="XMLID_30_">
		<g>
			<rect x="35.2" y="347.71" fill="#F5F5F5" width="3.47" height="3.47"/>
			<rect x="35.2" y="342.5" fill="#F5F5F5" width="3.47" height="3.47"/>
			<rect x="35.2" y="337.29" fill="#F5F5F5" width="3.47" height="3.48"/>
			<polygon fill="#F5F5F5" points="38.68,333.82 38.68,335.56 35.2,335.56 35.2,332.08 38.68,332.08 			"/>
			<polygon fill="#F5F5F5" points="38.68,328.61 38.68,330.34 35.2,330.34 35.2,326.87 38.68,326.87 			"/>
			<rect x="29.99" y="347.71" fill="#F5F5F5" width="3.47" height="3.47"/>
			<rect x="29.99" y="342.5" fill="#F5F5F5" width="3.47" height="3.47"/>
			<rect x="29.99" y="337.29" fill="#F5F5F5" width="3.47" height="3.48"/>
			<rect x="29.99" y="332.08" fill="#F5F5F5" width="3.47" height="3.47"/>
			<rect x="29.99" y="326.87" fill="#F5F5F5" width="3.47" height="3.47"/>
			<rect x="24.78" y="347.71" fill="#F5F5F5" width="3.47" height="3.47"/>
			<rect x="24.78" y="342.5" fill="#F5F5F5" width="3.47" height="3.47"/>
			<rect x="24.78" y="337.29" fill="#F5F5F5" width="3.47" height="3.48"/>
			<rect x="24.78" y="332.08" fill="#F5F5F5" width="3.47" height="3.47"/>
			<rect x="24.78" y="326.87" fill="#F5F5F5" width="3.47" height="3.47"/>
		</g>
	</g>
	<g>
		<rect x="59.52" y="309.98" fill="#F5F5F5" width="13.9" height="3.47"/>
		<rect x="59.52" y="315.19" fill="#F5F5F5" width="13.9" height="3.47"/>
		<rect x="59.52" y="320.4" fill="#F5F5F5" width="13.9" height="3.47"/>
		<rect x="59.52" y="325.61" fill="#F5F5F5" width="13.9" height="3.47"/>
		<rect x="59.52" y="330.82" fill="#F5F5F5" width="13.9" height="3.47"/>
		<rect x="59.52" y="336.03" fill="#F5F5F5" width="13.9" height="3.47"/>
		<rect x="59.52" y="341.24" fill="#F5F5F5" width="13.9" height="3.47"/>
		<rect x="59.52" y="346.45" fill="#F5F5F5" width="13.9" height="3.47"/>
		<rect x="59.52" y="304.77" fill="#F5F5F5" width="13.9" height="3.47"/>
	</g>
	<rect x="28.25" y="355.13" fill="#28A197" width="36.47" height="24.32"/>
	<rect x="31.73" y="362.08" fill="#F5F5F5" width="29.53" height="17.37"/>
	<rect x="31.73" y="360.24" fill="#5A6378" width="29.53" height="19.63"/>
	<path fill="#28A197" d="M126.68,380.09v-85.18c0-0.69-0.56-1.26-1.26-1.26H103c-0.69,0-1.26,0.56-1.26,1.26v85.18L126.68,380.09
		L126.68,380.09z"/>
	<path fill="#5A6378" d="M103.71,329.79H76.48v49.88h28.5v-48.61C104.98,330.35,104.41,329.79,103.71,329.79z"/>
	<g>
		<rect x="95.46" y="349.61" fill="#F5F5F5" width="4.53" height="4.53"/>
		<rect x="95.46" y="342.81" fill="#F5F5F5" width="4.53" height="4.53"/>
		<rect x="95.46" y="336.01" fill="#F5F5F5" width="4.53" height="4.53"/>
		<rect x="88.66" y="349.61" fill="#F5F5F5" width="4.53" height="4.53"/>
		<rect x="88.66" y="342.81" fill="#F5F5F5" width="4.53" height="4.53"/>
		<rect x="88.66" y="336.01" fill="#F5F5F5" width="4.53" height="4.53"/>
		<rect x="81.85" y="349.61" fill="#F5F5F5" width="4.54" height="4.53"/>
		<rect x="81.85" y="342.81" fill="#F5F5F5" width="4.54" height="4.53"/>
		<rect x="81.85" y="336.01" fill="#F5F5F5" width="4.54" height="4.53"/>
	</g>
	<path fill="#5A6378" d="M556.32,371.26h32.62h2.6h6.86h65.57h10.6c0.24-4.26,0.41-3.74,0.41-5.13c0-8.24-4.42-15.89-11.01-20.16
		c-3.4-2.2-7.36-3.52-11.61-3.52c-5.29,0-10.12,1.86-13.96,4.91c-1.61,1.28-3.05,2.75-4.26,4.41c-0.08,0.11-0.17,0.21-0.25,0.31
		c-1.23-0.98-2.6-1.79-4.01-2.51c-1.35-0.69-2.77-1.22-4.26-1.63c-1.83-0.5-3.73-0.85-5.73-0.85c-8.6,0-16.01,4.83-19.83,11.9
		c-0.4,0.74-0.8,1.49-1.12,2.27c-0.8-1.87-1.88-3.54-3.14-5.01c-1.23-1.44-2.67-2.66-4.26-3.7c-1.32-0.85-2.74-1.57-4.26-2.13
		c-2.7-1-5.66-1.56-8.79-1.56C566.51,348.86,556.82,358.48,556.32,371.26z"/>
	<rect x="0" y="332.08" fill="#5A6378" width="23.1" height="61.75"/>
	<path fill="#5A6378" d="M125.85,379.67h20.13c0.7,0,1.27-0.57,1.27-1.27v-60.94c0-0.7-0.57-1.27-1.27-1.27h-20.13
		c-0.7,0-1.27,0.57-1.27,1.27v60.94C124.57,379.1,125.14,379.67,125.85,379.67z"/>
	<g id="XMLID_29_">
		<g>
			<rect x="117.61" y="344.43" fill="#F5F5F5" width="2.27" height="3.89"/>
			<rect x="117.61" y="338.59" fill="#F5F5F5" width="2.27" height="3.89"/>
			<rect x="117.61" y="332.76" fill="#F5F5F5" width="2.27" height="3.89"/>
			<rect x="117.61" y="326.93" fill="#F5F5F5" width="2.27" height="3.89"/>
			<rect x="117.61" y="321.1" fill="#F5F5F5" width="2.27" height="3.89"/>
			<rect x="117.61" y="315.27" fill="#F5F5F5" width="2.27" height="3.89"/>
			<rect x="117.61" y="309.44" fill="#F5F5F5" width="2.27" height="3.89"/>
			<rect x="117.61" y="301.66" fill="#F5F5F5" width="2.27" height="5.83"/>
			<rect x="113.08" y="344.43" fill="#F5F5F5" width="2.27" height="3.89"/>
			<rect x="113.08" y="338.59" fill="#F5F5F5" width="2.27" height="3.89"/>
			<rect x="113.08" y="332.76" fill="#F5F5F5" width="2.27" height="3.89"/>
			<rect x="113.08" y="326.93" fill="#F5F5F5" width="2.27" height="3.89"/>
			<rect x="113.08" y="321.1" fill="#F5F5F5" width="2.27" height="3.89"/>
			<rect x="113.08" y="315.27" fill="#F5F5F5" width="2.27" height="3.89"/>
			<rect x="113.08" y="309.44" fill="#F5F5F5" width="2.27" height="3.89"/>
			<rect x="113.08" y="301.66" fill="#F5F5F5" width="2.27" height="5.83"/>
			<rect x="108.54" y="344.43" fill="#F5F5F5" width="2.26" height="3.89"/>
			<rect x="108.54" y="338.59" fill="#F5F5F5" width="2.26" height="3.89"/>
			<rect x="108.54" y="332.76" fill="#F5F5F5" width="2.26" height="3.89"/>
			<rect x="108.54" y="326.93" fill="#F5F5F5" width="2.26" height="3.89"/>
			<rect x="108.54" y="321.1" fill="#F5F5F5" width="2.26" height="3.89"/>
			<rect x="108.54" y="315.27" fill="#F5F5F5" width="2.26" height="3.89"/>
			<rect x="108.54" y="309.44" fill="#F5F5F5" width="2.26" height="3.89"/>
			<rect x="108.54" y="301.66" fill="#F5F5F5" width="2.26" height="5.83"/>
		</g>
	</g>
	<g id="XMLID_28_">
		<g>
			<rect x="140.45" y="348.38" fill="#F5F5F5" width="2.26" height="2.26"/>
			<rect x="140.45" y="341.58" fill="#F5F5F5" width="2.26" height="4.53"/>
			<rect x="140.45" y="334.78" fill="#F5F5F5" width="2.26" height="4.53"/>
			<rect x="140.45" y="327.97" fill="#F5F5F5" width="2.26" height="4.54"/>
			<rect x="140.45" y="321.18" fill="#F5F5F5" width="2.26" height="4.53"/>
			<rect x="133.65" y="348.38" fill="#F5F5F5" width="4.53" height="2.26"/>
			<rect x="133.65" y="341.58" fill="#F5F5F5" width="4.53" height="4.53"/>
			<rect x="133.65" y="334.78" fill="#F5F5F5" width="4.53" height="4.53"/>
			<rect x="133.65" y="327.97" fill="#F5F5F5" width="4.53" height="4.54"/>
			<rect x="133.65" y="321.18" fill="#F5F5F5" width="4.53" height="4.53"/>
			<rect x="129.11" y="348.38" fill="#F5F5F5" width="2.26" height="2.26"/>
			<rect x="129.11" y="341.58" fill="#F5F5F5" width="2.26" height="4.53"/>
			<rect x="129.11" y="334.78" fill="#F5F5F5" width="2.26" height="4.53"/>
			<rect x="129.11" y="327.97" fill="#F5F5F5" width="2.26" height="4.54"/>
			<rect x="129.11" y="321.18" fill="#F5F5F5" width="2.26" height="4.53"/>
		</g>
	</g>
	<g>
		<g>
			<defs>
				<rect id="SVGID_2_" x="77.73" y="351.76" width="77.84" height="28.38"/>
			</defs>
			<clipPath id="SVGID_3_">
				<use xlink:href="#SVGID_2_"  overflow="visible"/>
			</clipPath>
			<g clip-path="url(#SVGID_3_)">
				<path fill="#AAD7D3" d="M114.18,402.73c-12.99,0-23.56-10.57-23.56-23.56s10.57-23.56,23.56-23.56s23.56,10.57,23.56,23.56
					C137.75,392.16,127.18,402.73,114.18,402.73z"/>
				<path fill="#F5F5F5" d="M114.18,356.87c12.3,0,22.3,10,22.3,22.3s-10,22.3-22.3,22.3s-22.3-10-22.3-22.3
					S101.89,356.87,114.18,356.87 M114.18,354.34c-13.71,0-24.82,11.11-24.82,24.82s11.11,24.82,24.82,24.82S139,392.88,139,379.17
					S127.89,354.34,114.18,354.34L114.18,354.34z"/>
			</g>
		</g>
	</g>
	<g>
		<circle fill="#5A6378" cx="174.74" cy="345.85" r="17.19"/>
		<g id="XMLID_27_">
			<g>
				<path fill="#AAD7D3" d="M183.76,350.94c0.03,0.24,0.24,3.36-1.49,5.24c-0.81,0.88-1.92,1.34-3.21,1.34h-0.45h-2.58v4.99v1.3v1.3
					v14.16h-0.73h-1.85v-14.02v-1.29v-1.29v-12.89h-2.58h-0.97c-3.07,0-4.19-2.67-4.19-4.47v-5.85c0-0.71,0.57-1.29,1.29-1.29
					c0.71,0,1.29,0.58,1.29,1.29v5.85c0.01,0.44,0.14,1.89,1.61,1.89h0.97h2.58v-7.74c0-0.18,0.03-0.35,0.1-0.5
					c0.19-0.46,0.65-0.79,1.19-0.79c0.71,0,1.29,0.57,1.29,1.29v15.47h2.58h0.45c0.57,0,0.99-0.16,1.31-0.51
					c0.83-0.9,0.87-2.79,0.81-3.38l0-6.42c0-0.71,0.58-1.29,1.29-1.29c0.71,0,1.29,0.58,1.29,1.29L183.76,350.94L183.76,350.94z"/>
			</g>
		</g>
	</g>
	<rect x="0" y="378.77" fill="#AAD7D3" width="839.34" height="55.25"/>
	<path fill="#F5F5F5" d="M0,398.3c0,0,91.14-0.09,263.36,0.09c132.85,0.13,421.7,11.45,575.98,26.11c0,15.44,0,50.77,0,50.77h-840
		L0,398.3z"/>
	<path fill="#AAD7D3" d="M761.6,366.13c-2.7,0-5.25,0.48-7.58,1.35c-1.31,0.48-2.54,1.1-3.67,1.84c-1.37,0.89-2.61,1.95-3.67,3.19
		c-1.09,1.27-2.02,2.71-2.71,4.33c-0.27-0.68-0.62-1.32-0.97-1.96c-3.3-6.1-9.69-10.27-17.11-10.27c-1.73,0-3.36,0.3-4.95,0.73
		c-1.28,0.35-2.51,0.81-3.67,1.41c-1.22,0.62-2.4,1.32-3.46,2.17c-0.07-0.09-0.15-0.18-0.21-0.27c-1.05-1.43-2.29-2.7-3.67-3.8
		c-3.32-2.63-7.48-4.23-12.04-4.23c-3.67,0-7.08,1.14-10.01,3.04c-5.68,3.68-9.5,10.28-9.5,17.39c0,1.2,0.15,0.75,0.35,4.42h9.15
		h56.57h5.92h2.24h28.15C780.31,374.43,771.94,366.13,761.6,366.13z"/>
	<path fill="#5A6378" d="M487.54,379.27h28.15h2.24h5.92h56.57h9.15c0.21-3.67,0.35-3.22,0.35-4.42c0-7.11-3.81-13.71-9.5-17.39
		c-2.93-1.9-6.35-3.04-10.01-3.04c-4.56,0-8.73,1.6-12.04,4.23c-1.38,1.1-2.63,2.37-3.67,3.8c-0.07,0.09-0.15,0.18-0.21,0.27
		c-1.07-0.85-2.24-1.55-3.46-2.17c-1.17-0.59-2.39-1.06-3.67-1.41c-1.58-0.43-3.22-0.73-4.95-0.73c-7.42,0-13.82,4.17-17.11,10.27
		c-0.35,0.64-0.69,1.28-0.97,1.96c-0.69-1.62-1.62-3.06-2.71-4.33c-1.06-1.24-2.3-2.3-3.67-3.19c-1.14-0.74-2.37-1.36-3.67-1.84
		c-2.33-0.86-4.88-1.35-7.58-1.35C496.33,359.94,487.97,368.24,487.54,379.27z"/>
	<g>
		<circle fill="#5A6378" cx="557.81" cy="345.84" r="17.19"/>
		<g id="XMLID_25_">
			<g>
				<path fill="#AAD7D3" d="M566.82,350.92c0.03,0.24,0.24,3.36-1.49,5.24c-0.81,0.88-1.92,1.34-3.21,1.34h-0.45h-2.58v4.99v1.3v1.3
					v14.16h-0.73h-1.85v-14.02v-1.29v-1.29v-12.89h-2.58h-0.97c-3.07,0-4.19-2.67-4.19-4.47v-5.85c0-0.71,0.57-1.29,1.29-1.29
					s1.29,0.58,1.29,1.29v5.85c0.01,0.44,0.14,1.89,1.61,1.89h0.97h2.58v-7.74c0-0.18,0.03-0.35,0.1-0.5
					c0.19-0.46,0.65-0.79,1.19-0.79c0.71,0,1.29,0.57,1.29,1.29v15.47h2.58h0.45c0.57,0,0.99-0.16,1.31-0.51
					c0.83-0.9,0.87-2.79,0.81-3.38l0-6.42c0-0.71,0.58-1.29,1.29-1.29c0.71,0,1.29,0.58,1.29,1.29L566.82,350.92L566.82,350.92z"/>
			</g>
		</g>
	</g>
	<path fill="#AAD7D3" d="M604.46,361.15c2.7,0,5.25,0.48,7.58,1.35c1.31,0.48,2.54,1.1,3.67,1.84c1.37,0.89,2.61,1.95,3.67,3.19
		c1.09,1.27,2.02,2.71,2.71,4.33c0.27-0.68,0.62-1.32,0.97-1.96c3.3-6.1,9.69-10.27,17.11-10.27c1.73,0,3.36,0.3,4.95,0.73
		c1.28,0.35,2.51,0.81,3.67,1.41c1.22,0.62,2.4,1.32,3.46,2.17c0.07-0.09,0.15-0.18,0.21-0.27c1.05-1.43,2.29-2.7,3.67-3.8
		c3.32-2.63,7.48-4.23,12.04-4.23c3.67,0,7.08,1.14,10.01,3.04c5.68,3.68,9.5,10.28,9.5,17.39c0,1.2-0.15,0.75-0.35,4.42h-9.15
		h-56.57h-5.92h-2.24h-28.15C585.75,369.45,594.12,361.15,604.46,361.15z"/>
	<path fill="#AAD7D3" d="M839.34,372.45c-0.27-0.68-1.31-2.26-1.65-2.9c-3.3-6.1-9.69-10.27-17.11-10.27c-1.73,0-3.36,0.3-4.95,0.73
		c-1.28,0.35-2.51,0.81-3.67,1.41c-1.22,0.62-2.4,1.32-3.46,2.17c-0.07-0.09-0.15-0.18-0.21-0.27c-1.05-1.43-2.29-2.7-3.67-3.8
		c-3.32-2.63-7.48-4.23-12.04-4.23c-3.67,0-7.08,1.14-10.01,3.04c-5.68,3.68-9.5,10.28-9.5,17.39c0,1.2,0.15,0.75,0.35,4.42h9.15
		h56.79C839.34,380.14,839.34,377.54,839.34,372.45z"/>
</g>
</svg>
