<svg xmlns="http://www.w3.org/2000/svg" width="841.89" height="216.33" viewBox="0 378.95 841.89 216.33" preserveAspectRatio="xMidYMax"><path fill="#28A197" d="M.13 540.74H224.3s491.49-1.57 581.43 56.13c-114.9-.06-805.59 0-805.59 0l-.01-56.13z"/><path fill="#5A6378" d="M565.32 527.63c38.74.36 276.44-.03 276.44-.03v69.24l-671.41.02c.01.01 248.36-70.27 394.97-69.23z"/><path fill="#5A6378" d="M604.87 515.83c-.66 0-1.32.11-1.97.34l-.13.04-2.17-3.94v-1.71h2.6c.5 0 .9-.4.9-.9s-.4-.9-.9-.9h-3.44c-.5 0-.9.4-.9.9 0 .07.01.15.03.22l.01.02v1.73H591l-.65-1.45h1.88c.47 0 .86-.38.86-.86 0-.47-.38-.86-.86-.86h-6.41c-.47 0-.86.38-.86.86 0 .47.38.86.86.86h2.65l.57 1.3-2.57 4.73-.13-.04c-.65-.22-1.31-.34-1.97-.34-3.3 0-5.98 2.68-5.98 5.98 0 3.3 2.68 5.98 5.98 5.98 2.93 0 5.4-2.1 5.89-4.99l.02-.14h2.55l.05.04c.39.37.9.57 1.44.57 1.15 0 2.09-.94 2.09-2.09 0-.2-.03-.4-.08-.59l-.02-.07 3.45-6.27 1.52 2.77-.11.09c-1.44 1.14-2.27 2.85-2.27 4.68 0 3.3 2.68 5.98 5.98 5.98 3.3 0 5.98-2.68 5.98-5.98-.01-3.28-2.69-5.96-5.99-5.96zm-17.75 2.73l.16.15c.59.56 1 1.26 1.21 2.03l.06.21h-2.73l1.3-2.39zm1.36 4.32c-.49 1.89-2.19 3.2-4.13 3.2-2.36 0-4.27-1.91-4.27-4.27s1.91-4.27 4.27-4.27c.34 0 .7.04 1.06.14l.21.06-2.01 3.66c-.01.01-.01.03-.02.04-.02.03-.02.06-.03.08-.01.03-.02.06-.03.08s-.01.05-.02.08-.01.06-.01.08v.01c0 .01 0 .02-.01.03v.02c0 .01 0 .02.01.03 0 .03.01.07.01.1.01.02.01.05.02.07.01.03.02.05.02.08.01.03.02.06.03.08s.02.04.04.07l.01.01c.02.03.03.04.04.06.02.02.03.04.06.07.02.02.03.04.06.06.02.02.04.04.07.06.02.02.04.03.07.04l.01.01.02.02.01.01c.01.01.03.01.04.02.02.01.05.02.07.03.03.01.06.02.08.03.02.01.04.01.07.02.03.01.07.01.1.01.01 0 .02 0 .04.01h4.19l-.08.17zm4.22-3.01c-.22.27-.38.6-.44.94l-.03.14h-1.96l-.02-.14c-.25-1.45-1.02-2.76-2.18-3.69l-.11-.09 1.97-3.58 2.84 6.33-.07.09zm2.35-.63l-.13-.04c-.15-.04-.31-.07-.47-.08l-.1-.01-2.59-5.76h6.53l-3.24 5.89zm9.82 6.84c-2.36 0-4.27-1.91-4.27-4.27 0-1.18.48-2.28 1.35-3.1l.16-.15 2.01 3.67c.15.28.44.44.75.44.15 0 .29-.03.42-.11.2-.11.35-.29.41-.51.06-.22.04-.45-.07-.65l-2.01-3.66.21-.06c.36-.09.71-.13 1.06-.13 2.36 0 4.27 1.91 4.27 4.27-.02 2.35-1.94 4.26-4.29 4.26z"/><path fill="#F5F5F5" stroke="#F5F5F5" stroke-width="8" stroke-miterlimit="10" d="M456.93 458.67h93.31v79.99h-93.31z"/><path fill="#5A6378" d="M451.07 454.72l50.2-51.58c1.15-1.18 3.05-1.18 4.2 0l50.22 51.58c1.81 1.86.49 4.98-2.1 4.98H453.17c-2.59-.01-3.91-3.13-2.1-4.98zM452.82 527.62h101.57v16.65H452.82zM481.67 494.13h-14.99c-.67 0-1.22-.54-1.22-1.22v-24.79c0-.67.54-1.22 1.22-1.22h14.99c.67 0 1.22.54 1.22 1.22v24.79c-.01.67-.55 1.22-1.22 1.22z"/><circle fill="#F5F5F5" cx="474.55" cy="487.6" r="2.05"/><path fill="#5A6378" d="M540.06 481.84v-10.7c0-2.59-2.11-4.7-4.7-4.7-2.59 0-4.7 2.11-4.7 4.7v10.7c-1.24 1.21-2.01 2.89-2.01 4.76 0 3.7 3.01 6.72 6.72 6.72 3.7 0 6.72-3.01 6.72-6.72-.01-1.87-.79-3.55-2.03-4.76zm-4.7 8.79c-2.22 0-4.04-1.81-4.04-4.04 0-1.49.81-2.77 2.01-3.47v-11.99c0-1.11.9-2.01 2.01-2.01 1.11 0 2.01.9 2.01 2.01v11.99c1.2.7 2.01 1.99 2.01 3.47.03 2.23-1.78 4.04-4 4.04z"/><circle fill="#5A6378" cx="490.08" cy="528.93" r="20.03"/><path fill="#5A6378" d="M533.36 510.51h-3.37c-.37 0-.67.3-.67.67h-1.35c0-.37-.3-.67-.67-.67h-3.37c-.37 0-.67.3-.67.67h-2.03v18.91h2.03v-2.03h10.8v2.03h2.03v-18.91h-2.03c-.02-.37-.33-.67-.7-.67zm-1.77 3.08c0 .44-.36.8-.8.8-.44 0-.8-.36-.8-.8 0-.44.36-.8.8-.8.44-.01.8.35.8.8zm1.77 2.31c.19 0 .34.15.34.34s-.15.34-.34.34h-9.45c-.19 0-.34-.15-.34-.34s.15-.34.34-.34h9.45zm-5.15-2.31c0 .44-.36.8-.8.8-.44 0-.8-.36-.8-.8 0-.44.36-.8.8-.8.44-.01.8.35.8.8zm-4.17-.81c.44 0 .8.36.8.8 0 .44-.36.8-.8.8-.44 0-.8-.36-.8-.8 0-.44.36-.8.8-.8zm10.67 13.92h-12.14v-8.77h12.15v8.77h-.01zm-.55-13.92c.44 0 .8.36.8.8 0 .44-.36.8-.8.8-.44 0-.8-.36-.8-.8 0-.44.36-.8.8-.8zM413.04 520.83c-5.79-3.83-10.08-6.72-12.88-8.5-1.98-1.26-3.13-1.23-3.72-1.13-.56.1-14.81 2.58-16.47 2.87-1.66.29-2.52.76-3.12 2.32-.6 1.56-4.29 7.9-5.01 9.94-6.65 2.64-7.43 4.13-7.08 6.19.2 1.16 1.54 8.85 1.54 8.85.2 1.11 3.49 3.54 4.55 3.36l1.73-.3c1.58 2.8 4.79 4.45 8.14 3.86 3.35-.58 5.81-3.22 6.35-6.39l23.96-4.18c1.58 2.8 4.79 4.45 8.14 3.86 3.5-.61 6.04-3.47 6.42-6.84 1.09-1.07 2.39-3.26 2.24-4.1 0 0-1.06-6.06-1.26-7.22-.34-1.98-4.58-2.39-13.53-2.59z"/><g fill="#F5F5F5"><path d="M421.68 533.21c.37 2.12-1.06 4.15-3.18 4.52-2.12.37-4.15-1.06-4.52-3.18-.36-2.12 1.06-4.15 3.18-4.52 2.12-.36 4.15 1.07 4.52 3.18zM383.23 539.92c.37 2.12-1.06 4.15-3.17 4.52-2.12.37-4.15-1.06-4.52-3.18-.37-2.12 1.06-4.15 3.18-4.52 2.12-.37 4.14 1.06 4.51 3.18z"/></g><path fill="#F5F5F5" d="M406.97 520.92c1.61 1.08 1.03 1.48.01 1.65 0 0-8.56 1.49-16.46 2.87L389 516.7c3.75-.65 7.53-1.31 7.53-1.31.99-.17 2.12.09 2.94.59 1.13.71 5.7 3.72 7.5 4.94zM387.89 516.89l1.52 8.74c-5.9 1.03-11.19 1.95-11.85 2.07-1.17.21-1.84-.36-.98-2.14.75-1.55 2.56-4.98 2.99-5.85.54-1.12.95-1.53 2.21-1.75.53-.09 3.19-.56 6.11-1.07z"/></svg>