<svg xmlns="http://www.w3.org/2000/svg" xmlns:xlink="http://www.w3.org/1999/xlink" viewBox="0 881.2 595.3 137.6"><path fill="#28A197" d="M40.8 951.1H26.1v-51.9c0-.5.4-.9.9-.9h13c.5 0 .9.4.9.9-.1 0-.1 51.9-.1 51.9z"/><path fill="#5A6378" d="M118.8 923.6h22c1 0 1.8.8 1.8 1.8v35.9h-23.8v-37.7z"/><path fill="#28A197" d="M118.9 958.4H102v-40.9c0-.5.4-.9.9-.9H118c.5 0 .9.4.9.9v40.9z"/><g fill="#F5F5F5"><path d="M114 935.7h2.5v2.5H114zM114 932h2.5v2.5H114zM114 928.3h2.5v2.5H114zM116.4 925.9v1.2H114v-2.4h2.4M116.4 922.2v1.2H114V921h2.4M110.3 935.7h2.5v2.5h-2.5zM110.3 932h2.5v2.5h-2.5zM110.3 928.3h2.5v2.5h-2.5zM110.3 924.7h2.5v2.5h-2.5zM110.3 921h2.5v2.5h-2.5zM106.6 935.7h2.5v2.5h-2.5zM106.6 932h2.5v2.5h-2.5zM106.6 928.3h2.5v2.5h-2.5zM106.6 924.7h2.5v2.5h-2.5zM106.6 921h2.5v2.5h-2.5z"/></g><path fill="#5A6378" d="M586.9 949.5h-83.7c-.2-3-.3-2.6-.3-3.6 0-5.8 3.1-11.2 7.8-14.3 2.4-1.6 5.2-2.5 8.2-2.5 3.7 0 7.2 1.3 9.9 3.5 1.1.9 2.2 1.9 3 3.1l.2.2c.9-.7 1.8-1.3 2.8-1.8 1-.5 2-.9 3-1.2 1.3-.4 2.6-.6 4.1-.6 6.1 0 11.3 3.4 14 8.4.3.5.6 1.1.8 1.6.6-1.3 1.3-2.5 2.2-3.5.9-1 1.9-1.9 3-2.6.9-.6 1.9-1.1 3-1.5 1.9-.7 4-1.1 6.2-1.1 8.6.1 15.4 6.9 15.8 15.9zM29.8 951.4H15.1v-40.9c0-.5.4-.9.9-.9h13c.5 0 .9.4.9.9-.1 0-.1 40.9-.1 40.9zM196.9 937.3c-1.9 0-3.7.3-5.4 1-.9.3-1.8.8-2.6 1.3-1 .6-1.8 1.4-2.6 2.3-.8.9-1.4 1.9-1.9 3.1-.2-.5-.4-.9-.7-1.4-2.3-4.3-6.9-7.3-12.1-7.3-1.2 0-2.4.2-3.5.5-.9.2-1.8.6-2.6 1-.9.4-1.7.9-2.4 1.5 0-.1-.1-.1-.1-.2-.7-1-1.6-1.9-2.6-2.7-2.3-1.9-5.3-3-8.5-3-2.6 0-5 .8-7.1 2.1-4 2.6-6.7 7.3-6.7 12.3 0 .8.1.5.2 3.1h72.2c-.4-7.7-6.3-13.6-13.6-13.6zM54.4 951.4H39.6v-58.1c0-.5.4-.9.9-.9h13c.5 0 .9.4.9.9v58.1z"/><g fill="#F5F5F5"><path d="M24.9 928.6h2.5v2.5h-2.5zM24.9 925h2.5v2.5h-2.5zM24.9 921.3h2.5v2.5h-2.5zM27.3 918.8v1.2h-2.4v-2.4h2.4M27.3 915.1v1.3h-2.4v-2.5h2.4M21.2 928.6h2.5v2.5h-2.5zM21.2 925h2.5v2.5h-2.5zM21.2 921.3h2.5v2.5h-2.5zM21.2 917.6h2.5v2.5h-2.5zM21.2 913.9h2.5v2.5h-2.5zM17.5 928.6H20v2.5h-2.5zM17.5 925H20v2.5h-2.5zM17.5 921.3H20v2.5h-2.5zM17.5 917.6H20v2.5h-2.5zM17.5 913.9H20v2.5h-2.5z"/></g><g fill="#F5F5F5"><path d="M42.1 902h9.8v2.5h-9.8zM42.1 905.6h9.8v2.5h-9.8zM42.1 909.3h9.8v2.5h-9.8zM42.1 913h9.8v2.5h-9.8zM42.1 916.7h9.8v2.5h-9.8zM42.1 920.4h9.8v2.5h-9.8zM42.1 924.1h9.8v2.5h-9.8zM42.1 927.7h9.8v2.5h-9.8zM42.1 898.3h9.8v2.5h-9.8z"/></g><path fill="#28A197" d="M20 933.9h25.8v17.2H20z"/><path fill="#F5F5F5" d="M22.4 938.8h20.9v12.3H22.4z"/><path fill="#5A6378" d="M22.4 937.5h20.9v13.9H22.4z"/><path fill="#28A197" d="M89.6 951.5v-60.2c0-.5-.4-.9-.9-.9H72.8c-.5 0-.9.4-.9.9v60.2h17.7z"/><path fill="#5A6378" d="M73.3 916H54.1v35.3h20.2v-34.4c-.1-.5-.5-.9-1-.9z"/><g fill="#F5F5F5"><path d="M67.5 930h3.2v3.2h-3.2zM67.5 925.2h3.2v3.2h-3.2zM67.5 920.4h3.2v3.2h-3.2zM62.7 930h3.2v3.2h-3.2zM62.7 925.2h3.2v3.2h-3.2zM62.7 920.4h3.2v3.2h-3.2zM57.9 930h3.2v3.2h-3.2zM57.9 925.2h3.2v3.2h-3.2zM57.9 920.4h3.2v3.2h-3.2z"/></g><path fill="#5A6378" d="M393.4 945.3h83.7c.2-3 .3-2.6.3-3.6 0-5.8-3.1-11.2-7.8-14.3-2.4-1.6-5.2-2.5-8.2-2.5-3.7 0-7.2 1.3-9.9 3.5-1.1.9-2.2 1.9-3 3.1l-.2.2c-.9-.7-1.8-1.3-2.8-1.8-1-.5-2-.9-3-1.2-1.3-.4-2.6-.6-4.1-.6-6.1 0-11.3 3.4-14 8.4-.3.5-.6 1.1-.8 1.6-.6-1.3-1.3-2.5-2.2-3.5-.9-1-1.9-1.9-3-2.6-.9-.6-1.9-1.1-3-1.5-1.9-.7-4-1.1-6.2-1.1-8.6.1-15.5 6.9-15.8 15.9zM0 917.6h16.3v43.7H0zM89 951.2h14.2c.5 0 .9-.4.9-.9v-43.1c0-.5-.4-.9-.9-.9H89c-.5 0-.9.4-.9.9v43.1c0 .5.4.9.9.9z"/><g fill="#F5F5F5"><path d="M83.2 926.3h1.6v2.8h-1.6zM83.2 922.2h1.6v2.8h-1.6zM83.2 918.1h1.6v2.8h-1.6zM83.2 913.9h1.6v2.8h-1.6zM83.2 909.8h1.6v2.8h-1.6zM83.2 905.7h1.6v2.8h-1.6zM83.2 901.6h1.6v2.8h-1.6zM83.2 896.1h1.6v4.1h-1.6zM80 926.3h1.6v2.8H80zM80 922.2h1.6v2.8H80zM80 918.1h1.6v2.8H80zM80 913.9h1.6v2.8H80zM80 909.8h1.6v2.8H80zM80 905.7h1.6v2.8H80zM80 901.6h1.6v2.8H80zM80 896.1h1.6v4.1H80zM76.7 926.3h1.6v2.8h-1.6zM76.7 922.2h1.6v2.8h-1.6zM76.7 918.1h1.6v2.8h-1.6zM76.7 913.9h1.6v2.8h-1.6zM76.7 909.8h1.6v2.8h-1.6zM76.7 905.7h1.6v2.8h-1.6zM76.7 901.6h1.6v2.8h-1.6zM76.7 896.1h1.6v4.1h-1.6z"/></g><g fill="#F5F5F5"><path d="M99.3 929.1h1.6v1.6h-1.6zM99.3 924.3h1.6v3.2h-1.6zM99.3 919.5h1.6v3.2h-1.6zM99.3 914.7h1.6v3.2h-1.6zM99.3 909.9h1.6v3.2h-1.6zM94.5 929.1h3.2v1.6h-3.2zM94.5 924.3h3.2v3.2h-3.2zM94.5 919.5h3.2v3.2h-3.2zM94.5 914.7h3.2v3.2h-3.2zM94.5 909.9h3.2v3.2h-3.2zM91.3 929.1h1.6v1.6h-1.6zM91.3 924.3h1.6v3.2h-1.6zM91.3 919.5h1.6v3.2h-1.6zM91.3 914.7h1.6v3.2h-1.6zM91.3 909.9h1.6v3.2h-1.6z"/></g><defs><path id="a" d="M55 931.5h55v20.1H55z"/></defs><clipPath id="b"><use xlink:href="#a" overflow="visible"/></clipPath><g clip-path="url(#b)"><path fill="#AAD7D3" d="M80.7 967.5c-9.2 0-16.7-7.5-16.7-16.7s7.5-16.7 16.7-16.7 16.7 7.5 16.7 16.7c0 9.3-7.5 16.7-16.7 16.7z"/><path fill="#F5F5F5" d="M80.7 935.1c8.7 0 15.8 7.1 15.8 15.8s-7.1 15.8-15.8 15.8S65 959.6 65 950.9s7-15.8 15.7-15.8m0-1.8c-9.7 0-17.5 7.9-17.5 17.5 0 9.7 7.9 17.5 17.5 17.5s17.5-7.9 17.5-17.5c.1-9.6-7.8-17.5-17.5-17.5z"/></g><circle fill="#5A6378" cx="180.1" cy="927.3" r="12.2"/><path fill="#AAD7D3" d="M186.5 930.9c0 .2.2 2.4-1.1 3.7-.6.6-1.4.9-2.3.9H181v15.3h-1.8V930.1h-2.5c-2.2 0-3-1.9-3-3.2v-4.1c0-.5.4-.9.9-.9s.9.4.9.9v4.1c0 .3.1 1.3 1.1 1.3h2.5v-5.5c0-.1 0-.2.1-.4.1-.3.5-.6.8-.6.5 0 .9.4.9.9v10.9h2.1c.4 0 .7-.1.9-.4.6-.6.6-2 .6-2.4v-4.5c0-.5.4-.9.9-.9s.9.4.9.9l.2 4.7zM0 950.6h595.3v39.1H0z"/><path fill="#F5F5F5" d="M0 964.4s64.4-.1 186.2.1c93.9.1 300 8.1 409.1 18.5v35.9H0v-54.5z"/><path fill="#AAD7D3" d="M538.5 941.7c-1.9 0-3.7.3-5.4 1-.9.3-1.8.8-2.6 1.3-1 .6-1.8 1.4-2.6 2.3-.8.9-1.4 1.9-1.9 3.1-.2-.5-.4-.9-.7-1.4-2.3-4.3-6.9-7.3-12.1-7.3-1.2 0-2.4.2-3.5.5-.9.2-1.8.6-2.6 1-.9.4-1.7.9-2.4 1.5 0-.1-.1-.1-.1-.2-.7-1-1.6-1.9-2.6-2.7-2.3-1.9-5.3-3-8.5-3-2.6 0-5 .8-7.1 2.1-4 2.6-6.7 7.3-6.7 12.3 0 .8.1.5.2 3.1h72.2c-.4-7.8-6.3-13.6-13.6-13.6z"/><path fill="#5A6378" d="M344.7 951h72.2c.1-2.6.2-2.3.2-3.1 0-5-2.7-9.7-6.7-12.3-2.1-1.3-4.5-2.1-7.1-2.1-3.2 0-6.2 1.1-8.5 3-1 .8-1.9 1.7-2.6 2.7 0 .1-.1.1-.1.2-.8-.6-1.6-1.1-2.4-1.5-.8-.4-1.7-.7-2.6-1-1.1-.3-2.3-.5-3.5-.5-5.2 0-9.8 2.9-12.1 7.3-.2.5-.5.9-.7 1.4-.5-1.1-1.1-2.2-1.9-3.1-.7-.9-1.6-1.6-2.6-2.3-.8-.5-1.7-1-2.6-1.3-1.6-.6-3.5-1-5.4-1-7.4-.1-13.3 5.8-13.6 13.6z"/><circle fill="#5A6378" cx="394.4" cy="927.3" r="12.2"/><path fill="#AAD7D3" d="M400.8 930.9c0 .2.2 2.4-1.1 3.7-.6.6-1.4.9-2.3.9h-2.1v15.3h-1.8V930.1H391c-2.2 0-3-1.9-3-3.2v-4.1c0-.5.4-.9.9-.9s.9.4.9.9v4.1c0 .3.1 1.3 1.1 1.3h2.5v-5.5c0-.1 0-.2.1-.4.1-.3.5-.6.8-.6.5 0 .9.4.9.9v10.9h2.1c.4 0 .7-.1.9-.4.6-.6.6-2 .6-2.4v-4.5c0-.5.4-.9.9-.9s.9.4.9.9l.2 4.7zM427.4 938.1c1.9 0 3.7.3 5.4 1 .9.3 1.8.8 2.6 1.3 1 .6 1.8 1.4 2.6 2.3.8.9 1.4 1.9 1.9 3.1.2-.5.4-.9.7-1.4 2.3-4.3 6.9-7.3 12.1-7.3 1.2 0 2.4.2 3.5.5.9.2 1.8.6 2.6 1 .9.4 1.7.9 2.4 1.5 0-.1.1-.1.1-.2.7-1 1.6-1.9 2.6-2.7 2.3-1.9 5.3-3 8.5-3 2.6 0 5 .8 7.1 2.1 4 2.6 6.7 7.3 6.7 12.3 0 .8-.1.5-.2 3.1h-72.2c.4-7.7 6.3-13.6 13.6-13.6zM595.3 945.5s-.4-.9-.7-1.4c-2.3-4.3-6.9-7.3-12.1-7.3-1.2 0-2.4.2-3.5.5-.9.2-1.8.6-2.6 1-.9.4-1.7.9-2.4 1.5 0-.1-.1-.1-.1-.2-.7-1-1.6-1.9-2.6-2.7-2.3-1.9-5.3-3-8.5-3-2.6 0-5 .8-7.1 2.1-4 2.6-6.7 7.3-6.7 12.3 0 .8.1.5.2 3.1h46.1v-5.9z"/><g><path fill="#AAD7D3" d="M35 941.7h-1.5c-.2 0-.3.1-.3.3h-.6c0-.2-.1-.3-.3-.3h-1.5c-.2 0-.3.1-.3.3h-.9v8.6h.9v-.9h4.9v.9h.9V942h-.9c-.1-.2-.2-.3-.4-.3zm-1 1.4c0 .2-.2.4-.4.4s-.4-.2-.4-.4.2-.4.4-.4.4.2.4.4zm1 1c.1 0 .2.1.2.2s-.1.2-.2.2h-4.3c-.1 0-.2-.1-.2-.2s.1-.2.2-.2H35zm-2.5-1c0 .2-.2.4-.4.4s-.4-.2-.4-.4.2-.4.4-.4.4.2.4.4zm-1.9-.4c.2 0 .4.2.4.4s-.2.4-.4.4-.4-.2-.4-.4.2-.4.4-.4zm5 6.4h-5.5v-4h5.5v4zm-.4-6.4c.2 0 .4.2.4.4s-.2.4-.4.4-.4-.2-.4-.4.2-.4.4-.4z"/></g></svg>