<?xml version="1.0" encoding="utf-8"?>
<!-- Generator: Adobe Illustrator 18.1.0, SVG Export Plug-In . SVG Version: 6.00 Build 0)  -->
<svg version="1.1" id="Layer_4" xmlns="http://www.w3.org/2000/svg" xmlns:xlink="http://www.w3.org/1999/xlink" x="0px" y="0px"
	 viewBox="0 176.95 841.89 240.08" enable-background="new 0 176.95 841.89 240.08" xml:space="preserve" preserveAspectRatio="xMaxYMax">
<path fill="#28A197" d="M814.64,260.6c-5.39-6.16-0.21-10.54-5.27-10.54c-18.03-0.01-50.4,0.01-204.92,0.01
	C292.59,250.07,85.81,308.1,0,337.4c0,31.55,0,79.63,0,79.63h841.89l0.17-153.73C842.06,263.3,820.04,266.75,814.64,260.6z"/>
<path display="none" fill="#28A197" d="M241.92,269.81c0-0.05-0.02-0.1-0.06-0.13c-0.03-0.04-0.08-0.06-0.13-0.06h-5.59
	c-0.05,0-0.1,0.02-0.13,0.06s-0.06,0.08-0.06,0.13c0.03,3.49-0.3,6.83-0.98,9.98c-1.06-4.57-1.57-9.48-1.53-14.6
	c0-0.07-0.03-0.14-0.07-0.18c-0.05-0.05-0.11-0.07-0.18-0.07h-7.76c-0.07,0-0.14,0.03-0.18,0.07c-0.05,0.05-0.07,0.12-0.07,0.18
	c0.05,5.73-0.6,11.19-1.93,16.23c-0.02,0.08,0,0.16,0.05,0.22c0.05,0.07,0.13,0.1,0.21,0.1h19.65l0,0c0.1,0,0.19-0.08,0.19-0.19
	c0-0.02,0-0.04-0.01-0.07C242.35,277.87,241.89,273.94,241.92,269.81z"/>
<path display="none" fill="#28A197" d="M325.82,255.4c0-0.06-0.02-0.12-0.07-0.17c-0.04-0.04-0.1-0.07-0.16-0.07h-7.02
	c-0.06,0-0.12,0.02-0.16,0.07c-0.04,0.04-0.07,0.1-0.07,0.17c0.04,4.38-0.38,8.58-1.23,12.53c-1.33-5.74-1.98-11.9-1.92-18.34
	c0-0.08-0.03-0.17-0.09-0.23c-0.06-0.06-0.14-0.1-0.23-0.1h-9.75c-0.08,0-0.17,0.03-0.23,0.1c-0.06,0.06-0.09,0.14-0.09,0.23
	c0.06,7.2-0.76,14.05-2.43,20.38c-0.02,0.1,0,0.2,0.06,0.28c0.06,0.08,0.15,0.13,0.26,0.13l24.68,0l0,0c0.13,0,0.23-0.1,0.23-0.23
	c0-0.03,0-0.06-0.01-0.08C326.37,265.52,325.78,260.59,325.82,255.4z"/>
<path display="none" fill="#28A197" d="M208.28,278.04c0-0.03-0.01-0.07-0.04-0.09s-0.06-0.04-0.09-0.04h-3.73
	c-0.03,0-0.07,0.01-0.09,0.04c-0.02,0.02-0.04,0.06-0.04,0.09c0.02,2.33-0.2,4.56-0.65,6.66c-0.71-3.05-1.05-6.33-1.02-9.76
	c0-0.05-0.02-0.09-0.05-0.12c-0.03-0.03-0.07-0.05-0.12-0.05h-5.19c-0.05,0-0.09,0.02-0.12,0.05c-0.03,0.03-0.05,0.07-0.05,0.12
	c0.03,3.83-0.4,7.48-1.29,10.84c-0.01,0.05,0,0.11,0.03,0.15c0.03,0.04,0.08,0.07,0.14,0.07h13.13l0,0c0.07,0,0.13-0.06,0.13-0.13
	c0-0.01,0-0.03-0.01-0.04C208.57,283.41,208.26,280.79,208.28,278.04z"/>
<path display="none" fill="#28A197" d="M418.35,244.74c0-0.06-0.02-0.12-0.07-0.17c-0.04-0.04-0.1-0.07-0.16-0.07h-7.02
	c-0.06,0-0.12,0.02-0.16,0.07c-0.04,0.04-0.07,0.1-0.07,0.17c0.04,4.38-0.38,8.58-1.23,12.53c-1.33-5.74-1.98-11.9-1.92-18.34
	c0-0.08-0.03-0.17-0.09-0.23c-0.06-0.06-0.14-0.1-0.23-0.1h-9.75c-0.08,0-0.17,0.03-0.23,0.1c-0.06,0.06-0.09,0.14-0.09,0.23
	c0.06,7.2-0.76,14.05-2.43,20.38c-0.02,0.1,0,0.2,0.06,0.28c0.06,0.08,0.15,0.13,0.26,0.13l24.68,0l0,0c0.13,0,0.23-0.1,0.23-0.23
	c0-0.03,0-0.06-0.01-0.08C418.89,254.86,418.31,249.92,418.35,244.74z"/>
<g>
	<path fill="#28A197" d="M802.33,247.91c-0.05,0-0.09-0.01-0.14-0.03c-0.18-0.07-0.27-0.29-0.2-0.47l0.02-0.04h-1.07
		c0-0.22,0-1.26,0-1.45h-0.41v-1.47c0-0.19-0.15-0.35-0.35-0.35h-2.28c-0.36,0-0.68,0.22-0.81,0.57l-1.25,1.94
		c-0.15,1.16-0.07,1.6,0,2.09c0.01,0.1,0.09,0.2,0.2,0.2h1.15c0.13-0.7,0.74-1.22,1.46-1.22c0.73,0,1.33,0.53,1.46,1.22h4.53
		c0.13-0.7,0.74-1.23,1.47-1.23s1.34,0.53,1.46,1.23h0.25c0.13-0.7,0.73-1.23,1.46-1.23c0.73,0,1.34,0.53,1.47,1.23
		c0.59,0,1.11-0.13,1.07-1.02v-0.06c0-0.24-0.19-0.43-0.43-0.43h-8.64l-0.13,0.32C802.6,247.82,802.47,247.91,802.33,247.91z"/>
	<ellipse fill="#28A197" cx="798.67" cy="249.16" rx="1.18" ry="1.19"/>
	<ellipse fill="#28A197" cx="806.14" cy="249.16" rx="1.18" ry="1.19"/>
	<ellipse fill="#28A197" cx="809.33" cy="249.16" rx="1.18" ry="1.19"/>
	<path fill="#28A197" d="M814.72,247.03l-1.37-3.29c0.02-0.05,0.02-0.1,0.01-0.15c-0.02-0.06-0.06-0.11-0.12-0.14l-9.06-4.7
		c-0.06-0.03-0.12-0.03-0.18-0.01c-0.06,0.02-0.11,0.06-0.14,0.12l-1.73,3.33c-0.06,0.12-0.01,0.26,0.1,0.32l1.57,0.81l-0.57,1.37
		c-0.09,0.03-0.17,0.1-0.21,0.2l-1.02,2.48l-0.02,0.04c-0.07,0.18,0.01,0.39,0.2,0.47c0.05,0.02,0.09,0.03,0.14,0.03
		c0.14,0,0.28-0.08,0.33-0.22l0.13-0.32l0.91-2.21c0.04-0.1,0.03-0.21-0.01-0.29l0.55-1.32l7.07,3.67c0.03,0.02,0.07,0.03,0.11,0.03
		c0.08,0,0.17-0.05,0.21-0.13l1.45-2.8l1.21,2.91c0.04,0.09,0.13,0.14,0.22,0.14c0.03,0,0.06,0,0.09-0.02
		C814.72,247.29,814.77,247.15,814.72,247.03z"/>
</g>
<circle display="none" fill="#28A197" cx="815.5" cy="262.76" r="2.88"/>
<circle display="none" fill="#28A197" cx="822.37" cy="263.64" r="5.1"/>
<circle display="none" fill="#28A197" cx="828.99" cy="261.14" r="6.02"/>
<circle display="none" fill="#28A197" cx="836.18" cy="265.01" r="5.84"/>
<circle display="none" fill="#28A197" cx="830.98" cy="255.41" r="4.7"/>
<circle display="none" fill="#28A197" cx="838.05" cy="258.54" r="5.84"/>
</svg>
