<?xml version="1.0" encoding="utf-8"?>
<!-- Generator: Adobe Illustrator 18.0.0, SVG Export Plug-In . SVG Version: 6.00 Build 0)  -->
<!DOCTYPE svg PUBLIC "-//W3C//DTD SVG 1.1//EN" "http://www.w3.org/Graphics/SVG/1.1/DTD/svg11.dtd">
<svg version="1.1" id="Layer_4" xmlns="http://www.w3.org/2000/svg" xmlns:xlink="http://www.w3.org/1999/xlink" x="0px" y="0px"
	 viewBox="0 892.8 595.4 126.1" enable-background="new 0 892.8 595.4 126.1" xml:space="preserve">
<path fill="#28A197" d="M576,908.2c-3.8-4.4-0.1-7.5-3.7-7.5c-12.7,0-35.6,0-144.9,0c-220.5,0-366.7,41-427.4,61.7
	c0,22.3,0,56.3,0,56.3h595.3l0.1-108.7C595.4,910.1,579.8,912.6,576,908.2z"/>
<path display="none" fill="#28A197" d="M171.1,914.7C171.1,914.7,171,914.7,171.1,914.7c-0.1-0.1-0.1-0.1-0.1-0.1h-4
	c0,0-0.1,0-0.1,0c0,0,0,0.1,0,0.1c0,2.5-0.2,4.8-0.7,7.1c-0.7-3.2-1.1-6.7-1.1-10.3c0,0,0-0.1,0-0.1c0,0-0.1,0-0.1,0h-5.5
	c0,0-0.1,0-0.1,0c0,0,0,0.1,0,0.1c0,4.1-0.4,7.9-1.4,11.5c0,0.1,0,0.1,0,0.2c0,0,0.1,0.1,0.1,0.1h13.9l0,0c0.1,0,0.1-0.1,0.1-0.1
	c0,0,0,0,0,0C171.4,920.4,171,917.7,171.1,914.7z"/>
<path display="none" fill="#28A197" d="M230.4,904.6c0,0,0-0.1,0-0.1c0,0-0.1,0-0.1,0h-5c0,0-0.1,0-0.1,0c0,0,0,0.1,0,0.1
	c0,3.1-0.3,6.1-0.9,8.9c-0.9-4.1-1.4-8.4-1.4-13c0-0.1,0-0.1-0.1-0.2s-0.1-0.1-0.2-0.1h-6.9c-0.1,0-0.1,0-0.2,0.1
	c0,0-0.1,0.1-0.1,0.2c0,5.1-0.5,9.9-1.7,14.4c0,0.1,0,0.1,0,0.2s0.1,0.1,0.2,0.1h17.5l0,0c0.1,0,0.2-0.1,0.2-0.2c0,0,0,0,0-0.1
	C230.8,911.7,230.4,908.2,230.4,904.6z"/>
<path display="none" fill="#28A197" d="M147.3,920.6C147.3,920.5,147.3,920.5,147.3,920.6C147.2,920.5,147.2,920.5,147.3,920.6
	l-2.7-0.1c0,0,0,0-0.1,0c0,0,0,0,0,0.1c0,1.6-0.1,3.2-0.5,4.7c-0.5-2.2-0.7-4.5-0.7-6.9c0,0,0-0.1,0-0.1c0,0,0,0-0.1,0h-3.7
	c0,0-0.1,0-0.1,0c0,0,0,0,0,0.1c0,2.7-0.3,5.3-0.9,7.7c0,0,0,0.1,0,0.1c0,0,0.1,0,0.1,0h9.3l0,0c0,0,0.1,0,0.1-0.1c0,0,0,0,0,0
	C147.5,924.4,147.3,922.5,147.3,920.6z"/>
<path display="none" fill="#28A197" d="M295.8,897c0,0,0-0.1,0-0.1c0,0-0.1,0-0.1,0h-5c0,0-0.1,0-0.1,0c0,0,0,0.1,0,0.1
	c0,3.1-0.3,6.1-0.9,8.9c-0.9-4.1-1.4-8.4-1.4-13c0-0.1,0-0.1-0.1-0.2s-0.1-0.1-0.2-0.1h-6.9c-0.1,0-0.1,0-0.2,0.1
	c0,0-0.1,0.1-0.1,0.2c0,5.1-0.5,9.9-1.7,14.4c0,0.1,0,0.1,0,0.2c0,0.1,0.1,0.1,0.2,0.1h17.5l0,0c0.1,0,0.2-0.1,0.2-0.2
	c0,0,0,0,0-0.1C296.2,904.2,295.8,900.7,295.8,897z"/>
<g>
	<path fill="#28A197" d="M567.3,899.3C567.3,899.3,567.2,899.3,567.3,899.3c-0.2-0.1-0.3-0.2-0.2-0.4l0,0h-0.8c0-0.2,0-0.9,0-1H566
		v-1c0-0.1-0.1-0.2-0.2-0.2h-1.6c-0.3,0-0.5,0.2-0.6,0.4l-0.9,1.4c-0.1,0.8,0,1.1,0,1.5c0,0.1,0.1,0.1,0.1,0.1h0.8
		c0.1-0.5,0.5-0.9,1-0.9c0.5,0,0.9,0.4,1,0.9h3.2c0.1-0.5,0.5-0.9,1-0.9c0.5,0,0.9,0.4,1,0.9h0.2c0.1-0.5,0.5-0.9,1-0.9
		c0.5,0,0.9,0.4,1,0.9c0.4,0,0.8-0.1,0.8-0.7v0c0-0.2-0.1-0.3-0.3-0.3h-6.1l-0.1,0.2C567.5,899.2,567.4,899.3,567.3,899.3z"/>
	<ellipse fill="#28A197" cx="564.7" cy="900.1" rx="0.8" ry="0.8"/>
	<ellipse fill="#28A197" cx="570" cy="900.1" rx="0.8" ry="0.8"/>
	<ellipse fill="#28A197" cx="572.3" cy="900.1" rx="0.8" ry="0.8"/>
	<path fill="#28A197" d="M576.1,898.6l-1-2.3c0,0,0-0.1,0-0.1c0,0,0-0.1-0.1-0.1l-6.4-3.3c0,0-0.1,0-0.1,0c0,0-0.1,0-0.1,0.1
		l-1.2,2.4c0,0.1,0,0.2,0.1,0.2l1.1,0.6l-0.4,1c-0.1,0-0.1,0.1-0.1,0.1l-0.7,1.8l0,0c0,0.1,0,0.3,0.1,0.3c0,0,0.1,0,0.1,0
		c0.1,0,0.2-0.1,0.2-0.2l0.1-0.2l0.6-1.6c0-0.1,0-0.1,0-0.2l0.4-0.9l5,2.6c0,0,0,0,0.1,0c0.1,0,0.1,0,0.1-0.1l1-2l0.9,2.1
		c0,0.1,0.1,0.1,0.2,0.1c0,0,0,0,0.1,0C576.1,898.8,576.1,898.7,576.1,898.6z"/>
</g>
<circle display="none" fill="#28A197" cx="576.6" cy="909.8" r="2"/>
<circle display="none" fill="#28A197" cx="581.5" cy="910.4" r="3.6"/>
<circle display="none" fill="#28A197" cx="586.2" cy="908.6" r="4.3"/>
<circle display="none" fill="#28A197" cx="591.2" cy="911.4" r="4.1"/>
<circle display="none" fill="#28A197" cx="587.6" cy="904.6" r="3.3"/>
<circle display="none" fill="#28A197" cx="592.6" cy="906.8" r="4.1"/>
</svg>
