<?xml version="1.0" encoding="utf-8"?>
<!-- Generator: Adobe Illustrator 18.0.0, SVG Export Plug-In . SVG Version: 6.00 Build 0)  -->
<!DOCTYPE svg PUBLIC "-//W3C//DTD SVG 1.1//EN" "http://www.w3.org/Graphics/SVG/1.1/DTD/svg11.dtd">
<svg version="1.1" id="Layer_2" xmlns="http://www.w3.org/2000/svg" xmlns:xlink="http://www.w3.org/1999/xlink" x="0px" y="0px"
	 viewBox="0.1 416.5 595.3 119.1" enable-background="new 0.1 416.5 595.3 119.1" xml:space="preserve">
<g id="Layer_1_1_">
	<path fill="#28A197" d="M0.1,494.1h165.7c0,0,363.2-1.2,429.6,41.5c-84.9-0.1-595.3,0-595.3,0L0.1,494.1L0.1,494.1z"/>
	<path display="none" fill="#28A197" d="M17.4,485h-0.9c0-0.4-0.3-0.6-0.7-0.6h-1.6c-0.4,0-0.7,0.3-0.7,0.6H4.5
		c-1.2,0-2.2,1-2.2,2.2v4.4v0.1v2.1c0,0.3,0.2,0.5,0.5,0.5s0.5-0.2,0.5-0.5v-1h0.6v1c0,0.3,0.2,0.5,0.5,0.5s0.5-0.2,0.5-0.5v-1h0.4
		c0.7,0,1.4-0.5,1.6-1.2h3.1v2.1c0,0.3,0.2,0.5,0.5,0.5s0.5-0.2,0.5-0.5v-2.1h0.7v2.1c0,0.3,0.2,0.5,0.5,0.5s0.5-0.2,0.5-0.5v-2.1
		H13c0.7,0,1.3-0.6,1.3-1.3l0.3-1.5h1c0.3,0,0.6-0.2,0.7-0.6l0.2-2.2l1-0.5c0.1,0,0.2-0.1,0.2-0.2C17.7,485.2,17.5,485,17.4,485z"/>
	<path display="none" fill="#28A197" d="M45.9,485h0.9c0-0.4,0.3-0.6,0.7-0.6H49c0.4,0,0.6,0.3,0.7,0.6h9.2c1.2,0,2.2,1,2.2,2.2v4.4
		v0.1v2.1c0,0.3-0.2,0.5-0.5,0.5s-0.5-0.2-0.5-0.5v-1h-0.6v1c0,0.3-0.2,0.5-0.5,0.5c-0.3,0-0.5-0.2-0.5-0.5v-1H58
		c-0.7,0-1.4-0.5-1.6-1.2h-3.1v2.1c0,0.3-0.2,0.5-0.5,0.5c-0.3,0-0.5-0.2-0.5-0.5v-2.1h-0.6v2.1c0,0.3-0.2,0.5-0.5,0.5
		s-0.5-0.2-0.5-0.5v-2.1h-0.1c-0.7,0-1.3-0.6-1.3-1.3l-0.3-1.5h-0.9c-0.3,0-0.6-0.2-0.7-0.6l-0.2-2.2l-1-0.5c-0.1,0-0.2-0.1-0.2-0.2
		C45.6,485.2,45.8,485,45.9,485z"/>
	<path display="none" fill="#28A197" d="M34.7,485h-0.9c0-0.4-0.3-0.6-0.7-0.6h-1.6c-0.4,0-0.6,0.3-0.7,0.6h-9.2
		c-1.2,0-2.2,1-2.2,2.2v4.4v0.1v2.1c0,0.3,0.2,0.5,0.5,0.5s0.5-0.2,0.5-0.5v-1h0.6v1c0,0.3,0.2,0.5,0.5,0.5s0.5-0.2,0.5-0.5v-1h0.4
		c0.7,0,1.4-0.5,1.6-1.2h3.1v2.1c0,0.3,0.2,0.5,0.5,0.5s0.5-0.2,0.5-0.5v-2.1h0.5v2.1c0,0.3,0.2,0.5,0.5,0.5s0.5-0.2,0.5-0.5v-2.1
		H30c0.7,0,1.3-0.6,1.3-1.3l0.3-1.5h0.9c0.3,0,0.6-0.2,0.7-0.6l0.2-2.2l1-0.5c0.1,0,0.2-0.1,0.2-0.2C35,485.2,34.8,485,34.7,485z"/>
	<g display="none">
		<g display="inline">
			<g>
				<g>
					<g id="XMLID_110_">
						<g>
							<path fill="#28A197" d="M152.5,494.3h-0.1h-0.3v-7.4v-0.1c0-0.1,0.1-0.1,0.1-0.1c0.1,0,0.2,0.1,0.2,0.2L152.5,494.3
								L152.5,494.3z"/>
						</g>
					</g>
				</g>
				<path fill="#28A197" d="M151.9,490.3c0.4,0.4,0.3,1.1,0.3,1.1s-0.7-0.1-1-0.5c-0.4-0.4-0.3-1.1-0.3-1.1S151.5,489.8,151.9,490.3
					z"/>
				<path fill="#28A197" d="M152.8,486.2c0,0.6-0.5,1.1-0.5,1.1s-0.5-0.5-0.5-1.1c0-0.6,0.5-1.1,0.5-1.1S152.8,485.6,152.8,486.2z"
					/>
				<path fill="#28A197" d="M152.8,490.3c-0.4,0.4-0.3,1.1-0.3,1.1s0.7-0.1,1-0.5s0.3-1.1,0.3-1.1S153.2,489.8,152.8,490.3z"/>
				<path fill="#28A197" d="M151.9,487.2c0.4,0.4,0.3,1.1,0.3,1.1s-0.7-0.1-1-0.5c-0.4-0.4-0.3-1.1-0.3-1.1S151.5,486.7,151.9,487.2
					z"/>
				<path fill="#28A197" d="M152.8,487.2c-0.4,0.4-0.3,1.1-0.3,1.1s0.7-0.1,1-0.5c0.4-0.4,0.3-1.1,0.3-1.1S153.2,486.7,152.8,487.2z
					"/>
				<path fill="#28A197" d="M151.9,488.7c0.4,0.4,0.3,1.1,0.3,1.1s-0.7-0.1-1-0.5c-0.4-0.4-0.3-1.1-0.3-1.1S151.5,488.3,151.9,488.7
					z"/>
				<path fill="#28A197" d="M152.8,488.7c-0.4,0.4-0.3,1.1-0.3,1.1s0.7-0.1,1-0.5s0.3-1.1,0.3-1.1S153.2,488.3,152.8,488.7z"/>
				<path fill="#28A197" d="M151.9,491.8c0.4,0.4,0.3,1.1,0.3,1.1s-0.7-0.1-1-0.5c-0.4-0.4-0.3-1.1-0.3-1.1S151.5,491.4,151.9,491.8
					z"/>
				<path fill="#28A197" d="M152.8,491.8c-0.4,0.4-0.3,1.1-0.3,1.1s0.7-0.1,1-0.5c0.4-0.4,0.3-1.1,0.3-1.1S153.2,491.4,152.8,491.8z
					"/>
			</g>
		</g>
		<g display="inline">
			<g>
				<g>
					<g id="XMLID_107_">
						<g>
							<path fill="#28A197" d="M147.9,494.3h-0.1h-0.3v-7.4v-0.1c0-0.1,0.1-0.1,0.1-0.1c0.1,0,0.2,0.1,0.2,0.2L147.9,494.3
								L147.9,494.3z"/>
						</g>
					</g>
				</g>
				<path fill="#28A197" d="M147.2,490.3c0.4,0.4,0.3,1.1,0.3,1.1s-0.7-0.1-1-0.5c-0.4-0.4-0.3-1.1-0.3-1.1S146.9,489.8,147.2,490.3
					z"/>
				<path fill="#28A197" d="M148.2,486.2c0,0.6-0.5,1.1-0.5,1.1s-0.5-0.5-0.5-1.1c0-0.6,0.5-1.1,0.5-1.1S148.2,485.6,148.2,486.2z"
					/>
				<path fill="#28A197" d="M148.2,490.3c-0.4,0.4-0.3,1.1-0.3,1.1s0.7-0.1,1-0.5c0.4-0.4,0.3-1.1,0.3-1.1S148.6,489.8,148.2,490.3z
					"/>
				<path fill="#28A197" d="M147.2,487.2c0.4,0.4,0.3,1.1,0.3,1.1s-0.7-0.1-1-0.5c-0.4-0.4-0.3-1.1-0.3-1.1S146.9,486.7,147.2,487.2
					z"/>
				<path fill="#28A197" d="M148.2,487.2c-0.4,0.4-0.3,1.1-0.3,1.1s0.7-0.1,1-0.5c0.4-0.4,0.3-1.1,0.3-1.1S148.6,486.7,148.2,487.2z
					"/>
				<path fill="#28A197" d="M147.2,488.7c0.4,0.4,0.3,1.1,0.3,1.1s-0.7-0.1-1-0.5c-0.4-0.4-0.3-1.1-0.3-1.1S146.9,488.3,147.2,488.7
					z"/>
				<path fill="#28A197" d="M148.2,488.7c-0.4,0.4-0.3,1.1-0.3,1.1s0.7-0.1,1-0.5c0.4-0.4,0.3-1.1,0.3-1.1S148.6,488.3,148.2,488.7z
					"/>
				<path fill="#28A197" d="M147.2,491.8c0.4,0.4,0.3,1.1,0.3,1.1s-0.7-0.1-1-0.5c-0.4-0.4-0.3-1.1-0.3-1.1S146.9,491.4,147.2,491.8
					z"/>
				<path fill="#28A197" d="M148.2,491.8c-0.4,0.4-0.3,1.1-0.3,1.1s0.7-0.1,1-0.5c0.4-0.4,0.3-1.1,0.3-1.1S148.6,491.4,148.2,491.8z
					"/>
			</g>
		</g>
		<g display="inline">
			<g>
				<g>
					<g id="XMLID_104_">
						<g>
							<path fill="#28A197" d="M143.2,494.3h-0.1h-0.3v-7.4v-0.1c0-0.1,0.1-0.1,0.1-0.1c0.1,0,0.2,0.1,0.2,0.2L143.2,494.3
								L143.2,494.3z"/>
						</g>
					</g>
				</g>
				<path fill="#28A197" d="M142.6,490.3c0.4,0.4,0.3,1.1,0.3,1.1s-0.7-0.1-1-0.5s-0.3-1.1-0.3-1.1S142.2,489.8,142.6,490.3z"/>
				<path fill="#28A197" d="M143.5,486.2c0,0.6-0.5,1.1-0.5,1.1s-0.5-0.5-0.5-1.1c0-0.6,0.5-1.1,0.5-1.1S143.5,485.6,143.5,486.2z"
					/>
				<path fill="#28A197" d="M143.5,490.3c-0.4,0.4-0.3,1.1-0.3,1.1s0.7-0.1,1-0.5s0.3-1.1,0.3-1.1S143.9,489.8,143.5,490.3z"/>
				<path fill="#28A197" d="M142.6,487.2c0.4,0.4,0.3,1.1,0.3,1.1s-0.7-0.1-1-0.5c-0.4-0.4-0.3-1.1-0.3-1.1S142.2,486.7,142.6,487.2
					z"/>
				<path fill="#28A197" d="M143.5,487.2c-0.4,0.4-0.3,1.1-0.3,1.1s0.7-0.1,1-0.5c0.4-0.4,0.3-1.1,0.3-1.1S143.9,486.7,143.5,487.2z
					"/>
				<path fill="#28A197" d="M142.6,488.7c0.4,0.4,0.3,1.1,0.3,1.1s-0.7-0.1-1-0.5s-0.3-1.1-0.3-1.1S142.2,488.3,142.6,488.7z"/>
				<path fill="#28A197" d="M143.5,488.7c-0.4,0.4-0.3,1.1-0.3,1.1s0.7-0.1,1-0.5s0.3-1.1,0.3-1.1S143.9,488.3,143.5,488.7z"/>
				<path fill="#28A197" d="M142.6,491.8c0.4,0.4,0.3,1.1,0.3,1.1s-0.7-0.1-1-0.5c-0.4-0.4-0.3-1.1-0.3-1.1S142.2,491.4,142.6,491.8
					z"/>
				<path fill="#28A197" d="M143.5,491.8c-0.4,0.4-0.3,1.1-0.3,1.1s0.7-0.1,1-0.5c0.4-0.4,0.3-1.1,0.3-1.1S143.9,491.4,143.5,491.8z
					"/>
			</g>
		</g>
		<g display="inline">
			<g>
				<g>
					<g id="XMLID_101_">
						<g>
							<path fill="#28A197" d="M138.6,494.3h-0.1h-0.3v-7.4v-0.1c0-0.1,0.1-0.1,0.1-0.1c0.1,0,0.2,0.1,0.2,0.2L138.6,494.3
								L138.6,494.3z"/>
						</g>
					</g>
				</g>
				<path fill="#28A197" d="M137.9,490.3c0.4,0.4,0.3,1.1,0.3,1.1s-0.7-0.1-1-0.5s-0.3-1.1-0.3-1.1S137.5,489.8,137.9,490.3z"/>
				<path fill="#28A197" d="M138.9,486.2c0,0.6-0.5,1.1-0.5,1.1s-0.5-0.5-0.5-1.1c0-0.6,0.5-1.1,0.5-1.1S138.9,485.6,138.9,486.2z"
					/>
				<path fill="#28A197" d="M138.8,490.3c-0.4,0.4-0.3,1.1-0.3,1.1s0.7-0.1,1-0.5s0.3-1.1,0.3-1.1S139.2,489.8,138.8,490.3z"/>
				<path fill="#28A197" d="M137.9,487.2c0.4,0.4,0.3,1.1,0.3,1.1s-0.7-0.1-1-0.5c-0.4-0.4-0.3-1.1-0.3-1.1S137.5,486.7,137.9,487.2
					z"/>
				<path fill="#28A197" d="M138.8,487.2c-0.4,0.4-0.3,1.1-0.3,1.1s0.7-0.1,1-0.5c0.4-0.4,0.3-1.1,0.3-1.1S139.2,486.7,138.8,487.2z
					"/>
				<path fill="#28A197" d="M137.9,488.7c0.4,0.4,0.3,1.1,0.3,1.1s-0.7-0.1-1-0.5s-0.3-1.1-0.3-1.1S137.5,488.3,137.9,488.7z"/>
				<path fill="#28A197" d="M138.8,488.7c-0.4,0.4-0.3,1.1-0.3,1.1s0.7-0.1,1-0.5s0.3-1.1,0.3-1.1S139.2,488.3,138.8,488.7z"/>
				<path fill="#28A197" d="M137.9,491.8c0.4,0.4,0.3,1.1,0.3,1.1s-0.7-0.1-1-0.5c-0.4-0.4-0.3-1.1-0.3-1.1S137.5,491.4,137.9,491.8
					z"/>
				<path fill="#28A197" d="M138.8,491.8c-0.4,0.4-0.3,1.1-0.3,1.1s0.7-0.1,1-0.5c0.4-0.4,0.3-1.1,0.3-1.1S139.2,491.4,138.8,491.8z
					"/>
			</g>
		</g>
		<g display="inline">
			<g>
				<g>
					<g id="XMLID_98_">
						<g>
							<path fill="#28A197" d="M133.9,494.3h-0.1h-0.3v-7.4v-0.1c0-0.1,0.1-0.1,0.1-0.1c0.1,0,0.2,0.1,0.2,0.2L133.9,494.3
								L133.9,494.3z"/>
						</g>
					</g>
				</g>
				<path fill="#28A197" d="M133.3,490.3c0.4,0.4,0.3,1.1,0.3,1.1s-0.7-0.1-1-0.5c-0.4-0.4-0.3-1.1-0.3-1.1S132.8,489.8,133.3,490.3
					z"/>
				<path fill="#28A197" d="M134.2,486.2c0,0.6-0.5,1.1-0.5,1.1s-0.5-0.5-0.5-1.1c0-0.6,0.5-1.1,0.5-1.1S134.2,485.6,134.2,486.2z"
					/>
				<path fill="#28A197" d="M134.1,490.3c-0.4,0.4-0.3,1.1-0.3,1.1s0.7-0.1,1-0.5s0.3-1.1,0.3-1.1S134.6,489.8,134.1,490.3z"/>
				<path fill="#28A197" d="M133.3,487.2c0.4,0.4,0.3,1.1,0.3,1.1s-0.7-0.1-1-0.5c-0.4-0.4-0.3-1.1-0.3-1.1S132.8,486.7,133.3,487.2
					z"/>
				<path fill="#28A197" d="M134.1,487.2c-0.4,0.4-0.3,1.1-0.3,1.1s0.7-0.1,1-0.5c0.4-0.4,0.3-1.1,0.3-1.1S134.6,486.7,134.1,487.2z
					"/>
				<path fill="#28A197" d="M133.3,488.7c0.4,0.4,0.3,1.1,0.3,1.1s-0.7-0.1-1-0.5c-0.4-0.4-0.3-1.1-0.3-1.1S132.8,488.3,133.3,488.7
					z"/>
				<path fill="#28A197" d="M134.1,488.7c-0.4,0.4-0.3,1.1-0.3,1.1s0.7-0.1,1-0.5s0.3-1.1,0.3-1.1S134.6,488.3,134.1,488.7z"/>
				<path fill="#28A197" d="M133.3,491.8c0.4,0.4,0.3,1.1,0.3,1.1s-0.7-0.1-1-0.5c-0.4-0.4-0.3-1.1-0.3-1.1S132.8,491.4,133.3,491.8
					z"/>
				<path fill="#28A197" d="M134.1,491.8c-0.4,0.4-0.3,1.1-0.3,1.1s0.7-0.1,1-0.5c0.4-0.4,0.3-1.1,0.3-1.1S134.6,491.4,134.1,491.8z
					"/>
			</g>
		</g>
		<g display="inline">
			<g>
				<g>
					<g id="XMLID_95_">
						<g>
							<path fill="#28A197" d="M129.3,494.3h-0.1h-0.3v-7.4v-0.1c0-0.1,0.1-0.1,0.1-0.1c0.1,0,0.2,0.1,0.2,0.2L129.3,494.3
								L129.3,494.3z"/>
						</g>
					</g>
				</g>
				<path fill="#28A197" d="M128.5,490.3c0.4,0.4,0.3,1.1,0.3,1.1s-0.7-0.1-1-0.5c-0.4-0.4-0.3-1.1-0.3-1.1S128.2,489.8,128.5,490.3
					z"/>
				<path fill="#28A197" d="M129.5,486.2c0,0.6-0.5,1.1-0.5,1.1s-0.5-0.5-0.5-1.1c0-0.6,0.5-1.1,0.5-1.1S129.5,485.6,129.5,486.2z"
					/>
				<path fill="#28A197" d="M129.5,490.3c-0.4,0.4-0.3,1.1-0.3,1.1s0.7-0.1,1-0.5c0.4-0.4,0.3-1.1,0.3-1.1S129.9,489.8,129.5,490.3z
					"/>
				<path fill="#28A197" d="M128.5,487.2c0.4,0.4,0.3,1.1,0.3,1.1s-0.7-0.1-1-0.5c-0.4-0.4-0.3-1.1-0.3-1.1S128.2,486.7,128.5,487.2
					z"/>
				<path fill="#28A197" d="M129.5,487.2c-0.4,0.4-0.3,1.1-0.3,1.1s0.7-0.1,1-0.5c0.4-0.4,0.3-1.1,0.3-1.1S129.9,486.7,129.5,487.2z
					"/>
				<path fill="#28A197" d="M128.5,488.7c0.4,0.4,0.3,1.1,0.3,1.1s-0.7-0.1-1-0.5c-0.4-0.4-0.3-1.1-0.3-1.1S128.2,488.3,128.5,488.7
					z"/>
				<path fill="#28A197" d="M129.5,488.7c-0.4,0.4-0.3,1.1-0.3,1.1s0.7-0.1,1-0.5c0.4-0.4,0.3-1.1,0.3-1.1S129.9,488.3,129.5,488.7z
					"/>
				<path fill="#28A197" d="M128.5,491.8c0.4,0.4,0.3,1.1,0.3,1.1s-0.7-0.1-1-0.5c-0.4-0.4-0.3-1.1-0.3-1.1S128.2,491.4,128.5,491.8
					z"/>
				<path fill="#28A197" d="M129.5,491.8c-0.4,0.4-0.3,1.1-0.3,1.1s0.7-0.1,1-0.5c0.4-0.4,0.3-1.1,0.3-1.1S129.9,491.4,129.5,491.8z
					"/>
			</g>
		</g>
		<g display="inline">
			<g>
				<g>
					<g id="XMLID_92_">
						<g>
							<path fill="#28A197" d="M124.5,494.3h-0.1h-0.2v-7.4v-0.1c0-0.1,0.1-0.1,0.1-0.1s0.2,0.1,0.2,0.2V494.3L124.5,494.3z"/>
						</g>
					</g>
				</g>
				<path fill="#28A197" d="M123.9,490.3c0.4,0.4,0.3,1.1,0.3,1.1s-0.7-0.1-1-0.5c-0.4-0.4-0.3-1.1-0.3-1.1S123.5,489.8,123.9,490.3
					z"/>
				<path fill="#28A197" d="M124.8,486.2c0,0.6-0.5,1.1-0.5,1.1s-0.5-0.5-0.5-1.1c0-0.6,0.5-1.1,0.5-1.1S124.8,485.6,124.8,486.2z"
					/>
				<path fill="#28A197" d="M124.8,490.3c-0.4,0.4-0.3,1.1-0.3,1.1s0.7-0.1,1-0.5s0.3-1.1,0.3-1.1S125.2,489.8,124.8,490.3z"/>
				<path fill="#28A197" d="M123.9,487.2c0.4,0.4,0.3,1.1,0.3,1.1s-0.7-0.1-1-0.5c-0.4-0.4-0.3-1.1-0.3-1.1S123.5,486.7,123.9,487.2
					z"/>
				<path fill="#28A197" d="M124.8,487.2c-0.4,0.4-0.3,1.1-0.3,1.1s0.7-0.1,1-0.5c0.4-0.4,0.3-1.1,0.3-1.1S125.2,486.7,124.8,487.2z
					"/>
				<path fill="#28A197" d="M123.9,488.7c0.4,0.4,0.3,1.1,0.3,1.1s-0.7-0.1-1-0.5c-0.4-0.4-0.3-1.1-0.3-1.1S123.5,488.3,123.9,488.7
					z"/>
				<path fill="#28A197" d="M124.8,488.7c-0.4,0.4-0.3,1.1-0.3,1.1s0.7-0.1,1-0.5s0.3-1.1,0.3-1.1S125.2,488.3,124.8,488.7z"/>
				<path fill="#28A197" d="M123.9,491.8c0.4,0.4,0.3,1.1,0.3,1.1s-0.7-0.1-1-0.5c-0.4-0.4-0.3-1.1-0.3-1.1S123.5,491.4,123.9,491.8
					z"/>
				<path fill="#28A197" d="M124.8,491.8c-0.4,0.4-0.3,1.1-0.3,1.1s0.7-0.1,1-0.5c0.4-0.4,0.3-1.1,0.3-1.1S125.2,491.4,124.8,491.8z
					"/>
			</g>
		</g>
		<g display="inline">
			<g>
				<g>
					<g id="XMLID_89_">
						<g>
							<path fill="#28A197" d="M119.9,494.3h-0.1h-0.3v-7.4v-0.1c0-0.1,0.1-0.1,0.1-0.1c0.1,0,0.2,0.1,0.2,0.2L119.9,494.3
								L119.9,494.3z"/>
						</g>
					</g>
				</g>
				<path fill="#28A197" d="M119.2,490.3c0.4,0.4,0.3,1.1,0.3,1.1s-0.7-0.1-1-0.5c-0.4-0.4-0.3-1.1-0.3-1.1S118.8,489.8,119.2,490.3
					z"/>
				<path fill="#28A197" d="M120.2,486.2c0,0.6-0.5,1.1-0.5,1.1s-0.5-0.5-0.5-1.1c0-0.6,0.5-1.1,0.5-1.1S120.2,485.6,120.2,486.2z"
					/>
				<path fill="#28A197" d="M120.2,490.3c-0.4,0.4-0.3,1.1-0.3,1.1s0.7-0.1,1-0.5s0.3-1.1,0.3-1.1S120.5,489.8,120.2,490.3z"/>
				<path fill="#28A197" d="M119.2,487.2c0.4,0.4,0.3,1.1,0.3,1.1s-0.7-0.1-1-0.5c-0.4-0.4-0.3-1.1-0.3-1.1S118.8,486.7,119.2,487.2
					z"/>
				<path fill="#28A197" d="M120.2,487.2c-0.4,0.4-0.3,1.1-0.3,1.1s0.7-0.1,1-0.5c0.4-0.4,0.3-1.1,0.3-1.1S120.5,486.7,120.2,487.2z
					"/>
				<path fill="#28A197" d="M119.2,488.7c0.4,0.4,0.3,1.1,0.3,1.1s-0.7-0.1-1-0.5c-0.4-0.4-0.3-1.1-0.3-1.1S118.8,488.3,119.2,488.7
					z"/>
				<path fill="#28A197" d="M120.2,488.7c-0.4,0.4-0.3,1.1-0.3,1.1s0.7-0.1,1-0.5s0.3-1.1,0.3-1.1S120.5,488.3,120.2,488.7z"/>
				<path fill="#28A197" d="M119.2,491.8c0.4,0.4,0.3,1.1,0.3,1.1s-0.7-0.1-1-0.5c-0.4-0.4-0.3-1.1-0.3-1.1S118.8,491.4,119.2,491.8
					z"/>
				<path fill="#28A197" d="M120.2,491.8c-0.4,0.4-0.3,1.1-0.3,1.1s0.7-0.1,1-0.5c0.4-0.4,0.3-1.1,0.3-1.1S120.5,491.4,120.2,491.8z
					"/>
			</g>
		</g>
		<g display="inline">
			<g>
				<g>
					<g id="XMLID_86_">
						<g>
							<path fill="#28A197" d="M115.2,494.3h-0.1h-0.3v-7.4v-0.1c0-0.1,0.1-0.1,0.1-0.1c0.1,0,0.2,0.1,0.2,0.2L115.2,494.3
								L115.2,494.3z"/>
						</g>
					</g>
				</g>
				<path fill="#28A197" d="M114.6,490.3c0.4,0.4,0.3,1.1,0.3,1.1s-0.7-0.1-1-0.5c-0.4-0.4-0.3-1.1-0.3-1.1S114.2,489.8,114.6,490.3
					z"/>
				<path fill="#28A197" d="M115.5,486.2c0,0.6-0.5,1.1-0.5,1.1s-0.5-0.5-0.5-1.1c0-0.6,0.5-1.1,0.5-1.1S115.5,485.6,115.5,486.2z"
					/>
				<path fill="#28A197" d="M115.5,490.3c-0.4,0.4-0.3,1.1-0.3,1.1s0.7-0.1,1-0.5c0.4-0.4,0.3-1.1,0.3-1.1S115.9,489.8,115.5,490.3z
					"/>
				<path fill="#28A197" d="M114.6,487.2c0.4,0.4,0.3,1.1,0.3,1.1s-0.7-0.1-1-0.5c-0.4-0.4-0.3-1.1-0.3-1.1S114.2,486.7,114.6,487.2
					z"/>
				<path fill="#28A197" d="M115.5,487.2c-0.4,0.4-0.3,1.1-0.3,1.1s0.7-0.1,1-0.5c0.4-0.4,0.3-1.1,0.3-1.1S115.9,486.7,115.5,487.2z
					"/>
				<path fill="#28A197" d="M114.6,488.7c0.4,0.4,0.3,1.1,0.3,1.1s-0.7-0.1-1-0.5c-0.4-0.4-0.3-1.1-0.3-1.1S114.2,488.3,114.6,488.7
					z"/>
				<path fill="#28A197" d="M115.5,488.7c-0.4,0.4-0.3,1.1-0.3,1.1s0.7-0.1,1-0.5c0.4-0.4,0.3-1.1,0.3-1.1S115.9,488.3,115.5,488.7z
					"/>
				<path fill="#28A197" d="M114.6,491.8c0.4,0.4,0.3,1.1,0.3,1.1s-0.7-0.1-1-0.5c-0.4-0.4-0.3-1.1-0.3-1.1S114.2,491.4,114.6,491.8
					z"/>
				<path fill="#28A197" d="M115.5,491.8c-0.4,0.4-0.3,1.1-0.3,1.1s0.7-0.1,1-0.5c0.4-0.4,0.3-1.1,0.3-1.1S115.9,491.4,115.5,491.8z
					"/>
			</g>
		</g>
		<g display="inline">
			<g>
				<g>
					<g id="XMLID_83_">
						<g>
							<path fill="#28A197" d="M110.6,494.3h-0.1h-0.3v-7.4v-0.1c0-0.1,0.1-0.1,0.1-0.1c0.1,0,0.2,0.1,0.2,0.2L110.6,494.3
								L110.6,494.3z"/>
						</g>
					</g>
				</g>
				<path fill="#28A197" d="M109.9,490.3c0.4,0.4,0.3,1.1,0.3,1.1s-0.7-0.1-1-0.5s-0.3-1.1-0.3-1.1S109.5,489.8,109.9,490.3z"/>
				<path fill="#28A197" d="M110.9,486.2c0,0.6-0.5,1.1-0.5,1.1s-0.5-0.5-0.5-1.1c0-0.6,0.5-1.1,0.5-1.1S110.9,485.6,110.9,486.2z"
					/>
				<path fill="#28A197" d="M110.9,490.3c-0.4,0.4-0.3,1.1-0.3,1.1s0.7-0.1,1-0.5c0.4-0.4,0.3-1.1,0.3-1.1S111.2,489.8,110.9,490.3z
					"/>
				<path fill="#28A197" d="M109.9,487.2c0.4,0.4,0.3,1.1,0.3,1.1s-0.7-0.1-1-0.5c-0.4-0.4-0.3-1.1-0.3-1.1S109.5,486.7,109.9,487.2
					z"/>
				<path fill="#28A197" d="M110.9,487.2c-0.4,0.4-0.3,1.1-0.3,1.1s0.7-0.1,1-0.5c0.4-0.4,0.3-1.1,0.3-1.1S111.2,486.7,110.9,487.2z
					"/>
				<path fill="#28A197" d="M109.9,488.7c0.4,0.4,0.3,1.1,0.3,1.1s-0.7-0.1-1-0.5s-0.3-1.1-0.3-1.1S109.5,488.3,109.9,488.7z"/>
				<path fill="#28A197" d="M110.9,488.7c-0.4,0.4-0.3,1.1-0.3,1.1s0.7-0.1,1-0.5c0.4-0.4,0.3-1.1,0.3-1.1S111.2,488.3,110.9,488.7z
					"/>
				<path fill="#28A197" d="M109.9,491.8c0.4,0.4,0.3,1.1,0.3,1.1s-0.7-0.1-1-0.5c-0.4-0.4-0.3-1.1-0.3-1.1S109.5,491.4,109.9,491.8
					z"/>
				<path fill="#28A197" d="M110.9,491.8c-0.4,0.4-0.3,1.1-0.3,1.1s0.7-0.1,1-0.5c0.4-0.4,0.3-1.1,0.3-1.1S111.2,491.4,110.9,491.8z
					"/>
			</g>
		</g>
		<g display="inline">
			<g>
				<g>
					<g id="XMLID_80_">
						<g>
							<path fill="#28A197" d="M105.9,494.3h-0.1h-0.3v-7.4v-0.1c0-0.1,0.1-0.1,0.1-0.1c0.1,0,0.2,0.1,0.2,0.2L105.9,494.3
								L105.9,494.3z"/>
						</g>
					</g>
				</g>
				<path fill="#28A197" d="M105.2,490.3c0.4,0.4,0.3,1.1,0.3,1.1s-0.7-0.1-1-0.5c-0.4-0.4-0.3-1.1-0.3-1.1S104.9,489.8,105.2,490.3
					z"/>
				<path fill="#28A197" d="M106.2,486.2c0,0.6-0.5,1.1-0.5,1.1s-0.5-0.5-0.5-1.1c0-0.6,0.5-1.1,0.5-1.1S106.2,485.6,106.2,486.2z"
					/>
				<path fill="#28A197" d="M106.1,490.3c-0.4,0.4-0.3,1.1-0.3,1.1s0.7-0.1,1-0.5c0.4-0.4,0.3-1.1,0.3-1.1S106.6,489.8,106.1,490.3z
					"/>
				<path fill="#28A197" d="M105.2,487.2c0.4,0.4,0.3,1.1,0.3,1.1s-0.7-0.1-1-0.5c-0.4-0.4-0.3-1.1-0.3-1.1S104.9,486.7,105.2,487.2
					z"/>
				<path fill="#28A197" d="M106.1,487.2c-0.4,0.4-0.3,1.1-0.3,1.1s0.7-0.1,1-0.5c0.4-0.4,0.3-1.1,0.3-1.1S106.6,486.7,106.1,487.2z
					"/>
				<path fill="#28A197" d="M105.2,488.7c0.4,0.4,0.3,1.1,0.3,1.1s-0.7-0.1-1-0.5c-0.4-0.4-0.3-1.1-0.3-1.1S104.9,488.3,105.2,488.7
					z"/>
				<path fill="#28A197" d="M106.1,488.7c-0.4,0.4-0.3,1.1-0.3,1.1s0.7-0.1,1-0.5c0.4-0.4,0.3-1.1,0.3-1.1S106.6,488.3,106.1,488.7z
					"/>
				<path fill="#28A197" d="M105.2,491.8c0.4,0.4,0.3,1.1,0.3,1.1s-0.7-0.1-1-0.5c-0.4-0.4-0.3-1.1-0.3-1.1S104.9,491.4,105.2,491.8
					z"/>
				<path fill="#28A197" d="M106.1,491.8c-0.4,0.4-0.3,1.1-0.3,1.1s0.7-0.1,1-0.5c0.4-0.4,0.3-1.1,0.3-1.1S106.6,491.4,106.1,491.8z
					"/>
			</g>
		</g>
		<g display="inline">
			<g>
				<g>
					<g id="XMLID_77_">
						<g>
							<path fill="#28A197" d="M101.3,494.3h-0.1h-0.3v-7.4v-0.1c0-0.1,0.1-0.1,0.1-0.1c0.1,0,0.2,0.1,0.2,0.2L101.3,494.3
								L101.3,494.3z"/>
						</g>
					</g>
				</g>
				<path fill="#28A197" d="M100.6,490.3c0.4,0.4,0.3,1.1,0.3,1.1s-0.7-0.1-1-0.5c-0.4-0.4-0.3-1.1-0.3-1.1S100.2,489.8,100.6,490.3
					z"/>
				<path fill="#28A197" d="M101.6,486.2c0,0.6-0.5,1.1-0.5,1.1s-0.5-0.5-0.5-1.1c0-0.6,0.5-1.1,0.5-1.1S101.6,485.6,101.6,486.2z"
					/>
				<path fill="#28A197" d="M101.5,490.3c-0.4,0.4-0.3,1.1-0.3,1.1s0.7-0.1,1-0.5c0.4-0.4,0.3-1.1,0.3-1.1S101.9,489.8,101.5,490.3z
					"/>
				<path fill="#28A197" d="M100.6,487.2c0.4,0.4,0.3,1.1,0.3,1.1s-0.7-0.1-1-0.5c-0.4-0.4-0.3-1.1-0.3-1.1S100.2,486.7,100.6,487.2
					z"/>
				<path fill="#28A197" d="M101.5,487.2c-0.4,0.4-0.3,1.1-0.3,1.1s0.7-0.1,1-0.5c0.4-0.4,0.3-1.1,0.3-1.1S101.9,486.7,101.5,487.2z
					"/>
				<path fill="#28A197" d="M100.6,488.7c0.4,0.4,0.3,1.1,0.3,1.1s-0.7-0.1-1-0.5c-0.4-0.4-0.3-1.1-0.3-1.1S100.2,488.3,100.6,488.7
					z"/>
				<path fill="#28A197" d="M101.5,488.7c-0.4,0.4-0.3,1.1-0.3,1.1s0.7-0.1,1-0.5c0.4-0.4,0.3-1.1,0.3-1.1S101.9,488.3,101.5,488.7z
					"/>
				<path fill="#28A197" d="M100.6,491.8c0.4,0.4,0.3,1.1,0.3,1.1s-0.7-0.1-1-0.5c-0.4-0.4-0.3-1.1-0.3-1.1S100.2,491.4,100.6,491.8
					z"/>
				<path fill="#28A197" d="M101.5,491.8c-0.4,0.4-0.3,1.1-0.3,1.1s0.7-0.1,1-0.5c0.4-0.4,0.3-1.1,0.3-1.1S101.9,491.4,101.5,491.8z
					"/>
			</g>
		</g>
		<g display="inline">
			<g>
				<g>
					<g id="XMLID_74_">
						<g>
							<path fill="#28A197" d="M96.5,494.3h-0.1h-0.3v-7.4v-0.1c0-0.1,0.1-0.1,0.1-0.1c0.1,0,0.2,0.1,0.2,0.2L96.5,494.3L96.5,494.3
								z"/>
						</g>
					</g>
				</g>
				<path fill="#28A197" d="M95.9,490.3c0.4,0.4,0.3,1.1,0.3,1.1s-0.7-0.1-1-0.5c-0.4-0.4-0.3-1.1-0.3-1.1S95.5,489.8,95.9,490.3z"
					/>
				<path fill="#28A197" d="M96.9,486.2c0,0.6-0.5,1.1-0.5,1.1s-0.5-0.5-0.5-1.1c0-0.6,0.5-1.1,0.5-1.1S96.8,485.6,96.9,486.2z"/>
				<path fill="#28A197" d="M96.8,490.3c-0.4,0.4-0.3,1.1-0.3,1.1s0.7-0.1,1-0.5c0.4-0.4,0.3-1.1,0.3-1.1S97.2,489.8,96.8,490.3z"/>
				<path fill="#28A197" d="M95.9,487.2c0.4,0.4,0.3,1.1,0.3,1.1s-0.7-0.1-1-0.5c-0.4-0.4-0.3-1.1-0.3-1.1S95.5,486.7,95.9,487.2z"
					/>
				<path fill="#28A197" d="M96.8,487.2c-0.4,0.4-0.3,1.1-0.3,1.1s0.7-0.1,1-0.5c0.4-0.4,0.3-1.1,0.3-1.1S97.2,486.7,96.8,487.2z"/>
				<path fill="#28A197" d="M95.9,488.7c0.4,0.4,0.3,1.1,0.3,1.1s-0.7-0.1-1-0.5c-0.4-0.4-0.3-1.1-0.3-1.1S95.5,488.3,95.9,488.7z"
					/>
				<path fill="#28A197" d="M96.8,488.7c-0.4,0.4-0.3,1.1-0.3,1.1s0.7-0.1,1-0.5c0.4-0.4,0.3-1.1,0.3-1.1S97.2,488.3,96.8,488.7z"/>
				<path fill="#28A197" d="M95.9,491.8c0.4,0.4,0.3,1.1,0.3,1.1s-0.7-0.1-1-0.5c-0.4-0.4-0.3-1.1-0.3-1.1S95.5,491.4,95.9,491.8z"
					/>
				<path fill="#28A197" d="M96.8,491.8c-0.4,0.4-0.3,1.1-0.3,1.1s0.7-0.1,1-0.5c0.4-0.4,0.3-1.1,0.3-1.1S97.2,491.4,96.8,491.8z"/>
			</g>
		</g>
		<g display="inline">
			<g>
				<g>
					<g id="XMLID_71_">
						<g>
							<path fill="#28A197" d="M91.9,494.3h-0.1h-0.3v-7.4v-0.1c0-0.1,0.1-0.1,0.1-0.1c0.1,0,0.2,0.1,0.2,0.2L91.9,494.3L91.9,494.3
								z"/>
						</g>
					</g>
				</g>
				<path fill="#28A197" d="M91.2,490.3c0.4,0.4,0.3,1.1,0.3,1.1s-0.7-0.1-1-0.5s-0.3-1.1-0.3-1.1S90.8,489.8,91.2,490.3z"/>
				<path fill="#28A197" d="M92.2,486.2c0,0.6-0.5,1.1-0.5,1.1s-0.5-0.5-0.5-1.1c0-0.6,0.5-1.1,0.5-1.1S92.2,485.6,92.2,486.2z"/>
				<path fill="#28A197" d="M92.2,490.3c-0.4,0.4-0.3,1.1-0.3,1.1s0.7-0.1,1-0.5c0.4-0.4,0.3-1.1,0.3-1.1S92.5,489.8,92.2,490.3z"/>
				<path fill="#28A197" d="M91.2,487.2c0.4,0.4,0.3,1.1,0.3,1.1s-0.7-0.1-1-0.5c-0.4-0.4-0.3-1.1-0.3-1.1S90.8,486.7,91.2,487.2z"
					/>
				<path fill="#28A197" d="M92.2,487.2c-0.4,0.4-0.3,1.1-0.3,1.1s0.7-0.1,1-0.5c0.4-0.4,0.3-1.1,0.3-1.1S92.5,486.7,92.2,487.2z"/>
				<path fill="#28A197" d="M91.2,488.7c0.4,0.4,0.3,1.1,0.3,1.1s-0.7-0.1-1-0.5s-0.3-1.1-0.3-1.1S90.8,488.3,91.2,488.7z"/>
				<path fill="#28A197" d="M92.2,488.7c-0.4,0.4-0.3,1.1-0.3,1.1s0.7-0.1,1-0.5c0.4-0.4,0.3-1.1,0.3-1.1S92.5,488.3,92.2,488.7z"/>
				<path fill="#28A197" d="M91.2,491.8c0.4,0.4,0.3,1.1,0.3,1.1s-0.7-0.1-1-0.5c-0.4-0.4-0.3-1.1-0.3-1.1S90.8,491.4,91.2,491.8z"
					/>
				<path fill="#28A197" d="M92.2,491.8c-0.4,0.4-0.3,1.1-0.3,1.1s0.7-0.1,1-0.5c0.4-0.4,0.3-1.1,0.3-1.1S92.5,491.4,92.2,491.8z"/>
			</g>
		</g>
		<g display="inline">
			<g>
				<g>
					<g id="XMLID_68_">
						<g>
							<path fill="#28A197" d="M87.2,494.3h-0.1h-0.3v-7.4v-0.1c0-0.1,0.1-0.1,0.1-0.1c0.1,0,0.2,0.1,0.2,0.2L87.2,494.3L87.2,494.3
								z"/>
						</g>
					</g>
				</g>
				<path fill="#28A197" d="M86.6,490.3c0.4,0.4,0.3,1.1,0.3,1.1s-0.7-0.1-1-0.5c-0.4-0.4-0.3-1.1-0.3-1.1S86.2,489.8,86.6,490.3z"
					/>
				<path fill="#28A197" d="M87.5,486.2c0,0.6-0.5,1.1-0.5,1.1s-0.5-0.5-0.5-1.1c0-0.6,0.5-1.1,0.5-1.1S87.5,485.6,87.5,486.2z"/>
				<path fill="#28A197" d="M87.5,490.3c-0.4,0.4-0.3,1.1-0.3,1.1s0.7-0.1,1-0.5c0.4-0.4,0.3-1.1,0.3-1.1S87.9,489.8,87.5,490.3z"/>
				<path fill="#28A197" d="M86.6,487.2c0.4,0.4,0.3,1.1,0.3,1.1s-0.7-0.1-1-0.5c-0.4-0.4-0.3-1.1-0.3-1.1S86.2,486.7,86.6,487.2z"
					/>
				<path fill="#28A197" d="M87.5,487.2c-0.4,0.4-0.3,1.1-0.3,1.1s0.7-0.1,1-0.5c0.4-0.4,0.3-1.1,0.3-1.1S87.9,486.7,87.5,487.2z"/>
				<path fill="#28A197" d="M86.6,488.7c0.4,0.4,0.3,1.1,0.3,1.1s-0.7-0.1-1-0.5c-0.4-0.4-0.3-1.1-0.3-1.1S86.2,488.3,86.6,488.7z"
					/>
				<path fill="#28A197" d="M87.5,488.7c-0.4,0.4-0.3,1.1-0.3,1.1s0.7-0.1,1-0.5c0.4-0.4,0.3-1.1,0.3-1.1S87.9,488.3,87.5,488.7z"/>
				<path fill="#28A197" d="M86.6,491.8c0.4,0.4,0.3,1.1,0.3,1.1s-0.7-0.1-1-0.5c-0.4-0.4-0.3-1.1-0.3-1.1S86.2,491.4,86.6,491.8z"
					/>
				<path fill="#28A197" d="M87.5,491.8c-0.4,0.4-0.3,1.1-0.3,1.1s0.7-0.1,1-0.5c0.4-0.4,0.3-1.1,0.3-1.1S87.9,491.4,87.5,491.8z"/>
			</g>
		</g>
		<g display="inline">
			<g>
				<g>
					<g id="XMLID_65_">
						<g>
							<path fill="#28A197" d="M82.6,494.3h-0.1h-0.3v-7.4v-0.1c0-0.1,0.1-0.1,0.1-0.1c0.1,0,0.2,0.1,0.2,0.2L82.6,494.3L82.6,494.3
								z"/>
						</g>
					</g>
				</g>
				<path fill="#28A197" d="M81.9,490.3c0.4,0.4,0.3,1.1,0.3,1.1s-0.7-0.1-1-0.5s-0.3-1.1-0.3-1.1S81.5,489.8,81.9,490.3z"/>
				<path fill="#28A197" d="M82.9,486.2c0,0.6-0.5,1.1-0.5,1.1s-0.5-0.5-0.5-1.1c0-0.6,0.5-1.1,0.5-1.1S82.9,485.6,82.9,486.2z"/>
				<path fill="#28A197" d="M82.9,490.3c-0.4,0.4-0.3,1.1-0.3,1.1s0.7-0.1,1-0.5c0.4-0.4,0.3-1.1,0.3-1.1S83.2,489.8,82.9,490.3z"/>
				<path fill="#28A197" d="M81.9,487.2c0.4,0.4,0.3,1.1,0.3,1.1s-0.7-0.1-1-0.5c-0.4-0.4-0.3-1.1-0.3-1.1S81.5,486.7,81.9,487.2z"
					/>
				<path fill="#28A197" d="M82.9,487.2c-0.4,0.4-0.3,1.1-0.3,1.1s0.7-0.1,1-0.5c0.4-0.4,0.3-1.1,0.3-1.1S83.2,486.7,82.9,487.2z"/>
				<path fill="#28A197" d="M81.9,488.7c0.4,0.4,0.3,1.1,0.3,1.1s-0.7-0.1-1-0.5s-0.3-1.1-0.3-1.1S81.5,488.3,81.9,488.7z"/>
				<path fill="#28A197" d="M82.9,488.7c-0.4,0.4-0.3,1.1-0.3,1.1s0.7-0.1,1-0.5c0.4-0.4,0.3-1.1,0.3-1.1S83.2,488.3,82.9,488.7z"/>
				<path fill="#28A197" d="M81.9,491.8c0.4,0.4,0.3,1.1,0.3,1.1s-0.7-0.1-1-0.5c-0.4-0.4-0.3-1.1-0.3-1.1S81.5,491.4,81.9,491.8z"
					/>
				<path fill="#28A197" d="M82.9,491.8c-0.4,0.4-0.3,1.1-0.3,1.1s0.7-0.1,1-0.5c0.4-0.4,0.3-1.1,0.3-1.1S83.2,491.4,82.9,491.8z"/>
			</g>
		</g>
		<g display="inline">
			<g>
				<g>
					<g id="XMLID_62_">
						<g>
							<path fill="#28A197" d="M77.9,494.3h-0.1h-0.3v-7.4v-0.1c0-0.1,0.1-0.1,0.1-0.1c0.1,0,0.2,0.1,0.2,0.2L77.9,494.3L77.9,494.3
								z"/>
						</g>
					</g>
				</g>
				<path fill="#28A197" d="M77.2,490.3c0.4,0.4,0.3,1.1,0.3,1.1s-0.7-0.1-1-0.5c-0.4-0.4-0.3-1.1-0.3-1.1S76.9,489.8,77.2,490.3z"
					/>
				<path fill="#28A197" d="M78.2,486.2c0,0.6-0.5,1.1-0.5,1.1s-0.5-0.5-0.5-1.1c0-0.6,0.5-1.1,0.5-1.1S78.2,485.6,78.2,486.2z"/>
				<path fill="#28A197" d="M78.2,490.3c-0.4,0.4-0.3,1.1-0.3,1.1s0.7-0.1,1-0.5c0.4-0.4,0.3-1.1,0.3-1.1S78.6,489.8,78.2,490.3z"/>
				<path fill="#28A197" d="M77.2,487.2c0.4,0.4,0.3,1.1,0.3,1.1s-0.7-0.1-1-0.5c-0.4-0.4-0.3-1.1-0.3-1.1S76.9,486.7,77.2,487.2z"
					/>
				<path fill="#28A197" d="M78.2,487.2c-0.4,0.4-0.3,1.1-0.3,1.1s0.7-0.1,1-0.5c0.4-0.4,0.3-1.1,0.3-1.1S78.6,486.7,78.2,487.2z"/>
				<path fill="#28A197" d="M77.2,488.7c0.4,0.4,0.3,1.1,0.3,1.1s-0.7-0.1-1-0.5c-0.4-0.4-0.3-1.1-0.3-1.1S76.9,488.3,77.2,488.7z"
					/>
				<path fill="#28A197" d="M78.2,488.7c-0.4,0.4-0.3,1.1-0.3,1.1s0.7-0.1,1-0.5c0.4-0.4,0.3-1.1,0.3-1.1S78.6,488.3,78.2,488.7z"/>
				<path fill="#28A197" d="M77.2,491.8c0.4,0.4,0.3,1.1,0.3,1.1s-0.7-0.1-1-0.5c-0.4-0.4-0.3-1.1-0.3-1.1S76.9,491.4,77.2,491.8z"
					/>
				<path fill="#28A197" d="M78.2,491.8c-0.4,0.4-0.3,1.1-0.3,1.1s0.7-0.1,1-0.5c0.4-0.4,0.3-1.1,0.3-1.1S78.6,491.4,78.2,491.8z"/>
			</g>
		</g>
	</g>
	<polygon display="none" fill="#F5F5F5" stroke="#5A6378" stroke-width="8" stroke-miterlimit="10" points="337.6,433.4 
		406.6,433.4 406.6,492.6 337.6,492.6 	"/>
	<path display="none" fill="#5A6378" d="M410.1,472.3h-1.6v1v5.9v1.1h1.6v-1.1c0,0,0.4,0,2.1,0s1.6,1.7,1.6,1.7v2h-1.1v1.6h8.6V483
		h-1.1v-4.8c0,0,0-4.8-5.1-4.8c-1.9,0-5,0-5,0V472.3L410.1,472.3z"/>
	<g display="none">
		<path display="inline" fill="#D53980" d="M350.3,455.4c0,0.1,0.1,0.1,0.1,0.1c0.1,0.1,0.1,0.1,0.1,0.1c0.1,0,0.1,0.1,0.2,0.1l0,0
			l0,0c-0.1-0.1-0.1-0.2-0.1-0.3c0-0.1,0-0.1,0-0.1l0.1-0.1l0.1-0.1c0,0,0.1-0.1,0.1-0.1l0.1-0.1c0,0,0.1-0.1,0.1-0.1
			c0-0.1,0-0.1,0-0.1c0-0.1,0-0.1,0-0.2c0-0.1-0.1-0.1-0.1-0.1c0-0.1-0.1-0.1-0.1-0.1c-0.1-0.1-0.1-0.1-0.1-0.1
			c-0.1,0-0.1-0.1-0.2-0.1l0,0l0,0c0.1,0.1,0.1,0.2,0.1,0.3s0,0.1,0,0.1l-0.1,0.1l-0.1,0.1c0,0-0.1,0.1-0.1,0.1l-0.1,0.1
			c0,0-0.1,0.1-0.1,0.1c0,0.1,0,0.1,0,0.1s0,0.1,0,0.2C350.2,455.3,350.2,455.4,350.3,455.4z"/>
	</g>
	<path display="none" fill="#5A6378" d="M321.2,494H339v-20.5h-14.3c-2,0-3.6,1.6-3.6,3.5L321.2,494L321.2,494z"/>
	<g display="none">
		<path display="inline" fill="#F5F5F5" d="M334.2,480.7c-0.2-0.9-1.1-1.4-2-1.2c-0.7,0.1-1.9,0.9-2.4,1.7c0,0,0,0-0.1,0
			c0-0.9-0.7-2.1-1.1-2.7c-0.7-0.7-1.7-0.7-2.4-0.1c-0.7,0.6-0.7,1.7-0.1,2.4c0.4,0.4,1.6,1.1,2.4,1.3c0,0.1,0,0.1,0.1,0.2
			c-0.7,0.5-1.3,1.7-1.5,2.3c-0.2,0.9,0.4,1.8,1.3,2c0.9,0.2,1.8-0.4,2-1.3c0.1-0.7,0.1-1.9-0.3-2.7c0.1-0.1,0.1-0.1,0.1-0.1
			c0.8,0.4,2.1,0.4,2.7,0.3C333.8,482.5,334.4,481.6,334.2,480.7z M329.5,482.8c-0.4,0-0.8-0.4-0.8-0.8s0.4-0.8,0.8-0.8
			s0.8,0.4,0.8,0.8S330,482.8,329.5,482.8z"/>
		<path display="inline" fill="#F5F5F5" d="M329.5,481.7c-0.1,0-0.3,0.1-0.3,0.3c0,0.1,0.1,0.3,0.3,0.3s0.3-0.1,0.3-0.3
			C329.8,481.8,329.7,481.7,329.5,481.7z"/>
	</g>
	<g display="none">
		<g display="inline">
			<path fill="#F5F5F5" d="M441.2,498.1h-3c-0.4,0-0.7-0.3-0.7-0.7V490c0-0.4,0.3-0.7,0.7-0.7h3c0.4,0,0.7,0.3,0.7,0.7v7.5
				C441.9,497.8,441.5,498.1,441.2,498.1z"/>
		</g>
		<g display="inline">
			<path fill="#F5F5F5" d="M436,498.1h-3c-0.4,0-0.7-0.3-0.7-0.7V490c0-0.4,0.3-0.7,0.7-0.7h3c0.4,0,0.7,0.3,0.7,0.7v7.5
				C436.7,497.8,436.4,498.1,436,498.1z"/>
		</g>
		<g display="inline">
			<path fill="#F5F5F5" d="M430.8,498.1h-3c-0.4,0-0.7-0.3-0.7-0.7V490c0-0.4,0.3-0.7,0.7-0.7h3c0.4,0,0.7,0.3,0.7,0.7v7.5
				C431.5,497.8,431.2,498.1,430.8,498.1z"/>
		</g>
		<g display="inline">
			<path fill="#F5F5F5" d="M425.6,498.1h-3c-0.4,0-0.7-0.3-0.7-0.7V490c0-0.4,0.3-0.7,0.7-0.7h3c0.4,0,0.7,0.3,0.7,0.7v7.5
				C426.3,497.8,426,498.1,425.6,498.1z"/>
		</g>
		<g display="inline">
			<path fill="#F5F5F5" d="M420.5,498.1h-3c-0.4,0-0.7-0.3-0.7-0.7V490c0-0.4,0.3-0.7,0.7-0.7h3c0.4,0,0.7,0.3,0.7,0.7v7.5
				C421.1,497.8,420.8,498.1,420.5,498.1z"/>
		</g>
		<g display="inline">
			<path fill="#F5F5F5" d="M415.3,498.1h-3c-0.4,0-0.7-0.3-0.7-0.7V490c0-0.4,0.3-0.7,0.7-0.7h3c0.4,0,0.7,0.3,0.7,0.7v7.5
				C416,497.8,415.7,498.1,415.3,498.1z"/>
		</g>
		<g display="inline">
			<path fill="#F5F5F5" d="M410.1,498.1h-3c-0.4,0-0.7-0.3-0.7-0.7V490c0-0.4,0.3-0.7,0.7-0.7h3c0.4,0,0.7,0.3,0.7,0.7v7.5
				C410.8,497.8,410.5,498.1,410.1,498.1z"/>
		</g>
		<g display="inline">
			<path fill="#F5F5F5" d="M404.9,498.1h-3c-0.4,0-0.7-0.3-0.7-0.7V490c0-0.4,0.3-0.7,0.7-0.7h3c0.4,0,0.7,0.3,0.7,0.7v7.5
				C405.5,497.8,405.3,498.1,404.9,498.1z"/>
		</g>
		<g display="inline">
			<path fill="#F5F5F5" d="M399.7,498.1h-3c-0.4,0-0.7-0.3-0.7-0.7V490c0-0.4,0.3-0.7,0.7-0.7h3c0.4,0,0.7,0.3,0.7,0.7v7.5
				C400.4,497.8,400.1,498.1,399.7,498.1z"/>
		</g>
		<g display="inline">
			<path fill="#F5F5F5" d="M394.5,498.1h-3c-0.4,0-0.7-0.3-0.7-0.7V490c0-0.4,0.3-0.7,0.7-0.7h3c0.4,0,0.7,0.3,0.7,0.7v7.5
				C395.2,497.8,394.9,498.1,394.5,498.1z"/>
		</g>
	</g>
	<g display="none">
		<path display="inline" fill="#D53980" d="M360.9,487.2c0.2,0.1,0.4,0.1,0.7,0.1c0.6,0,1.1-0.3,1.3-0.8c0.1-0.1,0.1-0.2,0.1-0.3
			l1.6-6.7l0.6-2.5l0.4-1.6c0.1-0.1-0.1-0.3-0.2-0.3c-0.1,0-0.1,0.1-0.2,0.1l-0.7,1.5l-1.1,2.2l-3,6.2
			C359.8,486,360.1,486.9,360.9,487.2z"/>
		<g id="XMLID_9_" display="inline">
			<g>
				<path fill="#5A6378" d="M361.6,485.1c0.4,0,0.7,0.4,0.7,0.7c0,0.4-0.4,0.7-0.7,0.7s-0.7-0.4-0.7-0.7
					C360.8,485.5,361.2,485.1,361.6,485.1z"/>
			</g>
		</g>
	</g>
	<path display="none" fill="#D53980" d="M391.7,480.1C391.6,480.1,391.6,480.1,391.7,480.1l-0.8,0.1l0.2-1.6v-0.1H391l-1.6,2.1v0.1
		c0,0,0,0,0.1,0l0.8-0.1l-0.2,1.5v0.1l0,0c0,0,0,0,0.1,0L391.7,480.1C391.7,480.2,391.7,480.2,391.7,480.1z"/>
	<g display="none">
		<path display="inline" fill="#D53980" d="M387.6,470.3c0.1,0.1,0.1,0.2,0.3,0.3s0.2,0.1,0.4,0.2c0.1,0.1,0.2,0.1,0.4,0.2l0,0l0,0
			c-0.1-0.2-0.1-0.4-0.1-0.6c0-0.1,0-0.1,0.1-0.2c0.1-0.1,0.1-0.1,0.1-0.2s0.1-0.1,0.2-0.1c0.1-0.1,0.1-0.1,0.2-0.2
			c0.1-0.1,0.1-0.1,0.2-0.2c0.1-0.1,0.1-0.1,0.1-0.3s0.1-0.2,0.1-0.4c0-0.1,0-0.3-0.1-0.4c-0.1-0.1-0.1-0.3-0.1-0.4
			c-0.1-0.1-0.1-0.2-0.3-0.3c-0.1-0.1-0.2-0.1-0.4-0.2c-0.1-0.1-0.2-0.1-0.4-0.2l0,0l0,0c0.1,0.2,0.1,0.4,0.1,0.6
			c0,0.1,0,0.1-0.1,0.2c-0.1,0.1-0.1,0.1-0.1,0.2c-0.1,0.1-0.1,0.1-0.2,0.1c-0.1,0.1-0.1,0.1-0.2,0.2c-0.1,0.1-0.1,0.1-0.2,0.2
			s-0.1,0.1-0.1,0.3c-0.1,0.1-0.1,0.2-0.1,0.4c0,0.1,0,0.3,0.1,0.4C387.5,470.1,387.5,470.2,387.6,470.3z"/>
	</g>
	<g display="none">
		<path display="inline" fill="#D53980" d="M392.1,470.3c0.1,0.1,0.1,0.2,0.3,0.3s0.2,0.1,0.4,0.2c0.1,0.1,0.2,0.1,0.4,0.2l0,0l0,0
			c-0.1-0.2-0.1-0.4-0.1-0.6c0-0.1,0-0.1,0.1-0.2c0.1-0.1,0.1-0.1,0.1-0.2s0.1-0.1,0.2-0.1c0.1-0.1,0.1-0.1,0.2-0.2
			c0.1-0.1,0.1-0.1,0.2-0.2c0.1-0.1,0.1-0.1,0.1-0.3c0.1-0.1,0.1-0.2,0.1-0.4c0-0.1,0-0.3-0.1-0.4c-0.1-0.1-0.1-0.3-0.1-0.4
			c-0.1-0.1-0.1-0.2-0.3-0.3c-0.1-0.1-0.2-0.1-0.4-0.2c-0.1-0.1-0.2-0.1-0.4-0.2l0,0l0,0c0.1,0.2,0.1,0.4,0.1,0.6
			c0,0.1,0,0.1-0.1,0.2c-0.1,0.1-0.1,0.1-0.1,0.2c-0.1,0.1-0.1,0.1-0.2,0.1c-0.1,0.1-0.1,0.1-0.2,0.2c-0.1,0.1-0.1,0.1-0.2,0.2
			s-0.1,0.1-0.1,0.3c0,0.1-0.1,0.2-0.1,0.4c0,0.1,0,0.3,0.1,0.4C392,470.1,392,470.2,392.1,470.3z"/>
	</g>
	<g display="none">
		<rect x="372.9" y="417.5" display="inline" fill="#5A6378" width="3.5" height="3.5"/>
		<rect x="372.9" y="427.3" display="inline" fill="#5A6378" width="3.5" height="3.5"/>
		<rect x="368" y="417.5" display="inline" fill="#5A6378" width="3.5" height="3.5"/>
		<rect x="372.9" y="422.4" display="inline" fill="#5A6378" width="3.5" height="3.5"/>
		<rect x="368" y="422.4" display="inline" fill="#5A6378" width="3.5" height="3.5"/>
		<rect x="368" y="427.3" display="inline" fill="#5A6378" width="3.5" height="3.5"/>
		<path display="inline" fill="#F5F5F5" d="M371.8,431.8h0.7h4.9v-4.9v-0.7v-4.1v-0.7v-4.9h-4.9h-0.7h-4.9v4.9v0.7v4.1v0.7v4.9
			H371.8L371.8,431.8z M372.9,427.3h3.5v3.5h-3.5V427.3z M372.9,422.4h3.5v3.5h-3.5V422.4z M372.9,417.5h3.5v3.5h-3.5V417.5z
			 M368,427.3h3.5v3.5H368V427.3z M368,422.4h3.5v3.5H368V422.4z M368,417.5h3.5v3.5H368V417.5z"/>
	</g>
	<g display="none">
		<rect x="384.6" y="417.5" display="inline" fill="#5A6378" width="3.5" height="3.5"/>
		<rect x="384.6" y="427.3" display="inline" fill="#5A6378" width="3.5" height="3.5"/>
		<rect x="379.7" y="417.5" display="inline" fill="#5A6378" width="3.5" height="3.5"/>
		<rect x="384.6" y="422.4" display="inline" fill="#5A6378" width="3.5" height="3.5"/>
		<rect x="379.7" y="422.4" display="inline" fill="#5A6378" width="3.5" height="3.5"/>
		<rect x="379.7" y="427.3" display="inline" fill="#5A6378" width="3.5" height="3.5"/>
		<path display="inline" fill="#F5F5F5" d="M383.5,431.8h0.7h4.9v-4.9v-0.7v-4.1v-0.7v-4.9h-4.9h-0.7h-4.9v4.9v0.7v4.1v0.7v4.9
			H383.5L383.5,431.8z M384.6,427.3h3.5v3.5h-3.5V427.3z M384.6,422.4h3.5v3.5h-3.5V422.4z M384.6,417.5h3.5v3.5h-3.5V417.5z
			 M379.7,427.3h3.5v3.5h-3.5V427.3z M379.7,422.4h3.5v3.5h-3.5V422.4z M379.7,417.5h3.5v3.5h-3.5V417.5z"/>
	</g>
	<g display="none">
		<rect x="361.1" y="417.5" display="inline" fill="#5A6378" width="3.5" height="3.5"/>
		<rect x="361.1" y="427.3" display="inline" fill="#5A6378" width="3.5" height="3.5"/>
		<rect x="356.2" y="417.5" display="inline" fill="#5A6378" width="3.5" height="3.5"/>
		<rect x="361.1" y="422.4" display="inline" fill="#5A6378" width="3.5" height="3.5"/>
		<rect x="356.2" y="422.4" display="inline" fill="#5A6378" width="3.5" height="3.5"/>
		<rect x="356.2" y="427.3" display="inline" fill="#5A6378" width="3.5" height="3.5"/>
		<path display="inline" fill="#F5F5F5" d="M360,431.8h0.7h4.9v-4.9v-0.7v-4.1v-0.7v-4.9h-4.9H360h-4.9v4.9v0.7v4.1v0.7v4.9H360
			L360,431.8z M361.1,427.3h3.5v3.5h-3.5V427.3z M361.1,422.4h3.5v3.5h-3.5V422.4z M361.1,417.5h3.5v3.5h-3.5V417.5z M356.2,427.3
			h3.5v3.5h-3.5V427.3z M356.2,422.4h3.5v3.5h-3.5V422.4z M356.2,417.5h3.5v3.5h-3.5V417.5z"/>
	</g>
</g>
</svg>
