<?xml version="1.0" encoding="utf-8"?>
<!-- Generator: Adobe Illustrator 18.1.0, SVG Export Plug-In . SVG Version: 6.00 Build 0)  -->
<svg version="1.1" id="Layer_2" xmlns="http://www.w3.org/2000/svg" xmlns:xlink="http://www.w3.org/1999/xlink" x="0px" y="0px"
	 viewBox="129 668.1 556 167.7" enable-background="new 129 668.1 556 167.7" xml:space="preserve">
<g id="_x31_9_1_">
	<path fill="#5A6378" d="M488.2,768.8c-0.5,0-1.1,0.1-1.6,0.3h-0.1l-1.8-3.3v-1.4h2.1c0.4,0,0.7-0.3,0.7-0.7s-0.3-0.7-0.7-0.7H484
		c-0.4,0-0.7,0.3-0.7,0.7c0,0.1,0,0.1,0,0.2l0,0v1.4h-6.5l-0.5-1.2h1.6c0.4,0,0.7-0.3,0.7-0.7s-0.3-0.7-0.7-0.7h-5.3
		c-0.4,0-0.7,0.3-0.7,0.7s0.3,0.7,0.7,0.7h2.2l0.5,1.1l-2.1,3.9h-0.1c-0.5-0.2-1.1-0.3-1.6-0.3c-2.7,0-4.9,2.2-4.9,4.9
		c0,2.7,2.2,4.9,4.9,4.9c2.4,0,4.5-1.7,4.9-4.1v-0.1h2.1l0,0c0.3,0.3,0.7,0.5,1.2,0.5c1,0,1.7-0.8,1.7-1.7c0-0.2,0-0.3-0.1-0.5v-0.1
		l2.9-5.2l1.3,2.3l-0.1,0.1c-1.2,0.9-1.9,2.4-1.9,3.9c0,2.7,2.2,4.9,4.9,4.9c2.7,0,4.9-2.2,4.9-4.9
		C493.1,771.1,490.9,768.8,488.2,768.8z M473.5,771.1l0.1,0.1c0.5,0.5,0.8,1,1,1.7v0.2h-2.3L473.5,771.1z M474.6,774.7
		c-0.4,1.6-1.8,2.6-3.4,2.6c-2,0-3.5-1.6-3.5-3.5c0-2,1.6-3.5,3.5-3.5c0.3,0,0.6,0,0.9,0.1h0.2l-1.7,3l0,0c0,0,0,0,0,0.1
		c0,0,0,0,0,0.1s0,0,0,0.1c0,0,0,0,0,0.1l0,0l0,0l0,0l0,0l0,0v0.1c0,0,0,0,0,0.1c0,0,0,0,0,0.1c0,0,0,0,0,0.1c0,0,0,0,0,0.1l0,0l0,0
		c0,0,0,0,0,0.1l0,0c0,0,0,0,0.1,0c0,0,0,0,0.1,0l0,0l0,0l0,0l0,0c0,0,0,0,0.1,0c0,0,0,0,0.1,0c0,0,0,0,0.1,0h0.1l0,0h3.5
		L474.6,774.7z M478.1,772.2c-0.2,0.2-0.3,0.5-0.4,0.8v0.1h-1.6V773c-0.2-1.2-0.8-2.3-1.8-3.1l-0.1-0.1l1.6-3L478.1,772.2
		L478.1,772.2z M480.1,771.7H480c-0.1,0-0.3-0.1-0.4-0.1h-0.1l-2.1-4.8h5.4L480.1,771.7z M488.2,777.3c-2,0-3.5-1.6-3.5-3.5
		c0-1,0.4-1.9,1.1-2.6l0.1-0.1l1.7,3c0.1,0.2,0.4,0.4,0.6,0.4c0.1,0,0.2,0,0.3-0.1c0.2-0.1,0.3-0.2,0.3-0.4c0-0.2,0-0.4-0.1-0.5
		l-1.7-3h0.2c0.3-0.1,0.6-0.1,0.9-0.1c2,0,3.5,1.6,3.5,3.5C491.7,775.7,490.1,777.3,488.2,777.3z"/>
</g>
<rect x="361.3" y="717" fill="#F5F5F5" width="86.3" height="61.7"/>
<path fill="#5A6378" d="M357.8,714.9l44.7-46c1-1.1,2.7-1.1,3.7,0l44.8,46c1.6,1.7,0.4,4.4-1.9,4.4h-89.5
	C357.4,719.3,356.2,716.5,357.8,714.9z"/>
<path fill="#5A6378" d="M386.3,748.6h-12.4c-0.6,0-1-0.4-1-1v-20.5c0-0.6,0.4-1,1-1h12.4c0.6,0,1,0.4,1,1v20.5
	C387.3,748.2,386.9,748.6,386.3,748.6z"/>
<circle fill="#F5F5F5" cx="380.4" cy="745.5" r="1.7"/>
<g id="Layer_1_2_">
	<g>
		<path display="none" fill="#D53980" d="M431.3,741.4v-6.2c0-0.3-0.2-0.6-0.6-0.6s-0.6,0.2-0.6,0.6v6.2c-1,0.2-1.7,1.1-1.7,2.1
			c0,1.2,1,2.2,2.2,2.2s2.2-1,2.2-2.2C432.9,742.5,432.2,741.6,431.3,741.4z"/>
		<path fill="#5A6378" d="M434.6,739.6v-8.8c0-2.1-1.7-3.9-3.9-3.9c-2.1,0-3.9,1.7-3.9,3.9v8.8c-1,1-1.7,2.4-1.7,3.9
			c0,3.1,2.5,5.6,5.6,5.6s5.6-2.5,5.6-5.6C436.3,742,435.6,740.6,434.6,739.6z M430.7,746.9c-1.8,0-3.3-1.5-3.3-3.3
			c0-1.2,0.7-2.3,1.7-2.9v-9.9c0-0.9,0.7-1.7,1.7-1.7s1.7,0.7,1.7,1.7v9.9c1,0.6,1.7,1.6,1.7,2.9C434,745.4,432.5,746.9,430.7,746.9
			z"/>
	</g>
</g>
<path fill="#5A6378" d="M456.9,778.7h-47.1c-0.5-8.7-7.7-15.6-16.5-15.6s-16,6.9-16.5,15.6h-15.4v8.2C250,802.7,129,835.8,129,835.8
	h556v-57.3C684.9,778.6,458.7,778.7,456.9,778.7z"/>
<g>
	<path fill="#5A6378" d="M429.1,764.4h-2.8c-0.3,0-0.6,0.2-0.6,0.6h-1.1c0-0.3-0.2-0.6-0.6-0.6h-2.8c-0.3,0-0.6,0.2-0.6,0.6H419
		v12.3v1.7v1.7h1.7V779h8.9v1.7h1.7V779v-1.7V765h-1.7C429.6,764.7,429.4,764.4,429.1,764.4z M427.6,767c0,0.4-0.3,0.7-0.7,0.7
		c-0.4,0-0.7-0.3-0.7-0.7s0.3-0.7,0.7-0.7C427.3,766.3,427.6,766.6,427.6,767z M429.1,768.9c0.2,0,0.3,0.1,0.3,0.3
		c0,0.2-0.1,0.3-0.3,0.3h-7.8c-0.2,0-0.3-0.1-0.3-0.3c0-0.2,0.1-0.3,0.3-0.3H429.1z M424.8,767c0,0.4-0.3,0.7-0.7,0.7
		s-0.7-0.3-0.7-0.7s0.3-0.7,0.7-0.7S424.8,766.6,424.8,767z M421.4,766.3c0.4,0,0.7,0.3,0.7,0.7s-0.3,0.7-0.7,0.7s-0.7-0.3-0.7-0.7
		S421,766.3,421.4,766.3z M430.2,777.8h-0.6h-8.9h-0.6v-0.6v-6.7h10v6.7L430.2,777.8L430.2,777.8z M429.7,766.3
		c0.4,0,0.7,0.3,0.7,0.7s-0.3,0.7-0.7,0.7s-0.7-0.3-0.7-0.7S429.3,766.3,429.7,766.3z"/>
</g>
<g>
	<path fill="#5A6378" d="M329.6,774.1c-4.8-3.2-8.3-5.6-10.7-7c-1.6-1-2.6-1-3.1-0.9s-12.2,2.1-13.6,2.4s-2.1,0.6-2.6,1.9
		s-3.5,6.5-4.1,8.2c-5.5,2.2-6.1,3.4-5.9,5.1c0.2,1,1.3,7.3,1.3,7.3c0.2,0.9,2.9,2.9,3.8,2.8l1.4-0.2c1.3,2.3,4,3.7,6.7,3.2
		c2.8-0.5,4.8-2.7,5.3-5.3l19.8-3.5c1.3,2.3,4,3.7,6.7,3.2c2.9-0.5,5-2.9,5.3-5.7c0.9-0.9,2-2.7,1.9-3.4c0,0-0.9-5-1-6
		C340.5,774.6,337,774.3,329.6,774.1z"/>
	<g id="XMLID_6_">
		<g>
			<path fill="#F5F5F5" d="M336.7,784.4c0.3,1.8-0.9,3.4-2.6,3.7c-1.8,0.3-3.4-0.9-3.7-2.6c-0.3-1.8,0.9-3.4,2.6-3.7
				C334.7,781.4,336.4,782.6,336.7,784.4z"/>
			<path fill="#F5F5F5" d="M304.9,789.9c0.3,1.8-0.9,3.4-2.6,3.7c-1.8,0.3-3.4-0.9-3.7-2.6s0.9-3.4,2.6-3.7S304.6,788.1,304.9,789.9
				z"/>
		</g>
	</g>
	<g id="XMLID_5_">
		<g>
			<path fill="#F5F5F5" d="M324.5,774.2c1.3,0.9,0.9,1.2,0,1.4c0,0-7.1,1.2-13.6,2.4l-1.3-7.2c3.1-0.5,6.2-1.1,6.2-1.1
				c0.8-0.1,1.8,0.1,2.4,0.5C319.3,770.7,323.1,773.2,324.5,774.2z"/>
		</g>
	</g>
	<g id="XMLID_4_">
		<g>
			<path fill="#F5F5F5" d="M308.8,770.9l1.3,7.2c-4.9,0.9-9.3,1.6-9.8,1.7c-1,0.2-1.5-0.3-0.8-1.8c0.6-1.3,2.1-4.1,2.5-4.8
				c0.4-0.9,0.8-1.3,1.8-1.4C304.2,771.7,306.4,771.3,308.8,770.9z"/>
		</g>
	</g>
</g>
</svg>
