<svg xmlns="http://www.w3.org/2000/svg" viewBox="72.9 359.8 522.2 137.6"><path fill="#5A6378" d="M399.7 448.5c27.4.3 195.4 0 195.4 0v48.9H120.4c.1 0 175.6-49.6 279.3-48.9zM427.7 440.1c-.5 0-.9.1-1.4.2h-.1l-1.6-2.8v-1.2h1.8c.4 0 .6-.3.6-.6 0-.4-.3-.6-.6-.6H424c-.4 0-.6.3-.6.6v1.3h-5.6l-.5-1.1h1.3c.4 0 .6-.3.6-.6s-.3-.6-.6-.6h-4.5c-.4 0-.6.3-.6.6s.3.6.6.6h1.9l.4.9-1.8 3.3h-.1c-.5-.1-.9-.2-1.4-.2-2.3 0-4.2 1.9-4.2 4.2 0 2.3 1.9 4.2 4.2 4.2 2.1 0 3.8-1.5 4.2-3.5v-.1h1.8c.3.3.6.4 1 .4.8 0 1.5-.6 1.5-1.5 0-.1 0-.3-.1-.4v-.1l2.5-4.5 1.1 2-.1.4c-1 .8-1.6 2-1.6 3.3 0 2.3 1.9 4.2 4.2 4.2s4.2-1.9 4.2-4.2c.1-2.2-1.8-4.2-4.1-4.2zm-12.6 2l.1.1c.4.4.7.9.8 1.4l.1.1h-1.9l.9-1.6zm1 3c-.4 1.3-1.6 2.3-2.9 2.3-1.7 0-3-1.3-3-3s1.3-3 3-3c.2 0 .5 0 .8.1l.1.1-1.4 2.6V445.2l.1.1.1.1.1.1h3.5l-.4-.4zm3-2.1c-.1.2-.3.4-.3.6v.1h-1.4v-.1c-.1-1.1-.7-2-1.6-2.6l-.1-.1 1.4-2.5 2 4.6zm1.6-.5c-.2 0-.3-.1-.4-.1h-.1l-1.8-4.1h4.6l-2.3 4.2zm7 4.9c-1.7 0-3-1.3-3-3 0-.8.4-1.6.9-2.2l.1-.1 1.4 2.6c.1.2.3.3.6.3.1 0 .2 0 .3-.1.1-.1.2-.2.3-.4s0-.4-.1-.5l-1.4-2.6.1-.1c.3-.1.5-.1.8-.1 1.7 0 3 1.3 3 3 0 1.8-1.4 3.2-3 3.2z"/><path fill="#F5F5F5" stroke="#F5F5F5" stroke-width="8" stroke-miterlimit="10" d="M323.1 399.7H389v56.6h-65.9z"/><path fill="#5A6378" d="M319 396.9l35.5-36.5c.8-.8 2.1-.8 3 0l35.5 36.5c1.3 1.3.4 3.5-1.5 3.5h-71c-1.9.1-2.8-2.2-1.5-3.5zM320.2 448.5H392v11.8h-71.8zM340.6 424.8H330c-.5 0-.8-.4-.8-.8v-17.5c0-.5.4-.8.8-.8h10.6c.5 0 .8.4.8.8V424c0 .4-.4.8-.8.8z"/><circle fill="#F5F5F5" cx="335.5" cy="420.2" r="1.4"/><path fill="#5A6378" d="M381.9 416.1v-7.6c0-1.8-1.5-3.3-3.3-3.3s-3.3 1.5-3.3 3.3v7.6c-.8.8-1.4 2.1-1.4 3.4 0 2.6 2.1 4.7 4.7 4.7s4.7-2.1 4.7-4.7c0-1.3-.6-2.5-1.4-3.4zm-3.3 6.2c-1.6 0-2.8-1.3-2.8-2.8 0-1.1.6-2 1.4-2.5v-8.5c0-.8.6-1.4 1.4-1.4.8 0 1.4.6 1.4 1.4v8.5c.8.5 1.4 1.4 1.4 2.5 0 1.6-1.3 2.8-2.8 2.8z"/><circle fill="#5A6378" cx="346.5" cy="449.4" r="14.1"/><path fill="#5A6378" d="M377.1 436.4h-2.4c-.3 0-.5.2-.5.5h-.9c0-.3-.2-.5-.5-.5h-2.4c-.3 0-.5.2-.5.5h-1.4v13.3h1.4v-1.4h7.6v1.4h1.4v-13.3h-1.4c.1-.3-.1-.5-.4-.5zm-1.2 2.2c0 .3-.3.6-.6.6s-.6-.3-.6-.6.3-.6.6-.6c.3-.1.6.2.6.6zm1.2 1.6c.1 0 .2.1.2.2s-.1.2-.2.2h-6.7c-.1 0-.2-.1-.2-.2s.1-.2.2-.2h6.7zm-3.6-1.6c0 .3-.3.6-.6.6s-.6-.3-.6-.6.3-.6.6-.6c.3-.1.6.2.6.6zm-3-.7c.3 0 .6.3.6.6s-.3.6-.6.6-.6-.3-.6-.6.3-.6.6-.6zm7.6 9.9h-8.6v-6.2h8.6v6.2zm-.4-9.9c.3 0 .6.3.6.6s-.3.6-.6.6-.6-.3-.6-.6.3-.6.6-.6zM292 443.7c-4.1-2.7-7.1-4.7-9.1-6-1.4-.9-2.2-.8-2.6-.8-.4.1-10.5 1.8-11.7 2.1-1.2.2-1.8.6-2.2 1.6-.4 1.1-3 5.6-3.5 7-4.7 1.8-5.2 2.9-5 4.4.1.8 1.1 6.2 1.1 6.2.1.8 2.5 2.5 3.2 2.4l1.2-.2c1.1 2 3.4 3.2 5.7 2.8 2.4-.4 4.1-2.3 4.5-4.5l17-3c1.1 2 3.4 3.2 5.7 2.8 2.5-.4 4.2-2.5 4.5-4.8.8-.8 1.7-2.3 1.6-2.9 0 0-.8-4.3-.9-5.1-.1-1.6-3.1-1.9-9.5-2z"/><g fill="#F5F5F5"><path d="M298.2 452.4c.3 1.5-.8 3-2.3 3.2-1.5.2-2.9-.8-3.2-2.3-.3-1.5.8-3 2.3-3.2 1.5-.2 2.9.9 3.2 2.3zM270.9 457.2c.3 1.5-.8 3-2.3 3.2-1.5.3-2.9-.8-3.2-2.3-.3-1.5.8-3 2.3-3.2 1.6-.2 3 .8 3.2 2.3z"/></g><path fill="#F5F5F5" d="M287.8 443.7c1.1.8.7 1.1 0 1.2 0 0-6.1 1.1-11.7 2.1l-1.1-6.2c2.7-.5 5.3-.9 5.3-.9.7-.1 1.5.1 2.1.4.9.5 4.1 2.6 5.4 3.4zM274.3 440.9l1.1 6.2c-4.2.7-7.9 1.4-8.4 1.5-.8.1-1.3-.3-.7-1.5.6-1.1 1.8-3.5 2.1-4.1.4-.8.7-1.1 1.6-1.3.3-.1 2.2-.4 4.3-.8z"/></svg>