<svg xmlns="http://www.w3.org/2000/svg" viewBox="129 668.1 556 167.7"><path fill="#5A6378" d="M488.2 768.8c-.5 0-1.1.1-1.6.3h-.1l-1.8-3.3v-1.4h2.1c.4 0 .7-.3.7-.7s-.3-.7-.7-.7H484c-.4 0-.7.3-.7.7V765.3h-6.5l-.5-1.2h1.6c.4 0 .7-.3.7-.7s-.3-.7-.7-.7h-5.3c-.4 0-.7.3-.7.7s.3.7.7.7h2.2l.5 1.1-2.1 3.9h-.1c-.5-.2-1.1-.3-1.6-.3-2.7 0-4.9 2.2-4.9 4.9s2.2 4.9 4.9 4.9c2.4 0 4.5-1.7 4.9-4.1v-.1h2.1c.3.3.7.5 1.2.5 1 0 1.7-.8 1.7-1.7 0-.2 0-.3-.1-.5v-.1l2.9-5.2 1.3 2.3-.1.1c-1.2.9-1.9 2.4-1.9 3.9 0 2.7 2.2 4.9 4.9 4.9s4.9-2.2 4.9-4.9c-.2-2.6-2.4-4.9-5.1-4.9zm-14.7 2.3l.1.1c.5.5.8 1 1 1.7v.2h-2.3l1.2-2zm1.1 3.6c-.4 1.6-1.8 2.6-3.4 2.6-2 0-3.5-1.6-3.5-3.5 0-2 1.6-3.5 3.5-3.5.3 0 .6 0 .9.1h.2l-1.7 3V774.4h4.1l-.1.3zm3.5-2.5c-.2.2-.3.5-.4.8v.1h-1.6v-.1c-.2-1.2-.8-2.3-1.8-3.1l-.1-.1 1.6-3 2.3 5.4zm2-.5h-.1c-.1 0-.3-.1-.4-.1h-.1l-2.1-4.8h5.4l-2.7 4.9zm8.1 5.6c-2 0-3.5-1.6-3.5-3.5 0-1 .4-1.9 1.1-2.6l.1-.1 1.7 3c.1.2.4.4.6.4.1 0 .2 0 .3-.1.2-.1.3-.2.3-.4s0-.4-.1-.5l-1.7-3h.2c.3-.1.6-.1.9-.1 2 0 3.5 1.6 3.5 3.5.1 1.8-1.5 3.4-3.4 3.4z"/><path fill="#F5F5F5" d="M361.3 717h86.3v61.7h-86.3z"/><path fill="#5A6378" d="M357.8 714.9l44.7-46c1-1.1 2.7-1.1 3.7 0l44.8 46c1.6 1.7.4 4.4-1.9 4.4h-89.5c-2.2 0-3.4-2.8-1.8-4.4zM386.3 748.6h-12.4c-.6 0-1-.4-1-1v-20.5c0-.6.4-1 1-1h12.4c.6 0 1 .4 1 1v20.5c0 .6-.4 1-1 1z"/><circle fill="#F5F5F5" cx="380.4" cy="745.5" r="1.7"/><path fill="#5A6378" d="M434.6 739.6v-8.8c0-2.1-1.7-3.9-3.9-3.9-2.1 0-3.9 1.7-3.9 3.9v8.8c-1 1-1.7 2.4-1.7 3.9 0 3.1 2.5 5.6 5.6 5.6s5.6-2.5 5.6-5.6c0-1.5-.7-2.9-1.7-3.9zm-3.9 7.3c-1.8 0-3.3-1.5-3.3-3.3 0-1.2.7-2.3 1.7-2.9v-9.9c0-.9.7-1.7 1.7-1.7s1.7.7 1.7 1.7v9.9c1 .6 1.7 1.6 1.7 2.9-.2 1.8-1.7 3.3-3.5 3.3zM456.9 778.7h-47.1c-.5-8.7-7.7-15.6-16.5-15.6s-16 6.9-16.5 15.6h-15.4v8.2C250 802.7 129 835.8 129 835.8h556v-57.3c-.1.1-226.3.2-228.1.2z"/><path fill="#5A6378" d="M429.1 764.4h-2.8c-.3 0-.6.2-.6.6h-1.1c0-.3-.2-.6-.6-.6h-2.8c-.3 0-.6.2-.6.6H419v15.7h1.7V779h8.9v1.7h1.7V765h-1.7c0-.3-.2-.6-.5-.6zm-1.5 2.6c0 .4-.3.7-.7.7-.4 0-.7-.3-.7-.7s.3-.7.7-.7c.4 0 .7.3.7.7zm1.5 1.9c.2 0 .3.1.3.3 0 .2-.1.3-.3.3h-7.8c-.2 0-.3-.1-.3-.3 0-.2.1-.3.3-.3h7.8zm-4.3-1.9c0 .4-.3.7-.7.7s-.7-.3-.7-.7.3-.7.7-.7.7.3.7.7zm-3.4-.7c.4 0 .7.3.7.7s-.3.7-.7.7-.7-.3-.7-.7.3-.7.7-.7zm8.8 11.5h-10.1v-7.3h10v6.7l.1.6zm-.5-11.5c.4 0 .7.3.7.7s-.3.7-.7.7-.7-.3-.7-.7.3-.7.7-.7zM329.6 774.1c-4.8-3.2-8.3-5.6-10.7-7-1.6-1-2.6-1-3.1-.9s-12.2 2.1-13.6 2.4-2.1.6-2.6 1.9-3.5 6.5-4.1 8.2c-5.5 2.2-6.1 3.4-5.9 5.1.2 1 1.3 7.3 1.3 7.3.2.9 2.9 2.9 3.8 2.8l1.4-.2c1.3 2.3 4 3.7 6.7 3.2 2.8-.5 4.8-2.7 5.3-5.3l19.8-3.5c1.3 2.3 4 3.7 6.7 3.2 2.9-.5 5-2.9 5.3-5.7.9-.9 2-2.7 1.9-3.4 0 0-.9-5-1-6-.3-1.6-3.8-1.9-11.2-2.1z"/><g fill="#F5F5F5"><path d="M336.7 784.4c.3 1.8-.9 3.4-2.6 3.7-1.8.3-3.4-.9-3.7-2.6-.3-1.8.9-3.4 2.6-3.7 1.7-.4 3.4.8 3.7 2.6zM304.9 789.9c.3 1.8-.9 3.4-2.6 3.7-1.8.3-3.4-.9-3.7-2.6s.9-3.4 2.6-3.7 3.4.8 3.7 2.6z"/></g><path fill="#F5F5F5" d="M324.5 774.2c1.3.9.9 1.2 0 1.4 0 0-7.1 1.2-13.6 2.4l-1.3-7.2c3.1-.5 6.2-1.1 6.2-1.1.8-.1 1.8.1 2.4.5 1.1.5 4.9 3 6.3 4zM308.8 770.9l1.3 7.2c-4.9.9-9.3 1.6-9.8 1.7-1 .2-1.5-.3-.8-1.8.6-1.3 2.1-4.1 2.5-4.8.4-.9.8-1.3 1.8-1.4.4-.1 2.6-.5 5-.9z"/></svg>