<?xml version="1.0" encoding="utf-8"?>
<!-- Generator: Adobe Illustrator 18.0.0, SVG Export Plug-In . SVG Version: 6.00 Build 0)  -->
<!DOCTYPE svg PUBLIC "-//W3C//DTD SVG 1.1//EN" "http://www.w3.org/Graphics/SVG/1.1/DTD/svg11.dtd">
<svg version="1.1" id="Layer_3" xmlns="http://www.w3.org/2000/svg" xmlns:xlink="http://www.w3.org/1999/xlink" x="0px" y="0px"
	 viewBox="0 869.6 595.2 149.3" enable-background="new 0 869.6 595.2 149.3" xml:space="preserve">
<g>
	<rect y="888.1" fill="#95CFCA" width="595.2" height="130.7"/>
	<path fill="#28A197" d="M595.2,876.2H340.6c0,0-52.6,0.6-83.4,12c82.9,0,338,0,338,0L595.2,876.2L595.2,876.2z"/>
	<polygon display="none" fill="#F5F5F5" points="151.7,906.6 -1,906.6 -1,895.8 151.7,895.8 156.3,901.2 	"/>
	<path display="none" fill="#95CFCA" d="M110.9,869.1c-1.9,0-2.5,0-2.6,0l-2-2.6h-0.7l0.7,2.6h-3.3l-0.7-1.3h-0.7v2l0.7,0.7h7.3
		l-4,2.6h0.7l2-2.6h2.6c1.3,0,1.3-0.7,1.3-0.7C112.2,869.1,110.9,869.1,110.9,869.1z"/>
	<path display="none" fill="#95CFCA" d="M95.2,876.3c-1.3,0-1.7,0-1.8,0l-1.3-1.8h-0.4l0.4,1.8h-2.2l-0.4-0.9H89v1.3l0.4,0.4h2.6
		l-0.4,1.8h0.4l4.6-1.8h-1.5c0.9,0,0.9-0.4,0.9-0.4C96,876.3,95.2,876.3,95.2,876.3z"/>
	<path display="none" fill="#95CFCA" d="M267.9,869.1c-1.3,0-1.7,0-1.8,0l-1.3-1.8h-0.4l0.4,1.8h1.1l-3.7-0.9h-0.4v1.3l0.4,0.4h2.6
		l-0.4,1.8h0.4l1.3-1.8h1.8c0.9,0,0.9-0.4,0.9-0.4C268.8,869.1,267.9,869.1,267.9,869.1z"/>
	<path display="none" fill="#28A197" d="M400.6,872.5C400.6,872.5,400.6,872.5,400.6,872.5C400.5,872.5,400.5,872.5,400.6,872.5
		l-1.9-0.1c0,0,0,0,0,0s0,0,0,0c0,1.1-0.1,2.2-0.3,3.2c-0.3-1.5-0.5-3.1-0.5-4.8c0,0,0,0,0-0.1c0,0,0,0-0.1,0h-2.5c0,0,0,0-0.1,0
		c0,0,0,0,0,0.1c0,1.9-0.2,3.6-0.6,5.3c0,0,0,0,0,0.1c0,0,0,0,0.1,0h6.4l0,0c0,0,0.1,0,0.1-0.1c0,0,0,0,0,0
		C400.7,875.2,400.6,873.9,400.6,872.5z"/>
	<path display="none" fill="#28A197" d="M391.4,874.6C391.4,874.6,391.4,874.6,391.4,874.6C391.4,874.6,391.4,874.6,391.4,874.6
		l-0.9,0c0,0,0,0,0,0c0,0,0,0,0,0c0,0.5,0,1-0.1,1.5c-0.2-0.7-0.2-1.4-0.2-2.2c0,0,0,0,0,0s0,0,0,0h-1.2c0,0,0,0,0,0c0,0,0,0,0,0
		c0,0.9-0.1,1.7-0.3,2.5c0,0,0,0,0,0c0,0,0,0,0,0h3l0,0c0,0,0,0,0,0v0C391.4,875.8,391.4,875.2,391.4,874.6z"/>
	<path display="none" fill="#28A197" d="M317.4,874.3C317.4,874.3,317.4,874.3,317.4,874.3C317.4,874.3,317.3,874.3,317.4,874.3
		l-1.9-0.1c0,0,0,0,0,0s0,0,0,0c0,1.1-0.1,2.2-0.3,3.2c-0.3-1.5-0.5-3.1-0.5-4.8c0,0,0,0,0-0.1s0,0-0.1,0H312c0,0,0,0-0.1,0
		c0,0,0,0,0,0.1c0,1.9-0.2,3.6-0.6,5.3c0,0,0,0,0,0.1c0,0,0,0,0.1,0h6.4l0,0c0,0,0.1,0,0.1-0.1c0,0,0,0,0,0
		C317.5,877,317.4,875.7,317.4,874.3z"/>
	<path display="none" fill="#28A197" d="M308.2,876.7C308.2,876.7,308.2,876.7,308.2,876.7C308.2,876.7,308.2,876.7,308.2,876.7
		l-0.9,0c0,0,0,0,0,0s0,0,0,0c0,0.5,0,1-0.1,1.5c-0.2-0.7-0.2-1.4-0.2-2.2c0,0,0,0,0,0c0,0,0,0,0,0h-1.2c0,0,0,0,0,0c0,0,0,0,0,0
		c0,0.9-0.1,1.7-0.3,2.5c0,0,0,0,0,0c0,0,0,0,0,0h3l0,0c0,0,0,0,0,0v0C308.3,878,308.2,877.4,308.2,876.7z"/>
	<path display="none" fill="#28A197" d="M531.5,872.5C531.5,872.5,531.4,872.5,531.5,872.5C531.4,872.5,531.4,872.5,531.5,872.5
		l-1.9-0.1c0,0,0,0,0,0s0,0,0,0c0,1.1-0.1,2.2-0.3,3.2c-0.3-1.5-0.5-3.1-0.5-4.8c0,0,0,0,0-0.1c0,0,0,0-0.1,0h-2.5c0,0,0,0-0.1,0
		c0,0,0,0,0,0.1c0,1.9-0.2,3.6-0.6,5.3c0,0,0,0,0,0.1s0,0,0.1,0h6.4l0,0c0,0,0.1,0,0.1-0.1c0,0,0,0,0,0
		C531.6,875.2,531.4,873.9,531.5,872.5z"/>
	<path display="none" fill="#28A197" d="M521.2,874.6C521.2,874.5,521.2,874.5,521.2,874.6C521.1,874.5,521.1,874.5,521.2,874.6
		l-0.9,0c0,0,0,0,0,0s0,0,0,0c0,0.5,0,1-0.1,1.5c-0.2-0.7-0.2-1.4-0.2-2.2c0,0,0,0,0,0c0,0,0,0,0,0h-1.2c0,0,0,0,0,0c0,0,0,0,0,0
		c0,0.9-0.1,1.7-0.3,2.5c0,0,0,0,0,0c0,0,0,0,0,0h3l0,0c0,0,0,0,0,0v0C521.2,875.8,521.1,875.2,521.2,874.6z"/>
	<path display="none" fill="#28A197" d="M382.3,873.9C382.3,873.9,382.3,873.9,382.3,873.9C382.3,873.8,382.3,873.8,382.3,873.9
		l-1.2,0c0,0,0,0,0,0c0,0,0,0,0,0c0,0.7-0.1,1.5-0.2,2.1c-0.2-1-0.3-2-0.3-3.1c0,0,0,0,0,0c0,0,0,0,0,0h-1.7c0,0,0,0,0,0
		c0,0,0,0,0,0c0,1.2-0.1,2.4-0.4,3.5c0,0,0,0,0,0c0,0,0,0,0,0h4.2l0,0c0,0,0,0,0,0c0,0,0,0,0,0C382.4,875.6,382.3,874.8,382.3,873.9
		z"/>
	<path display="none" fill="#28A197" d="M336,886.6c0,0,14.4,2.9,26.1,15.2c-6.2,0.2-3.7,0.3-10.5,0.3c-3.9-4.9-20.9-15.1-30.2-15.5
		C333.4,886.6,336,886.6,336,886.6z"/>
	<path display="none" fill="#95CFCA" d="M153.2,884.9l-1.3,2.7c-0.2,0.3-0.5,0.5-0.8,0.5h-7.5c-0.1,0-0.2-0.1-0.2-0.3v0
		c0.1-0.2,0-0.4-0.1-0.6l0,0c-0.4-0.3-0.7-0.8-0.7-1.3v-0.6h6.7l0,0c0-0.2,0.2-0.4,0.4-0.4H153.2L153.2,884.9z M148.9,882.7h-1.3
		c-0.1,0-0.2,0.1-0.2,0.2v2c0,0.1,0.1,0.2,0.2,0.2h1.3c0.1,0,0.2-0.1,0.2-0.2v-2C149.1,882.8,149,882.7,148.9,882.7z M151.2,883.5
		h-1.5c-0.1,0-0.2,0.1-0.2,0.2v0.7c0,0.1,3.4,0.2,3.5,0.2h-1.8c0.1,0,0.2-0.1,0.2-0.2v-0.7C151.3,883.5,151.3,883.5,151.2,883.5z
		 M145.4,885.1h1.5c0.1,0,0.2-0.1,0.2-0.2v-1.5c0-0.1-0.1-0.2-0.2-0.2h-1.5c-0.1,0-0.2,0.1-0.2,0.2v1.5
		C145.2,885,145.3,885.1,145.4,885.1z M145.3,882.3l-0.5,0.4v2.4H143v-2.4h-0.6v-0.4h1.3v-0.5h-0.5v-0.2h0.5v-1.1h0.2v1.1h0.5v0.2
		h-0.5v0.5L145.3,882.3L145.3,882.3z M144.5,883.9h-0.6v0.6h0.6V883.9z M144.5,883h-0.6v0.6h0.6V883z"/>
	<path display="none" fill="#95CFCA" d="M136.7,884.9l-1.3,2.7c-0.2,0.3-0.5,0.5-0.8,0.5h-7.5c-0.1,0-0.2-0.1-0.2-0.3v0
		c0.1-0.2,0-0.4-0.1-0.6l0,0c-0.4-0.3-0.7-0.8-0.7-1.3v-0.6h6.7l0,0c0-0.2,0.2-0.4,0.4-0.4H136.7L136.7,884.9z M132.4,882.7h-1.3
		c-0.1,0-0.2,0.1-0.2,0.2v2c0,0.1,0.1,0.2,0.2,0.2h1.3c0.1,0,0.2-0.1,0.2-0.2v-2C132.6,882.8,132.5,882.7,132.4,882.7z M134.6,883.5
		h1.8c-0.1,0-3.5,0.1-3.5,0.2v0.7c0,0.1,0.1,0.2,0.2,0.2h1.5c0.1,0,0.2-0.1,0.2-0.2v-0.7C134.8,883.5,134.7,883.5,134.6,883.5z
		 M128.9,885.1h1.5c0.1,0,0.2-0.1,0.2-0.2v-1.5c0-0.1-0.1-0.2-0.2-0.2h-1.5c-0.1,0-0.2,0.1-0.2,0.2v1.5
		C128.7,885,128.8,885.1,128.9,885.1z M128.8,882.3l-0.5,0.4v2.4h-1.9v-2.4h-0.6v-0.4h1.3v-0.5h-0.5v-0.2h0.5v-1.1h0.2v1.1h0.5v0.2
		h-0.5v0.5L128.8,882.3L128.8,882.3z M128,883.9h-0.6v0.6h0.6V883.9z M128,883h-0.6v0.6h0.6V883z"/>
	<path display="none" fill="#95CFCA" d="M169.7,884.9l-1.3,2.7c-0.2,0.3-0.5,0.5-0.8,0.5h-7.5c-0.1,0-0.2-0.1-0.2-0.3v0
		c0.1-0.2,0-0.4-0.1-0.6l0,0c-0.4-0.3-0.7-0.8-0.7-1.3v-0.6h6.7l0,0c0-0.2,0.2-0.4,0.4-0.4H169.7L169.7,884.9z M165.5,882.7h-1.3
		c-0.1,0-0.2,0.1-0.2,0.2v2c0,0.1,0.1,0.2,0.2,0.2h1.3c0.1,0,0.2-0.1,0.2-0.2v-2C165.7,882.8,165.6,882.7,165.5,882.7z M167.7,883.5
		h-1.5c-0.1,0-0.2,0.1-0.2,0.2v0.7c0,0.1,0.1,0.2,0.2,0.2h1.5c0.1,0,0.2-0.1,0.2-0.2v-0.7C167.9,883.5,167.8,883.5,167.7,883.5z
		 M161.9,885.1h1.5c0.1,0,3.5-0.1,3.5-0.2l-3.3-1.5c0-0.1-0.1-0.2-0.2-0.2h-1.5c-0.1,0-0.2,0.1-0.2,0.2v1.5
		C161.8,885,161.8,885.1,161.9,885.1z M161.9,882.3l-0.5,0.4v2.4h-1.9v-2.4H159v-0.4h1.3v-0.5h-0.5v-0.2h0.5v-1.1h0.2v1.1h0.5v0.2
		h-0.5v0.5L161.9,882.3L161.9,882.3z M161.1,883.9h-0.6v0.6h0.6V883.9z M161.1,883h-0.6v0.6h0.6V883z"/>
	<g display="none">
		<g display="inline">
			<path fill="#95CFCA" d="M228.4,883.6c-0.1-0.7-0.2-2.3-0.4-2.3c-0.2,0-0.3,1.6-0.4,2.3c0.1-0.1,0.3-0.2,0.4-0.2
				C228.1,883.4,228.3,883.5,228.4,883.6z"/>
			<circle fill="#95CFCA" cx="228" cy="884.1" r="0.4"/>
			<path fill="#95CFCA" d="M228.6,884C228.6,884,228.6,884.1,228.6,884c0,0.4-0.2,0.6-0.4,0.7c0.6,0.3,2.1,0.9,2.2,0.8
				C230.5,885.3,229.2,884.4,228.6,884z"/>
			<path fill="#95CFCA" d="M227.3,884.1C227.3,884.1,227.3,884,227.3,884.1c-0.6,0.3-1.9,1.3-1.8,1.4c0.1,0.2,1.6-0.5,2.2-0.8
				l-0.2,3.2h0.9l-0.2-3.3c-0.1,0-0.2,0-0.2,0C227.6,884.7,227.3,884.4,227.3,884.1z"/>
			<path fill="#95CFCA" d="M231.5,884.7h-3.3l0,0H231.5z"/>
		</g>
		<g display="inline">
			<path fill="#95CFCA" d="M219.7,883.6c-0.1-0.7-0.2-2.3-0.4-2.3s-0.3,1.6-0.4,2.3c0.1-0.1,0.3-0.2,0.4-0.2
				C219.5,883.4,219.6,883.5,219.7,883.6z"/>
			<circle fill="#95CFCA" cx="219.3" cy="884.1" r="0.4"/>
			<path fill="#95CFCA" d="M220,884C220,884,220,884.1,220,884c0,0.4-0.2,0.6-0.4,0.7c0.6,0.3,2.1,0.9,2.2,0.8
				C221.8,885.3,220.5,884.4,220,884z"/>
			<path fill="#95CFCA" d="M218.7,884.1C218.7,884.1,218.7,884,218.7,884.1c-0.6,0.3-1.9,1.3-1.8,1.4c0.1,0.2,1.6-0.5,2.2-0.8
				l-0.2,3.2h0.9l-0.2-3.3c-0.1,0-0.2,0-0.2,0C219,884.7,218.7,884.4,218.7,884.1z"/>
			<path fill="#95CFCA" d="M222.9,884.7h-3.3l0,0H222.9z"/>
		</g>
		<g display="inline">
			<path fill="#95CFCA" d="M211.1,883.6c-0.1-0.7-0.2-2.3-0.4-2.3s-0.3,1.6-0.4,2.3c0.1-0.1,0.3-0.2,0.4-0.2
				C210.8,883.4,211,883.5,211.1,883.6z"/>
			<circle fill="#95CFCA" cx="210.7" cy="884.1" r="0.4"/>
			<path fill="#95CFCA" d="M211.3,884C211.3,884,211.3,884.1,211.3,884c0,0.4-0.2,0.6-0.4,0.7c0.6,0.3,2.1,0.9,2.2,0.8
				C213.2,885.3,211.8,884.4,211.3,884z"/>
			<path fill="#95CFCA" d="M210,884.1c0,0,3.3-0.1,3.3-0.1c-0.6,0.4-5.2,1.4-5.1,1.5c0.1,0.2,1.6-0.5,2.2-0.8l-0.2,3.2h0.9l-0.2-3.3
				c-0.1,0-0.2,0-0.2,0C210.3,884.7,210,884.4,210,884.1z"/>
			<path fill="#95CFCA" d="M210.9,884.7L210.9,884.7L210.9,884.7L210.9,884.7z"/>
		</g>
		<g display="inline">
			<path fill="#95CFCA" d="M236.9,883.6c-0.1-0.7-0.2-2.3-0.4-2.3s-0.3,1.6-0.4,2.3c0.1-0.1,0.3-0.2,0.4-0.2
				C236.7,883.4,236.8,883.5,236.9,883.6z"/>
			<circle fill="#95CFCA" cx="236.5" cy="884.1" r="0.4"/>
			<path fill="#95CFCA" d="M237.1,884C237.1,884,237.1,884.1,237.1,884c0,0.4-0.2,0.6-0.4,0.7c0.6,0.3,2.1,0.9,2.2,0.8
				C239,885.3,237.7,884.4,237.1,884z"/>
			<path fill="#95CFCA" d="M235.9,884.1C235.9,884.1,235.9,884,235.9,884.1c-0.6,0.3-1.9,1.3-1.8,1.4c0.1,0.2,1.6-0.5,2.2-0.8
				l-0.2,3.2h0.9l-0.2-3.3c-0.1,0-0.2,0-0.2,0C236.1,884.7,235.9,884.4,235.9,884.1z"/>
			<path fill="#95CFCA" d="M240,884.7h-3.3l0,0H240z"/>
		</g>
		<g display="inline">
			<path fill="#95CFCA" d="M245.5,883.6c-0.1-0.7-0.2-2.3-0.4-2.3s-0.3,1.6-0.4,2.3c0.1-0.1,0.3-0.2,0.4-0.2
				C245.2,883.4,245.4,883.5,245.5,883.6z"/>
			<circle fill="#95CFCA" cx="245.1" cy="884.1" r="0.4"/>
			<path fill="#95CFCA" d="M245.7,884C245.7,884,245.7,884.1,245.7,884c0,0.4-0.2,0.6-0.4,0.7c0.6,0.3,2.1,0.9,2.2,0.8
				C247.6,885.3,246.3,884.4,245.7,884z"/>
			<path fill="#95CFCA" d="M244.4,884.1C244.4,884.1,244.4,884,244.4,884.1c-0.6,0.3-1.9,1.3-1.8,1.4c0.1,0.2,1.6-0.5,2.2-0.8
				l-0.2,3.2h0.9l-0.2-3.3c-0.1,0-0.2,0-0.2,0C244.7,884.7,244.4,884.4,244.4,884.1z"/>
			<path fill="#95CFCA" d="M248.6,884.7h-3.3l0,0H248.6z"/>
		</g>
	</g>
	<g display="none">
		<g display="inline">
			<path fill="#28A197" d="M572.2,871.9c-0.1-0.7-0.2-2.3-0.4-2.3s-0.3,1.6-0.4,2.3c0.1-0.1,0.3-0.2,0.4-0.2
				C571.9,871.7,572.1,871.8,572.2,871.9z"/>
			<circle fill="#28A197" cx="571.8" cy="872.4" r="0.4"/>
			<path fill="#28A197" d="M572.4,872.3C572.4,872.3,572.4,872.3,572.4,872.3c0,0.4-0.2,0.6-0.4,0.7c0.6,0.3,2.1,0.9,2.2,0.8
				C574.3,873.6,573,872.7,572.4,872.3z"/>
			<path fill="#28A197" d="M571.1,872.4C571.1,872.3,571.1,872.3,571.1,872.4c-0.6,0.3-1.9,1.3-1.8,1.4c0.1,0.2,1.6-0.5,2.2-0.8
				l-0.2,3.2h0.9L572,873c-0.1,0-0.2,0-0.2,0C571.4,873,571.1,872.7,571.1,872.4z"/>
			<path fill="#28A197" d="M572,873L572,873L572,873L572,873z"/>
		</g>
		<g display="inline">
			<path fill="#28A197" d="M563.5,871.9c-0.1-0.7-0.2-2.3-0.4-2.3s-0.3,1.6-0.4,2.3c0.1-0.1,0.3-0.2,0.4-0.2
				C563.3,871.7,563.4,871.8,563.5,871.9z"/>
			<circle fill="#28A197" cx="563.1" cy="872.4" r="0.4"/>
			<path fill="#28A197" d="M563.8,872.3C563.8,872.3,563.8,872.3,563.8,872.3c0,0.4-0.2,0.6-0.4,0.7c0.6,0.3,2.1,0.9,2.2,0.8
				C565.7,873.6,564.3,872.7,563.8,872.3z"/>
			<path fill="#28A197" d="M562.5,872.4C562.5,872.3,562.5,872.3,562.5,872.4c-0.6,0.3-1.9,1.3-1.8,1.4c0.1,0.2,1.6-0.5,2.2-0.8
				l-0.2,3.2h0.9l-0.2-3.3c-0.1,0-0.2,0-0.2,0C562.8,873,562.5,872.7,562.5,872.4z"/>
			<path fill="#28A197" d="M563.4,873L563.4,873L563.4,873L563.4,873z"/>
		</g>
		<g display="inline">
			<path fill="#28A197" d="M554.9,871.9c-0.1-0.7-0.2-2.3-0.4-2.3s-0.3,1.6-0.4,2.3c0.1-0.1,0.3-0.2,0.4-0.2
				C554.6,871.7,554.8,871.8,554.9,871.9z"/>
			<circle fill="#28A197" cx="554.5" cy="872.4" r="0.4"/>
			<path fill="#28A197" d="M555.1,872.3C555.1,872.3,555.1,872.3,555.1,872.3c0,0.4-0.2,0.6-0.4,0.7c0.6,0.3,2.1,0.9,2.2,0.8
				C557,873.6,555.7,872.7,555.1,872.3z"/>
			<path fill="#28A197" d="M553.8,872.4C553.8,872.3,553.8,872.3,553.8,872.4c-0.6,0.3-1.9,1.3-1.8,1.4c0.1,0.2,1.6-0.5,2.2-0.8
				l-0.2,3.2h0.9l-0.2-3.3c-0.1,0-0.2,0-0.2,0C554.1,873,553.8,872.7,553.8,872.4z"/>
			<path fill="#28A197" d="M554.7,873L554.7,873L554.7,873L554.7,873z"/>
		</g>
		<g display="inline">
			<path fill="#28A197" d="M580.7,871.9c-0.1-0.7-0.2-2.3-0.4-2.3s-0.3,1.6-0.4,2.3c0.1-0.1,0.3-0.2,0.4-0.2
				S580.6,871.8,580.7,871.9z"/>
			<circle fill="#28A197" cx="580.3" cy="872.4" r="0.4"/>
			<path fill="#28A197" d="M581,872.3C581,872.3,581,872.3,581,872.3c0,0.4-0.2,0.6-0.4,0.7c0.6,0.3,2.1,0.9,2.2,0.8
				C582.8,873.6,581.5,872.7,581,872.3z"/>
			<path fill="#28A197" d="M579.7,872.4C579.7,872.3,579.7,872.3,579.7,872.4c-0.6,0.3-1.9,1.3-1.8,1.4c0.1,0.2,1.6-0.5,2.2-0.8
				l-0.2,3.2h0.9l-0.2-3.3c-0.1,0-0.2,0-0.2,0C580,873,579.7,872.7,579.7,872.4z"/>
			<path fill="#28A197" d="M580.6,873L580.6,873L580.6,873L580.6,873z"/>
		</g>
		<g display="inline">
			<path fill="#28A197" d="M589.3,871.9c-0.1-0.7-0.2-2.3-0.4-2.3c-0.2,0-0.3,1.6-0.4,2.3c0.1-0.1,0.3-0.2,0.4-0.2
				S589.2,871.8,589.3,871.9z"/>
			<circle fill="#28A197" cx="588.9" cy="872.4" r="0.4"/>
			<path fill="#28A197" d="M589.5,872.3C589.5,872.3,589.5,872.3,589.5,872.3c0,0.4-0.2,0.6-0.4,0.7c0.6,0.3,2.1,0.9,2.2,0.8
				C591.4,873.6,590.1,872.7,589.5,872.3z"/>
			<path fill="#28A197" d="M588.2,872.4C588.2,872.3,588.2,872.3,588.2,872.4c-0.6,0.3-1.9,1.3-1.8,1.4c0.1,0.2,1.6-0.5,2.2-0.8
				l-0.2,3.2h0.9l-0.2-3.3c-0.1,0-0.2,0-0.2,0C588.5,873,588.2,872.7,588.2,872.4z"/>
			<path fill="#28A197" d="M589.1,873L589.1,873L589.1,873L589.1,873z"/>
		</g>
	</g>
	<path display="none" fill="#D53980" d="M150.4,900.7C150.4,900.6,150.3,900.6,150.4,900.7l-1.2,0.2l0.3-2.3c0,0,0-0.1,0-0.1
		c0,0-0.1,0-0.1,0l-2.3,3.1c0,0,0,0.1,0,0.1c0,0,0.1,0,0.1,0l1.2-0.2l-0.3,2.1c0,0,0,0.1,0,0.1c0,0,0,0,0,0c0,0,0.1,0,0.1,0
		L150.4,900.7C150.4,900.7,150.4,900.7,150.4,900.7z"/>
</g>
</svg>
