<svg xmlns="http://www.w3.org/2000/svg" viewBox="0 176.95 841.89 240.08" preserveAspectRatio="xMaxYMax"><path fill="#28A197" d="M814.64 260.6c-5.39-6.16-.21-10.54-5.27-10.54-18.03-.01-50.4.01-204.92.01C292.59 250.07 85.81 308.1 0 337.4v79.63h841.89l.17-153.73s-22.02 3.45-27.42-2.7z"/><g fill="#28A197"><path d="M802.33 247.91c-.05 0-.09-.01-.14-.03-.18-.07-.27-.29-.2-.47l.02-.04h-1.07v-1.45h-.41v-1.47c0-.19-.15-.35-.35-.35h-2.28c-.36 0-.68.22-.81.57l-1.25 1.94c-.15 1.16-.07 1.6 0 2.09.01.1.09.2.2.2h1.15c.13-.7.74-1.22 1.46-1.22.73 0 1.33.53 1.46 1.22h4.53c.13-.7.74-1.23 1.47-1.23s1.34.53 1.46 1.23h.25c.13-.7.73-1.23 1.46-1.23s1.34.53 1.47 1.23c.59 0 1.11-.13 1.07-1.02v-.06c0-.24-.19-.43-.43-.43h-8.64l-.13.32c-.02.11-.15.2-.29.2z"/><ellipse cx="798.67" cy="249.16" rx="1.18" ry="1.19"/><ellipse cx="806.14" cy="249.16" rx="1.18" ry="1.19"/><ellipse cx="809.33" cy="249.16" rx="1.18" ry="1.19"/><path d="M814.72 247.03l-1.37-3.29c.02-.05.02-.1.01-.15-.02-.06-.06-.11-.12-.14l-9.06-4.7c-.06-.03-.12-.03-.18-.01-.06.02-.11.06-.14.12l-1.73 3.33c-.06.12-.01.26.1.32l1.57.81-.57 1.37c-.09.03-.17.1-.21.2l-1.02 2.48-.02.04c-.07.18.01.39.2.47.05.02.09.03.14.03.14 0 .28-.08.33-.22l.13-.32.91-2.21c.04-.1.03-.21-.01-.29l.55-1.32 7.07 3.67c.03.02.07.03.11.03.08 0 .17-.05.21-.13l1.45-2.8 1.21 2.91c.04.09.13.14.22.14.03 0 .06 0 .09-.02.13-.06.18-.2.13-.32z"/></g></svg>