<?xml version="1.0" encoding="utf-8"?>
<!-- Generator: Adobe Illustrator 18.1.0, SVG Export Plug-In . SVG Version: 6.00 Build 0)  -->
<svg version="1.1" id="Layer_1" xmlns="http://www.w3.org/2000/svg" xmlns:xlink="http://www.w3.org/1999/xlink" x="0px" y="0px"
	 viewBox="0 176.95 841.89 240.08" enable-background="new 0 176.95 841.89 240.08" xml:space="preserve" preserveAspectRatio="xMinYMax">
<g id="Layer_1_1_">
	<path fill="#28A197" d="M57.73,321.2H36.89v-73.42c0-0.7,0.56-1.26,1.26-1.26h18.32c0.7,0,1.26,0.56,1.26,1.26V321.2z"/>
	<path fill="#5A6378" d="M168,282.28h31.11c1.39,0,2.52,1.13,2.52,2.52v50.78H168V282.28z"/>
	<path fill="#28A197" d="M168.15,331.62h-23.87v-57.79c0-0.7,0.56-1.26,1.26-1.26h21.35c0.7,0,1.26,0.56,1.26,1.26V331.62z"/>
	<g id="XMLID_4_">
		<g>
			<rect x="161.2" y="299.46" fill="#F5F5F5" width="3.47" height="3.47"/>
			<rect x="161.2" y="294.25" fill="#F5F5F5" width="3.47" height="3.47"/>
			<rect x="161.2" y="289.04" fill="#F5F5F5" width="3.47" height="3.48"/>
			<polygon fill="#F5F5F5" points="164.68,285.57 164.68,287.3 161.2,287.3 161.2,283.83 164.68,283.83 			"/>
			<polygon fill="#F5F5F5" points="164.68,280.35 164.68,282.09 161.2,282.09 161.2,278.62 164.68,278.62 			"/>
			<rect x="155.99" y="299.46" fill="#F5F5F5" width="3.47" height="3.47"/>
			<rect x="155.99" y="294.25" fill="#F5F5F5" width="3.47" height="3.47"/>
			<rect x="155.99" y="289.04" fill="#F5F5F5" width="3.47" height="3.48"/>
			<rect x="155.99" y="283.83" fill="#F5F5F5" width="3.47" height="3.47"/>
			<rect x="155.99" y="278.62" fill="#F5F5F5" width="3.47" height="3.47"/>
			<rect x="150.78" y="299.46" fill="#F5F5F5" width="3.47" height="3.47"/>
			<rect x="150.78" y="294.25" fill="#F5F5F5" width="3.47" height="3.47"/>
			<rect x="150.78" y="289.04" fill="#F5F5F5" width="3.47" height="3.48"/>
			<rect x="150.78" y="283.83" fill="#F5F5F5" width="3.47" height="3.47"/>
			<rect x="150.78" y="278.62" fill="#F5F5F5" width="3.47" height="3.47"/>
		</g>
	</g>
	<path fill="#5A6378" d="M829.98,319.01h-32.62h-2.6h-6.86h-65.57h-10.6c-0.24-4.26-0.41-3.74-0.41-5.13
		c0-8.24,4.42-15.89,11.01-20.16c3.4-2.2,7.36-3.52,11.61-3.52c5.29,0,10.12,1.86,13.96,4.91c1.61,1.28,3.05,2.75,4.26,4.41
		c0.08,0.11,0.17,0.21,0.25,0.31c1.23-0.99,2.6-1.79,4.01-2.51c1.35-0.69,2.77-1.22,4.26-1.63c1.83-0.5,3.73-0.85,5.73-0.85
		c8.6,0,16.01,4.83,19.83,11.9c0.4,0.74,0.8,1.49,1.12,2.27c0.8-1.87,1.88-3.54,3.14-5.01c1.23-1.44,2.67-2.66,4.26-3.7
		c1.32-0.85,2.74-1.57,4.26-2.13c2.7-1,5.66-1.56,8.79-1.56C819.79,296.61,829.48,306.23,829.98,319.01z"/>
	<path fill="#5A6378" d="M42.15,321.62H21.31v-57.79c0-0.7,0.56-1.26,1.26-1.26h18.32c0.7,0,1.26,0.56,1.26,1.26V321.62z"/>
	<path fill="#5A6378" d="M278.42,301.69c-2.7,0-5.25,0.48-7.58,1.35c-1.31,0.48-2.54,1.1-3.67,1.84c-1.37,0.89-2.61,1.95-3.67,3.19
		c-1.09,1.27-2.02,2.71-2.71,4.33c-0.27-0.68-0.62-1.32-0.97-1.96c-3.3-6.1-9.69-10.27-17.11-10.27c-1.73,0-3.36,0.3-4.95,0.73
		c-1.28,0.35-2.51,0.81-3.67,1.41c-1.22,0.62-2.4,1.32-3.46,2.17c-0.07-0.09-0.15-0.18-0.21-0.27c-1.05-1.43-2.29-2.7-3.67-3.8
		c-3.32-2.63-7.48-4.23-12.04-4.23c-3.67,0-7.08,1.14-10.01,3.04c-5.68,3.68-9.5,10.28-9.5,17.39c0,1.2,0.15,0.75,0.35,4.42h9.15
		h56.57h5.92h2.24h28.15C297.13,309.99,288.76,301.69,278.42,301.69z"/>
	<path fill="#5A6378" d="M76.89,321.62H56.04v-82.11c0-0.7,0.56-1.26,1.26-1.26h18.32c0.7,0,1.26,0.56,1.26,1.26V321.62z"/>
	<g id="XMLID_30_">
		<g>
			<rect x="35.2" y="289.46" fill="#F5F5F5" width="3.47" height="3.47"/>
			<rect x="35.2" y="284.25" fill="#F5F5F5" width="3.47" height="3.47"/>
			<rect x="35.2" y="279.04" fill="#F5F5F5" width="3.47" height="3.48"/>
			<polygon fill="#F5F5F5" points="38.68,275.57 38.68,277.3 35.2,277.3 35.2,273.83 38.68,273.83 			"/>
			<polygon fill="#F5F5F5" points="38.68,270.35 38.68,272.09 35.2,272.09 35.2,268.62 38.68,268.62 			"/>
			<rect x="29.99" y="289.46" fill="#F5F5F5" width="3.47" height="3.47"/>
			<rect x="29.99" y="284.25" fill="#F5F5F5" width="3.47" height="3.47"/>
			<rect x="29.99" y="279.04" fill="#F5F5F5" width="3.47" height="3.48"/>
			<rect x="29.99" y="273.83" fill="#F5F5F5" width="3.47" height="3.47"/>
			<rect x="29.99" y="268.62" fill="#F5F5F5" width="3.47" height="3.47"/>
			<rect x="24.78" y="289.46" fill="#F5F5F5" width="3.47" height="3.47"/>
			<rect x="24.78" y="284.25" fill="#F5F5F5" width="3.47" height="3.47"/>
			<rect x="24.78" y="279.04" fill="#F5F5F5" width="3.47" height="3.48"/>
			<rect x="24.78" y="273.83" fill="#F5F5F5" width="3.47" height="3.47"/>
			<rect x="24.78" y="268.62" fill="#F5F5F5" width="3.47" height="3.47"/>
		</g>
	</g>
	<g>
		<rect x="59.52" y="251.72" fill="#F5F5F5" width="13.9" height="3.47"/>
		<rect x="59.52" y="256.93" fill="#F5F5F5" width="13.9" height="3.47"/>
		<rect x="59.52" y="262.15" fill="#F5F5F5" width="13.9" height="3.47"/>
		<rect x="59.52" y="267.36" fill="#F5F5F5" width="13.9" height="3.47"/>
		<rect x="59.52" y="272.57" fill="#F5F5F5" width="13.9" height="3.47"/>
		<rect x="59.52" y="277.78" fill="#F5F5F5" width="13.9" height="3.47"/>
		<rect x="59.52" y="282.99" fill="#F5F5F5" width="13.9" height="3.47"/>
		<rect x="59.52" y="288.2" fill="#F5F5F5" width="13.9" height="3.47"/>
		<rect x="59.52" y="246.52" fill="#F5F5F5" width="13.9" height="3.47"/>
	</g>
	<rect x="28.25" y="296.88" fill="#28A197" width="36.47" height="24.32"/>
	<rect x="31.73" y="303.83" fill="#F5F5F5" width="29.53" height="17.37"/>
	<rect x="31.73" y="301.99" fill="#5A6378" width="29.53" height="19.63"/>
	<path fill="#28A197" d="M126.68,321.84v-85.18c0-0.69-0.56-1.26-1.26-1.26H103c-0.69,0-1.26,0.56-1.26,1.26v85.18L126.68,321.84
		L126.68,321.84z"/>
	<path fill="#5A6378" d="M103.71,271.54H76.48v49.88h28.5V272.8C104.98,272.1,104.41,271.54,103.71,271.54z"/>
	<g>
		<rect x="95.46" y="291.36" fill="#F5F5F5" width="4.53" height="4.53"/>
		<rect x="95.46" y="284.56" fill="#F5F5F5" width="4.53" height="4.53"/>
		<rect x="95.46" y="277.75" fill="#F5F5F5" width="4.53" height="4.53"/>
		<rect x="88.66" y="291.36" fill="#F5F5F5" width="4.53" height="4.53"/>
		<rect x="88.66" y="284.56" fill="#F5F5F5" width="4.53" height="4.53"/>
		<rect x="88.66" y="277.75" fill="#F5F5F5" width="4.53" height="4.53"/>
		<rect x="81.85" y="291.36" fill="#F5F5F5" width="4.54" height="4.53"/>
		<rect x="81.85" y="284.56" fill="#F5F5F5" width="4.54" height="4.53"/>
		<rect x="81.85" y="277.75" fill="#F5F5F5" width="4.54" height="4.53"/>
	</g>
	<g display="none">
		<path display="inline" fill="#5A6378" d="M130.97,250.22c-0.11-1.22-0.42-4.07-0.72-4.07s-0.61,2.85-0.72,4.07
			c0.19-0.15,0.46-0.27,0.72-0.27S130.78,250.03,130.97,250.22z"/>
		<circle display="inline" fill="#5A6378" cx="130.24" cy="251.09" r="0.76"/>
		<path display="inline" fill="#5A6378" d="M131.39,250.94c0,0.04,0,0.11,0,0.15c0,0.5-0.29,0.91-0.72,1.06
			c1.1,0.5,3.73,1.68,3.88,1.41C134.7,253.3,132.34,251.63,131.39,250.94z"/>
		<path display="inline" fill="#5A6378" d="M129.1,251.09c0-0.04,0-0.11,0-0.15c-0.99,0.69-3.31,2.4-3.16,2.66
			c0.15,0.27,2.78-0.91,3.88-1.41l-0.34,5.75H131l-0.34-5.78c-0.13,0.05-0.27,0.08-0.42,0.08
			C129.6,252.23,129.1,251.74,129.1,251.09z"/>
		<path display="inline" fill="#5A6378" d="M130.67,252.16L130.67,252.16L130.67,252.16L130.67,252.16z"/>
	</g>
	<path fill="#5A6378" d="M556.32,313.01h32.62h2.6h6.86h65.57h10.6c0.24-4.26,0.41-3.74,0.41-5.13c0-8.24-4.42-15.89-11.01-20.16
		c-3.4-2.2-7.36-3.52-11.61-3.52c-5.29,0-10.12,1.86-13.96,4.91c-1.61,1.28-3.05,2.75-4.26,4.41c-0.08,0.11-0.17,0.21-0.25,0.31
		c-1.23-0.99-2.6-1.79-4.01-2.51c-1.35-0.69-2.77-1.22-4.26-1.63c-1.83-0.5-3.73-0.85-5.73-0.85c-8.6,0-16.01,4.83-19.83,11.9
		c-0.4,0.74-0.8,1.49-1.12,2.27c-0.8-1.87-1.88-3.54-3.14-5.01c-1.23-1.44-2.67-2.66-4.26-3.7c-1.32-0.85-2.74-1.57-4.26-2.13
		c-2.7-1-5.66-1.56-8.79-1.56C566.51,290.61,556.82,300.23,556.32,313.01z"/>
	<rect y="273.83" fill="#5A6378" width="23.1" height="61.75"/>
	<path fill="#5A6378" d="M125.85,321.41h20.13c0.7,0,1.27-0.57,1.27-1.27V259.2c0-0.7-0.57-1.27-1.27-1.27h-20.13
		c-0.7,0-1.27,0.57-1.27,1.27v60.94C124.57,320.85,125.14,321.41,125.85,321.41z"/>
	<g id="XMLID_29_">
		<g>
			<rect x="117.61" y="286.17" fill="#F5F5F5" width="2.27" height="3.89"/>
			<rect x="117.61" y="280.34" fill="#F5F5F5" width="2.27" height="3.89"/>
			<rect x="117.61" y="274.51" fill="#F5F5F5" width="2.27" height="3.89"/>
			<rect x="117.61" y="268.68" fill="#F5F5F5" width="2.27" height="3.89"/>
			<rect x="117.61" y="262.85" fill="#F5F5F5" width="2.27" height="3.89"/>
			<rect x="117.61" y="257.01" fill="#F5F5F5" width="2.27" height="3.89"/>
			<rect x="117.61" y="251.18" fill="#F5F5F5" width="2.27" height="3.89"/>
			<rect x="117.61" y="243.41" fill="#F5F5F5" width="2.27" height="5.83"/>
			<rect x="113.08" y="286.17" fill="#F5F5F5" width="2.27" height="3.89"/>
			<rect x="113.08" y="280.34" fill="#F5F5F5" width="2.27" height="3.89"/>
			<rect x="113.08" y="274.51" fill="#F5F5F5" width="2.27" height="3.89"/>
			<rect x="113.08" y="268.68" fill="#F5F5F5" width="2.27" height="3.89"/>
			<rect x="113.08" y="262.85" fill="#F5F5F5" width="2.27" height="3.89"/>
			<rect x="113.08" y="257.02" fill="#F5F5F5" width="2.27" height="3.89"/>
			<rect x="113.08" y="251.18" fill="#F5F5F5" width="2.27" height="3.89"/>
			<rect x="113.08" y="243.41" fill="#F5F5F5" width="2.27" height="5.83"/>
			<rect x="108.54" y="286.17" fill="#F5F5F5" width="2.26" height="3.89"/>
			<rect x="108.54" y="280.34" fill="#F5F5F5" width="2.26" height="3.89"/>
			<rect x="108.54" y="274.51" fill="#F5F5F5" width="2.26" height="3.89"/>
			<rect x="108.54" y="268.68" fill="#F5F5F5" width="2.26" height="3.89"/>
			<rect x="108.54" y="262.85" fill="#F5F5F5" width="2.26" height="3.89"/>
			<rect x="108.54" y="257.02" fill="#F5F5F5" width="2.26" height="3.89"/>
			<rect x="108.54" y="251.18" fill="#F5F5F5" width="2.26" height="3.89"/>
			<rect x="108.54" y="243.41" fill="#F5F5F5" width="2.26" height="5.83"/>
		</g>
	</g>
	<g id="XMLID_28_">
		<g>
			<rect x="140.45" y="290.13" fill="#F5F5F5" width="2.26" height="2.26"/>
			<rect x="140.45" y="283.33" fill="#F5F5F5" width="2.26" height="4.53"/>
			<rect x="140.45" y="276.53" fill="#F5F5F5" width="2.26" height="4.53"/>
			<rect x="140.45" y="269.72" fill="#F5F5F5" width="2.26" height="4.54"/>
			<rect x="140.45" y="262.92" fill="#F5F5F5" width="2.26" height="4.53"/>
			<rect x="133.65" y="290.13" fill="#F5F5F5" width="4.53" height="2.26"/>
			<rect x="133.65" y="283.33" fill="#F5F5F5" width="4.53" height="4.53"/>
			<rect x="133.65" y="276.53" fill="#F5F5F5" width="4.53" height="4.53"/>
			<rect x="133.65" y="269.72" fill="#F5F5F5" width="4.53" height="4.54"/>
			<rect x="133.65" y="262.92" fill="#F5F5F5" width="4.53" height="4.53"/>
			<rect x="129.11" y="290.13" fill="#F5F5F5" width="2.26" height="2.26"/>
			<rect x="129.11" y="283.33" fill="#F5F5F5" width="2.26" height="4.53"/>
			<rect x="129.11" y="276.53" fill="#F5F5F5" width="2.26" height="4.53"/>
			<rect x="129.11" y="269.72" fill="#F5F5F5" width="2.26" height="4.54"/>
			<rect x="129.11" y="262.92" fill="#F5F5F5" width="2.26" height="4.53"/>
		</g>
	</g>
	<g>
		<g>
			<defs>
				<rect id="SVGID_2_" x="77.73" y="293.51" width="77.84" height="28.38"/>
			</defs>
			<clipPath id="SVGID_3_">
				<use xlink:href="#SVGID_2_"  overflow="visible"/>
			</clipPath>
			<g clip-path="url(#SVGID_3_)">
				<path fill="#AAD7D3" d="M114.18,344.47c-12.99,0-23.56-10.57-23.56-23.56c0-12.99,10.57-23.56,23.56-23.56
					s23.56,10.57,23.56,23.56C137.75,333.9,127.18,344.47,114.18,344.47z"/>
				<path fill="#F5F5F5" d="M114.18,298.62c12.3,0,22.3,10,22.3,22.3s-10,22.3-22.3,22.3s-22.3-10-22.3-22.3
					S101.89,298.62,114.18,298.62 M114.18,296.09c-13.71,0-24.82,11.11-24.82,24.82s11.11,24.82,24.82,24.82S139,334.62,139,320.91
					S127.89,296.09,114.18,296.09L114.18,296.09z"/>
			</g>
		</g>
	</g>
	<g>
		<circle fill="#5A6378" cx="254.74" cy="287.6" r="17.19"/>
		<g id="XMLID_27_">
			<g>
				<path fill="#AAD7D3" d="M263.76,292.69c0.03,0.24,0.24,3.36-1.49,5.24c-0.81,0.88-1.92,1.34-3.21,1.34h-0.45h-2.58v4.99v1.3v1.3
					v14.16h-0.73h-1.85V307v-1.29v-1.29v-12.89h-2.58h-0.97c-3.07,0-4.19-2.67-4.19-4.47v-5.85c0-0.71,0.57-1.29,1.29-1.29
					c0.71,0,1.29,0.58,1.29,1.29v5.85c0.01,0.44,0.14,1.89,1.61,1.89h0.97h2.58v-7.74c0-0.18,0.03-0.35,0.1-0.5
					c0.19-0.46,0.65-0.79,1.19-0.79c0.71,0,1.29,0.57,1.29,1.29v15.47h2.58h0.45c0.57,0,0.99-0.16,1.31-0.51
					c0.83-0.9,0.87-2.79,0.81-3.38l0-6.42c0-0.71,0.58-1.29,1.29-1.29c0.71,0,1.29,0.58,1.29,1.29L263.76,292.69L263.76,292.69z"/>
			</g>
		</g>
	</g>
	<g display="none">
		<path display="inline" fill="#5A6378" d="M142.3,250.22c-0.11-1.22-0.42-4.07-0.72-4.07c-0.3,0-0.61,2.85-0.72,4.07
			c0.19-0.15,0.46-0.27,0.72-0.27S142.12,250.03,142.3,250.22z"/>
		<circle display="inline" fill="#5A6378" cx="141.58" cy="251.09" r="0.76"/>
		<path display="inline" fill="#5A6378" d="M142.72,250.94c0,0.04,0,0.11,0,0.15c0,0.5-0.29,0.91-0.72,1.06
			c1.1,0.5,3.73,1.68,3.88,1.41C146.03,253.3,143.67,251.63,142.72,250.94z"/>
		<path display="inline" fill="#5A6378" d="M140.44,251.09c0-0.04,0-0.11,0-0.15c-0.99,0.69-3.31,2.4-3.16,2.66
			c0.15,0.27,2.78-0.91,3.88-1.41l-0.34,5.75h1.52l-0.34-5.78c-0.13,0.05-0.27,0.08-0.42,0.08
			C140.93,252.23,140.44,251.74,140.44,251.09z"/>
		<path display="inline" fill="#5A6378" d="M142,252.16L142,252.16L142,252.16L142,252.16z"/>
	</g>
	<g display="none">
		<rect x="103.64" y="231.95" display="inline" fill="#F5F5F5" width="1.98" height="1.98"/>
		<rect x="103.64" y="226.3" display="inline" fill="#F5F5F5" width="1.98" height="1.98"/>
		<rect x="106.46" y="231.95" display="inline" fill="#F5F5F5" width="1.98" height="1.98"/>
		<rect x="103.64" y="229.12" display="inline" fill="#F5F5F5" width="1.98" height="1.98"/>
		<rect x="106.46" y="229.12" display="inline" fill="#F5F5F5" width="1.98" height="1.98"/>
		<rect x="106.46" y="226.3" display="inline" fill="#F5F5F5" width="1.98" height="1.98"/>
		<path display="inline" fill="#28A197" d="M106.25,225.67h-0.42h-2.82v2.82v0.42v2.4v0.42v2.82h2.82h0.42h2.82v-2.82v-0.42v-2.4
			v-0.42v-2.82H106.25z M105.62,228.28h-1.98v-1.98h1.98V228.28z M105.62,231.11h-1.98v-1.98h1.98V231.11z M105.62,233.93h-1.98
			v-1.98h1.98V233.93z M108.44,228.28h-1.98v-1.98h1.98V228.28z M108.44,231.11h-1.98v-1.98h1.98V231.11z M108.44,233.93h-1.98
			v-1.98h1.98V233.93z"/>
		<rect x="103.64" y="233.93" display="inline" fill="#28A197" width="4.81" height="1.46"/>
	</g>
	<g display="none">
		<path display="inline" fill="#28A197" d="M114.93,226.46c-0.11-1.22-0.42-4.07-0.72-4.07c-0.3,0-0.61,2.85-0.72,4.07
			c0.19-0.15,0.46-0.27,0.72-0.27C114.48,226.19,114.75,226.27,114.93,226.46z"/>
		<circle display="inline" fill="#28A197" cx="114.21" cy="227.34" r="0.76"/>
		<path display="inline" fill="#28A197" d="M115.35,227.19c0,0.04,0,0.11,0,0.15c0,0.5-0.29,0.91-0.72,1.07
			c1.1,0.5,3.73,1.68,3.88,1.41C118.66,229.54,116.3,227.87,115.35,227.19z"/>
		<path display="inline" fill="#28A197" d="M113.07,227.34c0-0.04,0-0.11,0-0.15c-0.99,0.69-3.31,2.4-3.16,2.66
			c0.15,0.27,2.78-0.91,3.88-1.41l-0.34,8.22h1.52l-0.34-8.25c-0.13,0.05-0.27,0.08-0.42,0.08
			C113.56,228.48,113.07,227.98,113.07,227.34z"/>
		<path display="inline" fill="#28A197" d="M114.63,228.4L114.63,228.4L114.63,228.4L114.63,228.4z"/>
	</g>
	<g display="none">
		<rect x="119.98" y="231.95" display="inline" fill="#F5F5F5" width="1.98" height="1.98"/>
		<rect x="119.98" y="226.3" display="inline" fill="#F5F5F5" width="1.98" height="1.98"/>
		<rect x="122.8" y="231.95" display="inline" fill="#F5F5F5" width="1.98" height="1.98"/>
		<rect x="119.98" y="229.12" display="inline" fill="#F5F5F5" width="1.98" height="1.98"/>
		<rect x="122.8" y="229.12" display="inline" fill="#F5F5F5" width="1.98" height="1.98"/>
		<rect x="122.8" y="226.3" display="inline" fill="#F5F5F5" width="1.98" height="1.98"/>
		<path display="inline" fill="#28A197" d="M122.59,225.67h-0.42h-2.82v2.82v0.42v2.4v0.42v2.82h2.82h0.42h2.82v-2.82v-0.42v-2.4
			v-0.42v-2.82H122.59z M121.96,228.28h-1.98v-1.98h1.98V228.28z M121.96,231.11h-1.98v-1.98h1.98V231.11z M121.96,233.93h-1.98
			v-1.98h1.98V233.93z M124.78,228.28h-1.98v-1.98h1.98V228.28z M124.78,231.11h-1.98v-1.98h1.98V231.11z M124.78,233.93h-1.98
			v-1.98h1.98V233.93z"/>
		<rect x="119.98" y="233.93" display="inline" fill="#28A197" width="4.81" height="1.46"/>
	</g>
	<rect y="320.52" fill="#AAD7D3" width="841.89" height="55.25"/>
	<path fill="#F5F5F5" d="M0,340.05c0,0,91.14-0.09,263.36,0.09c132.85,0.13,424.25,11.45,578.53,26.11c0,15.44,0,50.77,0,50.77H0
		V340.05z"/>
	<path display="none" fill="#F5F5F5" d="M31.82,335.86c0,0.3,0,1.85,0,1.85c0,0.22,0.42,0.7,0.73,0.92
		c0.24,0.82,0.99,1.42,1.89,1.42c0.85,0,1.58-0.55,1.85-1.31h6.12c0.27,0.76,1,1.31,1.85,1.31c0.85,0,1.58-0.55,1.85-1.31h0.44
		c0.27,0,0.98-0.75,0.98-1.03c0,0,0-1.96,0-2.26c0-0.53-0.26-0.86-2.02-1.23c-0.27-0.48-1.46-1.89-1.67-2.25
		c-0.22-0.36-0.45-0.44-0.88-0.44s-4.07,0-4.21,0c-0.15,0-0.44,0.04-0.88,0.44c-0.61,0.56-1.55,1.46-2.82,2.66
		C32.85,335.07,31.82,335.36,31.82,335.86z M44.16,334.81c-0.17,0-1.52,0-3.03,0v-2.24c0.75,0,1.43,0,1.56,0
		c0.32,0,0.44,0.08,0.62,0.34c0.14,0.2,0.74,0.97,0.99,1.32C44.6,334.64,44.46,334.81,44.16,334.81z M43.28,338.08
		c0-0.54,0.44-0.98,0.98-0.98c0.54,0,0.98,0.44,0.98,0.98c0,0.54-0.44,0.98-0.98,0.98C43.72,339.07,43.28,338.62,43.28,338.08z
		 M36.64,334.81c-0.26,0-0.42-0.07-0.07-0.41c0.39-0.38,1.4-1.33,1.65-1.55c0.18-0.16,0.45-0.27,0.7-0.27c0,0,0.97,0,1.92,0v2.24
		C38.83,334.81,36.64,334.81,36.64,334.81z M33.46,338.08c0-0.54,0.44-0.98,0.98-0.98c0.54,0,0.98,0.44,0.98,0.98
		c0,0.54-0.44,0.98-0.98,0.98C33.9,339.07,33.46,338.62,33.46,338.08z"/>
	<path display="none" fill="#F5F5F5" d="M65.51,334.17l0,3.43c0,0.24,0.2,0.44,0.44,0.44h0.9c0,1.11,0.9,2,2,2c1.11,0,2-0.9,2-2l0,0
		h0.9c0.24,0,0.44-0.2,0.44-0.44l-0.01-7.14c0-0.24-0.2-0.44-0.44-0.44l0,0h-1.57H68.4c-0.15,0-0.28,0.07-0.37,0.19l-2.46,3.7
		c-0.05,0.07-0.07,0.15-0.07,0.23C65.51,334.17,65.51,334.17,65.51,334.17z M66.71,334.04l1.78-2.67h1.69l0,2.67L66.71,334.04z
		 M67.85,338.05c0-0.55,0.45-1,1-1c0.55,0,1,0.45,1,1c0,0.55-0.45,1-1,1C68.3,339.05,67.85,338.6,67.85,338.05z M72.84,329.28
		l0.01,8.18c0,0.32,0.26,0.58,0.58,0.58h2.09c0,1.11,0.9,2,2,2c1.11,0,2-0.9,2-2h1.42c0.32,0,0.58-0.26,0.58-0.58l-0.01-8.18
		c0-0.32-0.26-0.58-0.58-0.58l-7.52,0.01C73.11,328.69,72.84,328.95,72.84,329.28z M76.52,338.04c0-0.55,0.45-1,1-1s1,0.45,1,1
		c0,0.55-0.45,1-1,1S76.53,338.59,76.52,338.04z"/>
	<g display="none">
		<path display="inline" fill="#F5F5F5" d="M199.76,338.39c0,0.96,0.78,1.73,1.73,1.73c0.96,0,1.73-0.78,1.73-1.73
			s-0.78-1.73-1.73-1.73C200.54,336.65,199.76,337.43,199.76,338.39z M200.5,338.39c0-0.55,0.45-1,1-1c0.55,0,1,0.45,1,1
			c0,0.55-0.45,1-1,1C200.95,339.39,200.5,338.94,200.5,338.39z"/>
		<path display="inline" fill="#F5F5F5" d="M194.8,338.39c0,0.96,0.78,1.73,1.73,1.73c0.96,0,1.73-0.78,1.73-1.73
			s-0.78-1.73-1.73-1.73C195.58,336.65,194.8,337.43,194.8,338.39z M195.54,338.39c0-0.55,0.45-1,1-1c0.55,0,1,0.45,1,1
			c0,0.55-0.45,1-1,1C195.99,339.39,195.54,338.94,195.54,338.39z"/>
		<path display="inline" fill="#F5F5F5" d="M198.48,337.02v2.14c0,0.3,0.25,0.55,0.55,0.55c0.3,0,0.55-0.25,0.55-0.55v-1.89
			l1.2-1.06c0.11-0.1,0.19-0.25,0.19-0.4c0-0.16-0.06-0.3-0.17-0.41l-1.92-1.84c-0.12-0.11-0.28-0.17-0.44-0.15
			c-0.16,0.02-0.31,0.11-0.4,0.24l-0.68,1.03l-0.65,0.02c-0.3,0.01-0.54,0.27-0.53,0.57c0.01,0.3,0.27,0.54,0.57,0.53l0.93-0.03
			c0.18,0,0.34-0.1,0.44-0.25l0.48-0.72l1.01,0.97l-0.93,0.83C198.55,336.71,198.48,336.86,198.48,337.02z"/>
		<circle display="inline" fill="#F5F5F5" cx="197.27" cy="332.95" r="0.73"/>
	</g>
	<path display="none" fill="#F5F5F5" d="M100.03,335.86c0,0.3,0,1.85,0,1.85c0,0.22,0.42,0.7,0.73,0.92
		c0.24,0.82,0.99,1.42,1.89,1.42c0.85,0,1.58-0.55,1.85-1.31h6.12c0.27,0.76,1,1.31,1.85,1.31c0.85,0,1.58-0.55,1.85-1.31h0.44
		c0.27,0,0.98-0.75,0.98-1.03c0,0,0-1.96,0-2.26c0-0.53-0.26-0.86-2.02-1.23c-0.27-0.48-1.46-1.89-1.67-2.25
		c-0.22-0.36-0.45-0.44-0.88-0.44c-0.43,0-4.07,0-4.21,0c-0.15,0-0.44,0.04-0.88,0.44c-0.61,0.56-1.55,1.46-2.82,2.66
		C101.06,335.07,100.03,335.36,100.03,335.86z M112.37,334.81c-0.17,0-1.52,0-3.03,0v-2.24c0.75,0,1.43,0,1.56,0
		c0.32,0,0.44,0.08,0.62,0.34c0.14,0.2,0.74,0.97,0.99,1.32C112.81,334.64,112.67,334.81,112.37,334.81z M111.5,338.08
		c0-0.54,0.44-0.98,0.98-0.98c0.54,0,0.98,0.44,0.98,0.98c0,0.54-0.44,0.98-0.98,0.98C111.94,339.07,111.5,338.62,111.5,338.08z
		 M104.86,334.81c-0.26,0-0.42-0.07-0.07-0.41c0.39-0.38,1.4-1.33,1.65-1.55c0.18-0.16,0.45-0.27,0.7-0.27c0,0,0.97,0,1.92,0v2.24
		C107.05,334.81,104.86,334.81,104.86,334.81z M101.67,338.08c0-0.54,0.44-0.98,0.98-0.98c0.54,0,0.98,0.44,0.98,0.98
		c0,0.54-0.44,0.98-0.98,0.98C102.11,339.07,101.67,338.62,101.67,338.08z"/>
	<g display="none">
		<path display="inline" fill="#D53A81" d="M111.54,324.16c0.35,0.17,0.72,0.25,1.08,0.25c0.91,0,1.78-0.51,2.21-1.38
			c0.08-0.17,0.15-0.35,0.19-0.53l2.48-10.78l0.95-4.1l0.59-2.54c0.07-0.29-0.17-0.5-0.4-0.5c-0.14,0-0.28,0.07-0.35,0.23
			l-1.19,2.44l-1.76,3.59l-4.9,10.03C109.82,322.1,110.33,323.57,111.54,324.16z"/>
		<g id="XMLID_26_" display="inline">
			<g>
				<path fill="#AAD7D3" d="M112.71,320.69c0.67,0,1.2,0.54,1.2,1.2c0,0.66-0.54,1.2-1.2,1.2c-0.66,0-1.2-0.54-1.2-1.2
					C111.51,321.23,112.05,320.69,112.71,320.69z"/>
			</g>
		</g>
	</g>
	<path display="none" fill="#28A197" d="M118.13,235.39h-7.77v-2.89c0-0.31,0.25-0.56,0.56-0.56h6.66c0.31,0,0.56,0.25,0.56,0.56
		L118.13,235.39L118.13,235.39z"/>
	<circle display="none" fill="#F5F5F5" cx="112.36" cy="233.8" r="1.31"/>
	<circle display="none" fill="#F5F5F5" cx="116.11" cy="233.8" r="1.31"/>
	<path display="none" fill="#28A197" d="M113.3,234.2l-0.57-0.33c0-0.01,0-0.02,0-0.03c0-0.15-0.09-0.29-0.23-0.34v-0.7
		c0-0.08-0.07-0.15-0.15-0.15s-0.15,0.07-0.15,0.15v0.7c-0.13,0.06-0.23,0.19-0.23,0.34c0,0.01,0,0.02,0,0.03l-0.57,0.33
		c-0.07,0.04-0.1,0.13-0.05,0.2c0.03,0.05,0.08,0.07,0.13,0.07c0.03,0,0.05,0,0.07-0.02l0.56-0.32c0.06,0.05,0.14,0.09,0.23,0.09
		c0.09,0,0.17-0.03,0.23-0.09l0.56,0.32c0.03,0.01,0.05,0.02,0.07,0.02c0.05,0,0.1-0.03,0.13-0.07
		C113.39,234.33,113.37,234.24,113.3,234.2z"/>
	<path display="none" fill="#28A197" d="M117.04,234.2l-0.57-0.33c0-0.01,0-0.02,0-0.03c0-0.15-0.09-0.29-0.23-0.34v-0.7
		c0-0.08-0.07-0.15-0.15-0.15s-0.15,0.07-0.15,0.15v0.7c-0.13,0.06-0.23,0.19-0.23,0.34c0,0.01,0,0.02,0,0.03l-0.57,0.33
		c-0.07,0.04-0.1,0.13-0.05,0.2c0.03,0.05,0.08,0.07,0.13,0.07c0.03,0,0.05,0,0.07-0.02l0.56-0.32c0.06,0.05,0.14,0.09,0.23,0.09
		s0.17-0.03,0.23-0.09l0.56,0.32c0.03,0.01,0.05,0.02,0.07,0.02c0.05,0,0.1-0.03,0.13-0.07
		C117.14,234.33,117.12,234.24,117.04,234.2z"/>
	<g display="none">
		<path display="inline" fill="#5A6378" d="M764.88,295.7v-9.16c0-0.81-0.93-1.27-1.57-0.79l-13.26,9.94v-9.16
			c0-0.81-0.93-1.27-1.57-0.79l-13.26,9.94l-0.06-35.31h-11.84v61.26h11.9h44.49v-35.1c0-0.81-0.93-1.27-1.57-0.79L764.88,295.7z"/>
	</g>
	<g display="none">
		<path display="inline" fill="#5A6378" d="M704.3,295.7v-9.16c0-0.81-0.93-1.27-1.57-0.79l-13.26,9.94v-9.16
			c0-0.81-0.93-1.27-1.57-0.79l-13.26,9.94l-0.06-35.31h-11.84v61.26h11.9h44.49v-35.1c0-0.81-0.93-1.27-1.57-0.79L704.3,295.7z"/>
	</g>
	<path fill="#AAD7D3" d="M761.6,307.88c-2.7,0-5.25,0.48-7.58,1.35c-1.31,0.48-2.54,1.1-3.67,1.84c-1.37,0.89-2.61,1.95-3.67,3.19
		c-1.09,1.27-2.02,2.71-2.71,4.33c-0.27-0.68-0.62-1.32-0.97-1.96c-3.3-6.1-9.69-10.27-17.11-10.27c-1.73,0-3.36,0.3-4.95,0.73
		c-1.28,0.35-2.51,0.81-3.67,1.41c-1.22,0.62-2.4,1.32-3.46,2.17c-0.07-0.09-0.15-0.18-0.21-0.27c-1.05-1.43-2.29-2.7-3.67-3.8
		c-3.32-2.63-7.48-4.23-12.04-4.23c-3.67,0-7.08,1.14-10.01,3.04c-5.68,3.68-9.5,10.28-9.5,17.39c0,1.2,0.15,0.75,0.35,4.42h9.15
		h56.57h5.92h2.24h28.15C780.31,316.18,771.94,307.88,761.6,307.88z"/>
	<path fill="#5A6378" d="M487.54,321.02h28.15h2.24h5.92h56.57h9.15c0.21-3.67,0.35-3.22,0.35-4.42c0-7.11-3.81-13.71-9.5-17.39
		c-2.93-1.9-6.35-3.04-10.01-3.04c-4.56,0-8.73,1.6-12.04,4.23c-1.38,1.1-2.63,2.37-3.67,3.8c-0.07,0.09-0.15,0.18-0.21,0.27
		c-1.07-0.85-2.24-1.55-3.46-2.17c-1.17-0.59-2.39-1.06-3.67-1.41c-1.58-0.43-3.22-0.73-4.95-0.73c-7.42,0-13.82,4.17-17.11,10.27
		c-0.35,0.64-0.69,1.28-0.97,1.96c-0.69-1.62-1.62-3.06-2.71-4.33c-1.06-1.24-2.3-2.3-3.67-3.19c-1.14-0.74-2.37-1.36-3.67-1.84
		c-2.33-0.86-4.88-1.35-7.58-1.35C496.33,301.69,487.97,309.99,487.54,321.02z"/>
	<g>
		<circle fill="#5A6378" cx="557.81" cy="287.58" r="17.19"/>
		<g id="XMLID_25_">
			<g>
				<path fill="#AAD7D3" d="M566.82,292.67c0.03,0.24,0.24,3.36-1.49,5.24c-0.81,0.88-1.92,1.34-3.21,1.34h-0.45h-2.58v4.99v1.3v1.3
					v14.16h-0.73h-1.85v-14.02v-1.29v-1.29v-12.89h-2.58h-0.97c-3.07,0-4.19-2.67-4.19-4.47v-5.85c0-0.71,0.57-1.29,1.29-1.29
					s1.29,0.58,1.29,1.29v5.85c0.01,0.44,0.14,1.89,1.61,1.89h0.97h2.58v-7.74c0-0.18,0.03-0.35,0.1-0.5
					c0.19-0.46,0.65-0.79,1.19-0.79c0.71,0,1.29,0.57,1.29,1.29v15.47h2.58h0.45c0.57,0,0.99-0.16,1.31-0.51
					c0.83-0.9,0.87-2.79,0.81-3.38l0-6.42c0-0.71,0.58-1.29,1.29-1.29c0.71,0,1.29,0.58,1.29,1.29L566.82,292.67L566.82,292.67z"/>
			</g>
		</g>
	</g>
	<g display="none">
		<g display="inline">
			<g>
				<g>
					<g id="XMLID_112_">
						<g>
							<path fill="#AAD7D3" d="M550.7,320.78h-0.11h-0.29v-7.29c0-0.03,0-0.06,0.02-0.09c0.03-0.08,0.1-0.14,0.19-0.14
								c0.11,0,0.2,0.11,0.2,0.24V320.78L550.7,320.78z"/>
						</g>
					</g>
				</g>
				<path fill="#AAD7D3" d="M550.04,316.79c0.38,0.44,0.32,1.12,0.32,1.12s-0.68-0.04-1.06-0.48c-0.38-0.44-0.32-1.12-0.32-1.12
					S549.67,316.35,550.04,316.79z"/>
				<path fill="#AAD7D3" d="M550.99,312.8c0,0.58-0.48,1.06-0.48,1.06s-0.49-0.47-0.5-1.05s0.48-1.06,0.48-1.06
					S550.98,312.21,550.99,312.8z"/>
				<path fill="#AAD7D3" d="M550.97,316.79c-0.38,0.44-0.32,1.12-0.32,1.12s0.68-0.04,1.06-0.48s0.32-1.12,0.32-1.12
					S551.34,316.35,550.97,316.79z"/>
				<path fill="#AAD7D3" d="M550.04,313.74c0.38,0.44,0.32,1.12,0.32,1.12s-0.68-0.04-1.06-0.48c-0.38-0.44-0.32-1.12-0.32-1.12
					S549.67,313.29,550.04,313.74z"/>
				<path fill="#AAD7D3" d="M550.97,313.74c-0.38,0.44-0.32,1.12-0.32,1.12s0.68-0.04,1.06-0.48s0.32-1.12,0.32-1.12
					S551.34,313.29,550.97,313.74z"/>
				<path fill="#AAD7D3" d="M550.04,315.26c0.38,0.44,0.32,1.12,0.32,1.12s-0.68-0.04-1.06-0.48c-0.38-0.44-0.32-1.12-0.32-1.12
					S549.67,314.82,550.04,315.26z"/>
				<path fill="#AAD7D3" d="M550.97,315.26c-0.38,0.44-0.32,1.12-0.32,1.12s0.68-0.04,1.06-0.48s0.32-1.12,0.32-1.12
					S551.34,314.82,550.97,315.26z"/>
				<path fill="#AAD7D3" d="M550.04,318.32c0.38,0.44,0.32,1.12,0.32,1.12s-0.68-0.04-1.06-0.48c-0.38-0.44-0.32-1.12-0.32-1.12
					S549.67,317.87,550.04,318.32z"/>
				<path fill="#AAD7D3" d="M550.97,318.32c-0.38,0.44-0.32,1.12-0.32,1.12s0.68-0.04,1.06-0.48s0.32-1.12,0.32-1.12
					S551.34,317.87,550.97,318.32z"/>
			</g>
		</g>
		<g display="inline">
			<g>
				<g>
					<g id="XMLID_109_">
						<g>
							<path fill="#AAD7D3" d="M544.8,320.78h-0.11h-0.29v-7.29c0-0.03,0-0.06,0.02-0.09c0.03-0.08,0.1-0.14,0.19-0.14
								c0.11,0,0.2,0.11,0.2,0.24L544.8,320.78L544.8,320.78z"/>
						</g>
					</g>
				</g>
				<path fill="#AAD7D3" d="M544.15,316.79c0.38,0.44,0.32,1.12,0.32,1.12s-0.68-0.04-1.06-0.48s-0.32-1.12-0.32-1.12
					S543.77,316.35,544.15,316.79z"/>
				<path fill="#AAD7D3" d="M545.09,312.8c0,0.58-0.48,1.06-0.48,1.06s-0.49-0.47-0.5-1.05s0.48-1.06,0.48-1.06
					S545.09,312.21,545.09,312.8z"/>
				<path fill="#AAD7D3" d="M545.07,316.79c-0.38,0.44-0.32,1.12-0.32,1.12s0.68-0.04,1.06-0.48s0.32-1.12,0.32-1.12
					S545.45,316.35,545.07,316.79z"/>
				<path fill="#AAD7D3" d="M544.15,313.74c0.38,0.44,0.32,1.12,0.32,1.12s-0.68-0.04-1.06-0.48s-0.32-1.12-0.32-1.12
					S543.77,313.29,544.15,313.74z"/>
				<path fill="#AAD7D3" d="M545.07,313.74c-0.38,0.44-0.32,1.12-0.32,1.12s0.68-0.04,1.06-0.48s0.32-1.12,0.32-1.12
					S545.45,313.29,545.07,313.74z"/>
				<path fill="#AAD7D3" d="M544.15,315.26c0.38,0.44,0.32,1.12,0.32,1.12s-0.68-0.04-1.06-0.48s-0.32-1.12-0.32-1.12
					S543.77,314.82,544.15,315.26z"/>
				<path fill="#AAD7D3" d="M545.07,315.26c-0.38,0.44-0.32,1.12-0.32,1.12s0.68-0.04,1.06-0.48s0.32-1.12,0.32-1.12
					S545.45,314.82,545.07,315.26z"/>
				<path fill="#AAD7D3" d="M544.15,318.32c0.38,0.44,0.32,1.12,0.32,1.12s-0.68-0.04-1.06-0.48s-0.32-1.12-0.32-1.12
					S543.77,317.87,544.15,318.32z"/>
				<path fill="#AAD7D3" d="M545.07,318.32c-0.38,0.44-0.32,1.12-0.32,1.12s0.68-0.04,1.06-0.48s0.32-1.12,0.32-1.12
					S545.45,317.87,545.07,318.32z"/>
			</g>
		</g>
		<g display="inline">
			<g>
				<g>
					<g id="XMLID_106_">
						<g>
							<path fill="#AAD7D3" d="M538.91,320.78h-0.11h-0.29v-7.29c0-0.03,0-0.06,0.02-0.09c0.03-0.08,0.1-0.14,0.19-0.14
								c0.11,0,0.2,0.11,0.2,0.24L538.91,320.78L538.91,320.78z"/>
						</g>
					</g>
				</g>
				<path fill="#AAD7D3" d="M538.26,316.79c0.38,0.44,0.32,1.12,0.32,1.12s-0.68-0.04-1.06-0.48c-0.38-0.44-0.32-1.12-0.32-1.12
					S537.88,316.35,538.26,316.79z"/>
				<path fill="#AAD7D3" d="M539.2,312.8c0,0.58-0.48,1.06-0.48,1.06s-0.49-0.47-0.5-1.05s0.48-1.06,0.48-1.06
					S539.2,312.21,539.2,312.8z"/>
				<path fill="#AAD7D3" d="M539.18,316.79c-0.38,0.44-0.32,1.12-0.32,1.12s0.68-0.04,1.06-0.48c0.38-0.44,0.32-1.12,0.32-1.12
					S539.55,316.35,539.18,316.79z"/>
				<path fill="#AAD7D3" d="M538.26,313.74c0.38,0.44,0.32,1.12,0.32,1.12s-0.68-0.04-1.06-0.48c-0.38-0.44-0.32-1.12-0.32-1.12
					S537.88,313.29,538.26,313.74z"/>
				<path fill="#AAD7D3" d="M539.18,313.74c-0.38,0.44-0.32,1.12-0.32,1.12s0.68-0.04,1.06-0.48c0.38-0.44,0.32-1.12,0.32-1.12
					S539.55,313.29,539.18,313.74z"/>
				<path fill="#AAD7D3" d="M538.26,315.26c0.38,0.44,0.32,1.12,0.32,1.12s-0.68-0.04-1.06-0.48c-0.38-0.44-0.32-1.12-0.32-1.12
					S537.88,314.82,538.26,315.26z"/>
				<path fill="#AAD7D3" d="M539.18,315.26c-0.38,0.44-0.32,1.12-0.32,1.12s0.68-0.04,1.06-0.48c0.38-0.44,0.32-1.12,0.32-1.12
					S539.55,314.82,539.18,315.26z"/>
				<path fill="#AAD7D3" d="M538.26,318.32c0.38,0.44,0.32,1.12,0.32,1.12s-0.68-0.04-1.06-0.48c-0.38-0.44-0.32-1.12-0.32-1.12
					S537.88,317.87,538.26,318.32z"/>
				<path fill="#AAD7D3" d="M539.18,318.32c-0.38,0.44-0.32,1.12-0.32,1.12s0.68-0.04,1.06-0.48c0.38-0.44,0.32-1.12,0.32-1.12
					S539.55,317.87,539.18,318.32z"/>
			</g>
		</g>
		<g display="inline">
			<g>
				<g>
					<g id="XMLID_103_">
						<g>
							<path fill="#AAD7D3" d="M533.02,320.78h-0.11h-0.29v-7.29c0-0.03,0-0.06,0.02-0.09c0.03-0.08,0.1-0.14,0.19-0.14
								c0.11,0,0.2,0.11,0.2,0.24V320.78L533.02,320.78z"/>
						</g>
					</g>
				</g>
				<path fill="#AAD7D3" d="M532.36,316.79c0.38,0.44,0.32,1.12,0.32,1.12s-0.68-0.04-1.06-0.48c-0.38-0.44-0.32-1.12-0.32-1.12
					S531.99,316.35,532.36,316.79z"/>
				<path fill="#AAD7D3" d="M533.31,312.8c0,0.58-0.48,1.06-0.48,1.06s-0.49-0.47-0.5-1.05s0.48-1.06,0.48-1.06
					S533.3,312.21,533.31,312.8z"/>
				<path fill="#AAD7D3" d="M533.29,316.79c-0.38,0.44-0.32,1.12-0.32,1.12s0.68-0.04,1.06-0.48c0.38-0.44,0.32-1.12,0.32-1.12
					S533.66,316.35,533.29,316.79z"/>
				<path fill="#AAD7D3" d="M532.36,313.74c0.38,0.44,0.32,1.12,0.32,1.12s-0.68-0.04-1.06-0.48c-0.38-0.44-0.32-1.12-0.32-1.12
					S531.99,313.29,532.36,313.74z"/>
				<path fill="#AAD7D3" d="M533.29,313.74c-0.38,0.44-0.32,1.12-0.32,1.12s0.68-0.04,1.06-0.48c0.38-0.44,0.32-1.12,0.32-1.12
					S533.66,313.29,533.29,313.74z"/>
				<path fill="#AAD7D3" d="M532.36,315.26c0.38,0.44,0.32,1.12,0.32,1.12s-0.68-0.04-1.06-0.48c-0.38-0.44-0.32-1.12-0.32-1.12
					S531.99,314.82,532.36,315.26z"/>
				<path fill="#AAD7D3" d="M533.29,315.26c-0.38,0.44-0.32,1.12-0.32,1.12s0.68-0.04,1.06-0.48c0.38-0.44,0.32-1.12,0.32-1.12
					S533.66,314.82,533.29,315.26z"/>
				<path fill="#AAD7D3" d="M532.36,318.32c0.38,0.44,0.32,1.12,0.32,1.12s-0.68-0.04-1.06-0.48c-0.38-0.44-0.32-1.12-0.32-1.12
					S531.99,317.87,532.36,318.32z"/>
				<path fill="#AAD7D3" d="M533.29,318.32c-0.38,0.44-0.32,1.12-0.32,1.12s0.68-0.04,1.06-0.48c0.38-0.44,0.32-1.12,0.32-1.12
					S533.66,317.87,533.29,318.32z"/>
			</g>
		</g>
		<g display="inline">
			<g>
				<g>
					<g id="XMLID_100_">
						<g>
							<path fill="#AAD7D3" d="M527.12,320.78h-0.11h-0.29v-7.29c0-0.03,0-0.06,0.02-0.09c0.03-0.08,0.1-0.14,0.19-0.14
								c0.11,0,0.2,0.11,0.2,0.24L527.12,320.78L527.12,320.78z"/>
						</g>
					</g>
				</g>
				<path fill="#AAD7D3" d="M526.47,316.79c0.38,0.44,0.32,1.12,0.32,1.12s-0.68-0.04-1.06-0.48s-0.32-1.12-0.32-1.12
					S526.09,316.35,526.47,316.79z"/>
				<path fill="#AAD7D3" d="M527.41,312.8c0,0.58-0.48,1.06-0.48,1.06s-0.49-0.47-0.5-1.05s0.48-1.06,0.48-1.06
					S527.41,312.21,527.41,312.8z"/>
				<path fill="#AAD7D3" d="M527.39,316.79c-0.38,0.44-0.32,1.12-0.32,1.12s0.68-0.04,1.06-0.48s0.32-1.12,0.32-1.12
					S527.77,316.35,527.39,316.79z"/>
				<path fill="#AAD7D3" d="M526.47,313.74c0.38,0.44,0.32,1.12,0.32,1.12s-0.68-0.04-1.06-0.48s-0.32-1.12-0.32-1.12
					S526.09,313.29,526.47,313.74z"/>
				<path fill="#AAD7D3" d="M527.39,313.74c-0.38,0.44-0.32,1.12-0.32,1.12s0.68-0.04,1.06-0.48s0.32-1.12,0.32-1.12
					S527.77,313.29,527.39,313.74z"/>
				<path fill="#AAD7D3" d="M526.47,315.26c0.38,0.44,0.32,1.12,0.32,1.12s-0.68-0.04-1.06-0.48s-0.32-1.12-0.32-1.12
					S526.09,314.82,526.47,315.26z"/>
				<path fill="#AAD7D3" d="M527.39,315.26c-0.38,0.44-0.32,1.12-0.32,1.12s0.68-0.04,1.06-0.48s0.32-1.12,0.32-1.12
					S527.77,314.82,527.39,315.26z"/>
				<path fill="#AAD7D3" d="M526.47,318.32c0.38,0.44,0.32,1.12,0.32,1.12s-0.68-0.04-1.06-0.48s-0.32-1.12-0.32-1.12
					S526.09,317.87,526.47,318.32z"/>
				<path fill="#AAD7D3" d="M527.39,318.32c-0.38,0.44-0.32,1.12-0.32,1.12s0.68-0.04,1.06-0.48s0.32-1.12,0.32-1.12
					S527.77,317.87,527.39,318.32z"/>
			</g>
		</g>
		<g display="inline">
			<g>
				<g>
					<g id="XMLID_97_">
						<g>
							<path fill="#AAD7D3" d="M521.23,320.78h-0.11h-0.29v-7.29c0-0.03,0-0.06,0.02-0.09c0.03-0.08,0.1-0.14,0.19-0.14
								c0.11,0,0.2,0.11,0.2,0.24L521.23,320.78L521.23,320.78z"/>
						</g>
					</g>
				</g>
				<path fill="#AAD7D3" d="M520.58,316.79c0.38,0.44,0.32,1.12,0.32,1.12s-0.68-0.04-1.06-0.48c-0.38-0.44-0.32-1.12-0.32-1.12
					S520.2,316.35,520.58,316.79z"/>
				<path fill="#AAD7D3" d="M521.52,312.8c0,0.58-0.48,1.06-0.48,1.06s-0.49-0.47-0.5-1.05s0.48-1.06,0.48-1.06
					S521.52,312.21,521.52,312.8z"/>
				<path fill="#AAD7D3" d="M521.5,316.79c-0.38,0.44-0.32,1.12-0.32,1.12s0.68-0.04,1.06-0.48c0.38-0.44,0.32-1.12,0.32-1.12
					S521.88,316.35,521.5,316.79z"/>
				<path fill="#AAD7D3" d="M520.58,313.74c0.38,0.44,0.32,1.12,0.32,1.12s-0.68-0.04-1.06-0.48c-0.38-0.44-0.32-1.12-0.32-1.12
					S520.2,313.29,520.58,313.74z"/>
				<path fill="#AAD7D3" d="M521.5,313.74c-0.38,0.44-0.32,1.12-0.32,1.12s0.68-0.04,1.06-0.48c0.38-0.44,0.32-1.12,0.32-1.12
					S521.88,313.29,521.5,313.74z"/>
				<path fill="#AAD7D3" d="M520.58,315.26c0.38,0.44,0.32,1.12,0.32,1.12s-0.68-0.04-1.06-0.48c-0.38-0.44-0.32-1.12-0.32-1.12
					S520.2,314.82,520.58,315.26z"/>
				<path fill="#AAD7D3" d="M521.5,315.26c-0.38,0.44-0.32,1.12-0.32,1.12s0.68-0.04,1.06-0.48c0.38-0.44,0.32-1.12,0.32-1.12
					S521.88,314.82,521.5,315.26z"/>
				<path fill="#AAD7D3" d="M520.58,318.32c0.38,0.44,0.32,1.12,0.32,1.12s-0.68-0.04-1.06-0.48c-0.38-0.44-0.32-1.12-0.32-1.12
					S520.2,317.87,520.58,318.32z"/>
				<path fill="#AAD7D3" d="M521.5,318.32c-0.38,0.44-0.32,1.12-0.32,1.12s0.68-0.04,1.06-0.48c0.38-0.44,0.32-1.12,0.32-1.12
					S521.88,317.87,521.5,318.32z"/>
			</g>
		</g>
		<g display="inline">
			<g>
				<g>
					<g id="XMLID_94_">
						<g>
							<path fill="#AAD7D3" d="M515.34,320.78h-0.11h-0.29v-7.29c0-0.03,0-0.06,0.02-0.09c0.03-0.08,0.1-0.14,0.19-0.14
								c0.11,0,0.2,0.11,0.2,0.24L515.34,320.78L515.34,320.78z"/>
						</g>
					</g>
				</g>
				<path fill="#AAD7D3" d="M514.69,316.79c0.38,0.44,0.32,1.12,0.32,1.12s-0.68-0.04-1.06-0.48c-0.38-0.44-0.32-1.12-0.32-1.12
					S514.31,316.35,514.69,316.79z"/>
				<path fill="#AAD7D3" d="M515.63,312.8c0,0.58-0.48,1.06-0.48,1.06s-0.49-0.47-0.5-1.05c0-0.59,0.48-1.06,0.48-1.06
					S515.62,312.21,515.63,312.8z"/>
				<path fill="#AAD7D3" d="M515.61,316.79c-0.38,0.44-0.32,1.12-0.32,1.12s0.68-0.04,1.06-0.48c0.38-0.44,0.32-1.12,0.32-1.12
					S515.98,316.35,515.61,316.79z"/>
				<path fill="#AAD7D3" d="M514.69,313.74c0.38,0.44,0.32,1.12,0.32,1.12s-0.68-0.04-1.06-0.48c-0.38-0.44-0.32-1.12-0.32-1.12
					S514.31,313.29,514.69,313.74z"/>
				<path fill="#AAD7D3" d="M515.61,313.74c-0.38,0.44-0.32,1.12-0.32,1.12s0.68-0.04,1.06-0.48c0.38-0.44,0.32-1.12,0.32-1.12
					S515.98,313.29,515.61,313.74z"/>
				<path fill="#AAD7D3" d="M514.69,315.26c0.38,0.44,0.32,1.12,0.32,1.12s-0.68-0.04-1.06-0.48c-0.38-0.44-0.32-1.12-0.32-1.12
					S514.31,314.82,514.69,315.26z"/>
				<path fill="#AAD7D3" d="M515.61,315.26c-0.38,0.44-0.32,1.12-0.32,1.12s0.68-0.04,1.06-0.48c0.38-0.44,0.32-1.12,0.32-1.12
					S515.98,314.82,515.61,315.26z"/>
				<path fill="#AAD7D3" d="M514.69,318.32c0.38,0.44,0.32,1.12,0.32,1.12s-0.68-0.04-1.06-0.48c-0.38-0.44-0.32-1.12-0.32-1.12
					S514.31,317.87,514.69,318.32z"/>
				<path fill="#AAD7D3" d="M515.61,318.32c-0.38,0.44-0.32,1.12-0.32,1.12s0.68-0.04,1.06-0.48c0.38-0.44,0.32-1.12,0.32-1.12
					S515.98,317.87,515.61,318.32z"/>
			</g>
		</g>
		<g display="inline">
			<g>
				<g>
					<g id="XMLID_91_">
						<g>
							<path fill="#AAD7D3" d="M509.44,320.78h-0.11h-0.29v-7.29c0-0.03,0-0.06,0.02-0.09c0.03-0.08,0.1-0.14,0.19-0.14
								c0.11,0,0.2,0.11,0.2,0.24L509.44,320.78L509.44,320.78z"/>
						</g>
					</g>
				</g>
				<path fill="#AAD7D3" d="M508.79,316.79c0.38,0.44,0.32,1.12,0.32,1.12s-0.68-0.04-1.06-0.48c-0.38-0.44-0.32-1.12-0.32-1.12
					S508.41,316.35,508.79,316.79z"/>
				<path fill="#AAD7D3" d="M509.73,312.8c0,0.58-0.48,1.06-0.48,1.06s-0.49-0.47-0.5-1.05s0.48-1.06,0.48-1.06
					S509.73,312.21,509.73,312.8z"/>
				<path fill="#AAD7D3" d="M509.71,316.79c-0.38,0.44-0.32,1.12-0.32,1.12s0.68-0.04,1.06-0.48c0.38-0.44,0.32-1.12,0.32-1.12
					S510.09,316.35,509.71,316.79z"/>
				<path fill="#AAD7D3" d="M508.79,313.74c0.38,0.44,0.32,1.12,0.32,1.12s-0.68-0.04-1.06-0.48c-0.38-0.44-0.32-1.12-0.32-1.12
					S508.41,313.29,508.79,313.74z"/>
				<path fill="#AAD7D3" d="M509.71,313.74c-0.38,0.44-0.32,1.12-0.32,1.12s0.68-0.04,1.06-0.48c0.38-0.44,0.32-1.12,0.32-1.12
					S510.09,313.29,509.71,313.74z"/>
				<path fill="#AAD7D3" d="M508.79,315.26c0.38,0.44,0.32,1.12,0.32,1.12s-0.68-0.04-1.06-0.48c-0.38-0.44-0.32-1.12-0.32-1.12
					S508.41,314.82,508.79,315.26z"/>
				<path fill="#AAD7D3" d="M509.71,315.26c-0.38,0.44-0.32,1.12-0.32,1.12s0.68-0.04,1.06-0.48c0.38-0.44,0.32-1.12,0.32-1.12
					S510.09,314.82,509.71,315.26z"/>
				<path fill="#AAD7D3" d="M508.79,318.32c0.38,0.44,0.32,1.12,0.32,1.12s-0.68-0.04-1.06-0.48c-0.38-0.44-0.32-1.12-0.32-1.12
					S508.41,317.87,508.79,318.32z"/>
				<path fill="#AAD7D3" d="M509.71,318.32c-0.38,0.44-0.32,1.12-0.32,1.12s0.68-0.04,1.06-0.48c0.38-0.44,0.32-1.12,0.32-1.12
					S510.09,317.87,509.71,318.32z"/>
			</g>
		</g>
		<g display="inline">
			<g>
				<g>
					<g id="XMLID_88_">
						<g>
							<path fill="#AAD7D3" d="M503.55,320.78h-0.11h-0.29v-7.29c0-0.03,0-0.06,0.02-0.09c0.03-0.08,0.1-0.14,0.19-0.14
								c0.11,0,0.2,0.11,0.2,0.24L503.55,320.78L503.55,320.78z"/>
						</g>
					</g>
				</g>
				<path fill="#AAD7D3" d="M502.9,316.79c0.38,0.44,0.32,1.12,0.32,1.12s-0.68-0.04-1.06-0.48c-0.38-0.44-0.32-1.12-0.32-1.12
					S502.52,316.35,502.9,316.79z"/>
				<path fill="#AAD7D3" d="M503.84,312.8c0,0.58-0.48,1.06-0.48,1.06s-0.49-0.47-0.5-1.05s0.48-1.06,0.48-1.06
					S503.84,312.21,503.84,312.8z"/>
				<path fill="#AAD7D3" d="M503.82,316.79c-0.38,0.44-0.32,1.12-0.32,1.12s0.68-0.04,1.06-0.48c0.38-0.44,0.32-1.12,0.32-1.12
					S504.2,316.35,503.82,316.79z"/>
				<path fill="#AAD7D3" d="M502.9,313.74c0.38,0.44,0.32,1.12,0.32,1.12s-0.68-0.04-1.06-0.48c-0.38-0.44-0.32-1.12-0.32-1.12
					S502.52,313.29,502.9,313.74z"/>
				<path fill="#AAD7D3" d="M503.82,313.74c-0.38,0.44-0.32,1.12-0.32,1.12s0.68-0.04,1.06-0.48c0.38-0.44,0.32-1.12,0.32-1.12
					S504.2,313.29,503.82,313.74z"/>
				<path fill="#AAD7D3" d="M502.9,315.26c0.38,0.44,0.32,1.12,0.32,1.12s-0.68-0.04-1.06-0.48c-0.38-0.44-0.32-1.12-0.32-1.12
					S502.52,314.82,502.9,315.26z"/>
				<path fill="#AAD7D3" d="M503.82,315.26c-0.38,0.44-0.32,1.12-0.32,1.12s0.68-0.04,1.06-0.48c0.38-0.44,0.32-1.12,0.32-1.12
					S504.2,314.82,503.82,315.26z"/>
				<path fill="#AAD7D3" d="M502.9,318.32c0.38,0.44,0.32,1.12,0.32,1.12s-0.68-0.04-1.06-0.48c-0.38-0.44-0.32-1.12-0.32-1.12
					S502.52,317.87,502.9,318.32z"/>
				<path fill="#AAD7D3" d="M503.82,318.32c-0.38,0.44-0.32,1.12-0.32,1.12s0.68-0.04,1.06-0.48c0.38-0.44,0.32-1.12,0.32-1.12
					S504.2,317.87,503.82,318.32z"/>
			</g>
		</g>
		<g display="inline">
			<g>
				<g>
					<g id="XMLID_85_">
						<g>
							<path fill="#AAD7D3" d="M497.66,320.78h-0.11h-0.29v-7.29c0-0.03,0-0.06,0.02-0.09c0.03-0.08,0.1-0.14,0.19-0.14
								c0.11,0,0.2,0.11,0.2,0.24L497.66,320.78L497.66,320.78z"/>
						</g>
					</g>
				</g>
				<path fill="#AAD7D3" d="M497.01,316.79c0.38,0.44,0.32,1.12,0.32,1.12s-0.68-0.04-1.06-0.48c-0.38-0.44-0.32-1.12-0.32-1.12
					S496.63,316.35,497.01,316.79z"/>
				<path fill="#AAD7D3" d="M497.95,312.8c0,0.58-0.48,1.06-0.48,1.06s-0.49-0.47-0.5-1.05s0.48-1.06,0.48-1.06
					S497.94,312.21,497.95,312.8z"/>
				<path fill="#AAD7D3" d="M497.93,316.79c-0.38,0.44-0.32,1.12-0.32,1.12s0.68-0.04,1.06-0.48c0.38-0.44,0.32-1.12,0.32-1.12
					S498.3,316.35,497.93,316.79z"/>
				<path fill="#AAD7D3" d="M497.01,313.74c0.38,0.44,0.32,1.12,0.32,1.12s-0.68-0.04-1.06-0.48c-0.38-0.44-0.32-1.12-0.32-1.12
					S496.63,313.29,497.01,313.74z"/>
				<path fill="#AAD7D3" d="M497.93,313.74c-0.38,0.44-0.32,1.12-0.32,1.12s0.68-0.04,1.06-0.48c0.38-0.44,0.32-1.12,0.32-1.12
					S498.3,313.29,497.93,313.74z"/>
				<path fill="#AAD7D3" d="M497.01,315.26c0.38,0.44,0.32,1.12,0.32,1.12s-0.68-0.04-1.06-0.48c-0.38-0.44-0.32-1.12-0.32-1.12
					S496.63,314.82,497.01,315.26z"/>
				<path fill="#AAD7D3" d="M497.93,315.26c-0.38,0.44-0.32,1.12-0.32,1.12s0.68-0.04,1.06-0.48c0.38-0.44,0.32-1.12,0.32-1.12
					S498.3,314.82,497.93,315.26z"/>
				<path fill="#AAD7D3" d="M497.01,318.32c0.38,0.44,0.32,1.12,0.32,1.12s-0.68-0.04-1.06-0.48c-0.38-0.44-0.32-1.12-0.32-1.12
					S496.63,317.87,497.01,318.32z"/>
				<path fill="#AAD7D3" d="M497.93,318.32c-0.38,0.44-0.32,1.12-0.32,1.12s0.68-0.04,1.06-0.48c0.38-0.44,0.32-1.12,0.32-1.12
					S498.3,317.87,497.93,318.32z"/>
			</g>
		</g>
		<g display="inline">
			<g>
				<g>
					<g id="XMLID_82_">
						<g>
							<path fill="#AAD7D3" d="M491.76,320.78h-0.11h-0.29v-7.29c0-0.03,0-0.06,0.02-0.09c0.03-0.08,0.1-0.14,0.19-0.14
								c0.11,0,0.2,0.11,0.2,0.24L491.76,320.78L491.76,320.78z"/>
						</g>
					</g>
				</g>
				<path fill="#AAD7D3" d="M491.11,316.79c0.38,0.44,0.32,1.12,0.32,1.12s-0.68-0.04-1.06-0.48c-0.38-0.44-0.32-1.12-0.32-1.12
					S490.73,316.35,491.11,316.79z"/>
				<path fill="#AAD7D3" d="M492.06,312.8c0,0.58-0.48,1.06-0.48,1.06s-0.49-0.47-0.5-1.05s0.48-1.06,0.48-1.06
					S492.05,312.21,492.06,312.8z"/>
				<path fill="#AAD7D3" d="M492.03,316.79c-0.38,0.44-0.32,1.12-0.32,1.12s0.68-0.04,1.06-0.48c0.38-0.44,0.32-1.12,0.32-1.12
					S492.41,316.35,492.03,316.79z"/>
				<path fill="#AAD7D3" d="M491.11,313.74c0.38,0.44,0.32,1.12,0.32,1.12s-0.68-0.04-1.06-0.48c-0.38-0.44-0.32-1.12-0.32-1.12
					S490.73,313.29,491.11,313.74z"/>
				<path fill="#AAD7D3" d="M492.03,313.74c-0.38,0.44-0.32,1.12-0.32,1.12s0.68-0.04,1.06-0.48c0.38-0.44,0.32-1.12,0.32-1.12
					S492.41,313.29,492.03,313.74z"/>
				<path fill="#AAD7D3" d="M491.11,315.26c0.38,0.44,0.32,1.12,0.32,1.12s-0.68-0.04-1.06-0.48c-0.38-0.44-0.32-1.12-0.32-1.12
					S490.73,314.82,491.11,315.26z"/>
				<path fill="#AAD7D3" d="M492.03,315.26c-0.38,0.44-0.32,1.12-0.32,1.12s0.68-0.04,1.06-0.48c0.38-0.44,0.32-1.12,0.32-1.12
					S492.41,314.82,492.03,315.26z"/>
				<path fill="#AAD7D3" d="M491.11,318.32c0.38,0.44,0.32,1.12,0.32,1.12s-0.68-0.04-1.06-0.48c-0.38-0.44-0.32-1.12-0.32-1.12
					S490.73,317.87,491.11,318.32z"/>
				<path fill="#AAD7D3" d="M492.03,318.32c-0.38,0.44-0.32,1.12-0.32,1.12s0.68-0.04,1.06-0.48c0.38-0.44,0.32-1.12,0.32-1.12
					S492.41,317.87,492.03,318.32z"/>
			</g>
		</g>
		<g display="inline">
			<g>
				<g>
					<g id="XMLID_79_">
						<g>
							<path fill="#AAD7D3" d="M485.87,320.78h-0.11h-0.29v-7.29c0-0.03,0-0.06,0.02-0.09c0.03-0.08,0.1-0.14,0.19-0.14
								c0.11,0,0.2,0.11,0.2,0.24L485.87,320.78L485.87,320.78z"/>
						</g>
					</g>
				</g>
				<path fill="#AAD7D3" d="M485.22,316.79c0.38,0.44,0.32,1.12,0.32,1.12s-0.68-0.04-1.06-0.48c-0.38-0.44-0.32-1.12-0.32-1.12
					S484.84,316.35,485.22,316.79z"/>
				<path fill="#AAD7D3" d="M486.16,312.8c0,0.58-0.48,1.06-0.48,1.06s-0.49-0.47-0.5-1.05s0.48-1.06,0.48-1.06
					S486.16,312.21,486.16,312.8z"/>
				<path fill="#AAD7D3" d="M486.14,316.79c-0.38,0.44-0.32,1.12-0.32,1.12s0.68-0.04,1.06-0.48c0.38-0.44,0.32-1.12,0.32-1.12
					S486.52,316.35,486.14,316.79z"/>
				<path fill="#AAD7D3" d="M485.22,313.74c0.38,0.44,0.32,1.12,0.32,1.12s-0.68-0.04-1.06-0.48c-0.38-0.44-0.32-1.12-0.32-1.12
					S484.84,313.29,485.22,313.74z"/>
				<path fill="#AAD7D3" d="M486.14,313.74c-0.38,0.44-0.32,1.12-0.32,1.12s0.68-0.04,1.06-0.48c0.38-0.44,0.32-1.12,0.32-1.12
					S486.52,313.29,486.14,313.74z"/>
				<path fill="#AAD7D3" d="M485.22,315.26c0.38,0.44,0.32,1.12,0.32,1.12s-0.68-0.04-1.06-0.48c-0.38-0.44-0.32-1.12-0.32-1.12
					S484.84,314.82,485.22,315.26z"/>
				<path fill="#AAD7D3" d="M486.14,315.26c-0.38,0.44-0.32,1.12-0.32,1.12s0.68-0.04,1.06-0.48c0.38-0.44,0.32-1.12,0.32-1.12
					S486.52,314.82,486.14,315.26z"/>
				<path fill="#AAD7D3" d="M485.22,318.32c0.38,0.44,0.32,1.12,0.32,1.12s-0.68-0.04-1.06-0.48c-0.38-0.44-0.32-1.12-0.32-1.12
					S484.84,317.87,485.22,318.32z"/>
				<path fill="#AAD7D3" d="M486.14,318.32c-0.38,0.44-0.32,1.12-0.32,1.12s0.68-0.04,1.06-0.48c0.38-0.44,0.32-1.12,0.32-1.12
					S486.52,317.87,486.14,318.32z"/>
			</g>
		</g>
		<g display="inline">
			<g>
				<g>
					<g id="XMLID_76_">
						<g>
							<path fill="#AAD7D3" d="M479.98,320.78h-0.11h-0.29v-7.29c0-0.03,0-0.06,0.02-0.09c0.03-0.08,0.1-0.14,0.19-0.14
								c0.11,0,0.2,0.11,0.2,0.24L479.98,320.78L479.98,320.78z"/>
						</g>
					</g>
				</g>
				<path fill="#AAD7D3" d="M479.33,316.79c0.38,0.44,0.32,1.12,0.32,1.12s-0.68-0.04-1.06-0.48s-0.32-1.12-0.32-1.12
					S478.95,316.35,479.33,316.79z"/>
				<path fill="#AAD7D3" d="M480.27,312.8c0,0.58-0.48,1.06-0.48,1.06s-0.49-0.47-0.5-1.05s0.48-1.06,0.48-1.06
					S480.26,312.21,480.27,312.8z"/>
				<path fill="#AAD7D3" d="M480.25,316.79c-0.38,0.44-0.32,1.12-0.32,1.12s0.68-0.04,1.06-0.48c0.38-0.44,0.32-1.12,0.32-1.12
					S480.62,316.35,480.25,316.79z"/>
				<path fill="#AAD7D3" d="M479.33,313.74c0.38,0.44,0.32,1.12,0.32,1.12s-0.68-0.04-1.06-0.48s-0.32-1.12-0.32-1.12
					S478.95,313.29,479.33,313.74z"/>
				<path fill="#AAD7D3" d="M480.25,313.74c-0.38,0.44-0.32,1.12-0.32,1.12s0.68-0.04,1.06-0.48c0.38-0.44,0.32-1.12,0.32-1.12
					S480.62,313.29,480.25,313.74z"/>
				<path fill="#AAD7D3" d="M479.33,315.26c0.38,0.44,0.32,1.12,0.32,1.12s-0.68-0.04-1.06-0.48s-0.32-1.12-0.32-1.12
					S478.95,314.82,479.33,315.26z"/>
				<path fill="#AAD7D3" d="M480.25,315.26c-0.38,0.44-0.32,1.12-0.32,1.12s0.68-0.04,1.06-0.48c0.38-0.44,0.32-1.12,0.32-1.12
					S480.62,314.82,480.25,315.26z"/>
				<path fill="#AAD7D3" d="M479.33,318.32c0.38,0.44,0.32,1.12,0.32,1.12s-0.68-0.04-1.06-0.48s-0.32-1.12-0.32-1.12
					S478.95,317.87,479.33,318.32z"/>
				<path fill="#AAD7D3" d="M480.25,318.32c-0.38,0.44-0.32,1.12-0.32,1.12s0.68-0.04,1.06-0.48c0.38-0.44,0.32-1.12,0.32-1.12
					S480.62,317.87,480.25,318.32z"/>
			</g>
		</g>
		<g display="inline">
			<g>
				<g>
					<g id="XMLID_73_">
						<g>
							<path fill="#AAD7D3" d="M474.09,320.78h-0.11h-0.29v-7.29c0-0.03,0-0.06,0.02-0.09c0.03-0.08,0.1-0.14,0.19-0.14
								c0.11,0,0.2,0.11,0.2,0.24L474.09,320.78L474.09,320.78z"/>
						</g>
					</g>
				</g>
				<path fill="#AAD7D3" d="M473.43,316.79c0.38,0.44,0.32,1.12,0.32,1.12s-0.68-0.04-1.06-0.48c-0.38-0.44-0.32-1.12-0.32-1.12
					S473.05,316.35,473.43,316.79z"/>
				<path fill="#AAD7D3" d="M474.38,312.8c0,0.58-0.48,1.06-0.48,1.06s-0.49-0.47-0.5-1.05c0-0.59,0.48-1.06,0.48-1.06
					S474.37,312.21,474.38,312.8z"/>
				<path fill="#AAD7D3" d="M474.35,316.79c-0.38,0.44-0.32,1.12-0.32,1.12s0.68-0.04,1.06-0.48c0.38-0.44,0.32-1.12,0.32-1.12
					S474.73,316.35,474.35,316.79z"/>
				<path fill="#AAD7D3" d="M473.43,313.74c0.38,0.44,0.32,1.12,0.32,1.12s-0.68-0.04-1.06-0.48c-0.38-0.44-0.32-1.12-0.32-1.12
					S473.05,313.29,473.43,313.74z"/>
				<path fill="#AAD7D3" d="M474.35,313.74c-0.38,0.44-0.32,1.12-0.32,1.12s0.68-0.04,1.06-0.48c0.38-0.44,0.32-1.12,0.32-1.12
					S474.73,313.29,474.35,313.74z"/>
				<path fill="#AAD7D3" d="M473.43,315.26c0.38,0.44,0.32,1.12,0.32,1.12s-0.68-0.04-1.06-0.48c-0.38-0.44-0.32-1.12-0.32-1.12
					S473.05,314.82,473.43,315.26z"/>
				<path fill="#AAD7D3" d="M474.35,315.26c-0.38,0.44-0.32,1.12-0.32,1.12s0.68-0.04,1.06-0.48c0.38-0.44,0.32-1.12,0.32-1.12
					S474.73,314.82,474.35,315.26z"/>
				<path fill="#AAD7D3" d="M473.43,318.32c0.38,0.44,0.32,1.12,0.32,1.12s-0.68-0.04-1.06-0.48c-0.38-0.44-0.32-1.12-0.32-1.12
					S473.05,317.87,473.43,318.32z"/>
				<path fill="#AAD7D3" d="M474.35,318.32c-0.38,0.44-0.32,1.12-0.32,1.12s0.68-0.04,1.06-0.48c0.38-0.44,0.32-1.12,0.32-1.12
					S474.73,317.87,474.35,318.32z"/>
			</g>
		</g>
		<g display="inline">
			<g>
				<g>
					<g id="XMLID_70_">
						<g>
							<path fill="#AAD7D3" d="M468.19,320.78h-0.11h-0.29v-7.29c0-0.03,0-0.06,0.02-0.09c0.03-0.08,0.1-0.14,0.19-0.14
								c0.11,0,0.2,0.11,0.2,0.24L468.19,320.78L468.19,320.78z"/>
						</g>
					</g>
				</g>
				<path fill="#AAD7D3" d="M467.54,316.79c0.38,0.44,0.32,1.12,0.32,1.12s-0.68-0.04-1.06-0.48c-0.38-0.44-0.32-1.12-0.32-1.12
					S467.16,316.35,467.54,316.79z"/>
				<path fill="#AAD7D3" d="M468.48,312.8c0,0.58-0.48,1.06-0.48,1.06s-0.49-0.47-0.5-1.05s0.48-1.06,0.48-1.06
					S468.48,312.21,468.48,312.8z"/>
				<path fill="#AAD7D3" d="M468.46,316.79c-0.38,0.44-0.32,1.12-0.32,1.12s0.68-0.04,1.06-0.48c0.38-0.44,0.32-1.12,0.32-1.12
					S468.84,316.35,468.46,316.79z"/>
				<path fill="#AAD7D3" d="M467.54,313.74c0.38,0.44,0.32,1.12,0.32,1.12s-0.68-0.04-1.06-0.48c-0.38-0.44-0.32-1.12-0.32-1.12
					S467.16,313.29,467.54,313.74z"/>
				<path fill="#AAD7D3" d="M468.46,313.74c-0.38,0.44-0.32,1.12-0.32,1.12s0.68-0.04,1.06-0.48c0.38-0.44,0.32-1.12,0.32-1.12
					S468.84,313.29,468.46,313.74z"/>
				<path fill="#AAD7D3" d="M467.54,315.26c0.38,0.44,0.32,1.12,0.32,1.12s-0.68-0.04-1.06-0.48c-0.38-0.44-0.32-1.12-0.32-1.12
					S467.16,314.82,467.54,315.26z"/>
				<path fill="#AAD7D3" d="M468.46,315.26c-0.38,0.44-0.32,1.12-0.32,1.12s0.68-0.04,1.06-0.48c0.38-0.44,0.32-1.12,0.32-1.12
					S468.84,314.82,468.46,315.26z"/>
				<path fill="#AAD7D3" d="M467.54,318.32c0.38,0.44,0.32,1.12,0.32,1.12s-0.68-0.04-1.06-0.48c-0.38-0.44-0.32-1.12-0.32-1.12
					S467.16,317.87,467.54,318.32z"/>
				<path fill="#AAD7D3" d="M468.46,318.32c-0.38,0.44-0.32,1.12-0.32,1.12s0.68-0.04,1.06-0.48c0.38-0.44,0.32-1.12,0.32-1.12
					S468.84,317.87,468.46,318.32z"/>
			</g>
		</g>
		<g display="inline">
			<g>
				<g>
					<g id="XMLID_67_">
						<g>
							<path fill="#AAD7D3" d="M462.3,320.78h-0.11h-0.29v-7.29c0-0.03,0-0.06,0.02-0.09c0.03-0.08,0.1-0.14,0.19-0.14
								c0.11,0,0.2,0.11,0.2,0.24L462.3,320.78L462.3,320.78z"/>
						</g>
					</g>
				</g>
				<path fill="#AAD7D3" d="M461.65,316.79c0.38,0.44,0.32,1.12,0.32,1.12s-0.68-0.04-1.06-0.48c-0.38-0.44-0.32-1.12-0.32-1.12
					S461.27,316.35,461.65,316.79z"/>
				<path fill="#AAD7D3" d="M462.59,312.8c0,0.58-0.48,1.06-0.48,1.06s-0.49-0.47-0.5-1.05s0.48-1.06,0.48-1.06
					S462.58,312.21,462.59,312.8z"/>
				<path fill="#AAD7D3" d="M462.57,316.79c-0.38,0.44-0.32,1.12-0.32,1.12s0.68-0.04,1.06-0.48c0.38-0.44,0.32-1.12,0.32-1.12
					S462.94,316.35,462.57,316.79z"/>
				<path fill="#AAD7D3" d="M461.65,313.74c0.38,0.44,0.32,1.12,0.32,1.12s-0.68-0.04-1.06-0.48c-0.38-0.44-0.32-1.12-0.32-1.12
					S461.27,313.29,461.65,313.74z"/>
				<path fill="#AAD7D3" d="M462.57,313.74c-0.38,0.44-0.32,1.12-0.32,1.12s0.68-0.04,1.06-0.48c0.38-0.44,0.32-1.12,0.32-1.12
					S462.94,313.29,462.57,313.74z"/>
				<path fill="#AAD7D3" d="M461.65,315.26c0.38,0.44,0.32,1.12,0.32,1.12s-0.68-0.04-1.06-0.48c-0.38-0.44-0.32-1.12-0.32-1.12
					S461.27,314.82,461.65,315.26z"/>
				<path fill="#AAD7D3" d="M462.57,315.26c-0.38,0.44-0.32,1.12-0.32,1.12s0.68-0.04,1.06-0.48c0.38-0.44,0.32-1.12,0.32-1.12
					S462.94,314.82,462.57,315.26z"/>
				<path fill="#AAD7D3" d="M461.65,318.32c0.38,0.44,0.32,1.12,0.32,1.12s-0.68-0.04-1.06-0.48c-0.38-0.44-0.32-1.12-0.32-1.12
					S461.27,317.87,461.65,318.32z"/>
				<path fill="#AAD7D3" d="M462.57,318.32c-0.38,0.44-0.32,1.12-0.32,1.12s0.68-0.04,1.06-0.48c0.38-0.44,0.32-1.12,0.32-1.12
					S462.94,317.87,462.57,318.32z"/>
			</g>
		</g>
		<g display="inline">
			<g>
				<g>
					<g id="XMLID_64_">
						<g>
							<path fill="#AAD7D3" d="M456.41,320.78h-0.11h-0.29v-7.29c0-0.03,0-0.06,0.02-0.09c0.03-0.08,0.1-0.14,0.19-0.14
								c0.11,0,0.2,0.11,0.2,0.24L456.41,320.78L456.41,320.78z"/>
						</g>
					</g>
				</g>
				<path fill="#AAD7D3" d="M455.75,316.79c0.38,0.44,0.32,1.12,0.32,1.12s-0.68-0.04-1.06-0.48c-0.38-0.44-0.32-1.12-0.32-1.12
					S455.37,316.35,455.75,316.79z"/>
				<path fill="#AAD7D3" d="M456.7,312.8c0,0.58-0.48,1.06-0.48,1.06s-0.49-0.47-0.5-1.05s0.48-1.06,0.48-1.06
					S456.69,312.21,456.7,312.8z"/>
				<path fill="#AAD7D3" d="M456.67,316.79c-0.38,0.44-0.32,1.12-0.32,1.12s0.68-0.04,1.06-0.48c0.38-0.44,0.32-1.12,0.32-1.12
					S457.05,316.35,456.67,316.79z"/>
				<path fill="#AAD7D3" d="M455.75,313.74c0.38,0.44,0.32,1.12,0.32,1.12s-0.68-0.04-1.06-0.48c-0.38-0.44-0.32-1.12-0.32-1.12
					S455.37,313.29,455.75,313.74z"/>
				<path fill="#AAD7D3" d="M456.67,313.74c-0.38,0.44-0.32,1.12-0.32,1.12s0.68-0.04,1.06-0.48c0.38-0.44,0.32-1.12,0.32-1.12
					S457.05,313.29,456.67,313.74z"/>
				<path fill="#AAD7D3" d="M455.75,315.26c0.38,0.44,0.32,1.12,0.32,1.12s-0.68-0.04-1.06-0.48c-0.38-0.44-0.32-1.12-0.32-1.12
					S455.37,314.82,455.75,315.26z"/>
				<path fill="#AAD7D3" d="M456.67,315.26c-0.38,0.44-0.32,1.12-0.32,1.12s0.68-0.04,1.06-0.48c0.38-0.44,0.32-1.12,0.32-1.12
					S457.05,314.82,456.67,315.26z"/>
				<path fill="#AAD7D3" d="M455.75,318.32c0.38,0.44,0.32,1.12,0.32,1.12s-0.68-0.04-1.06-0.48c-0.38-0.44-0.32-1.12-0.32-1.12
					S455.37,317.87,455.75,318.32z"/>
				<path fill="#AAD7D3" d="M456.67,318.32c-0.38,0.44-0.32,1.12-0.32,1.12s0.68-0.04,1.06-0.48c0.38-0.44,0.32-1.12,0.32-1.12
					S457.05,317.87,456.67,318.32z"/>
			</g>
		</g>
	</g>
	<g display="none">
		<path display="inline" fill="#F5F5F5" d="M303.49,309.86h-18.34c-0.46,0-0.83,0.33-0.83,0.74v8.12c0,0.41,0.37,0.74,0.83,0.74
			h18.34c0.46,0,0.83-0.33,0.83-0.74v-8.12C304.33,310.19,303.95,309.86,303.49,309.86z M291.82,311.7c0-0.2,0.19-0.37,0.42-0.37
			h4.17c0.23,0,0.42,0.16,0.42,0.37v2.95c0,0.2-0.19,0.37-0.42,0.37h-4.17c-0.23,0-0.42-0.16-0.42-0.37V311.7L291.82,311.7z
			 M285.98,314.65v-2.95c0-0.2,0.19-0.37,0.42-0.37h3.33c0.23,0,0.42,0.16,0.42,0.37v2.95c0,0.2-0.19,0.37-0.42,0.37h-3.33
			C286.17,315.03,285.98,314.86,285.98,314.65z M302.66,314.65c0,0.2-0.19,0.37-0.42,0.37h-3.33c-0.23,0-0.42-0.16-0.42-0.37v-2.95
			c0-0.2,0.19-0.37,0.42-0.37h3.33c0.23,0,0.42,0.16,0.42,0.37V314.65z"/>
		<path display="inline" fill="#F5F5F5" d="M324.49,309.86h-18.34c-0.46,0-0.83,0.33-0.83,0.74v8.12c0,0.41,0.37,0.74,0.83,0.74
			h18.34c0.46,0,0.83-0.33,0.83-0.74v-8.12C325.32,310.19,324.95,309.86,324.49,309.86z M312.82,311.7c0-0.2,0.19-0.37,0.42-0.37
			h4.17c0.23,0,0.42,0.16,0.42,0.37v2.95c0,0.2-0.19,0.37-0.42,0.37h-4.17c-0.23,0-0.42-0.16-0.42-0.37V311.7L312.82,311.7z
			 M306.98,314.65v-2.95c0-0.2,0.19-0.37,0.42-0.37h3.33c0.23,0,0.42,0.16,0.42,0.37v2.95c0,0.2-0.19,0.37-0.42,0.37h-3.33
			C307.17,315.03,306.98,314.86,306.98,314.65z M323.66,314.65c0,0.2-0.19,0.37-0.42,0.37h-3.33c-0.23,0-0.42-0.16-0.42-0.37v-2.95
			c0-0.2,0.19-0.37,0.42-0.37h3.33c0.23,0,0.42,0.16,0.42,0.37V314.65z"/>
		<path display="inline" fill="#F5F5F5" d="M345.49,309.86h-18.34c-0.46,0-0.83,0.33-0.83,0.74v8.12c0,0.41,0.37,0.74,0.83,0.74
			h18.34c0.46,0,0.83-0.33,0.83-0.74v-8.12C346.32,310.19,345.95,309.86,345.49,309.86z M333.82,311.7c0-0.2,0.19-0.37,0.42-0.37
			h4.17c0.23,0,0.42,0.16,0.42,0.37v2.95c0,0.2-0.19,0.37-0.42,0.37h-4.17c-0.23,0-0.42-0.16-0.42-0.37V311.7L333.82,311.7z
			 M327.98,314.65v-2.95c0-0.2,0.19-0.37,0.42-0.37h3.33c0.23,0,0.42,0.16,0.42,0.37v2.95c0,0.2-0.19,0.37-0.42,0.37h-3.33
			C328.17,315.03,327.98,314.86,327.98,314.65z M344.66,314.65c0,0.2-0.19,0.37-0.42,0.37h-3.33c-0.23,0-0.42-0.16-0.42-0.37v-2.95
			c0-0.2,0.19-0.37,0.42-0.37h3.33c0.23,0,0.42,0.16,0.42,0.37V314.65z"/>
		<path display="inline" fill="#F5F5F5" d="M366.49,309.86h-18.34c-0.46,0-0.83,0.33-0.83,0.74v8.12c0,0.41,0.37,0.74,0.83,0.74
			h18.34c0.46,0,0.83-0.33,0.83-0.74v-8.12C367.33,310.19,366.95,309.86,366.49,309.86z M354.82,311.7c0-0.2,0.19-0.37,0.42-0.37
			h4.17c0.23,0,0.42,0.16,0.42,0.37v2.95c0,0.2-0.19,0.37-0.42,0.37h-4.17c-0.23,0-0.42-0.16-0.42-0.37V311.7L354.82,311.7z
			 M348.98,314.65v-2.95c0-0.2,0.19-0.37,0.42-0.37h3.33c0.23,0,0.42,0.16,0.42,0.37v2.95c0,0.2-0.19,0.37-0.42,0.37h-3.33
			C349.17,315.03,348.98,314.86,348.98,314.65z M365.65,314.65c0,0.2-0.19,0.37-0.42,0.37h-3.33c-0.23,0-0.42-0.16-0.42-0.37v-2.95
			c0-0.2,0.19-0.37,0.42-0.37h3.33c0.23,0,0.42,0.16,0.42,0.37V314.65z"/>
		<path display="inline" fill="#F5F5F5" d="M389.36,319.45c1.61,0,2.63-1.73,1.84-3.14l-1.07-1.91l-2.1-3.76l0,0l-0.2-0.36
			c-0.14-0.26-0.41-0.42-0.69-0.42h-18.1c-0.38,0-0.69,0.33-0.69,0.74v8.12c0,0.41,0.31,0.74,0.69,0.74L389.36,319.45L389.36,319.45
			z M381.52,314.04c0,0.2-0.16,0.37-0.35,0.37h-2.77c-0.19,0-0.35-0.16-0.35-0.37v-2.95c0-0.2,0.16-0.37,0.35-0.37h2.77
			c0.19,0,0.35,0.16,0.35,0.37V314.04z M382.85,314.4c-0.23,0-0.41-0.2-0.41-0.44v-2.81c0-0.24,0.19-0.44,0.41-0.44h4.09l2.05,3.68
			L382.85,314.4z"/>
		<path display="inline" fill="#D53A81" d="M374.91,314.14c-0.02-0.03-0.06-0.05-0.1-0.04l-1.12,0.25l0.34-2.4
			c0-0.04-0.02-0.08-0.06-0.1c-0.04-0.02-0.08,0-0.11,0.03l-2.41,3.29c-0.02,0.03-0.03,0.07,0,0.11c0.02,0.03,0.06,0.05,0.1,0.04
			l1.22-0.23l-0.35,2.27c-0.01,0.04,0.02,0.08,0.05,0.1c0.01,0,0.03,0.01,0.04,0.01c0.03,0,0.06-0.01,0.08-0.04l2.33-3.19
			C374.94,314.21,374.94,314.17,374.91,314.14z"/>
		<path display="inline" fill="#F5F5F5" d="M282.37,319.45c0.38,0,0.69-0.33,0.69-0.74v-8.12c0-0.41-0.31-0.74-0.69-0.74h-18.1
			c-0.28,0-0.54,0.16-0.69,0.42l-0.2,0.36l0,0l-2.1,3.76l-1.07,1.91c-0.79,1.41,0.23,3.14,1.84,3.14L282.37,319.45L282.37,319.45z
			 M269.88,311.08c0-0.2,0.16-0.37,0.35-0.37H273c0.19,0,0.35,0.16,0.35,0.37v2.95c0,0.2-0.16,0.37-0.35,0.37h-2.77
			c-0.19,0-0.35-0.16-0.35-0.37V311.08z M262.41,314.4l2.05-3.68h4.09c0.23,0,0.41,0.2,0.41,0.44v2.81c0,0.24-0.19,0.44-0.41,0.44
			H262.41z"/>
		<path display="inline" fill="#D53A81" d="M279.78,314.14c-0.02-0.03-0.06-0.05-0.1-0.04l-1.12,0.25l0.34-2.4
			c0-0.04-0.02-0.08-0.06-0.1c-0.04-0.02-0.08,0-0.11,0.03l-2.41,3.29c-0.02,0.03-0.03,0.07,0,0.11c0.02,0.03,0.06,0.05,0.1,0.04
			l1.22-0.23l-0.35,2.27c-0.01,0.04,0.02,0.08,0.05,0.1c0.01,0,0.03,0.01,0.04,0.01c0.03,0,0.06-0.01,0.08-0.04l2.33-3.19
			C279.8,314.21,279.8,314.17,279.78,314.14z"/>
	</g>
	<path display="none" fill="#F5F5F5" d="M376.34,337.92c-0.01,0.3-0.05,1.84-0.05,1.84c-0.01,0.22,0.4,0.72,0.71,0.94
		c0.21,0.83,0.95,1.45,1.84,1.47c0.85,0.03,1.6-0.5,1.89-1.25l6.12,0.18c0.25,0.77,0.96,1.34,1.81,1.36c0.85,0.03,1.6-0.5,1.89-1.25
		l0.44,0.01c0.27,0.01,1.01-0.72,1.01-1c0,0,0.06-1.96,0.07-2.26c0.02-0.53-0.23-0.87-1.99-1.29c-0.25-0.48-1.4-1.93-1.6-2.3
		c-0.21-0.37-0.44-0.45-0.86-0.47c-0.43-0.01-4.07-0.12-4.21-0.13c-0.15,0-0.44,0.03-0.89,0.41c-0.63,0.54-1.6,1.42-2.9,2.58
		C377.4,337.16,376.36,337.41,376.34,337.92z M388.71,337.23c-0.17,0-1.52-0.05-3.03-0.09l0.07-2.23c0.75,0.02,1.43,0.04,1.56,0.05
		c0.32,0.01,0.44,0.1,0.61,0.36c0.13,0.2,0.71,0.99,0.95,1.35C389.16,337.07,389.01,337.24,388.71,337.23z M387.74,340.48
		c0.02-0.54,0.47-0.97,1.01-0.95c0.54,0.02,0.97,0.47,0.95,1.01c-0.02,0.54-0.47,0.97-1.01,0.95
		C388.14,341.47,387.72,341.02,387.74,340.48z M381.2,337c-0.26-0.01-0.42-0.08-0.06-0.41c0.4-0.37,1.44-1.28,1.69-1.5
		c0.19-0.16,0.46-0.26,0.71-0.25c0,0,0.97,0.03,1.92,0.06l-0.07,2.23C383.38,337.07,381.2,337,381.2,337z M377.92,340.18
		c0.02-0.54,0.47-0.97,1.01-0.95c0.54,0.02,0.97,0.47,0.95,1.01c-0.02,0.54-0.47,0.97-1.01,0.95
		C378.32,341.18,377.9,340.72,377.92,340.18z"/>
	<path display="none" fill="#F5F5F5" d="M410.04,337.26l-0.1,3.43c-0.01,0.24,0.19,0.44,0.43,0.45l0.9,0.03
		c-0.03,1.11,0.84,2.03,1.94,2.06c1.11,0.03,2.03-0.84,2.06-1.94l0,0l0.9,0.03c0.24,0.01,0.44-0.19,0.45-0.43l0.2-7.14
		c0.01-0.24-0.19-0.44-0.43-0.45l0,0l-1.57-0.04l-1.77-0.05c-0.15,0-0.29,0.07-0.37,0.19l-2.57,3.63c-0.05,0.07-0.08,0.15-0.08,0.23
		C410.04,337.26,410.04,337.26,410.04,337.26z M411.25,337.17l1.86-2.62l1.69,0.05l-0.08,2.67L411.25,337.17z M412.27,341.2
		c0.02-0.55,0.48-0.99,1.03-0.97c0.55,0.02,0.99,0.48,0.97,1.03c-0.02,0.55-0.48,0.99-1.03,0.97
		C412.69,342.21,412.25,341.76,412.27,341.2z M417.52,333l-0.23,8.18c-0.01-0.1,0.24,0.17,0.56,0.18l2.09,0.06
		c-0.03,1.11,0.84,2.03,1.94,2.06c1.11,0.03,2.03-0.84,2.06-1.94l1.42,0.04c0.32,0.01,0.59-0.24,0.6-0.56l0.23-8.18
		c0.01-0.32-0.24-0.59-0.56-0.6l-7.51-0.21C417.79,332.01,417.53,332.26,417.52,333z M420.94,341.44c0.02-0.55,0.48-0.99,1.03-0.97
		c0.55,0.02,0.99,0.48,0.97,1.03c-0.02,0.55-0.48,0.99-1.03,0.97C421.36,342.46,420.93,341.99,420.94,341.44z"/>
	<g display="none">
		<path display="inline" fill="#F5F5F5" d="M522.64,345.29c-0.04,0.96,0.71,1.76,1.66,1.8c0.96,0.04,1.76-0.71,1.8-1.66
			c0.04-0.96-0.71-1.76-1.66-1.8C523.49,343.58,522.68,344.33,522.64,345.29z M523.37,345.32c0.02-0.55,0.49-0.98,1.04-0.96
			c0.55,0.02,0.98,0.49,0.96,1.04c-0.02,0.55-0.49,0.98-1.04,0.96C523.78,346.33,523.35,345.86,523.37,345.32z"/>
		<path display="inline" fill="#F5F5F5" d="M517.68,345.09c-0.04,0.96,0.71,1.76,1.66,1.8c0.96,0.04,1.76-0.71,1.8-1.66
			c0.04-0.96-0.71-1.76-1.66-1.8C518.53,343.39,517.72,344.13,517.68,345.09z M518.41,345.12c0.02-0.55,0.49-0.98,1.04-0.96
			c0.55,0.02,0.98,0.49,0.96,1.04c-0.02,0.55-0.49,0.98-1.04,0.96C518.82,346.13,518.39,345.67,518.41,345.12z"/>
		<path display="inline" fill="#F5F5F5" d="M521.41,343.86l-0.08,2.13c-0.01,0.3,0.23,0.56,0.53,0.57c0.3,0.01,0.56-0.22,0.57-0.53
			l0.08-1.89l1.24-1.01c0.12-0.1,0.19-0.24,0.2-0.4c0.01-0.16-0.05-0.3-0.15-0.42l-1.85-1.91c-0.11-0.12-0.27-0.18-0.44-0.17
			c-0.16,0.01-0.31,0.1-0.41,0.23l-0.72,1l-0.65,0c-0.3,0-0.55,0.24-0.56,0.55c0,0.3,0.25,0.55,0.55,0.56l0.93,0
			c0.18,0,0.35-0.08,0.45-0.23l0.5-0.7l0.97,1.01l-0.96,0.79C521.49,343.56,521.42,343.7,521.41,343.86z"/>
		<circle display="inline" fill="#F5F5F5" cx="520.36" cy="339.75" r="0.73"/>
	</g>
	<path fill="#AAD7D3" d="M604.46,302.89c2.7,0,5.25,0.48,7.58,1.35c1.31,0.48,2.54,1.1,3.67,1.84c1.37,0.89,2.61,1.95,3.67,3.19
		c1.09,1.27,2.02,2.71,2.71,4.33c0.27-0.68,0.62-1.32,0.97-1.96c3.3-6.1,9.69-10.27,17.11-10.27c1.73,0,3.36,0.3,4.95,0.73
		c1.28,0.35,2.51,0.81,3.67,1.41c1.22,0.62,2.4,1.32,3.46,2.17c0.07-0.09,0.15-0.18,0.21-0.27c1.05-1.43,2.29-2.7,3.67-3.8
		c3.32-2.63,7.48-4.23,12.04-4.23c3.67,0,7.08,1.14,10.01,3.04c5.68,3.68,9.5,10.28,9.5,17.39c0,1.2-0.15,0.75-0.35,4.42h-9.15
		h-56.57h-5.92h-2.24h-28.15C585.75,311.19,594.12,302.89,604.46,302.89z"/>
	<path fill="#AAD7D3" d="M841.89,313.27c0,0-0.62-1.32-0.97-1.96c-3.3-6.1-9.69-10.27-17.11-10.27c-1.73,0-3.36,0.3-4.95,0.73
		c-1.28,0.35-2.51,0.81-3.67,1.41c-1.22,0.62-2.4,1.32-3.46,2.17c-0.07-0.09-0.15-0.18-0.21-0.27c-1.05-1.43-2.29-2.7-3.67-3.8
		c-3.32-2.63-7.48-4.23-12.04-4.23c-3.67,0-7.08,1.14-10.01,3.04c-5.68,3.68-9.5,10.28-9.5,17.39c0,1.2,0.15,0.75,0.35,4.42h9.15
		h56.06L841.89,313.27z"/>
	<g>
		<path fill="#AAD7D3" d="M49.54,307.89h-2.18c-0.24,0-0.43,0.2-0.43,0.43h-0.87c0-0.24-0.2-0.43-0.43-0.43h-2.18
			c-0.24,0-0.43,0.2-0.43,0.43H41.7v9.58v1.31v1.31H43v-1.31h6.97v1.31h1.31v-1.31v-1.31v-9.58h-1.31
			C49.97,308.09,49.78,307.89,49.54,307.89z M48.1,309.88c0,0.29-0.23,0.52-0.52,0.52s-0.52-0.23-0.52-0.52
			c0-0.29,0.23-0.52,0.52-0.52C47.86,309.36,48.1,309.6,48.1,309.88z M49.54,311.38c0.12,0,0.22,0.1,0.22,0.22
			c0,0.12-0.1,0.22-0.22,0.22h-6.1c-0.12,0-0.22-0.1-0.22-0.22c0-0.12,0.1-0.22,0.22-0.22H49.54z M45.92,309.88
			c0,0.29-0.23,0.52-0.52,0.52s-0.52-0.23-0.52-0.52c0-0.29,0.23-0.52,0.52-0.52S45.92,309.6,45.92,309.88z M43.22,309.36
			c0.29,0,0.52,0.23,0.52,0.52c0,0.29-0.23,0.52-0.52,0.52s-0.52-0.23-0.52-0.52C42.71,309.6,42.94,309.36,43.22,309.36z
			 M50.41,318.35h-0.43H43h-0.43v-0.43v-5.23h7.84v5.23V318.35L50.41,318.35z M49.75,309.36c0.29,0,0.52,0.23,0.52,0.52
			c0,0.29-0.23,0.52-0.52,0.52s-0.52-0.23-0.52-0.52C49.24,309.6,49.47,309.36,49.75,309.36z"/>
	</g>
</g>
</svg>
