<?xml version="1.0" encoding="utf-8"?>
<!-- Generator: Adobe Illustrator 18.1.0, SVG Export Plug-In . SVG Version: 6.00 Build 0)  -->
<svg version="1.1" id="Layer_2" xmlns="http://www.w3.org/2000/svg" xmlns:xlink="http://www.w3.org/1999/xlink" x="0px" y="0px"
	 width="841.89px" height="216.33px" viewBox="0 378.95 841.89 216.33" enable-background="new 0 378.95 841.89 216.33"
	 xml:space="preserve">
<g id="Layer_1_1_">
	<path fill="#28A197" d="M0.13,540.74h224.17c0,0,491.49-1.57,581.43,56.13c-114.9-0.06-805.59,0-805.59,0L0.13,540.74L0.13,540.74z
		"/>
	<path display="none" fill="#28A197" d="M23.49,528.45h-1.17c-0.01-0.46-0.39-0.84-0.87-0.84h-2.09c-0.48,0-0.85,0.38-0.87,0.84
		H5.98c-1.64,0-2.96,1.32-2.96,2.96v5.98v0.06v2.92c0,0.41,0.33,0.74,0.74,0.74s0.74-0.33,0.74-0.74v-1.3h0.77v1.3
		c0,0.41,0.33,0.74,0.74,0.74c0.4,0,0.74-0.33,0.74-0.74v-1.3h0.63c1.03,0,1.9-0.68,2.18-1.62h4.24v2.92c0,0.41,0.33,0.74,0.74,0.74
		c0.41,0,0.74-0.33,0.74-0.74v-2.92h0.74v2.92c0,0.41,0.33,0.74,0.74,0.74c0.41,0,0.74-0.33,0.74-0.74v-2.92h0.14
		c0.99,0,1.8-0.8,1.8-1.8l0.42-2h1.18c0.44,0,0.82-0.34,0.86-0.78l0.31-3.05l1.4-0.65c0.16-0.04,0.27-0.19,0.27-0.35
		C23.85,528.62,23.69,528.45,23.49,528.45z"/>
	<path display="none" fill="#28A197" d="M62.09,528.45h1.17c0.01-0.46,0.39-0.84,0.87-0.84h2.09c0.48,0,0.85,0.38,0.87,0.84h12.52
		c1.64,0,2.96,1.32,2.96,2.96v5.98v0.06v2.92c0,0.41-0.33,0.74-0.74,0.74s-0.74-0.33-0.74-0.74v-1.3h-0.77v1.3
		c0,0.41-0.33,0.74-0.74,0.74c-0.41,0-0.74-0.33-0.74-0.74v-1.3h-0.63c-1.03,0-1.9-0.68-2.18-1.62h-4.24v2.92
		c0,0.41-0.33,0.74-0.74,0.74c-0.41,0-0.74-0.33-0.74-0.74v-2.92h-0.76v2.92c0,0.41-0.33,0.74-0.74,0.74s-0.74-0.33-0.74-0.74v-2.92
		h-0.14c-0.99,0-1.8-0.8-1.8-1.8l-0.42-2h-1.18c-0.44,0-0.82-0.34-0.86-0.78l-0.31-3.05l-1.4-0.65c-0.16-0.04-0.27-0.19-0.27-0.35
		C61.72,528.62,61.89,528.45,62.09,528.45z"/>
	<path display="none" fill="#28A197" d="M46.93,528.45h-1.17c-0.01-0.46-0.39-0.84-0.87-0.84h-2.08c-0.48,0-0.85,0.38-0.87,0.84
		H29.42c-1.64,0-2.96,1.32-2.96,2.96v5.98v0.06v2.92c0,0.41,0.33,0.74,0.74,0.74c0.41,0,0.74-0.33,0.74-0.74v-1.3h0.77v1.3
		c0,0.41,0.33,0.74,0.74,0.74c0.41,0,0.74-0.33,0.74-0.74v-1.3h0.63c1.03,0,1.9-0.68,2.18-1.62h4.24v2.92
		c0,0.41,0.33,0.74,0.74,0.74c0.41,0,0.74-0.33,0.74-0.74v-2.92h0.74v2.92c0,0.41,0.33,0.74,0.74,0.74c0.41,0,0.74-0.33,0.74-0.74
		v-2.92h0.14c0.99,0,1.8-0.8,1.8-1.8l0.42-2h1.18c0.44,0,0.82-0.34,0.86-0.78l0.31-3.05l1.4-0.65c0.16-0.04,0.27-0.19,0.27-0.35
		C47.3,528.62,47.14,528.45,46.93,528.45z"/>
	<g display="none">
		<g display="inline">
			<g>
				<g>
					<g id="XMLID_110_">
						<g>
							<path fill="#28A197" d="M206.42,541h-0.16h-0.39v-10.04c0-0.04,0.01-0.09,0.02-0.13c0.04-0.12,0.14-0.2,0.25-0.2
								c0.15,0,0.28,0.15,0.28,0.33V541L206.42,541z"/>
						</g>
					</g>
				</g>
				<path fill="#28A197" d="M205.51,535.52c0.52,0.61,0.43,1.54,0.43,1.54s-0.93-0.06-1.45-0.67s-0.43-1.54-0.43-1.54
					S204.99,534.9,205.51,535.52z"/>
				<path fill="#28A197" d="M206.82,530.01c0.01,0.8-0.66,1.46-0.66,1.46s-0.68-0.65-0.68-1.45s0.66-1.46,0.66-1.46
					S206.81,529.21,206.82,530.01z"/>
				<path fill="#28A197" d="M206.78,535.52c-0.52,0.61-0.43,1.54-0.43,1.54s0.93-0.06,1.45-0.67s0.43-1.54,0.43-1.54
					S207.3,534.9,206.78,535.52z"/>
				<path fill="#28A197" d="M205.51,531.31c0.52,0.61,0.43,1.54,0.43,1.54s-0.93-0.06-1.45-0.67s-0.43-1.54-0.43-1.54
					S204.99,530.69,205.51,531.31z"/>
				<path fill="#28A197" d="M206.78,531.31c-0.52,0.61-0.43,1.54-0.43,1.54s0.93-0.06,1.45-0.67s0.43-1.54,0.43-1.54
					S207.3,530.69,206.78,531.31z"/>
				<path fill="#28A197" d="M205.51,533.41c0.52,0.61,0.43,1.54,0.43,1.54s-0.93-0.06-1.45-0.67s-0.43-1.54-0.43-1.54
					S204.99,532.8,205.51,533.41z"/>
				<path fill="#28A197" d="M206.78,533.41c-0.52,0.61-0.43,1.54-0.43,1.54s0.93-0.06,1.45-0.67s0.43-1.54,0.43-1.54
					S207.3,532.8,206.78,533.41z"/>
				<path fill="#28A197" d="M205.51,537.62c0.52,0.61,0.43,1.54,0.43,1.54s-0.93-0.06-1.45-0.67c-0.52-0.61-0.43-1.54-0.43-1.54
					S204.99,537.01,205.51,537.62z"/>
				<path fill="#28A197" d="M206.78,537.62c-0.52,0.61-0.43,1.54-0.43,1.54s0.93-0.06,1.45-0.67c0.52-0.61,0.43-1.54,0.43-1.54
					S207.3,537.01,206.78,537.62z"/>
			</g>
		</g>
		<g display="inline">
			<g>
				<g>
					<g id="XMLID_107_">
						<g>
							<path fill="#28A197" d="M200.1,541h-0.16h-0.39v-10.04c0-0.04,0.01-0.09,0.02-0.13c0.04-0.12,0.14-0.2,0.25-0.2
								c0.15,0,0.28,0.15,0.28,0.33V541L200.1,541z"/>
						</g>
					</g>
				</g>
				<path fill="#28A197" d="M199.2,535.52c0.52,0.61,0.43,1.54,0.43,1.54s-0.93-0.06-1.45-0.67c-0.52-0.61-0.43-1.54-0.43-1.54
					S198.68,534.9,199.2,535.52z"/>
				<path fill="#28A197" d="M200.5,530.01c0.01,0.8-0.66,1.46-0.66,1.46s-0.68-0.65-0.68-1.45s0.66-1.46,0.66-1.46
					S200.5,529.21,200.5,530.01z"/>
				<path fill="#28A197" d="M200.47,535.52c-0.52,0.61-0.43,1.54-0.43,1.54s0.93-0.06,1.45-0.67c0.52-0.61,0.43-1.54,0.43-1.54
					S200.99,534.9,200.47,535.52z"/>
				<path fill="#28A197" d="M199.2,531.31c0.52,0.61,0.43,1.54,0.43,1.54s-0.93-0.06-1.45-0.67c-0.52-0.61-0.43-1.54-0.43-1.54
					S198.68,530.69,199.2,531.31z"/>
				<path fill="#28A197" d="M200.47,531.31c-0.52,0.61-0.43,1.54-0.43,1.54s0.93-0.06,1.45-0.67c0.52-0.61,0.43-1.54,0.43-1.54
					S200.99,530.69,200.47,531.31z"/>
				<path fill="#28A197" d="M199.2,533.41c0.52,0.61,0.43,1.54,0.43,1.54s-0.93-0.06-1.45-0.67c-0.52-0.61-0.43-1.54-0.43-1.54
					S198.68,532.8,199.2,533.41z"/>
				<path fill="#28A197" d="M200.47,533.41c-0.52,0.61-0.43,1.54-0.43,1.54s0.93-0.06,1.45-0.67c0.52-0.61,0.43-1.54,0.43-1.54
					S200.99,532.8,200.47,533.41z"/>
				<path fill="#28A197" d="M199.2,537.62c0.52,0.61,0.43,1.54,0.43,1.54s-0.93-0.06-1.45-0.67c-0.52-0.61-0.43-1.54-0.43-1.54
					S198.68,537.01,199.2,537.62z"/>
				<path fill="#28A197" d="M200.47,537.62c-0.52,0.61-0.43,1.54-0.43,1.54s0.93-0.06,1.45-0.67c0.52-0.61,0.43-1.54,0.43-1.54
					S200.99,537.01,200.47,537.62z"/>
			</g>
		</g>
		<g display="inline">
			<g>
				<g>
					<g id="XMLID_104_">
						<g>
							<path fill="#28A197" d="M193.79,541h-0.16h-0.39v-10.04c0-0.04,0.01-0.09,0.02-0.13c0.04-0.12,0.14-0.2,0.25-0.2
								c0.15,0,0.28,0.15,0.28,0.33V541L193.79,541z"/>
						</g>
					</g>
				</g>
				<path fill="#28A197" d="M192.89,535.52c0.52,0.61,0.43,1.54,0.43,1.54s-0.93-0.06-1.45-0.67c-0.52-0.61-0.43-1.54-0.43-1.54
					S192.36,534.9,192.89,535.52z"/>
				<path fill="#28A197" d="M194.19,530.01c0.01,0.8-0.66,1.46-0.66,1.46s-0.68-0.65-0.68-1.45s0.66-1.46,0.66-1.46
					S194.18,529.21,194.19,530.01z"/>
				<path fill="#28A197" d="M194.15,535.52c-0.52,0.61-0.43,1.54-0.43,1.54s0.93-0.06,1.45-0.67c0.52-0.61,0.43-1.54,0.43-1.54
					S194.68,534.9,194.15,535.52z"/>
				<path fill="#28A197" d="M192.89,531.31c0.52,0.61,0.43,1.54,0.43,1.54s-0.93-0.06-1.45-0.67c-0.52-0.61-0.43-1.54-0.43-1.54
					S192.36,530.69,192.89,531.31z"/>
				<path fill="#28A197" d="M194.15,531.31c-0.52,0.61-0.43,1.54-0.43,1.54s0.93-0.06,1.45-0.67c0.52-0.61,0.43-1.54,0.43-1.54
					S194.68,530.69,194.15,531.31z"/>
				<path fill="#28A197" d="M192.89,533.41c0.52,0.61,0.43,1.54,0.43,1.54s-0.93-0.06-1.45-0.67c-0.52-0.61-0.43-1.54-0.43-1.54
					S192.36,532.8,192.89,533.41z"/>
				<path fill="#28A197" d="M194.15,533.41c-0.52,0.61-0.43,1.54-0.43,1.54s0.93-0.06,1.45-0.67c0.52-0.61,0.43-1.54,0.43-1.54
					S194.68,532.8,194.15,533.41z"/>
				<path fill="#28A197" d="M192.89,537.62c0.52,0.61,0.43,1.54,0.43,1.54s-0.93-0.06-1.45-0.67c-0.52-0.61-0.43-1.54-0.43-1.54
					S192.36,537.01,192.89,537.62z"/>
				<path fill="#28A197" d="M194.15,537.62c-0.52,0.61-0.43,1.54-0.43,1.54s0.93-0.06,1.45-0.67c0.52-0.61,0.43-1.54,0.43-1.54
					S194.68,537.01,194.15,537.62z"/>
			</g>
		</g>
		<g display="inline">
			<g>
				<g>
					<g id="XMLID_101_">
						<g>
							<path fill="#28A197" d="M187.48,541h-0.16h-0.39v-10.04c0-0.04,0.01-0.09,0.02-0.13c0.04-0.12,0.14-0.2,0.25-0.2
								c0.15,0,0.28,0.15,0.28,0.33V541L187.48,541z"/>
						</g>
					</g>
				</g>
				<path fill="#28A197" d="M186.57,535.52c0.52,0.61,0.43,1.54,0.43,1.54s-0.93-0.06-1.45-0.67c-0.52-0.61-0.43-1.54-0.43-1.54
					S186.05,534.9,186.57,535.52z"/>
				<path fill="#28A197" d="M187.87,530.01c0.01,0.8-0.66,1.46-0.66,1.46s-0.68-0.65-0.68-1.45c-0.01-0.8,0.66-1.46,0.66-1.46
					S187.87,529.21,187.87,530.01z"/>
				<path fill="#28A197" d="M187.84,535.52c-0.52,0.61-0.43,1.54-0.43,1.54s0.93-0.06,1.45-0.67s0.43-1.54,0.43-1.54
					S188.36,534.9,187.84,535.52z"/>
				<path fill="#28A197" d="M186.57,531.31c0.52,0.61,0.43,1.54,0.43,1.54s-0.93-0.06-1.45-0.67c-0.52-0.61-0.43-1.54-0.43-1.54
					S186.05,530.69,186.57,531.31z"/>
				<path fill="#28A197" d="M187.84,531.31c-0.52,0.61-0.43,1.54-0.43,1.54s0.93-0.06,1.45-0.67s0.43-1.54,0.43-1.54
					S188.36,530.69,187.84,531.31z"/>
				<path fill="#28A197" d="M186.57,533.41c0.52,0.61,0.43,1.54,0.43,1.54s-0.93-0.06-1.45-0.67c-0.52-0.61-0.43-1.54-0.43-1.54
					S186.05,532.8,186.57,533.41z"/>
				<path fill="#28A197" d="M187.84,533.41c-0.52,0.61-0.43,1.54-0.43,1.54s0.93-0.06,1.45-0.67s0.43-1.54,0.43-1.54
					S188.36,532.8,187.84,533.41z"/>
				<path fill="#28A197" d="M186.57,537.62c0.52,0.61,0.43,1.54,0.43,1.54s-0.93-0.06-1.45-0.67c-0.52-0.61-0.43-1.54-0.43-1.54
					S186.05,537.01,186.57,537.62z"/>
				<path fill="#28A197" d="M187.84,537.62c-0.52,0.61-0.43,1.54-0.43,1.54s0.93-0.06,1.45-0.67c0.52-0.61,0.43-1.54,0.43-1.54
					S188.36,537.01,187.84,537.62z"/>
			</g>
		</g>
		<g display="inline">
			<g>
				<g>
					<g id="XMLID_98_">
						<g>
							<path fill="#28A197" d="M181.16,541H181h-0.39v-10.04c0-0.04,0.01-0.09,0.02-0.13c0.04-0.12,0.14-0.2,0.25-0.2
								c0.15,0,0.28,0.15,0.28,0.33V541L181.16,541z"/>
						</g>
					</g>
				</g>
				<path fill="#28A197" d="M180.26,535.52c0.52,0.61,0.43,1.54,0.43,1.54s-0.93-0.06-1.45-0.67s-0.43-1.54-0.43-1.54
					S179.74,534.9,180.26,535.52z"/>
				<path fill="#28A197" d="M181.56,530.01c0.01,0.8-0.66,1.46-0.66,1.46s-0.68-0.65-0.68-1.45s0.66-1.46,0.66-1.46
					S181.55,529.21,181.56,530.01z"/>
				<path fill="#28A197" d="M181.53,535.52c-0.52,0.61-0.43,1.54-0.43,1.54s0.93-0.06,1.45-0.67s0.43-1.54,0.43-1.54
					S182.05,534.9,181.53,535.52z"/>
				<path fill="#28A197" d="M180.26,531.31c0.52,0.61,0.43,1.54,0.43,1.54s-0.93-0.06-1.45-0.67s-0.43-1.54-0.43-1.54
					S179.74,530.69,180.26,531.31z"/>
				<path fill="#28A197" d="M181.53,531.31c-0.52,0.61-0.43,1.54-0.43,1.54s0.93-0.06,1.45-0.67s0.43-1.54,0.43-1.54
					S182.05,530.69,181.53,531.31z"/>
				<path fill="#28A197" d="M180.26,533.41c0.52,0.61,0.43,1.54,0.43,1.54s-0.93-0.06-1.45-0.67s-0.43-1.54-0.43-1.54
					S179.74,532.8,180.26,533.41z"/>
				<path fill="#28A197" d="M181.53,533.41c-0.52,0.61-0.43,1.54-0.43,1.54s0.93-0.06,1.45-0.67s0.43-1.54,0.43-1.54
					S182.05,532.8,181.53,533.41z"/>
				<path fill="#28A197" d="M180.26,537.62c0.52,0.61,0.43,1.54,0.43,1.54s-0.93-0.06-1.45-0.67c-0.52-0.61-0.43-1.54-0.43-1.54
					S179.74,537.01,180.26,537.62z"/>
				<path fill="#28A197" d="M181.53,537.62c-0.52,0.61-0.43,1.54-0.43,1.54s0.93-0.06,1.45-0.67c0.52-0.61,0.43-1.54,0.43-1.54
					S182.05,537.01,181.53,537.62z"/>
			</g>
		</g>
		<g display="inline">
			<g>
				<g>
					<g id="XMLID_95_">
						<g>
							<path fill="#28A197" d="M174.85,541h-0.16h-0.39v-10.04c0-0.04,0.01-0.09,0.02-0.13c0.04-0.12,0.14-0.2,0.25-0.2
								c0.15,0,0.28,0.15,0.28,0.33V541L174.85,541z"/>
						</g>
					</g>
				</g>
				<path fill="#28A197" d="M173.94,535.52c0.52,0.61,0.43,1.54,0.43,1.54s-0.93-0.06-1.45-0.67c-0.52-0.61-0.43-1.54-0.43-1.54
					S173.42,534.9,173.94,535.52z"/>
				<path fill="#28A197" d="M175.25,530.01c0.01,0.8-0.66,1.46-0.66,1.46s-0.68-0.65-0.68-1.45s0.66-1.46,0.66-1.46
					S175.24,529.21,175.25,530.01z"/>
				<path fill="#28A197" d="M175.21,535.52c-0.52,0.61-0.43,1.54-0.43,1.54s0.93-0.06,1.45-0.67c0.52-0.61,0.43-1.54,0.43-1.54
					S175.73,534.9,175.21,535.52z"/>
				<path fill="#28A197" d="M173.94,531.31c0.52,0.61,0.43,1.54,0.43,1.54s-0.93-0.06-1.45-0.67c-0.52-0.61-0.43-1.54-0.43-1.54
					S173.42,530.69,173.94,531.31z"/>
				<path fill="#28A197" d="M175.21,531.31c-0.52,0.61-0.43,1.54-0.43,1.54s0.93-0.06,1.45-0.67c0.52-0.61,0.43-1.54,0.43-1.54
					S175.73,530.69,175.21,531.31z"/>
				<path fill="#28A197" d="M173.94,533.41c0.52,0.61,0.43,1.54,0.43,1.54s-0.93-0.06-1.45-0.67c-0.52-0.61-0.43-1.54-0.43-1.54
					S173.42,532.8,173.94,533.41z"/>
				<path fill="#28A197" d="M175.21,533.41c-0.52,0.61-0.43,1.54-0.43,1.54s0.93-0.06,1.45-0.67c0.52-0.61,0.43-1.54,0.43-1.54
					S175.73,532.8,175.21,533.41z"/>
				<path fill="#28A197" d="M173.94,537.62c0.52,0.61,0.43,1.54,0.43,1.54s-0.93-0.06-1.45-0.67c-0.52-0.61-0.43-1.54-0.43-1.54
					S173.42,537.01,173.94,537.62z"/>
				<path fill="#28A197" d="M175.21,537.62c-0.52,0.61-0.43,1.54-0.43,1.54s0.93-0.06,1.45-0.67c0.52-0.61,0.43-1.54,0.43-1.54
					S175.73,537.01,175.21,537.62z"/>
			</g>
		</g>
		<g display="inline">
			<g>
				<g>
					<g id="XMLID_92_">
						<g>
							<path fill="#28A197" d="M168.53,541h-0.16h-0.39v-10.04c0-0.04,0.01-0.09,0.02-0.13c0.04-0.12,0.14-0.2,0.25-0.2
								c0.15,0,0.28,0.15,0.28,0.33V541L168.53,541z"/>
						</g>
					</g>
				</g>
				<path fill="#28A197" d="M167.63,535.52c0.52,0.61,0.43,1.54,0.43,1.54s-0.93-0.06-1.45-0.67c-0.52-0.61-0.43-1.54-0.43-1.54
					S167.11,534.9,167.63,535.52z"/>
				<path fill="#28A197" d="M168.93,530.01c0.01,0.8-0.66,1.46-0.66,1.46s-0.68-0.65-0.68-1.45s0.66-1.46,0.66-1.46
					S168.93,529.21,168.93,530.01z"/>
				<path fill="#28A197" d="M168.9,535.52c-0.52,0.61-0.43,1.54-0.43,1.54s0.93-0.06,1.45-0.67c0.52-0.61,0.43-1.54,0.43-1.54
					S169.42,534.9,168.9,535.52z"/>
				<path fill="#28A197" d="M167.63,531.31c0.52,0.61,0.43,1.54,0.43,1.54s-0.93-0.06-1.45-0.67c-0.52-0.61-0.43-1.54-0.43-1.54
					S167.11,530.69,167.63,531.31z"/>
				<path fill="#28A197" d="M168.9,531.31c-0.52,0.61-0.43,1.54-0.43,1.54s0.93-0.06,1.45-0.67c0.52-0.61,0.43-1.54,0.43-1.54
					S169.42,530.69,168.9,531.31z"/>
				<path fill="#28A197" d="M167.63,533.41c0.52,0.61,0.43,1.54,0.43,1.54s-0.93-0.06-1.45-0.67c-0.52-0.61-0.43-1.54-0.43-1.54
					S167.11,532.8,167.63,533.41z"/>
				<path fill="#28A197" d="M168.9,533.41c-0.52,0.61-0.43,1.54-0.43,1.54s0.93-0.06,1.45-0.67c0.52-0.61,0.43-1.54,0.43-1.54
					S169.42,532.8,168.9,533.41z"/>
				<path fill="#28A197" d="M167.63,537.62c0.52,0.61,0.43,1.54,0.43,1.54s-0.93-0.06-1.45-0.67c-0.52-0.61-0.43-1.54-0.43-1.54
					S167.11,537.01,167.63,537.62z"/>
				<path fill="#28A197" d="M168.9,537.62c-0.52,0.61-0.43,1.54-0.43,1.54s0.93-0.06,1.45-0.67c0.52-0.61,0.43-1.54,0.43-1.54
					S169.42,537.01,168.9,537.62z"/>
			</g>
		</g>
		<g display="inline">
			<g>
				<g>
					<g id="XMLID_89_">
						<g>
							<path fill="#28A197" d="M162.22,541h-0.16h-0.39v-10.04c0-0.04,0.01-0.09,0.02-0.13c0.04-0.12,0.14-0.2,0.25-0.2
								c0.15,0,0.28,0.15,0.28,0.33V541L162.22,541z"/>
						</g>
					</g>
				</g>
				<path fill="#28A197" d="M161.32,535.52c0.52,0.61,0.43,1.54,0.43,1.54s-0.93-0.06-1.45-0.67c-0.52-0.61-0.43-1.54-0.43-1.54
					S160.79,534.9,161.32,535.52z"/>
				<path fill="#28A197" d="M162.62,530.01c0.01,0.8-0.66,1.46-0.66,1.46s-0.68-0.65-0.68-1.45c-0.01-0.8,0.66-1.46,0.66-1.46
					S162.61,529.21,162.62,530.01z"/>
				<path fill="#28A197" d="M162.58,535.52c-0.52,0.61-0.43,1.54-0.43,1.54s0.93-0.06,1.45-0.67c0.52-0.61,0.43-1.54,0.43-1.54
					S163.11,534.9,162.58,535.52z"/>
				<path fill="#28A197" d="M161.32,531.31c0.52,0.61,0.43,1.54,0.43,1.54s-0.93-0.06-1.45-0.67c-0.52-0.61-0.43-1.54-0.43-1.54
					S160.79,530.69,161.32,531.31z"/>
				<path fill="#28A197" d="M162.58,531.31c-0.52,0.61-0.43,1.54-0.43,1.54s0.93-0.06,1.45-0.67c0.52-0.61,0.43-1.54,0.43-1.54
					S163.11,530.69,162.58,531.31z"/>
				<path fill="#28A197" d="M161.32,533.41c0.52,0.61,0.43,1.54,0.43,1.54s-0.93-0.06-1.45-0.67c-0.52-0.61-0.43-1.54-0.43-1.54
					S160.79,532.8,161.32,533.41z"/>
				<path fill="#28A197" d="M162.58,533.41c-0.52,0.61-0.43,1.54-0.43,1.54s0.93-0.06,1.45-0.67c0.52-0.61,0.43-1.54,0.43-1.54
					S163.11,532.8,162.58,533.41z"/>
				<path fill="#28A197" d="M161.32,537.62c0.52,0.61,0.43,1.54,0.43,1.54s-0.93-0.06-1.45-0.67c-0.52-0.61-0.43-1.54-0.43-1.54
					S160.79,537.01,161.32,537.62z"/>
				<path fill="#28A197" d="M162.58,537.62c-0.52,0.61-0.43,1.54-0.43,1.54s0.93-0.06,1.45-0.67c0.52-0.61,0.43-1.54,0.43-1.54
					S163.11,537.01,162.58,537.62z"/>
			</g>
		</g>
		<g display="inline">
			<g>
				<g>
					<g id="XMLID_86_">
						<g>
							<path fill="#28A197" d="M155.9,541h-0.16h-0.39v-10.04c0-0.04,0.01-0.09,0.02-0.13c0.04-0.12,0.14-0.2,0.25-0.2
								c0.15,0,0.28,0.15,0.28,0.33V541L155.9,541z"/>
						</g>
					</g>
				</g>
				<path fill="#28A197" d="M155,535.52c0.52,0.61,0.43,1.54,0.43,1.54s-0.93-0.06-1.45-0.67s-0.43-1.54-0.43-1.54
					S154.48,534.9,155,535.52z"/>
				<path fill="#28A197" d="M156.3,530.01c0.01,0.8-0.66,1.46-0.66,1.46s-0.68-0.65-0.68-1.45s0.66-1.46,0.66-1.46
					S156.3,529.21,156.3,530.01z"/>
				<path fill="#28A197" d="M156.27,535.52c-0.52,0.61-0.43,1.54-0.43,1.54s0.93-0.06,1.45-0.67s0.43-1.54,0.43-1.54
					S156.79,534.9,156.27,535.52z"/>
				<path fill="#28A197" d="M155,531.31c0.52,0.61,0.43,1.54,0.43,1.54s-0.93-0.06-1.45-0.67s-0.43-1.54-0.43-1.54
					S154.48,530.69,155,531.31z"/>
				<path fill="#28A197" d="M156.27,531.31c-0.52,0.61-0.43,1.54-0.43,1.54s0.93-0.06,1.45-0.67s0.43-1.54,0.43-1.54
					S156.79,530.69,156.27,531.31z"/>
				<path fill="#28A197" d="M155,533.41c0.52,0.61,0.43,1.54,0.43,1.54s-0.93-0.06-1.45-0.67s-0.43-1.54-0.43-1.54
					S154.48,532.8,155,533.41z"/>
				<path fill="#28A197" d="M156.27,533.41c-0.52,0.61-0.43,1.54-0.43,1.54s0.93-0.06,1.45-0.67s0.43-1.54,0.43-1.54
					S156.79,532.8,156.27,533.41z"/>
				<path fill="#28A197" d="M155,537.62c0.52,0.61,0.43,1.54,0.43,1.54s-0.93-0.06-1.45-0.67c-0.52-0.61-0.43-1.54-0.43-1.54
					S154.48,537.01,155,537.62z"/>
				<path fill="#28A197" d="M156.27,537.62c-0.52,0.61-0.43,1.54-0.43,1.54s0.93-0.06,1.45-0.67c0.52-0.61,0.43-1.54,0.43-1.54
					S156.79,537.01,156.27,537.62z"/>
			</g>
		</g>
		<g display="inline">
			<g>
				<g>
					<g id="XMLID_83_">
						<g>
							<path fill="#28A197" d="M149.59,541h-0.16h-0.39v-10.04c0-0.04,0.01-0.09,0.02-0.13c0.04-0.12,0.14-0.2,0.25-0.2
								c0.15,0,0.28,0.15,0.28,0.33V541L149.59,541z"/>
						</g>
					</g>
				</g>
				<path fill="#28A197" d="M148.69,535.52c0.52,0.61,0.43,1.54,0.43,1.54s-0.93-0.06-1.45-0.67c-0.52-0.61-0.43-1.54-0.43-1.54
					S148.16,534.9,148.69,535.52z"/>
				<path fill="#28A197" d="M149.99,530.01c0.01,0.8-0.66,1.46-0.66,1.46s-0.68-0.65-0.68-1.45s0.66-1.46,0.66-1.46
					S149.98,529.21,149.99,530.01z"/>
				<path fill="#28A197" d="M149.96,535.52c-0.52,0.61-0.43,1.54-0.43,1.54s0.93-0.06,1.45-0.67c0.52-0.61,0.43-1.54,0.43-1.54
					S150.48,534.9,149.96,535.52z"/>
				<path fill="#28A197" d="M148.69,531.31c0.52,0.61,0.43,1.54,0.43,1.54s-0.93-0.06-1.45-0.67c-0.52-0.61-0.43-1.54-0.43-1.54
					S148.16,530.69,148.69,531.31z"/>
				<path fill="#28A197" d="M149.96,531.31c-0.52,0.61-0.43,1.54-0.43,1.54s0.93-0.06,1.45-0.67c0.52-0.61,0.43-1.54,0.43-1.54
					S150.48,530.69,149.96,531.31z"/>
				<path fill="#28A197" d="M148.69,533.41c0.52,0.61,0.43,1.54,0.43,1.54s-0.93-0.06-1.45-0.67c-0.52-0.61-0.43-1.54-0.43-1.54
					S148.16,532.8,148.69,533.41z"/>
				<path fill="#28A197" d="M149.96,533.41c-0.52,0.61-0.43,1.54-0.43,1.54s0.93-0.06,1.45-0.67c0.52-0.61,0.43-1.54,0.43-1.54
					S150.48,532.8,149.96,533.41z"/>
				<path fill="#28A197" d="M148.69,537.62c0.52,0.61,0.43,1.54,0.43,1.54s-0.93-0.06-1.45-0.67c-0.52-0.61-0.43-1.54-0.43-1.54
					S148.16,537.01,148.69,537.62z"/>
				<path fill="#28A197" d="M149.96,537.62c-0.52,0.61-0.43,1.54-0.43,1.54s0.93-0.06,1.45-0.67c0.52-0.61,0.43-1.54,0.43-1.54
					S150.48,537.01,149.96,537.62z"/>
			</g>
		</g>
		<g display="inline">
			<g>
				<g>
					<g id="XMLID_80_">
						<g>
							<path fill="#28A197" d="M143.28,541h-0.16h-0.39v-10.04c0-0.04,0.01-0.09,0.02-0.13c0.04-0.12,0.14-0.2,0.25-0.2
								c0.15,0,0.28,0.15,0.28,0.33V541L143.28,541z"/>
						</g>
					</g>
				</g>
				<path fill="#28A197" d="M142.37,535.52c0.52,0.61,0.43,1.54,0.43,1.54s-0.93-0.06-1.45-0.67s-0.43-1.54-0.43-1.54
					S141.85,534.9,142.37,535.52z"/>
				<path fill="#28A197" d="M143.67,530.01c0.01,0.8-0.66,1.46-0.66,1.46s-0.68-0.65-0.68-1.45c-0.01-0.8,0.66-1.46,0.66-1.46
					S143.67,529.21,143.67,530.01z"/>
				<path fill="#28A197" d="M143.64,535.52c-0.52,0.61-0.43,1.54-0.43,1.54s0.93-0.06,1.45-0.67c0.52-0.61,0.43-1.54,0.43-1.54
					S144.16,534.9,143.64,535.52z"/>
				<path fill="#28A197" d="M142.37,531.31c0.52,0.61,0.43,1.54,0.43,1.54s-0.93-0.06-1.45-0.67s-0.43-1.54-0.43-1.54
					S141.85,530.69,142.37,531.31z"/>
				<path fill="#28A197" d="M143.64,531.31c-0.52,0.61-0.43,1.54-0.43,1.54s0.93-0.06,1.45-0.67c0.52-0.61,0.43-1.54,0.43-1.54
					S144.16,530.69,143.64,531.31z"/>
				<path fill="#28A197" d="M142.37,533.41c0.52,0.61,0.43,1.54,0.43,1.54s-0.93-0.06-1.45-0.67s-0.43-1.54-0.43-1.54
					S141.85,532.8,142.37,533.41z"/>
				<path fill="#28A197" d="M143.64,533.41c-0.52,0.61-0.43,1.54-0.43,1.54s0.93-0.06,1.45-0.67c0.52-0.61,0.43-1.54,0.43-1.54
					S144.16,532.8,143.64,533.41z"/>
				<path fill="#28A197" d="M142.37,537.62c0.52,0.61,0.43,1.54,0.43,1.54s-0.93-0.06-1.45-0.67c-0.52-0.61-0.43-1.54-0.43-1.54
					S141.85,537.01,142.37,537.62z"/>
				<path fill="#28A197" d="M143.64,537.62c-0.52,0.61-0.43,1.54-0.43,1.54s0.93-0.06,1.45-0.67c0.52-0.61,0.43-1.54,0.43-1.54
					S144.16,537.01,143.64,537.62z"/>
			</g>
		</g>
		<g display="inline">
			<g>
				<g>
					<g id="XMLID_77_">
						<g>
							<path fill="#28A197" d="M136.96,541h-0.16h-0.39v-10.04c0-0.04,0.01-0.09,0.02-0.13c0.04-0.12,0.14-0.2,0.25-0.2
								c0.15,0,0.28,0.15,0.28,0.33V541L136.96,541z"/>
						</g>
					</g>
				</g>
				<path fill="#28A197" d="M136.06,535.52c0.52,0.61,0.43,1.54,0.43,1.54s-0.93-0.06-1.45-0.67c-0.52-0.61-0.43-1.54-0.43-1.54
					S135.54,534.9,136.06,535.52z"/>
				<path fill="#28A197" d="M137.36,530.01c0.01,0.8-0.66,1.46-0.66,1.46s-0.68-0.65-0.68-1.45c-0.01-0.8,0.66-1.46,0.66-1.46
					S137.35,529.21,137.36,530.01z"/>
				<path fill="#28A197" d="M137.33,535.52c-0.52,0.61-0.43,1.54-0.43,1.54s0.93-0.06,1.45-0.67c0.52-0.61,0.43-1.54,0.43-1.54
					S137.85,534.9,137.33,535.52z"/>
				<path fill="#28A197" d="M136.06,531.31c0.52,0.61,0.43,1.54,0.43,1.54s-0.93-0.06-1.45-0.67c-0.52-0.61-0.43-1.54-0.43-1.54
					S135.54,530.69,136.06,531.31z"/>
				<path fill="#28A197" d="M137.33,531.31c-0.52,0.61-0.43,1.54-0.43,1.54s0.93-0.06,1.45-0.67c0.52-0.61,0.43-1.54,0.43-1.54
					S137.85,530.69,137.33,531.31z"/>
				<path fill="#28A197" d="M136.06,533.41c0.52,0.61,0.43,1.54,0.43,1.54s-0.93-0.06-1.45-0.67c-0.52-0.61-0.43-1.54-0.43-1.54
					S135.54,532.8,136.06,533.41z"/>
				<path fill="#28A197" d="M137.33,533.41c-0.52,0.61-0.43,1.54-0.43,1.54s0.93-0.06,1.45-0.67c0.52-0.61,0.43-1.54,0.43-1.54
					S137.85,532.8,137.33,533.41z"/>
				<path fill="#28A197" d="M136.06,537.62c0.52,0.61,0.43,1.54,0.43,1.54s-0.93-0.06-1.45-0.67c-0.52-0.61-0.43-1.54-0.43-1.54
					S135.54,537.01,136.06,537.62z"/>
				<path fill="#28A197" d="M137.33,537.62c-0.52,0.61-0.43,1.54-0.43,1.54s0.93-0.06,1.45-0.67c0.52-0.61,0.43-1.54,0.43-1.54
					S137.85,537.01,137.33,537.62z"/>
			</g>
		</g>
		<g display="inline">
			<g>
				<g>
					<g id="XMLID_74_">
						<g>
							<path fill="#28A197" d="M130.65,541h-0.16h-0.39v-10.04c0-0.04,0.01-0.09,0.02-0.13c0.04-0.12,0.14-0.2,0.25-0.2
								c0.15,0,0.28,0.15,0.28,0.33V541L130.65,541z"/>
						</g>
					</g>
				</g>
				<path fill="#28A197" d="M129.74,535.52c0.52,0.61,0.43,1.54,0.43,1.54s-0.93-0.06-1.45-0.67c-0.52-0.61-0.43-1.54-0.43-1.54
					S129.22,534.9,129.74,535.52z"/>
				<path fill="#28A197" d="M131.05,530.01c0.01,0.8-0.66,1.46-0.66,1.46s-0.68-0.65-0.68-1.45s0.66-1.46,0.66-1.46
					S131.04,529.21,131.05,530.01z"/>
				<path fill="#28A197" d="M131.01,535.52c-0.52,0.61-0.43,1.54-0.43,1.54s0.93-0.06,1.45-0.67s0.43-1.54,0.43-1.54
					S131.53,534.9,131.01,535.52z"/>
				<path fill="#28A197" d="M129.74,531.31c0.52,0.61,0.43,1.54,0.43,1.54s-0.93-0.06-1.45-0.67c-0.52-0.61-0.43-1.54-0.43-1.54
					S129.22,530.69,129.74,531.31z"/>
				<path fill="#28A197" d="M131.01,531.31c-0.52,0.61-0.43,1.54-0.43,1.54s0.93-0.06,1.45-0.67s0.43-1.54,0.43-1.54
					S131.53,530.69,131.01,531.31z"/>
				<path fill="#28A197" d="M129.74,533.41c0.52,0.61,0.43,1.54,0.43,1.54s-0.93-0.06-1.45-0.67c-0.52-0.61-0.43-1.54-0.43-1.54
					S129.22,532.8,129.74,533.41z"/>
				<path fill="#28A197" d="M131.01,533.41c-0.52,0.61-0.43,1.54-0.43,1.54s0.93-0.06,1.45-0.67s0.43-1.54,0.43-1.54
					S131.53,532.8,131.01,533.41z"/>
				<path fill="#28A197" d="M129.74,537.62c0.52,0.61,0.43,1.54,0.43,1.54s-0.93-0.06-1.45-0.67c-0.52-0.61-0.43-1.54-0.43-1.54
					S129.22,537.01,129.74,537.62z"/>
				<path fill="#28A197" d="M131.01,537.62c-0.52,0.61-0.43,1.54-0.43,1.54s0.93-0.06,1.45-0.67c0.52-0.61,0.43-1.54,0.43-1.54
					S131.53,537.01,131.01,537.62z"/>
			</g>
		</g>
		<g display="inline">
			<g>
				<g>
					<g id="XMLID_71_">
						<g>
							<path fill="#28A197" d="M124.33,541h-0.16h-0.39v-10.04c0-0.04,0.01-0.09,0.02-0.13c0.04-0.12,0.14-0.2,0.25-0.2
								c0.15,0,0.28,0.15,0.28,0.33V541L124.33,541z"/>
						</g>
					</g>
				</g>
				<path fill="#28A197" d="M123.43,535.52c0.52,0.61,0.43,1.54,0.43,1.54s-0.93-0.06-1.45-0.67c-0.52-0.61-0.43-1.54-0.43-1.54
					S122.91,534.9,123.43,535.52z"/>
				<path fill="#28A197" d="M124.73,530.01c0.01,0.8-0.66,1.46-0.66,1.46s-0.68-0.65-0.68-1.45c-0.01-0.8,0.66-1.46,0.66-1.46
					S124.73,529.21,124.73,530.01z"/>
				<path fill="#28A197" d="M124.7,535.52c-0.52,0.61-0.43,1.54-0.43,1.54s0.93-0.06,1.45-0.67c0.52-0.61,0.43-1.54,0.43-1.54
					S125.22,534.9,124.7,535.52z"/>
				<path fill="#28A197" d="M123.43,531.31c0.52,0.61,0.43,1.54,0.43,1.54s-0.93-0.06-1.45-0.67c-0.52-0.61-0.43-1.54-0.43-1.54
					S122.91,530.69,123.43,531.31z"/>
				<path fill="#28A197" d="M124.7,531.31c-0.52,0.61-0.43,1.54-0.43,1.54s0.93-0.06,1.45-0.67c0.52-0.61,0.43-1.54,0.43-1.54
					S125.22,530.69,124.7,531.31z"/>
				<path fill="#28A197" d="M123.43,533.41c0.52,0.61,0.43,1.54,0.43,1.54s-0.93-0.06-1.45-0.67c-0.52-0.61-0.43-1.54-0.43-1.54
					S122.91,532.8,123.43,533.41z"/>
				<path fill="#28A197" d="M124.7,533.41c-0.52,0.61-0.43,1.54-0.43,1.54s0.93-0.06,1.45-0.67c0.52-0.61,0.43-1.54,0.43-1.54
					S125.22,532.8,124.7,533.41z"/>
				<path fill="#28A197" d="M123.43,537.62c0.52,0.61,0.43,1.54,0.43,1.54s-0.93-0.06-1.45-0.67c-0.52-0.61-0.43-1.54-0.43-1.54
					S122.91,537.01,123.43,537.62z"/>
				<path fill="#28A197" d="M124.7,537.62c-0.52,0.61-0.43,1.54-0.43,1.54s0.93-0.06,1.45-0.67c0.52-0.61,0.43-1.54,0.43-1.54
					S125.22,537.01,124.7,537.62z"/>
			</g>
		</g>
		<g display="inline">
			<g>
				<g>
					<g id="XMLID_68_">
						<g>
							<path fill="#28A197" d="M118.02,541h-0.16h-0.39v-10.04c0-0.04,0.01-0.09,0.02-0.13c0.04-0.12,0.14-0.2,0.25-0.2
								c0.15,0,0.28,0.15,0.28,0.33V541L118.02,541z"/>
						</g>
					</g>
				</g>
				<path fill="#28A197" d="M117.12,535.52c0.52,0.61,0.43,1.54,0.43,1.54s-0.93-0.06-1.45-0.67s-0.43-1.54-0.43-1.54
					S116.59,534.9,117.12,535.52z"/>
				<path fill="#28A197" d="M118.42,530.01c0.01,0.8-0.66,1.46-0.66,1.46s-0.68-0.65-0.68-1.45s0.66-1.46,0.66-1.46
					S118.41,529.21,118.42,530.01z"/>
				<path fill="#28A197" d="M118.38,535.52c-0.52,0.61-0.43,1.54-0.43,1.54s0.93-0.06,1.45-0.67c0.52-0.61,0.43-1.54,0.43-1.54
					S118.91,534.9,118.38,535.52z"/>
				<path fill="#28A197" d="M117.12,531.31c0.52,0.61,0.43,1.54,0.43,1.54s-0.93-0.06-1.45-0.67s-0.43-1.54-0.43-1.54
					S116.59,530.69,117.12,531.31z"/>
				<path fill="#28A197" d="M118.38,531.31c-0.52,0.61-0.43,1.54-0.43,1.54s0.93-0.06,1.45-0.67c0.52-0.61,0.43-1.54,0.43-1.54
					S118.91,530.69,118.38,531.31z"/>
				<path fill="#28A197" d="M117.12,533.41c0.52,0.61,0.43,1.54,0.43,1.54s-0.93-0.06-1.45-0.67s-0.43-1.54-0.43-1.54
					S116.59,532.8,117.12,533.41z"/>
				<path fill="#28A197" d="M118.38,533.41c-0.52,0.61-0.43,1.54-0.43,1.54s0.93-0.06,1.45-0.67c0.52-0.61,0.43-1.54,0.43-1.54
					S118.91,532.8,118.38,533.41z"/>
				<path fill="#28A197" d="M117.12,537.62c0.52,0.61,0.43,1.54,0.43,1.54s-0.93-0.06-1.45-0.67c-0.52-0.61-0.43-1.54-0.43-1.54
					S116.59,537.01,117.12,537.62z"/>
				<path fill="#28A197" d="M118.38,537.62c-0.52,0.61-0.43,1.54-0.43,1.54s0.93-0.06,1.45-0.67c0.52-0.61,0.43-1.54,0.43-1.54
					S118.91,537.01,118.38,537.62z"/>
			</g>
		</g>
		<g display="inline">
			<g>
				<g>
					<g id="XMLID_65_">
						<g>
							<path fill="#28A197" d="M111.71,541h-0.16h-0.39v-10.04c0-0.04,0.01-0.09,0.02-0.13c0.04-0.12,0.14-0.2,0.25-0.2
								c0.15,0,0.28,0.15,0.28,0.33V541L111.71,541z"/>
						</g>
					</g>
				</g>
				<path fill="#28A197" d="M110.8,535.52c0.52,0.61,0.43,1.54,0.43,1.54s-0.93-0.06-1.45-0.67c-0.52-0.61-0.43-1.54-0.43-1.54
					S110.28,534.9,110.8,535.52z"/>
				<path fill="#28A197" d="M112.1,530.01c0.01,0.8-0.66,1.46-0.66,1.46s-0.68-0.65-0.68-1.45c-0.01-0.8,0.66-1.46,0.66-1.46
					S112.1,529.21,112.1,530.01z"/>
				<path fill="#28A197" d="M112.07,535.52c-0.52,0.61-0.43,1.54-0.43,1.54s0.93-0.06,1.45-0.67s0.43-1.54,0.43-1.54
					S112.59,534.9,112.07,535.52z"/>
				<path fill="#28A197" d="M110.8,531.31c0.52,0.61,0.43,1.54,0.43,1.54s-0.93-0.06-1.45-0.67c-0.52-0.61-0.43-1.54-0.43-1.54
					S110.28,530.69,110.8,531.31z"/>
				<path fill="#28A197" d="M112.07,531.31c-0.52,0.61-0.43,1.54-0.43,1.54s0.93-0.06,1.45-0.67s0.43-1.54,0.43-1.54
					S112.59,530.69,112.07,531.31z"/>
				<path fill="#28A197" d="M110.8,533.41c0.52,0.61,0.43,1.54,0.43,1.54s-0.93-0.06-1.45-0.67c-0.52-0.61-0.43-1.54-0.43-1.54
					S110.28,532.8,110.8,533.41z"/>
				<path fill="#28A197" d="M112.07,533.41c-0.52,0.61-0.43,1.54-0.43,1.54s0.93-0.06,1.45-0.67s0.43-1.54,0.43-1.54
					S112.59,532.8,112.07,533.41z"/>
				<path fill="#28A197" d="M110.8,537.62c0.52,0.61,0.43,1.54,0.43,1.54s-0.93-0.06-1.45-0.67c-0.52-0.61-0.43-1.54-0.43-1.54
					S110.28,537.01,110.8,537.62z"/>
				<path fill="#28A197" d="M112.07,537.62c-0.52,0.61-0.43,1.54-0.43,1.54s0.93-0.06,1.45-0.67c0.52-0.61,0.43-1.54,0.43-1.54
					S112.59,537.01,112.07,537.62z"/>
			</g>
		</g>
		<g display="inline">
			<g>
				<g>
					<g id="XMLID_62_">
						<g>
							<path fill="#28A197" d="M105.39,541h-0.16h-0.39v-10.04c0-0.04,0.01-0.09,0.02-0.13c0.04-0.12,0.14-0.2,0.25-0.2
								c0.15,0,0.28,0.15,0.28,0.33V541L105.39,541z"/>
						</g>
					</g>
				</g>
				<path fill="#28A197" d="M104.49,535.52c0.52,0.61,0.43,1.54,0.43,1.54s-0.93-0.06-1.45-0.67s-0.43-1.54-0.43-1.54
					S103.97,534.9,104.49,535.52z"/>
				<path fill="#28A197" d="M105.79,530.01c0.01,0.8-0.66,1.46-0.66,1.46s-0.68-0.65-0.68-1.45s0.66-1.46,0.66-1.46
					S105.78,529.21,105.79,530.01z"/>
				<path fill="#28A197" d="M105.76,535.52c-0.52,0.61-0.43,1.54-0.43,1.54s0.93-0.06,1.45-0.67c0.52-0.61,0.43-1.54,0.43-1.54
					S106.28,534.9,105.76,535.52z"/>
				<path fill="#28A197" d="M104.49,531.31c0.52,0.61,0.43,1.54,0.43,1.54s-0.93-0.06-1.45-0.67s-0.43-1.54-0.43-1.54
					S103.97,530.69,104.49,531.31z"/>
				<path fill="#28A197" d="M105.76,531.31c-0.52,0.61-0.43,1.54-0.43,1.54s0.93-0.06,1.45-0.67c0.52-0.61,0.43-1.54,0.43-1.54
					S106.28,530.69,105.76,531.31z"/>
				<path fill="#28A197" d="M104.49,533.41c0.52,0.61,0.43,1.54,0.43,1.54s-0.93-0.06-1.45-0.67s-0.43-1.54-0.43-1.54
					S103.97,532.8,104.49,533.41z"/>
				<path fill="#28A197" d="M105.76,533.41c-0.52,0.61-0.43,1.54-0.43,1.54s0.93-0.06,1.45-0.67c0.52-0.61,0.43-1.54,0.43-1.54
					S106.28,532.8,105.76,533.41z"/>
				<path fill="#28A197" d="M104.49,537.62c0.52,0.61,0.43,1.54,0.43,1.54s-0.93-0.06-1.45-0.67c-0.52-0.61-0.43-1.54-0.43-1.54
					S103.97,537.01,104.49,537.62z"/>
				<path fill="#28A197" d="M105.76,537.62c-0.52,0.61-0.43,1.54-0.43,1.54s0.93-0.06,1.45-0.67c0.52-0.61,0.43-1.54,0.43-1.54
					S106.28,537.01,105.76,537.62z"/>
			</g>
		</g>
	</g>
	<path fill="#5A6378" d="M565.32,527.63c38.74,0.36,276.44-0.03,276.44-0.03v69.24l-671.41,0.02
		C170.36,596.87,418.71,526.59,565.32,527.63z"/>
	<g id="_x31_9_2_">
		<path fill="#5A6378" d="M604.87,515.83c-0.66,0-1.32,0.11-1.97,0.34l-0.13,0.04l-2.17-3.94v-1.71h2.6c0.5,0,0.9-0.4,0.9-0.9
			s-0.4-0.9-0.9-0.9h-3.44c-0.5,0-0.9,0.4-0.9,0.9c0,0.07,0.01,0.15,0.03,0.22l0.01,0.02v1.73h-7.9l-0.65-1.45h1.88
			c0.47,0,0.86-0.38,0.86-0.86c0-0.47-0.38-0.86-0.86-0.86h-6.41c-0.47,0-0.86,0.38-0.86,0.86c0,0.47,0.38,0.86,0.86,0.86h2.65
			l0.57,1.3l-2.57,4.73l-0.13-0.04c-0.65-0.22-1.31-0.34-1.97-0.34c-3.3,0-5.98,2.68-5.98,5.98c0,3.3,2.68,5.98,5.98,5.98
			c2.93,0,5.4-2.1,5.89-4.99l0.02-0.14h2.55l0.05,0.04c0.39,0.37,0.9,0.57,1.44,0.57c1.15,0,2.09-0.94,2.09-2.09
			c0-0.2-0.03-0.4-0.08-0.59l-0.02-0.07l3.45-6.27l1.52,2.77l-0.11,0.09c-1.44,1.14-2.27,2.85-2.27,4.68c0,3.3,2.68,5.98,5.98,5.98
			c3.3,0,5.98-2.68,5.98-5.98C610.85,518.51,608.17,515.83,604.87,515.83z M587.12,518.56l0.16,0.15c0.59,0.56,1,1.26,1.21,2.03
			l0.06,0.21h-2.73L587.12,518.56z M588.48,522.88c-0.49,1.89-2.19,3.2-4.13,3.2c-2.36,0-4.27-1.91-4.27-4.27s1.91-4.27,4.27-4.27
			c0.34,0,0.7,0.04,1.06,0.14l0.21,0.06l-2.01,3.66c-0.01,0.01-0.01,0.03-0.02,0.04c-0.02,0.03-0.02,0.06-0.03,0.08
			c-0.01,0.03-0.02,0.06-0.03,0.08s-0.01,0.05-0.02,0.08c-0.01,0.03-0.01,0.06-0.01,0.08v0.01c0,0.01,0,0.02-0.01,0.03v0.01v0.01
			c0,0.01,0,0.02,0.01,0.03c0,0.03,0.01,0.07,0.01,0.1c0.01,0.02,0.01,0.05,0.02,0.07c0.01,0.03,0.02,0.05,0.02,0.08
			c0.01,0.03,0.02,0.06,0.03,0.08s0.02,0.04,0.04,0.07l0.01,0.01c0.02,0.03,0.03,0.04,0.04,0.06c0.02,0.02,0.03,0.04,0.06,0.07
			c0.02,0.02,0.03,0.04,0.06,0.06c0.02,0.02,0.04,0.04,0.07,0.06c0.02,0.02,0.04,0.03,0.07,0.04l0.01,0.01
			c0.01,0.01,0.01,0.01,0.02,0.02l0.01,0.01c0.01,0.01,0.03,0.01,0.04,0.02c0.02,0.01,0.05,0.02,0.07,0.03
			c0.03,0.01,0.06,0.02,0.08,0.03c0.02,0.01,0.04,0.01,0.07,0.02c0.03,0.01,0.07,0.01,0.1,0.01c0.01,0,0.02,0,0.04,0.01h4.19
			L588.48,522.88z M592.7,519.87c-0.22,0.27-0.38,0.6-0.44,0.94l-0.03,0.14h-1.96l-0.02-0.14c-0.25-1.45-1.02-2.76-2.18-3.69
			l-0.11-0.09l1.97-3.58l2.84,6.33L592.7,519.87z M595.05,519.24l-0.13-0.04c-0.15-0.04-0.31-0.07-0.47-0.08l-0.1-0.01l-2.59-5.76
			h6.53L595.05,519.24z M604.87,526.08c-2.36,0-4.27-1.91-4.27-4.27c0-1.18,0.48-2.28,1.35-3.1l0.16-0.15l2.01,3.67
			c0.15,0.28,0.44,0.44,0.75,0.44c0.15,0,0.29-0.03,0.42-0.11c0.2-0.11,0.35-0.29,0.41-0.51c0.06-0.22,0.04-0.45-0.07-0.65
			l-2.01-3.66l0.21-0.06c0.36-0.09,0.71-0.13,1.06-0.13c2.36,0,4.27,1.91,4.27,4.27C609.14,524.17,607.22,526.08,604.87,526.08z"/>
	</g>
	<polygon display="none" fill="#F5F5F5" stroke="#5A6378" stroke-width="8" stroke-miterlimit="10" points="456.93,458.67 
		550.24,458.67 550.24,538.66 456.93,538.66 	"/>
	<polygon fill="#F5F5F5" stroke="#F5F5F5" stroke-width="8" stroke-miterlimit="10" points="456.93,458.67 550.24,458.67 
		550.24,538.66 456.93,538.66 	"/>
	<path fill="#5A6378" d="M451.07,454.72l50.2-51.58c1.15-1.18,3.05-1.18,4.2,0l50.22,51.58c1.81,1.86,0.49,4.98-2.1,4.98H453.17
		C450.58,459.69,449.26,456.57,451.07,454.72z"/>
	<rect x="452.82" y="527.62" fill="#5A6378" width="101.57" height="16.65"/>
	<path display="none" fill="#5A6378" d="M554.92,511.28h-2.17v1.45v7.95v1.45h2.17v-1.45c0,0,0.48,0,2.89,0s2.17,2.35,2.17,2.35
		v2.71h-1.45v2.17h11.57v-2.17h-1.45v-6.51c0,0,0-6.51-6.93-6.51c-2.59,0-6.81,0-6.81,0L554.92,511.28L554.92,511.28z"/>
	<path fill="#5A6378" d="M481.67,494.13h-14.99c-0.67,0-1.22-0.54-1.22-1.22v-24.79c0-0.67,0.54-1.22,1.22-1.22h14.99
		c0.67,0,1.22,0.54,1.22,1.22v24.79C482.88,493.58,482.34,494.13,481.67,494.13z"/>
	<circle fill="#F5F5F5" cx="474.55" cy="487.6" r="2.05"/>
	<g id="Layer_1_3_">
		<g>
			<path display="none" fill="#D53980" d="M536.03,484v-7.49c0-0.37-0.3-0.67-0.67-0.67c-0.37,0-0.67,0.3-0.67,0.67V484
				c-1.16,0.3-2.01,1.35-2.01,2.59c0,1.48,1.21,2.69,2.69,2.69s2.69-1.21,2.69-2.69C538.04,485.34,537.19,484.3,536.03,484z"/>
			<path fill="#5A6378" d="M540.06,481.84v-10.7c0-2.59-2.11-4.7-4.7-4.7c-2.59,0-4.7,2.11-4.7,4.7v10.7
				c-1.24,1.21-2.01,2.89-2.01,4.76c0,3.7,3.01,6.72,6.72,6.72c3.7,0,6.72-3.01,6.72-6.72C542.08,484.73,541.3,483.05,540.06,481.84
				z M535.36,490.63c-2.22,0-4.04-1.81-4.04-4.04c0-1.49,0.81-2.77,2.01-3.47v-11.99c0-1.11,0.9-2.01,2.01-2.01
				c1.11,0,2.01,0.9,2.01,2.01v11.99c1.2,0.7,2.01,1.99,2.01,3.47C539.39,488.82,537.58,490.63,535.36,490.63z"/>
		</g>
	</g>
	<g display="none">
		<path display="inline" fill="#D53980" d="M473.98,488.36c0.05,0.07,0.11,0.13,0.19,0.2c0.07,0.06,0.15,0.12,0.22,0.16
			c0.08,0.04,0.16,0.09,0.26,0.13l0,0h0.01c-0.07-0.14-0.11-0.26-0.11-0.36c0-0.06,0.01-0.11,0.04-0.16
			c0.03-0.05,0.06-0.1,0.11-0.13c0.04-0.04,0.09-0.08,0.15-0.12c0.05-0.04,0.11-0.08,0.16-0.13c0.05-0.04,0.1-0.1,0.15-0.15
			c0.04-0.05,0.08-0.11,0.11-0.19c0.03-0.07,0.04-0.15,0.04-0.24c0-0.11-0.02-0.21-0.04-0.3s-0.07-0.17-0.12-0.25
			c-0.05-0.07-0.11-0.13-0.19-0.2c-0.07-0.06-0.15-0.12-0.22-0.16c-0.08-0.04-0.16-0.09-0.26-0.13l0,0h-0.01
			c0.07,0.14,0.11,0.26,0.11,0.36c0,0.06-0.01,0.11-0.04,0.16c-0.03,0.05-0.06,0.1-0.11,0.13c-0.04,0.04-0.09,0.08-0.14,0.12
			c-0.05,0.04-0.11,0.08-0.16,0.13c-0.05,0.04-0.1,0.1-0.14,0.15c-0.04,0.05-0.08,0.11-0.11,0.19c-0.03,0.07-0.04,0.15-0.04,0.24
			c0,0.11,0.02,0.21,0.04,0.3C473.89,488.21,473.93,488.29,473.98,488.36z"/>
	</g>
	<circle fill="#5A6378" cx="490.08" cy="528.93" r="20.03"/>
	<path display="none" fill="#5A6378" d="M434.69,540.51h24.13v-27.85h-19.28c-2.68,0-4.85,2.17-4.85,4.85V540.51z"/>
	<g display="none">
		<path display="inline" fill="#F5F5F5" d="M452.16,522.62c-0.31-1.2-1.53-1.93-2.73-1.62c-0.91,0.23-2.58,1.25-3.2,2.26
			c-0.03-0.01-0.05-0.02-0.08-0.02c0-1.18-0.87-2.92-1.52-3.59c-0.86-0.9-2.28-0.93-3.18-0.07c-0.9,0.86-0.93,2.28-0.07,3.18
			c0.61,0.63,2.13,1.5,3.29,1.66c0.01,0.12,0.02,0.23,0.06,0.34c-0.93,0.72-1.8,2.26-2,3.11c-0.28,1.21,0.48,2.42,1.69,2.69
			c1.21,0.28,2.42-0.48,2.69-1.69c0.2-0.86,0.08-2.63-0.44-3.68c0.06-0.06,0.1-0.12,0.15-0.18c1.06,0.5,2.85,0.58,3.7,0.36
			C451.74,525.04,452.47,523.82,452.16,522.62z M445.87,525.46c-0.6,0-1.09-0.49-1.09-1.09c0-0.6,0.49-1.09,1.09-1.09
			c0.6,0,1.09,0.49,1.09,1.09C446.97,524.97,446.47,525.46,445.87,525.46z"/>
		<path display="inline" fill="#F5F5F5" d="M445.87,523.93c-0.24,0-0.44,0.2-0.44,0.44c0,0.24,0.2,0.44,0.44,0.44
			c0.24,0,0.44-0.2,0.44-0.44C446.32,524.12,446.12,523.93,445.87,523.93z"/>
	</g>
	<g display="none">
		<g display="inline">
			<path fill="#F5F5F5" d="M597.04,546.1h-3.98c-0.51,0-0.91-0.41-0.91-0.91V535.1c0-0.51,0.41-0.91,0.91-0.91h3.98
				c0.51,0,0.91,0.41,0.91,0.91v10.09C597.95,545.69,597.54,546.1,597.04,546.1z"/>
		</g>
		<g display="inline">
			<path fill="#F5F5F5" d="M590.02,546.1h-3.98c-0.51,0-0.91-0.41-0.91-0.91V535.1c0-0.51,0.41-0.91,0.91-0.91h3.98
				c0.51,0,0.91,0.41,0.91,0.91v10.09C590.94,545.69,590.53,546.1,590.02,546.1z"/>
		</g>
		<g display="inline">
			<path fill="#F5F5F5" d="M583.01,546.1h-3.98c-0.51,0-0.91-0.41-0.91-0.91V535.1c0-0.51,0.41-0.91,0.91-0.91h3.98
				c0.51,0,0.91,0.41,0.91,0.91v10.09C583.92,545.69,583.51,546.1,583.01,546.1z"/>
		</g>
		<g display="inline">
			<path fill="#F5F5F5" d="M575.99,546.1h-3.98c-0.51,0-0.91-0.41-0.91-0.91V535.1c0-0.51,0.41-0.91,0.91-0.91h3.98
				c0.51,0,0.91,0.41,0.91,0.91v10.09C576.91,545.69,576.5,546.1,575.99,546.1z"/>
		</g>
		<g display="inline">
			<path fill="#F5F5F5" d="M568.97,546.1h-3.98c-0.51,0-0.91-0.41-0.91-0.91V535.1c0-0.51,0.41-0.91,0.91-0.91h3.98
				c0.51,0,0.91,0.41,0.91,0.91v10.09C569.89,545.69,569.48,546.1,568.97,546.1z"/>
		</g>
		<g display="inline">
			<path fill="#F5F5F5" d="M561.96,546.1h-3.98c-0.51,0-0.91-0.41-0.91-0.91V535.1c0-0.51,0.41-0.91,0.91-0.91h3.98
				c0.51,0,0.91,0.41,0.91,0.91v10.09C562.87,545.69,562.46,546.1,561.96,546.1z"/>
		</g>
		<g display="inline">
			<path fill="#F5F5F5" d="M554.94,546.1h-3.98c-0.51,0-0.91-0.41-0.91-0.91V535.1c0-0.51,0.41-0.91,0.91-0.91h3.98
				c0.51,0,0.91,0.41,0.91,0.91v10.09C555.86,545.69,555.45,546.1,554.94,546.1z"/>
		</g>
		<g display="inline">
			<path fill="#F5F5F5" d="M547.93,546.1h-3.98c-0.51,0-0.91-0.41-0.91-0.91V535.1c0-0.51,0.41-0.91,0.91-0.91h3.98
				c0.51,0,0.91,0.41,0.91,0.91v10.09C548.84,545.69,548.43,546.1,547.93,546.1z"/>
		</g>
		<g display="inline">
			<path fill="#F5F5F5" d="M540.91,546.1h-3.98c-0.51,0-0.91-0.41-0.91-0.91V535.1c0-0.51,0.41-0.91,0.91-0.91h3.98
				c0.51,0,0.91,0.41,0.91,0.91v10.09C541.83,545.69,541.42,546.1,540.91,546.1z"/>
		</g>
		<g display="inline">
			<path fill="#F5F5F5" d="M533.9,546.1h-3.98c-0.51,0-0.91-0.41-0.91-0.91V535.1c0-0.51,0.41-0.91,0.91-0.91h3.98
				c0.51,0,0.91,0.41,0.91,0.91v10.09C534.81,545.69,534.4,546.1,533.9,546.1z"/>
		</g>
	</g>
	<g display="none">
		<path display="inline" fill="#D53980" d="M488.35,531.46c0.29,0.14,0.59,0.21,0.9,0.21c0.76,0,1.48-0.42,1.84-1.14
			c0.07-0.14,0.12-0.29,0.16-0.44l2.07-8.98l0.79-3.42l0.49-2.12c0.06-0.25-0.14-0.42-0.34-0.42c-0.12,0-0.23,0.06-0.3,0.19
			l-0.99,2.03l-1.46,3l-4.09,8.36C486.91,529.75,487.33,530.97,488.35,531.46z"/>
		<g id="XMLID_9_" display="inline">
			<g>
				<path fill="#5A6378" d="M489.32,528.57c0.56,0,1,0.45,1,1c0,0.55-0.45,1-1,1c-0.55,0-1-0.45-1-1
					C488.32,529.02,488.77,528.57,489.32,528.57z"/>
			</g>
		</g>
	</g>
	<g>
		<path fill="#5A6378" d="M533.36,510.51h-3.37c-0.37,0-0.67,0.3-0.67,0.67h-1.35c0-0.37-0.3-0.67-0.67-0.67h-3.37
			c-0.37,0-0.67,0.3-0.67,0.67h-2.03v14.85v2.03v2.03h2.03v-2.03h10.8v2.03h2.03v-2.03v-2.03v-14.85h-2.03
			C534.04,510.81,533.73,510.51,533.36,510.51z M531.59,513.59c0,0.44-0.36,0.8-0.8,0.8c-0.44,0-0.8-0.36-0.8-0.8
			c0-0.44,0.36-0.8,0.8-0.8C531.23,512.78,531.59,513.14,531.59,513.59z M533.36,515.9c0.19,0,0.34,0.15,0.34,0.34
			s-0.15,0.34-0.34,0.34h-9.45c-0.19,0-0.34-0.15-0.34-0.34s0.15-0.34,0.34-0.34H533.36z M528.21,513.59c0,0.44-0.36,0.8-0.8,0.8
			c-0.44,0-0.8-0.36-0.8-0.8c0-0.44,0.36-0.8,0.8-0.8C527.85,512.78,528.21,513.14,528.21,513.59z M524.04,512.78
			c0.44,0,0.8,0.36,0.8,0.8c0,0.44-0.36,0.8-0.8,0.8c-0.44,0-0.8-0.36-0.8-0.8C523.24,513.14,523.6,512.78,524.04,512.78z
			 M534.71,526.7h-0.67h-10.8h-0.67v-0.67v-8.1h12.15v8.1V526.7L534.71,526.7z M534.16,512.78c0.44,0,0.8,0.36,0.8,0.8
			c0,0.44-0.36,0.8-0.8,0.8c-0.44,0-0.8-0.36-0.8-0.8C533.36,513.14,533.72,512.78,534.16,512.78z"/>
	</g>
	<path display="none" fill="#D53980" d="M529.97,521.87c-0.02-0.03-0.05-0.04-0.08-0.03l-0.98,0.22l0.3-2.09
		c0.01-0.04-0.02-0.07-0.05-0.08c-0.03-0.02-0.07-0.01-0.1,0.03l-2.1,2.86c-0.02,0.03-0.02,0.06-0.01,0.09
		c0.02,0.03,0.05,0.04,0.08,0.04l1.06-0.2l-0.31,1.98c-0.01,0.04,0.02,0.07,0.05,0.09c0.01,0.01,0.02,0.01,0.03,0.01
		c0.03,0,0.05-0.01,0.07-0.03l2.03-2.77C529.99,521.93,529.99,521.89,529.97,521.87z"/>
	<g display="none">
		<path display="inline" fill="#D53980" d="M524.52,508.56c0.1,0.15,0.22,0.28,0.38,0.41c0.16,0.13,0.31,0.24,0.47,0.34
			c0.16,0.1,0.34,0.19,0.53,0.28l-0.01-0.01l0.01,0.01c-0.15-0.29-0.22-0.53-0.22-0.75c0-0.11,0.03-0.22,0.08-0.33
			c0.06-0.1,0.12-0.19,0.21-0.27c0.09-0.08,0.19-0.16,0.29-0.24c0.11-0.08,0.21-0.17,0.32-0.26c0.11-0.1,0.2-0.19,0.29-0.29
			c0.09-0.11,0.16-0.23,0.21-0.38s0.08-0.31,0.08-0.48c0-0.22-0.03-0.43-0.09-0.62c-0.06-0.19-0.14-0.36-0.24-0.51
			c-0.1-0.15-0.22-0.28-0.38-0.41c-0.15-0.13-0.31-0.24-0.47-0.34s-0.34-0.19-0.53-0.28l0.01,0.01l-0.01-0.01
			c0.15,0.29,0.22,0.54,0.22,0.75c0,0.11-0.03,0.22-0.08,0.33c-0.06,0.1-0.13,0.19-0.21,0.28c-0.08,0.08-0.19,0.16-0.29,0.24
			c-0.11,0.08-0.21,0.17-0.32,0.26c-0.11,0.09-0.2,0.19-0.29,0.29c-0.09,0.1-0.16,0.23-0.21,0.38c-0.06,0.15-0.08,0.31-0.08,0.48
			c0,0.22,0.03,0.43,0.09,0.62C524.34,508.25,524.42,508.42,524.52,508.56z"/>
	</g>
	<g display="none">
		<path display="inline" fill="#D53980" d="M530.64,508.56c0.1,0.15,0.22,0.28,0.38,0.41c0.16,0.13,0.31,0.24,0.47,0.34
			s0.34,0.19,0.53,0.28l-0.01-0.01l0.01,0.01c-0.15-0.29-0.22-0.53-0.22-0.75c0-0.11,0.03-0.22,0.08-0.33
			c0.06-0.1,0.12-0.19,0.21-0.27c0.09-0.08,0.19-0.16,0.29-0.24c0.11-0.08,0.21-0.17,0.32-0.26c0.11-0.1,0.2-0.19,0.29-0.29
			c0.09-0.11,0.16-0.23,0.21-0.38c0.06-0.15,0.08-0.31,0.08-0.48c0-0.22-0.03-0.43-0.09-0.62s-0.14-0.36-0.24-0.51
			c-0.1-0.15-0.22-0.28-0.38-0.41c-0.15-0.13-0.31-0.24-0.47-0.34s-0.34-0.19-0.53-0.28l0.01,0.01l-0.01-0.01
			c0.15,0.29,0.22,0.54,0.22,0.75c0,0.11-0.03,0.22-0.08,0.33c-0.06,0.1-0.12,0.19-0.21,0.28c-0.09,0.08-0.19,0.16-0.29,0.24
			c-0.11,0.08-0.21,0.17-0.32,0.26c-0.11,0.1-0.2,0.19-0.29,0.29c-0.09,0.1-0.16,0.23-0.21,0.38s-0.08,0.31-0.08,0.48
			c0,0.22,0.03,0.43,0.09,0.62C530.46,508.25,530.54,508.42,530.64,508.56z"/>
	</g>
	<g display="none">
		<rect x="504.6" y="437.07" display="inline" fill="#5A6378" width="4.66" height="4.66"/>
		<rect x="504.6" y="450.34" display="inline" fill="#5A6378" width="4.66" height="4.66"/>
		<rect x="497.96" y="437.07" display="inline" fill="#5A6378" width="4.66" height="4.66"/>
		<rect x="504.6" y="443.7" display="inline" fill="#5A6378" width="4.66" height="4.66"/>
		<rect x="497.96" y="443.7" display="inline" fill="#5A6378" width="4.66" height="4.66"/>
		<rect x="497.96" y="450.34" display="inline" fill="#5A6378" width="4.66" height="4.66"/>
		<path display="inline" fill="#F5F5F5" d="M503.12,456.48h0.99h6.63v-6.63v-0.99v-5.65v-0.99v-6.63h-6.63h-0.99h-6.63v6.63v0.99
			v5.65v0.99v6.63H503.12L503.12,456.48z M504.6,450.34h4.66V455h-4.66V450.34z M504.6,443.7h4.66v4.66h-4.66V443.7z M504.6,437.07
			h4.66v4.66h-4.66V437.07z M497.96,450.34h4.66V455h-4.66V450.34z M497.96,443.7h4.66v4.66h-4.66V443.7z M497.96,437.07h4.66v4.66
			h-4.66V437.07z"/>
	</g>
	<g display="none">
		<rect x="520.45" y="437.07" display="inline" fill="#5A6378" width="4.66" height="4.66"/>
		<rect x="520.45" y="450.34" display="inline" fill="#5A6378" width="4.66" height="4.66"/>
		<rect x="513.82" y="437.07" display="inline" fill="#5A6378" width="4.66" height="4.66"/>
		<rect x="520.45" y="443.7" display="inline" fill="#5A6378" width="4.66" height="4.66"/>
		<rect x="513.82" y="443.7" display="inline" fill="#5A6378" width="4.66" height="4.66"/>
		<rect x="513.82" y="450.34" display="inline" fill="#5A6378" width="4.66" height="4.66"/>
		<path display="inline" fill="#F5F5F5" d="M518.97,456.48h0.99h6.63v-6.63v-0.99v-5.65v-0.99v-6.63h-6.63h-0.99h-6.63v6.63v0.99
			v5.65v0.99v6.63H518.97L518.97,456.48z M520.45,450.34h4.66V455h-4.66V450.34z M520.45,443.7h4.66v4.66h-4.66V443.7z
			 M520.45,437.07h4.66v4.66h-4.66V437.07z M513.82,450.34h4.66V455h-4.66V450.34z M513.82,443.7h4.66v4.66h-4.66V443.7z
			 M513.82,437.07h4.66v4.66h-4.66V437.07z"/>
	</g>
	<g display="none">
		<rect x="488.61" y="437.07" display="inline" fill="#5A6378" width="4.66" height="4.66"/>
		<rect x="488.61" y="450.34" display="inline" fill="#5A6378" width="4.66" height="4.66"/>
		<rect x="481.98" y="437.07" display="inline" fill="#5A6378" width="4.66" height="4.66"/>
		<rect x="488.61" y="443.7" display="inline" fill="#5A6378" width="4.66" height="4.66"/>
		<rect x="481.98" y="443.7" display="inline" fill="#5A6378" width="4.66" height="4.66"/>
		<rect x="481.98" y="450.34" display="inline" fill="#5A6378" width="4.66" height="4.66"/>
		<path display="inline" fill="#F5F5F5" d="M487.13,456.48h0.99h6.63v-6.63v-0.99v-5.65v-0.99v-6.63h-6.63h-0.99h-6.63v6.63v0.99
			v5.65v0.99v6.63H487.13L487.13,456.48z M488.61,450.34h4.66V455h-4.66V450.34z M488.61,443.7h4.66v4.66h-4.66V443.7z
			 M488.61,437.07h4.66v4.66h-4.66V437.07z M481.98,450.34h4.66V455h-4.66V450.34z M481.98,443.7h4.66v4.66h-4.66V443.7z
			 M481.98,437.07h4.66v4.66h-4.66V437.07z"/>
	</g>
	<g>
		<path fill="#5A6378" d="M413.04,520.83c-5.79-3.83-10.08-6.72-12.88-8.5c-1.98-1.26-3.13-1.23-3.72-1.13
			c-0.56,0.1-14.81,2.58-16.47,2.87c-1.66,0.29-2.52,0.76-3.12,2.32c-0.6,1.56-4.29,7.9-5.01,9.94c-6.65,2.64-7.43,4.13-7.08,6.19
			c0.2,1.16,1.54,8.85,1.54,8.85c0.2,1.11,3.49,3.54,4.55,3.36l1.73-0.3c1.58,2.8,4.79,4.45,8.14,3.86
			c3.35-0.58,5.81-3.22,6.35-6.39l23.96-4.18c1.58,2.8,4.79,4.45,8.14,3.86c3.5-0.61,6.04-3.47,6.42-6.84
			c1.09-1.07,2.39-3.26,2.24-4.1c0,0-1.06-6.06-1.26-7.22C426.23,521.44,421.99,521.03,413.04,520.83z"/>
		<g id="XMLID_3_">
			<g>
				<path fill="#F5F5F5" d="M421.68,533.21c0.37,2.12-1.06,4.15-3.18,4.52c-2.12,0.37-4.15-1.06-4.52-3.18
					c-0.36-2.12,1.06-4.15,3.18-4.52C419.28,529.67,421.31,531.1,421.68,533.21z"/>
				<path fill="#F5F5F5" d="M383.23,539.92c0.37,2.12-1.06,4.15-3.17,4.52c-2.12,0.37-4.15-1.06-4.52-3.18
					c-0.37-2.12,1.06-4.15,3.18-4.52C380.84,536.37,382.86,537.8,383.23,539.92z"/>
			</g>
		</g>
		<g id="XMLID_2_">
			<g>
				<path fill="#F5F5F5" d="M406.97,520.92c1.61,1.08,1.03,1.48,0.01,1.65c0,0-8.56,1.49-16.46,2.87l-1.52-8.74
					c3.75-0.65,7.53-1.31,7.53-1.31c0.99-0.17,2.12,0.09,2.94,0.59C400.6,516.69,405.17,519.7,406.97,520.92z"/>
			</g>
		</g>
		<g id="XMLID_1_">
			<g>
				<path fill="#F5F5F5" d="M387.89,516.89l1.52,8.74c-5.9,1.03-11.19,1.95-11.85,2.07c-1.17,0.21-1.84-0.36-0.98-2.14
					c0.75-1.55,2.56-4.98,2.99-5.85c0.54-1.12,0.95-1.53,2.21-1.75C382.31,517.87,384.97,517.4,387.89,516.89z"/>
			</g>
		</g>
	</g>
</g>
</svg>
