<svg xmlns="http://www.w3.org/2000/svg" xmlns:xlink="http://www.w3.org/1999/xlink" viewBox="0 176.95 841.89 240.08" preserveAspectRatio="xMinYMax"><path fill="#28A197" d="M57.73 321.2H36.89v-73.42c0-.7.56-1.26 1.26-1.26h18.32c.7 0 1.26.56 1.26 1.26v73.42z"/><path fill="#5A6378" d="M168 282.28h31.11c1.39 0 2.52 1.13 2.52 2.52v50.78H168v-53.3z"/><path fill="#28A197" d="M168.15 331.62h-23.87v-57.79c0-.7.56-1.26 1.26-1.26h21.35c.7 0 1.26.56 1.26 1.26v57.79z"/><g fill="#F5F5F5"><path d="M161.2 299.46h3.47v3.47h-3.47zM161.2 294.25h3.47v3.47h-3.47zM161.2 289.04h3.47v3.48h-3.47zM164.68 285.57v1.73h-3.48v-3.47h3.48M164.68 280.35v1.74h-3.48v-3.47h3.48M155.99 299.46h3.47v3.47h-3.47zM155.99 294.25h3.47v3.47h-3.47zM155.99 289.04h3.47v3.48h-3.47zM155.99 283.83h3.47v3.47h-3.47zM155.99 278.62h3.47v3.47h-3.47zM150.78 299.46h3.47v3.47h-3.47zM150.78 294.25h3.47v3.47h-3.47zM150.78 289.04h3.47v3.48h-3.47zM150.78 283.83h3.47v3.47h-3.47zM150.78 278.62h3.47v3.47h-3.47z"/></g><path fill="#5A6378" d="M829.98 319.01H711.73c-.24-4.26-.41-3.74-.41-5.13 0-8.24 4.42-15.89 11.01-20.16 3.4-2.2 7.36-3.52 11.61-3.52 5.29 0 10.12 1.86 13.96 4.91 1.61 1.28 3.05 2.75 4.26 4.41.08.11.17.21.25.31 1.23-.99 2.6-1.79 4.01-2.51 1.35-.69 2.77-1.22 4.26-1.63 1.83-.5 3.73-.85 5.73-.85 8.6 0 16.01 4.83 19.83 11.9.4.74.8 1.49 1.12 2.27.8-1.87 1.88-3.54 3.14-5.01 1.23-1.44 2.67-2.66 4.26-3.7 1.32-.85 2.74-1.57 4.26-2.13 2.7-1 5.66-1.56 8.79-1.56 11.98 0 21.67 9.62 22.17 22.4zM42.15 321.62H21.31v-57.79c0-.7.56-1.26 1.26-1.26h18.32c.7 0 1.26.56 1.26 1.26v57.79zM278.42 301.69c-2.7 0-5.25.48-7.58 1.35-1.31.48-2.54 1.1-3.67 1.84-1.37.89-2.61 1.95-3.67 3.19-1.09 1.27-2.02 2.71-2.71 4.33-.27-.68-.62-1.32-.97-1.96-3.3-6.1-9.69-10.27-17.11-10.27-1.73 0-3.36.3-4.95.73-1.28.35-2.51.81-3.67 1.41-1.22.62-2.4 1.32-3.46 2.17-.07-.09-.15-.18-.21-.27-1.05-1.43-2.29-2.7-3.67-3.8-3.32-2.63-7.48-4.23-12.04-4.23-3.67 0-7.08 1.14-10.01 3.04-5.68 3.68-9.5 10.28-9.5 17.39 0 1.2.15.75.35 4.42h102.03c-.45-11.04-8.82-19.34-19.16-19.34zM76.89 321.62H56.04v-82.11c0-.7.56-1.26 1.26-1.26h18.32c.7 0 1.26.56 1.26 1.26v82.11z"/><g fill="#F5F5F5"><path d="M35.2 289.46h3.47v3.47H35.2zM35.2 284.25h3.47v3.47H35.2zM35.2 279.04h3.47v3.48H35.2zM38.68 275.57v1.73H35.2v-3.47h3.48M38.68 270.35v1.74H35.2v-3.47h3.48M29.99 289.46h3.47v3.47h-3.47zM29.99 284.25h3.47v3.47h-3.47zM29.99 279.04h3.47v3.48h-3.47zM29.99 273.83h3.47v3.47h-3.47zM29.99 268.62h3.47v3.47h-3.47zM24.78 289.46h3.47v3.47h-3.47zM24.78 284.25h3.47v3.47h-3.47zM24.78 279.04h3.47v3.48h-3.47zM24.78 273.83h3.47v3.47h-3.47zM24.78 268.62h3.47v3.47h-3.47z"/></g><g fill="#F5F5F5"><path d="M59.52 251.72h13.9v3.47h-13.9zM59.52 256.93h13.9v3.47h-13.9zM59.52 262.15h13.9v3.47h-13.9zM59.52 267.36h13.9v3.47h-13.9zM59.52 272.57h13.9v3.47h-13.9zM59.52 277.78h13.9v3.47h-13.9zM59.52 282.99h13.9v3.47h-13.9zM59.52 288.2h13.9v3.47h-13.9zM59.52 246.52h13.9v3.47h-13.9z"/></g><path fill="#28A197" d="M28.25 296.88h36.47v24.32H28.25z"/><path fill="#F5F5F5" d="M31.73 303.83h29.53v17.37H31.73z"/><path fill="#5A6378" d="M31.73 301.99h29.53v19.63H31.73z"/><path fill="#28A197" d="M126.68 321.84v-85.18c0-.69-.56-1.26-1.26-1.26H103c-.69 0-1.26.56-1.26 1.26v85.18h24.94z"/><path fill="#5A6378" d="M103.71 271.54H76.48v49.88h28.5V272.8c0-.7-.57-1.26-1.27-1.26z"/><g fill="#F5F5F5"><path d="M95.46 291.36h4.53v4.53h-4.53zM95.46 284.56h4.53v4.53h-4.53zM95.46 277.75h4.53v4.53h-4.53zM88.66 291.36h4.53v4.53h-4.53zM88.66 284.56h4.53v4.53h-4.53zM88.66 277.75h4.53v4.53h-4.53zM81.85 291.36h4.54v4.53h-4.54zM81.85 284.56h4.54v4.53h-4.54zM81.85 277.75h4.54v4.53h-4.54z"/></g><path fill="#5A6378" d="M556.32 313.01H674.57c.24-4.26.41-3.74.41-5.13 0-8.24-4.42-15.89-11.01-20.16-3.4-2.2-7.36-3.52-11.61-3.52-5.29 0-10.12 1.86-13.96 4.91-1.61 1.28-3.05 2.75-4.26 4.41-.08.11-.17.21-.25.31-1.23-.99-2.6-1.79-4.01-2.51-1.35-.69-2.77-1.22-4.26-1.63-1.83-.5-3.73-.85-5.73-.85-8.6 0-16.01 4.83-19.83 11.9-.4.74-.8 1.49-1.12 2.27-.8-1.87-1.88-3.54-3.14-5.01-1.23-1.44-2.67-2.66-4.26-3.7-1.32-.85-2.74-1.57-4.26-2.13-2.7-1-5.66-1.56-8.79-1.56-11.98 0-21.67 9.62-22.17 22.4zM0 273.83h23.1v61.75H0zM125.85 321.41h20.13c.7 0 1.27-.57 1.27-1.27V259.2c0-.7-.57-1.27-1.27-1.27h-20.13c-.7 0-1.27.57-1.27 1.27v60.94c-.01.71.56 1.27 1.27 1.27z"/><g fill="#F5F5F5"><path d="M117.61 286.17h2.27v3.89h-2.27zM117.61 280.34h2.27v3.89h-2.27zM117.61 274.51h2.27v3.89h-2.27zM117.61 268.68h2.27v3.89h-2.27zM117.61 262.85h2.27v3.89h-2.27zM117.61 257.01h2.27v3.89h-2.27zM117.61 251.18h2.27v3.89h-2.27zM117.61 243.41h2.27v5.83h-2.27zM113.08 286.17h2.27v3.89h-2.27zM113.08 280.34h2.27v3.89h-2.27zM113.08 274.51h2.27v3.89h-2.27zM113.08 268.68h2.27v3.89h-2.27zM113.08 262.85h2.27v3.89h-2.27zM113.08 257.02h2.27v3.89h-2.27zM113.08 251.18h2.27v3.89h-2.27zM113.08 243.41h2.27v5.83h-2.27zM108.54 286.17h2.26v3.89h-2.26zM108.54 280.34h2.26v3.89h-2.26zM108.54 274.51h2.26v3.89h-2.26zM108.54 268.68h2.26v3.89h-2.26zM108.54 262.85h2.26v3.89h-2.26zM108.54 257.02h2.26v3.89h-2.26zM108.54 251.18h2.26v3.89h-2.26zM108.54 243.41h2.26v5.83h-2.26z"/></g><g fill="#F5F5F5"><path d="M140.45 290.13h2.26v2.26h-2.26zM140.45 283.33h2.26v4.53h-2.26zM140.45 276.53h2.26v4.53h-2.26zM140.45 269.72h2.26v4.54h-2.26zM140.45 262.92h2.26v4.53h-2.26zM133.65 290.13h4.53v2.26h-4.53zM133.65 283.33h4.53v4.53h-4.53zM133.65 276.53h4.53v4.53h-4.53zM133.65 269.72h4.53v4.54h-4.53zM133.65 262.92h4.53v4.53h-4.53zM129.11 290.13h2.26v2.26h-2.26zM129.11 283.33h2.26v4.53h-2.26zM129.11 276.53h2.26v4.53h-2.26zM129.11 269.72h2.26v4.54h-2.26zM129.11 262.92h2.26v4.53h-2.26z"/></g><defs><path id="a" d="M77.73 293.51h77.84v28.38H77.73z"/></defs><clipPath id="b"><use xlink:href="#a" overflow="visible"/></clipPath><g clip-path="url(#b)"><path fill="#AAD7D3" d="M114.18 344.47c-12.99 0-23.56-10.57-23.56-23.56 0-12.99 10.57-23.56 23.56-23.56s23.56 10.57 23.56 23.56c.01 12.99-10.56 23.56-23.56 23.56z"/><path fill="#F5F5F5" d="M114.18 298.62c12.3 0 22.3 10 22.3 22.3s-10 22.3-22.3 22.3-22.3-10-22.3-22.3 10.01-22.3 22.3-22.3m0-2.53c-13.71 0-24.82 11.11-24.82 24.82s11.11 24.82 24.82 24.82S139 334.62 139 320.91s-11.11-24.82-24.82-24.82z"/></g><circle fill="#5A6378" cx="254.74" cy="287.6" r="17.19"/><path fill="#AAD7D3" d="M263.76 292.69c.03.24.24 3.36-1.49 5.24-.81.88-1.92 1.34-3.21 1.34H256.03v21.75h-2.58v-29.49h-3.55c-3.07 0-4.19-2.67-4.19-4.47v-5.85c0-.71.57-1.29 1.29-1.29.71 0 1.29.58 1.29 1.29v5.85c.01.44.14 1.89 1.61 1.89h3.55v-7.74c0-.18.03-.35.1-.5.19-.46.65-.79 1.19-.79.71 0 1.29.57 1.29 1.29v15.47H259.06c.57 0 .99-.16 1.31-.51.83-.9.87-2.79.81-3.38v-6.42c0-.71.58-1.29 1.29-1.29.71 0 1.29.58 1.29 1.29v6.32zM0 320.52h841.89v55.25H0z"/><path fill="#F5F5F5" d="M0 340.05s91.14-.09 263.36.09c132.85.13 424.25 11.45 578.53 26.11v50.77H0v-76.97z"/><path fill="#AAD7D3" d="M761.6 307.88c-2.7 0-5.25.48-7.58 1.35-1.31.48-2.54 1.1-3.67 1.84-1.37.89-2.61 1.95-3.67 3.19-1.09 1.27-2.02 2.71-2.71 4.33-.27-.68-.62-1.32-.97-1.96-3.3-6.1-9.69-10.27-17.11-10.27-1.73 0-3.36.3-4.95.73-1.28.35-2.51.81-3.67 1.41-1.22.62-2.4 1.32-3.46 2.17-.07-.09-.15-.18-.21-.27-1.05-1.43-2.29-2.7-3.67-3.8-3.32-2.63-7.48-4.23-12.04-4.23-3.67 0-7.08 1.14-10.01 3.04-5.68 3.68-9.5 10.28-9.5 17.39 0 1.2.15.75.35 4.42h102.03c-.45-11.04-8.82-19.34-19.16-19.34z"/><path fill="#5A6378" d="M487.54 321.02h102.03c.21-3.67.35-3.22.35-4.42 0-7.11-3.81-13.71-9.5-17.39-2.93-1.9-6.35-3.04-10.01-3.04-4.56 0-8.73 1.6-12.04 4.23-1.38 1.1-2.63 2.37-3.67 3.8-.07.09-.15.18-.21.27-1.07-.85-2.24-1.55-3.46-2.17-1.17-.59-2.39-1.06-3.67-1.41-1.58-.43-3.22-.73-4.95-.73-7.42 0-13.82 4.17-17.11 10.27-.35.64-.69 1.28-.97 1.96-.69-1.62-1.62-3.06-2.71-4.33-1.06-1.24-2.3-2.3-3.67-3.19-1.14-.74-2.37-1.36-3.67-1.84-2.33-.86-4.88-1.35-7.58-1.35-10.37.01-18.73 8.31-19.16 19.34z"/><circle fill="#5A6378" cx="557.81" cy="287.58" r="17.19"/><path fill="#AAD7D3" d="M566.82 292.67c.03.24.24 3.36-1.49 5.24-.81.88-1.92 1.34-3.21 1.34H559.09V321h-2.58v-29.49h-3.55c-3.07 0-4.19-2.67-4.19-4.47v-5.85c0-.71.57-1.29 1.29-1.29s1.29.58 1.29 1.29v5.85c.01.44.14 1.89 1.61 1.89h3.55v-7.74c0-.18.03-.35.1-.5.19-.46.65-.79 1.19-.79.71 0 1.29.57 1.29 1.29v15.47H562.12c.57 0 .99-.16 1.31-.51.83-.9.87-2.79.81-3.38v-6.42c0-.71.58-1.29 1.29-1.29.71 0 1.29.58 1.29 1.29v6.32zM604.46 302.89c2.7 0 5.25.48 7.58 1.35 1.31.48 2.54 1.1 3.67 1.84 1.37.89 2.61 1.95 3.67 3.19 1.09 1.27 2.02 2.71 2.71 4.33.27-.68.62-1.32.97-1.96 3.3-6.1 9.69-10.27 17.11-10.27 1.73 0 3.36.3 4.95.73 1.28.35 2.51.81 3.67 1.41 1.22.62 2.4 1.32 3.46 2.17.07-.09.15-.18.21-.27 1.05-1.43 2.29-2.7 3.67-3.8 3.32-2.63 7.48-4.23 12.04-4.23 3.67 0 7.08 1.14 10.01 3.04 5.68 3.68 9.5 10.28 9.5 17.39 0 1.2-.15.75-.35 4.42H585.3c.45-11.04 8.82-19.34 19.16-19.34zM841.89 313.27s-.62-1.32-.97-1.96c-3.3-6.1-9.69-10.27-17.11-10.27-1.73 0-3.36.3-4.95.73-1.28.35-2.51.81-3.67 1.41-1.22.62-2.4 1.32-3.46 2.17-.07-.09-.15-.18-.21-.27-1.05-1.43-2.29-2.7-3.67-3.8-3.32-2.63-7.48-4.23-12.04-4.23-3.67 0-7.08 1.14-10.01 3.04-5.68 3.68-9.5 10.28-9.5 17.39 0 1.2.15.75.35 4.42H841.86l.03-8.63z"/><g><path fill="#AAD7D3" d="M49.54 307.89h-2.18c-.24 0-.43.2-.43.43h-.87c0-.24-.2-.43-.43-.43h-2.18c-.24 0-.43.2-.43.43H41.7V320.52H43v-1.31h6.97v1.31h1.31v-12.2h-1.31c0-.23-.19-.43-.43-.43zm-1.44 1.99c0 .29-.23.52-.52.52s-.52-.23-.52-.52c0-.29.23-.52.52-.52.28 0 .52.24.52.52zm1.44 1.5c.12 0 .22.1.22.22s-.1.22-.22.22h-6.1c-.12 0-.22-.1-.22-.22s.1-.22.22-.22h6.1zm-3.62-1.5c0 .29-.23.52-.52.52s-.52-.23-.52-.52c0-.29.23-.52.52-.52s.52.24.52.52zm-2.7-.52c.29 0 .52.23.52.52 0 .29-.23.52-.52.52s-.52-.23-.52-.52c.01-.28.24-.52.52-.52zm7.19 8.99h-7.84v-5.66h7.84v5.66zm-.66-8.99c.29 0 .52.23.52.52 0 .29-.23.52-.52.52s-.52-.23-.52-.52c.01-.28.24-.52.52-.52z"/></g></svg>