<?xml version="1.0" encoding="utf-8"?>
<!-- Generator: Adobe Illustrator 18.1.0, SVG Export Plug-In . SVG Version: 6.00 Build 0)  -->
<svg version="1.1" id="Layer_3" xmlns="http://www.w3.org/2000/svg" xmlns:xlink="http://www.w3.org/1999/xlink" x="0px" y="0px"
	 viewBox="0 176.95 841.89 240.08" enable-background="new 0 176.95 841.89 240.08" xml:space="preserve">
<g>
	<rect y="232.15" fill="#95CFCA" width="841.75" height="184.88"/>
	<path fill="#28A197" d="M841.75,215.23H481.71c0,0-74.36,0.86-117.96,16.92c117.24,0,478.01,0,478.01,0L841.75,215.23
		L841.75,215.23z"/>
	<polygon display="none" fill="#F5F5F5" points="214.58,258.23 -1.47,258.23 -1.47,243 214.58,243 221.08,250.61 	"/>
	<path display="none" fill="#95CFCA" d="M156.79,205.27c-2.68,0-3.51,0-3.74,0l-2.81-3.74h-0.94l0.94,3.74h-4.68l-0.94-1.87h-0.94
		v2.81l0.94,0.94h10.28l-5.61,3.74h0.94l2.81-3.74h3.74c1.87,0,1.87-0.94,1.87-0.94C158.66,205.27,156.79,205.27,156.79,205.27z"/>
	<path display="none" fill="#95CFCA" d="M134.58,215.47c-1.78,0-2.34,0-2.49,0l-1.87-2.49h-0.62l0.62,2.49h-3.12l-0.62-1.24h-0.62
		v1.87l0.62,0.62h3.74l-0.62,2.49h0.62l6.54-2.49h-2.18c1.24,0,1.24-0.62,1.24-0.62C135.83,215.47,134.58,215.47,134.58,215.47z"/>
	<path display="none" fill="#95CFCA" d="M378.9,205.23c-1.78,0-2.34,0-2.49,0l-1.87-2.49h-0.62l0.62,2.49h1.56l-5.29-1.24h-0.62
		v1.87l0.62,0.62h3.74l-0.62,2.49h0.62l1.87-2.49h2.49c1.24,0,1.24-0.62,1.24-0.62C380.14,205.23,378.9,205.23,378.9,205.23z"/>
	<path display="none" fill="#28A197" d="M566.51,210.13c0-0.02-0.01-0.05-0.02-0.06c-0.01-0.01-0.04-0.02-0.06-0.02h-2.57
		c-0.02,0-0.05,0.01-0.06,0.02c-0.01,0.01-0.02,0.04-0.02,0.06c0.01,1.6-0.14,3.14-0.45,4.59c-0.49-2.1-0.73-4.36-0.71-6.72
		c0-0.03-0.01-0.06-0.03-0.08c-0.02-0.02-0.05-0.04-0.08-0.04h-3.57c-0.03,0-0.06,0.01-0.08,0.04c-0.02,0.02-0.03,0.05-0.03,0.08
		c0.02,2.63-0.28,5.14-0.89,7.46c-0.01,0.04,0,0.07,0.02,0.1c0.02,0.03,0.06,0.05,0.09,0.05h9.04l0,0c0.05,0,0.08-0.04,0.08-0.08
		c0-0.01,0-0.02,0-0.03C566.71,213.84,566.49,212.03,566.51,210.13z"/>
	<path display="none" fill="#28A197" d="M553.52,213.06c0-0.01,0-0.02-0.01-0.03c-0.01-0.01-0.02-0.01-0.03-0.01h-1.2
		c-0.01,0-0.02,0-0.03,0.01c-0.01,0.01-0.01,0.02-0.01,0.03c0,0.75-0.07,1.47-0.21,2.14c-0.23-0.98-0.34-2.03-0.33-3.14
		c0-0.01,0-0.03-0.01-0.04c-0.01-0.01-0.02-0.02-0.04-0.02h-1.67c-0.01,0-0.03,0-0.04,0.02c-0.01,0.01-0.01,0.02-0.01,0.04
		c0.01,1.23-0.13,2.4-0.42,3.48c0,0.02,0,0.03,0.01,0.05c0.01,0.01,0.03,0.02,0.04,0.02h4.22l0,0c0.02,0,0.04-0.02,0.04-0.04
		c0,0,0-0.01,0-0.01C553.61,214.79,553.52,213.94,553.52,213.06z"/>
	<path display="none" fill="#28A197" d="M448.87,212.66c0-0.02-0.01-0.05-0.02-0.06c-0.01-0.01-0.04-0.02-0.06-0.02h-2.57
		c-0.02,0-0.05,0.01-0.06,0.02c-0.01,0.01-0.02,0.04-0.02,0.06c0.01,1.6-0.14,3.14-0.45,4.59c-0.49-2.1-0.72-4.36-0.71-6.72
		c0-0.03-0.01-0.06-0.03-0.08c-0.02-0.02-0.05-0.04-0.08-0.04h-3.57c-0.03,0-0.06,0.01-0.08,0.04c-0.02,0.02-0.03,0.05-0.03,0.08
		c0.02,2.63-0.28,5.14-0.89,7.46c-0.01,0.04,0,0.07,0.02,0.1c0.02,0.03,0.06,0.05,0.09,0.05h9.04l0,0c0.05,0,0.08-0.04,0.08-0.08
		c0-0.01,0-0.02,0-0.03C449.07,216.36,448.86,214.56,448.87,212.66z"/>
	<path display="none" fill="#28A197" d="M435.89,216.05c0-0.01,0-0.02-0.01-0.03c-0.01-0.01-0.02-0.01-0.03-0.01h-1.2
		c-0.01,0-0.02,0-0.03,0.01s-0.01,0.02-0.01,0.03c0,0.75-0.07,1.47-0.21,2.14c-0.23-0.98-0.34-2.03-0.33-3.14
		c0-0.01,0-0.03-0.01-0.04c-0.01-0.01-0.02-0.02-0.04-0.02h-1.67c-0.01,0-0.03,0-0.04,0.02c-0.01,0.01-0.01,0.02-0.01,0.04
		c0.01,1.23-0.13,2.4-0.42,3.48c0,0.02,0,0.03,0.01,0.05c0.01,0.01,0.03,0.02,0.04,0.02h4.22l0,0c0.02,0,0.04-0.02,0.04-0.04
		c0,0,0-0.01,0-0.01C435.98,217.78,435.88,216.94,435.89,216.05z"/>
	<path display="none" fill="#28A197" d="M751.62,210.12c0-0.02-0.01-0.05-0.02-0.06c-0.01-0.01-0.04-0.02-0.06-0.02h-2.57
		c-0.02,0-0.05,0.01-0.06,0.02c-0.01,0.01-0.02,0.04-0.02,0.06c0.01,1.6-0.14,3.14-0.45,4.59c-0.49-2.1-0.73-4.36-0.71-6.72
		c0-0.03-0.01-0.06-0.03-0.08c-0.02-0.02-0.05-0.04-0.08-0.04h-3.57c-0.03,0-0.06,0.01-0.08,0.04c-0.02,0.02-0.03,0.05-0.03,0.08
		c0.02,2.63-0.28,5.14-0.89,7.46c-0.01,0.04,0,0.07,0.02,0.1c0.02,0.03,0.06,0.05,0.09,0.05h9.04l0,0c0.05,0,0.08-0.04,0.08-0.08
		c0-0.01,0-0.02,0-0.03C751.82,213.82,751.61,212.01,751.62,210.12z"/>
	<path display="none" fill="#28A197" d="M737.05,212.97c0-0.01,0-0.02-0.01-0.03c-0.01-0.01-0.02-0.01-0.03-0.01h-1.2
		c-0.01,0-0.02,0-0.03,0.01c-0.01,0.01-0.01,0.02-0.01,0.03c0,0.75-0.07,1.47-0.21,2.14c-0.23-0.98-0.34-2.03-0.33-3.14
		c0-0.01,0-0.03-0.01-0.04c-0.01-0.01-0.02-0.02-0.04-0.02h-1.67c-0.01,0-0.03,0-0.04,0.02c-0.01,0.01-0.01,0.02-0.01,0.04
		c0.01,1.23-0.13,2.4-0.42,3.48c0,0.02,0,0.03,0.01,0.05c0.01,0.01,0.03,0.02,0.04,0.02h4.22l0,0c0.02,0,0.04-0.02,0.04-0.04
		c0,0,0-0.01,0-0.01C737.14,214.7,737.04,213.86,737.05,212.97z"/>
	<path display="none" fill="#28A197" d="M540.67,212.02c0-0.01,0-0.03-0.01-0.04c-0.01-0.01-0.02-0.02-0.04-0.02h-1.68
		c-0.01,0-0.03,0-0.04,0.02c-0.01,0.01-0.01,0.02-0.01,0.04c0.01,1.05-0.09,2.06-0.29,3.01c-0.32-1.38-0.47-2.86-0.46-4.4
		c0-0.02-0.01-0.04-0.02-0.06c-0.01-0.01-0.03-0.02-0.06-0.02h-2.34c-0.02,0-0.04,0.01-0.06,0.02c-0.01,0.01-0.02,0.03-0.02,0.06
		c0.01,1.73-0.18,3.37-0.58,4.89c0,0.02,0,0.05,0.01,0.07s0.04,0.03,0.06,0.03h5.92l0,0c0.03,0,0.06-0.02,0.06-0.06
		c0,0,0-0.01,0-0.02C540.8,214.45,540.66,213.27,540.67,212.02z"/>
	<path display="none" fill="#28A197" d="M475.23,230.02c0,0,20.34,4.15,36.97,21.55c-8.72,0.22-5.24,0.47-14.8,0.41
		c-5.47-6.87-29.61-21.3-42.66-21.94C471.59,230,475.23,230.02,475.23,230.02z"/>
	<path display="none" fill="#95CFCA" d="M216.68,227.66l-1.8,3.75c-0.22,0.43-0.67,0.71-1.16,0.71h-10.59
		c-0.2,0-0.32-0.21-0.23-0.38l0-0.01c0.15-0.29,0.06-0.63-0.2-0.82l-0.01-0.01c-0.6-0.43-0.96-1.12-0.96-1.87v-0.85h9.43v0
		c0-0.29,0.23-0.52,0.52-0.52H216.68L216.68,227.66z M210.63,224.51h-1.83c-0.14,0-0.26,0.12-0.26,0.26v2.88
		c0,0.14,0.12,0.26,0.26,0.26h1.83c0.14,0,0.26-0.12,0.26-0.26v-2.88C210.89,224.63,210.78,224.51,210.63,224.51z M213.78,225.56
		h-2.1c-0.14,0-0.26,0.12-0.26,0.26v1.05c0,0.14,4.79,0.26,4.93,0.26h-2.58c0.14,0,0.26-0.12,0.26-0.26v-1.05
		C214.04,225.68,213.92,225.56,213.78,225.56z M205.66,227.92h2.1c0.14,0,0.26-0.12,0.26-0.26v-2.1c0-0.14-0.12-0.26-0.26-0.26h-2.1
		c-0.14,0-0.26,0.12-0.26,0.26v2.1C205.39,227.8,205.51,227.92,205.66,227.92z M205.52,223.99l-0.65,0.52v3.4h-2.62v-3.4h-0.79
		v-0.52h1.83v-0.76h-0.68v-0.3h0.68v-1.56h0.26v1.55h0.68v0.3h-0.68v0.76L205.52,223.99L205.52,223.99z M204.4,226.14h-0.85v0.78
		h0.85V226.14z M204.4,224.89h-0.85v0.78h0.85V224.89z"/>
	<path display="none" fill="#95CFCA" d="M193.3,227.66l-1.8,3.75c-0.22,0.43-0.67,0.71-1.16,0.71h-10.59c-0.2,0-0.32-0.21-0.23-0.38
		l0-0.01c0.14-0.29,0.06-0.63-0.2-0.82l-0.01-0.01c-0.6-0.43-0.96-1.12-0.96-1.87v-0.85h9.43v0c0-0.29,0.23-0.52,0.52-0.52H193.3
		L193.3,227.66z M187.25,224.51h-1.83c-0.14,0-0.26,0.12-0.26,0.26v2.88c0,0.14,0.12,0.26,0.26,0.26h1.83
		c0.14,0,0.26-0.12,0.26-0.26v-2.88C187.51,224.63,187.39,224.51,187.25,224.51z M190.39,225.56h2.58c-0.15,0-4.93,0.12-4.93,0.26
		v1.05c0,0.14,0.12,0.26,0.26,0.26h2.1c0.14,0,0.26-0.12,0.26-0.26v-1.05C190.65,225.68,190.53,225.56,190.39,225.56z
		 M182.27,227.92h2.1c0.14,0,0.26-0.12,0.26-0.26v-2.1c0-0.14-0.12-0.26-0.26-0.26h-2.1c-0.14,0-0.26,0.12-0.26,0.26v2.1
		C182.01,227.8,182.13,227.92,182.27,227.92z M182.13,223.99l-0.65,0.52v3.4h-2.62v-3.4h-0.79v-0.52h1.83v-0.76h-0.68v-0.3h0.68
		v-1.56h0.26v1.55h0.68v0.3h-0.68v0.76L182.13,223.99L182.13,223.99z M181.01,226.14h-0.85v0.78h0.85V226.14z M181.01,224.89h-0.85
		v0.78h0.85V224.89z"/>
	<path display="none" fill="#95CFCA" d="M240.07,227.66l-1.8,3.75c-0.22,0.43-0.67,0.71-1.16,0.71h-10.59
		c-0.2,0-0.32-0.21-0.23-0.38l0-0.01c0.15-0.29,0.06-0.63-0.2-0.82l-0.01-0.01c-0.6-0.43-0.96-1.12-0.96-1.87v-0.85h9.43v0
		c0-0.29,0.23-0.52,0.52-0.52H240.07L240.07,227.66z M234.02,224.51h-1.83c-0.14,0-0.26,0.12-0.26,0.26v2.88
		c0,0.14,0.12,0.26,0.26,0.26h1.83c0.14,0,0.26-0.12,0.26-0.26v-2.88C234.28,224.63,234.16,224.51,234.02,224.51z M237.16,225.56
		h-2.1c-0.14,0-0.26,0.12-0.26,0.26v1.05c0,0.14,0.12,0.26,0.26,0.26h2.1c0.14,0,0.26-0.12,0.26-0.26v-1.05
		C237.42,225.68,237.31,225.56,237.16,225.56z M229.04,227.92h2.1c0.15,0,4.93-0.12,4.93-0.26l-4.67-2.1c0-0.14-0.12-0.26-0.26-0.26
		h-2.1c-0.14,0-0.26,0.12-0.26,0.26v2.1C228.78,227.8,228.9,227.92,229.04,227.92z M228.91,223.99l-0.65,0.52v3.4h-2.62v-3.4h-0.79
		v-0.52h1.83v-0.76h-0.68v-0.3h0.68v-1.56h0.26v1.55h0.68v0.3h-0.68v0.76L228.91,223.99L228.91,223.99z M227.78,226.14h-0.85v0.78
		h0.85V226.14z M227.78,224.89h-0.85v0.78h0.85V224.89z"/>
	<g display="none">
		<g display="inline">
			<path fill="#95CFCA" d="M323,225.75c-0.09-0.97-0.34-3.25-0.58-3.25s-0.49,2.28-0.58,3.25c0.15-0.12,0.36-0.22,0.58-0.22
				S322.84,225.6,323,225.75z"/>
			<circle fill="#95CFCA" cx="322.42" cy="226.45" r="0.61"/>
			<path fill="#95CFCA" d="M323.33,226.33c0,0.03,0,0.09,0,0.12c0,0.4-0.23,0.72-0.58,0.85c0.88,0.4,2.98,1.34,3.1,1.12
				C325.98,228.21,324.09,226.87,323.33,226.33z"/>
			<path fill="#95CFCA" d="M321.5,226.45c0-0.03,0-0.09,0-0.12c-0.79,0.55-2.64,1.92-2.53,2.13c0.12,0.22,2.22-0.73,3.1-1.13
				l-0.27,4.59h1.22l-0.27-4.62c-0.1,0.04-0.22,0.06-0.33,0.06C321.9,227.36,321.5,226.96,321.5,226.45z"/>
			<path fill="#95CFCA" d="M327.42,227.3h-4.67l0,0H327.42z"/>
		</g>
		<g display="inline">
			<path fill="#95CFCA" d="M310.76,225.75c-0.09-0.97-0.34-3.25-0.58-3.25s-0.49,2.28-0.58,3.25c0.15-0.12,0.36-0.22,0.58-0.22
				C310.4,225.54,310.61,225.6,310.76,225.75z"/>
			<circle fill="#95CFCA" cx="310.19" cy="226.45" r="0.61"/>
			<path fill="#95CFCA" d="M311.1,226.33c0,0.03,0,0.09,0,0.12c0,0.4-0.23,0.72-0.58,0.85c0.88,0.4,2.98,1.34,3.1,1.12
				C313.74,228.21,311.86,226.87,311.1,226.33z"/>
			<path fill="#95CFCA" d="M309.27,226.45c0-0.03,0-0.09,0-0.12c-0.79,0.55-2.64,1.92-2.53,2.13c0.12,0.22,2.22-0.73,3.1-1.13
				l-0.27,4.59h1.22l-0.27-4.62c-0.1,0.04-0.22,0.06-0.33,0.06C309.67,227.36,309.27,226.96,309.27,226.45z"/>
			<path fill="#95CFCA" d="M315.19,227.3h-4.67l0,0H315.19z"/>
		</g>
		<g display="inline">
			<path fill="#95CFCA" d="M298.52,225.75c-0.09-0.97-0.34-3.25-0.58-3.25s-0.49,2.28-0.58,3.25c0.15-0.12,0.36-0.22,0.58-0.22
				C298.15,225.54,298.36,225.6,298.52,225.75z"/>
			<circle fill="#95CFCA" cx="297.94" cy="226.45" r="0.61"/>
			<path fill="#95CFCA" d="M298.85,226.33c0,0.03,0,0.09,0,0.12c0,0.4-0.23,0.72-0.58,0.85c0.88,0.4,2.98,1.34,3.1,1.12
				C301.5,228.21,299.61,226.87,298.85,226.33z"/>
			<path fill="#95CFCA" d="M297.02,226.45c0-0.03,4.67-0.09,4.67-0.12c-0.79,0.55-7.31,1.92-7.2,2.13c0.12,0.22,2.22-0.73,3.1-1.13
				l-0.27,4.59h1.22l-0.27-4.62c-0.1,0.04-0.22,0.06-0.33,0.06C297.42,227.36,297.02,226.96,297.02,226.45z"/>
			<path fill="#95CFCA" d="M298.27,227.3L298.27,227.3L298.27,227.3L298.27,227.3z"/>
		</g>
		<g display="inline">
			<path fill="#95CFCA" d="M335.05,225.75c-0.09-0.97-0.34-3.25-0.58-3.25s-0.49,2.28-0.58,3.25c0.15-0.12,0.36-0.22,0.58-0.22
				C334.69,225.54,334.9,225.6,335.05,225.75z"/>
			<circle fill="#95CFCA" cx="334.47" cy="226.45" r="0.61"/>
			<path fill="#95CFCA" d="M335.39,226.33c0,0.03,0,0.09,0,0.12c0,0.4-0.23,0.72-0.58,0.85c0.88,0.4,2.98,1.34,3.1,1.12
				C338.03,228.21,336.15,226.87,335.39,226.33z"/>
			<path fill="#95CFCA" d="M333.57,226.45c0-0.03,0-0.09,0-0.12c-0.79,0.55-2.64,1.92-2.53,2.13c0.12,0.22,2.22-0.73,3.1-1.13
				l-0.27,4.59h1.22l-0.27-4.62c-0.1,0.04-0.22,0.06-0.33,0.06C333.96,227.36,333.57,226.96,333.57,226.45z"/>
			<path fill="#95CFCA" d="M339.48,227.3h-4.67l0,0H339.48z"/>
		</g>
		<g display="inline">
			<path fill="#95CFCA" d="M347.19,225.75c-0.09-0.97-0.34-3.25-0.58-3.25s-0.49,2.28-0.58,3.25c0.15-0.12,0.36-0.22,0.58-0.22
				C346.82,225.54,347.03,225.6,347.19,225.75z"/>
			<circle fill="#95CFCA" cx="346.61" cy="226.45" r="0.61"/>
			<path fill="#95CFCA" d="M347.52,226.33c0,0.03,0,0.09,0,0.12c0,0.4-0.23,0.72-0.58,0.85c0.88,0.4,2.98,1.34,3.1,1.12
				C350.17,228.21,348.28,226.87,347.52,226.33z"/>
			<path fill="#95CFCA" d="M345.7,226.45c0-0.03,0-0.09,0-0.12c-0.79,0.55-2.64,1.92-2.53,2.13c0.12,0.22,2.22-0.73,3.1-1.13
				l-0.27,4.59h1.22l-0.27-4.62c-0.1,0.04-0.22,0.06-0.33,0.06C346.09,227.36,345.7,226.96,345.7,226.45z"/>
			<path fill="#95CFCA" d="M351.61,227.3h-4.67l0,0H351.61z"/>
		</g>
	</g>
	<g display="none">
		<g display="inline">
			<path fill="#28A197" d="M809.24,209.17c-0.09-0.97-0.34-3.25-0.58-3.25s-0.49,2.28-0.58,3.25c0.15-0.12,0.36-0.22,0.58-0.22
				C808.87,208.95,809.09,209.02,809.24,209.17z"/>
			<circle fill="#28A197" cx="808.66" cy="209.87" r="0.61"/>
			<path fill="#28A197" d="M809.58,209.75c0,0.03,0,0.09,0,0.12c0,0.4-0.23,0.72-0.58,0.85c0.88,0.4,2.98,1.34,3.1,1.12
				C812.22,211.63,810.33,210.29,809.58,209.75z"/>
			<path fill="#28A197" d="M807.75,209.87c0-0.03,0-0.09,0-0.12c-0.79,0.55-2.64,1.91-2.53,2.13c0.12,0.22,2.22-0.73,3.1-1.13
				l-0.27,4.59h1.22l-0.27-4.62c-0.1,0.04-0.22,0.06-0.33,0.06C808.15,210.78,807.75,210.38,807.75,209.87z"/>
			<path fill="#28A197" d="M809,210.72L809,210.72L809,210.72L809,210.72z"/>
		</g>
		<g display="inline">
			<path fill="#28A197" d="M797.01,209.17c-0.09-0.97-0.34-3.25-0.58-3.25s-0.49,2.28-0.58,3.25c0.15-0.12,0.36-0.22,0.58-0.22
				C796.64,208.95,796.86,209.02,797.01,209.17z"/>
			<circle fill="#28A197" cx="796.43" cy="209.87" r="0.61"/>
			<path fill="#28A197" d="M797.35,209.75c0,0.03,0,0.09,0,0.12c0,0.4-0.23,0.72-0.58,0.85c0.88,0.4,2.98,1.34,3.1,1.12
				C799.99,211.63,798.1,210.29,797.35,209.75z"/>
			<path fill="#28A197" d="M795.52,209.87c0-0.03,0-0.09,0-0.12c-0.79,0.55-2.64,1.91-2.53,2.13c0.12,0.22,2.22-0.73,3.1-1.13
				l-0.27,4.59h1.22l-0.27-4.62c-0.1,0.04-0.22,0.06-0.33,0.06C795.91,210.78,795.52,210.38,795.52,209.87z"/>
			<path fill="#28A197" d="M796.77,210.72L796.77,210.72L796.77,210.72L796.77,210.72z"/>
		</g>
		<g display="inline">
			<path fill="#28A197" d="M784.76,209.17c-0.09-0.97-0.34-3.25-0.58-3.25c-0.24,0-0.49,2.28-0.58,3.25
				c0.15-0.12,0.36-0.22,0.58-0.22C784.39,208.95,784.61,209.02,784.76,209.17z"/>
			<circle fill="#28A197" cx="784.18" cy="209.87" r="0.61"/>
			<path fill="#28A197" d="M785.1,209.75c0,0.03,0,0.09,0,0.12c0,0.4-0.23,0.72-0.58,0.85c0.88,0.4,2.98,1.34,3.1,1.12
				C787.74,211.63,785.85,210.29,785.1,209.75z"/>
			<path fill="#28A197" d="M783.27,209.87c0-0.03,0-0.09,0-0.12c-0.79,0.55-2.64,1.91-2.53,2.13c0.12,0.22,2.22-0.73,3.1-1.13
				l-0.27,4.59h1.22l-0.27-4.62c-0.1,0.04-0.22,0.06-0.33,0.06C783.66,210.78,783.27,210.38,783.27,209.87z"/>
			<path fill="#28A197" d="M784.52,210.72L784.52,210.72L784.52,210.72L784.52,210.72z"/>
		</g>
		<g display="inline">
			<path fill="#28A197" d="M821.3,209.17c-0.09-0.97-0.34-3.25-0.58-3.25s-0.49,2.28-0.58,3.25c0.15-0.12,0.36-0.22,0.58-0.22
				S821.15,209.02,821.3,209.17z"/>
			<circle fill="#28A197" cx="820.72" cy="209.87" r="0.61"/>
			<path fill="#28A197" d="M821.63,209.75c0,0.03,0,0.09,0,0.12c0,0.4-0.23,0.72-0.58,0.85c0.88,0.4,2.98,1.34,3.1,1.12
				C824.28,211.63,822.4,210.29,821.63,209.75z"/>
			<path fill="#28A197" d="M819.81,209.87c0-0.03,0-0.09,0-0.12c-0.79,0.55-2.64,1.91-2.53,2.13c0.12,0.22,2.22-0.73,3.1-1.13
				l-0.27,4.59h1.22l-0.27-4.62c-0.1,0.04-0.22,0.06-0.33,0.06C820.21,210.78,819.81,210.38,819.81,209.87z"/>
			<path fill="#28A197" d="M821.06,210.72L821.06,210.72L821.06,210.72L821.06,210.72z"/>
		</g>
		<g display="inline">
			<path fill="#28A197" d="M833.43,209.17c-0.09-0.97-0.34-3.25-0.58-3.25s-0.49,2.28-0.58,3.25c0.15-0.12,0.36-0.22,0.58-0.22
				S833.28,209.02,833.43,209.17z"/>
			<circle fill="#28A197" cx="832.85" cy="209.87" r="0.61"/>
			<path fill="#28A197" d="M833.77,209.75c0,0.03,0,0.09,0,0.12c0,0.4-0.23,0.72-0.58,0.85c0.88,0.4,2.98,1.34,3.1,1.12
				C836.41,211.63,834.52,210.29,833.77,209.75z"/>
			<path fill="#28A197" d="M831.94,209.87c0-0.03,0-0.09,0-0.12c-0.79,0.55-2.64,1.91-2.53,2.13c0.12,0.22,2.22-0.73,3.1-1.13
				l-0.27,4.59h1.22l-0.27-4.62c-0.1,0.04-0.22,0.06-0.33,0.06C832.34,210.78,831.94,210.38,831.94,209.87z"/>
			<path fill="#28A197" d="M833.19,210.72L833.19,210.72L833.19,210.72L833.19,210.72z"/>
		</g>
	</g>
	<path display="none" fill="#D53980" d="M212.71,249.88c-0.03-0.04-0.08-0.07-0.13-0.06l-1.5,0.34l0.46-3.21
		c0.01-0.06-0.02-0.11-0.07-0.14c-0.05-0.02-0.12,0-0.15,0.04l-3.23,4.4c-0.03,0.04-0.03,0.1,0,0.14c0.03,0.04,0.08,0.07,0.13,0.06
		l1.63-0.3l-0.48,3.04c-0.01,0.06,0.02,0.11,0.07,0.14c0.01,0,0.03,0.01,0.05,0.01c0.04,0,0.08-0.02,0.1-0.05l3.12-4.27
		C212.74,249.98,212.74,249.92,212.71,249.88z"/>
</g>
</svg>
