<?xml version="1.0" encoding="utf-8"?>
<!-- Generator: Adobe Illustrator 18.0.0, SVG Export Plug-In . SVG Version: 6.00 Build 0)  -->
<!DOCTYPE svg PUBLIC "-//W3C//DTD SVG 1.1//EN" "http://www.w3.org/Graphics/SVG/1.1/DTD/svg11.dtd">
<svg version="1.1" id="Layer_1" xmlns="http://www.w3.org/2000/svg" xmlns:xlink="http://www.w3.org/1999/xlink" x="0px" y="0px"
	 viewBox="0 881.2 595.3 137.6" enable-background="new 0 881.2 595.3 137.6" xml:space="preserve">
<g id="Layer_1_1_">
	<path fill="#28A197" d="M40.8,951.1H26.1v-51.9c0-0.5,0.4-0.9,0.9-0.9h13c0.5,0,0.9,0.4,0.9,0.9C40.8,899.2,40.8,951.1,40.8,951.1z
		"/>
	<path fill="#5A6378" d="M118.8,923.6h22c1,0,1.8,0.8,1.8,1.8v35.9h-23.8V923.6z"/>
	<path fill="#28A197" d="M118.9,958.4H102v-40.9c0-0.5,0.4-0.9,0.9-0.9H118c0.5,0,0.9,0.4,0.9,0.9V958.4z"/>
	<g id="XMLID_4_">
		<g>
			<rect x="114" y="935.7" fill="#F5F5F5" width="2.5" height="2.5"/>
			<rect x="114" y="932" fill="#F5F5F5" width="2.5" height="2.5"/>
			<rect x="114" y="928.3" fill="#F5F5F5" width="2.5" height="2.5"/>
			<polygon fill="#F5F5F5" points="116.4,925.9 116.4,927.1 114,927.1 114,924.7 116.4,924.7 			"/>
			<polygon fill="#F5F5F5" points="116.4,922.2 116.4,923.4 114,923.4 114,921 116.4,921 			"/>
			<rect x="110.3" y="935.7" fill="#F5F5F5" width="2.5" height="2.5"/>
			<rect x="110.3" y="932" fill="#F5F5F5" width="2.5" height="2.5"/>
			<rect x="110.3" y="928.3" fill="#F5F5F5" width="2.5" height="2.5"/>
			<rect x="110.3" y="924.7" fill="#F5F5F5" width="2.5" height="2.5"/>
			<rect x="110.3" y="921" fill="#F5F5F5" width="2.5" height="2.5"/>
			<rect x="106.6" y="935.7" fill="#F5F5F5" width="2.5" height="2.5"/>
			<rect x="106.6" y="932" fill="#F5F5F5" width="2.5" height="2.5"/>
			<rect x="106.6" y="928.3" fill="#F5F5F5" width="2.5" height="2.5"/>
			<rect x="106.6" y="924.7" fill="#F5F5F5" width="2.5" height="2.5"/>
			<rect x="106.6" y="921" fill="#F5F5F5" width="2.5" height="2.5"/>
		</g>
	</g>
	<path fill="#5A6378" d="M586.9,949.5h-23.1H562h-4.9h-46.4h-7.5c-0.2-3-0.3-2.6-0.3-3.6c0-5.8,3.1-11.2,7.8-14.3
		c2.4-1.6,5.2-2.5,8.2-2.5c3.7,0,7.2,1.3,9.9,3.5c1.1,0.9,2.2,1.9,3,3.1c0.1,0.1,0.1,0.1,0.2,0.2c0.9-0.7,1.8-1.3,2.8-1.8
		c1-0.5,2-0.9,3-1.2c1.3-0.4,2.6-0.6,4.1-0.6c6.1,0,11.3,3.4,14,8.4c0.3,0.5,0.6,1.1,0.8,1.6c0.6-1.3,1.3-2.5,2.2-3.5
		c0.9-1,1.9-1.9,3-2.6c0.9-0.6,1.9-1.1,3-1.5c1.9-0.7,4-1.1,6.2-1.1C579.7,933.7,586.5,940.5,586.9,949.5z"/>
	<path fill="#5A6378" d="M29.8,951.4H15.1v-40.9c0-0.5,0.4-0.9,0.9-0.9h13c0.5,0,0.9,0.4,0.9,0.9C29.8,910.5,29.8,951.4,29.8,951.4z
		"/>
	<path fill="#5A6378" d="M196.9,937.3c-1.9,0-3.7,0.3-5.4,1c-0.9,0.3-1.8,0.8-2.6,1.3c-1,0.6-1.8,1.4-2.6,2.3
		c-0.8,0.9-1.4,1.9-1.9,3.1c-0.2-0.5-0.4-0.9-0.7-1.4c-2.3-4.3-6.9-7.3-12.1-7.3c-1.2,0-2.4,0.2-3.5,0.5c-0.9,0.2-1.8,0.6-2.6,1
		c-0.9,0.4-1.7,0.9-2.4,1.5c0-0.1-0.1-0.1-0.1-0.2c-0.7-1-1.6-1.9-2.6-2.7c-2.3-1.9-5.3-3-8.5-3c-2.6,0-5,0.8-7.1,2.1
		c-4,2.6-6.7,7.3-6.7,12.3c0,0.8,0.1,0.5,0.2,3.1h6.5h40h4.2h1.6h19.9C210.1,943.2,204.2,937.3,196.9,937.3z"/>
	<path fill="#5A6378" d="M54.4,951.4H39.6v-58.1c0-0.5,0.4-0.9,0.9-0.9h13c0.5,0,0.9,0.4,0.9,0.9L54.4,951.4L54.4,951.4z"/>
	<g id="XMLID_30_">
		<g>
			<rect x="24.9" y="928.6" fill="#F5F5F5" width="2.5" height="2.5"/>
			<rect x="24.9" y="925" fill="#F5F5F5" width="2.5" height="2.5"/>
			<rect x="24.9" y="921.3" fill="#F5F5F5" width="2.5" height="2.5"/>
			<polygon fill="#F5F5F5" points="27.3,918.8 27.3,920 24.9,920 24.9,917.6 27.3,917.6 			"/>
			<polygon fill="#F5F5F5" points="27.3,915.1 27.3,916.4 24.9,916.4 24.9,913.9 27.3,913.9 			"/>
			<rect x="21.2" y="928.6" fill="#F5F5F5" width="2.5" height="2.5"/>
			<rect x="21.2" y="925" fill="#F5F5F5" width="2.5" height="2.5"/>
			<rect x="21.2" y="921.3" fill="#F5F5F5" width="2.5" height="2.5"/>
			<rect x="21.2" y="917.6" fill="#F5F5F5" width="2.5" height="2.5"/>
			<rect x="21.2" y="913.9" fill="#F5F5F5" width="2.5" height="2.5"/>
			<rect x="17.5" y="928.6" fill="#F5F5F5" width="2.5" height="2.5"/>
			<rect x="17.5" y="925" fill="#F5F5F5" width="2.5" height="2.5"/>
			<rect x="17.5" y="921.3" fill="#F5F5F5" width="2.5" height="2.5"/>
			<rect x="17.5" y="917.6" fill="#F5F5F5" width="2.5" height="2.5"/>
			<rect x="17.5" y="913.9" fill="#F5F5F5" width="2.5" height="2.5"/>
		</g>
	</g>
	<g>
		<rect x="42.1" y="902" fill="#F5F5F5" width="9.8" height="2.5"/>
		<rect x="42.1" y="905.6" fill="#F5F5F5" width="9.8" height="2.5"/>
		<rect x="42.1" y="909.3" fill="#F5F5F5" width="9.8" height="2.5"/>
		<rect x="42.1" y="913" fill="#F5F5F5" width="9.8" height="2.5"/>
		<rect x="42.1" y="916.7" fill="#F5F5F5" width="9.8" height="2.5"/>
		<rect x="42.1" y="920.4" fill="#F5F5F5" width="9.8" height="2.5"/>
		<rect x="42.1" y="924.1" fill="#F5F5F5" width="9.8" height="2.5"/>
		<rect x="42.1" y="927.7" fill="#F5F5F5" width="9.8" height="2.5"/>
		<rect x="42.1" y="898.3" fill="#F5F5F5" width="9.8" height="2.5"/>
	</g>
	<rect x="20" y="933.9" fill="#28A197" width="25.8" height="17.2"/>
	<rect x="22.4" y="938.8" fill="#F5F5F5" width="20.9" height="12.3"/>
	<rect x="22.4" y="937.5" fill="#5A6378" width="20.9" height="13.9"/>
	<path fill="#28A197" d="M89.6,951.5v-60.2c0-0.5-0.4-0.9-0.9-0.9H72.8c-0.5,0-0.9,0.4-0.9,0.9v60.2H89.6L89.6,951.5z"/>
	<path fill="#5A6378" d="M73.3,916H54.1v35.3h20.2v-34.4C74.2,916.4,73.8,916,73.3,916z"/>
	<g>
		<rect x="67.5" y="930" fill="#F5F5F5" width="3.2" height="3.2"/>
		<rect x="67.5" y="925.2" fill="#F5F5F5" width="3.2" height="3.2"/>
		<rect x="67.5" y="920.4" fill="#F5F5F5" width="3.2" height="3.2"/>
		<rect x="62.7" y="930" fill="#F5F5F5" width="3.2" height="3.2"/>
		<rect x="62.7" y="925.2" fill="#F5F5F5" width="3.2" height="3.2"/>
		<rect x="62.7" y="920.4" fill="#F5F5F5" width="3.2" height="3.2"/>
		<rect x="57.9" y="930" fill="#F5F5F5" width="3.2" height="3.2"/>
		<rect x="57.9" y="925.2" fill="#F5F5F5" width="3.2" height="3.2"/>
		<rect x="57.9" y="920.4" fill="#F5F5F5" width="3.2" height="3.2"/>
	</g>
	<g display="none">
		<path display="inline" fill="#5A6378" d="M92.6,900.9c-0.1-0.9-0.3-2.9-0.5-2.9s-0.4,2-0.5,2.9c0.1-0.1,0.3-0.2,0.5-0.2
			S92.5,900.8,92.6,900.9z"/>
		<circle display="inline" fill="#5A6378" cx="92.1" cy="901.5" r="0.5"/>
		<path display="inline" fill="#5A6378" d="M92.9,901.4c0,0,0,0.1,0,0.1c0,0.4-0.2,0.6-0.5,0.7c0.8,0.4,2.6,1.2,2.7,1
			C95.2,903.1,93.6,901.9,92.9,901.4z"/>
		<path display="inline" fill="#5A6378" d="M91.3,901.5c0,0,0-0.1,0-0.1c-0.7,0.5-2.3,1.7-2.2,1.9c0.1,0.2,2-0.6,2.7-1l-0.2,4.1h1.1
			l-0.2-4.1c-0.1,0-0.2,0.1-0.3,0.1C91.6,902.3,91.3,902,91.3,901.5z"/>
		<path display="inline" fill="#5A6378" d="M92.4,902.3L92.4,902.3L92.4,902.3L92.4,902.3z"/>
	</g>
	<path fill="#5A6378" d="M393.4,945.3h23.1h1.8h4.9h46.4h7.5c0.2-3,0.3-2.6,0.3-3.6c0-5.8-3.1-11.2-7.8-14.3
		c-2.4-1.6-5.2-2.5-8.2-2.5c-3.7,0-7.2,1.3-9.9,3.5c-1.1,0.9-2.2,1.9-3,3.1c-0.1,0.1-0.1,0.1-0.2,0.2c-0.9-0.7-1.8-1.3-2.8-1.8
		c-1-0.5-2-0.9-3-1.2c-1.3-0.4-2.6-0.6-4.1-0.6c-6.1,0-11.3,3.4-14,8.4c-0.3,0.5-0.6,1.1-0.8,1.6c-0.6-1.3-1.3-2.5-2.2-3.5
		c-0.9-1-1.9-1.9-3-2.6c-0.9-0.6-1.9-1.1-3-1.5c-1.9-0.7-4-1.1-6.2-1.1C400.6,929.5,393.7,936.3,393.4,945.3z"/>
	<rect y="917.6" fill="#5A6378" width="16.3" height="43.7"/>
	<path fill="#5A6378" d="M89,951.2h14.2c0.5,0,0.9-0.4,0.9-0.9v-43.1c0-0.5-0.4-0.9-0.9-0.9H89c-0.5,0-0.9,0.4-0.9,0.9v43.1
		C88.1,950.8,88.5,951.2,89,951.2z"/>
	<g id="XMLID_29_">
		<g>
			<rect x="83.2" y="926.3" fill="#F5F5F5" width="1.6" height="2.8"/>
			<rect x="83.2" y="922.2" fill="#F5F5F5" width="1.6" height="2.8"/>
			<rect x="83.2" y="918.1" fill="#F5F5F5" width="1.6" height="2.8"/>
			<rect x="83.2" y="913.9" fill="#F5F5F5" width="1.6" height="2.8"/>
			<rect x="83.2" y="909.8" fill="#F5F5F5" width="1.6" height="2.8"/>
			<rect x="83.2" y="905.7" fill="#F5F5F5" width="1.6" height="2.8"/>
			<rect x="83.2" y="901.6" fill="#F5F5F5" width="1.6" height="2.8"/>
			<rect x="83.2" y="896.1" fill="#F5F5F5" width="1.6" height="4.1"/>
			<rect x="80" y="926.3" fill="#F5F5F5" width="1.6" height="2.8"/>
			<rect x="80" y="922.2" fill="#F5F5F5" width="1.6" height="2.8"/>
			<rect x="80" y="918.1" fill="#F5F5F5" width="1.6" height="2.8"/>
			<rect x="80" y="913.9" fill="#F5F5F5" width="1.6" height="2.8"/>
			<rect x="80" y="909.8" fill="#F5F5F5" width="1.6" height="2.8"/>
			<rect x="80" y="905.7" fill="#F5F5F5" width="1.6" height="2.8"/>
			<rect x="80" y="901.6" fill="#F5F5F5" width="1.6" height="2.8"/>
			<rect x="80" y="896.1" fill="#F5F5F5" width="1.6" height="4.1"/>
			<rect x="76.7" y="926.3" fill="#F5F5F5" width="1.6" height="2.8"/>
			<rect x="76.7" y="922.2" fill="#F5F5F5" width="1.6" height="2.8"/>
			<rect x="76.7" y="918.1" fill="#F5F5F5" width="1.6" height="2.8"/>
			<rect x="76.7" y="913.9" fill="#F5F5F5" width="1.6" height="2.8"/>
			<rect x="76.7" y="909.8" fill="#F5F5F5" width="1.6" height="2.8"/>
			<rect x="76.7" y="905.7" fill="#F5F5F5" width="1.6" height="2.8"/>
			<rect x="76.7" y="901.6" fill="#F5F5F5" width="1.6" height="2.8"/>
			<rect x="76.7" y="896.1" fill="#F5F5F5" width="1.6" height="4.1"/>
		</g>
	</g>
	<g id="XMLID_28_">
		<g>
			<rect x="99.3" y="929.1" fill="#F5F5F5" width="1.6" height="1.6"/>
			<rect x="99.3" y="924.3" fill="#F5F5F5" width="1.6" height="3.2"/>
			<rect x="99.3" y="919.5" fill="#F5F5F5" width="1.6" height="3.2"/>
			<rect x="99.3" y="914.7" fill="#F5F5F5" width="1.6" height="3.2"/>
			<rect x="99.3" y="909.9" fill="#F5F5F5" width="1.6" height="3.2"/>
			<rect x="94.5" y="929.1" fill="#F5F5F5" width="3.2" height="1.6"/>
			<rect x="94.5" y="924.3" fill="#F5F5F5" width="3.2" height="3.2"/>
			<rect x="94.5" y="919.5" fill="#F5F5F5" width="3.2" height="3.2"/>
			<rect x="94.5" y="914.7" fill="#F5F5F5" width="3.2" height="3.2"/>
			<rect x="94.5" y="909.9" fill="#F5F5F5" width="3.2" height="3.2"/>
			<rect x="91.3" y="929.1" fill="#F5F5F5" width="1.6" height="1.6"/>
			<rect x="91.3" y="924.3" fill="#F5F5F5" width="1.6" height="3.2"/>
			<rect x="91.3" y="919.5" fill="#F5F5F5" width="1.6" height="3.2"/>
			<rect x="91.3" y="914.7" fill="#F5F5F5" width="1.6" height="3.2"/>
			<rect x="91.3" y="909.9" fill="#F5F5F5" width="1.6" height="3.2"/>
		</g>
	</g>
	<g>
		<g>
			<g>
				<defs>
					<rect id="SVGID_1_" x="55" y="931.5" width="55" height="20.1"/>
				</defs>
				<clipPath id="SVGID_2_">
					<use xlink:href="#SVGID_1_"  overflow="visible"/>
				</clipPath>
				<g clip-path="url(#SVGID_2_)">
					<path fill="#AAD7D3" d="M80.7,967.5c-9.2,0-16.7-7.5-16.7-16.7c0-9.2,7.5-16.7,16.7-16.7s16.7,7.5,16.7,16.7
						C97.4,960.1,89.9,967.5,80.7,967.5z"/>
					<path fill="#F5F5F5" d="M80.7,935.1c8.7,0,15.8,7.1,15.8,15.8s-7.1,15.8-15.8,15.8S65,959.6,65,950.9S72,935.1,80.7,935.1
						 M80.7,933.3c-9.7,0-17.5,7.9-17.5,17.5c0,9.7,7.9,17.5,17.5,17.5s17.5-7.9,17.5-17.5C98.3,941.2,90.4,933.3,80.7,933.3
						L80.7,933.3z"/>
				</g>
			</g>
		</g>
	</g>
	<g>
		<circle fill="#5A6378" cx="180.1" cy="927.3" r="12.2"/>
		<g id="XMLID_27_">
			<g>
				<path fill="#AAD7D3" d="M186.5,930.9c0,0.2,0.2,2.4-1.1,3.7c-0.6,0.6-1.4,0.9-2.3,0.9h-0.3H181v3.5v0.9v0.9v10h-0.5h-1.3V941
					v-0.9v-0.9v-9.1h-1.8h-0.7c-2.2,0-3-1.9-3-3.2v-4.1c0-0.5,0.4-0.9,0.9-0.9c0.5,0,0.9,0.4,0.9,0.9v4.1c0,0.3,0.1,1.3,1.1,1.3h0.7
					h1.8v-5.5c0-0.1,0-0.2,0.1-0.4c0.1-0.3,0.5-0.6,0.8-0.6c0.5,0,0.9,0.4,0.9,0.9v10.9h1.8h0.3c0.4,0,0.7-0.1,0.9-0.4
					c0.6-0.6,0.6-2,0.6-2.4v-4.5c0-0.5,0.4-0.9,0.9-0.9s0.9,0.4,0.9,0.9L186.5,930.9L186.5,930.9z"/>
			</g>
		</g>
	</g>
	<g display="none">
		<path display="inline" fill="#5A6378" d="M100.6,900.9c-0.1-0.9-0.3-2.9-0.5-2.9c-0.2,0-0.4,2-0.5,2.9c0.1-0.1,0.3-0.2,0.5-0.2
			S100.5,900.8,100.6,900.9z"/>
		<circle display="inline" fill="#5A6378" cx="100.1" cy="901.5" r="0.5"/>
		<path display="inline" fill="#5A6378" d="M100.9,901.4c0,0,0,0.1,0,0.1c0,0.4-0.2,0.6-0.5,0.7c0.8,0.4,2.6,1.2,2.7,1
			C103.3,903.1,101.6,901.9,100.9,901.4z"/>
		<path display="inline" fill="#5A6378" d="M99.3,901.5c0,0,0-0.1,0-0.1c-0.7,0.5-2.3,1.7-2.2,1.9c0.1,0.2,2-0.6,2.7-1l-0.2,4.1h1.1
			l-0.2-4.1c-0.1,0-0.2,0.1-0.3,0.1C99.6,902.3,99.3,902,99.3,901.5z"/>
		<path display="inline" fill="#5A6378" d="M100.4,902.3L100.4,902.3L100.4,902.3L100.4,902.3z"/>
	</g>
	<g display="none">
		<rect x="73.3" y="888" display="inline" fill="#F5F5F5" width="1.4" height="1.4"/>
		<rect x="73.3" y="884" display="inline" fill="#F5F5F5" width="1.4" height="1.4"/>
		<rect x="75.3" y="888" display="inline" fill="#F5F5F5" width="1.4" height="1.4"/>
		<rect x="73.3" y="886" display="inline" fill="#F5F5F5" width="1.4" height="1.4"/>
		<rect x="75.3" y="886" display="inline" fill="#F5F5F5" width="1.4" height="1.4"/>
		<rect x="75.3" y="884" display="inline" fill="#F5F5F5" width="1.4" height="1.4"/>
		<path display="inline" fill="#28A197" d="M75.1,883.5h-0.3h-2v2v0.3v1.7v0.3v2h2h0.3h2v-2v-0.3v-1.7v-0.3v-2H75.1z M74.7,885.4
			h-1.4V884h1.4V885.4z M74.7,887.4h-1.4V886h1.4V887.4z M74.7,889.4h-1.4V888h1.4V889.4z M76.7,885.4h-1.4V884h1.4V885.4z
			 M76.7,887.4h-1.4V886h1.4V887.4z M76.7,889.4h-1.4V888h1.4V889.4z"/>
		<rect x="73.3" y="889.4" display="inline" fill="#28A197" width="3.4" height="1"/>
	</g>
	<g display="none">
		<path display="inline" fill="#28A197" d="M81.3,884.1c-0.1-0.9-0.3-2.9-0.5-2.9c-0.2,0-0.4,2-0.5,2.9c0.1-0.1,0.3-0.2,0.5-0.2
			C80.9,883.9,81.1,884,81.3,884.1z"/>
		<circle display="inline" fill="#28A197" cx="80.8" cy="884.7" r="0.5"/>
		<path display="inline" fill="#28A197" d="M81.6,884.6c0,0,0,0.1,0,0.1c0,0.4-0.2,0.6-0.5,0.8c0.8,0.4,2.6,1.2,2.7,1
			C83.9,886.3,82.2,885.1,81.6,884.6z"/>
		<path display="inline" fill="#28A197" d="M79.9,884.7c0,0,0-0.1,0-0.1c-0.7,0.5-2.3,1.7-2.2,1.9c0.1,0.2,2-0.6,2.7-1l-0.2,5.8h1.1
			l-0.2-5.8c-0.1,0-0.2,0.1-0.3,0.1C80.3,885.5,79.9,885.2,79.9,884.7z"/>
		<path display="inline" fill="#28A197" d="M81.1,885.5L81.1,885.5L81.1,885.5L81.1,885.5z"/>
	</g>
	<g display="none">
		<rect x="84.8" y="888" display="inline" fill="#F5F5F5" width="1.4" height="1.4"/>
		<rect x="84.8" y="884" display="inline" fill="#F5F5F5" width="1.4" height="1.4"/>
		<rect x="86.8" y="888" display="inline" fill="#F5F5F5" width="1.4" height="1.4"/>
		<rect x="84.8" y="886" display="inline" fill="#F5F5F5" width="1.4" height="1.4"/>
		<rect x="86.8" y="886" display="inline" fill="#F5F5F5" width="1.4" height="1.4"/>
		<rect x="86.8" y="884" display="inline" fill="#F5F5F5" width="1.4" height="1.4"/>
		<path display="inline" fill="#28A197" d="M86.7,883.5h-0.3h-2v2v0.3v1.7v0.3v2h2h0.3h2v-2v-0.3v-1.7v-0.3v-2H86.7z M86.2,885.4
			h-1.4V884h1.4V885.4z M86.2,887.4h-1.4V886h1.4V887.4z M86.2,889.4h-1.4V888h1.4V889.4z M88.2,885.4h-1.4V884h1.4V885.4z
			 M88.2,887.4h-1.4V886h1.4V887.4z M88.2,889.4h-1.4V888h1.4V889.4z"/>
		<rect x="84.8" y="889.4" display="inline" fill="#28A197" width="3.4" height="1"/>
	</g>
	<rect y="950.6" fill="#AAD7D3" width="595.3" height="39.1"/>
	<path fill="#F5F5F5" d="M0,964.4c0,0,64.4-0.1,186.2,0.1c93.9,0.1,300,8.1,409.1,18.5c0,10.9,0,35.9,0,35.9H0V964.4z"/>
	<path display="none" fill="#F5F5F5" d="M22.5,961.4c0,0.2,0,1.3,0,1.3c0,0.2,0.3,0.5,0.5,0.7c0.2,0.6,0.7,1,1.3,1
		c0.6,0,1.1-0.4,1.3-0.9H30c0.2,0.5,0.7,0.9,1.3,0.9s1.1-0.4,1.3-0.9h0.3c0.2,0,0.7-0.5,0.7-0.7c0,0,0-1.4,0-1.6
		c0-0.4-0.2-0.6-1.4-0.9c-0.2-0.3-1-1.3-1.2-1.6c-0.2-0.3-0.3-0.3-0.6-0.3s-2.9,0-3,0c-0.1,0-0.3,0-0.6,0.3c-0.4,0.4-1.1,1-2,1.9
		C23.2,960.9,22.5,961.1,22.5,961.4z M31.2,960.7c-0.1,0-1.1,0-2.1,0v-1.6c0.5,0,1,0,1.1,0c0.2,0,0.3,0.1,0.4,0.2
		c0.1,0.1,0.5,0.7,0.7,0.9C31.5,960.6,31.4,960.7,31.2,960.7z M30.6,963c0-0.4,0.3-0.7,0.7-0.7c0.4,0,0.7,0.3,0.7,0.7
		s-0.3,0.7-0.7,0.7C30.9,963.7,30.6,963.4,30.6,963z M25.9,960.7c-0.2,0-0.3,0,0-0.3c0.3-0.3,1-0.9,1.2-1.1c0.1-0.1,0.3-0.2,0.5-0.2
		c0,0,0.7,0,1.4,0v1.6C27.5,960.7,25.9,960.7,25.9,960.7z M23.7,963c0-0.4,0.3-0.7,0.7-0.7c0.4,0,0.7,0.3,0.7,0.7s-0.3,0.7-0.7,0.7
		C24,963.7,23.7,963.4,23.7,963z"/>
	<path display="none" fill="#F5F5F5" d="M46.3,960.3v2.4c0,0.2,0.1,0.3,0.3,0.3h0.6c0,0.8,0.6,1.4,1.4,1.4c0.8,0,1.4-0.6,1.4-1.4
		l0,0h0.6c0.2,0,0.3-0.1,0.3-0.3l0-5c0-0.2-0.1-0.3-0.3-0.3l0,0h-1.1h-1.3c-0.1,0-0.2,0-0.3,0.1l-1.7,2.6
		C46.3,960.1,46.3,960.2,46.3,960.3C46.3,960.3,46.3,960.3,46.3,960.3z M47.2,960.2l1.3-1.9h1.2v1.9H47.2z M48,963
		c0-0.4,0.3-0.7,0.7-0.7s0.7,0.3,0.7,0.7c0,0.4-0.3,0.7-0.7,0.7C48.3,963.7,48,963.4,48,963z M51.5,956.8l0,5.8
		c0,0.2,0.2,0.4,0.4,0.4h1.5c0,0.8,0.6,1.4,1.4,1.4c0.8,0,1.4-0.6,1.4-1.4h1c0.2,0,0.4-0.2,0.4-0.4l0-5.8c0-0.2-0.2-0.4-0.4-0.4
		l-5.3,0C51.7,956.4,51.5,956.6,51.5,956.8z M54.1,963c0-0.4,0.3-0.7,0.7-0.7s0.7,0.3,0.7,0.7c0,0.4-0.3,0.7-0.7,0.7
		S54.1,963.4,54.1,963z"/>
	<g display="none">
		<path display="inline" fill="#F5F5F5" d="M141.2,963.2c0,0.7,0.6,1.2,1.2,1.2c0.7,0,1.2-0.6,1.2-1.2c0-0.7-0.6-1.2-1.2-1.2
			C141.8,962,141.2,962.6,141.2,963.2z M141.8,963.2c0-0.4,0.3-0.7,0.7-0.7s0.7,0.3,0.7,0.7c0,0.4-0.3,0.7-0.7,0.7
			S141.8,963.6,141.8,963.2z"/>
		<path display="inline" fill="#F5F5F5" d="M137.7,963.2c0,0.7,0.6,1.2,1.2,1.2c0.7,0,1.2-0.6,1.2-1.2c0-0.7-0.6-1.2-1.2-1.2
			C138.3,962,137.7,962.6,137.7,963.2z M138.3,963.2c0-0.4,0.3-0.7,0.7-0.7c0.4,0,0.7,0.3,0.7,0.7c0,0.4-0.3,0.7-0.7,0.7
			S138.3,963.6,138.3,963.2z"/>
		<path display="inline" fill="#F5F5F5" d="M140.3,962.3v1.5c0,0.2,0.2,0.4,0.4,0.4s0.4-0.2,0.4-0.4v-1.3l0.8-0.7
			c0.1-0.1,0.1-0.2,0.1-0.3c0-0.1,0-0.2-0.1-0.3l-1.4-1.3c-0.1-0.1-0.2-0.1-0.3-0.1c-0.1,0-0.2,0.1-0.3,0.2l-0.5,0.7l-0.5,0
			c-0.2,0-0.4,0.2-0.4,0.4s0.2,0.4,0.4,0.4l0.7,0c0.1,0,0.2-0.1,0.3-0.2l0.3-0.5l0.7,0.7l-0.7,0.6
			C140.4,962,140.3,962.2,140.3,962.3z"/>
		<circle display="inline" fill="#F5F5F5" cx="139.5" cy="959.4" r="0.5"/>
	</g>
	<path display="none" fill="#F5F5F5" d="M70.7,961.4c0,0.2,0,1.3,0,1.3c0,0.2,0.3,0.5,0.5,0.7c0.2,0.6,0.7,1,1.3,1
		c0.6,0,1.1-0.4,1.3-0.9h4.3c0.2,0.5,0.7,0.9,1.3,0.9s1.1-0.4,1.3-0.9h0.3c0.2,0,0.7-0.5,0.7-0.7c0,0,0-1.4,0-1.6
		c0-0.4-0.2-0.6-1.4-0.9c-0.2-0.3-1-1.3-1.2-1.6c-0.2-0.3-0.3-0.3-0.6-0.3c-0.3,0-2.9,0-3,0c-0.1,0-0.3,0-0.6,0.3
		c-0.4,0.4-1.1,1-2,1.9C71.5,960.9,70.7,961.1,70.7,961.4z M79.5,960.7c-0.1,0-1.1,0-2.1,0v-1.6c0.5,0,1,0,1.1,0
		c0.2,0,0.3,0.1,0.4,0.2c0.1,0.1,0.5,0.7,0.7,0.9C79.8,960.6,79.7,960.7,79.5,960.7z M78.8,963c0-0.4,0.3-0.7,0.7-0.7
		s0.7,0.3,0.7,0.7s-0.3,0.7-0.7,0.7C79.2,963.7,78.8,963.4,78.8,963z M74.1,960.7c-0.2,0-0.3,0,0-0.3c0.3-0.3,1-0.9,1.2-1.1
		c0.1-0.1,0.3-0.2,0.5-0.2c0,0,0.7,0,1.4,0v1.6C75.7,960.7,74.1,960.7,74.1,960.7z M71.9,963c0-0.4,0.3-0.7,0.7-0.7s0.7,0.3,0.7,0.7
		s-0.3,0.7-0.7,0.7C72.2,963.7,71.9,963.4,71.9,963z"/>
	<g display="none">
		<path display="inline" fill="#D53A81" d="M78.9,953.2c0.2,0.1,0.5,0.2,0.8,0.2c0.6,0,1.3-0.4,1.6-1c0.1-0.1,0.1-0.2,0.1-0.4
			l1.8-7.6l0.7-2.9l0.4-1.8c0-0.2-0.1-0.4-0.3-0.4c-0.1,0-0.2,0-0.2,0.2l-0.8,1.7l-1.2,2.5l-3.5,7.1C77.7,951.7,78,952.8,78.9,953.2
			z"/>
		<g id="XMLID_26_" display="inline">
			<g>
				<path fill="#AAD7D3" d="M79.7,950.7c0.5,0,0.8,0.4,0.8,0.8s-0.4,0.8-0.8,0.8c-0.5,0-0.8-0.4-0.8-0.8S79.2,950.7,79.7,950.7z"/>
			</g>
		</g>
	</g>
	<path display="none" fill="#28A197" d="M83.5,890.4H78v-2c0-0.2,0.2-0.4,0.4-0.4h4.7c0.2,0,0.4,0.2,0.4,0.4L83.5,890.4L83.5,890.4z
		"/>
	<circle display="none" fill="#F5F5F5" cx="79.4" cy="889.3" r="0.9"/>
	<circle display="none" fill="#F5F5F5" cx="82.1" cy="889.3" r="0.9"/>
	<path display="none" fill="#28A197" d="M80.1,889.6l-0.4-0.2c0,0,0,0,0,0c0-0.1-0.1-0.2-0.2-0.2v-0.5c0-0.1,0-0.1-0.1-0.1
		c-0.1,0-0.1,0-0.1,0.1v0.5c-0.1,0-0.2,0.1-0.2,0.2c0,0,0,0,0,0l-0.4,0.2c0,0-0.1,0.1,0,0.1c0,0,0.1,0,0.1,0c0,0,0,0,0,0l0.4-0.2
		c0,0,0.1,0.1,0.2,0.1s0.1,0,0.2-0.1l0.4,0.2c0,0,0,0,0,0c0,0,0.1,0,0.1,0C80.2,889.7,80.2,889.6,80.1,889.6z"/>
	<path display="none" fill="#28A197" d="M82.8,889.6l-0.4-0.2c0,0,0,0,0,0c0-0.1-0.1-0.2-0.2-0.2v-0.5c0-0.1,0-0.1-0.1-0.1
		c-0.1,0-0.1,0-0.1,0.1v0.5c-0.1,0-0.2,0.1-0.2,0.2c0,0,0,0,0,0l-0.4,0.2c0,0-0.1,0.1,0,0.1c0,0,0.1,0,0.1,0c0,0,0,0,0,0l0.4-0.2
		c0,0,0.1,0.1,0.2,0.1s0.1,0,0.2-0.1l0.4,0.2c0,0,0,0,0,0c0,0,0.1,0,0.1,0C82.8,889.7,82.8,889.6,82.8,889.6z"/>
	<g display="none">
		<path display="inline" fill="#5A6378" d="M540.8,933.1v-6.5c0-0.6-0.7-0.9-1.1-0.6l-9.4,7v-6.5c0-0.6-0.7-0.9-1.1-0.6l-9.4,7l0-25
			h-8.4v43.3h8.4h31.5v-24.8c0-0.6-0.7-0.9-1.1-0.6L540.8,933.1z"/>
	</g>
	<g display="none">
		<path display="inline" fill="#5A6378" d="M498,933.1v-6.5c0-0.6-0.7-0.9-1.1-0.6l-9.4,7v-6.5c0-0.6-0.7-0.9-1.1-0.6l-9.4,7l0-25
			h-8.4v43.3h8.4h31.5v-24.8c0-0.6-0.7-0.9-1.1-0.6L498,933.1z"/>
	</g>
	<path fill="#AAD7D3" d="M538.5,941.7c-1.9,0-3.7,0.3-5.4,1c-0.9,0.3-1.8,0.8-2.6,1.3c-1,0.6-1.8,1.4-2.6,2.3
		c-0.8,0.9-1.4,1.9-1.9,3.1c-0.2-0.5-0.4-0.9-0.7-1.4c-2.3-4.3-6.9-7.3-12.1-7.3c-1.2,0-2.4,0.2-3.5,0.5c-0.9,0.2-1.8,0.6-2.6,1
		c-0.9,0.4-1.7,0.9-2.4,1.5c0-0.1-0.1-0.1-0.1-0.2c-0.7-1-1.6-1.9-2.6-2.7c-2.3-1.9-5.3-3-8.5-3c-2.6,0-5,0.8-7.1,2.1
		c-4,2.6-6.7,7.3-6.7,12.3c0,0.8,0.1,0.5,0.2,3.1h6.5h40h4.2h1.6h19.9C551.7,947.5,545.8,941.7,538.5,941.7z"/>
	<path fill="#5A6378" d="M344.7,951h19.9h1.6h4.2h40h6.5c0.1-2.6,0.2-2.3,0.2-3.1c0-5-2.7-9.7-6.7-12.3c-2.1-1.3-4.5-2.1-7.1-2.1
		c-3.2,0-6.2,1.1-8.5,3c-1,0.8-1.9,1.7-2.6,2.7c0,0.1-0.1,0.1-0.1,0.2c-0.8-0.6-1.6-1.1-2.4-1.5c-0.8-0.4-1.7-0.7-2.6-1
		c-1.1-0.3-2.3-0.5-3.5-0.5c-5.2,0-9.8,2.9-12.1,7.3c-0.2,0.5-0.5,0.9-0.7,1.4c-0.5-1.1-1.1-2.2-1.9-3.1c-0.7-0.9-1.6-1.6-2.6-2.3
		c-0.8-0.5-1.7-1-2.6-1.3c-1.6-0.6-3.5-1-5.4-1C350.9,937.3,345,943.2,344.7,951z"/>
	<g>
		<circle fill="#5A6378" cx="394.4" cy="927.3" r="12.2"/>
		<g id="XMLID_25_">
			<g>
				<path fill="#AAD7D3" d="M400.8,930.9c0,0.2,0.2,2.4-1.1,3.7c-0.6,0.6-1.4,0.9-2.3,0.9h-0.3h-1.8v3.5v0.9v0.9v10h-0.5h-1.3V941
					v-0.9v-0.9v-9.1h-1.8H391c-2.2,0-3-1.9-3-3.2v-4.1c0-0.5,0.4-0.9,0.9-0.9c0.5,0,0.9,0.4,0.9,0.9v4.1c0,0.3,0.1,1.3,1.1,1.3h0.7
					h1.8v-5.5c0-0.1,0-0.2,0.1-0.4c0.1-0.3,0.5-0.6,0.8-0.6c0.5,0,0.9,0.4,0.9,0.9v10.9h1.8h0.3c0.4,0,0.7-0.1,0.9-0.4
					c0.6-0.6,0.6-2,0.6-2.4v-4.5c0-0.5,0.4-0.9,0.9-0.9c0.5,0,0.9,0.4,0.9,0.9L400.8,930.9L400.8,930.9z"/>
			</g>
		</g>
	</g>
	<g display="none">
		<g display="inline">
			<g>
				<g>
					<g id="XMLID_112_">
						<g>
							<path fill="#AAD7D3" d="M389.4,950.8L389.4,950.8h-0.3v-5.2c0,0,0,0,0-0.1c0-0.1,0.1-0.1,0.1-0.1c0.1,0,0.1,0.1,0.1,0.2
								L389.4,950.8L389.4,950.8z"/>
						</g>
					</g>
				</g>
				<path fill="#AAD7D3" d="M388.9,948c0.3,0.3,0.2,0.8,0.2,0.8s-0.5,0-0.7-0.3c-0.3-0.3-0.2-0.8-0.2-0.8S388.7,947.7,388.9,948z"/>
				<path fill="#AAD7D3" d="M389.6,945.1c0,0.4-0.3,0.7-0.3,0.7s-0.3-0.3-0.4-0.7s0.3-0.7,0.3-0.7S389.6,944.7,389.6,945.1z"/>
				<path fill="#AAD7D3" d="M389.6,948c-0.3,0.3-0.2,0.8-0.2,0.8s0.5,0,0.7-0.3c0.3-0.3,0.2-0.8,0.2-0.8S389.8,947.7,389.6,948z"/>
				<path fill="#AAD7D3" d="M388.9,945.8c0.3,0.3,0.2,0.8,0.2,0.8s-0.5,0-0.7-0.3c-0.3-0.3-0.2-0.8-0.2-0.8S388.7,945.5,388.9,945.8
					z"/>
				<path fill="#AAD7D3" d="M389.6,945.8c-0.3,0.3-0.2,0.8-0.2,0.8s0.5,0,0.7-0.3c0.3-0.3,0.2-0.8,0.2-0.8S389.8,945.5,389.6,945.8z
					"/>
				<path fill="#AAD7D3" d="M388.9,946.9c0.3,0.3,0.2,0.8,0.2,0.8s-0.5,0-0.7-0.3c-0.3-0.3-0.2-0.8-0.2-0.8S388.7,946.6,388.9,946.9
					z"/>
				<path fill="#AAD7D3" d="M389.6,946.9c-0.3,0.3-0.2,0.8-0.2,0.8s0.5,0,0.7-0.3c0.3-0.3,0.2-0.8,0.2-0.8S389.8,946.6,389.6,946.9z
					"/>
				<path fill="#AAD7D3" d="M388.9,949c0.3,0.3,0.2,0.8,0.2,0.8s-0.5,0-0.7-0.3c-0.3-0.3-0.2-0.8-0.2-0.8S388.7,948.7,388.9,949z"/>
				<path fill="#AAD7D3" d="M389.6,949c-0.3,0.3-0.2,0.8-0.2,0.8s0.5,0,0.7-0.3c0.3-0.3,0.2-0.8,0.2-0.8S389.8,948.7,389.6,949z"/>
			</g>
		</g>
		<g display="inline">
			<g>
				<g>
					<g id="XMLID_109_">
						<g>
							<path fill="#AAD7D3" d="M385.2,950.8L385.2,950.8h-0.3v-5.2c0,0,0,0,0-0.1c0-0.1,0.1-0.1,0.1-0.1c0.1,0,0.1,0.1,0.1,0.2
								L385.2,950.8L385.2,950.8z"/>
						</g>
					</g>
				</g>
				<path fill="#AAD7D3" d="M384.8,948c0.3,0.3,0.2,0.8,0.2,0.8s-0.5,0-0.7-0.3c-0.3-0.3-0.2-0.8-0.2-0.8S384.5,947.7,384.8,948z"/>
				<path fill="#AAD7D3" d="M385.4,945.1c0,0.4-0.3,0.7-0.3,0.7s-0.3-0.3-0.4-0.7s0.3-0.7,0.3-0.7S385.4,944.7,385.4,945.1z"/>
				<path fill="#AAD7D3" d="M385.4,948c-0.3,0.3-0.2,0.8-0.2,0.8s0.5,0,0.7-0.3c0.3-0.3,0.2-0.8,0.2-0.8S385.7,947.7,385.4,948z"/>
				<path fill="#AAD7D3" d="M384.8,945.8c0.3,0.3,0.2,0.8,0.2,0.8s-0.5,0-0.7-0.3c-0.3-0.3-0.2-0.8-0.2-0.8S384.5,945.5,384.8,945.8
					z"/>
				<path fill="#AAD7D3" d="M385.4,945.8c-0.3,0.3-0.2,0.8-0.2,0.8s0.5,0,0.7-0.3c0.3-0.3,0.2-0.8,0.2-0.8S385.7,945.5,385.4,945.8z
					"/>
				<path fill="#AAD7D3" d="M384.8,946.9c0.3,0.3,0.2,0.8,0.2,0.8s-0.5,0-0.7-0.3c-0.3-0.3-0.2-0.8-0.2-0.8S384.5,946.6,384.8,946.9
					z"/>
				<path fill="#AAD7D3" d="M385.4,946.9c-0.3,0.3-0.2,0.8-0.2,0.8s0.5,0,0.7-0.3c0.3-0.3,0.2-0.8,0.2-0.8S385.7,946.6,385.4,946.9z
					"/>
				<path fill="#AAD7D3" d="M384.8,949c0.3,0.3,0.2,0.8,0.2,0.8s-0.5,0-0.7-0.3c-0.3-0.3-0.2-0.8-0.2-0.8S384.5,948.7,384.8,949z"/>
				<path fill="#AAD7D3" d="M385.4,949c-0.3,0.3-0.2,0.8-0.2,0.8s0.5,0,0.7-0.3c0.3-0.3,0.2-0.8,0.2-0.8S385.7,948.7,385.4,949z"/>
			</g>
		</g>
		<g display="inline">
			<g>
				<g>
					<g id="XMLID_106_">
						<g>
							<path fill="#AAD7D3" d="M381.1,950.8L381.1,950.8h-0.3v-5.2c0,0,0,0,0-0.1c0-0.1,0.1-0.1,0.1-0.1c0.1,0,0.1,0.1,0.1,0.2
								L381.1,950.8L381.1,950.8z"/>
						</g>
					</g>
				</g>
				<path fill="#AAD7D3" d="M380.6,948c0.3,0.3,0.2,0.8,0.2,0.8s-0.5,0-0.7-0.3c-0.3-0.3-0.2-0.8-0.2-0.8S380.3,947.7,380.6,948z"/>
				<path fill="#AAD7D3" d="M381.3,945.1c0,0.4-0.3,0.7-0.3,0.7s-0.3-0.3-0.4-0.7s0.3-0.7,0.3-0.7S381.3,944.7,381.3,945.1z"/>
				<path fill="#AAD7D3" d="M381.2,948c-0.3,0.3-0.2,0.8-0.2,0.8s0.5,0,0.7-0.3c0.3-0.3,0.2-0.8,0.2-0.8S381.5,947.7,381.2,948z"/>
				<path fill="#AAD7D3" d="M380.6,945.8c0.3,0.3,0.2,0.8,0.2,0.8s-0.5,0-0.7-0.3c-0.3-0.3-0.2-0.8-0.2-0.8S380.3,945.5,380.6,945.8
					z"/>
				<path fill="#AAD7D3" d="M381.2,945.8c-0.3,0.3-0.2,0.8-0.2,0.8s0.5,0,0.7-0.3c0.3-0.3,0.2-0.8,0.2-0.8S381.5,945.5,381.2,945.8z
					"/>
				<path fill="#AAD7D3" d="M380.6,946.9c0.3,0.3,0.2,0.8,0.2,0.8s-0.5,0-0.7-0.3c-0.3-0.3-0.2-0.8-0.2-0.8S380.3,946.6,380.6,946.9
					z"/>
				<path fill="#AAD7D3" d="M381.2,946.9c-0.3,0.3-0.2,0.8-0.2,0.8s0.5,0,0.7-0.3c0.3-0.3,0.2-0.8,0.2-0.8S381.5,946.6,381.2,946.9z
					"/>
				<path fill="#AAD7D3" d="M380.6,949c0.3,0.3,0.2,0.8,0.2,0.8s-0.5,0-0.7-0.3c-0.3-0.3-0.2-0.8-0.2-0.8S380.3,948.7,380.6,949z"/>
				<path fill="#AAD7D3" d="M381.2,949c-0.3,0.3-0.2,0.8-0.2,0.8s0.5,0,0.7-0.3c0.3-0.3,0.2-0.8,0.2-0.8S381.5,948.7,381.2,949z"/>
			</g>
		</g>
		<g display="inline">
			<g>
				<g>
					<g id="XMLID_103_">
						<g>
							<path fill="#AAD7D3" d="M376.9,950.8L376.9,950.8h-0.3v-5.2c0,0,0,0,0-0.1c0-0.1,0.1-0.1,0.1-0.1c0.1,0,0.1,0.1,0.1,0.2
								L376.9,950.8L376.9,950.8z"/>
						</g>
					</g>
				</g>
				<path fill="#AAD7D3" d="M376.4,948c0.3,0.3,0.2,0.8,0.2,0.8s-0.5,0-0.7-0.3c-0.3-0.3-0.2-0.8-0.2-0.8S376.2,947.7,376.4,948z"/>
				<path fill="#AAD7D3" d="M377.1,945.1c0,0.4-0.3,0.7-0.3,0.7s-0.3-0.3-0.4-0.7c0-0.4,0.3-0.7,0.3-0.7S377.1,944.7,377.1,945.1z"
					/>
				<path fill="#AAD7D3" d="M377.1,948c-0.3,0.3-0.2,0.8-0.2,0.8s0.5,0,0.7-0.3c0.3-0.3,0.2-0.8,0.2-0.8S377.3,947.7,377.1,948z"/>
				<path fill="#AAD7D3" d="M376.4,945.8c0.3,0.3,0.2,0.8,0.2,0.8s-0.5,0-0.7-0.3c-0.3-0.3-0.2-0.8-0.2-0.8S376.2,945.5,376.4,945.8
					z"/>
				<path fill="#AAD7D3" d="M377.1,945.8c-0.3,0.3-0.2,0.8-0.2,0.8s0.5,0,0.7-0.3c0.3-0.3,0.2-0.8,0.2-0.8S377.3,945.5,377.1,945.8z
					"/>
				<path fill="#AAD7D3" d="M376.4,946.9c0.3,0.3,0.2,0.8,0.2,0.8s-0.5,0-0.7-0.3c-0.3-0.3-0.2-0.8-0.2-0.8S376.2,946.6,376.4,946.9
					z"/>
				<path fill="#AAD7D3" d="M377.1,946.9c-0.3,0.3-0.2,0.8-0.2,0.8s0.5,0,0.7-0.3c0.3-0.3,0.2-0.8,0.2-0.8S377.3,946.6,377.1,946.9z
					"/>
				<path fill="#AAD7D3" d="M376.4,949c0.3,0.3,0.2,0.8,0.2,0.8s-0.5,0-0.7-0.3c-0.3-0.3-0.2-0.8-0.2-0.8S376.2,948.7,376.4,949z"/>
				<path fill="#AAD7D3" d="M377.1,949c-0.3,0.3-0.2,0.8-0.2,0.8s0.5,0,0.7-0.3c0.3-0.3,0.2-0.8,0.2-0.8S377.3,948.7,377.1,949z"/>
			</g>
		</g>
		<g display="inline">
			<g>
				<g>
					<g id="XMLID_100_">
						<g>
							<path fill="#AAD7D3" d="M372.7,950.8L372.7,950.8h-0.3v-5.2c0,0,0,0,0-0.1c0-0.1,0.1-0.1,0.1-0.1c0.1,0,0.1,0.1,0.1,0.2
								L372.7,950.8L372.7,950.8z"/>
						</g>
					</g>
				</g>
				<path fill="#AAD7D3" d="M372.3,948c0.3,0.3,0.2,0.8,0.2,0.8s-0.5,0-0.7-0.3c-0.3-0.3-0.2-0.8-0.2-0.8S372,947.7,372.3,948z"/>
				<path fill="#AAD7D3" d="M372.9,945.1c0,0.4-0.3,0.7-0.3,0.7s-0.3-0.3-0.4-0.7s0.3-0.7,0.3-0.7S372.9,944.7,372.9,945.1z"/>
				<path fill="#AAD7D3" d="M372.9,948c-0.3,0.3-0.2,0.8-0.2,0.8s0.5,0,0.7-0.3c0.3-0.3,0.2-0.8,0.2-0.8S373.2,947.7,372.9,948z"/>
				<path fill="#AAD7D3" d="M372.3,945.8c0.3,0.3,0.2,0.8,0.2,0.8s-0.5,0-0.7-0.3c-0.3-0.3-0.2-0.8-0.2-0.8S372,945.5,372.3,945.8z"
					/>
				<path fill="#AAD7D3" d="M372.9,945.8c-0.3,0.3-0.2,0.8-0.2,0.8s0.5,0,0.7-0.3c0.3-0.3,0.2-0.8,0.2-0.8S373.2,945.5,372.9,945.8z
					"/>
				<path fill="#AAD7D3" d="M372.3,946.9c0.3,0.3,0.2,0.8,0.2,0.8s-0.5,0-0.7-0.3c-0.3-0.3-0.2-0.8-0.2-0.8S372,946.6,372.3,946.9z"
					/>
				<path fill="#AAD7D3" d="M372.9,946.9c-0.3,0.3-0.2,0.8-0.2,0.8s0.5,0,0.7-0.3c0.3-0.3,0.2-0.8,0.2-0.8S373.2,946.6,372.9,946.9z
					"/>
				<path fill="#AAD7D3" d="M372.3,949c0.3,0.3,0.2,0.8,0.2,0.8s-0.5,0-0.7-0.3c-0.3-0.3-0.2-0.8-0.2-0.8S372,948.7,372.3,949z"/>
				<path fill="#AAD7D3" d="M372.9,949c-0.3,0.3-0.2,0.8-0.2,0.8s0.5,0,0.7-0.3c0.3-0.3,0.2-0.8,0.2-0.8S373.2,948.7,372.9,949z"/>
			</g>
		</g>
		<g display="inline">
			<g>
				<g>
					<g id="XMLID_97_">
						<g>
							<path fill="#AAD7D3" d="M368.5,950.8L368.5,950.8h-0.3v-5.2c0,0,0,0,0-0.1c0-0.1,0.1-0.1,0.1-0.1c0.1,0,0.1,0.1,0.1,0.2
								L368.5,950.8L368.5,950.8z"/>
						</g>
					</g>
				</g>
				<path fill="#AAD7D3" d="M368.1,948c0.3,0.3,0.2,0.8,0.2,0.8s-0.5,0-0.7-0.3c-0.3-0.3-0.2-0.8-0.2-0.8S367.8,947.7,368.1,948z"/>
				<path fill="#AAD7D3" d="M368.8,945.1c0,0.4-0.3,0.7-0.3,0.7s-0.3-0.3-0.4-0.7s0.3-0.7,0.3-0.7S368.8,944.7,368.8,945.1z"/>
				<path fill="#AAD7D3" d="M368.7,948c-0.3,0.3-0.2,0.8-0.2,0.8s0.5,0,0.7-0.3c0.3-0.3,0.2-0.8,0.2-0.8S369,947.7,368.7,948z"/>
				<path fill="#AAD7D3" d="M368.1,945.8c0.3,0.3,0.2,0.8,0.2,0.8s-0.5,0-0.7-0.3c-0.3-0.3-0.2-0.8-0.2-0.8S367.8,945.5,368.1,945.8
					z"/>
				<path fill="#AAD7D3" d="M368.7,945.8c-0.3,0.3-0.2,0.8-0.2,0.8s0.5,0,0.7-0.3c0.3-0.3,0.2-0.8,0.2-0.8S369,945.5,368.7,945.8z"
					/>
				<path fill="#AAD7D3" d="M368.1,946.9c0.3,0.3,0.2,0.8,0.2,0.8s-0.5,0-0.7-0.3c-0.3-0.3-0.2-0.8-0.2-0.8S367.8,946.6,368.1,946.9
					z"/>
				<path fill="#AAD7D3" d="M368.7,946.9c-0.3,0.3-0.2,0.8-0.2,0.8s0.5,0,0.7-0.3c0.3-0.3,0.2-0.8,0.2-0.8S369,946.6,368.7,946.9z"
					/>
				<path fill="#AAD7D3" d="M368.1,949c0.3,0.3,0.2,0.8,0.2,0.8s-0.5,0-0.7-0.3c-0.3-0.3-0.2-0.8-0.2-0.8S367.8,948.7,368.1,949z"/>
				<path fill="#AAD7D3" d="M368.7,949c-0.3,0.3-0.2,0.8-0.2,0.8s0.5,0,0.7-0.3c0.3-0.3,0.2-0.8,0.2-0.8S369,948.7,368.7,949z"/>
			</g>
		</g>
		<g display="inline">
			<g>
				<g>
					<g id="XMLID_94_">
						<g>
							<path fill="#AAD7D3" d="M364.4,950.8L364.4,950.8h-0.3v-5.2c0,0,0,0,0-0.1c0-0.1,0.1-0.1,0.1-0.1c0.1,0,0.1,0.1,0.1,0.2
								L364.4,950.8L364.4,950.8z"/>
						</g>
					</g>
				</g>
				<path fill="#AAD7D3" d="M363.9,948c0.3,0.3,0.2,0.8,0.2,0.8s-0.5,0-0.7-0.3c-0.3-0.3-0.2-0.8-0.2-0.8S363.7,947.7,363.9,948z"/>
				<path fill="#AAD7D3" d="M364.6,945.1c0,0.4-0.3,0.7-0.3,0.7s-0.3-0.3-0.4-0.7c0-0.4,0.3-0.7,0.3-0.7S364.6,944.7,364.6,945.1z"
					/>
				<path fill="#AAD7D3" d="M364.6,948c-0.3,0.3-0.2,0.8-0.2,0.8s0.5,0,0.7-0.3c0.3-0.3,0.2-0.8,0.2-0.8S364.8,947.7,364.6,948z"/>
				<path fill="#AAD7D3" d="M363.9,945.8c0.3,0.3,0.2,0.8,0.2,0.8s-0.5,0-0.7-0.3c-0.3-0.3-0.2-0.8-0.2-0.8S363.7,945.5,363.9,945.8
					z"/>
				<path fill="#AAD7D3" d="M364.6,945.8c-0.3,0.3-0.2,0.8-0.2,0.8s0.5,0,0.7-0.3c0.3-0.3,0.2-0.8,0.2-0.8S364.8,945.5,364.6,945.8z
					"/>
				<path fill="#AAD7D3" d="M363.9,946.9c0.3,0.3,0.2,0.8,0.2,0.8s-0.5,0-0.7-0.3c-0.3-0.3-0.2-0.8-0.2-0.8S363.7,946.6,363.9,946.9
					z"/>
				<path fill="#AAD7D3" d="M364.6,946.9c-0.3,0.3-0.2,0.8-0.2,0.8s0.5,0,0.7-0.3c0.3-0.3,0.2-0.8,0.2-0.8S364.8,946.6,364.6,946.9z
					"/>
				<path fill="#AAD7D3" d="M363.9,949c0.3,0.3,0.2,0.8,0.2,0.8s-0.5,0-0.7-0.3c-0.3-0.3-0.2-0.8-0.2-0.8S363.7,948.7,363.9,949z"/>
				<path fill="#AAD7D3" d="M364.6,949c-0.3,0.3-0.2,0.8-0.2,0.8s0.5,0,0.7-0.3c0.3-0.3,0.2-0.8,0.2-0.8S364.8,948.7,364.6,949z"/>
			</g>
		</g>
		<g display="inline">
			<g>
				<g>
					<g id="XMLID_91_">
						<g>
							<path fill="#AAD7D3" d="M360.2,950.8L360.2,950.8h-0.3v-5.2c0,0,0,0,0-0.1c0-0.1,0.1-0.1,0.1-0.1c0.1,0,0.1,0.1,0.1,0.2
								L360.2,950.8L360.2,950.8z"/>
						</g>
					</g>
				</g>
				<path fill="#AAD7D3" d="M359.8,948c0.3,0.3,0.2,0.8,0.2,0.8s-0.5,0-0.7-0.3c-0.3-0.3-0.2-0.8-0.2-0.8S359.5,947.7,359.8,948z"/>
				<path fill="#AAD7D3" d="M360.4,945.1c0,0.4-0.3,0.7-0.3,0.7s-0.3-0.3-0.4-0.7s0.3-0.7,0.3-0.7S360.4,944.7,360.4,945.1z"/>
				<path fill="#AAD7D3" d="M360.4,948c-0.3,0.3-0.2,0.8-0.2,0.8s0.5,0,0.7-0.3c0.3-0.3,0.2-0.8,0.2-0.8S360.7,947.7,360.4,948z"/>
				<path fill="#AAD7D3" d="M359.8,945.8c0.3,0.3,0.2,0.8,0.2,0.8s-0.5,0-0.7-0.3c-0.3-0.3-0.2-0.8-0.2-0.8S359.5,945.5,359.8,945.8
					z"/>
				<path fill="#AAD7D3" d="M360.4,945.8c-0.3,0.3-0.2,0.8-0.2,0.8s0.5,0,0.7-0.3c0.3-0.3,0.2-0.8,0.2-0.8S360.7,945.5,360.4,945.8z
					"/>
				<path fill="#AAD7D3" d="M359.8,946.9c0.3,0.3,0.2,0.8,0.2,0.8s-0.5,0-0.7-0.3c-0.3-0.3-0.2-0.8-0.2-0.8S359.5,946.6,359.8,946.9
					z"/>
				<path fill="#AAD7D3" d="M360.4,946.9c-0.3,0.3-0.2,0.8-0.2,0.8s0.5,0,0.7-0.3c0.3-0.3,0.2-0.8,0.2-0.8S360.7,946.6,360.4,946.9z
					"/>
				<path fill="#AAD7D3" d="M359.8,949c0.3,0.3,0.2,0.8,0.2,0.8s-0.5,0-0.7-0.3c-0.3-0.3-0.2-0.8-0.2-0.8S359.5,948.7,359.8,949z"/>
				<path fill="#AAD7D3" d="M360.4,949c-0.3,0.3-0.2,0.8-0.2,0.8s0.5,0,0.7-0.3c0.3-0.3,0.2-0.8,0.2-0.8S360.7,948.7,360.4,949z"/>
			</g>
		</g>
		<g display="inline">
			<g>
				<g>
					<g id="XMLID_88_">
						<g>
							<path fill="#AAD7D3" d="M356,950.8L356,950.8h-0.3v-5.2c0,0,0,0,0-0.1c0-0.1,0.1-0.1,0.1-0.1c0.1,0,0.1,0.1,0.1,0.2
								L356,950.8L356,950.8z"/>
						</g>
					</g>
				</g>
				<path fill="#AAD7D3" d="M355.6,948c0.3,0.3,0.2,0.8,0.2,0.8s-0.5,0-0.7-0.3c-0.3-0.3-0.2-0.8-0.2-0.8S355.3,947.7,355.6,948z"/>
				<path fill="#AAD7D3" d="M356.3,945.1c0,0.4-0.3,0.7-0.3,0.7s-0.3-0.3-0.4-0.7s0.3-0.7,0.3-0.7S356.3,944.7,356.3,945.1z"/>
				<path fill="#AAD7D3" d="M356.2,948c-0.3,0.3-0.2,0.8-0.2,0.8s0.5,0,0.7-0.3c0.3-0.3,0.2-0.8,0.2-0.8S356.5,947.7,356.2,948z"/>
				<path fill="#AAD7D3" d="M355.6,945.8c0.3,0.3,0.2,0.8,0.2,0.8s-0.5,0-0.7-0.3c-0.3-0.3-0.2-0.8-0.2-0.8S355.3,945.5,355.6,945.8
					z"/>
				<path fill="#AAD7D3" d="M356.2,945.8c-0.3,0.3-0.2,0.8-0.2,0.8s0.5,0,0.7-0.3c0.3-0.3,0.2-0.8,0.2-0.8S356.5,945.5,356.2,945.8z
					"/>
				<path fill="#AAD7D3" d="M355.6,946.9c0.3,0.3,0.2,0.8,0.2,0.8s-0.5,0-0.7-0.3c-0.3-0.3-0.2-0.8-0.2-0.8S355.3,946.6,355.6,946.9
					z"/>
				<path fill="#AAD7D3" d="M356.2,946.9c-0.3,0.3-0.2,0.8-0.2,0.8s0.5,0,0.7-0.3c0.3-0.3,0.2-0.8,0.2-0.8S356.5,946.6,356.2,946.9z
					"/>
				<path fill="#AAD7D3" d="M355.6,949c0.3,0.3,0.2,0.8,0.2,0.8s-0.5,0-0.7-0.3c-0.3-0.3-0.2-0.8-0.2-0.8S355.3,948.7,355.6,949z"/>
				<path fill="#AAD7D3" d="M356.2,949c-0.3,0.3-0.2,0.8-0.2,0.8s0.5,0,0.7-0.3c0.3-0.3,0.2-0.8,0.2-0.8S356.5,948.7,356.2,949z"/>
			</g>
		</g>
		<g display="inline">
			<g>
				<g>
					<g id="XMLID_85_">
						<g>
							<path fill="#AAD7D3" d="M351.9,950.8L351.9,950.8h-0.3v-5.2c0,0,0,0,0-0.1c0-0.1,0.1-0.1,0.1-0.1c0.1,0,0.1,0.1,0.1,0.2
								L351.9,950.8L351.9,950.8z"/>
						</g>
					</g>
				</g>
				<path fill="#AAD7D3" d="M351.4,948c0.3,0.3,0.2,0.8,0.2,0.8s-0.5,0-0.7-0.3c-0.3-0.3-0.2-0.8-0.2-0.8S351.2,947.7,351.4,948z"/>
				<path fill="#AAD7D3" d="M352.1,945.1c0,0.4-0.3,0.7-0.3,0.7s-0.3-0.3-0.4-0.7s0.3-0.7,0.3-0.7S352.1,944.7,352.1,945.1z"/>
				<path fill="#AAD7D3" d="M352.1,948c-0.3,0.3-0.2,0.8-0.2,0.8s0.5,0,0.7-0.3c0.3-0.3,0.2-0.8,0.2-0.8S352.3,947.7,352.1,948z"/>
				<path fill="#AAD7D3" d="M351.4,945.8c0.3,0.3,0.2,0.8,0.2,0.8s-0.5,0-0.7-0.3c-0.3-0.3-0.2-0.8-0.2-0.8S351.2,945.5,351.4,945.8
					z"/>
				<path fill="#AAD7D3" d="M352.1,945.8c-0.3,0.3-0.2,0.8-0.2,0.8s0.5,0,0.7-0.3c0.3-0.3,0.2-0.8,0.2-0.8S352.3,945.5,352.1,945.8z
					"/>
				<path fill="#AAD7D3" d="M351.4,946.9c0.3,0.3,0.2,0.8,0.2,0.8s-0.5,0-0.7-0.3c-0.3-0.3-0.2-0.8-0.2-0.8S351.2,946.6,351.4,946.9
					z"/>
				<path fill="#AAD7D3" d="M352.1,946.9c-0.3,0.3-0.2,0.8-0.2,0.8s0.5,0,0.7-0.3c0.3-0.3,0.2-0.8,0.2-0.8S352.3,946.6,352.1,946.9z
					"/>
				<path fill="#AAD7D3" d="M351.4,949c0.3,0.3,0.2,0.8,0.2,0.8s-0.5,0-0.7-0.3c-0.3-0.3-0.2-0.8-0.2-0.8S351.2,948.7,351.4,949z"/>
				<path fill="#AAD7D3" d="M352.1,949c-0.3,0.3-0.2,0.8-0.2,0.8s0.5,0,0.7-0.3c0.3-0.3,0.2-0.8,0.2-0.8S352.3,948.7,352.1,949z"/>
			</g>
		</g>
		<g display="inline">
			<g>
				<g>
					<g id="XMLID_82_">
						<g>
							<path fill="#AAD7D3" d="M347.7,950.8L347.7,950.8h-0.3v-5.2c0,0,0,0,0-0.1c0-0.1,0.1-0.1,0.1-0.1c0.1,0,0.1,0.1,0.1,0.2
								L347.7,950.8L347.7,950.8z"/>
						</g>
					</g>
				</g>
				<path fill="#AAD7D3" d="M347.3,948c0.3,0.3,0.2,0.8,0.2,0.8s-0.5,0-0.7-0.3c-0.3-0.3-0.2-0.8-0.2-0.8S347,947.7,347.3,948z"/>
				<path fill="#AAD7D3" d="M347.9,945.1c0,0.4-0.3,0.7-0.3,0.7s-0.3-0.3-0.4-0.7s0.3-0.7,0.3-0.7S347.9,944.7,347.9,945.1z"/>
				<path fill="#AAD7D3" d="M347.9,948c-0.3,0.3-0.2,0.8-0.2,0.8s0.5,0,0.7-0.3c0.3-0.3,0.2-0.8,0.2-0.8S348.2,947.7,347.9,948z"/>
				<path fill="#AAD7D3" d="M347.3,945.8c0.3,0.3,0.2,0.8,0.2,0.8s-0.5,0-0.7-0.3c-0.3-0.3-0.2-0.8-0.2-0.8S347,945.5,347.3,945.8z"
					/>
				<path fill="#AAD7D3" d="M347.9,945.8c-0.3,0.3-0.2,0.8-0.2,0.8s0.5,0,0.7-0.3c0.3-0.3,0.2-0.8,0.2-0.8S348.2,945.5,347.9,945.8z
					"/>
				<path fill="#AAD7D3" d="M347.3,946.9c0.3,0.3,0.2,0.8,0.2,0.8s-0.5,0-0.7-0.3c-0.3-0.3-0.2-0.8-0.2-0.8S347,946.6,347.3,946.9z"
					/>
				<path fill="#AAD7D3" d="M347.9,946.9c-0.3,0.3-0.2,0.8-0.2,0.8s0.5,0,0.7-0.3c0.3-0.3,0.2-0.8,0.2-0.8S348.2,946.6,347.9,946.9z
					"/>
				<path fill="#AAD7D3" d="M347.3,949c0.3,0.3,0.2,0.8,0.2,0.8s-0.5,0-0.7-0.3c-0.3-0.3-0.2-0.8-0.2-0.8S347,948.7,347.3,949z"/>
				<path fill="#AAD7D3" d="M347.9,949c-0.3,0.3-0.2,0.8-0.2,0.8s0.5,0,0.7-0.3c0.3-0.3,0.2-0.8,0.2-0.8S348.2,948.7,347.9,949z"/>
			</g>
		</g>
		<g display="inline">
			<g>
				<g>
					<g id="XMLID_79_">
						<g>
							<path fill="#AAD7D3" d="M343.5,950.8L343.5,950.8h-0.3v-5.2c0,0,0,0,0-0.1c0-0.1,0.1-0.1,0.1-0.1c0.1,0,0.1,0.1,0.1,0.2
								L343.5,950.8L343.5,950.8z"/>
						</g>
					</g>
				</g>
				<path fill="#AAD7D3" d="M343.1,948c0.3,0.3,0.2,0.8,0.2,0.8s-0.5,0-0.7-0.3c-0.3-0.3-0.2-0.8-0.2-0.8S342.8,947.7,343.1,948z"/>
				<path fill="#AAD7D3" d="M343.8,945.1c0,0.4-0.3,0.7-0.3,0.7s-0.3-0.3-0.4-0.7s0.3-0.7,0.3-0.7S343.8,944.7,343.8,945.1z"/>
				<path fill="#AAD7D3" d="M343.7,948c-0.3,0.3-0.2,0.8-0.2,0.8s0.5,0,0.7-0.3c0.3-0.3,0.2-0.8,0.2-0.8S344,947.7,343.7,948z"/>
				<path fill="#AAD7D3" d="M343.1,945.8c0.3,0.3,0.2,0.8,0.2,0.8s-0.5,0-0.7-0.3c-0.3-0.3-0.2-0.8-0.2-0.8S342.8,945.5,343.1,945.8
					z"/>
				<path fill="#AAD7D3" d="M343.7,945.8c-0.3,0.3-0.2,0.8-0.2,0.8s0.5,0,0.7-0.3c0.3-0.3,0.2-0.8,0.2-0.8S344,945.5,343.7,945.8z"
					/>
				<path fill="#AAD7D3" d="M343.1,946.9c0.3,0.3,0.2,0.8,0.2,0.8s-0.5,0-0.7-0.3c-0.3-0.3-0.2-0.8-0.2-0.8S342.8,946.6,343.1,946.9
					z"/>
				<path fill="#AAD7D3" d="M343.7,946.9c-0.3,0.3-0.2,0.8-0.2,0.8s0.5,0,0.7-0.3c0.3-0.3,0.2-0.8,0.2-0.8S344,946.6,343.7,946.9z"
					/>
				<path fill="#AAD7D3" d="M343.1,949c0.3,0.3,0.2,0.8,0.2,0.8s-0.5,0-0.7-0.3c-0.3-0.3-0.2-0.8-0.2-0.8S342.8,948.7,343.1,949z"/>
				<path fill="#AAD7D3" d="M343.7,949c-0.3,0.3-0.2,0.8-0.2,0.8s0.5,0,0.7-0.3c0.3-0.3,0.2-0.8,0.2-0.8S344,948.7,343.7,949z"/>
			</g>
		</g>
		<g display="inline">
			<g>
				<g>
					<g id="XMLID_76_">
						<g>
							<path fill="#AAD7D3" d="M339.4,950.8L339.4,950.8h-0.3v-5.2c0,0,0,0,0-0.1c0-0.1,0.1-0.1,0.1-0.1c0.1,0,0.1,0.1,0.1,0.2
								L339.4,950.8L339.4,950.8z"/>
						</g>
					</g>
				</g>
				<path fill="#AAD7D3" d="M338.9,948c0.3,0.3,0.2,0.8,0.2,0.8s-0.5,0-0.7-0.3c-0.3-0.3-0.2-0.8-0.2-0.8S338.7,947.7,338.9,948z"/>
				<path fill="#AAD7D3" d="M339.6,945.1c0,0.4-0.3,0.7-0.3,0.7s-0.3-0.3-0.4-0.7c0-0.4,0.3-0.7,0.3-0.7S339.6,944.7,339.6,945.1z"
					/>
				<path fill="#AAD7D3" d="M339.6,948c-0.3,0.3-0.2,0.8-0.2,0.8s0.5,0,0.7-0.3c0.3-0.3,0.2-0.8,0.2-0.8S339.8,947.7,339.6,948z"/>
				<path fill="#AAD7D3" d="M338.9,945.8c0.3,0.3,0.2,0.8,0.2,0.8s-0.5,0-0.7-0.3c-0.3-0.3-0.2-0.8-0.2-0.8S338.7,945.5,338.9,945.8
					z"/>
				<path fill="#AAD7D3" d="M339.6,945.8c-0.3,0.3-0.2,0.8-0.2,0.8s0.5,0,0.7-0.3c0.3-0.3,0.2-0.8,0.2-0.8S339.8,945.5,339.6,945.8z
					"/>
				<path fill="#AAD7D3" d="M338.9,946.9c0.3,0.3,0.2,0.8,0.2,0.8s-0.5,0-0.7-0.3c-0.3-0.3-0.2-0.8-0.2-0.8S338.7,946.6,338.9,946.9
					z"/>
				<path fill="#AAD7D3" d="M339.6,946.9c-0.3,0.3-0.2,0.8-0.2,0.8s0.5,0,0.7-0.3c0.3-0.3,0.2-0.8,0.2-0.8S339.8,946.6,339.6,946.9z
					"/>
				<path fill="#AAD7D3" d="M338.9,949c0.3,0.3,0.2,0.8,0.2,0.8s-0.5,0-0.7-0.3c-0.3-0.3-0.2-0.8-0.2-0.8S338.7,948.7,338.9,949z"/>
				<path fill="#AAD7D3" d="M339.6,949c-0.3,0.3-0.2,0.8-0.2,0.8s0.5,0,0.7-0.3c0.3-0.3,0.2-0.8,0.2-0.8S339.8,948.7,339.6,949z"/>
			</g>
		</g>
		<g display="inline">
			<g>
				<g>
					<g id="XMLID_73_">
						<g>
							<path fill="#AAD7D3" d="M335.2,950.8L335.2,950.8h-0.3v-5.2c0,0,0,0,0-0.1c0-0.1,0.1-0.1,0.1-0.1c0.1,0,0.1,0.1,0.1,0.2
								L335.2,950.8L335.2,950.8z"/>
						</g>
					</g>
				</g>
				<path fill="#AAD7D3" d="M334.8,948c0.3,0.3,0.2,0.8,0.2,0.8s-0.5,0-0.7-0.3c-0.3-0.3-0.2-0.8-0.2-0.8S334.5,947.7,334.8,948z"/>
				<path fill="#AAD7D3" d="M335.4,945.1c0,0.4-0.3,0.7-0.3,0.7s-0.3-0.3-0.4-0.7c0-0.4,0.3-0.7,0.3-0.7S335.4,944.7,335.4,945.1z"
					/>
				<path fill="#AAD7D3" d="M335.4,948c-0.3,0.3-0.2,0.8-0.2,0.8s0.5,0,0.7-0.3c0.3-0.3,0.2-0.8,0.2-0.8S335.7,947.7,335.4,948z"/>
				<path fill="#AAD7D3" d="M334.8,945.8c0.3,0.3,0.2,0.8,0.2,0.8s-0.5,0-0.7-0.3c-0.3-0.3-0.2-0.8-0.2-0.8S334.5,945.5,334.8,945.8
					z"/>
				<path fill="#AAD7D3" d="M335.4,945.8c-0.3,0.3-0.2,0.8-0.2,0.8s0.5,0,0.7-0.3c0.3-0.3,0.2-0.8,0.2-0.8S335.7,945.5,335.4,945.8z
					"/>
				<path fill="#AAD7D3" d="M334.8,946.9c0.3,0.3,0.2,0.8,0.2,0.8s-0.5,0-0.7-0.3c-0.3-0.3-0.2-0.8-0.2-0.8S334.5,946.6,334.8,946.9
					z"/>
				<path fill="#AAD7D3" d="M335.4,946.9c-0.3,0.3-0.2,0.8-0.2,0.8s0.5,0,0.7-0.3c0.3-0.3,0.2-0.8,0.2-0.8S335.7,946.6,335.4,946.9z
					"/>
				<path fill="#AAD7D3" d="M334.8,949c0.3,0.3,0.2,0.8,0.2,0.8s-0.5,0-0.7-0.3c-0.3-0.3-0.2-0.8-0.2-0.8S334.5,948.7,334.8,949z"/>
				<path fill="#AAD7D3" d="M335.4,949c-0.3,0.3-0.2,0.8-0.2,0.8s0.5,0,0.7-0.3c0.3-0.3,0.2-0.8,0.2-0.8S335.7,948.7,335.4,949z"/>
			</g>
		</g>
		<g display="inline">
			<g>
				<g>
					<g id="XMLID_70_">
						<g>
							<path fill="#AAD7D3" d="M331,950.8L331,950.8h-0.3v-5.2c0,0,0,0,0-0.1c0-0.1,0.1-0.1,0.1-0.1c0.1,0,0.1,0.1,0.1,0.2
								L331,950.8L331,950.8z"/>
						</g>
					</g>
				</g>
				<path fill="#AAD7D3" d="M330.6,948c0.3,0.3,0.2,0.8,0.2,0.8s-0.5,0-0.7-0.3c-0.3-0.3-0.2-0.8-0.2-0.8S330.3,947.7,330.6,948z"/>
				<path fill="#AAD7D3" d="M331.3,945.1c0,0.4-0.3,0.7-0.3,0.7s-0.3-0.3-0.4-0.7s0.3-0.7,0.3-0.7S331.3,944.7,331.3,945.1z"/>
				<path fill="#AAD7D3" d="M331.2,948c-0.3,0.3-0.2,0.8-0.2,0.8s0.5,0,0.7-0.3c0.3-0.3,0.2-0.8,0.2-0.8S331.5,947.7,331.2,948z"/>
				<path fill="#AAD7D3" d="M330.6,945.8c0.3,0.3,0.2,0.8,0.2,0.8s-0.5,0-0.7-0.3c-0.3-0.3-0.2-0.8-0.2-0.8S330.3,945.5,330.6,945.8
					z"/>
				<path fill="#AAD7D3" d="M331.2,945.8c-0.3,0.3-0.2,0.8-0.2,0.8s0.5,0,0.7-0.3c0.3-0.3,0.2-0.8,0.2-0.8S331.5,945.5,331.2,945.8z
					"/>
				<path fill="#AAD7D3" d="M330.6,946.9c0.3,0.3,0.2,0.8,0.2,0.8s-0.5,0-0.7-0.3c-0.3-0.3-0.2-0.8-0.2-0.8S330.3,946.6,330.6,946.9
					z"/>
				<path fill="#AAD7D3" d="M331.2,946.9c-0.3,0.3-0.2,0.8-0.2,0.8s0.5,0,0.7-0.3c0.3-0.3,0.2-0.8,0.2-0.8S331.5,946.6,331.2,946.9z
					"/>
				<path fill="#AAD7D3" d="M330.6,949c0.3,0.3,0.2,0.8,0.2,0.8s-0.5,0-0.7-0.3c-0.3-0.3-0.2-0.8-0.2-0.8S330.3,948.7,330.6,949z"/>
				<path fill="#AAD7D3" d="M331.2,949c-0.3,0.3-0.2,0.8-0.2,0.8s0.5,0,0.7-0.3c0.3-0.3,0.2-0.8,0.2-0.8S331.5,948.7,331.2,949z"/>
			</g>
		</g>
		<g display="inline">
			<g>
				<g>
					<g id="XMLID_67_">
						<g>
							<path fill="#AAD7D3" d="M326.9,950.8L326.9,950.8h-0.3v-5.2c0,0,0,0,0-0.1c0-0.1,0.1-0.1,0.1-0.1c0.1,0,0.1,0.1,0.1,0.2
								L326.9,950.8L326.9,950.8z"/>
						</g>
					</g>
				</g>
				<path fill="#AAD7D3" d="M326.4,948c0.3,0.3,0.2,0.8,0.2,0.8s-0.5,0-0.7-0.3c-0.3-0.3-0.2-0.8-0.2-0.8S326.2,947.7,326.4,948z"/>
				<path fill="#AAD7D3" d="M327.1,945.1c0,0.4-0.3,0.7-0.3,0.7s-0.3-0.3-0.4-0.7s0.3-0.7,0.3-0.7S327.1,944.7,327.1,945.1z"/>
				<path fill="#AAD7D3" d="M327.1,948c-0.3,0.3-0.2,0.8-0.2,0.8s0.5,0,0.7-0.3c0.3-0.3,0.2-0.8,0.2-0.8S327.3,947.7,327.1,948z"/>
				<path fill="#AAD7D3" d="M326.4,945.8c0.3,0.3,0.2,0.8,0.2,0.8s-0.5,0-0.7-0.3c-0.3-0.3-0.2-0.8-0.2-0.8S326.2,945.5,326.4,945.8
					z"/>
				<path fill="#AAD7D3" d="M327.1,945.8c-0.3,0.3-0.2,0.8-0.2,0.8s0.5,0,0.7-0.3c0.3-0.3,0.2-0.8,0.2-0.8S327.3,945.5,327.1,945.8z
					"/>
				<path fill="#AAD7D3" d="M326.4,946.9c0.3,0.3,0.2,0.8,0.2,0.8s-0.5,0-0.7-0.3c-0.3-0.3-0.2-0.8-0.2-0.8S326.2,946.6,326.4,946.9
					z"/>
				<path fill="#AAD7D3" d="M327.1,946.9c-0.3,0.3-0.2,0.8-0.2,0.8s0.5,0,0.7-0.3c0.3-0.3,0.2-0.8,0.2-0.8S327.3,946.6,327.1,946.9z
					"/>
				<path fill="#AAD7D3" d="M326.4,949c0.3,0.3,0.2,0.8,0.2,0.8s-0.5,0-0.7-0.3c-0.3-0.3-0.2-0.8-0.2-0.8S326.2,948.7,326.4,949z"/>
				<path fill="#AAD7D3" d="M327.1,949c-0.3,0.3-0.2,0.8-0.2,0.8s0.5,0,0.7-0.3c0.3-0.3,0.2-0.8,0.2-0.8S327.3,948.7,327.1,949z"/>
			</g>
		</g>
		<g display="inline">
			<g>
				<g>
					<g id="XMLID_64_">
						<g>
							<path fill="#AAD7D3" d="M322.7,950.8L322.7,950.8h-0.3v-5.2c0,0,0,0,0-0.1c0-0.1,0.1-0.1,0.1-0.1c0.1,0,0.1,0.1,0.1,0.2
								L322.7,950.8L322.7,950.8z"/>
						</g>
					</g>
				</g>
				<path fill="#AAD7D3" d="M322.2,948c0.3,0.3,0.2,0.8,0.2,0.8s-0.5,0-0.7-0.3c-0.3-0.3-0.2-0.8-0.2-0.8S322,947.7,322.2,948z"/>
				<path fill="#AAD7D3" d="M322.9,945.1c0,0.4-0.3,0.7-0.3,0.7s-0.3-0.3-0.4-0.7s0.3-0.7,0.3-0.7S322.9,944.7,322.9,945.1z"/>
				<path fill="#AAD7D3" d="M322.9,948c-0.3,0.3-0.2,0.8-0.2,0.8s0.5,0,0.7-0.3c0.3-0.3,0.2-0.8,0.2-0.8S323.2,947.7,322.9,948z"/>
				<path fill="#AAD7D3" d="M322.2,945.8c0.3,0.3,0.2,0.8,0.2,0.8s-0.5,0-0.7-0.3c-0.3-0.3-0.2-0.8-0.2-0.8S322,945.5,322.2,945.8z"
					/>
				<path fill="#AAD7D3" d="M322.9,945.8c-0.3,0.3-0.2,0.8-0.2,0.8s0.5,0,0.7-0.3c0.3-0.3,0.2-0.8,0.2-0.8S323.2,945.5,322.9,945.8z
					"/>
				<path fill="#AAD7D3" d="M322.2,946.9c0.3,0.3,0.2,0.8,0.2,0.8s-0.5,0-0.7-0.3c-0.3-0.3-0.2-0.8-0.2-0.8S322,946.6,322.2,946.9z"
					/>
				<path fill="#AAD7D3" d="M322.9,946.9c-0.3,0.3-0.2,0.8-0.2,0.8s0.5,0,0.7-0.3c0.3-0.3,0.2-0.8,0.2-0.8S323.2,946.6,322.9,946.9z
					"/>
				<path fill="#AAD7D3" d="M322.2,949c0.3,0.3,0.2,0.8,0.2,0.8s-0.5,0-0.7-0.3c-0.3-0.3-0.2-0.8-0.2-0.8S322,948.7,322.2,949z"/>
				<path fill="#AAD7D3" d="M322.9,949c-0.3,0.3-0.2,0.8-0.2,0.8s0.5,0,0.7-0.3c0.3-0.3,0.2-0.8,0.2-0.8S323.2,948.7,322.9,949z"/>
			</g>
		</g>
	</g>
	<g display="none">
		<path display="inline" fill="#F5F5F5" d="M214.6,943.1h-13c-0.3,0-0.6,0.2-0.6,0.5v5.7c0,0.3,0.3,0.5,0.6,0.5h13
			c0.3,0,0.6-0.2,0.6-0.5v-5.7C215.2,943.3,214.9,943.1,214.6,943.1z M206.3,944.4c0-0.1,0.1-0.3,0.3-0.3h2.9c0.2,0,0.3,0.1,0.3,0.3
			v2.1c0,0.1-0.1,0.3-0.3,0.3h-2.9c-0.2,0-0.3-0.1-0.3-0.3V944.4L206.3,944.4z M202.2,946.4v-2.1c0-0.1,0.1-0.3,0.3-0.3h2.4
			c0.2,0,0.3,0.1,0.3,0.3v2.1c0,0.1-0.1,0.3-0.3,0.3h-2.4C202.3,946.7,202.2,946.6,202.2,946.4z M214,946.4c0,0.1-0.1,0.3-0.3,0.3
			h-2.4c-0.2,0-0.3-0.1-0.3-0.3v-2.1c0-0.1,0.1-0.3,0.3-0.3h2.4c0.2,0,0.3,0.1,0.3,0.3V946.4z"/>
		<path display="inline" fill="#F5F5F5" d="M229.4,943.1h-13c-0.3,0-0.6,0.2-0.6,0.5v5.7c0,0.3,0.3,0.5,0.6,0.5h13
			c0.3,0,0.6-0.2,0.6-0.5v-5.7C230,943.3,229.8,943.1,229.4,943.1z M221.2,944.4c0-0.1,0.1-0.3,0.3-0.3h2.9c0.2,0,0.3,0.1,0.3,0.3
			v2.1c0,0.1-0.1,0.3-0.3,0.3h-2.9c-0.2,0-0.3-0.1-0.3-0.3V944.4L221.2,944.4z M217.1,946.4v-2.1c0-0.1,0.1-0.3,0.3-0.3h2.4
			c0.2,0,0.3,0.1,0.3,0.3v2.1c0,0.1-0.1,0.3-0.3,0.3h-2.4C217.2,946.7,217.1,946.6,217.1,946.4z M228.9,946.4c0,0.1-0.1,0.3-0.3,0.3
			h-2.4c-0.2,0-0.3-0.1-0.3-0.3v-2.1c0-0.1,0.1-0.3,0.3-0.3h2.4c0.2,0,0.3,0.1,0.3,0.3V946.4z"/>
		<path display="inline" fill="#F5F5F5" d="M244.3,943.1h-13c-0.3,0-0.6,0.2-0.6,0.5v5.7c0,0.3,0.3,0.5,0.6,0.5h13
			c0.3,0,0.6-0.2,0.6-0.5v-5.7C244.9,943.3,244.6,943.1,244.3,943.1z M236,944.4c0-0.1,0.1-0.3,0.3-0.3h2.9c0.2,0,0.3,0.1,0.3,0.3
			v2.1c0,0.1-0.1,0.3-0.3,0.3h-2.9c-0.2,0-0.3-0.1-0.3-0.3V944.4L236,944.4z M231.9,946.4v-2.1c0-0.1,0.1-0.3,0.3-0.3h2.4
			c0.2,0,0.3,0.1,0.3,0.3v2.1c0,0.1-0.1,0.3-0.3,0.3h-2.4C232,946.7,231.9,946.6,231.9,946.4z M243.7,946.4c0,0.1-0.1,0.3-0.3,0.3
			H241c-0.2,0-0.3-0.1-0.3-0.3v-2.1c0-0.1,0.1-0.3,0.3-0.3h2.4c0.2,0,0.3,0.1,0.3,0.3V946.4z"/>
		<path display="inline" fill="#F5F5F5" d="M259.1,943.1h-13c-0.3,0-0.6,0.2-0.6,0.5v5.7c0,0.3,0.3,0.5,0.6,0.5h13
			c0.3,0,0.6-0.2,0.6-0.5v-5.7C259.7,943.3,259.5,943.1,259.1,943.1z M250.9,944.4c0-0.1,0.1-0.3,0.3-0.3h2.9c0.2,0,0.3,0.1,0.3,0.3
			v2.1c0,0.1-0.1,0.3-0.3,0.3h-2.9c-0.2,0-0.3-0.1-0.3-0.3V944.4L250.9,944.4z M246.8,946.4v-2.1c0-0.1,0.1-0.3,0.3-0.3h2.4
			c0.2,0,0.3,0.1,0.3,0.3v2.1c0,0.1-0.1,0.3-0.3,0.3h-2.4C246.9,946.7,246.8,946.6,246.8,946.4z M258.5,946.4c0,0.1-0.1,0.3-0.3,0.3
			h-2.4c-0.2,0-0.3-0.1-0.3-0.3v-2.1c0-0.1,0.1-0.3,0.3-0.3h2.4c0.2,0,0.3,0.1,0.3,0.3V946.4z"/>
		<path display="inline" fill="#F5F5F5" d="M275.3,949.8c1.1,0,1.9-1.2,1.3-2.2l-0.8-1.4l-1.5-2.7l0,0l-0.1-0.3
			c-0.1-0.2-0.3-0.3-0.5-0.3h-12.8c-0.3,0-0.5,0.2-0.5,0.5v5.7c0,0.3,0.2,0.5,0.5,0.5L275.3,949.8L275.3,949.8z M269.8,946
			c0,0.1-0.1,0.3-0.2,0.3h-2c-0.1,0-0.2-0.1-0.2-0.3v-2.1c0-0.1,0.1-0.3,0.2-0.3h2c0.1,0,0.2,0.1,0.2,0.3V946z M270.7,946.3
			c-0.2,0-0.3-0.1-0.3-0.3v-2c0-0.2,0.1-0.3,0.3-0.3h2.9l1.4,2.6L270.7,946.3z"/>
		<path display="inline" fill="#D53A81" d="M265.1,946.1C265.1,946.1,265,946.1,265.1,946.1l-0.9,0.1l0.2-1.7c0,0,0-0.1,0-0.1
			s-0.1,0-0.1,0l-1.7,2.3c0,0,0,0,0,0.1c0,0,0,0,0.1,0l0.9-0.2l-0.2,1.6c0,0,0,0.1,0,0.1c0,0,0,0,0,0c0,0,0,0,0.1,0L265.1,946.1
			C265.1,946.1,265.1,946.1,265.1,946.1z"/>
		<path display="inline" fill="#F5F5F5" d="M199.7,949.8c0.3,0,0.5-0.2,0.5-0.5v-5.7c0-0.3-0.2-0.5-0.5-0.5h-12.8
			c-0.2,0-0.4,0.1-0.5,0.3l-0.1,0.3l0,0l-1.5,2.7l-0.8,1.4c-0.6,1,0.2,2.2,1.3,2.2L199.7,949.8L199.7,949.8z M190.8,943.9
			c0-0.1,0.1-0.3,0.2-0.3h2c0.1,0,0.2,0.1,0.2,0.3v2.1c0,0.1-0.1,0.3-0.2,0.3h-2c-0.1,0-0.2-0.1-0.2-0.3V943.9z M185.5,946.3
			l1.4-2.6h2.9c0.2,0,0.3,0.1,0.3,0.3v2c0,0.2-0.1,0.3-0.3,0.3L185.5,946.3L185.5,946.3z"/>
		<path display="inline" fill="#D53A81" d="M197.8,946.1C197.8,946.1,197.8,946.1,197.8,946.1l-0.9,0.1l0.2-1.7c0,0,0-0.1,0-0.1
			s-0.1,0-0.1,0l-1.7,2.3c0,0,0,0,0,0.1c0,0,0,0,0.1,0l0.9-0.2l-0.2,1.6c0,0,0,0.1,0,0.1c0,0,0,0,0,0c0,0,0,0,0.1,0L197.8,946.1
			C197.8,946.1,197.8,946.1,197.8,946.1z"/>
	</g>
	<path display="none" fill="#F5F5F5" d="M266.1,962.9c0,0.2,0,1.3,0,1.3c0,0.2,0.3,0.5,0.5,0.7c0.1,0.6,0.7,1,1.3,1
		c0.6,0,1.1-0.4,1.3-0.9l4.3,0.1c0.2,0.5,0.7,0.9,1.3,1c0.6,0,1.1-0.4,1.3-0.9l0.3,0c0.2,0,0.7-0.5,0.7-0.7c0,0,0-1.4,0-1.6
		c0-0.4-0.2-0.6-1.4-0.9c-0.2-0.3-1-1.4-1.1-1.6c-0.1-0.3-0.3-0.3-0.6-0.3c-0.3,0-2.9-0.1-3-0.1c-0.1,0-0.3,0-0.6,0.3
		c-0.4,0.4-1.1,1-2.1,1.8C266.9,962.4,266.1,962.5,266.1,962.9z M274.8,962.4c-0.1,0-1.1,0-2.1-0.1l0-1.6c0.5,0,1,0,1.1,0
		c0.2,0,0.3,0.1,0.4,0.3c0.1,0.1,0.5,0.7,0.7,1C275.2,962.3,275.1,962.4,274.8,962.4z M274.2,964.7c0-0.4,0.3-0.7,0.7-0.7
		c0.4,0,0.7,0.3,0.7,0.7c0,0.4-0.3,0.7-0.7,0.7C274.4,965.4,274.1,965.1,274.2,964.7z M269.5,962.3c-0.2,0-0.3-0.1,0-0.3
		c0.3-0.3,1-0.9,1.2-1.1c0.1-0.1,0.3-0.2,0.5-0.2c0,0,0.7,0,1.4,0l0,1.6C271.1,962.3,269.5,962.3,269.5,962.3z M267.2,964.5
		c0-0.4,0.3-0.7,0.7-0.7c0.4,0,0.7,0.3,0.7,0.7s-0.3,0.7-0.7,0.7C267.5,965.2,267.2,964.9,267.2,964.5z"/>
	<path display="none" fill="#F5F5F5" d="M289.9,962.4l-0.1,2.4c0,0.2,0.1,0.3,0.3,0.3l0.6,0c0,0.8,0.6,1.4,1.4,1.5
		c0.8,0,1.4-0.6,1.5-1.4l0,0l0.6,0c0.2,0,0.3-0.1,0.3-0.3l0.1-5c0-0.2-0.1-0.3-0.3-0.3l0,0l-1.1,0l-1.3,0c-0.1,0-0.2,0-0.3,0.1
		l-1.8,2.6C289.9,962.3,289.9,962.4,289.9,962.4C289.9,962.4,289.9,962.4,289.9,962.4z M290.8,962.4l1.3-1.9l1.2,0l-0.1,1.9
		L290.8,962.4z M291.5,965.2c0-0.4,0.3-0.7,0.7-0.7c0.4,0,0.7,0.3,0.7,0.7c0,0.4-0.3,0.7-0.7,0.7S291.5,965.6,291.5,965.2z
		 M295.2,959.4l-0.2,5.8c0-0.1,0.2,0.1,0.4,0.1l1.5,0c0,0.8,0.6,1.4,1.4,1.5c0.8,0,1.4-0.6,1.5-1.4l1,0c0.2,0,0.4-0.2,0.4-0.4
		l0.2-5.8c0-0.2-0.2-0.4-0.4-0.4l-5.3-0.1C295.4,958.7,295.2,958.9,295.2,959.4z M297.6,965.4c0-0.4,0.3-0.7,0.7-0.7
		c0.4,0,0.7,0.3,0.7,0.7c0,0.4-0.3,0.7-0.7,0.7C297.9,966.1,297.6,965.8,297.6,965.4z"/>
	<g display="none">
		<path display="inline" fill="#F5F5F5" d="M369.5,968.1c0,0.7,0.5,1.2,1.2,1.3c0.7,0,1.2-0.5,1.3-1.2c0-0.7-0.5-1.2-1.2-1.3
			C370.1,966.9,369.6,967.4,369.5,968.1z M370.1,968.1c0-0.4,0.3-0.7,0.7-0.7c0.4,0,0.7,0.3,0.7,0.7c0,0.4-0.3,0.7-0.7,0.7
			C370.4,968.8,370,968.5,370.1,968.1z"/>
		<path display="inline" fill="#F5F5F5" d="M366,968c0,0.7,0.5,1.2,1.2,1.3c0.7,0,1.2-0.5,1.3-1.2c0-0.7-0.5-1.2-1.2-1.3
			C366.6,966.8,366.1,967.3,366,968z M366.6,968c0-0.4,0.3-0.7,0.7-0.7c0.4,0,0.7,0.3,0.7,0.7c0,0.4-0.3,0.7-0.7,0.7
			C366.8,968.7,366.5,968.4,366.6,968z"/>
		<path display="inline" fill="#F5F5F5" d="M368.7,967.1l-0.1,1.5c0,0.2,0.2,0.4,0.4,0.4c0.2,0,0.4-0.2,0.4-0.4l0.1-1.3l0.9-0.7
			c0.1-0.1,0.1-0.2,0.1-0.3c0-0.1,0-0.2-0.1-0.3l-1.3-1.4c-0.1-0.1-0.2-0.1-0.3-0.1c-0.1,0-0.2,0.1-0.3,0.2l-0.5,0.7h-0.5
			c-0.2,0-0.4,0.2-0.4,0.4c0,0.2,0.2,0.4,0.4,0.4h0.7c0.1,0,0.2-0.1,0.3-0.2l0.4-0.5l0.7,0.7l-0.7,0.6
			C368.7,966.9,368.7,967,368.7,967.1z"/>
		<circle display="inline" fill="#F5F5F5" cx="367.9" cy="964.2" r="0.5"/>
	</g>
	<path fill="#AAD7D3" d="M427.4,938.1c1.9,0,3.7,0.3,5.4,1c0.9,0.3,1.8,0.8,2.6,1.3c1,0.6,1.8,1.4,2.6,2.3c0.8,0.9,1.4,1.9,1.9,3.1
		c0.2-0.5,0.4-0.9,0.7-1.4c2.3-4.3,6.9-7.3,12.1-7.3c1.2,0,2.4,0.2,3.5,0.5c0.9,0.2,1.8,0.6,2.6,1c0.9,0.4,1.7,0.9,2.4,1.5
		c0-0.1,0.1-0.1,0.1-0.2c0.7-1,1.6-1.9,2.6-2.7c2.3-1.9,5.3-3,8.5-3c2.6,0,5,0.8,7.1,2.1c4,2.6,6.7,7.3,6.7,12.3
		c0,0.8-0.1,0.5-0.2,3.1h-6.5h-40h-4.2h-1.6h-19.9C414.2,944,420.1,938.1,427.4,938.1z"/>
	<path fill="#AAD7D3" d="M595.3,945.5c0,0-0.4-0.9-0.7-1.4c-2.3-4.3-6.9-7.3-12.1-7.3c-1.2,0-2.4,0.2-3.5,0.5
		c-0.9,0.2-1.8,0.6-2.6,1c-0.9,0.4-1.7,0.9-2.4,1.5c0-0.1-0.1-0.1-0.1-0.2c-0.7-1-1.6-1.9-2.6-2.7c-2.3-1.9-5.3-3-8.5-3
		c-2.6,0-5,0.8-7.1,2.1c-4,2.6-6.7,7.3-6.7,12.3c0,0.8,0.1,0.5,0.2,3.1h6.5h39.6L595.3,945.5z"/>
	<g>
		<path fill="#AAD7D3" d="M35,941.7h-1.5c-0.2,0-0.3,0.1-0.3,0.3h-0.6c0-0.2-0.1-0.3-0.3-0.3h-1.5c-0.2,0-0.3,0.1-0.3,0.3h-0.9v6.8
			v0.9v0.9h0.9v-0.9h4.9v0.9h0.9v-0.9v-0.9V942h-0.9C35.3,941.8,35.2,941.7,35,941.7z M34,943.1c0,0.2-0.2,0.4-0.4,0.4
			c-0.2,0-0.4-0.2-0.4-0.4c0-0.2,0.2-0.4,0.4-0.4C33.8,942.7,34,942.9,34,943.1z M35,944.1c0.1,0,0.2,0.1,0.2,0.2s-0.1,0.2-0.2,0.2
			h-4.3c-0.1,0-0.2-0.1-0.2-0.2s0.1-0.2,0.2-0.2H35z M32.5,943.1c0,0.2-0.2,0.4-0.4,0.4s-0.4-0.2-0.4-0.4c0-0.2,0.2-0.4,0.4-0.4
			S32.5,942.9,32.5,943.1z M30.6,942.7c0.2,0,0.4,0.2,0.4,0.4c0,0.2-0.2,0.4-0.4,0.4c-0.2,0-0.4-0.2-0.4-0.4
			C30.2,942.9,30.4,942.7,30.6,942.7z M35.6,949.1h-0.3h-4.9h-0.3v-0.3v-3.7h5.5v3.7V949.1L35.6,949.1z M35.2,942.7
			c0.2,0,0.4,0.2,0.4,0.4c0,0.2-0.2,0.4-0.4,0.4c-0.2,0-0.4-0.2-0.4-0.4C34.8,942.9,35,942.7,35.2,942.7z"/>
	</g>
</g>
</svg>
