<?xml version="1.0" encoding="utf-8"?>
<!-- Generator: Adobe Illustrator 18.0.0, SVG Export Plug-In . SVG Version: 6.00 Build 0)  -->
<!DOCTYPE svg PUBLIC "-//W3C//DTD SVG 1.1//EN" "http://www.w3.org/Graphics/SVG/1.1/DTD/svg11.dtd">
<svg version="1.1" id="Layer_2" xmlns="http://www.w3.org/2000/svg" xmlns:xlink="http://www.w3.org/1999/xlink" x="0px" y="0px"
	 viewBox="72.9 359.8 522.2 137.6" enable-background="new 72.9 359.8 522.2 137.6" xml:space="preserve">
<g id="Layer_1_1_">
	<path display="none" fill="#28A197" d="M16.6,449.1h-0.8c0-0.4-0.3-0.6-0.6-0.6h-1.5c-0.4,0-0.6,0.3-0.6,0.6H4.2
		c-1.1,0-2.1,0.9-2.1,2.1v4.2v0.1v2.1c0,0.3,0.2,0.5,0.5,0.5s0.5-0.2,0.5-0.5v-0.9h0.6v0.9c0,0.3,0.2,0.5,0.5,0.5
		c0.3,0,0.5-0.2,0.5-0.5v-0.9h0.4c0.7,0,1.3-0.5,1.6-1.1h3v2.1c0,0.3,0.2,0.5,0.5,0.5c0.3,0,0.5-0.2,0.5-0.5v-2.1h0.7v2.1
		c0,0.3,0.2,0.5,0.5,0.5s0.5-0.2,0.5-0.5v-2.1h0.1c0.7,0,1.3-0.6,1.3-1.3l0.3-1.4h0.9c0.3,0,0.6-0.2,0.6-0.6l0.2-2.1l1-0.5
		c0.1,0,0.2-0.1,0.2-0.2C16.9,449.2,16.8,449.1,16.6,449.1z"/>
	<path display="none" fill="#28A197" d="M43.9,449.1h0.8c0-0.4,0.3-0.6,0.6-0.6h1.5c0.4,0,0.6,0.3,0.6,0.6h8.8
		c1.1,0,2.1,0.9,2.1,2.1v4.2v0.1v2.1c0,0.3-0.2,0.5-0.5,0.5s-0.5-0.2-0.5-0.5v-0.9h-0.6v0.9c0,0.3-0.2,0.5-0.5,0.5
		c-0.3,0-0.5-0.2-0.5-0.5v-0.9h-0.4c-0.7,0-1.3-0.5-1.6-1.1h-3v2.1c0,0.3-0.2,0.5-0.5,0.5s-0.5-0.2-0.5-0.5v-2.1h-0.6v2.1
		c0,0.3-0.2,0.5-0.5,0.5c-0.3,0-0.5-0.2-0.5-0.5v-2.1h-0.1c-0.7,0-1.3-0.6-1.3-1.3l-0.3-1.4H46c-0.3,0-0.6-0.2-0.6-0.6l-0.2-2.1
		l-1-0.5c-0.1,0-0.2-0.1-0.2-0.2C43.6,449.2,43.8,449.1,43.9,449.1z"/>
	<path display="none" fill="#28A197" d="M33.2,449.1h-0.8c0-0.4-0.3-0.6-0.6-0.6h-1.5c-0.4,0-0.6,0.3-0.6,0.6h-8.8
		c-1.1,0-2.1,0.9-2.1,2.1v4.2v0.1v2.1c0,0.3,0.2,0.5,0.5,0.5c0.3,0,0.5-0.2,0.5-0.5v-0.9h0.6v0.9c0,0.3,0.2,0.5,0.5,0.5
		s0.5-0.2,0.5-0.5v-0.9h0.4c0.7,0,1.3-0.5,1.6-1.1h3v2.1c0,0.3,0.2,0.5,0.5,0.5c0.3,0,0.5-0.2,0.5-0.5v-2.1h0.5v2.1
		c0,0.3,0.2,0.5,0.5,0.5s0.5-0.2,0.5-0.5v-2.1h0.1c0.7,0,1.3-0.6,1.3-1.3l0.3-1.4h0.8c0.3,0,0.6-0.2,0.6-0.6l0.2-2.1l1-0.5
		c0.1,0,0.2-0.1,0.2-0.2C33.4,449.2,33.3,449.1,33.2,449.1z"/>
	<g display="none">
		<g display="inline">
			<g>
				<g>
					<g id="XMLID_110_">
						<g>
							<path fill="#28A197" d="M145.9,458h-0.1h-0.3v-7.1v-0.1c0-0.1,0.1-0.1,0.1-0.1s0.2,0.1,0.2,0.2L145.9,458L145.9,458z"/>
						</g>
					</g>
				</g>
				<path fill="#28A197" d="M145.3,454.1c0.4,0.4,0.3,1.1,0.3,1.1s-0.6-0.1-1-0.5c-0.4-0.4-0.3-1.1-0.3-1.1S144.9,453.6,145.3,454.1
					z"/>
				<path fill="#28A197" d="M146.2,450.2c0,0.6-0.5,1.1-0.5,1.1s-0.5-0.5-0.5-1.1c0-0.6,0.5-1.1,0.5-1.1S146.2,449.6,146.2,450.2z"
					/>
				<path fill="#28A197" d="M146.2,454.1c-0.4,0.4-0.3,1.1-0.3,1.1s0.6-0.1,1-0.5c0.4-0.4,0.3-1.1,0.3-1.1S146.6,453.6,146.2,454.1z
					"/>
				<path fill="#28A197" d="M145.3,451.1c0.4,0.4,0.3,1.1,0.3,1.1s-0.6-0.1-1-0.5s-0.3-1.1-0.3-1.1S144.9,450.7,145.3,451.1z"/>
				<path fill="#28A197" d="M146.2,451.1c-0.4,0.4-0.3,1.1-0.3,1.1s0.6-0.1,1-0.5s0.3-1.1,0.3-1.1S146.6,450.7,146.2,451.1z"/>
				<path fill="#28A197" d="M145.3,452.6c0.4,0.4,0.3,1.1,0.3,1.1s-0.6-0.1-1-0.5c-0.4-0.4-0.3-1.1-0.3-1.1S144.9,452.2,145.3,452.6
					z"/>
				<path fill="#28A197" d="M146.2,452.6c-0.4,0.4-0.3,1.1-0.3,1.1s0.6-0.1,1-0.5c0.4-0.4,0.3-1.1,0.3-1.1S146.6,452.2,146.2,452.6z
					"/>
				<path fill="#28A197" d="M145.3,455.6c0.4,0.4,0.3,1.1,0.3,1.1s-0.6-0.1-1-0.5s-0.3-1.1-0.3-1.1S144.9,455.1,145.3,455.6z"/>
				<path fill="#28A197" d="M146.2,455.6c-0.4,0.4-0.3,1.1-0.3,1.1s0.6-0.1,1-0.5s0.3-1.1,0.3-1.1S146.6,455.1,146.2,455.6z"/>
			</g>
		</g>
		<g display="inline">
			<g>
				<g>
					<g id="XMLID_107_">
						<g>
							<path fill="#28A197" d="M141.5,458h-0.1h-0.3v-7.1v-0.1c0-0.1,0.1-0.1,0.1-0.1s0.2,0.1,0.2,0.2L141.5,458L141.5,458z"/>
						</g>
					</g>
				</g>
				<path fill="#28A197" d="M140.8,454.1c0.4,0.4,0.3,1.1,0.3,1.1s-0.6-0.1-1-0.5c-0.4-0.4-0.3-1.1-0.3-1.1S140.5,453.6,140.8,454.1
					z"/>
				<path fill="#28A197" d="M141.8,450.2c0,0.6-0.5,1.1-0.5,1.1s-0.5-0.5-0.5-1.1c0-0.6,0.5-1.1,0.5-1.1S141.8,449.6,141.8,450.2z"
					/>
				<path fill="#28A197" d="M141.8,454.1c-0.4,0.4-0.3,1.1-0.3,1.1s0.6-0.1,1-0.5c0.4-0.4,0.3-1.1,0.3-1.1S142.1,453.6,141.8,454.1z
					"/>
				<path fill="#28A197" d="M140.8,451.1c0.4,0.4,0.3,1.1,0.3,1.1s-0.6-0.1-1-0.5c-0.4-0.4-0.3-1.1-0.3-1.1S140.5,450.7,140.8,451.1
					z"/>
				<path fill="#28A197" d="M141.8,451.1c-0.4,0.4-0.3,1.1-0.3,1.1s0.6-0.1,1-0.5s0.3-1.1,0.3-1.1S142.1,450.7,141.8,451.1z"/>
				<path fill="#28A197" d="M140.8,452.6c0.4,0.4,0.3,1.1,0.3,1.1s-0.6-0.1-1-0.5c-0.4-0.4-0.3-1.1-0.3-1.1S140.5,452.2,140.8,452.6
					z"/>
				<path fill="#28A197" d="M141.8,452.6c-0.4,0.4-0.3,1.1-0.3,1.1s0.6-0.1,1-0.5c0.4-0.4,0.3-1.1,0.3-1.1S142.1,452.2,141.8,452.6z
					"/>
				<path fill="#28A197" d="M140.8,455.6c0.4,0.4,0.3,1.1,0.3,1.1s-0.6-0.1-1-0.5c-0.4-0.4-0.3-1.1-0.3-1.1S140.5,455.1,140.8,455.6
					z"/>
				<path fill="#28A197" d="M141.8,455.6c-0.4,0.4-0.3,1.1-0.3,1.1s0.6-0.1,1-0.5s0.3-1.1,0.3-1.1S142.1,455.1,141.8,455.6z"/>
			</g>
		</g>
		<g display="inline">
			<g>
				<g>
					<g id="XMLID_104_">
						<g>
							<path fill="#28A197" d="M137,458h-0.1h-0.3v-7.1v-0.1c0-0.1,0.1-0.1,0.1-0.1s0.2,0.1,0.2,0.2L137,458L137,458z"/>
						</g>
					</g>
				</g>
				<path fill="#28A197" d="M136.4,454.1c0.4,0.4,0.3,1.1,0.3,1.1s-0.6-0.1-1-0.5c-0.4-0.4-0.3-1.1-0.3-1.1S136,453.6,136.4,454.1z"
					/>
				<path fill="#28A197" d="M137.3,450.2c0,0.6-0.5,1.1-0.5,1.1s-0.5-0.5-0.5-1.1c0-0.6,0.5-1.1,0.5-1.1S137.3,449.6,137.3,450.2z"
					/>
				<path fill="#28A197" d="M137.2,454.1c-0.4,0.4-0.3,1.1-0.3,1.1s0.6-0.1,1-0.5c0.4-0.4,0.3-1.1,0.3-1.1S137.7,453.6,137.2,454.1z
					"/>
				<path fill="#28A197" d="M136.4,451.1c0.4,0.4,0.3,1.1,0.3,1.1s-0.6-0.1-1-0.5c-0.4-0.4-0.3-1.1-0.3-1.1S136,450.7,136.4,451.1z"
					/>
				<path fill="#28A197" d="M137.2,451.1c-0.4,0.4-0.3,1.1-0.3,1.1s0.6-0.1,1-0.5s0.3-1.1,0.3-1.1S137.7,450.7,137.2,451.1z"/>
				<path fill="#28A197" d="M136.4,452.6c0.4,0.4,0.3,1.1,0.3,1.1s-0.6-0.1-1-0.5c-0.4-0.4-0.3-1.1-0.3-1.1S136,452.2,136.4,452.6z"
					/>
				<path fill="#28A197" d="M137.2,452.6c-0.4,0.4-0.3,1.1-0.3,1.1s0.6-0.1,1-0.5c0.4-0.4,0.3-1.1,0.3-1.1S137.7,452.2,137.2,452.6z
					"/>
				<path fill="#28A197" d="M136.4,455.6c0.4,0.4,0.3,1.1,0.3,1.1s-0.6-0.1-1-0.5c-0.4-0.4-0.3-1.1-0.3-1.1S136,455.1,136.4,455.6z"
					/>
				<path fill="#28A197" d="M137.2,455.6c-0.4,0.4-0.3,1.1-0.3,1.1s0.6-0.1,1-0.5s0.3-1.1,0.3-1.1S137.7,455.1,137.2,455.6z"/>
			</g>
		</g>
		<g display="inline">
			<g>
				<g>
					<g id="XMLID_101_">
						<g>
							<path fill="#28A197" d="M132.6,458h-0.1h-0.3v-7.1v-0.1c0-0.1,0.1-0.1,0.1-0.1c0.1,0,0.2,0.1,0.2,0.2L132.6,458L132.6,458z"
								/>
						</g>
					</g>
				</g>
				<path fill="#28A197" d="M131.9,454.1c0.4,0.4,0.3,1.1,0.3,1.1s-0.6-0.1-1-0.5c-0.4-0.4-0.3-1.1-0.3-1.1S131.6,453.6,131.9,454.1
					z"/>
				<path fill="#28A197" d="M132.9,450.2c0,0.6-0.5,1.1-0.5,1.1s-0.5-0.5-0.5-1.1c0-0.6,0.5-1.1,0.5-1.1S132.9,449.6,132.9,450.2z"
					/>
				<path fill="#28A197" d="M132.8,454.1c-0.4,0.4-0.3,1.1-0.3,1.1s0.6-0.1,1-0.5c0.4-0.4,0.3-1.1,0.3-1.1S133.2,453.6,132.8,454.1z
					"/>
				<path fill="#28A197" d="M131.9,451.1c0.4,0.4,0.3,1.1,0.3,1.1s-0.6-0.1-1-0.5c-0.4-0.4-0.3-1.1-0.3-1.1S131.6,450.7,131.9,451.1
					z"/>
				<path fill="#28A197" d="M132.8,451.1c-0.4,0.4-0.3,1.1-0.3,1.1s0.6-0.1,1-0.5s0.3-1.1,0.3-1.1S133.2,450.7,132.8,451.1z"/>
				<path fill="#28A197" d="M131.9,452.6c0.4,0.4,0.3,1.1,0.3,1.1s-0.6-0.1-1-0.5c-0.4-0.4-0.3-1.1-0.3-1.1S131.6,452.2,131.9,452.6
					z"/>
				<path fill="#28A197" d="M132.8,452.6c-0.4,0.4-0.3,1.1-0.3,1.1s0.6-0.1,1-0.5c0.4-0.4,0.3-1.1,0.3-1.1S133.2,452.2,132.8,452.6z
					"/>
				<path fill="#28A197" d="M131.9,455.6c0.4,0.4,0.3,1.1,0.3,1.1s-0.6-0.1-1-0.5c-0.4-0.4-0.3-1.1-0.3-1.1S131.6,455.1,131.9,455.6
					z"/>
				<path fill="#28A197" d="M132.8,455.6c-0.4,0.4-0.3,1.1-0.3,1.1s0.6-0.1,1-0.5s0.3-1.1,0.3-1.1S133.2,455.1,132.8,455.6z"/>
			</g>
		</g>
		<g display="inline">
			<g>
				<g>
					<g id="XMLID_98_">
						<g>
							<path fill="#28A197" d="M128.1,458H128h-0.3v-7.1v-0.1c0-0.1,0.1-0.1,0.1-0.1c0.1,0,0.2,0.1,0.2,0.2L128.1,458L128.1,458z"/>
						</g>
					</g>
				</g>
				<path fill="#28A197" d="M127.5,454.1c0.4,0.4,0.3,1.1,0.3,1.1s-0.6-0.1-1-0.5c-0.4-0.4-0.3-1.1-0.3-1.1S127.1,453.6,127.5,454.1
					z"/>
				<path fill="#28A197" d="M128.4,450.2c0,0.6-0.5,1.1-0.5,1.1s-0.5-0.5-0.5-1.1c0-0.6,0.5-1.1,0.5-1.1S128.4,449.6,128.4,450.2z"
					/>
				<path fill="#28A197" d="M128.3,454.1c-0.4,0.4-0.3,1.1-0.3,1.1s0.6-0.1,1-0.5c0.4-0.4,0.3-1.1,0.3-1.1S128.8,453.6,128.3,454.1z
					"/>
				<path fill="#28A197" d="M127.5,451.1c0.4,0.4,0.3,1.1,0.3,1.1s-0.6-0.1-1-0.5s-0.3-1.1-0.3-1.1S127.1,450.7,127.5,451.1z"/>
				<path fill="#28A197" d="M128.3,451.1c-0.4,0.4-0.3,1.1-0.3,1.1s0.6-0.1,1-0.5s0.3-1.1,0.3-1.1S128.8,450.7,128.3,451.1z"/>
				<path fill="#28A197" d="M127.5,452.6c0.4,0.4,0.3,1.1,0.3,1.1s-0.6-0.1-1-0.5c-0.4-0.4-0.3-1.1-0.3-1.1S127.1,452.2,127.5,452.6
					z"/>
				<path fill="#28A197" d="M128.3,452.6c-0.4,0.4-0.3,1.1-0.3,1.1s0.6-0.1,1-0.5c0.4-0.4,0.3-1.1,0.3-1.1S128.8,452.2,128.3,452.6z
					"/>
				<path fill="#28A197" d="M127.5,455.6c0.4,0.4,0.3,1.1,0.3,1.1s-0.6-0.1-1-0.5s-0.3-1.1-0.3-1.1S127.1,455.1,127.5,455.6z"/>
				<path fill="#28A197" d="M128.3,455.6c-0.4,0.4-0.3,1.1-0.3,1.1s0.6-0.1,1-0.5s0.3-1.1,0.3-1.1S128.8,455.1,128.3,455.6z"/>
			</g>
		</g>
		<g display="inline">
			<g>
				<g>
					<g id="XMLID_95_">
						<g>
							<path fill="#28A197" d="M123.7,458h-0.1h-0.3v-7.1v-0.1c0-0.1,0.1-0.1,0.1-0.1c0.1,0,0.2,0.1,0.2,0.2L123.7,458L123.7,458z"
								/>
						</g>
					</g>
				</g>
				<path fill="#28A197" d="M123,454.1c0.4,0.4,0.3,1.1,0.3,1.1s-0.6-0.1-1-0.5c-0.4-0.4-0.3-1.1-0.3-1.1S122.6,453.6,123,454.1z"/>
				<path fill="#28A197" d="M123.9,450.2c0,0.6-0.5,1.1-0.5,1.1s-0.5-0.5-0.5-1.1c0-0.6,0.5-1.1,0.5-1.1S123.9,449.6,123.9,450.2z"
					/>
				<path fill="#28A197" d="M123.9,454.1c-0.4,0.4-0.3,1.1-0.3,1.1s0.6-0.1,1-0.5c0.4-0.4,0.3-1.1,0.3-1.1S124.2,453.6,123.9,454.1z
					"/>
				<path fill="#28A197" d="M123,451.1c0.4,0.4,0.3,1.1,0.3,1.1s-0.6-0.1-1-0.5c-0.4-0.4-0.3-1.1-0.3-1.1S122.6,450.7,123,451.1z"/>
				<path fill="#28A197" d="M123.9,451.1c-0.4,0.4-0.3,1.1-0.3,1.1s0.6-0.1,1-0.5c0.4-0.4,0.3-1.1,0.3-1.1S124.2,450.7,123.9,451.1z
					"/>
				<path fill="#28A197" d="M123,452.6c0.4,0.4,0.3,1.1,0.3,1.1s-0.6-0.1-1-0.5c-0.4-0.4-0.3-1.1-0.3-1.1S122.6,452.2,123,452.6z"/>
				<path fill="#28A197" d="M123.9,452.6c-0.4,0.4-0.3,1.1-0.3,1.1s0.6-0.1,1-0.5c0.4-0.4,0.3-1.1,0.3-1.1S124.2,452.2,123.9,452.6z
					"/>
				<path fill="#28A197" d="M123,455.6c0.4,0.4,0.3,1.1,0.3,1.1s-0.6-0.1-1-0.5c-0.4-0.4-0.3-1.1-0.3-1.1S122.6,455.1,123,455.6z"/>
				<path fill="#28A197" d="M123.9,455.6c-0.4,0.4-0.3,1.1-0.3,1.1s0.6-0.1,1-0.5c0.4-0.4,0.3-1.1,0.3-1.1S124.2,455.1,123.9,455.6z
					"/>
			</g>
		</g>
		<g display="inline">
			<g>
				<g>
					<g id="XMLID_92_">
						<g>
							<path fill="#28A197" d="M119.1,458H119h-0.2v-7.1v-0.1c0-0.1,0.1-0.1,0.1-0.1c0.1,0,0.2,0.1,0.2,0.2V458L119.1,458z"/>
						</g>
					</g>
				</g>
				<path fill="#28A197" d="M118.5,454.1c0.4,0.4,0.3,1.1,0.3,1.1s-0.6-0.1-1-0.5c-0.4-0.4-0.3-1.1-0.3-1.1S118.2,453.6,118.5,454.1
					z"/>
				<path fill="#28A197" d="M119.4,450.2c0,0.6-0.5,1.1-0.5,1.1s-0.5-0.5-0.5-1.1c0-0.6,0.5-1.1,0.5-1.1S119.4,449.6,119.4,450.2z"
					/>
				<path fill="#28A197" d="M119.4,454.1c-0.4,0.4-0.3,1.1-0.3,1.1s0.6-0.1,1-0.5c0.4-0.4,0.3-1.1,0.3-1.1S119.8,453.6,119.4,454.1z
					"/>
				<path fill="#28A197" d="M118.5,451.1c0.4,0.4,0.3,1.1,0.3,1.1s-0.6-0.1-1-0.5c-0.4-0.4-0.3-1.1-0.3-1.1S118.2,450.7,118.5,451.1
					z"/>
				<path fill="#28A197" d="M119.4,451.1c-0.4,0.4-0.3,1.1-0.3,1.1s0.6-0.1,1-0.5s0.3-1.1,0.3-1.1S119.8,450.7,119.4,451.1z"/>
				<path fill="#28A197" d="M118.5,452.6c0.4,0.4,0.3,1.1,0.3,1.1s-0.6-0.1-1-0.5c-0.4-0.4-0.3-1.1-0.3-1.1S118.2,452.2,118.5,452.6
					z"/>
				<path fill="#28A197" d="M119.4,452.6c-0.4,0.4-0.3,1.1-0.3,1.1s0.6-0.1,1-0.5c0.4-0.4,0.3-1.1,0.3-1.1S119.8,452.2,119.4,452.6z
					"/>
				<path fill="#28A197" d="M118.5,455.6c0.4,0.4,0.3,1.1,0.3,1.1s-0.6-0.1-1-0.5c-0.4-0.4-0.3-1.1-0.3-1.1S118.2,455.1,118.5,455.6
					z"/>
				<path fill="#28A197" d="M119.4,455.6c-0.4,0.4-0.3,1.1-0.3,1.1s0.6-0.1,1-0.5s0.3-1.1,0.3-1.1S119.8,455.1,119.4,455.6z"/>
			</g>
		</g>
		<g display="inline">
			<g>
				<g>
					<g id="XMLID_89_">
						<g>
							<path fill="#28A197" d="M114.7,458h-0.1h-0.3v-7.1v-0.1c0-0.1,0.1-0.1,0.1-0.1c0.1,0,0.2,0.1,0.2,0.2L114.7,458L114.7,458z"
								/>
						</g>
					</g>
				</g>
				<path fill="#28A197" d="M114,454.1c0.4,0.4,0.3,1.1,0.3,1.1s-0.6-0.1-1-0.5c-0.4-0.4-0.3-1.1-0.3-1.1S113.7,453.6,114,454.1z"/>
				<path fill="#28A197" d="M115,450.2c0,0.6-0.5,1.1-0.5,1.1s-0.5-0.5-0.5-1.1c0-0.6,0.5-1.1,0.5-1.1S115,449.6,115,450.2z"/>
				<path fill="#28A197" d="M115,454.1c-0.4,0.4-0.3,1.1-0.3,1.1s0.6-0.1,1-0.5c0.4-0.4,0.3-1.1,0.3-1.1S115.3,453.6,115,454.1z"/>
				<path fill="#28A197" d="M114,451.1c0.4,0.4,0.3,1.1,0.3,1.1s-0.6-0.1-1-0.5c-0.4-0.4-0.3-1.1-0.3-1.1S113.7,450.7,114,451.1z"/>
				<path fill="#28A197" d="M115,451.1c-0.4,0.4-0.3,1.1-0.3,1.1s0.6-0.1,1-0.5c0.4-0.4,0.3-1.1,0.3-1.1S115.3,450.7,115,451.1z"/>
				<path fill="#28A197" d="M114,452.6c0.4,0.4,0.3,1.1,0.3,1.1s-0.6-0.1-1-0.5c-0.4-0.4-0.3-1.1-0.3-1.1S113.7,452.2,114,452.6z"/>
				<path fill="#28A197" d="M115,452.6c-0.4,0.4-0.3,1.1-0.3,1.1s0.6-0.1,1-0.5c0.4-0.4,0.3-1.1,0.3-1.1S115.3,452.2,115,452.6z"/>
				<path fill="#28A197" d="M114,455.6c0.4,0.4,0.3,1.1,0.3,1.1s-0.6-0.1-1-0.5c-0.4-0.4-0.3-1.1-0.3-1.1S113.7,455.1,114,455.6z"/>
				<path fill="#28A197" d="M115,455.6c-0.4,0.4-0.3,1.1-0.3,1.1s0.6-0.1,1-0.5c0.4-0.4,0.3-1.1,0.3-1.1S115.3,455.1,115,455.6z"/>
			</g>
		</g>
		<g display="inline">
			<g>
				<g>
					<g id="XMLID_86_">
						<g>
							<path fill="#28A197" d="M110.2,458h-0.1h-0.3v-7.1v-0.1c0-0.1,0.1-0.1,0.1-0.1c0.1,0,0.2,0.1,0.2,0.2L110.2,458L110.2,458z"
								/>
						</g>
					</g>
				</g>
				<path fill="#28A197" d="M109.6,454.1c0.4,0.4,0.3,1.1,0.3,1.1s-0.6-0.1-1-0.5c-0.4-0.4-0.3-1.1-0.3-1.1S109.2,453.6,109.6,454.1
					z"/>
				<path fill="#28A197" d="M110.5,450.2c0,0.6-0.5,1.1-0.5,1.1s-0.5-0.5-0.5-1.1c0-0.6,0.5-1.1,0.5-1.1S110.5,449.6,110.5,450.2z"
					/>
				<path fill="#28A197" d="M110.5,454.1c-0.4,0.4-0.3,1.1-0.3,1.1s0.6-0.1,1-0.5c0.4-0.4,0.3-1.1,0.3-1.1S110.9,453.6,110.5,454.1z
					"/>
				<path fill="#28A197" d="M109.6,451.1c0.4,0.4,0.3,1.1,0.3,1.1s-0.6-0.1-1-0.5c-0.4-0.4-0.3-1.1-0.3-1.1S109.2,450.7,109.6,451.1
					z"/>
				<path fill="#28A197" d="M110.5,451.1c-0.4,0.4-0.3,1.1-0.3,1.1s0.6-0.1,1-0.5s0.3-1.1,0.3-1.1S110.9,450.7,110.5,451.1z"/>
				<path fill="#28A197" d="M109.6,452.6c0.4,0.4,0.3,1.1,0.3,1.1s-0.6-0.1-1-0.5c-0.4-0.4-0.3-1.1-0.3-1.1S109.2,452.2,109.6,452.6
					z"/>
				<path fill="#28A197" d="M110.5,452.6c-0.4,0.4-0.3,1.1-0.3,1.1s0.6-0.1,1-0.5c0.4-0.4,0.3-1.1,0.3-1.1S110.9,452.2,110.5,452.6z
					"/>
				<path fill="#28A197" d="M109.6,455.6c0.4,0.4,0.3,1.1,0.3,1.1s-0.6-0.1-1-0.5c-0.4-0.4-0.3-1.1-0.3-1.1S109.2,455.1,109.6,455.6
					z"/>
				<path fill="#28A197" d="M110.5,455.6c-0.4,0.4-0.3,1.1-0.3,1.1s0.6-0.1,1-0.5s0.3-1.1,0.3-1.1S110.9,455.1,110.5,455.6z"/>
			</g>
		</g>
		<g display="inline">
			<g>
				<g>
					<g id="XMLID_83_">
						<g>
							<path fill="#28A197" d="M105.8,458h-0.1h-0.3v-7.1v-0.1c0-0.1,0.1-0.1,0.1-0.1c0.1,0,0.2,0.1,0.2,0.2L105.8,458L105.8,458z"
								/>
						</g>
					</g>
				</g>
				<path fill="#28A197" d="M105.1,454.1c0.4,0.4,0.3,1.1,0.3,1.1s-0.6-0.1-1-0.5c-0.4-0.4-0.3-1.1-0.3-1.1S104.8,453.6,105.1,454.1
					z"/>
				<path fill="#28A197" d="M106.1,450.2c0,0.6-0.5,1.1-0.5,1.1s-0.5-0.5-0.5-1.1c0-0.6,0.5-1.1,0.5-1.1S106.1,449.6,106.1,450.2z"
					/>
				<path fill="#28A197" d="M106.1,454.1c-0.4,0.4-0.3,1.1-0.3,1.1s0.6-0.1,1-0.5c0.4-0.4,0.3-1.1,0.3-1.1S106.4,453.6,106.1,454.1z
					"/>
				<path fill="#28A197" d="M105.1,451.1c0.4,0.4,0.3,1.1,0.3,1.1s-0.6-0.1-1-0.5c-0.4-0.4-0.3-1.1-0.3-1.1S104.8,450.7,105.1,451.1
					z"/>
				<path fill="#28A197" d="M106.1,451.1c-0.4,0.4-0.3,1.1-0.3,1.1s0.6-0.1,1-0.5c0.4-0.4,0.3-1.1,0.3-1.1S106.4,450.7,106.1,451.1z
					"/>
				<path fill="#28A197" d="M105.1,452.6c0.4,0.4,0.3,1.1,0.3,1.1s-0.6-0.1-1-0.5c-0.4-0.4-0.3-1.1-0.3-1.1S104.8,452.2,105.1,452.6
					z"/>
				<path fill="#28A197" d="M106.1,452.6c-0.4,0.4-0.3,1.1-0.3,1.1s0.6-0.1,1-0.5c0.4-0.4,0.3-1.1,0.3-1.1S106.4,452.2,106.1,452.6z
					"/>
				<path fill="#28A197" d="M105.1,455.6c0.4,0.4,0.3,1.1,0.3,1.1s-0.6-0.1-1-0.5c-0.4-0.4-0.3-1.1-0.3-1.1S104.8,455.1,105.1,455.6
					z"/>
				<path fill="#28A197" d="M106.1,455.6c-0.4,0.4-0.3,1.1-0.3,1.1s0.6-0.1,1-0.5c0.4-0.4,0.3-1.1,0.3-1.1S106.4,455.1,106.1,455.6z
					"/>
			</g>
		</g>
		<g display="inline">
			<g>
				<g>
					<g id="XMLID_80_">
						<g>
							<path fill="#28A197" d="M101.3,458h-0.1h-0.3v-7.1v-0.1c0-0.1,0.1-0.1,0.1-0.1c0.1,0,0.2,0.1,0.2,0.2L101.3,458L101.3,458z"
								/>
						</g>
					</g>
				</g>
				<path fill="#28A197" d="M100.7,454.1c0.4,0.4,0.3,1.1,0.3,1.1s-0.6-0.1-1-0.5c-0.4-0.4-0.3-1.1-0.3-1.1S100.3,453.6,100.7,454.1
					z"/>
				<path fill="#28A197" d="M101.6,450.2c0,0.6-0.5,1.1-0.5,1.1s-0.5-0.5-0.5-1.1c0-0.6,0.5-1.1,0.5-1.1S101.6,449.6,101.6,450.2z"
					/>
				<path fill="#28A197" d="M101.5,454.1c-0.4,0.4-0.3,1.1-0.3,1.1s0.6-0.1,1-0.5c0.4-0.4,0.3-1.1,0.3-1.1S102,453.6,101.5,454.1z"
					/>
				<path fill="#28A197" d="M100.7,451.1c0.4,0.4,0.3,1.1,0.3,1.1s-0.6-0.1-1-0.5s-0.3-1.1-0.3-1.1S100.3,450.7,100.7,451.1z"/>
				<path fill="#28A197" d="M101.5,451.1c-0.4,0.4-0.3,1.1-0.3,1.1s0.6-0.1,1-0.5c0.4-0.4,0.3-1.1,0.3-1.1S102,450.7,101.5,451.1z"
					/>
				<path fill="#28A197" d="M100.7,452.6c0.4,0.4,0.3,1.1,0.3,1.1s-0.6-0.1-1-0.5c-0.4-0.4-0.3-1.1-0.3-1.1S100.3,452.2,100.7,452.6
					z"/>
				<path fill="#28A197" d="M101.5,452.6c-0.4,0.4-0.3,1.1-0.3,1.1s0.6-0.1,1-0.5c0.4-0.4,0.3-1.1,0.3-1.1S102,452.2,101.5,452.6z"
					/>
				<path fill="#28A197" d="M100.7,455.6c0.4,0.4,0.3,1.1,0.3,1.1s-0.6-0.1-1-0.5s-0.3-1.1-0.3-1.1S100.3,455.1,100.7,455.6z"/>
				<path fill="#28A197" d="M101.5,455.6c-0.4,0.4-0.3,1.1-0.3,1.1s0.6-0.1,1-0.5c0.4-0.4,0.3-1.1,0.3-1.1S102,455.1,101.5,455.6z"
					/>
			</g>
		</g>
		<g display="inline">
			<g>
				<g>
					<g id="XMLID_77_">
						<g>
							<path fill="#28A197" d="M96.9,458h-0.1h-0.3v-7.1v-0.1c0-0.1,0.1-0.1,0.1-0.1c0.1,0,0.2,0.1,0.2,0.2L96.9,458L96.9,458z"/>
						</g>
					</g>
				</g>
				<path fill="#28A197" d="M96.2,454.1c0.4,0.4,0.3,1.1,0.3,1.1s-0.6-0.1-1-0.5c-0.4-0.4-0.3-1.1-0.3-1.1S95.8,453.6,96.2,454.1z"
					/>
				<path fill="#28A197" d="M97.2,450.2c0,0.6-0.5,1.1-0.5,1.1s-0.5-0.5-0.5-1.1c0-0.6,0.5-1.1,0.5-1.1S97.2,449.6,97.2,450.2z"/>
				<path fill="#28A197" d="M97.1,454.1c-0.4,0.4-0.3,1.1-0.3,1.1s0.6-0.1,1-0.5c0.4-0.4,0.3-1.1,0.3-1.1S97.5,453.6,97.1,454.1z"/>
				<path fill="#28A197" d="M96.2,451.1c0.4,0.4,0.3,1.1,0.3,1.1s-0.6-0.1-1-0.5c-0.4-0.4-0.3-1.1-0.3-1.1S95.8,450.7,96.2,451.1z"
					/>
				<path fill="#28A197" d="M97.1,451.1c-0.4,0.4-0.3,1.1-0.3,1.1s0.6-0.1,1-0.5s0.3-1.1,0.3-1.1S97.5,450.7,97.1,451.1z"/>
				<path fill="#28A197" d="M96.2,452.6c0.4,0.4,0.3,1.1,0.3,1.1s-0.6-0.1-1-0.5c-0.4-0.4-0.3-1.1-0.3-1.1S95.8,452.2,96.2,452.6z"
					/>
				<path fill="#28A197" d="M97.1,452.6c-0.4,0.4-0.3,1.1-0.3,1.1s0.6-0.1,1-0.5c0.4-0.4,0.3-1.1,0.3-1.1S97.5,452.2,97.1,452.6z"/>
				<path fill="#28A197" d="M96.2,455.6c0.4,0.4,0.3,1.1,0.3,1.1s-0.6-0.1-1-0.5c-0.4-0.4-0.3-1.1-0.3-1.1S95.8,455.1,96.2,455.6z"
					/>
				<path fill="#28A197" d="M97.1,455.6c-0.4,0.4-0.3,1.1-0.3,1.1s0.6-0.1,1-0.5s0.3-1.1,0.3-1.1S97.5,455.1,97.1,455.6z"/>
			</g>
		</g>
		<g display="inline">
			<g>
				<g>
					<g id="XMLID_74_">
						<g>
							<path fill="#28A197" d="M92.3,458h-0.1h-0.3v-7.1v-0.1c0-0.1,0.1-0.1,0.1-0.1c0.1,0,0.2,0.1,0.2,0.2L92.3,458L92.3,458z"/>
						</g>
					</g>
				</g>
				<path fill="#28A197" d="M91.7,454.1c0.4,0.4,0.3,1.1,0.3,1.1s-0.6-0.1-1-0.5c-0.4-0.4-0.3-1.1-0.3-1.1S91.4,453.6,91.7,454.1z"
					/>
				<path fill="#28A197" d="M92.7,450.2c0,0.6-0.5,1.1-0.5,1.1s-0.5-0.5-0.5-1.1c0-0.6,0.5-1.1,0.5-1.1S92.6,449.6,92.7,450.2z"/>
				<path fill="#28A197" d="M92.6,454.1c-0.4,0.4-0.3,1.1-0.3,1.1s0.6-0.1,1-0.5c0.4-0.4,0.3-1.1,0.3-1.1S93,453.6,92.6,454.1z"/>
				<path fill="#28A197" d="M91.7,451.1c0.4,0.4,0.3,1.1,0.3,1.1s-0.6-0.1-1-0.5c-0.4-0.4-0.3-1.1-0.3-1.1S91.4,450.7,91.7,451.1z"
					/>
				<path fill="#28A197" d="M92.6,451.1c-0.4,0.4-0.3,1.1-0.3,1.1s0.6-0.1,1-0.5c0.4-0.4,0.3-1.1,0.3-1.1S93,450.7,92.6,451.1z"/>
				<path fill="#28A197" d="M91.7,452.6c0.4,0.4,0.3,1.1,0.3,1.1s-0.6-0.1-1-0.5c-0.4-0.4-0.3-1.1-0.3-1.1S91.4,452.2,91.7,452.6z"
					/>
				<path fill="#28A197" d="M92.6,452.6c-0.4,0.4-0.3,1.1-0.3,1.1s0.6-0.1,1-0.5c0.4-0.4,0.3-1.1,0.3-1.1S93,452.2,92.6,452.6z"/>
				<path fill="#28A197" d="M91.7,455.6c0.4,0.4,0.3,1.1,0.3,1.1s-0.6-0.1-1-0.5c-0.4-0.4-0.3-1.1-0.3-1.1S91.4,455.1,91.7,455.6z"
					/>
				<path fill="#28A197" d="M92.6,455.6c-0.4,0.4-0.3,1.1-0.3,1.1s0.6-0.1,1-0.5c0.4-0.4,0.3-1.1,0.3-1.1S93,455.1,92.6,455.6z"/>
			</g>
		</g>
		<g display="inline">
			<g>
				<g>
					<g id="XMLID_71_">
						<g>
							<path fill="#28A197" d="M87.9,458h-0.1h-0.3v-7.1v-0.1c0-0.1,0.1-0.1,0.1-0.1c0.1,0,0.2,0.1,0.2,0.2L87.9,458L87.9,458z"/>
						</g>
					</g>
				</g>
				<path fill="#28A197" d="M87.3,454.1c0.4,0.4,0.3,1.1,0.3,1.1s-0.6-0.1-1-0.5c-0.4-0.4-0.3-1.1-0.3-1.1S86.9,453.6,87.3,454.1z"
					/>
				<path fill="#28A197" d="M88.2,450.2c0,0.6-0.5,1.1-0.5,1.1s-0.5-0.5-0.5-1.1c0-0.6,0.5-1.1,0.5-1.1S88.2,449.6,88.2,450.2z"/>
				<path fill="#28A197" d="M88.2,454.1c-0.4,0.4-0.3,1.1-0.3,1.1s0.6-0.1,1-0.5c0.4-0.4,0.3-1.1,0.3-1.1S88.5,453.6,88.2,454.1z"/>
				<path fill="#28A197" d="M87.3,451.1c0.4,0.4,0.3,1.1,0.3,1.1s-0.6-0.1-1-0.5c-0.4-0.4-0.3-1.1-0.3-1.1S86.9,450.7,87.3,451.1z"
					/>
				<path fill="#28A197" d="M88.2,451.1c-0.4,0.4-0.3,1.1-0.3,1.1s0.6-0.1,1-0.5c0.4-0.4,0.3-1.1,0.3-1.1S88.5,450.7,88.2,451.1z"/>
				<path fill="#28A197" d="M87.3,452.6c0.4,0.4,0.3,1.1,0.3,1.1s-0.6-0.1-1-0.5c-0.4-0.4-0.3-1.1-0.3-1.1S86.9,452.2,87.3,452.6z"
					/>
				<path fill="#28A197" d="M88.2,452.6c-0.4,0.4-0.3,1.1-0.3,1.1s0.6-0.1,1-0.5c0.4-0.4,0.3-1.1,0.3-1.1S88.5,452.2,88.2,452.6z"/>
				<path fill="#28A197" d="M87.3,455.6c0.4,0.4,0.3,1.1,0.3,1.1s-0.6-0.1-1-0.5c-0.4-0.4-0.3-1.1-0.3-1.1S86.9,455.1,87.3,455.6z"
					/>
				<path fill="#28A197" d="M88.2,455.6c-0.4,0.4-0.3,1.1-0.3,1.1s0.6-0.1,1-0.5c0.4-0.4,0.3-1.1,0.3-1.1S88.5,455.1,88.2,455.6z"/>
			</g>
		</g>
		<g display="inline">
			<g>
				<g>
					<g id="XMLID_68_">
						<g>
							<path fill="#28A197" d="M83.4,458h-0.1H83v-7.1v-0.1c0-0.1,0.1-0.1,0.1-0.1c0.1,0,0.2,0.1,0.2,0.2L83.4,458L83.4,458z"/>
						</g>
					</g>
				</g>
				<path fill="#28A197" d="M82.8,454.1c0.4,0.4,0.3,1.1,0.3,1.1s-0.6-0.1-1-0.5c-0.4-0.4-0.3-1.1-0.3-1.1S82.4,453.6,82.8,454.1z"
					/>
				<path fill="#28A197" d="M83.7,450.2c0,0.6-0.5,1.1-0.5,1.1s-0.5-0.5-0.5-1.1c0-0.6,0.5-1.1,0.5-1.1S83.7,449.6,83.7,450.2z"/>
				<path fill="#28A197" d="M83.7,454.1c-0.4,0.4-0.3,1.1-0.3,1.1s0.6-0.1,1-0.5c0.4-0.4,0.3-1.1,0.3-1.1S84.1,453.6,83.7,454.1z"/>
				<path fill="#28A197" d="M82.8,451.1c0.4,0.4,0.3,1.1,0.3,1.1s-0.6-0.1-1-0.5s-0.3-1.1-0.3-1.1S82.4,450.7,82.8,451.1z"/>
				<path fill="#28A197" d="M83.7,451.1c-0.4,0.4-0.3,1.1-0.3,1.1s0.6-0.1,1-0.5c0.4-0.4,0.3-1.1,0.3-1.1S84.1,450.7,83.7,451.1z"/>
				<path fill="#28A197" d="M82.8,452.6c0.4,0.4,0.3,1.1,0.3,1.1s-0.6-0.1-1-0.5c-0.4-0.4-0.3-1.1-0.3-1.1S82.4,452.2,82.8,452.6z"
					/>
				<path fill="#28A197" d="M83.7,452.6c-0.4,0.4-0.3,1.1-0.3,1.1s0.6-0.1,1-0.5c0.4-0.4,0.3-1.1,0.3-1.1S84.1,452.2,83.7,452.6z"/>
				<path fill="#28A197" d="M82.8,455.6c0.4,0.4,0.3,1.1,0.3,1.1s-0.6-0.1-1-0.5s-0.3-1.1-0.3-1.1S82.4,455.1,82.8,455.6z"/>
				<path fill="#28A197" d="M83.7,455.6c-0.4,0.4-0.3,1.1-0.3,1.1s0.6-0.1,1-0.5c0.4-0.4,0.3-1.1,0.3-1.1S84.1,455.1,83.7,455.6z"/>
			</g>
		</g>
		<g display="inline">
			<g>
				<g>
					<g id="XMLID_65_">
						<g>
							<path fill="#28A197" d="M79,458h-0.1h-0.3v-7.1v-0.1c0-0.1,0.1-0.1,0.1-0.1c0.1,0,0.2,0.1,0.2,0.2L79,458L79,458z"/>
						</g>
					</g>
				</g>
				<path fill="#28A197" d="M78.3,454.1c0.4,0.4,0.3,1.1,0.3,1.1s-0.6-0.1-1-0.5c-0.4-0.4-0.3-1.1-0.3-1.1S78,453.6,78.3,454.1z"/>
				<path fill="#28A197" d="M79.3,450.2c0,0.6-0.5,1.1-0.5,1.1s-0.5-0.5-0.5-1.1c0-0.6,0.5-1.1,0.5-1.1S79.3,449.6,79.3,450.2z"/>
				<path fill="#28A197" d="M79.3,454.1c-0.4,0.4-0.3,1.1-0.3,1.1s0.6-0.1,1-0.5c0.4-0.4,0.3-1.1,0.3-1.1S79.6,453.6,79.3,454.1z"/>
				<path fill="#28A197" d="M78.3,451.1c0.4,0.4,0.3,1.1,0.3,1.1s-0.6-0.1-1-0.5s-0.3-1.1-0.3-1.1S78,450.7,78.3,451.1z"/>
				<path fill="#28A197" d="M79.3,451.1c-0.4,0.4-0.3,1.1-0.3,1.1s0.6-0.1,1-0.5c0.4-0.4,0.3-1.1,0.3-1.1S79.6,450.7,79.3,451.1z"/>
				<path fill="#28A197" d="M78.3,452.6c0.4,0.4,0.3,1.1,0.3,1.1s-0.6-0.1-1-0.5c-0.4-0.4-0.3-1.1-0.3-1.1S78,452.2,78.3,452.6z"/>
				<path fill="#28A197" d="M79.3,452.6c-0.4,0.4-0.3,1.1-0.3,1.1s0.6-0.1,1-0.5c0.4-0.4,0.3-1.1,0.3-1.1S79.6,452.2,79.3,452.6z"/>
				<path fill="#28A197" d="M78.3,455.6c0.4,0.4,0.3,1.1,0.3,1.1s-0.6-0.1-1-0.5s-0.3-1.1-0.3-1.1S78,455.1,78.3,455.6z"/>
				<path fill="#28A197" d="M79.3,455.6c-0.4,0.4-0.3,1.1-0.3,1.1s0.6-0.1,1-0.5c0.4-0.4,0.3-1.1,0.3-1.1S79.6,455.1,79.3,455.6z"/>
			</g>
		</g>
		<g display="inline">
			<g>
				<g>
					<g id="XMLID_62_">
						<g>
							<path fill="#28A197" d="M74.5,458h-0.1h-0.3v-7.1v-0.1c0-0.1,0.1-0.1,0.1-0.1c0.1,0,0.2,0.1,0.2,0.2L74.5,458L74.5,458z"/>
						</g>
					</g>
				</g>
				<path fill="#28A197" d="M73.9,454.1c0.4,0.4,0.3,1.1,0.3,1.1s-0.6-0.1-1-0.5c-0.4-0.4-0.3-1.1-0.3-1.1S73.5,453.6,73.9,454.1z"
					/>
				<path fill="#28A197" d="M74.8,450.2c0,0.6-0.5,1.1-0.5,1.1s-0.5-0.5-0.5-1.1c0-0.6,0.5-1.1,0.5-1.1S74.8,449.6,74.8,450.2z"/>
				<path fill="#28A197" d="M74.8,454.1c-0.4,0.4-0.3,1.1-0.3,1.1s0.6-0.1,1-0.5c0.4-0.4,0.3-1.1,0.3-1.1S75.2,453.6,74.8,454.1z"/>
				<path fill="#28A197" d="M73.9,451.1c0.4,0.4,0.3,1.1,0.3,1.1s-0.6-0.1-1-0.5c-0.4-0.4-0.3-1.1-0.3-1.1S73.5,450.7,73.9,451.1z"
					/>
				<path fill="#28A197" d="M74.8,451.1c-0.4,0.4-0.3,1.1-0.3,1.1s0.6-0.1,1-0.5c0.4-0.4,0.3-1.1,0.3-1.1S75.2,450.7,74.8,451.1z"/>
				<path fill="#28A197" d="M73.9,452.6c0.4,0.4,0.3,1.1,0.3,1.1s-0.6-0.1-1-0.5c-0.4-0.4-0.3-1.1-0.3-1.1S73.5,452.2,73.9,452.6z"
					/>
				<path fill="#28A197" d="M74.8,452.6c-0.4,0.4-0.3,1.1-0.3,1.1s0.6-0.1,1-0.5c0.4-0.4,0.3-1.1,0.3-1.1S75.2,452.2,74.8,452.6z"/>
				<path fill="#28A197" d="M73.9,455.6c0.4,0.4,0.3,1.1,0.3,1.1s-0.6-0.1-1-0.5c-0.4-0.4-0.3-1.1-0.3-1.1S73.5,455.1,73.9,455.6z"
					/>
				<path fill="#28A197" d="M74.8,455.6c-0.4,0.4-0.3,1.1-0.3,1.1s0.6-0.1,1-0.5c0.4-0.4,0.3-1.1,0.3-1.1S75.2,455.1,74.8,455.6z"/>
			</g>
		</g>
	</g>
	<path fill="#5A6378" d="M399.7,448.5c27.4,0.3,195.4,0,195.4,0v48.9H120.4C120.5,497.4,296,447.8,399.7,448.5z"/>
	<g id="_x31_9_2_">
		<path fill="#5A6378" d="M427.7,440.1c-0.5,0-0.9,0.1-1.4,0.2h-0.1l-1.6-2.8v-1.2h1.8c0.4,0,0.6-0.3,0.6-0.6c0-0.4-0.3-0.6-0.6-0.6
			h-2.4c-0.4,0-0.6,0.3-0.6,0.6c0,0.1,0,0.1,0,0.1l0,0v1.2h-5.6l-0.5-1.1h1.3c0.4,0,0.6-0.3,0.6-0.6s-0.3-0.6-0.6-0.6h-4.5
			c-0.4,0-0.6,0.3-0.6,0.6s0.3,0.6,0.6,0.6h1.9l0.4,0.9l-1.8,3.3h-0.1c-0.5-0.1-0.9-0.2-1.4-0.2c-2.3,0-4.2,1.9-4.2,4.2
			c0,2.3,1.9,4.2,4.2,4.2c2.1,0,3.8-1.5,4.2-3.5v-0.1h1.8l0,0c0.3,0.3,0.6,0.4,1,0.4c0.8,0,1.5-0.6,1.5-1.5c0-0.1,0-0.3-0.1-0.4
			v-0.1l2.5-4.5l1.1,2L425,441c-1,0.8-1.6,2-1.6,3.3c0,2.3,1.9,4.2,4.2,4.2s4.2-1.9,4.2-4.2C431.9,442.1,430,440.1,427.7,440.1z
			 M415.1,442.1l0.1,0.1c0.4,0.4,0.7,0.9,0.8,1.4l0.1,0.1h-1.9L415.1,442.1z M416.1,445.1c-0.4,1.3-1.6,2.3-2.9,2.3
			c-1.7,0-3-1.3-3-3c0-1.7,1.3-3,3-3c0.2,0,0.5,0,0.8,0.1l0.1,0.1l-1.4,2.6l0,0v0.1v0.1c0,0,0,0,0,0.1s0,0.1,0,0.1l0,0l0,0l0,0l0,0
			l0,0v0.1c0,0,0,0,0,0.1c0,0,0,0,0,0.1v0.1c0,0,0,0,0,0.1l0,0c0,0,0,0,0,0.1c0,0,0,0,0.1,0.1c0,0,0,0,0.1,0.1c0,0,0,0,0.1,0.1
			c0,0,0,0,0.1,0l0,0l0,0l0,0l0,0c0,0,0,0,0.1,0h0.1c0,0,0,0,0.1,0c0.1,0,0.1,0,0.1,0l0,0h3L416.1,445.1z M419.1,443
			c-0.1,0.2-0.3,0.4-0.3,0.6v0.1h-1.4v-0.1c-0.1-1.1-0.7-2-1.6-2.6l-0.1-0.1l1.4-2.5L419.1,443L419.1,443z M420.7,442.5L420.7,442.5
			c-0.2,0-0.3-0.1-0.4-0.1h-0.1l-1.8-4.1h4.6L420.7,442.5z M427.7,447.4c-1.7,0-3-1.3-3-3c0-0.8,0.4-1.6,0.9-2.2l0.1-0.1l1.4,2.6
			c0.1,0.2,0.3,0.3,0.6,0.3c0.1,0,0.2,0,0.3-0.1c0.1-0.1,0.2-0.2,0.3-0.4s0-0.4-0.1-0.5l-1.4-2.6l0.1-0.1c0.3-0.1,0.5-0.1,0.8-0.1
			c1.7,0,3,1.3,3,3C430.7,446,429.3,447.4,427.7,447.4z"/>
	</g>
	<polygon display="none" fill="#F5F5F5" stroke="#5A6378" stroke-width="8" stroke-miterlimit="10" points="323.1,399.7 389,399.7 
		389,456.3 323.1,456.3 	"/>
	<polygon fill="#F5F5F5" stroke="#F5F5F5" stroke-width="8" stroke-miterlimit="10" points="323.1,399.7 389,399.7 389,456.3 
		323.1,456.3 	"/>
	<path fill="#5A6378" d="M319,396.9l35.5-36.5c0.8-0.8,2.1-0.8,3,0l35.5,36.5c1.3,1.3,0.4,3.5-1.5,3.5h-71
		C318.6,400.5,317.7,398.2,319,396.9z"/>
	<rect x="320.2" y="448.5" fill="#5A6378" width="71.8" height="11.8"/>
	<path display="none" fill="#5A6378" d="M392.4,436.9h-1.6v1v5.7v1.1h1.6v-1.1c0,0,0.4,0,2.1,0c1.7,0,1.6,1.6,1.6,1.6v1.9h-1.1v1.6
		h8.2v-1.6H402v-4.6c0,0,0-4.6-4.9-4.6c-1.8,0-4.8,0-4.8,0V436.9L392.4,436.9z"/>
	<path fill="#5A6378" d="M340.6,424.8H330c-0.5,0-0.8-0.4-0.8-0.8v-17.5c0-0.5,0.4-0.8,0.8-0.8h10.6c0.5,0,0.8,0.4,0.8,0.8V424
		C341.4,424.4,341,424.8,340.6,424.8z"/>
	<circle fill="#F5F5F5" cx="335.5" cy="420.2" r="1.4"/>
	<g id="Layer_1_3_">
		<g>
			<path display="none" fill="#D53980" d="M379,417.7v-5.3c0-0.3-0.2-0.5-0.5-0.5s-0.5,0.2-0.5,0.5v5.3c-0.8,0.2-1.4,1-1.4,1.8
				c0,1.1,0.8,1.9,1.9,1.9s1.9-0.8,1.9-1.9C380.4,418.6,379.8,417.9,379,417.7z"/>
			<path fill="#5A6378" d="M381.9,416.1v-7.6c0-1.8-1.5-3.3-3.3-3.3s-3.3,1.5-3.3,3.3v7.6c-0.8,0.8-1.4,2.1-1.4,3.4
				c0,2.6,2.1,4.7,4.7,4.7s4.7-2.1,4.7-4.7C383.3,418.2,382.7,417,381.9,416.1z M378.6,422.3c-1.6,0-2.8-1.3-2.8-2.8
				c0-1.1,0.6-2,1.4-2.5v-8.5c0-0.8,0.6-1.4,1.4-1.4c0.8,0,1.4,0.6,1.4,1.4v8.5c0.8,0.5,1.4,1.4,1.4,2.5
				C381.4,421.1,380.1,422.3,378.6,422.3z"/>
		</g>
	</g>
	<g display="none">
		<path display="inline" fill="#D53980" d="M335.1,420.7c0,0.1,0.1,0.1,0.1,0.1c0.1,0.1,0.1,0.1,0.1,0.1c0.1,0,0.1,0.1,0.2,0.1l0,0
			l0,0c-0.1-0.1-0.1-0.2-0.1-0.3c0-0.1,0-0.1,0-0.1l0.1-0.1l0.1-0.1c0,0,0.1-0.1,0.1-0.1l0.1-0.1c0,0,0.1-0.1,0.1-0.1
			c0-0.1,0-0.1,0-0.1s0-0.1,0-0.2s-0.1-0.1-0.1-0.1c0-0.1-0.1-0.1-0.1-0.1s-0.1-0.1-0.1-0.1c-0.1,0-0.1-0.1-0.2-0.1l0,0l0,0
			c0.1,0.1,0.1,0.2,0.1,0.3c0,0.1,0,0.1,0,0.1l-0.1,0.1l-0.1,0.1c0,0-0.1,0.1-0.1,0.1l-0.1,0.1c0,0-0.1,0.1-0.1,0.1
			c0,0.1,0,0.1,0,0.1s0,0.1,0,0.2S335.1,420.7,335.1,420.7z"/>
	</g>
	<circle fill="#5A6378" cx="346.5" cy="449.4" r="14.1"/>
	<path display="none" fill="#5A6378" d="M307.4,457.6h17v-19.7h-13.6c-1.9,0-3.5,1.6-3.5,3.4L307.4,457.6L307.4,457.6z"/>
	<g display="none">
		<path display="inline" fill="#F5F5F5" d="M319.7,444.9c-0.2-0.8-1.1-1.3-1.9-1.1c-0.6,0.1-1.8,0.8-2.3,1.6c0,0,0,0-0.1,0
			c0-0.8-0.6-2.1-1.1-2.5c-0.6-0.6-1.6-0.6-2.3-0.1s-0.6,1.6-0.1,2.3c0.4,0.4,1.5,1.1,2.3,1.2c0,0.1,0,0.1,0.1,0.2
			c-0.6,0.5-1.3,1.6-1.4,2.2c-0.2,0.8,0.4,1.7,1.2,1.9c0.8,0.2,1.7-0.4,1.9-1.2c0.1-0.6,0.1-1.8-0.3-2.6c0.1-0.1,0.1-0.1,0.1-0.1
			c0.8,0.4,2.1,0.4,2.6,0.3C319.4,446.6,319.9,445.8,319.7,444.9z M315.3,446.9c-0.4,0-0.8-0.4-0.8-0.8s0.4-0.8,0.8-0.8
			s0.8,0.4,0.8,0.8S315.7,446.9,315.3,446.9z"/>
		<path display="inline" fill="#F5F5F5" d="M315.3,445.9c-0.1,0-0.3,0.1-0.3,0.3s0.1,0.3,0.3,0.3c0.1,0,0.3-0.1,0.3-0.3
			C315.6,446,315.4,445.9,315.3,445.9z"/>
	</g>
	<g display="none">
		<g display="inline">
			<path fill="#F5F5F5" d="M422.1,461.6h-2.8c-0.4,0-0.6-0.3-0.6-0.6v-7.1c0-0.4,0.3-0.6,0.6-0.6h2.8c0.4,0,0.6,0.3,0.6,0.6v7.1
				C422.8,461.3,422.5,461.6,422.1,461.6z"/>
		</g>
		<g display="inline">
			<path fill="#F5F5F5" d="M417.2,461.6h-2.8c-0.4,0-0.6-0.3-0.6-0.6v-7.1c0-0.4,0.3-0.6,0.6-0.6h2.8c0.4,0,0.6,0.3,0.6,0.6v7.1
				C417.8,461.3,417.5,461.6,417.2,461.6z"/>
		</g>
		<g display="inline">
			<path fill="#F5F5F5" d="M412.2,461.6h-2.8c-0.4,0-0.6-0.3-0.6-0.6v-7.1c0-0.4,0.3-0.6,0.6-0.6h2.8c0.4,0,0.6,0.3,0.6,0.6v7.1
				C412.9,461.3,412.6,461.6,412.2,461.6z"/>
		</g>
		<g display="inline">
			<path fill="#F5F5F5" d="M407.3,461.6h-2.8c-0.4,0-0.6-0.3-0.6-0.6v-7.1c0-0.4,0.3-0.6,0.6-0.6h2.8c0.4,0,0.6,0.3,0.6,0.6v7.1
				C407.9,461.3,407.6,461.6,407.3,461.6z"/>
		</g>
		<g display="inline">
			<path fill="#F5F5F5" d="M402.3,461.6h-2.8c-0.4,0-0.6-0.3-0.6-0.6v-7.1c0-0.4,0.3-0.6,0.6-0.6h2.8c0.4,0,0.6,0.3,0.6,0.6v7.1
				C403,461.3,402.7,461.6,402.3,461.6z"/>
		</g>
		<g display="inline">
			<path fill="#F5F5F5" d="M397.4,461.6h-2.8c-0.4,0-0.6-0.3-0.6-0.6v-7.1c0-0.4,0.3-0.6,0.6-0.6h2.8c0.4,0,0.6,0.3,0.6,0.6v7.1
				C398,461.3,397.7,461.6,397.4,461.6z"/>
		</g>
		<g display="inline">
			<path fill="#F5F5F5" d="M392.4,461.6h-2.8c-0.4,0-0.6-0.3-0.6-0.6v-7.1c0-0.4,0.3-0.6,0.6-0.6h2.8c0.4,0,0.6,0.3,0.6,0.6v7.1
				C393.1,461.3,392.8,461.6,392.4,461.6z"/>
		</g>
		<g display="inline">
			<path fill="#F5F5F5" d="M387.4,461.6h-2.8c-0.4,0-0.6-0.3-0.6-0.6v-7.1c0-0.4,0.3-0.6,0.6-0.6h2.8c0.4,0,0.6,0.3,0.6,0.6v7.1
				C388,461.3,387.8,461.6,387.4,461.6z"/>
		</g>
		<g display="inline">
			<path fill="#F5F5F5" d="M382.5,461.6h-2.8c-0.4,0-0.6-0.3-0.6-0.6v-7.1c0-0.4,0.3-0.6,0.6-0.6h2.8c0.4,0,0.6,0.3,0.6,0.6v7.1
				C383.1,461.3,382.8,461.6,382.5,461.6z"/>
		</g>
		<g display="inline">
			<path fill="#F5F5F5" d="M377.5,461.6h-2.8c-0.4,0-0.6-0.3-0.6-0.6v-7.1c0-0.4,0.3-0.6,0.6-0.6h2.8c0.4,0,0.6,0.3,0.6,0.6v7.1
				C378.1,461.3,377.9,461.6,377.5,461.6z"/>
		</g>
	</g>
	<g display="none">
		<path display="inline" fill="#D53980" d="M345.3,451.2c0.2,0.1,0.4,0.1,0.6,0.1c0.6,0,1.1-0.3,1.3-0.8c0.1-0.1,0.1-0.2,0.1-0.3
			l1.5-6.4l0.6-2.4l0.4-1.5c0.1-0.1-0.1-0.3-0.2-0.3c-0.1,0-0.1,0.1-0.2,0.1l-0.7,1.4l-1.1,2.1l-2.9,5.9
			C344.3,450,344.6,450.8,345.3,451.2z"/>
		<g id="XMLID_9_" display="inline">
			<g>
				<path fill="#5A6378" d="M346,449.1c0.4,0,0.7,0.4,0.7,0.7c0,0.4-0.4,0.7-0.7,0.7c-0.4,0-0.7-0.4-0.7-0.7
					C345.3,449.5,345.6,449.1,346,449.1z"/>
			</g>
		</g>
	</g>
	<g>
		<path fill="#5A6378" d="M377.1,436.4h-2.4c-0.3,0-0.5,0.2-0.5,0.5h-0.9c0-0.3-0.2-0.5-0.5-0.5h-2.4c-0.3,0-0.5,0.2-0.5,0.5h-1.4
			v10.5v1.4v1.4h1.4v-1.4h7.6v1.4h1.4v-1.4v-1.4v-10.5h-1.4C377.6,436.6,377.4,436.4,377.1,436.4z M375.9,438.6
			c0,0.3-0.3,0.6-0.6,0.6c-0.3,0-0.6-0.3-0.6-0.6s0.3-0.6,0.6-0.6C375.6,437.9,375.9,438.2,375.9,438.6z M377.1,440.2
			c0.1,0,0.2,0.1,0.2,0.2s-0.1,0.2-0.2,0.2h-6.7c-0.1,0-0.2-0.1-0.2-0.2s0.1-0.2,0.2-0.2H377.1z M373.5,438.6c0,0.3-0.3,0.6-0.6,0.6
			s-0.6-0.3-0.6-0.6s0.3-0.6,0.6-0.6C373.2,437.9,373.5,438.2,373.5,438.6z M370.5,437.9c0.3,0,0.6,0.3,0.6,0.6s-0.3,0.6-0.6,0.6
			s-0.6-0.3-0.6-0.6S370.2,437.9,370.5,437.9z M378.1,447.8h-0.5h-7.6h-0.5v-0.5v-5.7h8.6v5.7V447.8L378.1,447.8z M377.7,437.9
			c0.3,0,0.6,0.3,0.6,0.6s-0.3,0.6-0.6,0.6s-0.6-0.3-0.6-0.6S377.4,437.9,377.7,437.9z"/>
	</g>
	<path display="none" fill="#D53980" d="M374.7,444.4C374.7,444.4,374.7,444.4,374.7,444.4l-0.8,0.1l0.2-1.5V443h-0.1l-1.5,2.1v0.1
		c0,0,0,0,0.1,0l0.8-0.1l-0.2,1.4v0.1l0,0c0,0,0,0,0.1,0L374.7,444.4C374.7,444.5,374.7,444.5,374.7,444.4z"/>
	<g display="none">
		<path display="inline" fill="#D53980" d="M370.9,435c0.1,0.1,0.1,0.2,0.3,0.3s0.2,0.1,0.4,0.2s0.2,0.1,0.4,0.2l0,0l0,0
			c-0.1-0.2-0.1-0.4-0.1-0.6c0-0.1,0-0.1,0.1-0.2c0.1-0.1,0.1-0.1,0.1-0.2c0.1-0.1,0.1-0.1,0.2-0.1c0.1-0.1,0.1-0.1,0.2-0.2
			c0.1-0.1,0.1-0.1,0.2-0.2s0.1-0.1,0.1-0.3s0.1-0.2,0.1-0.4c0-0.1,0-0.3-0.1-0.4c-0.1-0.1-0.1-0.3-0.1-0.4
			c-0.1-0.1-0.1-0.2-0.3-0.3s-0.2-0.1-0.4-0.2s-0.2-0.1-0.4-0.2l0,0l0,0c0.1,0.2,0.1,0.4,0.1,0.6c0,0.1,0,0.1-0.1,0.2
			c-0.1,0.1-0.1,0.1-0.1,0.2c-0.1,0.1-0.1,0.1-0.2,0.1c-0.1,0.1-0.1,0.1-0.2,0.2c-0.1,0.1-0.1,0.1-0.2,0.2s-0.1,0.1-0.1,0.3
			c-0.1,0.1-0.1,0.2-0.1,0.4s0,0.3,0.1,0.4C370.8,434.8,370.8,434.9,370.9,435z"/>
	</g>
	<g display="none">
		<path display="inline" fill="#D53980" d="M375.2,435c0.1,0.1,0.1,0.2,0.3,0.3c0.1,0.1,0.2,0.1,0.4,0.2s0.2,0.1,0.4,0.2l0,0l0,0
			c-0.1-0.2-0.1-0.4-0.1-0.6c0-0.1,0-0.1,0.1-0.2s0.1-0.1,0.1-0.2s0.1-0.1,0.2-0.1c0.1-0.1,0.1-0.1,0.2-0.2s0.1-0.1,0.2-0.2
			c0.1-0.1,0.1-0.1,0.1-0.3c0.1-0.1,0.1-0.2,0.1-0.4c0-0.1,0-0.3-0.1-0.4c-0.1-0.1-0.1-0.3-0.1-0.4c-0.1-0.1-0.1-0.2-0.3-0.3
			s-0.2-0.1-0.4-0.2s-0.2-0.1-0.4-0.2l0,0l0,0c0.1,0.2,0.1,0.4,0.1,0.6c0,0.1,0,0.1-0.1,0.2s-0.1,0.1-0.1,0.2
			c-0.1,0.1-0.1,0.1-0.2,0.1c-0.1,0.1-0.1,0.1-0.2,0.2c-0.1,0.1-0.1,0.1-0.2,0.2c-0.1,0.1-0.1,0.1-0.1,0.3s-0.1,0.2-0.1,0.4
			s0,0.3,0.1,0.4C375.1,434.8,375.1,434.9,375.2,435z"/>
	</g>
	<g display="none">
		<rect x="356.8" y="384.4" display="inline" fill="#5A6378" width="3.3" height="3.3"/>
		<rect x="356.8" y="393.8" display="inline" fill="#5A6378" width="3.3" height="3.3"/>
		<rect x="352.1" y="384.4" display="inline" fill="#5A6378" width="3.3" height="3.3"/>
		<rect x="356.8" y="389.2" display="inline" fill="#5A6378" width="3.3" height="3.3"/>
		<rect x="352.1" y="389.2" display="inline" fill="#5A6378" width="3.3" height="3.3"/>
		<rect x="352.1" y="393.8" display="inline" fill="#5A6378" width="3.3" height="3.3"/>
		<path display="inline" fill="#F5F5F5" d="M355.7,398.1h0.7h4.7v-4.7v-0.7v-4v-0.7v-4.7h-4.7h-0.7h-4.7v4.7v0.7v4v0.7v4.7H355.7
			L355.7,398.1z M356.8,393.8h3.3v3.3h-3.3V393.8z M356.8,389.2h3.3v3.3h-3.3V389.2z M356.8,384.4h3.3v3.3h-3.3V384.4z M352.1,393.8
			h3.3v3.3h-3.3V393.8z M352.1,389.2h3.3v3.3h-3.3V389.2z M352.1,384.4h3.3v3.3h-3.3V384.4z"/>
	</g>
	<g display="none">
		<rect x="368" y="384.4" display="inline" fill="#5A6378" width="3.3" height="3.3"/>
		<rect x="368" y="393.8" display="inline" fill="#5A6378" width="3.3" height="3.3"/>
		<rect x="363.3" y="384.4" display="inline" fill="#5A6378" width="3.3" height="3.3"/>
		<rect x="368" y="389.2" display="inline" fill="#5A6378" width="3.3" height="3.3"/>
		<rect x="363.3" y="389.2" display="inline" fill="#5A6378" width="3.3" height="3.3"/>
		<rect x="363.3" y="393.8" display="inline" fill="#5A6378" width="3.3" height="3.3"/>
		<path display="inline" fill="#F5F5F5" d="M367,398.1h0.7h4.7v-4.7v-0.7v-4v-0.7v-4.7h-4.7H367h-4.7v4.7v0.7v4v0.7v4.7H367
			L367,398.1z M368,393.8h3.3v3.3H368V393.8z M368,389.2h3.3v3.3H368V389.2z M368,384.4h3.3v3.3H368V384.4z M363.3,393.8h3.3v3.3
			h-3.3V393.8z M363.3,389.2h3.3v3.3h-3.3V389.2z M363.3,384.4h3.3v3.3h-3.3V384.4z"/>
	</g>
	<g display="none">
		<rect x="345.5" y="384.4" display="inline" fill="#5A6378" width="3.3" height="3.3"/>
		<rect x="345.5" y="393.8" display="inline" fill="#5A6378" width="3.3" height="3.3"/>
		<rect x="340.8" y="384.4" display="inline" fill="#5A6378" width="3.3" height="3.3"/>
		<rect x="345.5" y="389.2" display="inline" fill="#5A6378" width="3.3" height="3.3"/>
		<rect x="340.8" y="389.2" display="inline" fill="#5A6378" width="3.3" height="3.3"/>
		<rect x="340.8" y="393.8" display="inline" fill="#5A6378" width="3.3" height="3.3"/>
		<path display="inline" fill="#F5F5F5" d="M344.4,398.1h0.7h4.7v-4.7v-0.7v-4v-0.7v-4.7h-4.7h-0.7h-4.7v4.7v0.7v4v0.7v4.7H344.4
			L344.4,398.1z M345.5,393.8h3.3v3.3h-3.3V393.8z M345.5,389.2h3.3v3.3h-3.3V389.2z M345.5,384.4h3.3v3.3h-3.3V384.4z M340.8,393.8
			h3.3v3.3h-3.3V393.8z M340.8,389.2h3.3v3.3h-3.3V389.2z M340.8,384.4h3.3v3.3h-3.3V384.4z"/>
	</g>
	<g>
		<path fill="#5A6378" d="M292,443.7c-4.1-2.7-7.1-4.7-9.1-6c-1.4-0.9-2.2-0.8-2.6-0.8c-0.4,0.1-10.5,1.8-11.7,2.1
			c-1.2,0.2-1.8,0.6-2.2,1.6c-0.4,1.1-3,5.6-3.5,7c-4.7,1.8-5.2,2.9-5,4.4c0.1,0.8,1.1,6.2,1.1,6.2c0.1,0.8,2.5,2.5,3.2,2.4l1.2-0.2
			c1.1,2,3.4,3.2,5.7,2.8c2.4-0.4,4.1-2.3,4.5-4.5l17-3c1.1,2,3.4,3.2,5.7,2.8c2.5-0.4,4.2-2.5,4.5-4.8c0.8-0.8,1.7-2.3,1.6-2.9
			c0,0-0.8-4.3-0.9-5.1C301.4,444.1,298.4,443.8,292,443.7z"/>
		<g id="XMLID_3_">
			<g>
				<path fill="#F5F5F5" d="M298.2,452.4c0.3,1.5-0.8,3-2.3,3.2c-1.5,0.2-2.9-0.8-3.2-2.3c-0.3-1.5,0.8-3,2.3-3.2
					C296.5,449.9,297.9,451,298.2,452.4z"/>
				<path fill="#F5F5F5" d="M270.9,457.2c0.3,1.5-0.8,3-2.3,3.2c-1.5,0.3-2.9-0.8-3.2-2.3c-0.3-1.5,0.8-3,2.3-3.2
					C269.3,454.7,270.7,455.7,270.9,457.2z"/>
			</g>
		</g>
		<g id="XMLID_2_">
			<g>
				<path fill="#F5F5F5" d="M287.8,443.7c1.1,0.8,0.7,1.1,0,1.2c0,0-6.1,1.1-11.7,2.1l-1.1-6.2c2.7-0.5,5.3-0.9,5.3-0.9
					c0.7-0.1,1.5,0.1,2.1,0.4C283.3,440.8,286.5,442.9,287.8,443.7z"/>
			</g>
		</g>
		<g id="XMLID_1_">
			<g>
				<path fill="#F5F5F5" d="M274.3,440.9l1.1,6.2c-4.2,0.7-7.9,1.4-8.4,1.5c-0.8,0.1-1.3-0.3-0.7-1.5c0.6-1.1,1.8-3.5,2.1-4.1
					c0.4-0.8,0.7-1.1,1.6-1.3C270.3,441.6,272.2,441.3,274.3,440.9z"/>
			</g>
		</g>
	</g>
</g>
</svg>
